<svg width="983" height="123" viewBox="0 0 983 123" fill="none" xmlns="http://www.w3.org/2000/svg">
<path d="M979 61.8884C979 44.196 964.657 29.8535 946.965 29.8535H539.76V93.9232H946.965C964.657 93.9232 979 79.5807 979 61.8884Z" fill="#7B73B1"/>
<path d="M947 29.8882C964.673 29.8882 979 44.2151 979 61.8882C979 79.5613 964.673 93.8882 947 93.8882L108.531 93.8882V29.8882H947Z" stroke="#3A082C" stroke-width="8"/>
<circle cx="65.7536" cy="64.739" r="52.5261" fill="#EE8363"/>
<circle cx="61.1981" cy="61.725" r="57.1981" stroke="#3A082C" stroke-width="8"/>
<path d="M78.7399 71.8822C78.7399 75.4422 77.5199 78.4222 75.0799 80.8222C72.6799 83.1822 69.4399 84.5622 65.3599 84.9622C64.9199 85.0022 64.6399 85.0822 64.5199 85.2022C64.3999 85.3222 64.3399 85.5622 64.3399 85.9222V88.0822C64.3399 88.5622 64.2199 88.9022 63.9799 89.1022C63.7799 89.3422 63.4199 89.4622 62.8999 89.4622H59.5999C58.7599 89.4622 58.3399 89.0622 58.3399 88.2622V85.8622C58.3399 85.5022 58.2799 85.2622 58.1599 85.1422C58.0399 85.0222 57.8199 84.9622 57.4999 84.9622C54.6199 84.8022 52.0999 84.2822 49.9399 83.4022C47.8199 82.4822 45.8199 81.1622 43.9399 79.4422C43.3399 78.9622 43.0399 78.5422 43.0399 78.1822C43.0399 77.9422 43.1399 77.7222 43.3399 77.5222L46.9399 73.6222C47.2999 73.2622 47.6199 73.0822 47.8999 73.0822C48.1399 73.0822 48.3999 73.2222 48.6799 73.5022C51.1999 76.2222 54.1599 77.8022 57.5599 78.2422L57.9199 78.3022C58.2399 78.3022 58.3999 78.0822 58.3999 77.6422L58.4599 67.3822C58.4599 67.0622 58.3999 66.8222 58.2799 66.6622C58.1599 66.4622 57.9199 66.3022 57.5599 66.1822C52.8399 65.1422 49.4399 63.5022 47.3599 61.2622C45.3199 59.0222 44.2999 56.2822 44.2999 53.0422C44.2999 49.8422 45.4399 47.1222 47.7199 44.8822C49.9999 42.6022 53.1999 41.1022 57.3199 40.3822C58.0799 40.1822 58.4599 39.8422 58.4599 39.3622V37.0822C58.4599 36.8422 58.5199 36.6422 58.6399 36.4822C58.7999 36.3222 58.9799 36.2422 59.1799 36.2422H63.2599C63.9799 36.2422 64.3399 36.6222 64.3399 37.3822V39.7822C64.3399 40.0222 64.5999 40.2022 65.1199 40.3222C69.1599 41.1622 72.6199 42.6622 75.4999 44.8222C75.8199 45.0222 75.9799 45.2822 75.9799 45.6022C75.9799 45.8022 75.8799 46.0422 75.6799 46.3222L72.4999 50.4022C72.2599 50.6822 72.0199 50.8222 71.7799 50.8222C71.4599 50.8222 71.1399 50.6622 70.8199 50.3422C70.1399 49.6622 69.2799 49.0422 68.2399 48.4822C67.2399 47.8822 66.1799 47.4422 65.0599 47.1622L64.8199 47.1022C64.4599 47.1022 64.2799 47.2822 64.2799 47.6422V57.7822C64.2799 58.0222 64.3199 58.2022 64.3999 58.3222C64.5199 58.4022 64.7199 58.4822 64.9999 58.5622L68.3599 59.4622C71.5199 60.4222 74.0399 62.0022 75.9199 64.2022C77.7999 66.3622 78.7399 68.9222 78.7399 71.8822ZM58.4599 47.5822C58.4599 46.9822 58.1999 46.7422 57.6799 46.8622C55.8799 47.1822 54.4999 47.8222 53.5399 48.7822C52.5799 49.7022 52.0999 50.8022 52.0999 52.0822C52.0999 53.3222 52.4999 54.3622 53.2999 55.2022C54.0999 56.0022 55.4199 56.6822 57.2599 57.2422C57.3399 57.2822 57.4599 57.3022 57.6199 57.3022C58.1799 57.3022 58.4599 56.9222 58.4599 56.1622V47.5822ZM64.2799 77.8822C64.2799 78.2422 64.5399 78.3822 65.0599 78.3022C66.8599 78.1022 68.2799 77.5422 69.3199 76.6222C70.3599 75.7022 70.8799 74.5822 70.8799 73.2622C70.8799 71.8622 70.4199 70.7022 69.4999 69.7822C68.5799 68.8622 67.0999 68.1222 65.0599 67.5622C64.9799 67.5222 64.8599 67.5022 64.6999 67.5022C64.4199 67.5022 64.2799 67.7222 64.2799 68.1622V77.8822Z" fill="white"/>
<path d="M656.965 67.1842C656.965 69.3202 656.233 71.1082 654.769 72.5482C653.329 73.9642 651.385 74.7922 648.937 75.0322C648.673 75.0562 648.505 75.1042 648.433 75.1762C648.361 75.2482 648.325 75.3922 648.325 75.6082V76.9042C648.325 77.1922 648.253 77.3962 648.109 77.5162C647.989 77.6602 647.773 77.7322 647.461 77.7322H645.481C644.977 77.7322 644.725 77.4922 644.725 77.0122V75.5722C644.725 75.3562 644.689 75.2122 644.617 75.1402C644.545 75.0682 644.413 75.0322 644.221 75.0322C642.493 74.9362 640.981 74.6242 639.685 74.0962C638.413 73.5442 637.213 72.7522 636.085 71.7202C635.725 71.4322 635.545 71.1802 635.545 70.9642C635.545 70.8202 635.605 70.6882 635.725 70.5682L637.885 68.2282C638.101 68.0122 638.293 67.9042 638.461 67.9042C638.605 67.9042 638.761 67.9882 638.929 68.1562C640.441 69.7882 642.217 70.7362 644.257 71.0002L644.473 71.0362C644.665 71.0362 644.761 70.9042 644.761 70.6402L644.797 64.4842C644.797 64.2922 644.761 64.1482 644.689 64.0522C644.617 63.9322 644.473 63.8362 644.257 63.7642C641.425 63.1402 639.385 62.1562 638.137 60.8122C636.913 59.4682 636.301 57.8242 636.301 55.8802C636.301 53.9602 636.985 52.3282 638.353 50.9842C639.721 49.6162 641.641 48.7162 644.113 48.2842C644.569 48.1642 644.797 47.9602 644.797 47.6722V46.3042C644.797 46.1602 644.833 46.0402 644.905 45.9442C645.001 45.8482 645.109 45.8002 645.229 45.8002H647.677C648.109 45.8002 648.325 46.0282 648.325 46.4842V47.9242C648.325 48.0682 648.481 48.1762 648.793 48.2482C651.217 48.7522 653.293 49.6522 655.021 50.9482C655.213 51.0682 655.309 51.2242 655.309 51.4162C655.309 51.5362 655.249 51.6802 655.129 51.8482L653.221 54.2962C653.077 54.4642 652.933 54.5482 652.789 54.5482C652.597 54.5482 652.405 54.4522 652.213 54.2602C651.805 53.8522 651.289 53.4802 650.665 53.1442C650.065 52.7842 649.429 52.5202 648.757 52.3522L648.613 52.3162C648.397 52.3162 648.289 52.4242 648.289 52.6402V58.7242C648.289 58.8682 648.313 58.9762 648.361 59.0482C648.433 59.0962 648.553 59.1442 648.721 59.1922L650.737 59.7322C652.633 60.3082 654.145 61.2562 655.273 62.5762C656.401 63.8722 656.965 65.4082 656.965 67.1842ZM644.797 52.6042C644.797 52.2442 644.641 52.1002 644.329 52.1722C643.249 52.3642 642.421 52.7482 641.845 53.3242C641.269 53.8762 640.981 54.5362 640.981 55.3042C640.981 56.0482 641.221 56.6722 641.701 57.1762C642.181 57.6562 642.973 58.0642 644.077 58.4002C644.125 58.4242 644.197 58.4362 644.293 58.4362C644.629 58.4362 644.797 58.2082 644.797 57.7522V52.6042ZM648.289 70.7842C648.289 71.0002 648.445 71.0842 648.757 71.0362C649.837 70.9162 650.689 70.5802 651.313 70.0282C651.937 69.4762 652.249 68.8042 652.249 68.0122C652.249 67.1722 651.973 66.4762 651.421 65.9242C650.869 65.3722 649.981 64.9282 648.757 64.5922C648.709 64.5682 648.637 64.5562 648.541 64.5562C648.373 64.5562 648.289 64.6882 648.289 64.9522V70.7842ZM667.919 63.3322C669.503 61.9642 670.679 60.8722 671.447 60.0562C672.215 59.2402 672.743 58.5322 673.031 57.9322C673.343 57.3082 673.499 56.6362 673.499 55.9162C673.499 54.8362 673.115 53.9842 672.347 53.3602C671.603 52.7122 670.655 52.3882 669.503 52.3882C668.495 52.3882 667.559 52.6882 666.695 53.2882C665.855 53.8642 665.039 54.8242 664.247 56.1682C664.175 56.3602 664.019 56.4562 663.779 56.4562C663.611 56.4562 663.443 56.4082 663.275 56.3122L660.071 54.6562C659.783 54.4642 659.639 54.2482 659.639 54.0082C659.639 53.8402 659.699 53.6602 659.819 53.4682C662.195 49.7002 665.543 47.8162 669.863 47.8162C671.783 47.8162 673.475 48.1402 674.939 48.7882C676.427 49.4362 677.579 50.3722 678.395 51.5962C679.211 52.8202 679.619 54.2602 679.619 55.9162C679.619 57.3802 679.223 58.7242 678.431 59.9482C677.663 61.1722 676.331 62.5402 674.435 64.0522L667.775 69.2722C667.631 69.3682 667.559 69.4522 667.559 69.5242C667.559 69.6442 667.703 69.7042 667.991 69.7042H679.187C679.643 69.7042 679.871 69.8962 679.871 70.2802V74.2402C679.871 74.6722 679.631 74.8882 679.151 74.8882H660.395C660.083 74.8882 659.867 74.8402 659.747 74.7442C659.627 74.6242 659.567 74.4202 659.567 74.1322V71.3602C659.567 71.1442 659.663 70.9162 659.855 70.6762C660.047 70.4122 660.503 69.9802 661.223 69.3802L667.919 63.3322ZM694.183 47.7802C696.319 47.7802 698.227 48.3562 699.907 49.5082C701.587 50.6602 702.907 52.2802 703.867 54.3682C704.827 56.4562 705.307 58.8682 705.307 61.6042C705.307 64.3402 704.827 66.7402 703.867 68.8042C702.931 70.8442 701.623 72.4282 699.943 73.5562C698.263 74.6602 696.343 75.2122 694.183 75.2122C692.023 75.2122 690.091 74.6602 688.387 73.5562C686.707 72.4282 685.387 70.8442 684.427 68.8042C683.491 66.7402 683.023 64.3522 683.023 61.6402C683.023 58.9042 683.503 56.4922 684.463 54.4042C685.423 52.2922 686.743 50.6602 688.423 49.5082C690.127 48.3562 692.047 47.7802 694.183 47.7802ZM694.183 70.7482C695.791 70.7482 696.979 70.0402 697.747 68.6242C698.515 67.2082 698.899 64.8802 698.899 61.6402C698.899 58.3282 698.503 55.9282 697.711 54.4402C696.943 52.9282 695.755 52.1722 694.147 52.1722C692.563 52.1722 691.375 52.9282 690.583 54.4402C689.791 55.9522 689.395 58.3522 689.395 61.6402C689.395 64.8562 689.791 67.1842 690.583 68.6242C691.375 70.0402 692.575 70.7482 694.183 70.7482ZM719.671 47.7802C721.807 47.7802 723.715 48.3562 725.395 49.5082C727.075 50.6602 728.395 52.2802 729.355 54.3682C730.315 56.4562 730.795 58.8682 730.795 61.6042C730.795 64.3402 730.315 66.7402 729.355 68.8042C728.419 70.8442 727.111 72.4282 725.431 73.5562C723.751 74.6602 721.831 75.2122 719.671 75.2122C717.511 75.2122 715.579 74.6602 713.875 73.5562C712.195 72.4282 710.875 70.8442 709.915 68.8042C708.979 66.7402 708.511 64.3522 708.511 61.6402C708.511 58.9042 708.991 56.4922 709.951 54.4042C710.911 52.2922 712.231 50.6602 713.911 49.5082C715.615 48.3562 717.535 47.7802 719.671 47.7802ZM719.671 70.7482C721.279 70.7482 722.467 70.0402 723.235 68.6242C724.003 67.2082 724.387 64.8802 724.387 61.6402C724.387 58.3282 723.991 55.9282 723.199 54.4402C722.431 52.9282 721.243 52.1722 719.635 52.1722C718.051 52.1722 716.863 52.9282 716.071 54.4402C715.279 55.9522 714.883 58.3522 714.883 61.6402C714.883 64.8562 715.279 67.1842 716.071 68.6242C716.863 70.0402 718.063 70.7482 719.671 70.7482ZM751.714 66.6082C751.714 67.1362 751.402 67.4002 750.778 67.4002H742.318C742.03 67.4002 741.826 67.3522 741.706 67.2562C741.61 67.1362 741.562 66.9442 741.562 66.6802V64.0522C741.562 63.6202 741.742 63.4042 742.102 63.4042H751.174C751.342 63.4042 751.474 63.4522 751.57 63.5482C751.666 63.6442 751.714 63.7762 751.714 63.9442V66.6082ZM783.211 67.1842C783.211 69.3202 782.479 71.1082 781.015 72.5482C779.575 73.9642 777.631 74.7922 775.183 75.0322C774.919 75.0562 774.751 75.1042 774.679 75.1762C774.607 75.2482 774.571 75.3922 774.571 75.6082V76.9042C774.571 77.1922 774.499 77.3962 774.355 77.5162C774.235 77.6602 774.019 77.7322 773.707 77.7322H771.727C771.223 77.7322 770.971 77.4922 770.971 77.0122V75.5722C770.971 75.3562 770.935 75.2122 770.863 75.1402C770.791 75.0682 770.659 75.0322 770.467 75.0322C768.739 74.9362 767.227 74.6242 765.931 74.0962C764.659 73.5442 763.459 72.7522 762.331 71.7202C761.971 71.4322 761.791 71.1802 761.791 70.9642C761.791 70.8202 761.851 70.6882 761.971 70.5682L764.131 68.2282C764.347 68.0122 764.539 67.9042 764.707 67.9042C764.851 67.9042 765.007 67.9882 765.175 68.1562C766.687 69.7882 768.463 70.7362 770.503 71.0002L770.719 71.0362C770.911 71.0362 771.007 70.9042 771.007 70.6402L771.043 64.4842C771.043 64.2922 771.007 64.1482 770.935 64.0522C770.863 63.9322 770.719 63.8362 770.503 63.7642C767.671 63.1402 765.631 62.1562 764.383 60.8122C763.159 59.4682 762.547 57.8242 762.547 55.8802C762.547 53.9602 763.231 52.3282 764.599 50.9842C765.967 49.6162 767.887 48.7162 770.359 48.2842C770.815 48.1642 771.043 47.9602 771.043 47.6722V46.3042C771.043 46.1602 771.079 46.0402 771.151 45.9442C771.247 45.8482 771.355 45.8002 771.475 45.8002H773.923C774.355 45.8002 774.571 46.0282 774.571 46.4842V47.9242C774.571 48.0682 774.727 48.1762 775.039 48.2482C777.463 48.7522 779.539 49.6522 781.267 50.9482C781.459 51.0682 781.555 51.2242 781.555 51.4162C781.555 51.5362 781.495 51.6802 781.375 51.8482L779.467 54.2962C779.323 54.4642 779.179 54.5482 779.035 54.5482C778.843 54.5482 778.651 54.4522 778.459 54.2602C778.051 53.8522 777.535 53.4802 776.911 53.1442C776.311 52.7842 775.675 52.5202 775.003 52.3522L774.859 52.3162C774.643 52.3162 774.535 52.4242 774.535 52.6402V58.7242C774.535 58.8682 774.559 58.9762 774.607 59.0482C774.679 59.0962 774.799 59.1442 774.967 59.1922L776.983 59.7322C778.879 60.3082 780.391 61.2562 781.519 62.5762C782.647 63.8722 783.211 65.4082 783.211 67.1842ZM771.043 52.6042C771.043 52.2442 770.887 52.1002 770.575 52.1722C769.495 52.3642 768.667 52.7482 768.091 53.3242C767.515 53.8762 767.227 54.5362 767.227 55.3042C767.227 56.0482 767.467 56.6722 767.947 57.1762C768.427 57.6562 769.219 58.0642 770.323 58.4002C770.371 58.4242 770.443 58.4362 770.539 58.4362C770.875 58.4362 771.043 58.2082 771.043 57.7522V52.6042ZM774.535 70.7842C774.535 71.0002 774.691 71.0842 775.003 71.0362C776.083 70.9162 776.935 70.5802 777.559 70.0282C778.183 69.4762 778.495 68.8042 778.495 68.0122C778.495 67.1722 778.219 66.4762 777.667 65.9242C777.115 65.3722 776.227 64.9282 775.003 64.5922C774.955 64.5682 774.883 64.5562 774.787 64.5562C774.619 64.5562 774.535 64.6882 774.535 64.9522V70.7842ZM794.165 63.3322C795.749 61.9642 796.925 60.8722 797.693 60.0562C798.461 59.2402 798.989 58.5322 799.277 57.9322C799.589 57.3082 799.745 56.6362 799.745 55.9162C799.745 54.8362 799.361 53.9842 798.593 53.3602C797.849 52.7122 796.901 52.3882 795.749 52.3882C794.741 52.3882 793.805 52.6882 792.941 53.2882C792.101 53.8642 791.285 54.8242 790.493 56.1682C790.421 56.3602 790.265 56.4562 790.025 56.4562C789.857 56.4562 789.689 56.4082 789.521 56.3122L786.317 54.6562C786.029 54.4642 785.885 54.2482 785.885 54.0082C785.885 53.8402 785.945 53.6602 786.065 53.4682C788.441 49.7002 791.789 47.8162 796.109 47.8162C798.029 47.8162 799.721 48.1402 801.185 48.7882C802.673 49.4362 803.825 50.3722 804.641 51.5962C805.457 52.8202 805.865 54.2602 805.865 55.9162C805.865 57.3802 805.469 58.7242 804.677 59.9482C803.909 61.1722 802.577 62.5402 800.681 64.0522L794.021 69.2722C793.877 69.3682 793.805 69.4522 793.805 69.5242C793.805 69.6442 793.949 69.7042 794.237 69.7042H805.433C805.889 69.7042 806.117 69.8962 806.117 70.2802V74.2402C806.117 74.6722 805.877 74.8882 805.397 74.8882H786.641C786.329 74.8882 786.113 74.8402 785.993 74.7442C785.873 74.6242 785.813 74.4202 785.813 74.1322V71.3602C785.813 71.1442 785.909 70.9162 786.101 70.6762C786.293 70.4122 786.749 69.9802 787.469 69.3802L794.165 63.3322ZM820.429 47.7802C822.565 47.7802 824.473 48.3562 826.153 49.5082C827.833 50.6602 829.153 52.2802 830.113 54.3682C831.073 56.4562 831.553 58.8682 831.553 61.6042C831.553 64.3402 831.073 66.7402 830.113 68.8042C829.177 70.8442 827.869 72.4282 826.189 73.5562C824.509 74.6602 822.589 75.2122 820.429 75.2122C818.269 75.2122 816.337 74.6602 814.633 73.5562C812.953 72.4282 811.633 70.8442 810.673 68.8042C809.737 66.7402 809.269 64.3522 809.269 61.6402C809.269 58.9042 809.749 56.4922 810.709 54.4042C811.669 52.2922 812.989 50.6602 814.669 49.5082C816.373 48.3562 818.293 47.7802 820.429 47.7802ZM820.429 70.7482C822.037 70.7482 823.225 70.0402 823.993 68.6242C824.761 67.2082 825.145 64.8802 825.145 61.6402C825.145 58.3282 824.749 55.9282 823.957 54.4402C823.189 52.9282 822.001 52.1722 820.393 52.1722C818.809 52.1722 817.621 52.9282 816.829 54.4402C816.037 55.9522 815.641 58.3522 815.641 61.6402C815.641 64.8562 816.037 67.1842 816.829 68.6242C817.621 70.0402 818.821 70.7482 820.429 70.7482ZM845.918 47.7802C848.054 47.7802 849.962 48.3562 851.642 49.5082C853.322 50.6602 854.642 52.2802 855.602 54.3682C856.562 56.4562 857.042 58.8682 857.042 61.6042C857.042 64.3402 856.562 66.7402 855.602 68.8042C854.666 70.8442 853.358 72.4282 851.678 73.5562C849.998 74.6602 848.078 75.2122 845.918 75.2122C843.758 75.2122 841.826 74.6602 840.122 73.5562C838.442 72.4282 837.122 70.8442 836.162 68.8042C835.226 66.7402 834.758 64.3522 834.758 61.6402C834.758 58.9042 835.238 56.4922 836.198 54.4042C837.158 52.2922 838.478 50.6602 840.158 49.5082C841.862 48.3562 843.782 47.7802 845.918 47.7802ZM845.918 70.7482C847.526 70.7482 848.714 70.0402 849.482 68.6242C850.25 67.2082 850.634 64.8802 850.634 61.6402C850.634 58.3282 850.238 55.9282 849.446 54.4402C848.678 52.9282 847.49 52.1722 845.882 52.1722C844.298 52.1722 843.11 52.9282 842.318 54.4402C841.526 55.9522 841.13 58.3522 841.13 61.6402C841.13 64.8562 841.526 67.1842 842.318 68.6242C843.11 70.0402 844.31 70.7482 845.918 70.7482ZM871.406 47.7802C873.542 47.7802 875.45 48.3562 877.13 49.5082C878.81 50.6602 880.13 52.2802 881.09 54.3682C882.05 56.4562 882.53 58.8682 882.53 61.6042C882.53 64.3402 882.05 66.7402 881.09 68.8042C880.154 70.8442 878.846 72.4282 877.166 73.5562C875.486 74.6602 873.566 75.2122 871.406 75.2122C869.246 75.2122 867.314 74.6602 865.61 73.5562C863.93 72.4282 862.61 70.8442 861.65 68.8042C860.714 66.7402 860.246 64.3522 860.246 61.6402C860.246 58.9042 860.726 56.4922 861.686 54.4042C862.646 52.2922 863.966 50.6602 865.646 49.5082C867.35 48.3562 869.27 47.7802 871.406 47.7802ZM871.406 70.7482C873.014 70.7482 874.202 70.0402 874.97 68.6242C875.738 67.2082 876.122 64.8802 876.122 61.6402C876.122 58.3282 875.726 55.9282 874.934 54.4402C874.166 52.9282 872.978 52.1722 871.37 52.1722C869.786 52.1722 868.598 52.9282 867.806 54.4402C867.014 55.9522 866.618 58.3522 866.618 61.6402C866.618 64.8562 867.014 67.1842 867.806 68.6242C868.598 70.0402 869.798 70.7482 871.406 70.7482Z" fill="white"/>
<path d="M166.601 70.8882C166.361 70.8882 166.241 70.7522 166.241 70.4802C166.241 70.3522 166.257 70.2562 166.289 70.1922L172.265 53.5602C172.329 53.3842 172.401 53.2642 172.481 53.2002C172.577 53.1202 172.713 53.0802 172.889 53.0802H176.489C176.665 53.0802 176.817 53.1282 176.945 53.2242C177.073 53.3202 177.161 53.4482 177.209 53.6082L183.137 70.2402C183.169 70.3362 183.185 70.4082 183.185 70.4562C183.185 70.5842 183.153 70.6882 183.089 70.7682C183.041 70.8482 182.961 70.8882 182.849 70.8882H179.321C179.081 70.8882 178.929 70.7762 178.865 70.5522L177.617 67.0482C177.585 66.9522 177.545 66.8882 177.497 66.8562C177.465 66.8082 177.401 66.7842 177.305 66.7842H171.449C171.289 66.7842 171.185 66.8642 171.137 67.0242L169.865 70.5762C169.769 70.7842 169.601 70.8882 169.361 70.8882H166.601ZM176.321 63.5922C176.481 63.5922 176.561 63.5282 176.561 63.4002C176.561 63.3042 176.553 63.2322 176.537 63.1842L174.521 57.5682C174.473 57.4722 174.417 57.4242 174.353 57.4242C174.305 57.4242 174.257 57.4802 174.209 57.5922L172.169 63.1842C172.137 63.2802 172.121 63.3522 172.121 63.4002C172.121 63.5282 172.209 63.5922 172.385 63.5922H176.321ZM195.564 58.1682C195.708 58.1682 195.812 58.2242 195.876 58.3362C195.94 58.4482 195.948 58.5762 195.9 58.7202L191.148 70.3842C191.004 70.7202 190.748 70.8882 190.38 70.8882H188.676C188.308 70.8882 188.052 70.7202 187.908 70.3842L183.18 58.7442C183.148 58.6482 183.132 58.5842 183.132 58.5522C183.132 58.4402 183.172 58.3522 183.252 58.2882C183.332 58.2082 183.428 58.1682 183.54 58.1682H186.588C186.86 58.1682 187.036 58.3042 187.116 58.5762L189.876 65.6562C189.956 65.8002 190.02 65.8722 190.068 65.8722C190.132 65.8722 190.196 65.7922 190.26 65.6322L192.972 58.5522C193.084 58.2962 193.26 58.1682 193.5 58.1682H195.564ZM200.244 65.6082C200.244 66.5042 200.54 67.2322 201.132 67.7922C201.74 68.3362 202.492 68.6082 203.388 68.6082C203.964 68.6082 204.492 68.4882 204.972 68.2482C205.468 67.9922 205.964 67.5762 206.46 67.0002C206.524 66.9362 206.588 66.9042 206.652 66.9042C206.7 66.9042 206.78 66.9282 206.892 66.9762L208.62 67.6962C208.732 67.7442 208.788 67.8242 208.788 67.9362C208.788 68.0162 208.756 68.0962 208.692 68.1762C207.924 69.2642 207.1 70.0322 206.22 70.4802C205.34 70.9122 204.244 71.1282 202.932 71.1282C201.7 71.1282 200.588 70.8562 199.596 70.3122C198.604 69.7682 197.828 69.0162 197.268 68.0562C196.708 67.0802 196.428 65.9682 196.428 64.7202C196.428 63.3762 196.716 62.1922 197.292 61.1682C197.868 60.1282 198.644 59.3282 199.62 58.7682C200.612 58.2082 201.692 57.9282 202.86 57.9282C204.076 57.9282 205.156 58.2002 206.1 58.7442C207.044 59.2722 207.78 60.0402 208.308 61.0482C208.836 62.0562 209.1 63.2562 209.1 64.6482C209.1 64.8562 209.076 65.0002 209.028 65.0802C208.996 65.1602 208.884 65.2082 208.692 65.2242H200.532C200.34 65.2242 200.244 65.3522 200.244 65.6082ZM205.068 63.2082C205.244 63.2082 205.356 63.1922 205.404 63.1602C205.452 63.1122 205.476 63.0162 205.476 62.8722C205.476 62.4562 205.38 62.0402 205.188 61.6242C204.996 61.2082 204.716 60.8642 204.348 60.5922C203.98 60.3202 203.532 60.1842 203.004 60.1842C202.204 60.1842 201.548 60.4642 201.036 61.0242C200.524 61.5842 200.276 62.3042 200.292 63.1842L205.068 63.2082ZM211.57 70.8882C211.234 70.8882 211.066 70.7282 211.066 70.4082V58.6242C211.066 58.3202 211.194 58.1682 211.45 58.1682H214.258C214.514 58.1682 214.642 58.3042 214.642 58.5762V59.9922C214.642 60.0562 214.658 60.1042 214.69 60.1362C214.722 60.1682 214.754 60.1842 214.786 60.1842C214.834 60.1842 214.898 60.1442 214.978 60.0642C215.458 59.4242 216.026 58.9122 216.682 58.5282C217.338 58.1282 217.962 57.9282 218.554 57.9282C219.13 57.9282 219.418 58.0642 219.418 58.3362V61.1202C219.418 61.2322 219.386 61.3202 219.322 61.3842C219.258 61.4482 219.17 61.4642 219.058 61.4322C218.546 61.3042 217.986 61.2402 217.378 61.2402C216.978 61.2402 216.57 61.3442 216.154 61.5522C215.754 61.7442 215.418 62.0082 215.146 62.3442C214.89 62.6642 214.762 62.9922 214.762 63.3282V70.3362C214.762 70.7042 214.554 70.8882 214.138 70.8882H211.57ZM228.129 69.6642C227.073 70.6402 225.817 71.1282 224.361 71.1282C223.161 71.1282 222.209 70.8082 221.505 70.1682C220.801 69.5122 220.449 68.6642 220.449 67.6242C220.449 66.2802 221.065 65.2002 222.297 64.3842C223.529 63.5682 225.225 63.1362 227.385 63.0882L228.249 63.0162C228.345 63.0162 228.425 62.9922 228.489 62.9442C228.569 62.8802 228.609 62.7922 228.609 62.6802V62.1762C228.609 61.5522 228.433 61.0722 228.081 60.7362C227.729 60.4002 227.225 60.2322 226.569 60.2322C225.449 60.2322 224.617 60.7122 224.073 61.6722C224.009 61.8322 223.905 61.9122 223.761 61.9122C223.681 61.9122 223.609 61.9042 223.545 61.8882L221.145 61.3362C221.001 61.3042 220.929 61.2162 220.929 61.0722C220.929 60.9762 220.961 60.8562 221.025 60.7122C221.409 59.7842 222.089 59.0882 223.065 58.6242C224.057 58.1602 225.281 57.9282 226.737 57.9282C228.641 57.9282 230.017 58.2802 230.865 58.9842C231.713 59.6722 232.137 60.6562 232.137 61.9362V70.3602C232.137 70.5522 232.105 70.6882 232.041 70.7682C231.977 70.8482 231.857 70.8882 231.681 70.8882H229.209C229.049 70.8882 228.929 70.8322 228.849 70.7202C228.785 70.6082 228.737 70.4402 228.705 70.2162L228.681 69.6882C228.665 69.5442 228.601 69.4722 228.489 69.4722C228.425 69.4722 228.305 69.5362 228.129 69.6642ZM228.609 65.2242C228.609 65.0802 228.585 64.9762 228.537 64.9122C228.489 64.8482 228.393 64.8162 228.249 64.8162L227.577 64.8642C226.649 64.9122 225.825 65.1362 225.105 65.5362C224.401 65.9202 224.049 66.4562 224.049 67.1442C224.049 67.6242 224.217 68.0082 224.553 68.2962C224.889 68.5682 225.353 68.7042 225.945 68.7042C226.681 68.7042 227.305 68.4882 227.817 68.0562C228.345 67.6402 228.609 67.2162 228.609 66.7842V65.2242ZM247.508 57.6162C247.828 57.6162 247.988 57.7922 247.988 58.1442V59.7762C247.988 60.2242 247.804 60.4082 247.436 60.3282C247.196 60.2802 246.964 60.2562 246.74 60.2562C246.612 60.2562 246.468 60.2722 246.308 60.3042C245.892 60.3682 245.732 60.5522 245.828 60.8562C245.972 61.2882 246.044 61.6482 246.044 61.9362C246.044 62.6722 245.82 63.3362 245.372 63.9282C244.94 64.5202 244.284 64.9922 243.404 65.3442C242.54 65.6962 241.492 65.8722 240.26 65.8722C239.364 65.8722 238.7 65.9442 238.268 66.0882C237.852 66.2322 237.644 66.4242 237.644 66.6642C237.644 66.8722 237.756 67.0242 237.98 67.1202C238.22 67.2002 238.612 67.2562 239.156 67.2882L242.588 67.4802C244.172 67.5762 245.348 67.9282 246.116 68.5362C246.9 69.1442 247.292 69.9522 247.292 70.9602C247.292 72.2082 246.7 73.2082 245.516 73.9602C244.332 74.7122 242.652 75.0882 240.476 75.0882C235.82 75.0882 233.492 74.0562 233.492 71.9922C233.492 71.4802 233.692 71.0482 234.092 70.6962C234.492 70.3282 235.06 70.0082 235.796 69.7362C235.892 69.7042 235.94 69.6642 235.94 69.6162C235.94 69.5682 235.892 69.5202 235.796 69.4722C234.868 69.0242 234.404 68.4322 234.404 67.6962C234.404 67.2642 234.612 66.8642 235.028 66.4962C235.46 66.1122 236.028 65.7842 236.732 65.5122C236.924 65.4162 236.94 65.3202 236.78 65.2242C235.228 64.5042 234.452 63.4162 234.452 61.9602C234.452 60.7442 234.972 59.7762 236.012 59.0562C237.068 58.3362 238.572 57.9762 240.524 57.9762C242.172 57.9762 243.452 58.3362 244.364 59.0562C244.476 59.1362 244.58 59.1762 244.676 59.1762C244.804 59.1762 244.916 59.1202 245.012 59.0082C245.316 58.6402 245.716 58.3202 246.212 58.0482C246.708 57.7602 247.14 57.6162 247.508 57.6162ZM240.236 64.0482C241.052 64.0482 241.66 63.8642 242.06 63.4962C242.476 63.1122 242.684 62.6162 242.684 62.0082C242.684 61.3362 242.476 60.8082 242.06 60.4242C241.66 60.0242 241.052 59.8242 240.236 59.8242C239.468 59.8242 238.86 60.0242 238.412 60.4242C237.98 60.8242 237.764 61.3522 237.764 62.0082C237.764 62.6162 237.98 63.1122 238.412 63.4962C238.86 63.8642 239.468 64.0482 240.236 64.0482ZM238.46 70.1682C237.964 70.1362 237.516 70.2562 237.116 70.5282C236.732 70.7842 236.54 71.1122 236.54 71.5122C236.54 72.1042 236.868 72.5522 237.524 72.8562C238.18 73.1602 239.244 73.3122 240.716 73.3122C241.788 73.3122 242.612 73.1602 243.188 72.8562C243.764 72.5682 244.052 72.1522 244.052 71.6082C244.052 71.2402 243.892 70.9442 243.572 70.7202C243.252 70.4962 242.78 70.3682 242.156 70.3362L238.46 70.1682ZM252.556 65.6082C252.556 66.5042 252.852 67.2322 253.444 67.7922C254.052 68.3362 254.804 68.6082 255.7 68.6082C256.276 68.6082 256.804 68.4882 257.284 68.2482C257.78 67.9922 258.276 67.5762 258.772 67.0002C258.836 66.9362 258.9 66.9042 258.964 66.9042C259.012 66.9042 259.092 66.9282 259.204 66.9762L260.932 67.6962C261.044 67.7442 261.1 67.8242 261.1 67.9362C261.1 68.0162 261.068 68.0962 261.004 68.1762C260.236 69.2642 259.412 70.0322 258.532 70.4802C257.652 70.9122 256.556 71.1282 255.244 71.1282C254.012 71.1282 252.9 70.8562 251.908 70.3122C250.916 69.7682 250.14 69.0162 249.58 68.0562C249.02 67.0802 248.74 65.9682 248.74 64.7202C248.74 63.3762 249.028 62.1922 249.604 61.1682C250.18 60.1282 250.956 59.3282 251.932 58.7682C252.924 58.2082 254.004 57.9282 255.172 57.9282C256.388 57.9282 257.468 58.2002 258.412 58.7442C259.356 59.2722 260.092 60.0402 260.62 61.0482C261.148 62.0562 261.412 63.2562 261.412 64.6482C261.412 64.8562 261.388 65.0002 261.34 65.0802C261.308 65.1602 261.196 65.2082 261.004 65.2242H252.844C252.652 65.2242 252.556 65.3522 252.556 65.6082ZM257.38 63.2082C257.556 63.2082 257.668 63.1922 257.716 63.1602C257.764 63.1122 257.788 63.0162 257.788 62.8722C257.788 62.4562 257.692 62.0402 257.5 61.6242C257.308 61.2082 257.028 60.8642 256.66 60.5922C256.292 60.3202 255.844 60.1842 255.316 60.1842C254.516 60.1842 253.86 60.4642 253.348 61.0242C252.836 61.5842 252.588 62.3042 252.604 63.1842L257.38 63.2082ZM283.132 70.2402C283.164 70.3362 283.18 70.4082 283.18 70.4562C283.18 70.5842 283.14 70.6882 283.06 70.7682C282.98 70.8482 282.884 70.8882 282.772 70.8882H279.244C278.972 70.8882 278.796 70.7442 278.716 70.4562L276.124 63.7362C276.076 63.6082 276.004 63.5202 275.908 63.4722C275.812 63.4242 275.66 63.4002 275.452 63.4002H273.172C273.076 63.4002 273.004 63.4322 272.956 63.4962C272.908 63.5442 272.884 63.6002 272.884 63.6642V70.3122C272.884 70.5202 272.828 70.6722 272.716 70.7682C272.62 70.8482 272.46 70.8882 272.236 70.8882H269.188C268.996 70.8882 268.86 70.8482 268.78 70.7682C268.716 70.6882 268.684 70.5682 268.684 70.4082V53.5362C268.684 53.2322 268.812 53.0802 269.068 53.0802H276.556C278.716 53.0802 280.388 53.5042 281.572 54.3522C282.756 55.2002 283.348 56.4082 283.348 57.9762C283.348 59.1442 283.036 60.1442 282.412 60.9762C281.788 61.7922 281.004 62.3682 280.06 62.7042C279.932 62.7522 279.9 62.8722 279.964 63.0642L283.132 70.2402ZM276.172 60.5682C277.1 60.5682 277.804 60.3762 278.284 59.9922C278.764 59.5922 279.004 59.0162 279.004 58.2642C279.004 57.4962 278.756 56.9122 278.26 56.5122C277.78 56.0962 277.124 55.8882 276.292 55.8882H273.34C273.164 55.8882 273.044 55.9202 272.98 55.9842C272.916 56.0322 272.884 56.1282 272.884 56.2722V60.1602C272.884 60.3042 272.908 60.4082 272.956 60.4722C273.004 60.5362 273.092 60.5682 273.22 60.5682H276.172ZM292.652 69.6642C291.596 70.6402 290.34 71.1282 288.884 71.1282C287.684 71.1282 286.732 70.8082 286.028 70.1682C285.324 69.5122 284.972 68.6642 284.972 67.6242C284.972 66.2802 285.588 65.2002 286.82 64.3842C288.052 63.5682 289.748 63.1362 291.908 63.0882L292.772 63.0162C292.868 63.0162 292.948 62.9922 293.012 62.9442C293.092 62.8802 293.132 62.7922 293.132 62.6802V62.1762C293.132 61.5522 292.956 61.0722 292.604 60.7362C292.252 60.4002 291.748 60.2322 291.092 60.2322C289.972 60.2322 289.14 60.7122 288.596 61.6722C288.532 61.8322 288.428 61.9122 288.284 61.9122C288.204 61.9122 288.132 61.9042 288.068 61.8882L285.668 61.3362C285.524 61.3042 285.452 61.2162 285.452 61.0722C285.452 60.9762 285.484 60.8562 285.548 60.7122C285.932 59.7842 286.612 59.0882 287.588 58.6242C288.58 58.1602 289.804 57.9282 291.26 57.9282C293.164 57.9282 294.54 58.2802 295.388 58.9842C296.236 59.6722 296.66 60.6562 296.66 61.9362V70.3602C296.66 70.5522 296.628 70.6882 296.564 70.7682C296.5 70.8482 296.38 70.8882 296.204 70.8882H293.732C293.572 70.8882 293.452 70.8322 293.372 70.7202C293.308 70.6082 293.26 70.4402 293.228 70.2162L293.204 69.6882C293.188 69.5442 293.124 69.4722 293.012 69.4722C292.948 69.4722 292.828 69.5362 292.652 69.6642ZM293.132 65.2242C293.132 65.0802 293.108 64.9762 293.06 64.9122C293.012 64.8482 292.916 64.8162 292.772 64.8162L292.1 64.8642C291.172 64.9122 290.348 65.1362 289.628 65.5362C288.924 65.9202 288.572 66.4562 288.572 67.1442C288.572 67.6242 288.74 68.0082 289.076 68.2962C289.412 68.5682 289.876 68.7042 290.468 68.7042C291.204 68.7042 291.828 68.4882 292.34 68.0562C292.868 67.6402 293.132 67.2162 293.132 66.7842V65.2242ZM299.672 70.8882C299.496 70.8882 299.368 70.8562 299.288 70.7922C299.208 70.7122 299.168 70.5842 299.168 70.4082V58.6242C299.168 58.3202 299.296 58.1682 299.552 58.1682H302.456C302.696 58.1682 302.816 58.3042 302.816 58.5762V59.7522C302.816 59.8802 302.856 59.9442 302.936 59.9442C302.984 59.9442 303.04 59.9122 303.104 59.8482C303.76 59.2242 304.416 58.7522 305.072 58.4322C305.728 58.0962 306.424 57.9282 307.16 57.9282C308.328 57.9282 309.248 58.2722 309.92 58.9602C310.608 59.6482 310.952 60.5682 310.952 61.7202V70.3122C310.952 70.6962 310.76 70.8882 310.376 70.8882H307.712C307.536 70.8882 307.416 70.8562 307.352 70.7922C307.288 70.7122 307.256 70.5842 307.256 70.4082V62.2962C307.256 61.7522 307.104 61.3362 306.8 61.0482C306.512 60.7442 306.08 60.5922 305.504 60.5922C305.024 60.5922 304.576 60.7122 304.16 60.9522C303.76 61.1922 303.328 61.5682 302.864 62.0802V70.3362C302.864 70.5282 302.816 70.6722 302.72 70.7682C302.624 70.8482 302.464 70.8882 302.24 70.8882H299.672ZM326.329 57.6162C326.649 57.6162 326.809 57.7922 326.809 58.1442V59.7762C326.809 60.2242 326.625 60.4082 326.257 60.3282C326.017 60.2802 325.785 60.2562 325.561 60.2562C325.433 60.2562 325.289 60.2722 325.129 60.3042C324.713 60.3682 324.553 60.5522 324.649 60.8562C324.793 61.2882 324.865 61.6482 324.865 61.9362C324.865 62.6722 324.641 63.3362 324.193 63.9282C323.761 64.5202 323.105 64.9922 322.225 65.3442C321.361 65.6962 320.313 65.8722 319.081 65.8722C318.185 65.8722 317.521 65.9442 317.089 66.0882C316.673 66.2322 316.465 66.4242 316.465 66.6642C316.465 66.8722 316.577 67.0242 316.801 67.1202C317.041 67.2002 317.433 67.2562 317.977 67.2882L321.409 67.4802C322.993 67.5762 324.169 67.9282 324.937 68.5362C325.721 69.1442 326.113 69.9522 326.113 70.9602C326.113 72.2082 325.521 73.2082 324.337 73.9602C323.153 74.7122 321.473 75.0882 319.297 75.0882C314.641 75.0882 312.313 74.0562 312.313 71.9922C312.313 71.4802 312.513 71.0482 312.913 70.6962C313.313 70.3282 313.881 70.0082 314.617 69.7362C314.713 69.7042 314.761 69.6642 314.761 69.6162C314.761 69.5682 314.713 69.5202 314.617 69.4722C313.689 69.0242 313.225 68.4322 313.225 67.6962C313.225 67.2642 313.433 66.8642 313.849 66.4962C314.281 66.1122 314.849 65.7842 315.553 65.5122C315.745 65.4162 315.761 65.3202 315.601 65.2242C314.049 64.5042 313.273 63.4162 313.273 61.9602C313.273 60.7442 313.793 59.7762 314.833 59.0562C315.889 58.3362 317.393 57.9762 319.345 57.9762C320.993 57.9762 322.273 58.3362 323.185 59.0562C323.297 59.1362 323.401 59.1762 323.497 59.1762C323.625 59.1762 323.737 59.1202 323.833 59.0082C324.137 58.6402 324.537 58.3202 325.033 58.0482C325.529 57.7602 325.961 57.6162 326.329 57.6162ZM319.057 64.0482C319.873 64.0482 320.481 63.8642 320.881 63.4962C321.297 63.1122 321.505 62.6162 321.505 62.0082C321.505 61.3362 321.297 60.8082 320.881 60.4242C320.481 60.0242 319.873 59.8242 319.057 59.8242C318.289 59.8242 317.681 60.0242 317.233 60.4242C316.801 60.8242 316.585 61.3522 316.585 62.0082C316.585 62.6162 316.801 63.1122 317.233 63.4962C317.681 63.8642 318.289 64.0482 319.057 64.0482ZM317.281 70.1682C316.785 70.1362 316.337 70.2562 315.937 70.5282C315.553 70.7842 315.361 71.1122 315.361 71.5122C315.361 72.1042 315.689 72.5522 316.345 72.8562C317.001 73.1602 318.065 73.3122 319.537 73.3122C320.609 73.3122 321.433 73.1602 322.009 72.8562C322.585 72.5682 322.873 72.1522 322.873 71.6082C322.873 71.2402 322.713 70.9442 322.393 70.7202C322.073 70.4962 321.601 70.3682 320.977 70.3362L317.281 70.1682ZM331.377 65.6082C331.377 66.5042 331.673 67.2322 332.265 67.7922C332.873 68.3362 333.625 68.6082 334.521 68.6082C335.097 68.6082 335.625 68.4882 336.105 68.2482C336.601 67.9922 337.097 67.5762 337.593 67.0002C337.657 66.9362 337.721 66.9042 337.785 66.9042C337.833 66.9042 337.913 66.9282 338.025 66.9762L339.753 67.6962C339.865 67.7442 339.921 67.8242 339.921 67.9362C339.921 68.0162 339.889 68.0962 339.825 68.1762C339.057 69.2642 338.233 70.0322 337.353 70.4802C336.473 70.9122 335.377 71.1282 334.065 71.1282C332.833 71.1282 331.721 70.8562 330.729 70.3122C329.737 69.7682 328.961 69.0162 328.401 68.0562C327.841 67.0802 327.561 65.9682 327.561 64.7202C327.561 63.3762 327.849 62.1922 328.425 61.1682C329.001 60.1282 329.777 59.3282 330.753 58.7682C331.745 58.2082 332.825 57.9282 333.993 57.9282C335.209 57.9282 336.289 58.2002 337.233 58.7442C338.177 59.2722 338.913 60.0402 339.441 61.0482C339.969 62.0562 340.233 63.2562 340.233 64.6482C340.233 64.8562 340.209 65.0002 340.161 65.0802C340.129 65.1602 340.017 65.2082 339.825 65.2242H331.665C331.473 65.2242 331.377 65.3522 331.377 65.6082ZM336.201 63.2082C336.377 63.2082 336.489 63.1922 336.537 63.1602C336.585 63.1122 336.609 63.0162 336.609 62.8722C336.609 62.4562 336.513 62.0402 336.321 61.6242C336.129 61.2082 335.849 60.8642 335.481 60.5922C335.113 60.3202 334.665 60.1842 334.137 60.1842C333.337 60.1842 332.681 60.4642 332.169 61.0242C331.657 61.5842 331.409 62.3042 331.425 63.1842L336.201 63.2082ZM353 71.1282C351.736 71.1282 350.616 70.8562 349.64 70.3122C348.68 69.7522 347.928 68.9762 347.384 67.9842C346.84 66.9922 346.568 65.8642 346.568 64.6002C346.568 63.2882 346.84 62.1282 347.384 61.1202C347.944 60.1122 348.712 59.3282 349.688 58.7682C350.68 58.2082 351.792 57.9282 353.024 57.9282C354.288 57.9282 355.408 58.2162 356.384 58.7922C357.36 59.3522 358.112 60.1362 358.64 61.1442C359.184 62.1522 359.456 63.2962 359.456 64.5762C359.456 65.8402 359.184 66.9682 358.64 67.9602C358.096 68.9522 357.336 69.7282 356.36 70.2882C355.384 70.8482 354.264 71.1282 353 71.1282ZM353.024 68.6802C353.904 68.6802 354.568 68.3362 355.016 67.6482C355.48 66.9442 355.712 65.9042 355.712 64.5282C355.712 63.1362 355.48 62.0882 355.016 61.3842C354.568 60.6642 353.904 60.3042 353.024 60.3042C352.144 60.3042 351.472 60.6642 351.008 61.3842C350.544 62.0882 350.312 63.1362 350.312 64.5282C350.312 65.8882 350.544 66.9202 351.008 67.6242C351.472 68.3282 352.144 68.6802 353.024 68.6802ZM368.505 58.1682C368.649 58.1682 368.761 58.2082 368.841 58.2882C368.921 58.3682 368.961 58.4642 368.961 58.5762V60.3522C368.961 60.5922 368.825 60.7122 368.553 60.7122H366.561C366.401 60.7122 366.321 60.8002 366.321 60.9762V70.4322C366.321 70.7362 366.193 70.8882 365.937 70.8882H362.985C362.745 70.8882 362.625 70.7522 362.625 70.4802V60.9282C362.625 60.7842 362.561 60.7122 362.433 60.7122H360.705C360.417 60.7122 360.273 60.5922 360.273 60.3522V58.5762C360.273 58.4642 360.313 58.3682 360.393 58.2882C360.473 58.2082 360.585 58.1682 360.729 58.1682H362.337C362.449 58.1682 362.521 58.1442 362.553 58.0962C362.601 58.0322 362.625 57.9362 362.625 57.8082V56.3442C362.625 55.3202 362.929 54.5202 363.537 53.9442C364.145 53.3682 365.001 53.0802 366.105 53.0802H368.529C368.881 53.0802 369.057 53.2482 369.057 53.5842L369.081 55.1442C369.081 55.4162 368.961 55.5522 368.721 55.5522H367.425C367.073 55.5522 366.785 55.6882 366.561 55.9602C366.337 56.2162 366.225 56.5522 366.225 56.9682V57.9042C366.225 58.0802 366.321 58.1682 366.513 58.1682H368.505ZM376.075 53.5362C376.075 53.2322 376.203 53.0802 376.459 53.0802H388.555C388.795 53.0802 388.915 53.2162 388.915 53.4882L388.891 55.6482C388.891 55.9842 388.723 56.1522 388.387 56.1522H380.731C380.427 56.1522 380.275 56.2802 380.275 56.5362V60.0162C380.275 60.2882 380.395 60.4242 380.635 60.4242H385.723C385.995 60.4242 386.131 60.5522 386.131 60.8082V63.1122C386.131 63.3362 386.003 63.4482 385.747 63.4482H380.611C380.387 63.4482 380.275 63.5442 380.275 63.7362V67.5042C380.275 67.6162 380.291 67.6962 380.323 67.7442C380.371 67.7922 380.443 67.8162 380.539 67.8162H388.747C389.035 67.8162 389.179 67.9362 389.179 68.1762V70.4562C389.179 70.7442 389.019 70.8882 388.699 70.8882H376.603C376.411 70.8882 376.275 70.8482 376.195 70.7682C376.115 70.6882 376.075 70.5602 376.075 70.3842V53.5362ZM403.351 70.0722C403.543 70.3282 403.639 70.5202 403.639 70.6482C403.639 70.8082 403.487 70.8882 403.183 70.8882H400.111C399.727 70.8882 399.455 70.7602 399.295 70.5042L396.823 67.0242C396.695 66.8162 396.599 66.7122 396.535 66.7122C396.471 66.7122 396.375 66.8082 396.247 67.0002L393.727 70.5042C393.567 70.7602 393.303 70.8882 392.935 70.8882H390.967C390.583 70.8882 390.391 70.7762 390.391 70.5522C390.391 70.3762 390.487 70.1682 390.679 69.9282L394.615 64.8642C394.711 64.7202 394.759 64.6082 394.759 64.5282C394.759 64.4162 394.703 64.2802 394.591 64.1202L390.703 58.8402C390.639 58.7602 390.607 58.6642 390.607 58.5522C390.607 58.4562 390.647 58.3682 390.727 58.2882C390.807 58.2082 390.919 58.1682 391.063 58.1682H393.991C394.199 58.1682 394.351 58.2002 394.447 58.2642C394.559 58.3122 394.663 58.4082 394.759 58.5522L396.991 61.6962C397.071 61.8242 397.143 61.8882 397.207 61.8882C397.255 61.8882 397.319 61.8242 397.399 61.6962L399.511 58.5522C399.607 58.4082 399.703 58.3122 399.799 58.2642C399.911 58.2002 400.079 58.1682 400.303 58.1682H402.463C402.735 58.1682 402.871 58.2482 402.871 58.4082C402.871 58.4882 402.823 58.5922 402.727 58.7202L399.151 63.5682C399.055 63.6802 399.007 63.7922 399.007 63.9042C399.007 63.9842 399.063 64.1122 399.175 64.2882L403.351 70.0722ZM408.579 58.1682C408.771 58.1682 408.907 58.2082 408.987 58.2882C409.067 58.3522 409.107 58.4722 409.107 58.6482V59.3682C409.107 59.4802 409.139 59.5362 409.203 59.5362C409.251 59.5362 409.331 59.4962 409.443 59.4162C409.939 58.9522 410.443 58.5922 410.955 58.3362C411.483 58.0642 412.147 57.9282 412.947 57.9282C414.403 57.9282 415.587 58.4802 416.499 59.5842C417.411 60.6882 417.867 62.3042 417.867 64.4322C417.867 66.6402 417.395 68.3122 416.451 69.4482C415.523 70.5682 414.291 71.1282 412.755 71.1282C411.491 71.1282 410.419 70.7202 409.539 69.9042C409.379 69.7762 409.267 69.7122 409.203 69.7122C409.123 69.7122 409.083 69.8242 409.083 70.0482V74.4402C409.083 74.7122 408.963 74.8482 408.723 74.8482H405.771C405.659 74.8482 405.563 74.8082 405.483 74.7282C405.419 74.6642 405.387 74.5602 405.387 74.4162V58.6962C405.387 58.5042 405.427 58.3682 405.507 58.2882C405.603 58.2082 405.747 58.1682 405.939 58.1682H408.579ZM409.083 67.6002C409.435 67.9842 409.795 68.2802 410.163 68.4882C410.531 68.6962 410.939 68.8002 411.387 68.8002C413.211 68.8002 414.123 67.3202 414.123 64.3602C414.123 62.8882 413.891 61.8402 413.427 61.2162C412.963 60.5762 412.307 60.2562 411.459 60.2562C410.803 60.2562 410.243 60.4562 409.779 60.8562C409.315 61.2402 409.083 61.6802 409.083 62.1762V67.6002ZM423.252 65.6082C423.252 66.5042 423.548 67.2322 424.14 67.7922C424.748 68.3362 425.5 68.6082 426.396 68.6082C426.972 68.6082 427.5 68.4882 427.98 68.2482C428.476 67.9922 428.972 67.5762 429.468 67.0002C429.532 66.9362 429.596 66.9042 429.66 66.9042C429.708 66.9042 429.788 66.9282 429.9 66.9762L431.628 67.6962C431.74 67.7442 431.796 67.8242 431.796 67.9362C431.796 68.0162 431.764 68.0962 431.7 68.1762C430.932 69.2642 430.108 70.0322 429.228 70.4802C428.348 70.9122 427.252 71.1282 425.94 71.1282C424.708 71.1282 423.596 70.8562 422.604 70.3122C421.612 69.7682 420.836 69.0162 420.276 68.0562C419.716 67.0802 419.436 65.9682 419.436 64.7202C419.436 63.3762 419.724 62.1922 420.3 61.1682C420.876 60.1282 421.652 59.3282 422.628 58.7682C423.62 58.2082 424.7 57.9282 425.868 57.9282C427.084 57.9282 428.164 58.2002 429.108 58.7442C430.052 59.2722 430.788 60.0402 431.316 61.0482C431.844 62.0562 432.108 63.2562 432.108 64.6482C432.108 64.8562 432.084 65.0002 432.036 65.0802C432.004 65.1602 431.892 65.2082 431.7 65.2242H423.54C423.348 65.2242 423.252 65.3522 423.252 65.6082ZM428.076 63.2082C428.252 63.2082 428.364 63.1922 428.412 63.1602C428.46 63.1122 428.484 63.0162 428.484 62.8722C428.484 62.4562 428.388 62.0402 428.196 61.6242C428.004 61.2082 427.724 60.8642 427.356 60.5922C426.988 60.3202 426.54 60.1842 426.012 60.1842C425.212 60.1842 424.556 60.4642 424.044 61.0242C423.532 61.5842 423.284 62.3042 423.3 63.1842L428.076 63.2082ZM434.578 70.8882C434.402 70.8882 434.274 70.8562 434.194 70.7922C434.114 70.7122 434.074 70.5842 434.074 70.4082V58.6242C434.074 58.3202 434.202 58.1682 434.458 58.1682H437.362C437.602 58.1682 437.722 58.3042 437.722 58.5762V59.7522C437.722 59.8802 437.762 59.9442 437.842 59.9442C437.89 59.9442 437.946 59.9122 438.01 59.8482C438.666 59.2242 439.322 58.7522 439.978 58.4322C440.634 58.0962 441.33 57.9282 442.066 57.9282C443.234 57.9282 444.154 58.2722 444.826 58.9602C445.514 59.6482 445.858 60.5682 445.858 61.7202V70.3122C445.858 70.6962 445.666 70.8882 445.282 70.8882H442.618C442.442 70.8882 442.322 70.8562 442.258 70.7922C442.194 70.7122 442.162 70.5842 442.162 70.4082V62.2962C442.162 61.7522 442.01 61.3362 441.706 61.0482C441.418 60.7442 440.986 60.5922 440.41 60.5922C439.93 60.5922 439.482 60.7122 439.066 60.9522C438.666 61.1922 438.234 61.5682 437.77 62.0802V70.3362C437.77 70.5282 437.722 70.6722 437.626 70.7682C437.53 70.8482 437.37 70.8882 437.146 70.8882H434.578ZM456.219 61.4802C455.563 60.6162 454.627 60.1842 453.411 60.1842C452.803 60.1842 452.299 60.3042 451.899 60.5442C451.499 60.7682 451.299 61.0802 451.299 61.4802C451.299 61.7042 451.387 61.9122 451.563 62.1042C451.755 62.2802 452.115 62.4322 452.643 62.5602L455.403 63.2322C456.667 63.5362 457.595 64.0242 458.187 64.6962C458.779 65.3522 459.075 66.1282 459.075 67.0242C459.075 68.2882 458.547 69.2882 457.491 70.0242C456.435 70.7602 455.051 71.1282 453.339 71.1282C451.963 71.1282 450.771 70.8882 449.763 70.4082C448.755 69.9122 448.043 69.2722 447.627 68.4882C447.547 68.3762 447.507 68.2722 447.507 68.1762C447.507 68.0642 447.563 67.9842 447.675 67.9362L449.307 67.0962C449.435 67.0322 449.547 67.0002 449.643 67.0002C449.739 67.0002 449.827 67.0402 449.907 67.1202C450.259 67.6162 450.683 68.0162 451.179 68.3202C451.691 68.6082 452.363 68.7522 453.195 68.7522C453.947 68.7522 454.555 68.6402 455.019 68.4162C455.499 68.1922 455.739 67.8642 455.739 67.4322C455.739 67.1442 455.619 66.9042 455.379 66.7122C455.139 66.5202 454.731 66.3522 454.155 66.2082L451.683 65.6802C449.251 65.1522 448.035 63.9442 448.035 62.0562C448.035 61.2562 448.251 60.5442 448.683 59.9202C449.131 59.2962 449.763 58.8082 450.579 58.4562C451.395 58.1042 452.355 57.9282 453.459 57.9282C454.627 57.9282 455.659 58.1442 456.555 58.5762C457.467 59.0082 458.123 59.5522 458.523 60.2082C458.619 60.3362 458.667 60.4482 458.667 60.5442C458.667 60.6402 458.611 60.7202 458.499 60.7842L456.771 61.6242C456.723 61.6562 456.659 61.6722 456.579 61.6722C456.435 61.6722 456.315 61.6082 456.219 61.4802ZM464.337 65.6082C464.337 66.5042 464.633 67.2322 465.225 67.7922C465.833 68.3362 466.585 68.6082 467.481 68.6082C468.057 68.6082 468.585 68.4882 469.065 68.2482C469.561 67.9922 470.057 67.5762 470.553 67.0002C470.617 66.9362 470.681 66.9042 470.745 66.9042C470.793 66.9042 470.873 66.9282 470.985 66.9762L472.713 67.6962C472.825 67.7442 472.881 67.8242 472.881 67.9362C472.881 68.0162 472.849 68.0962 472.785 68.1762C472.017 69.2642 471.193 70.0322 470.313 70.4802C469.433 70.9122 468.337 71.1282 467.025 71.1282C465.793 71.1282 464.681 70.8562 463.689 70.3122C462.697 69.7682 461.921 69.0162 461.361 68.0562C460.801 67.0802 460.521 65.9682 460.521 64.7202C460.521 63.3762 460.809 62.1922 461.385 61.1682C461.961 60.1282 462.737 59.3282 463.713 58.7682C464.705 58.2082 465.785 57.9282 466.953 57.9282C468.169 57.9282 469.249 58.2002 470.193 58.7442C471.137 59.2722 471.873 60.0402 472.401 61.0482C472.929 62.0562 473.193 63.2562 473.193 64.6482C473.193 64.8562 473.169 65.0002 473.121 65.0802C473.089 65.1602 472.977 65.2082 472.785 65.2242H464.625C464.433 65.2242 464.337 65.3522 464.337 65.6082ZM469.161 63.2082C469.337 63.2082 469.449 63.1922 469.497 63.1602C469.545 63.1122 469.569 63.0162 469.569 62.8722C469.569 62.4562 469.473 62.0402 469.281 61.6242C469.089 61.2082 468.809 60.8642 468.441 60.5922C468.073 60.3202 467.625 60.1842 467.097 60.1842C466.297 60.1842 465.641 60.4642 465.129 61.0242C464.617 61.5842 464.369 62.3042 464.385 63.1842L469.161 63.2082ZM483.008 61.4802C482.352 60.6162 481.416 60.1842 480.2 60.1842C479.592 60.1842 479.088 60.3042 478.688 60.5442C478.288 60.7682 478.088 61.0802 478.088 61.4802C478.088 61.7042 478.176 61.9122 478.352 62.1042C478.544 62.2802 478.904 62.4322 479.432 62.5602L482.192 63.2322C483.456 63.5362 484.384 64.0242 484.976 64.6962C485.568 65.3522 485.864 66.1282 485.864 67.0242C485.864 68.2882 485.336 69.2882 484.28 70.0242C483.224 70.7602 481.84 71.1282 480.128 71.1282C478.752 71.1282 477.56 70.8882 476.552 70.4082C475.544 69.9122 474.832 69.2722 474.416 68.4882C474.336 68.3762 474.296 68.2722 474.296 68.1762C474.296 68.0642 474.352 67.9842 474.464 67.9362L476.096 67.0962C476.224 67.0322 476.336 67.0002 476.432 67.0002C476.528 67.0002 476.616 67.0402 476.696 67.1202C477.048 67.6162 477.472 68.0162 477.968 68.3202C478.48 68.6082 479.152 68.7522 479.984 68.7522C480.736 68.7522 481.344 68.6402 481.808 68.4162C482.288 68.1922 482.528 67.8642 482.528 67.4322C482.528 67.1442 482.408 66.9042 482.168 66.7122C481.928 66.5202 481.52 66.3522 480.944 66.2082L478.472 65.6802C476.04 65.1522 474.824 63.9442 474.824 62.0562C474.824 61.2562 475.04 60.5442 475.472 59.9202C475.92 59.2962 476.552 58.8082 477.368 58.4562C478.184 58.1042 479.144 57.9282 480.248 57.9282C481.416 57.9282 482.448 58.1442 483.344 58.5762C484.256 59.0082 484.912 59.5522 485.312 60.2082C485.408 60.3362 485.456 60.4482 485.456 60.5442C485.456 60.6402 485.4 60.7202 485.288 60.7842L483.56 61.6242C483.512 61.6562 483.448 61.6722 483.368 61.6722C483.224 61.6722 483.104 61.6082 483.008 61.4802ZM491.559 61.7922C491.559 62.0002 491.503 62.1522 491.391 62.2482C491.295 62.3282 491.127 62.3682 490.887 62.3682H488.055C487.703 62.3682 487.527 62.2002 487.527 61.8642V58.8882C487.527 58.7442 487.559 58.6402 487.623 58.5762C487.703 58.4962 487.799 58.4562 487.911 58.4562H491.199C491.439 58.4562 491.559 58.5922 491.559 58.8642V61.7922ZM491.559 70.2402C491.559 70.4482 491.503 70.6002 491.391 70.6962C491.295 70.7762 491.127 70.8162 490.887 70.8162H488.055C487.703 70.8162 487.527 70.6482 487.527 70.3122V67.3362C487.527 67.0482 487.655 66.9042 487.911 66.9042H491.199C491.439 66.9042 491.559 67.0322 491.559 67.2882V70.2402Z" fill="#3A082C"/>
</svg>
