<svg width="983" height="123" viewBox="0 0 983 123" fill="none" xmlns="http://www.w3.org/2000/svg">
<path d="M979 61.7797C979 44.0874 964.657 29.7449 946.965 29.7449H539.76V93.8146H946.965C964.657 93.8146 979 79.4721 979 61.7797Z" fill="#7B73B1"/>
<path d="M947 29.7798C964.673 29.7798 979 44.1067 979 61.7798C979 79.4529 964.673 93.7798 947 93.7798L108.531 93.7798V29.7798H947Z" stroke="#3A082C" stroke-width="8"/>
<circle cx="65.7536" cy="64.6308" r="52.5261" fill="#EE8363"/>
<circle cx="61.1981" cy="61.6166" r="57.1981" stroke="#3A082C" stroke-width="8"/>
<path d="M78.7399 71.7738C78.7399 75.3338 77.5199 78.3138 75.0799 80.7138C72.6799 83.0738 69.4399 84.4538 65.3599 84.8538C64.9199 84.8938 64.6399 84.9738 64.5199 85.0938C64.3999 85.2138 64.3399 85.4538 64.3399 85.8138V87.9738C64.3399 88.4538 64.2199 88.7938 63.9799 88.9938C63.7799 89.2338 63.4199 89.3538 62.8999 89.3538H59.5999C58.7599 89.3538 58.3399 88.9538 58.3399 88.1538V85.7538C58.3399 85.3938 58.2799 85.1538 58.1599 85.0338C58.0399 84.9138 57.8199 84.8538 57.4999 84.8538C54.6199 84.6938 52.0999 84.1738 49.9399 83.2938C47.8199 82.3738 45.8199 81.0538 43.9399 79.3338C43.3399 78.8538 43.0399 78.4338 43.0399 78.0738C43.0399 77.8338 43.1399 77.6138 43.3399 77.4138L46.9399 73.5138C47.2999 73.1538 47.6199 72.9738 47.8999 72.9738C48.1399 72.9738 48.3999 73.1138 48.6799 73.3938C51.1999 76.1138 54.1599 77.6938 57.5599 78.1338L57.9199 78.1938C58.2399 78.1938 58.3999 77.9738 58.3999 77.5338L58.4599 67.2738C58.4599 66.9538 58.3999 66.7138 58.2799 66.5538C58.1599 66.3538 57.9199 66.1938 57.5599 66.0738C52.8399 65.0338 49.4399 63.3938 47.3599 61.1538C45.3199 58.9138 44.2999 56.1738 44.2999 52.9338C44.2999 49.7338 45.4399 47.0138 47.7199 44.7738C49.9999 42.4938 53.1999 40.9938 57.3199 40.2738C58.0799 40.0738 58.4599 39.7338 58.4599 39.2538V36.9738C58.4599 36.7338 58.5199 36.5338 58.6399 36.3738C58.7999 36.2138 58.9799 36.1338 59.1799 36.1338H63.2599C63.9799 36.1338 64.3399 36.5138 64.3399 37.2738V39.6738C64.3399 39.9138 64.5999 40.0938 65.1199 40.2138C69.1599 41.0538 72.6199 42.5538 75.4999 44.7138C75.8199 44.9138 75.9799 45.1738 75.9799 45.4938C75.9799 45.6938 75.8799 45.9338 75.6799 46.2138L72.4999 50.2938C72.2599 50.5738 72.0199 50.7138 71.7799 50.7138C71.4599 50.7138 71.1399 50.5538 70.8199 50.2338C70.1399 49.5538 69.2799 48.9338 68.2399 48.3738C67.2399 47.7738 66.1799 47.3338 65.0599 47.0538L64.8199 46.9938C64.4599 46.9938 64.2799 47.1738 64.2799 47.5338V57.6738C64.2799 57.9138 64.3199 58.0938 64.3999 58.2138C64.5199 58.2938 64.7199 58.3738 64.9999 58.4538L68.3599 59.3538C71.5199 60.3138 74.0399 61.8938 75.9199 64.0938C77.7999 66.2538 78.7399 68.8138 78.7399 71.7738ZM58.4599 47.4738C58.4599 46.8738 58.1999 46.6338 57.6799 46.7538C55.8799 47.0738 54.4999 47.7138 53.5399 48.6738C52.5799 49.5938 52.0999 50.6938 52.0999 51.9738C52.0999 53.2138 52.4999 54.2538 53.2999 55.0938C54.0999 55.8938 55.4199 56.5738 57.2599 57.1338C57.3399 57.1738 57.4599 57.1938 57.6199 57.1938C58.1799 57.1938 58.4599 56.8138 58.4599 56.0538V47.4738ZM64.2799 77.7738C64.2799 78.1338 64.5399 78.2738 65.0599 78.1938C66.8599 77.9938 68.2799 77.4338 69.3199 76.5138C70.3599 75.5938 70.8799 74.4738 70.8799 73.1538C70.8799 71.7538 70.4199 70.5938 69.4999 69.6738C68.5799 68.7538 67.0999 68.0138 65.0599 67.4538C64.9799 67.4138 64.8599 67.3938 64.6999 67.3938C64.4199 67.3938 64.2799 67.6138 64.2799 68.0538V77.7738Z" fill="white"/>
<path d="M671.713 67.0758C671.713 69.2118 670.981 70.9998 669.517 72.4398C668.077 73.8558 666.133 74.6838 663.685 74.9238C663.421 74.9478 663.253 74.9958 663.181 75.0678C663.109 75.1398 663.073 75.2838 663.073 75.4998V76.7958C663.073 77.0838 663.001 77.2878 662.857 77.4078C662.737 77.5518 662.521 77.6238 662.209 77.6238H660.229C659.725 77.6238 659.473 77.3838 659.473 76.9038V75.4638C659.473 75.2478 659.437 75.1038 659.365 75.0318C659.293 74.9598 659.161 74.9238 658.969 74.9238C657.241 74.8278 655.729 74.5158 654.433 73.9878C653.161 73.4358 651.961 72.6438 650.833 71.6118C650.473 71.3238 650.293 71.0718 650.293 70.8558C650.293 70.7118 650.353 70.5798 650.473 70.4598L652.633 68.1198C652.849 67.9038 653.041 67.7958 653.209 67.7958C653.353 67.7958 653.509 67.8798 653.677 68.0478C655.189 69.6798 656.965 70.6278 659.005 70.8918L659.221 70.9278C659.413 70.9278 659.509 70.7958 659.509 70.5318L659.545 64.3758C659.545 64.1838 659.509 64.0398 659.437 63.9438C659.365 63.8238 659.221 63.7278 659.005 63.6558C656.173 63.0318 654.133 62.0478 652.885 60.7038C651.661 59.3598 651.049 57.7158 651.049 55.7718C651.049 53.8518 651.733 52.2198 653.101 50.8758C654.469 49.5078 656.389 48.6078 658.861 48.1758C659.317 48.0558 659.545 47.8518 659.545 47.5638V46.1958C659.545 46.0518 659.581 45.9318 659.653 45.8358C659.749 45.7398 659.857 45.6918 659.977 45.6918H662.425C662.857 45.6918 663.073 45.9198 663.073 46.3758V47.8158C663.073 47.9598 663.229 48.0678 663.541 48.1398C665.965 48.6438 668.041 49.5438 669.769 50.8398C669.961 50.9598 670.057 51.1158 670.057 51.3078C670.057 51.4278 669.997 51.5718 669.877 51.7398L667.969 54.1878C667.825 54.3558 667.681 54.4398 667.537 54.4398C667.345 54.4398 667.153 54.3438 666.961 54.1518C666.553 53.7438 666.037 53.3718 665.413 53.0358C664.813 52.6758 664.177 52.4118 663.505 52.2438L663.361 52.2078C663.145 52.2078 663.037 52.3158 663.037 52.5318V58.6158C663.037 58.7598 663.061 58.8678 663.109 58.9398C663.181 58.9878 663.301 59.0358 663.469 59.0838L665.485 59.6238C667.381 60.1998 668.893 61.1478 670.021 62.4678C671.149 63.7638 671.713 65.2998 671.713 67.0758ZM659.545 52.4958C659.545 52.1358 659.389 51.9918 659.077 52.0638C657.997 52.2558 657.169 52.6398 656.593 53.2158C656.017 53.7678 655.729 54.4278 655.729 55.1958C655.729 55.9398 655.969 56.5638 656.449 57.0678C656.929 57.5478 657.721 57.9558 658.825 58.2918C658.873 58.3158 658.945 58.3278 659.041 58.3278C659.377 58.3278 659.545 58.0998 659.545 57.6438V52.4958ZM663.037 70.6758C663.037 70.8918 663.193 70.9758 663.505 70.9278C664.585 70.8078 665.437 70.4718 666.061 69.9198C666.685 69.3678 666.997 68.6958 666.997 67.9038C666.997 67.0638 666.721 66.3678 666.169 65.8158C665.617 65.2638 664.729 64.8198 663.505 64.4838C663.457 64.4598 663.385 64.4478 663.289 64.4478C663.121 64.4478 663.037 64.5798 663.037 64.8438V70.6758ZM689.435 70.1358C689.867 70.1358 690.083 70.3158 690.083 70.6758V74.1678C690.083 74.3358 690.023 74.4798 689.903 74.5998C689.783 74.7198 689.603 74.7798 689.363 74.7798H675.143C674.687 74.7798 674.459 74.5758 674.459 74.1678V70.6758C674.459 70.3158 674.663 70.1358 675.071 70.1358H678.815C679.079 70.1358 679.211 70.0518 679.211 69.8838V54.7638C679.211 54.5718 679.175 54.4518 679.103 54.4038C679.031 54.3318 678.899 54.3198 678.707 54.3678L675.215 55.4118L674.963 55.4478C674.603 55.4478 674.423 55.2078 674.423 54.7278V52.3518C674.423 52.1118 674.459 51.9438 674.531 51.8478C674.603 51.7278 674.747 51.6078 674.963 51.4878L680.975 48.4998C681.311 48.3318 681.575 48.2238 681.767 48.1758C681.983 48.1038 682.223 48.0678 682.487 48.0678H684.971C685.139 48.0678 685.271 48.1278 685.367 48.2478C685.463 48.3678 685.511 48.5238 685.511 48.7158V69.7758C685.511 70.0158 685.619 70.1358 685.835 70.1358H689.435ZM704.08 47.6718C706.216 47.6718 708.124 48.2478 709.804 49.3998C711.484 50.5518 712.804 52.1718 713.764 54.2598C714.724 56.3478 715.204 58.7598 715.204 61.4958C715.204 64.2318 714.724 66.6318 713.764 68.6958C712.828 70.7358 711.52 72.3198 709.84 73.4478C708.16 74.5518 706.24 75.1038 704.08 75.1038C701.92 75.1038 699.988 74.5518 698.284 73.4478C696.604 72.3198 695.284 70.7358 694.324 68.6958C693.388 66.6318 692.92 64.2438 692.92 61.5318C692.92 58.7958 693.4 56.3838 694.36 54.2958C695.32 52.1838 696.64 50.5518 698.32 49.3998C700.024 48.2478 701.944 47.6718 704.08 47.6718ZM704.08 70.6398C705.688 70.6398 706.876 69.9318 707.644 68.5158C708.412 67.0998 708.796 64.7718 708.796 61.5318C708.796 58.2198 708.4 55.8198 707.608 54.3318C706.84 52.8198 705.652 52.0638 704.044 52.0638C702.46 52.0638 701.272 52.8198 700.48 54.3318C699.688 55.8438 699.292 58.2438 699.292 61.5318C699.292 64.7478 699.688 67.0758 700.48 68.5158C701.272 69.9318 702.472 70.6398 704.08 70.6398ZM729.568 47.6718C731.704 47.6718 733.612 48.2478 735.292 49.3998C736.972 50.5518 738.292 52.1718 739.252 54.2598C740.212 56.3478 740.692 58.7598 740.692 61.4958C740.692 64.2318 740.212 66.6318 739.252 68.6958C738.316 70.7358 737.008 72.3198 735.328 73.4478C733.648 74.5518 731.728 75.1038 729.568 75.1038C727.408 75.1038 725.476 74.5518 723.772 73.4478C722.092 72.3198 720.772 70.7358 719.812 68.6958C718.876 66.6318 718.408 64.2438 718.408 61.5318C718.408 58.7958 718.888 56.3838 719.848 54.2958C720.808 52.1838 722.128 50.5518 723.808 49.3998C725.512 48.2478 727.432 47.6718 729.568 47.6718ZM729.568 70.6398C731.176 70.6398 732.364 69.9318 733.132 68.5158C733.9 67.0998 734.284 64.7718 734.284 61.5318C734.284 58.2198 733.888 55.8198 733.096 54.3318C732.328 52.8198 731.14 52.0638 729.532 52.0638C727.948 52.0638 726.76 52.8198 725.968 54.3318C725.176 55.8438 724.78 58.2438 724.78 61.5318C724.78 64.7478 725.176 67.0758 725.968 68.5158C726.76 69.9318 727.96 70.6398 729.568 70.6398ZM761.61 66.4998C761.61 67.0278 761.298 67.2918 760.674 67.2918H752.214C751.926 67.2918 751.722 67.2438 751.602 67.1478C751.506 67.0278 751.458 66.8358 751.458 66.5718V63.9438C751.458 63.5118 751.638 63.2958 751.998 63.2958H761.07C761.238 63.2958 761.37 63.3438 761.466 63.4398C761.562 63.5358 761.61 63.6678 761.61 63.8358V66.4998ZM793.108 67.0758C793.108 69.2118 792.376 70.9998 790.912 72.4398C789.472 73.8558 787.528 74.6838 785.08 74.9238C784.816 74.9478 784.648 74.9958 784.576 75.0678C784.504 75.1398 784.468 75.2838 784.468 75.4998V76.7958C784.468 77.0838 784.396 77.2878 784.252 77.4078C784.132 77.5518 783.916 77.6238 783.604 77.6238H781.624C781.12 77.6238 780.868 77.3838 780.868 76.9038V75.4638C780.868 75.2478 780.832 75.1038 780.76 75.0318C780.688 74.9598 780.556 74.9238 780.364 74.9238C778.636 74.8278 777.124 74.5158 775.828 73.9878C774.556 73.4358 773.356 72.6438 772.228 71.6118C771.868 71.3238 771.688 71.0718 771.688 70.8558C771.688 70.7118 771.748 70.5798 771.868 70.4598L774.028 68.1198C774.244 67.9038 774.436 67.7958 774.604 67.7958C774.748 67.7958 774.904 67.8798 775.072 68.0478C776.584 69.6798 778.36 70.6278 780.4 70.8918L780.616 70.9278C780.808 70.9278 780.904 70.7958 780.904 70.5318L780.94 64.3758C780.94 64.1838 780.904 64.0398 780.832 63.9438C780.76 63.8238 780.616 63.7278 780.4 63.6558C777.568 63.0318 775.528 62.0478 774.28 60.7038C773.056 59.3598 772.444 57.7158 772.444 55.7718C772.444 53.8518 773.128 52.2198 774.496 50.8758C775.864 49.5078 777.784 48.6078 780.256 48.1758C780.712 48.0558 780.94 47.8518 780.94 47.5638V46.1958C780.94 46.0518 780.976 45.9318 781.048 45.8358C781.144 45.7398 781.252 45.6918 781.372 45.6918H783.82C784.252 45.6918 784.468 45.9198 784.468 46.3758V47.8158C784.468 47.9598 784.624 48.0678 784.936 48.1398C787.36 48.6438 789.436 49.5438 791.164 50.8398C791.356 50.9598 791.452 51.1158 791.452 51.3078C791.452 51.4278 791.392 51.5718 791.272 51.7398L789.364 54.1878C789.22 54.3558 789.076 54.4398 788.932 54.4398C788.74 54.4398 788.548 54.3438 788.356 54.1518C787.948 53.7438 787.432 53.3718 786.808 53.0358C786.208 52.6758 785.572 52.4118 784.9 52.2438L784.756 52.2078C784.54 52.2078 784.432 52.3158 784.432 52.5318V58.6158C784.432 58.7598 784.456 58.8678 784.504 58.9398C784.576 58.9878 784.696 59.0358 784.864 59.0838L786.88 59.6238C788.776 60.1998 790.288 61.1478 791.416 62.4678C792.544 63.7638 793.108 65.2998 793.108 67.0758ZM780.94 52.4958C780.94 52.1358 780.784 51.9918 780.472 52.0638C779.392 52.2558 778.564 52.6398 777.988 53.2158C777.412 53.7678 777.124 54.4278 777.124 55.1958C777.124 55.9398 777.364 56.5638 777.844 57.0678C778.324 57.5478 779.116 57.9558 780.22 58.2918C780.268 58.3158 780.34 58.3278 780.436 58.3278C780.772 58.3278 780.94 58.0998 780.94 57.6438V52.4958ZM784.432 70.6758C784.432 70.8918 784.588 70.9758 784.9 70.9278C785.98 70.8078 786.832 70.4718 787.456 69.9198C788.08 69.3678 788.392 68.6958 788.392 67.9038C788.392 67.0638 788.116 66.3678 787.564 65.8158C787.012 65.2638 786.124 64.8198 784.9 64.4838C784.852 64.4598 784.78 64.4478 784.684 64.4478C784.516 64.4478 784.432 64.5798 784.432 64.8438V70.6758ZM796.718 52.2438C796.622 52.1478 796.574 52.0278 796.574 51.8838C796.574 51.7638 796.622 51.6198 796.718 51.4518C797.678 50.2998 798.998 49.3878 800.678 48.7158C802.358 48.0438 804.146 47.7078 806.042 47.7078C808.106 47.7078 809.894 48.0078 811.406 48.6078C812.942 49.1838 814.106 49.9998 814.898 51.0558C815.714 52.1118 816.122 53.3238 816.122 54.6918C816.122 55.8918 815.75 57.0078 815.006 58.0398C814.262 59.0478 813.218 59.7558 811.874 60.1638C811.586 60.2598 811.442 60.3798 811.442 60.5238C811.442 60.6438 811.574 60.7398 811.838 60.8118C813.374 61.3158 814.61 62.1198 815.546 63.2238C816.482 64.3278 816.95 65.5998 816.95 67.0398C816.95 69.6558 815.99 71.6598 814.07 73.0518C812.174 74.4438 809.354 75.1398 805.61 75.1398C803.546 75.1398 801.614 74.7438 799.814 73.9518C798.038 73.1358 796.646 72.0438 795.638 70.6758C795.518 70.5078 795.458 70.3518 795.458 70.2078C795.458 70.0158 795.59 69.8238 795.854 69.6318L798.662 67.6518C798.878 67.5078 799.034 67.4358 799.13 67.4358C799.274 67.4358 799.382 67.4958 799.454 67.6158C800.582 68.7678 801.614 69.5718 802.55 70.0278C803.51 70.4838 804.65 70.7118 805.97 70.7118C807.458 70.7118 808.622 70.3878 809.462 69.7398C810.326 69.0918 810.758 68.2398 810.758 67.1838C810.758 66.0078 810.278 65.0718 809.318 64.3758C808.382 63.6798 807.194 63.3198 805.754 63.2958L802.658 63.2238C802.25 63.2238 802.046 63.0558 802.046 62.7198V59.3358C802.046 59.0718 802.25 58.9038 802.658 58.8318L805.142 58.7238C806.558 58.6998 807.71 58.3518 808.598 57.6798C809.51 56.9838 809.966 56.1198 809.966 55.0878C809.966 54.2238 809.582 53.5038 808.814 52.9278C808.07 52.3278 807.122 52.0278 805.97 52.0278C804.866 52.0278 803.858 52.2438 802.946 52.6758C802.034 53.0838 801.098 53.7558 800.138 54.6918C799.97 54.8598 799.838 54.9438 799.742 54.9438C799.694 54.9438 799.562 54.8598 799.346 54.6918L796.718 52.2438ZM831.17 47.6718C833.306 47.6718 835.214 48.2478 836.894 49.3998C838.574 50.5518 839.894 52.1718 840.854 54.2598C841.814 56.3478 842.294 58.7598 842.294 61.4958C842.294 64.2318 841.814 66.6318 840.854 68.6958C839.918 70.7358 838.61 72.3198 836.93 73.4478C835.25 74.5518 833.33 75.1038 831.17 75.1038C829.01 75.1038 827.078 74.5518 825.374 73.4478C823.694 72.3198 822.374 70.7358 821.414 68.6958C820.478 66.6318 820.01 64.2438 820.01 61.5318C820.01 58.7958 820.49 56.3838 821.45 54.2958C822.41 52.1838 823.73 50.5518 825.41 49.3998C827.114 48.2478 829.034 47.6718 831.17 47.6718ZM831.17 70.6398C832.778 70.6398 833.966 69.9318 834.734 68.5158C835.502 67.0998 835.886 64.7718 835.886 61.5318C835.886 58.2198 835.49 55.8198 834.698 54.3318C833.93 52.8198 832.742 52.0638 831.134 52.0638C829.55 52.0638 828.362 52.8198 827.57 54.3318C826.778 55.8438 826.382 58.2438 826.382 61.5318C826.382 64.7478 826.778 67.0758 827.57 68.5158C828.362 69.9318 829.562 70.6398 831.17 70.6398ZM856.658 47.6718C858.794 47.6718 860.702 48.2478 862.382 49.3998C864.062 50.5518 865.382 52.1718 866.342 54.2598C867.302 56.3478 867.782 58.7598 867.782 61.4958C867.782 64.2318 867.302 66.6318 866.342 68.6958C865.406 70.7358 864.098 72.3198 862.418 73.4478C860.738 74.5518 858.818 75.1038 856.658 75.1038C854.498 75.1038 852.566 74.5518 850.862 73.4478C849.182 72.3198 847.862 70.7358 846.902 68.6958C845.966 66.6318 845.498 64.2438 845.498 61.5318C845.498 58.7958 845.978 56.3838 846.938 54.2958C847.898 52.1838 849.218 50.5518 850.898 49.3998C852.602 48.2478 854.522 47.6718 856.658 47.6718ZM856.658 70.6398C858.266 70.6398 859.454 69.9318 860.222 68.5158C860.99 67.0998 861.374 64.7718 861.374 61.5318C861.374 58.2198 860.978 55.8198 860.186 54.3318C859.418 52.8198 858.23 52.0638 856.622 52.0638C855.038 52.0638 853.85 52.8198 853.058 54.3318C852.266 55.8438 851.87 58.2438 851.87 61.5318C851.87 64.7478 852.266 67.0758 853.058 68.5158C853.85 69.9318 855.05 70.6398 856.658 70.6398Z" fill="white"/>
<path d="M166.601 70.7798C166.361 70.7798 166.241 70.6438 166.241 70.3718C166.241 70.2438 166.257 70.1478 166.289 70.0838L172.265 53.4518C172.329 53.2758 172.401 53.1558 172.481 53.0918C172.577 53.0118 172.713 52.9718 172.889 52.9718H176.489C176.665 52.9718 176.817 53.0198 176.945 53.1158C177.073 53.2118 177.161 53.3398 177.209 53.4998L183.137 70.1318C183.169 70.2278 183.185 70.2998 183.185 70.3478C183.185 70.4758 183.153 70.5798 183.089 70.6598C183.041 70.7398 182.961 70.7798 182.849 70.7798H179.321C179.081 70.7798 178.929 70.6678 178.865 70.4438L177.617 66.9398C177.585 66.8438 177.545 66.7798 177.497 66.7478C177.465 66.6998 177.401 66.6758 177.305 66.6758H171.449C171.289 66.6758 171.185 66.7558 171.137 66.9158L169.865 70.4678C169.769 70.6758 169.601 70.7798 169.361 70.7798H166.601ZM176.321 63.4838C176.481 63.4838 176.561 63.4198 176.561 63.2918C176.561 63.1958 176.553 63.1238 176.537 63.0758L174.521 57.4598C174.473 57.3638 174.417 57.3158 174.353 57.3158C174.305 57.3158 174.257 57.3718 174.209 57.4838L172.169 63.0758C172.137 63.1718 172.121 63.2438 172.121 63.2918C172.121 63.4198 172.209 63.4838 172.385 63.4838H176.321ZM195.564 58.0598C195.708 58.0598 195.812 58.1158 195.876 58.2278C195.94 58.3398 195.948 58.4678 195.9 58.6118L191.148 70.2758C191.004 70.6118 190.748 70.7798 190.38 70.7798H188.676C188.308 70.7798 188.052 70.6118 187.908 70.2758L183.18 58.6358C183.148 58.5398 183.132 58.4758 183.132 58.4438C183.132 58.3318 183.172 58.2438 183.252 58.1798C183.332 58.0998 183.428 58.0598 183.54 58.0598H186.588C186.86 58.0598 187.036 58.1958 187.116 58.4678L189.876 65.5478C189.956 65.6918 190.02 65.7638 190.068 65.7638C190.132 65.7638 190.196 65.6838 190.26 65.5238L192.972 58.4438C193.084 58.1878 193.26 58.0598 193.5 58.0598H195.564ZM200.244 65.4998C200.244 66.3958 200.54 67.1238 201.132 67.6838C201.74 68.2278 202.492 68.4998 203.388 68.4998C203.964 68.4998 204.492 68.3798 204.972 68.1398C205.468 67.8838 205.964 67.4678 206.46 66.8918C206.524 66.8278 206.588 66.7958 206.652 66.7958C206.7 66.7958 206.78 66.8198 206.892 66.8678L208.62 67.5878C208.732 67.6358 208.788 67.7158 208.788 67.8278C208.788 67.9078 208.756 67.9878 208.692 68.0678C207.924 69.1558 207.1 69.9238 206.22 70.3718C205.34 70.8038 204.244 71.0198 202.932 71.0198C201.7 71.0198 200.588 70.7478 199.596 70.2038C198.604 69.6598 197.828 68.9078 197.268 67.9478C196.708 66.9718 196.428 65.8598 196.428 64.6118C196.428 63.2678 196.716 62.0838 197.292 61.0598C197.868 60.0198 198.644 59.2198 199.62 58.6598C200.612 58.0998 201.692 57.8198 202.86 57.8198C204.076 57.8198 205.156 58.0918 206.1 58.6358C207.044 59.1638 207.78 59.9318 208.308 60.9398C208.836 61.9478 209.1 63.1478 209.1 64.5398C209.1 64.7478 209.076 64.8918 209.028 64.9718C208.996 65.0518 208.884 65.0998 208.692 65.1158H200.532C200.34 65.1158 200.244 65.2438 200.244 65.4998ZM205.068 63.0998C205.244 63.0998 205.356 63.0838 205.404 63.0518C205.452 63.0038 205.476 62.9078 205.476 62.7638C205.476 62.3478 205.38 61.9318 205.188 61.5158C204.996 61.0998 204.716 60.7558 204.348 60.4838C203.98 60.2118 203.532 60.0758 203.004 60.0758C202.204 60.0758 201.548 60.3558 201.036 60.9158C200.524 61.4758 200.276 62.1958 200.292 63.0758L205.068 63.0998ZM211.57 70.7798C211.234 70.7798 211.066 70.6198 211.066 70.2998V58.5158C211.066 58.2118 211.194 58.0598 211.45 58.0598H214.258C214.514 58.0598 214.642 58.1958 214.642 58.4678V59.8838C214.642 59.9478 214.658 59.9958 214.69 60.0278C214.722 60.0598 214.754 60.0758 214.786 60.0758C214.834 60.0758 214.898 60.0358 214.978 59.9558C215.458 59.3158 216.026 58.8038 216.682 58.4198C217.338 58.0198 217.962 57.8198 218.554 57.8198C219.13 57.8198 219.418 57.9558 219.418 58.2278V61.0118C219.418 61.1238 219.386 61.2118 219.322 61.2758C219.258 61.3398 219.17 61.3558 219.058 61.3238C218.546 61.1958 217.986 61.1318 217.378 61.1318C216.978 61.1318 216.57 61.2358 216.154 61.4438C215.754 61.6358 215.418 61.8998 215.146 62.2358C214.89 62.5558 214.762 62.8838 214.762 63.2198V70.2278C214.762 70.5958 214.554 70.7798 214.138 70.7798H211.57ZM228.129 69.5558C227.073 70.5318 225.817 71.0198 224.361 71.0198C223.161 71.0198 222.209 70.6998 221.505 70.0598C220.801 69.4038 220.449 68.5558 220.449 67.5158C220.449 66.1718 221.065 65.0918 222.297 64.2758C223.529 63.4598 225.225 63.0278 227.385 62.9798L228.249 62.9078C228.345 62.9078 228.425 62.8838 228.489 62.8358C228.569 62.7718 228.609 62.6838 228.609 62.5718V62.0678C228.609 61.4438 228.433 60.9638 228.081 60.6278C227.729 60.2918 227.225 60.1238 226.569 60.1238C225.449 60.1238 224.617 60.6038 224.073 61.5638C224.009 61.7238 223.905 61.8038 223.761 61.8038C223.681 61.8038 223.609 61.7958 223.545 61.7798L221.145 61.2278C221.001 61.1958 220.929 61.1078 220.929 60.9638C220.929 60.8678 220.961 60.7478 221.025 60.6038C221.409 59.6758 222.089 58.9798 223.065 58.5158C224.057 58.0518 225.281 57.8198 226.737 57.8198C228.641 57.8198 230.017 58.1718 230.865 58.8758C231.713 59.5638 232.137 60.5478 232.137 61.8278V70.2518C232.137 70.4438 232.105 70.5798 232.041 70.6598C231.977 70.7398 231.857 70.7798 231.681 70.7798H229.209C229.049 70.7798 228.929 70.7238 228.849 70.6118C228.785 70.4998 228.737 70.3318 228.705 70.1078L228.681 69.5798C228.665 69.4358 228.601 69.3638 228.489 69.3638C228.425 69.3638 228.305 69.4278 228.129 69.5558ZM228.609 65.1158C228.609 64.9718 228.585 64.8678 228.537 64.8038C228.489 64.7398 228.393 64.7078 228.249 64.7078L227.577 64.7558C226.649 64.8038 225.825 65.0278 225.105 65.4278C224.401 65.8118 224.049 66.3478 224.049 67.0358C224.049 67.5158 224.217 67.8998 224.553 68.1878C224.889 68.4598 225.353 68.5958 225.945 68.5958C226.681 68.5958 227.305 68.3798 227.817 67.9478C228.345 67.5318 228.609 67.1078 228.609 66.6758V65.1158ZM247.508 57.5078C247.828 57.5078 247.988 57.6838 247.988 58.0358V59.6678C247.988 60.1158 247.804 60.2998 247.436 60.2198C247.196 60.1718 246.964 60.1478 246.74 60.1478C246.612 60.1478 246.468 60.1638 246.308 60.1958C245.892 60.2598 245.732 60.4438 245.828 60.7478C245.972 61.1798 246.044 61.5398 246.044 61.8278C246.044 62.5638 245.82 63.2278 245.372 63.8198C244.94 64.4118 244.284 64.8838 243.404 65.2358C242.54 65.5878 241.492 65.7638 240.26 65.7638C239.364 65.7638 238.7 65.8358 238.268 65.9798C237.852 66.1238 237.644 66.3158 237.644 66.5558C237.644 66.7638 237.756 66.9158 237.98 67.0118C238.22 67.0918 238.612 67.1478 239.156 67.1798L242.588 67.3718C244.172 67.4678 245.348 67.8198 246.116 68.4278C246.9 69.0358 247.292 69.8438 247.292 70.8518C247.292 72.0998 246.7 73.0998 245.516 73.8518C244.332 74.6038 242.652 74.9798 240.476 74.9798C235.82 74.9798 233.492 73.9478 233.492 71.8838C233.492 71.3718 233.692 70.9398 234.092 70.5878C234.492 70.2198 235.06 69.8998 235.796 69.6278C235.892 69.5958 235.94 69.5558 235.94 69.5078C235.94 69.4598 235.892 69.4118 235.796 69.3638C234.868 68.9158 234.404 68.3238 234.404 67.5878C234.404 67.1558 234.612 66.7558 235.028 66.3878C235.46 66.0038 236.028 65.6758 236.732 65.4038C236.924 65.3078 236.94 65.2118 236.78 65.1158C235.228 64.3958 234.452 63.3078 234.452 61.8518C234.452 60.6358 234.972 59.6678 236.012 58.9478C237.068 58.2278 238.572 57.8678 240.524 57.8678C242.172 57.8678 243.452 58.2278 244.364 58.9478C244.476 59.0278 244.58 59.0678 244.676 59.0678C244.804 59.0678 244.916 59.0118 245.012 58.8998C245.316 58.5318 245.716 58.2118 246.212 57.9398C246.708 57.6518 247.14 57.5078 247.508 57.5078ZM240.236 63.9398C241.052 63.9398 241.66 63.7558 242.06 63.3878C242.476 63.0038 242.684 62.5078 242.684 61.8998C242.684 61.2278 242.476 60.6998 242.06 60.3158C241.66 59.9158 241.052 59.7158 240.236 59.7158C239.468 59.7158 238.86 59.9158 238.412 60.3158C237.98 60.7158 237.764 61.2438 237.764 61.8998C237.764 62.5078 237.98 63.0038 238.412 63.3878C238.86 63.7558 239.468 63.9398 240.236 63.9398ZM238.46 70.0598C237.964 70.0278 237.516 70.1478 237.116 70.4198C236.732 70.6758 236.54 71.0038 236.54 71.4038C236.54 71.9958 236.868 72.4438 237.524 72.7478C238.18 73.0518 239.244 73.2038 240.716 73.2038C241.788 73.2038 242.612 73.0518 243.188 72.7478C243.764 72.4598 244.052 72.0438 244.052 71.4998C244.052 71.1318 243.892 70.8358 243.572 70.6118C243.252 70.3878 242.78 70.2598 242.156 70.2278L238.46 70.0598ZM252.556 65.4998C252.556 66.3958 252.852 67.1238 253.444 67.6838C254.052 68.2278 254.804 68.4998 255.7 68.4998C256.276 68.4998 256.804 68.3798 257.284 68.1398C257.78 67.8838 258.276 67.4678 258.772 66.8918C258.836 66.8278 258.9 66.7958 258.964 66.7958C259.012 66.7958 259.092 66.8198 259.204 66.8678L260.932 67.5878C261.044 67.6358 261.1 67.7158 261.1 67.8278C261.1 67.9078 261.068 67.9878 261.004 68.0678C260.236 69.1558 259.412 69.9238 258.532 70.3718C257.652 70.8038 256.556 71.0198 255.244 71.0198C254.012 71.0198 252.9 70.7478 251.908 70.2038C250.916 69.6598 250.14 68.9078 249.58 67.9478C249.02 66.9718 248.74 65.8598 248.74 64.6118C248.74 63.2678 249.028 62.0838 249.604 61.0598C250.18 60.0198 250.956 59.2198 251.932 58.6598C252.924 58.0998 254.004 57.8198 255.172 57.8198C256.388 57.8198 257.468 58.0918 258.412 58.6358C259.356 59.1638 260.092 59.9318 260.62 60.9398C261.148 61.9478 261.412 63.1478 261.412 64.5398C261.412 64.7478 261.388 64.8918 261.34 64.9718C261.308 65.0518 261.196 65.0998 261.004 65.1158H252.844C252.652 65.1158 252.556 65.2438 252.556 65.4998ZM257.38 63.0998C257.556 63.0998 257.668 63.0838 257.716 63.0518C257.764 63.0038 257.788 62.9078 257.788 62.7638C257.788 62.3478 257.692 61.9318 257.5 61.5158C257.308 61.0998 257.028 60.7558 256.66 60.4838C256.292 60.2118 255.844 60.0758 255.316 60.0758C254.516 60.0758 253.86 60.3558 253.348 60.9158C252.836 61.4758 252.588 62.1958 252.604 63.0758L257.38 63.0998ZM283.132 70.1318C283.164 70.2278 283.18 70.2998 283.18 70.3478C283.18 70.4758 283.14 70.5798 283.06 70.6598C282.98 70.7398 282.884 70.7798 282.772 70.7798H279.244C278.972 70.7798 278.796 70.6358 278.716 70.3478L276.124 63.6278C276.076 63.4998 276.004 63.4118 275.908 63.3638C275.812 63.3158 275.66 63.2918 275.452 63.2918H273.172C273.076 63.2918 273.004 63.3238 272.956 63.3878C272.908 63.4358 272.884 63.4918 272.884 63.5558V70.2038C272.884 70.4118 272.828 70.5638 272.716 70.6598C272.62 70.7398 272.46 70.7798 272.236 70.7798H269.188C268.996 70.7798 268.86 70.7398 268.78 70.6598C268.716 70.5798 268.684 70.4598 268.684 70.2998V53.4278C268.684 53.1238 268.812 52.9718 269.068 52.9718H276.556C278.716 52.9718 280.388 53.3958 281.572 54.2438C282.756 55.0918 283.348 56.2998 283.348 57.8678C283.348 59.0358 283.036 60.0358 282.412 60.8678C281.788 61.6838 281.004 62.2598 280.06 62.5958C279.932 62.6438 279.9 62.7638 279.964 62.9558L283.132 70.1318ZM276.172 60.4598C277.1 60.4598 277.804 60.2678 278.284 59.8838C278.764 59.4838 279.004 58.9078 279.004 58.1558C279.004 57.3878 278.756 56.8038 278.26 56.4038C277.78 55.9878 277.124 55.7798 276.292 55.7798H273.34C273.164 55.7798 273.044 55.8118 272.98 55.8758C272.916 55.9238 272.884 56.0198 272.884 56.1638V60.0518C272.884 60.1958 272.908 60.2998 272.956 60.3638C273.004 60.4278 273.092 60.4598 273.22 60.4598H276.172ZM292.652 69.5558C291.596 70.5318 290.34 71.0198 288.884 71.0198C287.684 71.0198 286.732 70.6998 286.028 70.0598C285.324 69.4038 284.972 68.5558 284.972 67.5158C284.972 66.1718 285.588 65.0918 286.82 64.2758C288.052 63.4598 289.748 63.0278 291.908 62.9798L292.772 62.9078C292.868 62.9078 292.948 62.8838 293.012 62.8358C293.092 62.7718 293.132 62.6838 293.132 62.5718V62.0678C293.132 61.4438 292.956 60.9638 292.604 60.6278C292.252 60.2918 291.748 60.1238 291.092 60.1238C289.972 60.1238 289.14 60.6038 288.596 61.5638C288.532 61.7238 288.428 61.8038 288.284 61.8038C288.204 61.8038 288.132 61.7958 288.068 61.7798L285.668 61.2278C285.524 61.1958 285.452 61.1078 285.452 60.9638C285.452 60.8678 285.484 60.7478 285.548 60.6038C285.932 59.6758 286.612 58.9798 287.588 58.5158C288.58 58.0518 289.804 57.8198 291.26 57.8198C293.164 57.8198 294.54 58.1718 295.388 58.8758C296.236 59.5638 296.66 60.5478 296.66 61.8278V70.2518C296.66 70.4438 296.628 70.5798 296.564 70.6598C296.5 70.7398 296.38 70.7798 296.204 70.7798H293.732C293.572 70.7798 293.452 70.7238 293.372 70.6118C293.308 70.4998 293.26 70.3318 293.228 70.1078L293.204 69.5798C293.188 69.4358 293.124 69.3638 293.012 69.3638C292.948 69.3638 292.828 69.4278 292.652 69.5558ZM293.132 65.1158C293.132 64.9718 293.108 64.8678 293.06 64.8038C293.012 64.7398 292.916 64.7078 292.772 64.7078L292.1 64.7558C291.172 64.8038 290.348 65.0278 289.628 65.4278C288.924 65.8118 288.572 66.3478 288.572 67.0358C288.572 67.5158 288.74 67.8998 289.076 68.1878C289.412 68.4598 289.876 68.5958 290.468 68.5958C291.204 68.5958 291.828 68.3798 292.34 67.9478C292.868 67.5318 293.132 67.1078 293.132 66.6758V65.1158ZM299.672 70.7798C299.496 70.7798 299.368 70.7478 299.288 70.6838C299.208 70.6038 299.168 70.4758 299.168 70.2998V58.5158C299.168 58.2118 299.296 58.0598 299.552 58.0598H302.456C302.696 58.0598 302.816 58.1958 302.816 58.4678V59.6438C302.816 59.7718 302.856 59.8358 302.936 59.8358C302.984 59.8358 303.04 59.8038 303.104 59.7398C303.76 59.1158 304.416 58.6438 305.072 58.3238C305.728 57.9878 306.424 57.8198 307.16 57.8198C308.328 57.8198 309.248 58.1638 309.92 58.8518C310.608 59.5398 310.952 60.4598 310.952 61.6118V70.2038C310.952 70.5878 310.76 70.7798 310.376 70.7798H307.712C307.536 70.7798 307.416 70.7478 307.352 70.6838C307.288 70.6038 307.256 70.4758 307.256 70.2998V62.1878C307.256 61.6438 307.104 61.2278 306.8 60.9398C306.512 60.6358 306.08 60.4838 305.504 60.4838C305.024 60.4838 304.576 60.6038 304.16 60.8438C303.76 61.0838 303.328 61.4598 302.864 61.9718V70.2278C302.864 70.4198 302.816 70.5638 302.72 70.6598C302.624 70.7398 302.464 70.7798 302.24 70.7798H299.672ZM326.329 57.5078C326.649 57.5078 326.809 57.6838 326.809 58.0358V59.6678C326.809 60.1158 326.625 60.2998 326.257 60.2198C326.017 60.1718 325.785 60.1478 325.561 60.1478C325.433 60.1478 325.289 60.1638 325.129 60.1958C324.713 60.2598 324.553 60.4438 324.649 60.7478C324.793 61.1798 324.865 61.5398 324.865 61.8278C324.865 62.5638 324.641 63.2278 324.193 63.8198C323.761 64.4118 323.105 64.8838 322.225 65.2358C321.361 65.5878 320.313 65.7638 319.081 65.7638C318.185 65.7638 317.521 65.8358 317.089 65.9798C316.673 66.1238 316.465 66.3158 316.465 66.5558C316.465 66.7638 316.577 66.9158 316.801 67.0118C317.041 67.0918 317.433 67.1478 317.977 67.1798L321.409 67.3718C322.993 67.4678 324.169 67.8198 324.937 68.4278C325.721 69.0358 326.113 69.8438 326.113 70.8518C326.113 72.0998 325.521 73.0998 324.337 73.8518C323.153 74.6038 321.473 74.9798 319.297 74.9798C314.641 74.9798 312.313 73.9478 312.313 71.8838C312.313 71.3718 312.513 70.9398 312.913 70.5878C313.313 70.2198 313.881 69.8998 314.617 69.6278C314.713 69.5958 314.761 69.5558 314.761 69.5078C314.761 69.4598 314.713 69.4118 314.617 69.3638C313.689 68.9158 313.225 68.3238 313.225 67.5878C313.225 67.1558 313.433 66.7558 313.849 66.3878C314.281 66.0038 314.849 65.6758 315.553 65.4038C315.745 65.3078 315.761 65.2118 315.601 65.1158C314.049 64.3958 313.273 63.3078 313.273 61.8518C313.273 60.6358 313.793 59.6678 314.833 58.9478C315.889 58.2278 317.393 57.8678 319.345 57.8678C320.993 57.8678 322.273 58.2278 323.185 58.9478C323.297 59.0278 323.401 59.0678 323.497 59.0678C323.625 59.0678 323.737 59.0118 323.833 58.8998C324.137 58.5318 324.537 58.2118 325.033 57.9398C325.529 57.6518 325.961 57.5078 326.329 57.5078ZM319.057 63.9398C319.873 63.9398 320.481 63.7558 320.881 63.3878C321.297 63.0038 321.505 62.5078 321.505 61.8998C321.505 61.2278 321.297 60.6998 320.881 60.3158C320.481 59.9158 319.873 59.7158 319.057 59.7158C318.289 59.7158 317.681 59.9158 317.233 60.3158C316.801 60.7158 316.585 61.2438 316.585 61.8998C316.585 62.5078 316.801 63.0038 317.233 63.3878C317.681 63.7558 318.289 63.9398 319.057 63.9398ZM317.281 70.0598C316.785 70.0278 316.337 70.1478 315.937 70.4198C315.553 70.6758 315.361 71.0038 315.361 71.4038C315.361 71.9958 315.689 72.4438 316.345 72.7478C317.001 73.0518 318.065 73.2038 319.537 73.2038C320.609 73.2038 321.433 73.0518 322.009 72.7478C322.585 72.4598 322.873 72.0438 322.873 71.4998C322.873 71.1318 322.713 70.8358 322.393 70.6118C322.073 70.3878 321.601 70.2598 320.977 70.2278L317.281 70.0598ZM331.377 65.4998C331.377 66.3958 331.673 67.1238 332.265 67.6838C332.873 68.2278 333.625 68.4998 334.521 68.4998C335.097 68.4998 335.625 68.3798 336.105 68.1398C336.601 67.8838 337.097 67.4678 337.593 66.8918C337.657 66.8278 337.721 66.7958 337.785 66.7958C337.833 66.7958 337.913 66.8198 338.025 66.8678L339.753 67.5878C339.865 67.6358 339.921 67.7158 339.921 67.8278C339.921 67.9078 339.889 67.9878 339.825 68.0678C339.057 69.1558 338.233 69.9238 337.353 70.3718C336.473 70.8038 335.377 71.0198 334.065 71.0198C332.833 71.0198 331.721 70.7478 330.729 70.2038C329.737 69.6598 328.961 68.9078 328.401 67.9478C327.841 66.9718 327.561 65.8598 327.561 64.6118C327.561 63.2678 327.849 62.0838 328.425 61.0598C329.001 60.0198 329.777 59.2198 330.753 58.6598C331.745 58.0998 332.825 57.8198 333.993 57.8198C335.209 57.8198 336.289 58.0918 337.233 58.6358C338.177 59.1638 338.913 59.9318 339.441 60.9398C339.969 61.9478 340.233 63.1478 340.233 64.5398C340.233 64.7478 340.209 64.8918 340.161 64.9718C340.129 65.0518 340.017 65.0998 339.825 65.1158H331.665C331.473 65.1158 331.377 65.2438 331.377 65.4998ZM336.201 63.0998C336.377 63.0998 336.489 63.0838 336.537 63.0518C336.585 63.0038 336.609 62.9078 336.609 62.7638C336.609 62.3478 336.513 61.9318 336.321 61.5158C336.129 61.0998 335.849 60.7558 335.481 60.4838C335.113 60.2118 334.665 60.0758 334.137 60.0758C333.337 60.0758 332.681 60.3558 332.169 60.9158C331.657 61.4758 331.409 62.1958 331.425 63.0758L336.201 63.0998ZM353 71.0198C351.736 71.0198 350.616 70.7478 349.64 70.2038C348.68 69.6438 347.928 68.8678 347.384 67.8758C346.84 66.8838 346.568 65.7558 346.568 64.4918C346.568 63.1798 346.84 62.0198 347.384 61.0118C347.944 60.0038 348.712 59.2198 349.688 58.6598C350.68 58.0998 351.792 57.8198 353.024 57.8198C354.288 57.8198 355.408 58.1078 356.384 58.6838C357.36 59.2438 358.112 60.0278 358.64 61.0358C359.184 62.0438 359.456 63.1878 359.456 64.4678C359.456 65.7318 359.184 66.8598 358.64 67.8518C358.096 68.8438 357.336 69.6198 356.36 70.1798C355.384 70.7398 354.264 71.0198 353 71.0198ZM353.024 68.5718C353.904 68.5718 354.568 68.2278 355.016 67.5398C355.48 66.8358 355.712 65.7958 355.712 64.4198C355.712 63.0278 355.48 61.9798 355.016 61.2758C354.568 60.5558 353.904 60.1958 353.024 60.1958C352.144 60.1958 351.472 60.5558 351.008 61.2758C350.544 61.9798 350.312 63.0278 350.312 64.4198C350.312 65.7798 350.544 66.8118 351.008 67.5158C351.472 68.2198 352.144 68.5718 353.024 68.5718ZM368.505 58.0598C368.649 58.0598 368.761 58.0998 368.841 58.1798C368.921 58.2598 368.961 58.3558 368.961 58.4678V60.2438C368.961 60.4838 368.825 60.6038 368.553 60.6038H366.561C366.401 60.6038 366.321 60.6918 366.321 60.8678V70.3238C366.321 70.6278 366.193 70.7798 365.937 70.7798H362.985C362.745 70.7798 362.625 70.6438 362.625 70.3718V60.8198C362.625 60.6758 362.561 60.6038 362.433 60.6038H360.705C360.417 60.6038 360.273 60.4838 360.273 60.2438V58.4678C360.273 58.3558 360.313 58.2598 360.393 58.1798C360.473 58.0998 360.585 58.0598 360.729 58.0598H362.337C362.449 58.0598 362.521 58.0358 362.553 57.9878C362.601 57.9238 362.625 57.8278 362.625 57.6998V56.2358C362.625 55.2118 362.929 54.4118 363.537 53.8358C364.145 53.2598 365.001 52.9718 366.105 52.9718H368.529C368.881 52.9718 369.057 53.1398 369.057 53.4758L369.081 55.0358C369.081 55.3078 368.961 55.4438 368.721 55.4438H367.425C367.073 55.4438 366.785 55.5798 366.561 55.8518C366.337 56.1078 366.225 56.4438 366.225 56.8598V57.7958C366.225 57.9718 366.321 58.0598 366.513 58.0598H368.505ZM376.075 53.4278C376.075 53.1238 376.203 52.9718 376.459 52.9718H388.555C388.795 52.9718 388.915 53.1078 388.915 53.3798L388.891 55.5398C388.891 55.8758 388.723 56.0438 388.387 56.0438H380.731C380.427 56.0438 380.275 56.1718 380.275 56.4278V59.9078C380.275 60.1798 380.395 60.3158 380.635 60.3158H385.723C385.995 60.3158 386.131 60.4438 386.131 60.6998V63.0038C386.131 63.2278 386.003 63.3398 385.747 63.3398H380.611C380.387 63.3398 380.275 63.4358 380.275 63.6278V67.3958C380.275 67.5078 380.291 67.5878 380.323 67.6358C380.371 67.6838 380.443 67.7078 380.539 67.7078H388.747C389.035 67.7078 389.179 67.8278 389.179 68.0678V70.3478C389.179 70.6358 389.019 70.7798 388.699 70.7798H376.603C376.411 70.7798 376.275 70.7398 376.195 70.6598C376.115 70.5798 376.075 70.4518 376.075 70.2758V53.4278ZM403.351 69.9638C403.543 70.2198 403.639 70.4118 403.639 70.5398C403.639 70.6998 403.487 70.7798 403.183 70.7798H400.111C399.727 70.7798 399.455 70.6518 399.295 70.3958L396.823 66.9158C396.695 66.7078 396.599 66.6038 396.535 66.6038C396.471 66.6038 396.375 66.6998 396.247 66.8918L393.727 70.3958C393.567 70.6518 393.303 70.7798 392.935 70.7798H390.967C390.583 70.7798 390.391 70.6678 390.391 70.4438C390.391 70.2678 390.487 70.0598 390.679 69.8198L394.615 64.7558C394.711 64.6118 394.759 64.4998 394.759 64.4198C394.759 64.3078 394.703 64.1718 394.591 64.0118L390.703 58.7318C390.639 58.6518 390.607 58.5558 390.607 58.4438C390.607 58.3478 390.647 58.2598 390.727 58.1798C390.807 58.0998 390.919 58.0598 391.063 58.0598H393.991C394.199 58.0598 394.351 58.0918 394.447 58.1558C394.559 58.2038 394.663 58.2998 394.759 58.4438L396.991 61.5878C397.071 61.7158 397.143 61.7798 397.207 61.7798C397.255 61.7798 397.319 61.7158 397.399 61.5878L399.511 58.4438C399.607 58.2998 399.703 58.2038 399.799 58.1558C399.911 58.0918 400.079 58.0598 400.303 58.0598H402.463C402.735 58.0598 402.871 58.1398 402.871 58.2998C402.871 58.3798 402.823 58.4838 402.727 58.6118L399.151 63.4598C399.055 63.5718 399.007 63.6838 399.007 63.7958C399.007 63.8758 399.063 64.0038 399.175 64.1798L403.351 69.9638ZM408.579 58.0598C408.771 58.0598 408.907 58.0998 408.987 58.1798C409.067 58.2438 409.107 58.3638 409.107 58.5398V59.2598C409.107 59.3718 409.139 59.4278 409.203 59.4278C409.251 59.4278 409.331 59.3878 409.443 59.3078C409.939 58.8438 410.443 58.4838 410.955 58.2278C411.483 57.9558 412.147 57.8198 412.947 57.8198C414.403 57.8198 415.587 58.3718 416.499 59.4758C417.411 60.5798 417.867 62.1958 417.867 64.3238C417.867 66.5318 417.395 68.2038 416.451 69.3398C415.523 70.4598 414.291 71.0198 412.755 71.0198C411.491 71.0198 410.419 70.6118 409.539 69.7958C409.379 69.6678 409.267 69.6038 409.203 69.6038C409.123 69.6038 409.083 69.7158 409.083 69.9398V74.3318C409.083 74.6038 408.963 74.7398 408.723 74.7398H405.771C405.659 74.7398 405.563 74.6998 405.483 74.6198C405.419 74.5558 405.387 74.4518 405.387 74.3078V58.5878C405.387 58.3958 405.427 58.2598 405.507 58.1798C405.603 58.0998 405.747 58.0598 405.939 58.0598H408.579ZM409.083 67.4918C409.435 67.8758 409.795 68.1718 410.163 68.3798C410.531 68.5878 410.939 68.6918 411.387 68.6918C413.211 68.6918 414.123 67.2118 414.123 64.2518C414.123 62.7798 413.891 61.7318 413.427 61.1078C412.963 60.4678 412.307 60.1478 411.459 60.1478C410.803 60.1478 410.243 60.3478 409.779 60.7478C409.315 61.1318 409.083 61.5718 409.083 62.0678V67.4918ZM423.252 65.4998C423.252 66.3958 423.548 67.1238 424.14 67.6838C424.748 68.2278 425.5 68.4998 426.396 68.4998C426.972 68.4998 427.5 68.3798 427.98 68.1398C428.476 67.8838 428.972 67.4678 429.468 66.8918C429.532 66.8278 429.596 66.7958 429.66 66.7958C429.708 66.7958 429.788 66.8198 429.9 66.8678L431.628 67.5878C431.74 67.6358 431.796 67.7158 431.796 67.8278C431.796 67.9078 431.764 67.9878 431.7 68.0678C430.932 69.1558 430.108 69.9238 429.228 70.3718C428.348 70.8038 427.252 71.0198 425.94 71.0198C424.708 71.0198 423.596 70.7478 422.604 70.2038C421.612 69.6598 420.836 68.9078 420.276 67.9478C419.716 66.9718 419.436 65.8598 419.436 64.6118C419.436 63.2678 419.724 62.0838 420.3 61.0598C420.876 60.0198 421.652 59.2198 422.628 58.6598C423.62 58.0998 424.7 57.8198 425.868 57.8198C427.084 57.8198 428.164 58.0918 429.108 58.6358C430.052 59.1638 430.788 59.9318 431.316 60.9398C431.844 61.9478 432.108 63.1478 432.108 64.5398C432.108 64.7478 432.084 64.8918 432.036 64.9718C432.004 65.0518 431.892 65.0998 431.7 65.1158H423.54C423.348 65.1158 423.252 65.2438 423.252 65.4998ZM428.076 63.0998C428.252 63.0998 428.364 63.0838 428.412 63.0518C428.46 63.0038 428.484 62.9078 428.484 62.7638C428.484 62.3478 428.388 61.9318 428.196 61.5158C428.004 61.0998 427.724 60.7558 427.356 60.4838C426.988 60.2118 426.54 60.0758 426.012 60.0758C425.212 60.0758 424.556 60.3558 424.044 60.9158C423.532 61.4758 423.284 62.1958 423.3 63.0758L428.076 63.0998ZM434.578 70.7798C434.402 70.7798 434.274 70.7478 434.194 70.6838C434.114 70.6038 434.074 70.4758 434.074 70.2998V58.5158C434.074 58.2118 434.202 58.0598 434.458 58.0598H437.362C437.602 58.0598 437.722 58.1958 437.722 58.4678V59.6438C437.722 59.7718 437.762 59.8358 437.842 59.8358C437.89 59.8358 437.946 59.8038 438.01 59.7398C438.666 59.1158 439.322 58.6438 439.978 58.3238C440.634 57.9878 441.33 57.8198 442.066 57.8198C443.234 57.8198 444.154 58.1638 444.826 58.8518C445.514 59.5398 445.858 60.4598 445.858 61.6118V70.2038C445.858 70.5878 445.666 70.7798 445.282 70.7798H442.618C442.442 70.7798 442.322 70.7478 442.258 70.6838C442.194 70.6038 442.162 70.4758 442.162 70.2998V62.1878C442.162 61.6438 442.01 61.2278 441.706 60.9398C441.418 60.6358 440.986 60.4838 440.41 60.4838C439.93 60.4838 439.482 60.6038 439.066 60.8438C438.666 61.0838 438.234 61.4598 437.77 61.9718V70.2278C437.77 70.4198 437.722 70.5638 437.626 70.6598C437.53 70.7398 437.37 70.7798 437.146 70.7798H434.578ZM456.219 61.3718C455.563 60.5078 454.627 60.0758 453.411 60.0758C452.803 60.0758 452.299 60.1958 451.899 60.4358C451.499 60.6598 451.299 60.9718 451.299 61.3718C451.299 61.5958 451.387 61.8038 451.563 61.9958C451.755 62.1718 452.115 62.3238 452.643 62.4518L455.403 63.1238C456.667 63.4278 457.595 63.9158 458.187 64.5878C458.779 65.2438 459.075 66.0198 459.075 66.9158C459.075 68.1798 458.547 69.1798 457.491 69.9158C456.435 70.6518 455.051 71.0198 453.339 71.0198C451.963 71.0198 450.771 70.7798 449.763 70.2998C448.755 69.8038 448.043 69.1638 447.627 68.3798C447.547 68.2678 447.507 68.1638 447.507 68.0678C447.507 67.9558 447.563 67.8758 447.675 67.8278L449.307 66.9878C449.435 66.9238 449.547 66.8918 449.643 66.8918C449.739 66.8918 449.827 66.9318 449.907 67.0118C450.259 67.5078 450.683 67.9078 451.179 68.2118C451.691 68.4998 452.363 68.6438 453.195 68.6438C453.947 68.6438 454.555 68.5318 455.019 68.3078C455.499 68.0838 455.739 67.7558 455.739 67.3238C455.739 67.0358 455.619 66.7958 455.379 66.6038C455.139 66.4118 454.731 66.2438 454.155 66.0998L451.683 65.5718C449.251 65.0438 448.035 63.8358 448.035 61.9478C448.035 61.1478 448.251 60.4358 448.683 59.8118C449.131 59.1878 449.763 58.6998 450.579 58.3478C451.395 57.9958 452.355 57.8198 453.459 57.8198C454.627 57.8198 455.659 58.0358 456.555 58.4678C457.467 58.8998 458.123 59.4438 458.523 60.0998C458.619 60.2278 458.667 60.3398 458.667 60.4358C458.667 60.5318 458.611 60.6118 458.499 60.6758L456.771 61.5158C456.723 61.5478 456.659 61.5638 456.579 61.5638C456.435 61.5638 456.315 61.4998 456.219 61.3718ZM464.337 65.4998C464.337 66.3958 464.633 67.1238 465.225 67.6838C465.833 68.2278 466.585 68.4998 467.481 68.4998C468.057 68.4998 468.585 68.3798 469.065 68.1398C469.561 67.8838 470.057 67.4678 470.553 66.8918C470.617 66.8278 470.681 66.7958 470.745 66.7958C470.793 66.7958 470.873 66.8198 470.985 66.8678L472.713 67.5878C472.825 67.6358 472.881 67.7158 472.881 67.8278C472.881 67.9078 472.849 67.9878 472.785 68.0678C472.017 69.1558 471.193 69.9238 470.313 70.3718C469.433 70.8038 468.337 71.0198 467.025 71.0198C465.793 71.0198 464.681 70.7478 463.689 70.2038C462.697 69.6598 461.921 68.9078 461.361 67.9478C460.801 66.9718 460.521 65.8598 460.521 64.6118C460.521 63.2678 460.809 62.0838 461.385 61.0598C461.961 60.0198 462.737 59.2198 463.713 58.6598C464.705 58.0998 465.785 57.8198 466.953 57.8198C468.169 57.8198 469.249 58.0918 470.193 58.6358C471.137 59.1638 471.873 59.9318 472.401 60.9398C472.929 61.9478 473.193 63.1478 473.193 64.5398C473.193 64.7478 473.169 64.8918 473.121 64.9718C473.089 65.0518 472.977 65.0998 472.785 65.1158H464.625C464.433 65.1158 464.337 65.2438 464.337 65.4998ZM469.161 63.0998C469.337 63.0998 469.449 63.0838 469.497 63.0518C469.545 63.0038 469.569 62.9078 469.569 62.7638C469.569 62.3478 469.473 61.9318 469.281 61.5158C469.089 61.0998 468.809 60.7558 468.441 60.4838C468.073 60.2118 467.625 60.0758 467.097 60.0758C466.297 60.0758 465.641 60.3558 465.129 60.9158C464.617 61.4758 464.369 62.1958 464.385 63.0758L469.161 63.0998ZM483.008 61.3718C482.352 60.5078 481.416 60.0758 480.2 60.0758C479.592 60.0758 479.088 60.1958 478.688 60.4358C478.288 60.6598 478.088 60.9718 478.088 61.3718C478.088 61.5958 478.176 61.8038 478.352 61.9958C478.544 62.1718 478.904 62.3238 479.432 62.4518L482.192 63.1238C483.456 63.4278 484.384 63.9158 484.976 64.5878C485.568 65.2438 485.864 66.0198 485.864 66.9158C485.864 68.1798 485.336 69.1798 484.28 69.9158C483.224 70.6518 481.84 71.0198 480.128 71.0198C478.752 71.0198 477.56 70.7798 476.552 70.2998C475.544 69.8038 474.832 69.1638 474.416 68.3798C474.336 68.2678 474.296 68.1638 474.296 68.0678C474.296 67.9558 474.352 67.8758 474.464 67.8278L476.096 66.9878C476.224 66.9238 476.336 66.8918 476.432 66.8918C476.528 66.8918 476.616 66.9318 476.696 67.0118C477.048 67.5078 477.472 67.9078 477.968 68.2118C478.48 68.4998 479.152 68.6438 479.984 68.6438C480.736 68.6438 481.344 68.5318 481.808 68.3078C482.288 68.0838 482.528 67.7558 482.528 67.3238C482.528 67.0358 482.408 66.7958 482.168 66.6038C481.928 66.4118 481.52 66.2438 480.944 66.0998L478.472 65.5718C476.04 65.0438 474.824 63.8358 474.824 61.9478C474.824 61.1478 475.04 60.4358 475.472 59.8118C475.92 59.1878 476.552 58.6998 477.368 58.3478C478.184 57.9958 479.144 57.8198 480.248 57.8198C481.416 57.8198 482.448 58.0358 483.344 58.4678C484.256 58.8998 484.912 59.4438 485.312 60.0998C485.408 60.2278 485.456 60.3398 485.456 60.4358C485.456 60.5318 485.4 60.6118 485.288 60.6758L483.56 61.5158C483.512 61.5478 483.448 61.5638 483.368 61.5638C483.224 61.5638 483.104 61.4998 483.008 61.3718ZM491.559 61.6838C491.559 61.8918 491.503 62.0438 491.391 62.1398C491.295 62.2198 491.127 62.2598 490.887 62.2598H488.055C487.703 62.2598 487.527 62.0918 487.527 61.7558V58.7798C487.527 58.6358 487.559 58.5318 487.623 58.4678C487.703 58.3878 487.799 58.3478 487.911 58.3478H491.199C491.439 58.3478 491.559 58.4838 491.559 58.7558V61.6838ZM491.559 70.1318C491.559 70.3398 491.503 70.4918 491.391 70.5878C491.295 70.6678 491.127 70.7078 490.887 70.7078H488.055C487.703 70.7078 487.527 70.5398 487.527 70.2038V67.2278C487.527 66.9398 487.655 66.7958 487.911 66.7958H491.199C491.439 66.7958 491.559 66.9238 491.559 67.1798V70.1318Z" fill="#3A082C"/>
</svg>
