<svg width="298" height="193" viewBox="0 0 298 193" fill="none" xmlns="http://www.w3.org/2000/svg">
<path d="M4 126.85H294V167.435C294 178.481 285.046 187.435 274 187.435H24C12.9543 187.435 4 178.481 4 167.435V126.85Z" fill="#7B73B1"/>
<rect x="4" y="41.4018" width="290" height="146.614" rx="20" stroke="#3A082C" stroke-width="8"/>
<circle cx="148.999" cy="39.8828" r="35.8745" fill="white" stroke="#3A082C" stroke-width="8"/>
<circle cx="153.571" cy="43.4492" r="32.6215" fill="#EE8363"/>
<circle cx="148.999" cy="39.8828" r="35.8745" stroke="#3A082C" stroke-width="8"/>
<path d="M159.524 46.2363C159.524 48.3723 158.792 50.1603 157.328 51.6003C155.888 53.0163 153.944 53.8443 151.496 54.0843C151.232 54.1083 151.064 54.1563 150.992 54.2283C150.92 54.3003 150.884 54.4443 150.884 54.6603V55.9563C150.884 56.2443 150.812 56.4483 150.668 56.5683C150.548 56.7123 150.332 56.7843 150.02 56.7843H148.04C147.536 56.7843 147.284 56.5443 147.284 56.0643V54.6243C147.284 54.4083 147.248 54.2643 147.176 54.1923C147.104 54.1203 146.972 54.0843 146.78 54.0843C145.052 53.9883 143.54 53.6763 142.244 53.1483C140.972 52.5963 139.772 51.8043 138.644 50.7723C138.284 50.4843 138.104 50.2323 138.104 50.0163C138.104 49.8723 138.164 49.7403 138.284 49.6203L140.444 47.2803C140.66 47.0643 140.852 46.9563 141.02 46.9563C141.164 46.9563 141.32 47.0403 141.488 47.2083C143 48.8403 144.776 49.7883 146.816 50.0523L147.032 50.0883C147.224 50.0883 147.32 49.9563 147.32 49.6923L147.356 43.5363C147.356 43.3443 147.32 43.2003 147.248 43.1043C147.176 42.9843 147.032 42.8883 146.816 42.8163C143.984 42.1923 141.944 41.2083 140.696 39.8643C139.472 38.5203 138.86 36.8763 138.86 34.9323C138.86 33.0123 139.544 31.3803 140.912 30.0363C142.28 28.6683 144.2 27.7683 146.672 27.3363C147.128 27.2163 147.356 27.0123 147.356 26.7243V25.3563C147.356 25.2123 147.392 25.0923 147.464 24.9963C147.56 24.9003 147.668 24.8523 147.788 24.8523H150.236C150.668 24.8523 150.884 25.0803 150.884 25.5363V26.9763C150.884 27.1203 151.04 27.2283 151.352 27.3003C153.776 27.8043 155.852 28.7043 157.58 30.0003C157.772 30.1203 157.868 30.2763 157.868 30.4683C157.868 30.5883 157.808 30.7323 157.688 30.9003L155.78 33.3483C155.636 33.5163 155.492 33.6003 155.348 33.6003C155.156 33.6003 154.964 33.5043 154.772 33.3123C154.364 32.9043 153.848 32.5323 153.224 32.1963C152.624 31.8363 151.988 31.5723 151.316 31.4043L151.172 31.3683C150.956 31.3683 150.848 31.4763 150.848 31.6923V37.7763C150.848 37.9203 150.872 38.0283 150.92 38.1003C150.992 38.1483 151.112 38.1963 151.28 38.2443L153.296 38.7843C155.192 39.3603 156.704 40.3083 157.832 41.6283C158.96 42.9243 159.524 44.4603 159.524 46.2363ZM147.356 31.6563C147.356 31.2963 147.2 31.1523 146.888 31.2243C145.808 31.4163 144.98 31.8003 144.404 32.3763C143.828 32.9283 143.54 33.5883 143.54 34.3563C143.54 35.1003 143.78 35.7243 144.26 36.2283C144.74 36.7083 145.532 37.1163 146.636 37.4523C146.684 37.4763 146.756 37.4883 146.852 37.4883C147.188 37.4883 147.356 37.2603 147.356 36.8043V31.6563ZM150.848 49.8363C150.848 50.0523 151.004 50.1363 151.316 50.0883C152.396 49.9683 153.248 49.6323 153.872 49.0803C154.496 48.5283 154.808 47.8563 154.808 47.0643C154.808 46.2243 154.532 45.5283 153.98 44.9763C153.428 44.4243 152.54 43.9803 151.316 43.6443C151.268 43.6203 151.196 43.6083 151.1 43.6083C150.932 43.6083 150.848 43.7403 150.848 44.0043V49.8363Z" fill="white"/>
<path d="M95.2336 160.079C95.2336 161.384 94.7862 162.477 93.8916 163.357C93.0116 164.222 91.8236 164.728 90.3276 164.875C90.1662 164.889 90.0636 164.919 90.0196 164.963C89.9756 165.007 89.9536 165.095 89.9536 165.227V166.019C89.9536 166.195 89.9096 166.319 89.8216 166.393C89.7482 166.481 89.6162 166.525 89.4256 166.525H88.2156C87.9076 166.525 87.7536 166.378 87.7536 166.085V165.205C87.7536 165.073 87.7316 164.985 87.6876 164.941C87.6436 164.897 87.5629 164.875 87.4456 164.875C86.3896 164.816 85.4656 164.625 84.6736 164.303C83.8962 163.965 83.1629 163.481 82.4736 162.851C82.2536 162.675 82.1436 162.521 82.1436 162.389C82.1436 162.301 82.1802 162.22 82.2536 162.147L83.5736 160.717C83.7056 160.585 83.8229 160.519 83.9256 160.519C84.0136 160.519 84.1089 160.57 84.2116 160.673C85.1356 161.67 86.2209 162.249 87.4676 162.411L87.5996 162.433C87.7169 162.433 87.7756 162.352 87.7756 162.191L87.7976 158.429C87.7976 158.311 87.7756 158.223 87.7316 158.165C87.6876 158.091 87.5996 158.033 87.4676 157.989C85.7369 157.607 84.4902 157.006 83.7276 156.185C82.9796 155.363 82.6056 154.359 82.6056 153.171C82.6056 151.997 83.0236 151 83.8596 150.179C84.6956 149.343 85.8689 148.793 87.3796 148.529C87.6582 148.455 87.7976 148.331 87.7976 148.155V147.319C87.7976 147.231 87.8196 147.157 87.8636 147.099C87.9222 147.04 87.9882 147.011 88.0616 147.011H89.5576C89.8216 147.011 89.9536 147.15 89.9536 147.429V148.309C89.9536 148.397 90.0489 148.463 90.2396 148.507C91.7209 148.815 92.9896 149.365 94.0456 150.157C94.1629 150.23 94.2216 150.325 94.2216 150.443C94.2216 150.516 94.1849 150.604 94.1116 150.707L92.9456 152.203C92.8576 152.305 92.7696 152.357 92.6816 152.357C92.5642 152.357 92.4469 152.298 92.3296 152.181C92.0802 151.931 91.7649 151.704 91.3836 151.499C91.0169 151.279 90.6282 151.117 90.2176 151.015L90.1296 150.993C89.9976 150.993 89.9316 151.059 89.9316 151.191V154.909C89.9316 154.997 89.9462 155.063 89.9756 155.107C90.0196 155.136 90.0929 155.165 90.1956 155.195L91.4276 155.525C92.5862 155.877 93.5102 156.456 94.1996 157.263C94.8889 158.055 95.2336 158.993 95.2336 160.079ZM87.7976 151.169C87.7976 150.949 87.7022 150.861 87.5116 150.905C86.8516 151.022 86.3456 151.257 85.9936 151.609C85.6416 151.946 85.4656 152.349 85.4656 152.819C85.4656 153.273 85.6122 153.655 85.9056 153.963C86.1989 154.256 86.6829 154.505 87.3576 154.711C87.3869 154.725 87.4309 154.733 87.4896 154.733C87.6949 154.733 87.7976 154.593 87.7976 154.315V151.169ZM89.9316 162.279C89.9316 162.411 90.0269 162.462 90.2176 162.433C90.8776 162.359 91.3982 162.154 91.7796 161.817C92.1609 161.479 92.3516 161.069 92.3516 160.585C92.3516 160.071 92.1829 159.646 91.8456 159.309C91.5082 158.971 90.9656 158.7 90.2176 158.495C90.1882 158.48 90.1442 158.473 90.0856 158.473C89.9829 158.473 89.9316 158.553 89.9316 158.715V162.279ZM106.064 161.949C106.328 161.949 106.46 162.059 106.46 162.279V164.413C106.46 164.515 106.423 164.603 106.35 164.677C106.276 164.75 106.166 164.787 106.02 164.787H97.3296C97.0509 164.787 96.9116 164.662 96.9116 164.413V162.279C96.9116 162.059 97.0363 161.949 97.2856 161.949H99.5736C99.7349 161.949 99.8156 161.897 99.8156 161.795V152.555C99.8156 152.437 99.7936 152.364 99.7496 152.335C99.7056 152.291 99.6249 152.283 99.5076 152.313L97.3736 152.951L97.2196 152.973C96.9996 152.973 96.8896 152.826 96.8896 152.533V151.081C96.8896 150.934 96.9116 150.831 96.9556 150.773C96.9996 150.699 97.0876 150.626 97.2196 150.553L100.894 148.727C101.099 148.624 101.26 148.558 101.378 148.529C101.51 148.485 101.656 148.463 101.818 148.463H103.336C103.438 148.463 103.519 148.499 103.578 148.573C103.636 148.646 103.666 148.741 103.666 148.859V161.729C103.666 161.875 103.732 161.949 103.864 161.949H106.064ZM115.013 148.221C116.318 148.221 117.484 148.573 118.511 149.277C119.538 149.981 120.344 150.971 120.931 152.247C121.518 153.523 121.811 154.997 121.811 156.669C121.811 158.341 121.518 159.807 120.931 161.069C120.359 162.315 119.56 163.283 118.533 163.973C117.506 164.647 116.333 164.985 115.013 164.985C113.693 164.985 112.512 164.647 111.471 163.973C110.444 163.283 109.638 162.315 109.051 161.069C108.479 159.807 108.193 158.348 108.193 156.691C108.193 155.019 108.486 153.545 109.073 152.269C109.66 150.978 110.466 149.981 111.493 149.277C112.534 148.573 113.708 148.221 115.013 148.221ZM115.013 162.257C115.996 162.257 116.722 161.824 117.191 160.959C117.66 160.093 117.895 158.671 117.895 156.691C117.895 154.667 117.653 153.2 117.169 152.291C116.7 151.367 115.974 150.905 114.991 150.905C114.023 150.905 113.297 151.367 112.813 152.291C112.329 153.215 112.087 154.681 112.087 156.691C112.087 158.656 112.329 160.079 112.813 160.959C113.297 161.824 114.03 162.257 115.013 162.257ZM130.589 148.221C131.894 148.221 133.06 148.573 134.087 149.277C135.114 149.981 135.92 150.971 136.507 152.247C137.094 153.523 137.387 154.997 137.387 156.669C137.387 158.341 137.094 159.807 136.507 161.069C135.935 162.315 135.136 163.283 134.109 163.973C133.082 164.647 131.909 164.985 130.589 164.985C129.269 164.985 128.088 164.647 127.047 163.973C126.02 163.283 125.214 162.315 124.627 161.069C124.055 159.807 123.769 158.348 123.769 156.691C123.769 155.019 124.062 153.545 124.649 152.269C125.236 150.978 126.042 149.981 127.069 149.277C128.11 148.573 129.284 148.221 130.589 148.221ZM130.589 162.257C131.572 162.257 132.298 161.824 132.767 160.959C133.236 160.093 133.471 158.671 133.471 156.691C133.471 154.667 133.229 153.2 132.745 152.291C132.276 151.367 131.55 150.905 130.567 150.905C129.599 150.905 128.873 151.367 128.389 152.291C127.905 153.215 127.663 154.681 127.663 156.691C127.663 158.656 127.905 160.079 128.389 160.959C128.873 161.824 129.606 162.257 130.589 162.257ZM150.17 159.727C150.17 160.049 149.98 160.211 149.598 160.211H144.428C144.252 160.211 144.128 160.181 144.054 160.123C143.996 160.049 143.966 159.932 143.966 159.771V158.165C143.966 157.901 144.076 157.769 144.296 157.769H149.84C149.943 157.769 150.024 157.798 150.082 157.857C150.141 157.915 150.17 157.996 150.17 158.099V159.727ZM169.419 160.079C169.419 161.384 168.972 162.477 168.077 163.357C167.197 164.222 166.009 164.728 164.513 164.875C164.352 164.889 164.249 164.919 164.205 164.963C164.161 165.007 164.139 165.095 164.139 165.227V166.019C164.139 166.195 164.095 166.319 164.007 166.393C163.934 166.481 163.802 166.525 163.611 166.525H162.401C162.093 166.525 161.939 166.378 161.939 166.085V165.205C161.939 165.073 161.917 164.985 161.873 164.941C161.829 164.897 161.748 164.875 161.631 164.875C160.575 164.816 159.651 164.625 158.859 164.303C158.082 163.965 157.348 163.481 156.659 162.851C156.439 162.675 156.329 162.521 156.329 162.389C156.329 162.301 156.366 162.22 156.439 162.147L157.759 160.717C157.891 160.585 158.008 160.519 158.111 160.519C158.199 160.519 158.294 160.57 158.397 160.673C159.321 161.67 160.406 162.249 161.653 162.411L161.785 162.433C161.902 162.433 161.961 162.352 161.961 162.191L161.983 158.429C161.983 158.311 161.961 158.223 161.917 158.165C161.873 158.091 161.785 158.033 161.653 157.989C159.922 157.607 158.676 157.006 157.913 156.185C157.165 155.363 156.791 154.359 156.791 153.171C156.791 151.997 157.209 151 158.045 150.179C158.881 149.343 160.054 148.793 161.565 148.529C161.844 148.455 161.983 148.331 161.983 148.155V147.319C161.983 147.231 162.005 147.157 162.049 147.099C162.108 147.04 162.174 147.011 162.247 147.011H163.743C164.007 147.011 164.139 147.15 164.139 147.429V148.309C164.139 148.397 164.234 148.463 164.425 148.507C165.906 148.815 167.175 149.365 168.231 150.157C168.348 150.23 168.407 150.325 168.407 150.443C168.407 150.516 168.37 150.604 168.297 150.707L167.131 152.203C167.043 152.305 166.955 152.357 166.867 152.357C166.75 152.357 166.632 152.298 166.515 152.181C166.266 151.931 165.95 151.704 165.569 151.499C165.202 151.279 164.814 151.117 164.403 151.015L164.315 150.993C164.183 150.993 164.117 151.059 164.117 151.191V154.909C164.117 154.997 164.132 155.063 164.161 155.107C164.205 155.136 164.278 155.165 164.381 155.195L165.613 155.525C166.772 155.877 167.696 156.456 168.385 157.263C169.074 158.055 169.419 158.993 169.419 160.079ZM161.983 151.169C161.983 150.949 161.888 150.861 161.697 150.905C161.037 151.022 160.531 151.257 160.179 151.609C159.827 151.946 159.651 152.349 159.651 152.819C159.651 153.273 159.798 153.655 160.091 153.963C160.384 154.256 160.868 154.505 161.543 154.711C161.572 154.725 161.616 154.733 161.675 154.733C161.88 154.733 161.983 154.593 161.983 154.315V151.169ZM164.117 162.279C164.117 162.411 164.212 162.462 164.403 162.433C165.063 162.359 165.584 162.154 165.965 161.817C166.346 161.479 166.537 161.069 166.537 160.585C166.537 160.071 166.368 159.646 166.031 159.309C165.694 158.971 165.151 158.7 164.403 158.495C164.374 158.48 164.33 158.473 164.271 158.473C164.168 158.473 164.117 158.553 164.117 158.715V162.279ZM178.379 148.265C179.274 148.265 180.088 148.419 180.821 148.727C181.569 149.035 182.178 149.423 182.647 149.893C183.116 150.347 183.432 150.802 183.593 151.257C183.608 151.301 183.615 151.359 183.615 151.433C183.615 151.579 183.542 151.682 183.395 151.741L180.997 152.511C180.968 152.525 180.931 152.533 180.887 152.533C180.755 152.533 180.652 152.445 180.579 152.269C180.256 151.829 179.934 151.499 179.611 151.279C179.303 151.059 178.892 150.949 178.379 150.949C177.308 150.949 176.472 151.337 175.871 152.115C175.284 152.892 174.991 153.911 174.991 155.173C174.991 155.378 174.998 155.517 175.013 155.591C175.042 155.664 175.101 155.701 175.189 155.701C175.204 155.701 175.299 155.671 175.475 155.613C176.135 155.334 176.692 155.129 177.147 154.997C177.616 154.865 178.166 154.799 178.797 154.799C179.912 154.799 180.894 155.004 181.745 155.415C182.61 155.825 183.278 156.397 183.747 157.131C184.216 157.864 184.451 158.7 184.451 159.639C184.451 160.665 184.165 161.589 183.593 162.411C183.036 163.217 182.273 163.848 181.305 164.303C180.337 164.757 179.259 164.985 178.071 164.985C176.663 164.985 175.438 164.662 174.397 164.017C173.37 163.357 172.578 162.425 172.021 161.223C171.464 160.02 171.185 158.605 171.185 156.977C171.185 155.187 171.478 153.64 172.065 152.335C172.666 151.015 173.51 150.01 174.595 149.321C175.68 148.617 176.942 148.265 178.379 148.265ZM178.005 157.329C177.565 157.329 177.081 157.402 176.553 157.549C176.04 157.695 175.636 157.871 175.343 158.077C175.211 158.165 175.123 158.26 175.079 158.363C175.05 158.451 175.035 158.605 175.035 158.825C175.035 159.822 175.299 160.68 175.827 161.399C176.355 162.103 177.066 162.455 177.961 162.455C178.724 162.455 179.362 162.198 179.875 161.685C180.388 161.171 180.645 160.533 180.645 159.771C180.645 159.037 180.396 158.451 179.897 158.011C179.398 157.556 178.768 157.329 178.005 157.329ZM193.066 148.221C194.371 148.221 195.537 148.573 196.564 149.277C197.59 149.981 198.397 150.971 198.984 152.247C199.57 153.523 199.864 154.997 199.864 156.669C199.864 158.341 199.57 159.807 198.984 161.069C198.412 162.315 197.612 163.283 196.586 163.973C195.559 164.647 194.386 164.985 193.066 164.985C191.746 164.985 190.565 164.647 189.524 163.973C188.497 163.283 187.69 162.315 187.104 161.069C186.532 159.807 186.246 158.348 186.246 156.691C186.246 155.019 186.539 153.545 187.126 152.269C187.712 150.978 188.519 149.981 189.546 149.277C190.587 148.573 191.76 148.221 193.066 148.221ZM193.066 162.257C194.048 162.257 194.774 161.824 195.244 160.959C195.713 160.093 195.948 158.671 195.948 156.691C195.948 154.667 195.706 153.2 195.222 152.291C194.752 151.367 194.026 150.905 193.044 150.905C192.076 150.905 191.35 151.367 190.866 152.291C190.382 153.215 190.14 154.681 190.14 156.691C190.14 158.656 190.382 160.079 190.866 160.959C191.35 161.824 192.083 162.257 193.066 162.257ZM208.642 148.221C209.947 148.221 211.113 148.573 212.14 149.277C213.167 149.981 213.973 150.971 214.56 152.247C215.147 153.523 215.44 154.997 215.44 156.669C215.44 158.341 215.147 159.807 214.56 161.069C213.988 162.315 213.189 163.283 212.162 163.973C211.135 164.647 209.962 164.985 208.642 164.985C207.322 164.985 206.141 164.647 205.1 163.973C204.073 163.283 203.267 162.315 202.68 161.069C202.108 159.807 201.822 158.348 201.822 156.691C201.822 155.019 202.115 153.545 202.702 152.269C203.289 150.978 204.095 149.981 205.122 149.277C206.163 148.573 207.337 148.221 208.642 148.221ZM208.642 162.257C209.625 162.257 210.351 161.824 210.82 160.959C211.289 160.093 211.524 158.671 211.524 156.691C211.524 154.667 211.282 153.2 210.798 152.291C210.329 151.367 209.603 150.905 208.62 150.905C207.652 150.905 206.926 151.367 206.442 152.291C205.958 153.215 205.716 154.681 205.716 156.691C205.716 158.656 205.958 160.079 206.442 160.959C206.926 161.824 207.659 162.257 208.642 162.257Z" fill="white"/>
<path d="M13.652 103.757C13.452 103.757 13.352 103.644 13.352 103.417C13.352 103.311 13.3653 103.231 13.392 103.177L18.372 89.3173C18.4253 89.1706 18.4853 89.0706 18.552 89.0173C18.632 88.9506 18.7453 88.9173 18.892 88.9173H21.892C22.0386 88.9173 22.1653 88.9573 22.272 89.0373C22.3786 89.1173 22.452 89.2239 22.492 89.3573L27.432 103.217C27.4586 103.297 27.472 103.357 27.472 103.397C27.472 103.504 27.4453 103.591 27.392 103.657C27.352 103.724 27.2853 103.757 27.192 103.757H24.252C24.052 103.757 23.9253 103.664 23.872 103.477L22.832 100.557C22.8053 100.477 22.772 100.424 22.732 100.397C22.7053 100.357 22.652 100.337 22.572 100.337H17.692C17.5586 100.337 17.472 100.404 17.432 100.537L16.372 103.497C16.292 103.671 16.152 103.757 15.952 103.757H13.652ZM21.752 97.6773C21.8853 97.6773 21.952 97.6239 21.952 97.5173C21.952 97.4373 21.9453 97.3773 21.932 97.3373L20.252 92.6573C20.212 92.5773 20.1653 92.5373 20.112 92.5373C20.072 92.5373 20.032 92.5839 19.992 92.6773L18.292 97.3373C18.2653 97.4173 18.252 97.4773 18.252 97.5173C18.252 97.6239 18.3253 97.6773 18.472 97.6773H21.752ZM37.7879 93.1573C37.9079 93.1573 37.9946 93.2039 38.0479 93.2973C38.1012 93.3906 38.1079 93.4973 38.0679 93.6173L34.1079 103.337C33.9879 103.617 33.7746 103.757 33.4679 103.757H32.0479C31.7412 103.757 31.5279 103.617 31.4079 103.337L27.4679 93.6373C27.4412 93.5573 27.4279 93.5039 27.4279 93.4773C27.4279 93.3839 27.4612 93.3106 27.5279 93.2573C27.5946 93.1906 27.6746 93.1573 27.7679 93.1573H30.3079C30.5346 93.1573 30.6812 93.2706 30.7479 93.4973L33.0479 99.3973C33.1146 99.5173 33.1679 99.5773 33.2079 99.5773C33.2612 99.5773 33.3146 99.5106 33.3679 99.3773L35.6279 93.4773C35.7212 93.2639 35.8679 93.1573 36.0679 93.1573H37.7879ZM41.6873 99.3573C41.6873 100.104 41.9339 100.711 42.4273 101.177C42.9339 101.631 43.5606 101.857 44.3073 101.857C44.7873 101.857 45.2273 101.757 45.6273 101.557C46.0406 101.344 46.4539 100.997 46.8673 100.517C46.9206 100.464 46.9739 100.437 47.0273 100.437C47.0673 100.437 47.1339 100.457 47.2273 100.497L48.6673 101.097C48.7606 101.137 48.8073 101.204 48.8073 101.297C48.8073 101.364 48.7806 101.431 48.7273 101.497C48.0873 102.404 47.4006 103.044 46.6673 103.417C45.9339 103.777 45.0206 103.957 43.9273 103.957C42.9006 103.957 41.9739 103.731 41.1473 103.277C40.3206 102.824 39.6739 102.197 39.2073 101.397C38.7406 100.584 38.5073 99.6573 38.5073 98.6173C38.5073 97.4973 38.7473 96.5106 39.2273 95.6573C39.7073 94.7906 40.3539 94.1239 41.1673 93.6573C41.9939 93.1906 42.8939 92.9573 43.8673 92.9573C44.8806 92.9573 45.7806 93.1839 46.5673 93.6373C47.3539 94.0773 47.9673 94.7173 48.4073 95.5573C48.8473 96.3973 49.0673 97.3973 49.0673 98.5573C49.0673 98.7306 49.0473 98.8506 49.0073 98.9173C48.9806 98.9839 48.8873 99.0239 48.7273 99.0373H41.9273C41.7673 99.0373 41.6873 99.1439 41.6873 99.3573ZM45.7073 97.3573C45.8539 97.3573 45.9473 97.3439 45.9873 97.3173C46.0273 97.2773 46.0473 97.1973 46.0473 97.0773C46.0473 96.7306 45.9673 96.3839 45.8073 96.0373C45.6473 95.6906 45.4139 95.4039 45.1073 95.1773C44.8006 94.9506 44.4273 94.8373 43.9873 94.8373C43.3206 94.8373 42.7739 95.0706 42.3473 95.5373C41.9206 96.0039 41.7139 96.6039 41.7273 97.3373L45.7073 97.3573ZM51.126 103.757C50.846 103.757 50.706 103.624 50.706 103.357V93.5373C50.706 93.2839 50.8127 93.1573 51.026 93.1573H53.366C53.5794 93.1573 53.686 93.2706 53.686 93.4973V94.6773C53.686 94.7306 53.6994 94.7706 53.726 94.7973C53.7527 94.8239 53.7794 94.8373 53.806 94.8373C53.846 94.8373 53.8994 94.8039 53.966 94.7373C54.366 94.2039 54.8394 93.7773 55.386 93.4573C55.9327 93.1239 56.4527 92.9573 56.946 92.9573C57.426 92.9573 57.666 93.0706 57.666 93.2973V95.6173C57.666 95.7106 57.6394 95.7839 57.586 95.8373C57.5327 95.8906 57.4594 95.9039 57.366 95.8773C56.9394 95.7706 56.4727 95.7173 55.966 95.7173C55.6327 95.7173 55.2927 95.8039 54.946 95.9773C54.6127 96.1373 54.3327 96.3573 54.106 96.6373C53.8927 96.9039 53.786 97.1773 53.786 97.4573V103.297C53.786 103.604 53.6127 103.757 53.266 103.757H51.126ZM64.9249 102.737C64.0449 103.551 62.9983 103.957 61.7849 103.957C60.7849 103.957 59.9916 103.691 59.4049 103.157C58.8183 102.611 58.5249 101.904 58.5249 101.037C58.5249 99.9173 59.0383 99.0173 60.0649 98.3373C61.0916 97.6573 62.5049 97.2973 64.3049 97.2573L65.0249 97.1973C65.1049 97.1973 65.1716 97.1773 65.2249 97.1373C65.2916 97.0839 65.3249 97.0106 65.3249 96.9173V96.4973C65.3249 95.9773 65.1783 95.5773 64.8849 95.2973C64.5916 95.0173 64.1716 94.8773 63.6249 94.8773C62.6916 94.8773 61.9983 95.2773 61.5449 96.0773C61.4916 96.2106 61.4049 96.2773 61.2849 96.2773C61.2183 96.2773 61.1583 96.2706 61.1049 96.2573L59.1049 95.7973C58.9849 95.7706 58.9249 95.6973 58.9249 95.5773C58.9249 95.4973 58.9516 95.3973 59.0049 95.2773C59.3249 94.5039 59.8916 93.9239 60.7049 93.5373C61.5316 93.1506 62.5516 92.9573 63.7649 92.9573C65.3516 92.9573 66.4983 93.2506 67.2049 93.8373C67.9116 94.4106 68.2649 95.2306 68.2649 96.2973V103.317C68.2649 103.477 68.2383 103.591 68.1849 103.657C68.1316 103.724 68.0316 103.757 67.8849 103.757H65.8249C65.6916 103.757 65.5916 103.711 65.5249 103.617C65.4716 103.524 65.4316 103.384 65.4049 103.197L65.3849 102.757C65.3716 102.637 65.3183 102.577 65.2249 102.577C65.1716 102.577 65.0716 102.631 64.9249 102.737ZM65.3249 99.0373C65.3249 98.9173 65.3049 98.8306 65.2649 98.7773C65.2249 98.7239 65.1449 98.6973 65.0249 98.6973L64.4649 98.7373C63.6916 98.7773 63.0049 98.9639 62.4049 99.2973C61.8183 99.6173 61.5249 100.064 61.5249 100.637C61.5249 101.037 61.6649 101.357 61.9449 101.597C62.2249 101.824 62.6116 101.937 63.1049 101.937C63.7183 101.937 64.2383 101.757 64.6649 101.397C65.1049 101.051 65.3249 100.697 65.3249 100.337V99.0373ZM81.0745 92.6973C81.3411 92.6973 81.4745 92.8439 81.4745 93.1373V94.4973C81.4745 94.8706 81.3211 95.0239 81.0145 94.9573C80.8145 94.9173 80.6211 94.8973 80.4345 94.8973C80.3278 94.8973 80.2078 94.9106 80.0745 94.9373C79.7278 94.9906 79.5945 95.1439 79.6745 95.3973C79.7945 95.7573 79.8545 96.0573 79.8545 96.2973C79.8545 96.9106 79.6678 97.4639 79.2945 97.9573C78.9345 98.4506 78.3878 98.8439 77.6545 99.1373C76.9345 99.4306 76.0611 99.5773 75.0345 99.5773C74.2878 99.5773 73.7345 99.6373 73.3745 99.7573C73.0278 99.8773 72.8545 100.037 72.8545 100.237C72.8545 100.411 72.9478 100.537 73.1345 100.617C73.3345 100.684 73.6611 100.731 74.1145 100.757L76.9745 100.917C78.2945 100.997 79.2745 101.291 79.9145 101.797C80.5678 102.304 80.8945 102.977 80.8945 103.817C80.8945 104.857 80.4011 105.691 79.4145 106.317C78.4278 106.944 77.0278 107.257 75.2145 107.257C71.3345 107.257 69.3945 106.397 69.3945 104.677C69.3945 104.251 69.5611 103.891 69.8945 103.597C70.2278 103.291 70.7011 103.024 71.3145 102.797C71.3945 102.771 71.4345 102.737 71.4345 102.697C71.4345 102.657 71.3945 102.617 71.3145 102.577C70.5411 102.204 70.1545 101.711 70.1545 101.097C70.1545 100.737 70.3278 100.404 70.6745 100.097C71.0345 99.7773 71.5078 99.5039 72.0945 99.2773C72.2545 99.1973 72.2678 99.1173 72.1345 99.0373C70.8411 98.4373 70.1945 97.5306 70.1945 96.3173C70.1945 95.3039 70.6278 94.4973 71.4945 93.8973C72.3745 93.2973 73.6278 92.9973 75.2545 92.9973C76.6278 92.9973 77.6945 93.2973 78.4545 93.8973C78.5478 93.9639 78.6345 93.9973 78.7145 93.9973C78.8211 93.9973 78.9145 93.9506 78.9945 93.8573C79.2478 93.5506 79.5811 93.2839 79.9945 93.0573C80.4078 92.8173 80.7678 92.6973 81.0745 92.6973ZM75.0145 98.0573C75.6945 98.0573 76.2011 97.9039 76.5345 97.5973C76.8811 97.2773 77.0545 96.8639 77.0545 96.3573C77.0545 95.7973 76.8811 95.3573 76.5345 95.0373C76.2011 94.7039 75.6945 94.5373 75.0145 94.5373C74.3745 94.5373 73.8678 94.7039 73.4945 95.0373C73.1345 95.3706 72.9545 95.8106 72.9545 96.3573C72.9545 96.8639 73.1345 97.2773 73.4945 97.5973C73.8678 97.9039 74.3745 98.0573 75.0145 98.0573ZM73.5345 103.157C73.1211 103.131 72.7478 103.231 72.4145 103.457C72.0945 103.671 71.9345 103.944 71.9345 104.277C71.9345 104.771 72.2078 105.144 72.7545 105.397C73.3011 105.651 74.1878 105.777 75.4145 105.777C76.3078 105.777 76.9945 105.651 77.4745 105.397C77.9545 105.157 78.1945 104.811 78.1945 104.357C78.1945 104.051 78.0611 103.804 77.7945 103.617C77.5278 103.431 77.1345 103.324 76.6145 103.297L73.5345 103.157ZM85.281 99.3573C85.281 100.104 85.5277 100.711 86.021 101.177C86.5277 101.631 87.1544 101.857 87.901 101.857C88.381 101.857 88.821 101.757 89.221 101.557C89.6344 101.344 90.0477 100.997 90.461 100.517C90.5144 100.464 90.5677 100.437 90.621 100.437C90.661 100.437 90.7277 100.457 90.821 100.497L92.261 101.097C92.3544 101.137 92.401 101.204 92.401 101.297C92.401 101.364 92.3744 101.431 92.321 101.497C91.681 102.404 90.9944 103.044 90.261 103.417C89.5277 103.777 88.6144 103.957 87.521 103.957C86.4944 103.957 85.5677 103.731 84.741 103.277C83.9144 102.824 83.2677 102.197 82.801 101.397C82.3344 100.584 82.101 99.6573 82.101 98.6173C82.101 97.4973 82.341 96.5106 82.821 95.6573C83.301 94.7906 83.9477 94.1239 84.761 93.6573C85.5877 93.1906 86.4877 92.9573 87.461 92.9573C88.4744 92.9573 89.3744 93.1839 90.161 93.6373C90.9477 94.0773 91.561 94.7173 92.001 95.5573C92.441 96.3973 92.661 97.3973 92.661 98.5573C92.661 98.7306 92.641 98.8506 92.601 98.9173C92.5744 98.9839 92.481 99.0239 92.321 99.0373H85.521C85.361 99.0373 85.281 99.1439 85.281 99.3573ZM89.301 97.3573C89.4477 97.3573 89.541 97.3439 89.581 97.3173C89.621 97.2773 89.641 97.1973 89.641 97.0773C89.641 96.7306 89.561 96.3839 89.401 96.0373C89.241 95.6906 89.0077 95.4039 88.701 95.1773C88.3944 94.9506 88.021 94.8373 87.581 94.8373C86.9144 94.8373 86.3677 95.0706 85.941 95.5373C85.5144 96.0039 85.3077 96.6039 85.321 97.3373L89.301 97.3573ZM110.761 103.217C110.788 103.297 110.801 103.357 110.801 103.397C110.801 103.504 110.768 103.591 110.701 103.657C110.634 103.724 110.554 103.757 110.461 103.757H107.521C107.294 103.757 107.148 103.637 107.081 103.397L104.921 97.7973C104.881 97.6906 104.821 97.6173 104.741 97.5773C104.661 97.5373 104.534 97.5173 104.361 97.5173H102.461C102.381 97.5173 102.321 97.5439 102.281 97.5973C102.241 97.6373 102.221 97.6839 102.221 97.7373V103.277C102.221 103.451 102.174 103.577 102.081 103.657C102.001 103.724 101.868 103.757 101.681 103.757H99.1409C98.9809 103.757 98.8675 103.724 98.8009 103.657C98.7475 103.591 98.7209 103.491 98.7209 103.357V89.2973C98.7209 89.0439 98.8275 88.9173 99.0409 88.9173H105.281C107.081 88.9173 108.474 89.2706 109.461 89.9773C110.448 90.6839 110.941 91.6906 110.941 92.9973C110.941 93.9706 110.681 94.8039 110.161 95.4973C109.641 96.1773 108.988 96.6573 108.201 96.9373C108.094 96.9773 108.068 97.0773 108.121 97.2373L110.761 103.217ZM104.961 95.1573C105.734 95.1573 106.321 94.9973 106.721 94.6773C107.121 94.3439 107.321 93.8639 107.321 93.2373C107.321 92.5973 107.114 92.1106 106.701 91.7773C106.301 91.4306 105.754 91.2573 105.061 91.2573H102.601C102.454 91.2573 102.354 91.2839 102.301 91.3373C102.248 91.3773 102.221 91.4573 102.221 91.5773V94.8173C102.221 94.9373 102.241 95.0239 102.281 95.0773C102.321 95.1306 102.394 95.1573 102.501 95.1573H104.961ZM118.694 102.737C117.814 103.551 116.768 103.957 115.554 103.957C114.554 103.957 113.761 103.691 113.174 103.157C112.588 102.611 112.294 101.904 112.294 101.037C112.294 99.9173 112.808 99.0173 113.834 98.3373C114.861 97.6573 116.274 97.2973 118.074 97.2573L118.794 97.1973C118.874 97.1973 118.941 97.1773 118.994 97.1373C119.061 97.0839 119.094 97.0106 119.094 96.9173V96.4973C119.094 95.9773 118.948 95.5773 118.654 95.2973C118.361 95.0173 117.941 94.8773 117.394 94.8773C116.461 94.8773 115.768 95.2773 115.314 96.0773C115.261 96.2106 115.174 96.2773 115.054 96.2773C114.988 96.2773 114.928 96.2706 114.874 96.2573L112.874 95.7973C112.754 95.7706 112.694 95.6973 112.694 95.5773C112.694 95.4973 112.721 95.3973 112.774 95.2773C113.094 94.5039 113.661 93.9239 114.474 93.5373C115.301 93.1506 116.321 92.9573 117.534 92.9573C119.121 92.9573 120.268 93.2506 120.974 93.8373C121.681 94.4106 122.034 95.2306 122.034 96.2973V103.317C122.034 103.477 122.008 103.591 121.954 103.657C121.901 103.724 121.801 103.757 121.654 103.757H119.594C119.461 103.757 119.361 103.711 119.294 103.617C119.241 103.524 119.201 103.384 119.174 103.197L119.154 102.757C119.141 102.637 119.088 102.577 118.994 102.577C118.941 102.577 118.841 102.631 118.694 102.737ZM119.094 99.0373C119.094 98.9173 119.074 98.8306 119.034 98.7773C118.994 98.7239 118.914 98.6973 118.794 98.6973L118.234 98.7373C117.461 98.7773 116.774 98.9639 116.174 99.2973C115.588 99.6173 115.294 100.064 115.294 100.637C115.294 101.037 115.434 101.357 115.714 101.597C115.994 101.824 116.381 101.937 116.874 101.937C117.488 101.937 118.008 101.757 118.434 101.397C118.874 101.051 119.094 100.697 119.094 100.337V99.0373ZM124.544 103.757C124.397 103.757 124.291 103.731 124.224 103.677C124.157 103.611 124.124 103.504 124.124 103.357V93.5373C124.124 93.2839 124.231 93.1573 124.444 93.1573H126.864C127.064 93.1573 127.164 93.2706 127.164 93.4973V94.4773C127.164 94.5839 127.197 94.6373 127.264 94.6373C127.304 94.6373 127.351 94.6106 127.404 94.5573C127.951 94.0373 128.497 93.6439 129.044 93.3773C129.591 93.0973 130.171 92.9573 130.784 92.9573C131.757 92.9573 132.524 93.2439 133.084 93.8173C133.657 94.3906 133.944 95.1573 133.944 96.1173V103.277C133.944 103.597 133.784 103.757 133.464 103.757H131.244C131.097 103.757 130.997 103.731 130.944 103.677C130.891 103.611 130.864 103.504 130.864 103.357V96.5973C130.864 96.1439 130.737 95.7973 130.484 95.5573C130.244 95.3039 129.884 95.1773 129.404 95.1773C129.004 95.1773 128.631 95.2773 128.284 95.4773C127.951 95.6773 127.591 95.9906 127.204 96.4173V103.297C127.204 103.457 127.164 103.577 127.084 103.657C127.004 103.724 126.871 103.757 126.684 103.757H124.544ZM146.758 92.6973C147.025 92.6973 147.158 92.8439 147.158 93.1373V94.4973C147.158 94.8706 147.005 95.0239 146.698 94.9573C146.498 94.9173 146.305 94.8973 146.118 94.8973C146.011 94.8973 145.891 94.9106 145.758 94.9373C145.411 94.9906 145.278 95.1439 145.358 95.3973C145.478 95.7573 145.538 96.0573 145.538 96.2973C145.538 96.9106 145.351 97.4639 144.978 97.9573C144.618 98.4506 144.071 98.8439 143.338 99.1373C142.618 99.4306 141.745 99.5773 140.718 99.5773C139.971 99.5773 139.418 99.6373 139.058 99.7573C138.711 99.8773 138.538 100.037 138.538 100.237C138.538 100.411 138.631 100.537 138.818 100.617C139.018 100.684 139.345 100.731 139.798 100.757L142.658 100.917C143.978 100.997 144.958 101.291 145.598 101.797C146.251 102.304 146.578 102.977 146.578 103.817C146.578 104.857 146.085 105.691 145.098 106.317C144.111 106.944 142.711 107.257 140.898 107.257C137.018 107.257 135.078 106.397 135.078 104.677C135.078 104.251 135.245 103.891 135.578 103.597C135.911 103.291 136.385 103.024 136.998 102.797C137.078 102.771 137.118 102.737 137.118 102.697C137.118 102.657 137.078 102.617 136.998 102.577C136.225 102.204 135.838 101.711 135.838 101.097C135.838 100.737 136.011 100.404 136.358 100.097C136.718 99.7773 137.191 99.5039 137.778 99.2773C137.938 99.1973 137.951 99.1173 137.818 99.0373C136.525 98.4373 135.878 97.5306 135.878 96.3173C135.878 95.3039 136.311 94.4973 137.178 93.8973C138.058 93.2973 139.311 92.9973 140.938 92.9973C142.311 92.9973 143.378 93.2973 144.138 93.8973C144.231 93.9639 144.318 93.9973 144.398 93.9973C144.505 93.9973 144.598 93.9506 144.678 93.8573C144.931 93.5506 145.265 93.2839 145.678 93.0573C146.091 92.8173 146.451 92.6973 146.758 92.6973ZM140.698 98.0573C141.378 98.0573 141.885 97.9039 142.218 97.5973C142.565 97.2773 142.738 96.8639 142.738 96.3573C142.738 95.7973 142.565 95.3573 142.218 95.0373C141.885 94.7039 141.378 94.5373 140.698 94.5373C140.058 94.5373 139.551 94.7039 139.178 95.0373C138.818 95.3706 138.638 95.8106 138.638 96.3573C138.638 96.8639 138.818 97.2773 139.178 97.5973C139.551 97.9039 140.058 98.0573 140.698 98.0573ZM139.218 103.157C138.805 103.131 138.431 103.231 138.098 103.457C137.778 103.671 137.618 103.944 137.618 104.277C137.618 104.771 137.891 105.144 138.438 105.397C138.985 105.651 139.871 105.777 141.098 105.777C141.991 105.777 142.678 105.651 143.158 105.397C143.638 105.157 143.878 104.811 143.878 104.357C143.878 104.051 143.745 103.804 143.478 103.617C143.211 103.431 142.818 103.324 142.298 103.297L139.218 103.157ZM150.965 99.3573C150.965 100.104 151.211 100.711 151.705 101.177C152.211 101.631 152.838 101.857 153.585 101.857C154.065 101.857 154.505 101.757 154.905 101.557C155.318 101.344 155.731 100.997 156.145 100.517C156.198 100.464 156.251 100.437 156.305 100.437C156.345 100.437 156.411 100.457 156.505 100.497L157.945 101.097C158.038 101.137 158.085 101.204 158.085 101.297C158.085 101.364 158.058 101.431 158.005 101.497C157.365 102.404 156.678 103.044 155.945 103.417C155.211 103.777 154.298 103.957 153.205 103.957C152.178 103.957 151.251 103.731 150.425 103.277C149.598 102.824 148.951 102.197 148.485 101.397C148.018 100.584 147.785 99.6573 147.785 98.6173C147.785 97.4973 148.025 96.5106 148.505 95.6573C148.985 94.7906 149.631 94.1239 150.445 93.6573C151.271 93.1906 152.171 92.9573 153.145 92.9573C154.158 92.9573 155.058 93.1839 155.845 93.6373C156.631 94.0773 157.245 94.7173 157.685 95.5573C158.125 96.3973 158.345 97.3973 158.345 98.5573C158.345 98.7306 158.325 98.8506 158.285 98.9173C158.258 98.9839 158.165 99.0239 158.005 99.0373H151.205C151.045 99.0373 150.965 99.1439 150.965 99.3573ZM154.985 97.3573C155.131 97.3573 155.225 97.3439 155.265 97.3173C155.305 97.2773 155.325 97.1973 155.325 97.0773C155.325 96.7306 155.245 96.3839 155.085 96.0373C154.925 95.6906 154.691 95.4039 154.385 95.1773C154.078 94.9506 153.705 94.8373 153.265 94.8373C152.598 94.8373 152.051 95.0706 151.625 95.5373C151.198 96.0039 150.991 96.6039 151.005 97.3373L154.985 97.3573ZM168.984 103.957C167.931 103.957 166.998 103.731 166.184 103.277C165.384 102.811 164.758 102.164 164.304 101.337C163.851 100.511 163.624 99.5706 163.624 98.5173C163.624 97.4239 163.851 96.4573 164.304 95.6173C164.771 94.7773 165.411 94.1239 166.224 93.6573C167.051 93.1906 167.978 92.9573 169.004 92.9573C170.058 92.9573 170.991 93.1973 171.804 93.6773C172.618 94.1439 173.244 94.7973 173.684 95.6373C174.138 96.4773 174.364 97.4306 174.364 98.4973C174.364 99.5506 174.138 100.491 173.684 101.317C173.231 102.144 172.598 102.791 171.784 103.257C170.971 103.724 170.038 103.957 168.984 103.957ZM169.004 101.917C169.738 101.917 170.291 101.631 170.664 101.057C171.051 100.471 171.244 99.6039 171.244 98.4573C171.244 97.2973 171.051 96.4239 170.664 95.8373C170.291 95.2373 169.738 94.9373 169.004 94.9373C168.271 94.9373 167.711 95.2373 167.324 95.8373C166.938 96.4239 166.744 97.2973 166.744 98.4573C166.744 99.5906 166.938 100.451 167.324 101.037C167.711 101.624 168.271 101.917 169.004 101.917ZM181.905 93.1573C182.025 93.1573 182.118 93.1906 182.185 93.2573C182.252 93.3239 182.285 93.4039 182.285 93.4973V94.9773C182.285 95.1773 182.172 95.2773 181.945 95.2773H180.285C180.152 95.2773 180.085 95.3506 180.085 95.4973V103.377C180.085 103.631 179.978 103.757 179.765 103.757H177.305C177.105 103.757 177.005 103.644 177.005 103.417V95.4573C177.005 95.3373 176.952 95.2773 176.845 95.2773H175.405C175.165 95.2773 175.045 95.1773 175.045 94.9773V93.4973C175.045 93.4039 175.078 93.3239 175.145 93.2573C175.212 93.1906 175.305 93.1573 175.425 93.1573H176.765C176.858 93.1573 176.918 93.1373 176.945 93.0973C176.985 93.0439 177.005 92.9639 177.005 92.8573V91.6373C177.005 90.7839 177.258 90.1173 177.765 89.6373C178.272 89.1573 178.985 88.9173 179.905 88.9173H181.925C182.218 88.9173 182.365 89.0573 182.365 89.3373L182.385 90.6373C182.385 90.8639 182.285 90.9773 182.085 90.9773H181.005C180.712 90.9773 180.472 91.0906 180.285 91.3173C180.098 91.5306 180.005 91.8106 180.005 92.1573V92.9373C180.005 93.0839 180.085 93.1573 180.245 93.1573H181.905ZM188.213 89.2973C188.213 89.0439 188.32 88.9173 188.533 88.9173H198.613C198.813 88.9173 198.913 89.0306 198.913 89.2573L198.893 91.0573C198.893 91.3373 198.753 91.4773 198.473 91.4773H192.093C191.84 91.4773 191.713 91.5839 191.713 91.7973V94.6973C191.713 94.9239 191.813 95.0373 192.013 95.0373H196.253C196.48 95.0373 196.593 95.1439 196.593 95.3573V97.2773C196.593 97.4639 196.486 97.5573 196.273 97.5573H191.993C191.806 97.5573 191.713 97.6373 191.713 97.7973V100.937C191.713 101.031 191.726 101.097 191.753 101.137C191.793 101.177 191.853 101.197 191.933 101.197H198.773C199.013 101.197 199.133 101.297 199.133 101.497V103.397C199.133 103.637 199 103.757 198.733 103.757H188.653C188.493 103.757 188.38 103.724 188.313 103.657C188.246 103.591 188.213 103.484 188.213 103.337V89.2973ZM210.943 103.077C211.103 103.291 211.183 103.451 211.183 103.557C211.183 103.691 211.057 103.757 210.803 103.757H208.243C207.923 103.757 207.697 103.651 207.563 103.437L205.503 100.537C205.397 100.364 205.317 100.277 205.263 100.277C205.21 100.277 205.13 100.357 205.023 100.517L202.923 103.437C202.79 103.651 202.57 103.757 202.263 103.757H200.623C200.303 103.757 200.143 103.664 200.143 103.477C200.143 103.331 200.223 103.157 200.383 102.957L203.663 98.7373C203.743 98.6173 203.783 98.5239 203.783 98.4573C203.783 98.3639 203.737 98.2506 203.643 98.1173L200.403 93.7173C200.35 93.6506 200.323 93.5706 200.323 93.4773C200.323 93.3973 200.357 93.3239 200.423 93.2573C200.49 93.1906 200.583 93.1573 200.703 93.1573H203.143C203.317 93.1573 203.443 93.1839 203.523 93.2373C203.617 93.2773 203.703 93.3573 203.783 93.4773L205.643 96.0973C205.71 96.2039 205.77 96.2573 205.823 96.2573C205.863 96.2573 205.917 96.2039 205.983 96.0973L207.743 93.4773C207.823 93.3573 207.903 93.2773 207.983 93.2373C208.077 93.1839 208.217 93.1573 208.403 93.1573H210.203C210.43 93.1573 210.543 93.2239 210.543 93.3573C210.543 93.4239 210.503 93.5106 210.423 93.6173L207.443 97.6573C207.363 97.7506 207.323 97.8439 207.323 97.9373C207.323 98.0039 207.37 98.1106 207.463 98.2573L210.943 103.077ZM215.3 93.1573C215.46 93.1573 215.573 93.1906 215.64 93.2573C215.706 93.3106 215.74 93.4106 215.74 93.5573V94.1573C215.74 94.2506 215.766 94.2973 215.82 94.2973C215.86 94.2973 215.926 94.2639 216.02 94.1973C216.433 93.8106 216.853 93.5106 217.28 93.2973C217.72 93.0706 218.273 92.9573 218.94 92.9573C220.153 92.9573 221.14 93.4173 221.9 94.3373C222.66 95.2573 223.04 96.6039 223.04 98.3773C223.04 100.217 222.646 101.611 221.86 102.557C221.086 103.491 220.06 103.957 218.78 103.957C217.726 103.957 216.833 103.617 216.1 102.937C215.966 102.831 215.873 102.777 215.82 102.777C215.753 102.777 215.72 102.871 215.72 103.057V106.717C215.72 106.944 215.62 107.057 215.42 107.057H212.96C212.866 107.057 212.786 107.024 212.72 106.957C212.666 106.904 212.64 106.817 212.64 106.697V93.5973C212.64 93.4373 212.673 93.3239 212.74 93.2573C212.82 93.1906 212.94 93.1573 213.1 93.1573H215.3ZM215.72 101.017C216.013 101.337 216.313 101.584 216.62 101.757C216.926 101.931 217.266 102.017 217.64 102.017C219.16 102.017 219.92 100.784 219.92 98.3173C219.92 97.0906 219.726 96.2173 219.34 95.6973C218.953 95.1639 218.406 94.8973 217.7 94.8973C217.153 94.8973 216.686 95.0639 216.3 95.3973C215.913 95.7173 215.72 96.0839 215.72 96.4973V101.017ZM227.527 99.3573C227.527 100.104 227.774 100.711 228.267 101.177C228.774 101.631 229.4 101.857 230.147 101.857C230.627 101.857 231.067 101.757 231.467 101.557C231.88 101.344 232.294 100.997 232.707 100.517C232.76 100.464 232.814 100.437 232.867 100.437C232.907 100.437 232.974 100.457 233.067 100.497L234.507 101.097C234.6 101.137 234.647 101.204 234.647 101.297C234.647 101.364 234.62 101.431 234.567 101.497C233.927 102.404 233.24 103.044 232.507 103.417C231.774 103.777 230.86 103.957 229.767 103.957C228.74 103.957 227.814 103.731 226.987 103.277C226.16 102.824 225.514 102.197 225.047 101.397C224.58 100.584 224.347 99.6573 224.347 98.6173C224.347 97.4973 224.587 96.5106 225.067 95.6573C225.547 94.7906 226.194 94.1239 227.007 93.6573C227.834 93.1906 228.734 92.9573 229.707 92.9573C230.72 92.9573 231.62 93.1839 232.407 93.6373C233.194 94.0773 233.807 94.7173 234.247 95.5573C234.687 96.3973 234.907 97.3973 234.907 98.5573C234.907 98.7306 234.887 98.8506 234.847 98.9173C234.82 98.9839 234.727 99.0239 234.567 99.0373H227.767C227.607 99.0373 227.527 99.1439 227.527 99.3573ZM231.547 97.3573C231.694 97.3573 231.787 97.3439 231.827 97.3173C231.867 97.2773 231.887 97.1973 231.887 97.0773C231.887 96.7306 231.807 96.3839 231.647 96.0373C231.487 95.6906 231.254 95.4039 230.947 95.1773C230.64 94.9506 230.267 94.8373 229.827 94.8373C229.16 94.8373 228.614 95.0706 228.187 95.5373C227.76 96.0039 227.554 96.6039 227.567 97.3373L231.547 97.3573ZM236.966 103.757C236.819 103.757 236.713 103.731 236.646 103.677C236.579 103.611 236.546 103.504 236.546 103.357V93.5373C236.546 93.2839 236.653 93.1573 236.866 93.1573H239.286C239.486 93.1573 239.586 93.2706 239.586 93.4973V94.4773C239.586 94.5839 239.619 94.6373 239.686 94.6373C239.726 94.6373 239.773 94.6106 239.826 94.5573C240.373 94.0373 240.919 93.6439 241.466 93.3773C242.013 93.0973 242.593 92.9573 243.206 92.9573C244.179 92.9573 244.946 93.2439 245.506 93.8173C246.079 94.3906 246.366 95.1573 246.366 96.1173V103.277C246.366 103.597 246.206 103.757 245.886 103.757H243.666C243.519 103.757 243.419 103.731 243.366 103.677C243.313 103.611 243.286 103.504 243.286 103.357V96.5973C243.286 96.1439 243.159 95.7973 242.906 95.5573C242.666 95.3039 242.306 95.1773 241.826 95.1773C241.426 95.1773 241.053 95.2773 240.706 95.4773C240.373 95.6773 240.013 95.9906 239.626 96.4173V103.297C239.626 103.457 239.586 103.577 239.506 103.657C239.426 103.724 239.293 103.757 239.106 103.757H236.966ZM255 95.9173C254.453 95.1973 253.673 94.8373 252.66 94.8373C252.153 94.8373 251.733 94.9373 251.4 95.1373C251.067 95.3239 250.9 95.5839 250.9 95.9173C250.9 96.1039 250.973 96.2773 251.12 96.4373C251.28 96.5839 251.58 96.7106 252.02 96.8173L254.32 97.3773C255.373 97.6306 256.147 98.0373 256.64 98.5973C257.133 99.1439 257.38 99.7906 257.38 100.537C257.38 101.591 256.94 102.424 256.06 103.037C255.18 103.651 254.027 103.957 252.6 103.957C251.453 103.957 250.46 103.757 249.62 103.357C248.78 102.944 248.187 102.411 247.84 101.757C247.773 101.664 247.74 101.577 247.74 101.497C247.74 101.404 247.787 101.337 247.88 101.297L249.24 100.597C249.347 100.544 249.44 100.517 249.52 100.517C249.6 100.517 249.673 100.551 249.74 100.617C250.033 101.031 250.387 101.364 250.8 101.617C251.227 101.857 251.787 101.977 252.48 101.977C253.107 101.977 253.613 101.884 254 101.697C254.4 101.511 254.6 101.237 254.6 100.877C254.6 100.637 254.5 100.437 254.3 100.277C254.1 100.117 253.76 99.9773 253.28 99.8573L251.22 99.4173C249.193 98.9773 248.18 97.9706 248.18 96.3973C248.18 95.7306 248.36 95.1373 248.72 94.6173C249.093 94.0973 249.62 93.6906 250.3 93.3973C250.98 93.1039 251.78 92.9573 252.7 92.9573C253.673 92.9573 254.533 93.1373 255.28 93.4973C256.04 93.8573 256.587 94.3106 256.92 94.8573C257 94.9639 257.04 95.0573 257.04 95.1373C257.04 95.2173 256.993 95.2839 256.9 95.3373L255.46 96.0373C255.42 96.0639 255.367 96.0773 255.3 96.0773C255.18 96.0773 255.08 96.0239 255 95.9173ZM261.765 99.3573C261.765 100.104 262.012 100.711 262.505 101.177C263.012 101.631 263.639 101.857 264.385 101.857C264.865 101.857 265.305 101.757 265.705 101.557C266.119 101.344 266.532 100.997 266.945 100.517C266.999 100.464 267.052 100.437 267.105 100.437C267.145 100.437 267.212 100.457 267.305 100.497L268.745 101.097C268.839 101.137 268.885 101.204 268.885 101.297C268.885 101.364 268.859 101.431 268.805 101.497C268.165 102.404 267.479 103.044 266.745 103.417C266.012 103.777 265.099 103.957 264.005 103.957C262.979 103.957 262.052 103.731 261.225 103.277C260.399 102.824 259.752 102.197 259.285 101.397C258.819 100.584 258.585 99.6573 258.585 98.6173C258.585 97.4973 258.825 96.5106 259.305 95.6573C259.785 94.7906 260.432 94.1239 261.245 93.6573C262.072 93.1906 262.972 92.9573 263.945 92.9573C264.959 92.9573 265.859 93.1839 266.645 93.6373C267.432 94.0773 268.045 94.7173 268.485 95.5573C268.925 96.3973 269.145 97.3973 269.145 98.5573C269.145 98.7306 269.125 98.8506 269.085 98.9173C269.059 98.9839 268.965 99.0239 268.805 99.0373H262.005C261.845 99.0373 261.765 99.1439 261.765 99.3573ZM265.785 97.3573C265.932 97.3573 266.025 97.3439 266.065 97.3173C266.105 97.2773 266.125 97.1973 266.125 97.0773C266.125 96.7306 266.045 96.3839 265.885 96.0373C265.725 95.6906 265.492 95.4039 265.185 95.1773C264.879 94.9506 264.505 94.8373 264.065 94.8373C263.399 94.8373 262.852 95.0706 262.425 95.5373C261.999 96.0039 261.792 96.6039 261.805 97.3373L265.785 97.3573ZM277.324 95.9173C276.777 95.1973 275.997 94.8373 274.984 94.8373C274.477 94.8373 274.057 94.9373 273.724 95.1373C273.391 95.3239 273.224 95.5839 273.224 95.9173C273.224 96.1039 273.297 96.2773 273.444 96.4373C273.604 96.5839 273.904 96.7106 274.344 96.8173L276.644 97.3773C277.697 97.6306 278.471 98.0373 278.964 98.5973C279.457 99.1439 279.704 99.7906 279.704 100.537C279.704 101.591 279.264 102.424 278.384 103.037C277.504 103.651 276.351 103.957 274.924 103.957C273.777 103.957 272.784 103.757 271.944 103.357C271.104 102.944 270.511 102.411 270.164 101.757C270.097 101.664 270.064 101.577 270.064 101.497C270.064 101.404 270.111 101.337 270.204 101.297L271.564 100.597C271.671 100.544 271.764 100.517 271.844 100.517C271.924 100.517 271.997 100.551 272.064 100.617C272.357 101.031 272.711 101.364 273.124 101.617C273.551 101.857 274.111 101.977 274.804 101.977C275.431 101.977 275.937 101.884 276.324 101.697C276.724 101.511 276.924 101.237 276.924 100.877C276.924 100.637 276.824 100.437 276.624 100.277C276.424 100.117 276.084 99.9773 275.604 99.8573L273.544 99.4173C271.517 98.9773 270.504 97.9706 270.504 96.3973C270.504 95.7306 270.684 95.1373 271.044 94.6173C271.417 94.0973 271.944 93.6906 272.624 93.3973C273.304 93.1039 274.104 92.9573 275.024 92.9573C275.997 92.9573 276.857 93.1373 277.604 93.4973C278.364 93.8573 278.911 94.3106 279.244 94.8573C279.324 94.9639 279.364 95.0573 279.364 95.1373C279.364 95.2173 279.317 95.2839 279.224 95.3373L277.784 96.0373C277.744 96.0639 277.691 96.0773 277.624 96.0773C277.504 96.0773 277.404 96.0239 277.324 95.9173ZM284.45 96.1773C284.45 96.3506 284.403 96.4773 284.31 96.5573C284.23 96.6239 284.09 96.6573 283.89 96.6573H281.53C281.236 96.6573 281.09 96.5173 281.09 96.2373V93.7573C281.09 93.6373 281.116 93.5506 281.17 93.4973C281.236 93.4306 281.316 93.3973 281.41 93.3973H284.15C284.35 93.3973 284.45 93.5106 284.45 93.7373V96.1773ZM284.45 103.217C284.45 103.391 284.403 103.517 284.31 103.597C284.23 103.664 284.09 103.697 283.89 103.697H281.53C281.236 103.697 281.09 103.557 281.09 103.277V100.797C281.09 100.557 281.196 100.437 281.41 100.437H284.15C284.35 100.437 284.45 100.544 284.45 100.757V103.217Z" fill="#3A082C"/>
</svg>
