<svg width="298" height="193" viewBox="0 0 298 193" fill="none" xmlns="http://www.w3.org/2000/svg">
<path d="M4 127.42H294V168.005C294 179.051 285.046 188.005 274 188.005H24C12.9543 188.005 4 179.051 4 168.005V127.42Z" fill="#7B73B1"/>
<rect x="4" y="41.9722" width="290" height="146.614" rx="20" stroke="#3A082C" stroke-width="8"/>
<circle cx="148.999" cy="40.4531" r="35.8745" fill="white" stroke="#3A082C" stroke-width="8"/>
<circle cx="153.571" cy="44.0195" r="32.6215" fill="#EE8363"/>
<circle cx="148.999" cy="40.4531" r="35.8745" stroke="#3A082C" stroke-width="8"/>
<path d="M159.524 46.8067C159.524 48.9427 158.792 50.7307 157.328 52.1707C155.888 53.5867 153.944 54.4147 151.496 54.6547C151.232 54.6787 151.064 54.7267 150.992 54.7987C150.92 54.8707 150.884 55.0147 150.884 55.2307V56.5267C150.884 56.8147 150.812 57.0187 150.668 57.1387C150.548 57.2827 150.332 57.3547 150.02 57.3547H148.04C147.536 57.3547 147.284 57.1147 147.284 56.6347V55.1947C147.284 54.9787 147.248 54.8347 147.176 54.7627C147.104 54.6907 146.972 54.6547 146.78 54.6547C145.052 54.5587 143.54 54.2467 142.244 53.7187C140.972 53.1667 139.772 52.3747 138.644 51.3427C138.284 51.0547 138.104 50.8027 138.104 50.5867C138.104 50.4427 138.164 50.3107 138.284 50.1907L140.444 47.8507C140.66 47.6347 140.852 47.5267 141.02 47.5267C141.164 47.5267 141.32 47.6107 141.488 47.7787C143 49.4107 144.776 50.3587 146.816 50.6227L147.032 50.6587C147.224 50.6587 147.32 50.5267 147.32 50.2627L147.356 44.1067C147.356 43.9147 147.32 43.7707 147.248 43.6747C147.176 43.5547 147.032 43.4587 146.816 43.3867C143.984 42.7627 141.944 41.7787 140.696 40.4347C139.472 39.0907 138.86 37.4467 138.86 35.5027C138.86 33.5827 139.544 31.9507 140.912 30.6067C142.28 29.2387 144.2 28.3387 146.672 27.9067C147.128 27.7867 147.356 27.5827 147.356 27.2947V25.9267C147.356 25.7827 147.392 25.6627 147.464 25.5667C147.56 25.4707 147.668 25.4227 147.788 25.4227H150.236C150.668 25.4227 150.884 25.6507 150.884 26.1067V27.5467C150.884 27.6907 151.04 27.7987 151.352 27.8707C153.776 28.3747 155.852 29.2747 157.58 30.5707C157.772 30.6907 157.868 30.8467 157.868 31.0387C157.868 31.1587 157.808 31.3027 157.688 31.4707L155.78 33.9187C155.636 34.0867 155.492 34.1707 155.348 34.1707C155.156 34.1707 154.964 34.0747 154.772 33.8827C154.364 33.4747 153.848 33.1027 153.224 32.7667C152.624 32.4067 151.988 32.1427 151.316 31.9747L151.172 31.9387C150.956 31.9387 150.848 32.0467 150.848 32.2627V38.3467C150.848 38.4907 150.872 38.5987 150.92 38.6707C150.992 38.7187 151.112 38.7667 151.28 38.8147L153.296 39.3547C155.192 39.9307 156.704 40.8787 157.832 42.1987C158.96 43.4947 159.524 45.0307 159.524 46.8067ZM147.356 32.2267C147.356 31.8667 147.2 31.7227 146.888 31.7947C145.808 31.9867 144.98 32.3707 144.404 32.9467C143.828 33.4987 143.54 34.1587 143.54 34.9267C143.54 35.6707 143.78 36.2947 144.26 36.7987C144.74 37.2787 145.532 37.6867 146.636 38.0227C146.684 38.0467 146.756 38.0587 146.852 38.0587C147.188 38.0587 147.356 37.8307 147.356 37.3747V32.2267ZM150.848 50.4067C150.848 50.6227 151.004 50.7067 151.316 50.6587C152.396 50.5387 153.248 50.2027 153.872 49.6507C154.496 49.0987 154.808 48.4267 154.808 47.6347C154.808 46.7947 154.532 46.0987 153.98 45.5467C153.428 44.9947 152.54 44.5507 151.316 44.2147C151.268 44.1907 151.196 44.1787 151.1 44.1787C150.932 44.1787 150.848 44.3107 150.848 44.5747V50.4067Z" fill="white"/>
<path d="M85.8023 160.649C85.8023 161.954 85.355 163.047 84.4603 163.927C83.5803 164.792 82.3923 165.298 80.8963 165.445C80.735 165.46 80.6323 165.489 80.5883 165.533C80.5443 165.577 80.5223 165.665 80.5223 165.797V166.589C80.5223 166.765 80.4783 166.89 80.3903 166.963C80.317 167.051 80.185 167.095 79.9943 167.095H78.7843C78.4763 167.095 78.3223 166.948 78.3223 166.655V165.775C78.3223 165.643 78.3003 165.555 78.2563 165.511C78.2123 165.467 78.1316 165.445 78.0143 165.445C76.9583 165.386 76.0343 165.196 75.2423 164.873C74.465 164.536 73.7316 164.052 73.0423 163.421C72.8223 163.245 72.7123 163.091 72.7123 162.959C72.7123 162.871 72.749 162.79 72.8223 162.717L74.1423 161.287C74.2743 161.155 74.3916 161.089 74.4943 161.089C74.5823 161.089 74.6776 161.14 74.7803 161.243C75.7043 162.24 76.7896 162.82 78.0363 162.981L78.1683 163.003C78.2856 163.003 78.3443 162.922 78.3443 162.761L78.3663 158.999C78.3663 158.882 78.3443 158.794 78.3003 158.735C78.2563 158.662 78.1683 158.603 78.0363 158.559C76.3056 158.178 75.059 157.576 74.2963 156.755C73.5483 155.934 73.1743 154.929 73.1743 153.741C73.1743 152.568 73.5923 151.57 74.4283 150.749C75.2643 149.913 76.4376 149.363 77.9483 149.099C78.227 149.026 78.3663 148.901 78.3663 148.725V147.889C78.3663 147.801 78.3883 147.728 78.4323 147.669C78.491 147.61 78.557 147.581 78.6303 147.581H80.1263C80.3903 147.581 80.5223 147.72 80.5223 147.999V148.879C80.5223 148.967 80.6176 149.033 80.8083 149.077C82.2896 149.385 83.5583 149.935 84.6143 150.727C84.7316 150.8 84.7903 150.896 84.7903 151.013C84.7903 151.086 84.7536 151.174 84.6803 151.277L83.5143 152.773C83.4263 152.876 83.3383 152.927 83.2503 152.927C83.133 152.927 83.0156 152.868 82.8983 152.751C82.649 152.502 82.3336 152.274 81.9523 152.069C81.5856 151.849 81.197 151.688 80.7863 151.585L80.6983 151.563C80.5663 151.563 80.5003 151.629 80.5003 151.761V155.479C80.5003 155.567 80.515 155.633 80.5443 155.677C80.5883 155.706 80.6616 155.736 80.7643 155.765L81.9963 156.095C83.155 156.447 84.079 157.026 84.7683 157.833C85.4576 158.625 85.8023 159.564 85.8023 160.649ZM78.3663 151.739C78.3663 151.519 78.271 151.431 78.0803 151.475C77.4203 151.592 76.9143 151.827 76.5623 152.179C76.2103 152.516 76.0343 152.92 76.0343 153.389C76.0343 153.844 76.181 154.225 76.4743 154.533C76.7676 154.826 77.2516 155.076 77.9263 155.281C77.9556 155.296 77.9996 155.303 78.0583 155.303C78.2636 155.303 78.3663 155.164 78.3663 154.885V151.739ZM80.5003 162.849C80.5003 162.981 80.5956 163.032 80.7863 163.003C81.4463 162.93 81.967 162.724 82.3483 162.387C82.7296 162.05 82.9203 161.639 82.9203 161.155C82.9203 160.642 82.7516 160.216 82.4143 159.879C82.077 159.542 81.5343 159.27 80.7863 159.065C80.757 159.05 80.713 159.043 80.6543 159.043C80.5516 159.043 80.5003 159.124 80.5003 159.285V162.849ZM88.0083 151.585C87.9496 151.526 87.9203 151.453 87.9203 151.365C87.9203 151.292 87.9496 151.204 88.0083 151.101C88.595 150.397 89.4016 149.84 90.4283 149.429C91.455 149.018 92.5476 148.813 93.7063 148.813C94.9676 148.813 96.0603 148.996 96.9843 149.363C97.923 149.715 98.6343 150.214 99.1183 150.859C99.617 151.504 99.8663 152.245 99.8663 153.081C99.8663 153.814 99.639 154.496 99.1843 155.127C98.7296 155.743 98.0916 156.176 97.2703 156.425C97.0943 156.484 97.0063 156.557 97.0063 156.645C97.0063 156.718 97.087 156.777 97.2483 156.821C98.187 157.129 98.9423 157.62 99.5143 158.295C100.086 158.97 100.372 159.747 100.372 160.627C100.372 162.226 99.7856 163.45 98.6123 164.301C97.4536 165.152 95.7303 165.577 93.4423 165.577C92.181 165.577 91.0003 165.335 89.9003 164.851C88.815 164.352 87.9643 163.685 87.3483 162.849C87.275 162.746 87.2383 162.651 87.2383 162.563C87.2383 162.446 87.319 162.328 87.4803 162.211L89.1963 161.001C89.3283 160.913 89.4236 160.869 89.4823 160.869C89.5703 160.869 89.6363 160.906 89.6803 160.979C90.3696 161.683 91.0003 162.174 91.5723 162.453C92.159 162.732 92.8556 162.871 93.6623 162.871C94.5716 162.871 95.283 162.673 95.7963 162.277C96.3243 161.881 96.5883 161.36 96.5883 160.715C96.5883 159.996 96.295 159.424 95.7083 158.999C95.1363 158.574 94.4103 158.354 93.5303 158.339L91.6383 158.295C91.389 158.295 91.2643 158.192 91.2643 157.987V155.919C91.2643 155.758 91.389 155.655 91.6383 155.611L93.1563 155.545C94.0216 155.53 94.7256 155.318 95.2683 154.907C95.8256 154.482 96.1043 153.954 96.1043 153.323C96.1043 152.795 95.8696 152.355 95.4003 152.003C94.9456 151.636 94.3663 151.453 93.6623 151.453C92.9876 151.453 92.3716 151.585 91.8143 151.849C91.257 152.098 90.685 152.509 90.0983 153.081C89.9956 153.184 89.915 153.235 89.8563 153.235C89.827 153.235 89.7463 153.184 89.6143 153.081L88.0083 151.585ZM109.062 148.791C110.367 148.791 111.533 149.143 112.56 149.847C113.587 150.551 114.393 151.541 114.98 152.817C115.567 154.093 115.86 155.567 115.86 157.239C115.86 158.911 115.567 160.378 114.98 161.639C114.408 162.886 113.609 163.854 112.582 164.543C111.555 165.218 110.382 165.555 109.062 165.555C107.742 165.555 106.561 165.218 105.52 164.543C104.493 163.854 103.687 162.886 103.1 161.639C102.528 160.378 102.242 158.918 102.242 157.261C102.242 155.589 102.535 154.115 103.122 152.839C103.709 151.548 104.515 150.551 105.542 149.847C106.583 149.143 107.757 148.791 109.062 148.791ZM109.062 162.827C110.045 162.827 110.771 162.394 111.24 161.529C111.709 160.664 111.944 159.241 111.944 157.261C111.944 155.237 111.702 153.77 111.218 152.861C110.749 151.937 110.023 151.475 109.04 151.475C108.072 151.475 107.346 151.937 106.862 152.861C106.378 153.785 106.136 155.252 106.136 157.261C106.136 159.226 106.378 160.649 106.862 161.529C107.346 162.394 108.079 162.827 109.062 162.827ZM124.638 148.791C125.944 148.791 127.11 149.143 128.136 149.847C129.163 150.551 129.97 151.541 130.556 152.817C131.143 154.093 131.436 155.567 131.436 157.239C131.436 158.911 131.143 160.378 130.556 161.639C129.984 162.886 129.185 163.854 128.158 164.543C127.132 165.218 125.958 165.555 124.638 165.555C123.318 165.555 122.138 165.218 121.096 164.543C120.07 163.854 119.263 162.886 118.676 161.639C118.104 160.378 117.818 158.918 117.818 157.261C117.818 155.589 118.112 154.115 118.698 152.839C119.285 151.548 120.092 150.551 121.118 149.847C122.16 149.143 123.333 148.791 124.638 148.791ZM124.638 162.827C125.621 162.827 126.347 162.394 126.816 161.529C127.286 160.664 127.52 159.241 127.52 157.261C127.52 155.237 127.278 153.77 126.794 152.861C126.325 151.937 125.599 151.475 124.616 151.475C123.648 151.475 122.922 151.937 122.438 152.861C121.954 153.785 121.712 155.252 121.712 157.261C121.712 159.226 121.954 160.649 122.438 161.529C122.922 162.394 123.656 162.827 124.638 162.827ZM144.22 160.297C144.22 160.62 144.029 160.781 143.648 160.781H138.478C138.302 160.781 138.177 160.752 138.104 160.693C138.045 160.62 138.016 160.502 138.016 160.341V158.735C138.016 158.471 138.126 158.339 138.346 158.339H143.89C143.992 158.339 144.073 158.368 144.132 158.427C144.19 158.486 144.22 158.566 144.22 158.669V160.297ZM163.468 160.649C163.468 161.954 163.021 163.047 162.126 163.927C161.246 164.792 160.058 165.298 158.562 165.445C158.401 165.46 158.298 165.489 158.254 165.533C158.21 165.577 158.188 165.665 158.188 165.797V166.589C158.188 166.765 158.144 166.89 158.056 166.963C157.983 167.051 157.851 167.095 157.66 167.095H156.45C156.142 167.095 155.988 166.948 155.988 166.655V165.775C155.988 165.643 155.966 165.555 155.922 165.511C155.878 165.467 155.798 165.445 155.68 165.445C154.624 165.386 153.7 165.196 152.908 164.873C152.131 164.536 151.398 164.052 150.708 163.421C150.488 163.245 150.378 163.091 150.378 162.959C150.378 162.871 150.415 162.79 150.488 162.717L151.808 161.287C151.94 161.155 152.058 161.089 152.16 161.089C152.248 161.089 152.344 161.14 152.446 161.243C153.37 162.24 154.456 162.82 155.702 162.981L155.834 163.003C155.952 163.003 156.01 162.922 156.01 162.761L156.032 158.999C156.032 158.882 156.01 158.794 155.966 158.735C155.922 158.662 155.834 158.603 155.702 158.559C153.972 158.178 152.725 157.576 151.962 156.755C151.214 155.934 150.84 154.929 150.84 153.741C150.84 152.568 151.258 151.57 152.094 150.749C152.93 149.913 154.104 149.363 155.614 149.099C155.893 149.026 156.032 148.901 156.032 148.725V147.889C156.032 147.801 156.054 147.728 156.098 147.669C156.157 147.61 156.223 147.581 156.296 147.581H157.792C158.056 147.581 158.188 147.72 158.188 147.999V148.879C158.188 148.967 158.284 149.033 158.474 149.077C159.956 149.385 161.224 149.935 162.28 150.727C162.398 150.8 162.456 150.896 162.456 151.013C162.456 151.086 162.42 151.174 162.346 151.277L161.18 152.773C161.092 152.876 161.004 152.927 160.916 152.927C160.799 152.927 160.682 152.868 160.564 152.751C160.315 152.502 160 152.274 159.618 152.069C159.252 151.849 158.863 151.688 158.452 151.585L158.364 151.563C158.232 151.563 158.166 151.629 158.166 151.761V155.479C158.166 155.567 158.181 155.633 158.21 155.677C158.254 155.706 158.328 155.736 158.43 155.765L159.662 156.095C160.821 156.447 161.745 157.026 162.434 157.833C163.124 158.625 163.468 159.564 163.468 160.649ZM156.032 151.739C156.032 151.519 155.937 151.431 155.746 151.475C155.086 151.592 154.58 151.827 154.228 152.179C153.876 152.516 153.7 152.92 153.7 153.389C153.7 153.844 153.847 154.225 154.14 154.533C154.434 154.826 154.918 155.076 155.592 155.281C155.622 155.296 155.666 155.303 155.724 155.303C155.93 155.303 156.032 155.164 156.032 154.885V151.739ZM158.166 162.849C158.166 162.981 158.262 163.032 158.452 163.003C159.112 162.93 159.633 162.724 160.014 162.387C160.396 162.05 160.586 161.639 160.586 161.155C160.586 160.642 160.418 160.216 160.08 159.879C159.743 159.542 159.2 159.27 158.452 159.065C158.423 159.05 158.379 159.043 158.32 159.043C158.218 159.043 158.166 159.124 158.166 159.285V162.849ZM176.608 149.033C176.843 149.033 176.99 149.062 177.048 149.121C177.107 149.18 177.129 149.319 177.114 149.539L177.004 151.717C176.99 151.864 176.946 151.966 176.872 152.025C176.814 152.084 176.696 152.113 176.52 152.113H169.59C169.341 152.113 169.209 152.223 169.194 152.443L168.93 155.237V155.281C168.93 155.384 168.96 155.457 169.018 155.501C169.092 155.545 169.172 155.552 169.26 155.523C169.964 155.274 170.522 155.098 170.932 154.995C171.358 154.892 171.849 154.841 172.406 154.841C173.521 154.841 174.518 155.039 175.398 155.435C176.278 155.831 176.975 156.425 177.488 157.217C178.002 157.994 178.258 158.933 178.258 160.033C178.258 161.177 177.98 162.167 177.422 163.003C176.865 163.839 176.088 164.477 175.09 164.917C174.093 165.357 172.934 165.577 171.614 165.577C170.221 165.577 168.952 165.342 167.808 164.873C166.664 164.389 165.784 163.744 165.168 162.937C165.051 162.79 164.992 162.658 164.992 162.541C164.992 162.394 165.066 162.277 165.212 162.189L167.016 160.913C167.09 160.854 167.17 160.825 167.258 160.825C167.39 160.825 167.5 160.884 167.588 161.001C168.204 161.646 168.762 162.123 169.26 162.431C169.774 162.724 170.419 162.871 171.196 162.871C172.223 162.871 173.022 162.622 173.594 162.123C174.181 161.61 174.474 160.95 174.474 160.143C174.474 159.366 174.203 158.742 173.66 158.273C173.132 157.804 172.414 157.569 171.504 157.569C171.035 157.569 170.595 157.642 170.184 157.789C169.788 157.921 169.29 158.134 168.688 158.427C168.571 158.486 168.476 158.515 168.402 158.515C168.344 158.515 168.248 158.478 168.116 158.405L166.114 157.305C165.953 157.217 165.872 157.092 165.872 156.931C165.872 156.799 165.88 156.689 165.894 156.601L166.51 149.561C166.525 149.356 166.584 149.216 166.686 149.143C166.789 149.07 166.994 149.033 167.302 149.033H176.608ZM186.922 148.791C188.227 148.791 189.393 149.143 190.42 149.847C191.446 150.551 192.253 151.541 192.84 152.817C193.426 154.093 193.72 155.567 193.72 157.239C193.72 158.911 193.426 160.378 192.84 161.639C192.268 162.886 191.468 163.854 190.442 164.543C189.415 165.218 188.242 165.555 186.922 165.555C185.602 165.555 184.421 165.218 183.38 164.543C182.353 163.854 181.546 162.886 180.96 161.639C180.388 160.378 180.102 158.918 180.102 157.261C180.102 155.589 180.395 154.115 180.982 152.839C181.568 151.548 182.375 150.551 183.402 149.847C184.443 149.143 185.616 148.791 186.922 148.791ZM186.922 162.827C187.904 162.827 188.63 162.394 189.1 161.529C189.569 160.664 189.804 159.241 189.804 157.261C189.804 155.237 189.562 153.77 189.078 152.861C188.608 151.937 187.882 151.475 186.9 151.475C185.932 151.475 185.206 151.937 184.722 152.861C184.238 153.785 183.996 155.252 183.996 157.261C183.996 159.226 184.238 160.649 184.722 161.529C185.206 162.394 185.939 162.827 186.922 162.827ZM202.498 148.791C203.803 148.791 204.969 149.143 205.996 149.847C207.022 150.551 207.829 151.541 208.416 152.817C209.002 154.093 209.296 155.567 209.296 157.239C209.296 158.911 209.002 160.378 208.416 161.639C207.844 162.886 207.044 163.854 206.018 164.543C204.991 165.218 203.818 165.555 202.498 165.555C201.178 165.555 199.997 165.218 198.956 164.543C197.929 163.854 197.122 162.886 196.536 161.639C195.964 160.378 195.678 158.918 195.678 157.261C195.678 155.589 195.971 154.115 196.558 152.839C197.144 151.548 197.951 150.551 198.978 149.847C200.019 149.143 201.192 148.791 202.498 148.791ZM202.498 162.827C203.48 162.827 204.206 162.394 204.676 161.529C205.145 160.664 205.38 159.241 205.38 157.261C205.38 155.237 205.138 153.77 204.654 152.861C204.184 151.937 203.458 151.475 202.476 151.475C201.508 151.475 200.782 151.937 200.298 152.861C199.814 153.785 199.572 155.252 199.572 157.261C199.572 159.226 199.814 160.649 200.298 161.529C200.782 162.394 201.515 162.827 202.498 162.827ZM218.074 148.791C219.379 148.791 220.545 149.143 221.572 149.847C222.599 150.551 223.405 151.541 223.992 152.817C224.579 154.093 224.872 155.567 224.872 157.239C224.872 158.911 224.579 160.378 223.992 161.639C223.42 162.886 222.621 163.854 221.594 164.543C220.567 165.218 219.394 165.555 218.074 165.555C216.754 165.555 215.573 165.218 214.532 164.543C213.505 163.854 212.699 162.886 212.112 161.639C211.54 160.378 211.254 158.918 211.254 157.261C211.254 155.589 211.547 154.115 212.134 152.839C212.721 151.548 213.527 150.551 214.554 149.847C215.595 149.143 216.769 148.791 218.074 148.791ZM218.074 162.827C219.057 162.827 219.783 162.394 220.252 161.529C220.721 160.664 220.956 159.241 220.956 157.261C220.956 155.237 220.714 153.77 220.23 152.861C219.761 151.937 219.035 151.475 218.052 151.475C217.084 151.475 216.358 151.937 215.874 152.861C215.39 153.785 215.148 155.252 215.148 157.261C215.148 159.226 215.39 160.649 215.874 161.529C216.358 162.394 217.091 162.827 218.074 162.827Z" fill="white"/>
<path d="M13.652 104.328C13.452 104.328 13.352 104.214 13.352 103.988C13.352 103.881 13.3653 103.801 13.392 103.748L18.372 89.8876C18.4253 89.741 18.4853 89.641 18.552 89.5876C18.632 89.521 18.7453 89.4876 18.892 89.4876H21.892C22.0386 89.4876 22.1653 89.5276 22.272 89.6076C22.3786 89.6876 22.452 89.7943 22.492 89.9276L27.432 103.788C27.4586 103.868 27.472 103.928 27.472 103.968C27.472 104.074 27.4453 104.161 27.392 104.228C27.352 104.294 27.2853 104.328 27.192 104.328H24.252C24.052 104.328 23.9253 104.234 23.872 104.048L22.832 101.128C22.8053 101.048 22.772 100.994 22.732 100.968C22.7053 100.928 22.652 100.908 22.572 100.908H17.692C17.5586 100.908 17.472 100.974 17.432 101.108L16.372 104.068C16.292 104.241 16.152 104.328 15.952 104.328H13.652ZM21.752 98.2476C21.8853 98.2476 21.952 98.1943 21.952 98.0876C21.952 98.0076 21.9453 97.9476 21.932 97.9076L20.252 93.2276C20.212 93.1476 20.1653 93.1076 20.112 93.1076C20.072 93.1076 20.032 93.1543 19.992 93.2476L18.292 97.9076C18.2653 97.9876 18.252 98.0476 18.252 98.0876C18.252 98.1943 18.3253 98.2476 18.472 98.2476H21.752ZM37.7879 93.7276C37.9079 93.7276 37.9946 93.7743 38.0479 93.8676C38.1012 93.961 38.1079 94.0676 38.0679 94.1876L34.1079 103.908C33.9879 104.188 33.7746 104.328 33.4679 104.328H32.0479C31.7412 104.328 31.5279 104.188 31.4079 103.908L27.4679 94.2076C27.4412 94.1276 27.4279 94.0743 27.4279 94.0476C27.4279 93.9543 27.4612 93.881 27.5279 93.8276C27.5946 93.761 27.6746 93.7276 27.7679 93.7276H30.3079C30.5346 93.7276 30.6812 93.841 30.7479 94.0676L33.0479 99.9676C33.1146 100.088 33.1679 100.148 33.2079 100.148C33.2612 100.148 33.3146 100.081 33.3679 99.9476L35.6279 94.0476C35.7212 93.8343 35.8679 93.7276 36.0679 93.7276H37.7879ZM41.6873 99.9276C41.6873 100.674 41.9339 101.281 42.4273 101.748C42.9339 102.201 43.5606 102.428 44.3073 102.428C44.7873 102.428 45.2273 102.328 45.6273 102.128C46.0406 101.914 46.4539 101.568 46.8673 101.088C46.9206 101.034 46.9739 101.008 47.0273 101.008C47.0673 101.008 47.1339 101.028 47.2273 101.068L48.6673 101.668C48.7606 101.708 48.8073 101.774 48.8073 101.868C48.8073 101.934 48.7806 102.001 48.7273 102.068C48.0873 102.974 47.4006 103.614 46.6673 103.988C45.9339 104.348 45.0206 104.528 43.9273 104.528C42.9006 104.528 41.9739 104.301 41.1473 103.848C40.3206 103.394 39.6739 102.768 39.2073 101.968C38.7406 101.154 38.5073 100.228 38.5073 99.1876C38.5073 98.0676 38.7473 97.081 39.2273 96.2276C39.7073 95.361 40.3539 94.6943 41.1673 94.2276C41.9939 93.761 42.8939 93.5276 43.8673 93.5276C44.8806 93.5276 45.7806 93.7543 46.5673 94.2076C47.3539 94.6476 47.9673 95.2876 48.4073 96.1276C48.8473 96.9676 49.0673 97.9676 49.0673 99.1276C49.0673 99.301 49.0473 99.421 49.0073 99.4876C48.9806 99.5543 48.8873 99.5943 48.7273 99.6076H41.9273C41.7673 99.6076 41.6873 99.7143 41.6873 99.9276ZM45.7073 97.9276C45.8539 97.9276 45.9473 97.9143 45.9873 97.8876C46.0273 97.8476 46.0473 97.7676 46.0473 97.6476C46.0473 97.301 45.9673 96.9543 45.8073 96.6076C45.6473 96.261 45.4139 95.9743 45.1073 95.7476C44.8006 95.521 44.4273 95.4076 43.9873 95.4076C43.3206 95.4076 42.7739 95.641 42.3473 96.1076C41.9206 96.5743 41.7139 97.1743 41.7273 97.9076L45.7073 97.9276ZM51.126 104.328C50.846 104.328 50.706 104.194 50.706 103.928V94.1076C50.706 93.8543 50.8127 93.7276 51.026 93.7276H53.366C53.5794 93.7276 53.686 93.841 53.686 94.0676V95.2476C53.686 95.301 53.6994 95.341 53.726 95.3676C53.7527 95.3943 53.7794 95.4076 53.806 95.4076C53.846 95.4076 53.8994 95.3743 53.966 95.3076C54.366 94.7743 54.8394 94.3476 55.386 94.0276C55.9327 93.6943 56.4527 93.5276 56.946 93.5276C57.426 93.5276 57.666 93.641 57.666 93.8676V96.1876C57.666 96.281 57.6394 96.3543 57.586 96.4076C57.5327 96.461 57.4594 96.4743 57.366 96.4476C56.9394 96.341 56.4727 96.2876 55.966 96.2876C55.6327 96.2876 55.2927 96.3743 54.946 96.5476C54.6127 96.7076 54.3327 96.9276 54.106 97.2076C53.8927 97.4743 53.786 97.7476 53.786 98.0276V103.868C53.786 104.174 53.6127 104.328 53.266 104.328H51.126ZM64.9249 103.308C64.0449 104.121 62.9983 104.528 61.7849 104.528C60.7849 104.528 59.9916 104.261 59.4049 103.728C58.8183 103.181 58.5249 102.474 58.5249 101.608C58.5249 100.488 59.0383 99.5876 60.0649 98.9076C61.0916 98.2276 62.5049 97.8676 64.3049 97.8276L65.0249 97.7676C65.1049 97.7676 65.1716 97.7476 65.2249 97.7076C65.2916 97.6543 65.3249 97.581 65.3249 97.4876V97.0676C65.3249 96.5476 65.1783 96.1476 64.8849 95.8676C64.5916 95.5876 64.1716 95.4476 63.6249 95.4476C62.6916 95.4476 61.9983 95.8476 61.5449 96.6476C61.4916 96.781 61.4049 96.8476 61.2849 96.8476C61.2183 96.8476 61.1583 96.841 61.1049 96.8276L59.1049 96.3676C58.9849 96.341 58.9249 96.2676 58.9249 96.1476C58.9249 96.0676 58.9516 95.9676 59.0049 95.8476C59.3249 95.0743 59.8916 94.4943 60.7049 94.1076C61.5316 93.721 62.5516 93.5276 63.7649 93.5276C65.3516 93.5276 66.4983 93.821 67.2049 94.4076C67.9116 94.981 68.2649 95.801 68.2649 96.8676V103.888C68.2649 104.048 68.2383 104.161 68.1849 104.228C68.1316 104.294 68.0316 104.328 67.8849 104.328H65.8249C65.6916 104.328 65.5916 104.281 65.5249 104.188C65.4716 104.094 65.4316 103.954 65.4049 103.768L65.3849 103.328C65.3716 103.208 65.3183 103.148 65.2249 103.148C65.1716 103.148 65.0716 103.201 64.9249 103.308ZM65.3249 99.6076C65.3249 99.4876 65.3049 99.401 65.2649 99.3476C65.2249 99.2943 65.1449 99.2676 65.0249 99.2676L64.4649 99.3076C63.6916 99.3476 63.0049 99.5343 62.4049 99.8676C61.8183 100.188 61.5249 100.634 61.5249 101.208C61.5249 101.608 61.6649 101.928 61.9449 102.168C62.2249 102.394 62.6116 102.508 63.1049 102.508C63.7183 102.508 64.2383 102.328 64.6649 101.968C65.1049 101.621 65.3249 101.268 65.3249 100.908V99.6076ZM81.0745 93.2676C81.3411 93.2676 81.4745 93.4143 81.4745 93.7076V95.0676C81.4745 95.441 81.3211 95.5943 81.0145 95.5276C80.8145 95.4876 80.6211 95.4676 80.4345 95.4676C80.3278 95.4676 80.2078 95.481 80.0745 95.5076C79.7278 95.561 79.5945 95.7143 79.6745 95.9676C79.7945 96.3276 79.8545 96.6276 79.8545 96.8676C79.8545 97.481 79.6678 98.0343 79.2945 98.5276C78.9345 99.021 78.3878 99.4143 77.6545 99.7076C76.9345 100.001 76.0611 100.148 75.0345 100.148C74.2878 100.148 73.7345 100.208 73.3745 100.328C73.0278 100.448 72.8545 100.608 72.8545 100.808C72.8545 100.981 72.9478 101.108 73.1345 101.188C73.3345 101.254 73.6611 101.301 74.1145 101.328L76.9745 101.488C78.2945 101.568 79.2745 101.861 79.9145 102.368C80.5678 102.874 80.8945 103.548 80.8945 104.388C80.8945 105.428 80.4011 106.261 79.4145 106.888C78.4278 107.514 77.0278 107.828 75.2145 107.828C71.3345 107.828 69.3945 106.968 69.3945 105.248C69.3945 104.821 69.5611 104.461 69.8945 104.168C70.2278 103.861 70.7011 103.594 71.3145 103.368C71.3945 103.341 71.4345 103.308 71.4345 103.268C71.4345 103.228 71.3945 103.188 71.3145 103.148C70.5411 102.774 70.1545 102.281 70.1545 101.668C70.1545 101.308 70.3278 100.974 70.6745 100.668C71.0345 100.348 71.5078 100.074 72.0945 99.8476C72.2545 99.7676 72.2678 99.6876 72.1345 99.6076C70.8411 99.0076 70.1945 98.101 70.1945 96.8876C70.1945 95.8743 70.6278 95.0676 71.4945 94.4676C72.3745 93.8676 73.6278 93.5676 75.2545 93.5676C76.6278 93.5676 77.6945 93.8676 78.4545 94.4676C78.5478 94.5343 78.6345 94.5676 78.7145 94.5676C78.8211 94.5676 78.9145 94.521 78.9945 94.4276C79.2478 94.121 79.5811 93.8543 79.9945 93.6276C80.4078 93.3876 80.7678 93.2676 81.0745 93.2676ZM75.0145 98.6276C75.6945 98.6276 76.2011 98.4743 76.5345 98.1676C76.8811 97.8476 77.0545 97.4343 77.0545 96.9276C77.0545 96.3676 76.8811 95.9276 76.5345 95.6076C76.2011 95.2743 75.6945 95.1076 75.0145 95.1076C74.3745 95.1076 73.8678 95.2743 73.4945 95.6076C73.1345 95.941 72.9545 96.381 72.9545 96.9276C72.9545 97.4343 73.1345 97.8476 73.4945 98.1676C73.8678 98.4743 74.3745 98.6276 75.0145 98.6276ZM73.5345 103.728C73.1211 103.701 72.7478 103.801 72.4145 104.028C72.0945 104.241 71.9345 104.514 71.9345 104.848C71.9345 105.341 72.2078 105.714 72.7545 105.968C73.3011 106.221 74.1878 106.348 75.4145 106.348C76.3078 106.348 76.9945 106.221 77.4745 105.968C77.9545 105.728 78.1945 105.381 78.1945 104.928C78.1945 104.621 78.0611 104.374 77.7945 104.188C77.5278 104.001 77.1345 103.894 76.6145 103.868L73.5345 103.728ZM85.281 99.9276C85.281 100.674 85.5277 101.281 86.021 101.748C86.5277 102.201 87.1544 102.428 87.901 102.428C88.381 102.428 88.821 102.328 89.221 102.128C89.6344 101.914 90.0477 101.568 90.461 101.088C90.5144 101.034 90.5677 101.008 90.621 101.008C90.661 101.008 90.7277 101.028 90.821 101.068L92.261 101.668C92.3544 101.708 92.401 101.774 92.401 101.868C92.401 101.934 92.3744 102.001 92.321 102.068C91.681 102.974 90.9944 103.614 90.261 103.988C89.5277 104.348 88.6144 104.528 87.521 104.528C86.4944 104.528 85.5677 104.301 84.741 103.848C83.9144 103.394 83.2677 102.768 82.801 101.968C82.3344 101.154 82.101 100.228 82.101 99.1876C82.101 98.0676 82.341 97.081 82.821 96.2276C83.301 95.361 83.9477 94.6943 84.761 94.2276C85.5877 93.761 86.4877 93.5276 87.461 93.5276C88.4744 93.5276 89.3744 93.7543 90.161 94.2076C90.9477 94.6476 91.561 95.2876 92.001 96.1276C92.441 96.9676 92.661 97.9676 92.661 99.1276C92.661 99.301 92.641 99.421 92.601 99.4876C92.5744 99.5543 92.481 99.5943 92.321 99.6076H85.521C85.361 99.6076 85.281 99.7143 85.281 99.9276ZM89.301 97.9276C89.4477 97.9276 89.541 97.9143 89.581 97.8876C89.621 97.8476 89.641 97.7676 89.641 97.6476C89.641 97.301 89.561 96.9543 89.401 96.6076C89.241 96.261 89.0077 95.9743 88.701 95.7476C88.3944 95.521 88.021 95.4076 87.581 95.4076C86.9144 95.4076 86.3677 95.641 85.941 96.1076C85.5144 96.5743 85.3077 97.1743 85.321 97.9076L89.301 97.9276ZM110.761 103.788C110.788 103.868 110.801 103.928 110.801 103.968C110.801 104.074 110.768 104.161 110.701 104.228C110.634 104.294 110.554 104.328 110.461 104.328H107.521C107.294 104.328 107.148 104.208 107.081 103.968L104.921 98.3676C104.881 98.261 104.821 98.1876 104.741 98.1476C104.661 98.1076 104.534 98.0876 104.361 98.0876H102.461C102.381 98.0876 102.321 98.1143 102.281 98.1676C102.241 98.2076 102.221 98.2543 102.221 98.3076V103.848C102.221 104.021 102.174 104.148 102.081 104.228C102.001 104.294 101.868 104.328 101.681 104.328H99.1409C98.9809 104.328 98.8675 104.294 98.8009 104.228C98.7475 104.161 98.7209 104.061 98.7209 103.928V89.8676C98.7209 89.6143 98.8275 89.4876 99.0409 89.4876H105.281C107.081 89.4876 108.474 89.841 109.461 90.5476C110.448 91.2543 110.941 92.261 110.941 93.5676C110.941 94.541 110.681 95.3743 110.161 96.0676C109.641 96.7476 108.988 97.2276 108.201 97.5076C108.094 97.5476 108.068 97.6476 108.121 97.8076L110.761 103.788ZM104.961 95.7276C105.734 95.7276 106.321 95.5676 106.721 95.2476C107.121 94.9143 107.321 94.4343 107.321 93.8076C107.321 93.1676 107.114 92.681 106.701 92.3476C106.301 92.001 105.754 91.8276 105.061 91.8276H102.601C102.454 91.8276 102.354 91.8543 102.301 91.9076C102.248 91.9476 102.221 92.0276 102.221 92.1476V95.3876C102.221 95.5076 102.241 95.5943 102.281 95.6476C102.321 95.701 102.394 95.7276 102.501 95.7276H104.961ZM118.694 103.308C117.814 104.121 116.768 104.528 115.554 104.528C114.554 104.528 113.761 104.261 113.174 103.728C112.588 103.181 112.294 102.474 112.294 101.608C112.294 100.488 112.808 99.5876 113.834 98.9076C114.861 98.2276 116.274 97.8676 118.074 97.8276L118.794 97.7676C118.874 97.7676 118.941 97.7476 118.994 97.7076C119.061 97.6543 119.094 97.581 119.094 97.4876V97.0676C119.094 96.5476 118.948 96.1476 118.654 95.8676C118.361 95.5876 117.941 95.4476 117.394 95.4476C116.461 95.4476 115.768 95.8476 115.314 96.6476C115.261 96.781 115.174 96.8476 115.054 96.8476C114.988 96.8476 114.928 96.841 114.874 96.8276L112.874 96.3676C112.754 96.341 112.694 96.2676 112.694 96.1476C112.694 96.0676 112.721 95.9676 112.774 95.8476C113.094 95.0743 113.661 94.4943 114.474 94.1076C115.301 93.721 116.321 93.5276 117.534 93.5276C119.121 93.5276 120.268 93.821 120.974 94.4076C121.681 94.981 122.034 95.801 122.034 96.8676V103.888C122.034 104.048 122.008 104.161 121.954 104.228C121.901 104.294 121.801 104.328 121.654 104.328H119.594C119.461 104.328 119.361 104.281 119.294 104.188C119.241 104.094 119.201 103.954 119.174 103.768L119.154 103.328C119.141 103.208 119.088 103.148 118.994 103.148C118.941 103.148 118.841 103.201 118.694 103.308ZM119.094 99.6076C119.094 99.4876 119.074 99.401 119.034 99.3476C118.994 99.2943 118.914 99.2676 118.794 99.2676L118.234 99.3076C117.461 99.3476 116.774 99.5343 116.174 99.8676C115.588 100.188 115.294 100.634 115.294 101.208C115.294 101.608 115.434 101.928 115.714 102.168C115.994 102.394 116.381 102.508 116.874 102.508C117.488 102.508 118.008 102.328 118.434 101.968C118.874 101.621 119.094 101.268 119.094 100.908V99.6076ZM124.544 104.328C124.397 104.328 124.291 104.301 124.224 104.248C124.157 104.181 124.124 104.074 124.124 103.928V94.1076C124.124 93.8543 124.231 93.7276 124.444 93.7276H126.864C127.064 93.7276 127.164 93.841 127.164 94.0676V95.0476C127.164 95.1543 127.197 95.2076 127.264 95.2076C127.304 95.2076 127.351 95.181 127.404 95.1276C127.951 94.6076 128.497 94.2143 129.044 93.9476C129.591 93.6676 130.171 93.5276 130.784 93.5276C131.757 93.5276 132.524 93.8143 133.084 94.3876C133.657 94.961 133.944 95.7276 133.944 96.6876V103.848C133.944 104.168 133.784 104.328 133.464 104.328H131.244C131.097 104.328 130.997 104.301 130.944 104.248C130.891 104.181 130.864 104.074 130.864 103.928V97.1676C130.864 96.7143 130.737 96.3676 130.484 96.1276C130.244 95.8743 129.884 95.7476 129.404 95.7476C129.004 95.7476 128.631 95.8476 128.284 96.0476C127.951 96.2476 127.591 96.561 127.204 96.9876V103.868C127.204 104.028 127.164 104.148 127.084 104.228C127.004 104.294 126.871 104.328 126.684 104.328H124.544ZM146.758 93.2676C147.025 93.2676 147.158 93.4143 147.158 93.7076V95.0676C147.158 95.441 147.005 95.5943 146.698 95.5276C146.498 95.4876 146.305 95.4676 146.118 95.4676C146.011 95.4676 145.891 95.481 145.758 95.5076C145.411 95.561 145.278 95.7143 145.358 95.9676C145.478 96.3276 145.538 96.6276 145.538 96.8676C145.538 97.481 145.351 98.0343 144.978 98.5276C144.618 99.021 144.071 99.4143 143.338 99.7076C142.618 100.001 141.745 100.148 140.718 100.148C139.971 100.148 139.418 100.208 139.058 100.328C138.711 100.448 138.538 100.608 138.538 100.808C138.538 100.981 138.631 101.108 138.818 101.188C139.018 101.254 139.345 101.301 139.798 101.328L142.658 101.488C143.978 101.568 144.958 101.861 145.598 102.368C146.251 102.874 146.578 103.548 146.578 104.388C146.578 105.428 146.085 106.261 145.098 106.888C144.111 107.514 142.711 107.828 140.898 107.828C137.018 107.828 135.078 106.968 135.078 105.248C135.078 104.821 135.245 104.461 135.578 104.168C135.911 103.861 136.385 103.594 136.998 103.368C137.078 103.341 137.118 103.308 137.118 103.268C137.118 103.228 137.078 103.188 136.998 103.148C136.225 102.774 135.838 102.281 135.838 101.668C135.838 101.308 136.011 100.974 136.358 100.668C136.718 100.348 137.191 100.074 137.778 99.8476C137.938 99.7676 137.951 99.6876 137.818 99.6076C136.525 99.0076 135.878 98.101 135.878 96.8876C135.878 95.8743 136.311 95.0676 137.178 94.4676C138.058 93.8676 139.311 93.5676 140.938 93.5676C142.311 93.5676 143.378 93.8676 144.138 94.4676C144.231 94.5343 144.318 94.5676 144.398 94.5676C144.505 94.5676 144.598 94.521 144.678 94.4276C144.931 94.121 145.265 93.8543 145.678 93.6276C146.091 93.3876 146.451 93.2676 146.758 93.2676ZM140.698 98.6276C141.378 98.6276 141.885 98.4743 142.218 98.1676C142.565 97.8476 142.738 97.4343 142.738 96.9276C142.738 96.3676 142.565 95.9276 142.218 95.6076C141.885 95.2743 141.378 95.1076 140.698 95.1076C140.058 95.1076 139.551 95.2743 139.178 95.6076C138.818 95.941 138.638 96.381 138.638 96.9276C138.638 97.4343 138.818 97.8476 139.178 98.1676C139.551 98.4743 140.058 98.6276 140.698 98.6276ZM139.218 103.728C138.805 103.701 138.431 103.801 138.098 104.028C137.778 104.241 137.618 104.514 137.618 104.848C137.618 105.341 137.891 105.714 138.438 105.968C138.985 106.221 139.871 106.348 141.098 106.348C141.991 106.348 142.678 106.221 143.158 105.968C143.638 105.728 143.878 105.381 143.878 104.928C143.878 104.621 143.745 104.374 143.478 104.188C143.211 104.001 142.818 103.894 142.298 103.868L139.218 103.728ZM150.965 99.9276C150.965 100.674 151.211 101.281 151.705 101.748C152.211 102.201 152.838 102.428 153.585 102.428C154.065 102.428 154.505 102.328 154.905 102.128C155.318 101.914 155.731 101.568 156.145 101.088C156.198 101.034 156.251 101.008 156.305 101.008C156.345 101.008 156.411 101.028 156.505 101.068L157.945 101.668C158.038 101.708 158.085 101.774 158.085 101.868C158.085 101.934 158.058 102.001 158.005 102.068C157.365 102.974 156.678 103.614 155.945 103.988C155.211 104.348 154.298 104.528 153.205 104.528C152.178 104.528 151.251 104.301 150.425 103.848C149.598 103.394 148.951 102.768 148.485 101.968C148.018 101.154 147.785 100.228 147.785 99.1876C147.785 98.0676 148.025 97.081 148.505 96.2276C148.985 95.361 149.631 94.6943 150.445 94.2276C151.271 93.761 152.171 93.5276 153.145 93.5276C154.158 93.5276 155.058 93.7543 155.845 94.2076C156.631 94.6476 157.245 95.2876 157.685 96.1276C158.125 96.9676 158.345 97.9676 158.345 99.1276C158.345 99.301 158.325 99.421 158.285 99.4876C158.258 99.5543 158.165 99.5943 158.005 99.6076H151.205C151.045 99.6076 150.965 99.7143 150.965 99.9276ZM154.985 97.9276C155.131 97.9276 155.225 97.9143 155.265 97.8876C155.305 97.8476 155.325 97.7676 155.325 97.6476C155.325 97.301 155.245 96.9543 155.085 96.6076C154.925 96.261 154.691 95.9743 154.385 95.7476C154.078 95.521 153.705 95.4076 153.265 95.4076C152.598 95.4076 152.051 95.641 151.625 96.1076C151.198 96.5743 150.991 97.1743 151.005 97.9076L154.985 97.9276ZM168.984 104.528C167.931 104.528 166.998 104.301 166.184 103.848C165.384 103.381 164.758 102.734 164.304 101.908C163.851 101.081 163.624 100.141 163.624 99.0876C163.624 97.9943 163.851 97.0276 164.304 96.1876C164.771 95.3476 165.411 94.6943 166.224 94.2276C167.051 93.761 167.978 93.5276 169.004 93.5276C170.058 93.5276 170.991 93.7676 171.804 94.2476C172.618 94.7143 173.244 95.3676 173.684 96.2076C174.138 97.0476 174.364 98.001 174.364 99.0676C174.364 100.121 174.138 101.061 173.684 101.888C173.231 102.714 172.598 103.361 171.784 103.828C170.971 104.294 170.038 104.528 168.984 104.528ZM169.004 102.488C169.738 102.488 170.291 102.201 170.664 101.628C171.051 101.041 171.244 100.174 171.244 99.0276C171.244 97.8676 171.051 96.9943 170.664 96.4076C170.291 95.8076 169.738 95.5076 169.004 95.5076C168.271 95.5076 167.711 95.8076 167.324 96.4076C166.938 96.9943 166.744 97.8676 166.744 99.0276C166.744 100.161 166.938 101.021 167.324 101.608C167.711 102.194 168.271 102.488 169.004 102.488ZM181.905 93.7276C182.025 93.7276 182.118 93.761 182.185 93.8276C182.252 93.8943 182.285 93.9743 182.285 94.0676V95.5476C182.285 95.7476 182.172 95.8476 181.945 95.8476H180.285C180.152 95.8476 180.085 95.921 180.085 96.0676V103.948C180.085 104.201 179.978 104.328 179.765 104.328H177.305C177.105 104.328 177.005 104.214 177.005 103.988V96.0276C177.005 95.9076 176.952 95.8476 176.845 95.8476H175.405C175.165 95.8476 175.045 95.7476 175.045 95.5476V94.0676C175.045 93.9743 175.078 93.8943 175.145 93.8276C175.212 93.761 175.305 93.7276 175.425 93.7276H176.765C176.858 93.7276 176.918 93.7076 176.945 93.6676C176.985 93.6143 177.005 93.5343 177.005 93.4276V92.2076C177.005 91.3543 177.258 90.6876 177.765 90.2076C178.272 89.7276 178.985 89.4876 179.905 89.4876H181.925C182.218 89.4876 182.365 89.6276 182.365 89.9076L182.385 91.2076C182.385 91.4343 182.285 91.5476 182.085 91.5476H181.005C180.712 91.5476 180.472 91.661 180.285 91.8876C180.098 92.101 180.005 92.381 180.005 92.7276V93.5076C180.005 93.6543 180.085 93.7276 180.245 93.7276H181.905ZM188.213 89.8676C188.213 89.6143 188.32 89.4876 188.533 89.4876H198.613C198.813 89.4876 198.913 89.601 198.913 89.8276L198.893 91.6276C198.893 91.9076 198.753 92.0476 198.473 92.0476H192.093C191.84 92.0476 191.713 92.1543 191.713 92.3676V95.2676C191.713 95.4943 191.813 95.6076 192.013 95.6076H196.253C196.48 95.6076 196.593 95.7143 196.593 95.9276V97.8476C196.593 98.0343 196.486 98.1276 196.273 98.1276H191.993C191.806 98.1276 191.713 98.2076 191.713 98.3676V101.508C191.713 101.601 191.726 101.668 191.753 101.708C191.793 101.748 191.853 101.768 191.933 101.768H198.773C199.013 101.768 199.133 101.868 199.133 102.068V103.968C199.133 104.208 199 104.328 198.733 104.328H188.653C188.493 104.328 188.38 104.294 188.313 104.228C188.246 104.161 188.213 104.054 188.213 103.908V89.8676ZM210.943 103.648C211.103 103.861 211.183 104.021 211.183 104.128C211.183 104.261 211.057 104.328 210.803 104.328H208.243C207.923 104.328 207.697 104.221 207.563 104.008L205.503 101.108C205.397 100.934 205.317 100.848 205.263 100.848C205.21 100.848 205.13 100.928 205.023 101.088L202.923 104.008C202.79 104.221 202.57 104.328 202.263 104.328H200.623C200.303 104.328 200.143 104.234 200.143 104.048C200.143 103.901 200.223 103.728 200.383 103.528L203.663 99.3076C203.743 99.1876 203.783 99.0943 203.783 99.0276C203.783 98.9343 203.737 98.821 203.643 98.6876L200.403 94.2876C200.35 94.221 200.323 94.141 200.323 94.0476C200.323 93.9676 200.357 93.8943 200.423 93.8276C200.49 93.761 200.583 93.7276 200.703 93.7276H203.143C203.317 93.7276 203.443 93.7543 203.523 93.8076C203.617 93.8476 203.703 93.9276 203.783 94.0476L205.643 96.6676C205.71 96.7743 205.77 96.8276 205.823 96.8276C205.863 96.8276 205.917 96.7743 205.983 96.6676L207.743 94.0476C207.823 93.9276 207.903 93.8476 207.983 93.8076C208.077 93.7543 208.217 93.7276 208.403 93.7276H210.203C210.43 93.7276 210.543 93.7943 210.543 93.9276C210.543 93.9943 210.503 94.081 210.423 94.1876L207.443 98.2276C207.363 98.321 207.323 98.4143 207.323 98.5076C207.323 98.5743 207.37 98.681 207.463 98.8276L210.943 103.648ZM215.3 93.7276C215.46 93.7276 215.573 93.761 215.64 93.8276C215.706 93.881 215.74 93.981 215.74 94.1276V94.7276C215.74 94.821 215.766 94.8676 215.82 94.8676C215.86 94.8676 215.926 94.8343 216.02 94.7676C216.433 94.381 216.853 94.081 217.28 93.8676C217.72 93.641 218.273 93.5276 218.94 93.5276C220.153 93.5276 221.14 93.9876 221.9 94.9076C222.66 95.8276 223.04 97.1743 223.04 98.9476C223.04 100.788 222.646 102.181 221.86 103.128C221.086 104.061 220.06 104.528 218.78 104.528C217.726 104.528 216.833 104.188 216.1 103.508C215.966 103.401 215.873 103.348 215.82 103.348C215.753 103.348 215.72 103.441 215.72 103.628V107.288C215.72 107.514 215.62 107.628 215.42 107.628H212.96C212.866 107.628 212.786 107.594 212.72 107.528C212.666 107.474 212.64 107.388 212.64 107.268V94.1676C212.64 94.0076 212.673 93.8943 212.74 93.8276C212.82 93.761 212.94 93.7276 213.1 93.7276H215.3ZM215.72 101.588C216.013 101.908 216.313 102.154 216.62 102.328C216.926 102.501 217.266 102.588 217.64 102.588C219.16 102.588 219.92 101.354 219.92 98.8876C219.92 97.661 219.726 96.7876 219.34 96.2676C218.953 95.7343 218.406 95.4676 217.7 95.4676C217.153 95.4676 216.686 95.6343 216.3 95.9676C215.913 96.2876 215.72 96.6543 215.72 97.0676V101.588ZM227.527 99.9276C227.527 100.674 227.774 101.281 228.267 101.748C228.774 102.201 229.4 102.428 230.147 102.428C230.627 102.428 231.067 102.328 231.467 102.128C231.88 101.914 232.294 101.568 232.707 101.088C232.76 101.034 232.814 101.008 232.867 101.008C232.907 101.008 232.974 101.028 233.067 101.068L234.507 101.668C234.6 101.708 234.647 101.774 234.647 101.868C234.647 101.934 234.62 102.001 234.567 102.068C233.927 102.974 233.24 103.614 232.507 103.988C231.774 104.348 230.86 104.528 229.767 104.528C228.74 104.528 227.814 104.301 226.987 103.848C226.16 103.394 225.514 102.768 225.047 101.968C224.58 101.154 224.347 100.228 224.347 99.1876C224.347 98.0676 224.587 97.081 225.067 96.2276C225.547 95.361 226.194 94.6943 227.007 94.2276C227.834 93.761 228.734 93.5276 229.707 93.5276C230.72 93.5276 231.62 93.7543 232.407 94.2076C233.194 94.6476 233.807 95.2876 234.247 96.1276C234.687 96.9676 234.907 97.9676 234.907 99.1276C234.907 99.301 234.887 99.421 234.847 99.4876C234.82 99.5543 234.727 99.5943 234.567 99.6076H227.767C227.607 99.6076 227.527 99.7143 227.527 99.9276ZM231.547 97.9276C231.694 97.9276 231.787 97.9143 231.827 97.8876C231.867 97.8476 231.887 97.7676 231.887 97.6476C231.887 97.301 231.807 96.9543 231.647 96.6076C231.487 96.261 231.254 95.9743 230.947 95.7476C230.64 95.521 230.267 95.4076 229.827 95.4076C229.16 95.4076 228.614 95.641 228.187 96.1076C227.76 96.5743 227.554 97.1743 227.567 97.9076L231.547 97.9276ZM236.966 104.328C236.819 104.328 236.713 104.301 236.646 104.248C236.579 104.181 236.546 104.074 236.546 103.928V94.1076C236.546 93.8543 236.653 93.7276 236.866 93.7276H239.286C239.486 93.7276 239.586 93.841 239.586 94.0676V95.0476C239.586 95.1543 239.619 95.2076 239.686 95.2076C239.726 95.2076 239.773 95.181 239.826 95.1276C240.373 94.6076 240.919 94.2143 241.466 93.9476C242.013 93.6676 242.593 93.5276 243.206 93.5276C244.179 93.5276 244.946 93.8143 245.506 94.3876C246.079 94.961 246.366 95.7276 246.366 96.6876V103.848C246.366 104.168 246.206 104.328 245.886 104.328H243.666C243.519 104.328 243.419 104.301 243.366 104.248C243.313 104.181 243.286 104.074 243.286 103.928V97.1676C243.286 96.7143 243.159 96.3676 242.906 96.1276C242.666 95.8743 242.306 95.7476 241.826 95.7476C241.426 95.7476 241.053 95.8476 240.706 96.0476C240.373 96.2476 240.013 96.561 239.626 96.9876V103.868C239.626 104.028 239.586 104.148 239.506 104.228C239.426 104.294 239.293 104.328 239.106 104.328H236.966ZM255 96.4876C254.453 95.7676 253.673 95.4076 252.66 95.4076C252.153 95.4076 251.733 95.5076 251.4 95.7076C251.067 95.8943 250.9 96.1543 250.9 96.4876C250.9 96.6743 250.973 96.8476 251.12 97.0076C251.28 97.1543 251.58 97.281 252.02 97.3876L254.32 97.9476C255.373 98.201 256.147 98.6076 256.64 99.1676C257.133 99.7143 257.38 100.361 257.38 101.108C257.38 102.161 256.94 102.994 256.06 103.608C255.18 104.221 254.027 104.528 252.6 104.528C251.453 104.528 250.46 104.328 249.62 103.928C248.78 103.514 248.187 102.981 247.84 102.328C247.773 102.234 247.74 102.148 247.74 102.068C247.74 101.974 247.787 101.908 247.88 101.868L249.24 101.168C249.347 101.114 249.44 101.088 249.52 101.088C249.6 101.088 249.673 101.121 249.74 101.188C250.033 101.601 250.387 101.934 250.8 102.188C251.227 102.428 251.787 102.548 252.48 102.548C253.107 102.548 253.613 102.454 254 102.268C254.4 102.081 254.6 101.808 254.6 101.448C254.6 101.208 254.5 101.008 254.3 100.848C254.1 100.688 253.76 100.548 253.28 100.428L251.22 99.9876C249.193 99.5476 248.18 98.541 248.18 96.9676C248.18 96.301 248.36 95.7076 248.72 95.1876C249.093 94.6676 249.62 94.261 250.3 93.9676C250.98 93.6743 251.78 93.5276 252.7 93.5276C253.673 93.5276 254.533 93.7076 255.28 94.0676C256.04 94.4276 256.587 94.881 256.92 95.4276C257 95.5343 257.04 95.6276 257.04 95.7076C257.04 95.7876 256.993 95.8543 256.9 95.9076L255.46 96.6076C255.42 96.6343 255.367 96.6476 255.3 96.6476C255.18 96.6476 255.08 96.5943 255 96.4876ZM261.765 99.9276C261.765 100.674 262.012 101.281 262.505 101.748C263.012 102.201 263.639 102.428 264.385 102.428C264.865 102.428 265.305 102.328 265.705 102.128C266.119 101.914 266.532 101.568 266.945 101.088C266.999 101.034 267.052 101.008 267.105 101.008C267.145 101.008 267.212 101.028 267.305 101.068L268.745 101.668C268.839 101.708 268.885 101.774 268.885 101.868C268.885 101.934 268.859 102.001 268.805 102.068C268.165 102.974 267.479 103.614 266.745 103.988C266.012 104.348 265.099 104.528 264.005 104.528C262.979 104.528 262.052 104.301 261.225 103.848C260.399 103.394 259.752 102.768 259.285 101.968C258.819 101.154 258.585 100.228 258.585 99.1876C258.585 98.0676 258.825 97.081 259.305 96.2276C259.785 95.361 260.432 94.6943 261.245 94.2276C262.072 93.761 262.972 93.5276 263.945 93.5276C264.959 93.5276 265.859 93.7543 266.645 94.2076C267.432 94.6476 268.045 95.2876 268.485 96.1276C268.925 96.9676 269.145 97.9676 269.145 99.1276C269.145 99.301 269.125 99.421 269.085 99.4876C269.059 99.5543 268.965 99.5943 268.805 99.6076H262.005C261.845 99.6076 261.765 99.7143 261.765 99.9276ZM265.785 97.9276C265.932 97.9276 266.025 97.9143 266.065 97.8876C266.105 97.8476 266.125 97.7676 266.125 97.6476C266.125 97.301 266.045 96.9543 265.885 96.6076C265.725 96.261 265.492 95.9743 265.185 95.7476C264.879 95.521 264.505 95.4076 264.065 95.4076C263.399 95.4076 262.852 95.641 262.425 96.1076C261.999 96.5743 261.792 97.1743 261.805 97.9076L265.785 97.9276ZM277.324 96.4876C276.777 95.7676 275.997 95.4076 274.984 95.4076C274.477 95.4076 274.057 95.5076 273.724 95.7076C273.391 95.8943 273.224 96.1543 273.224 96.4876C273.224 96.6743 273.297 96.8476 273.444 97.0076C273.604 97.1543 273.904 97.281 274.344 97.3876L276.644 97.9476C277.697 98.201 278.471 98.6076 278.964 99.1676C279.457 99.7143 279.704 100.361 279.704 101.108C279.704 102.161 279.264 102.994 278.384 103.608C277.504 104.221 276.351 104.528 274.924 104.528C273.777 104.528 272.784 104.328 271.944 103.928C271.104 103.514 270.511 102.981 270.164 102.328C270.097 102.234 270.064 102.148 270.064 102.068C270.064 101.974 270.111 101.908 270.204 101.868L271.564 101.168C271.671 101.114 271.764 101.088 271.844 101.088C271.924 101.088 271.997 101.121 272.064 101.188C272.357 101.601 272.711 101.934 273.124 102.188C273.551 102.428 274.111 102.548 274.804 102.548C275.431 102.548 275.937 102.454 276.324 102.268C276.724 102.081 276.924 101.808 276.924 101.448C276.924 101.208 276.824 101.008 276.624 100.848C276.424 100.688 276.084 100.548 275.604 100.428L273.544 99.9876C271.517 99.5476 270.504 98.541 270.504 96.9676C270.504 96.301 270.684 95.7076 271.044 95.1876C271.417 94.6676 271.944 94.261 272.624 93.9676C273.304 93.6743 274.104 93.5276 275.024 93.5276C275.997 93.5276 276.857 93.7076 277.604 94.0676C278.364 94.4276 278.911 94.881 279.244 95.4276C279.324 95.5343 279.364 95.6276 279.364 95.7076C279.364 95.7876 279.317 95.8543 279.224 95.9076L277.784 96.6076C277.744 96.6343 277.691 96.6476 277.624 96.6476C277.504 96.6476 277.404 96.5943 277.324 96.4876ZM284.45 96.7476C284.45 96.921 284.403 97.0476 284.31 97.1276C284.23 97.1943 284.09 97.2276 283.89 97.2276H281.53C281.236 97.2276 281.09 97.0876 281.09 96.8076V94.3276C281.09 94.2076 281.116 94.121 281.17 94.0676C281.236 94.001 281.316 93.9676 281.41 93.9676H284.15C284.35 93.9676 284.45 94.081 284.45 94.3076V96.7476ZM284.45 103.788C284.45 103.961 284.403 104.088 284.31 104.168C284.23 104.234 284.09 104.268 283.89 104.268H281.53C281.236 104.268 281.09 104.128 281.09 103.848V101.368C281.09 101.128 281.196 101.008 281.41 101.008H284.15C284.35 101.008 284.45 101.114 284.45 101.328V103.788Z" fill="#3A082C"/>
</svg>
