<svg width="983" height="123" viewBox="0 0 983 123" fill="none" xmlns="http://www.w3.org/2000/svg">
<path d="M979 61.788C979 44.0956 964.657 29.7531 946.965 29.7531H539.76V93.8228H946.965C964.657 93.8228 979 79.4803 979 61.788Z" fill="#7B73B1"/>
<path d="M947 29.788C964.673 29.788 979 44.1149 979 61.788C979 79.4611 964.673 93.788 947 93.788L108.531 93.788V29.788H947Z" stroke="#3A082C" stroke-width="8"/>
<circle cx="65.7536" cy="64.639" r="52.5261" fill="#EE8363"/>
<circle cx="61.1981" cy="61.6248" r="57.1981" stroke="#3A082C" stroke-width="8"/>
<path d="M78.7399 71.7819C78.7399 75.3419 77.5199 78.3219 75.0799 80.7219C72.6799 83.0819 69.4399 84.4619 65.3599 84.8619C64.9199 84.9019 64.6399 84.9819 64.5199 85.1019C64.3999 85.2219 64.3399 85.4619 64.3399 85.8219V87.9819C64.3399 88.4619 64.2199 88.8019 63.9799 89.0019C63.7799 89.2419 63.4199 89.3619 62.8999 89.3619H59.5999C58.7599 89.3619 58.3399 88.9619 58.3399 88.1619V85.7619C58.3399 85.4019 58.2799 85.1619 58.1599 85.0419C58.0399 84.9219 57.8199 84.8619 57.4999 84.8619C54.6199 84.7019 52.0999 84.1819 49.9399 83.3019C47.8199 82.3819 45.8199 81.0619 43.9399 79.3419C43.3399 78.8619 43.0399 78.4419 43.0399 78.0819C43.0399 77.8419 43.1399 77.6219 43.3399 77.4219L46.9399 73.5219C47.2999 73.1619 47.6199 72.9819 47.8999 72.9819C48.1399 72.9819 48.3999 73.1219 48.6799 73.4019C51.1999 76.1219 54.1599 77.7019 57.5599 78.1419L57.9199 78.2019C58.2399 78.2019 58.3999 77.9819 58.3999 77.5419L58.4599 67.2819C58.4599 66.9619 58.3999 66.7219 58.2799 66.5619C58.1599 66.3619 57.9199 66.2019 57.5599 66.0819C52.8399 65.0419 49.4399 63.4019 47.3599 61.1619C45.3199 58.9219 44.2999 56.1819 44.2999 52.9419C44.2999 49.7419 45.4399 47.0219 47.7199 44.7819C49.9999 42.5019 53.1999 41.0019 57.3199 40.2819C58.0799 40.0819 58.4599 39.7419 58.4599 39.2619V36.9819C58.4599 36.7419 58.5199 36.5419 58.6399 36.3819C58.7999 36.2219 58.9799 36.1419 59.1799 36.1419H63.2599C63.9799 36.1419 64.3399 36.5219 64.3399 37.2819V39.6819C64.3399 39.9219 64.5999 40.1019 65.1199 40.2219C69.1599 41.0619 72.6199 42.5619 75.4999 44.7219C75.8199 44.9219 75.9799 45.1819 75.9799 45.5019C75.9799 45.7019 75.8799 45.9419 75.6799 46.2219L72.4999 50.3019C72.2599 50.5819 72.0199 50.7219 71.7799 50.7219C71.4599 50.7219 71.1399 50.5619 70.8199 50.2419C70.1399 49.5619 69.2799 48.9419 68.2399 48.3819C67.2399 47.7819 66.1799 47.3419 65.0599 47.0619L64.8199 47.0019C64.4599 47.0019 64.2799 47.1819 64.2799 47.5419V57.6819C64.2799 57.9219 64.3199 58.1019 64.3999 58.2219C64.5199 58.3019 64.7199 58.3819 64.9999 58.4619L68.3599 59.3619C71.5199 60.3219 74.0399 61.9019 75.9199 64.1019C77.7999 66.2619 78.7399 68.8219 78.7399 71.7819ZM58.4599 47.4819C58.4599 46.8819 58.1999 46.6419 57.6799 46.7619C55.8799 47.0819 54.4999 47.7219 53.5399 48.6819C52.5799 49.6019 52.0999 50.7019 52.0999 51.9819C52.0999 53.2219 52.4999 54.2619 53.2999 55.1019C54.0999 55.9019 55.4199 56.5819 57.2599 57.1419C57.3399 57.1819 57.4599 57.2019 57.6199 57.2019C58.1799 57.2019 58.4599 56.8219 58.4599 56.0619V47.4819ZM64.2799 77.7819C64.2799 78.1419 64.5399 78.2819 65.0599 78.2019C66.8599 78.0019 68.2799 77.4419 69.3199 76.5219C70.3599 75.6019 70.8799 74.4819 70.8799 73.1619C70.8799 71.7619 70.4199 70.6019 69.4999 69.6819C68.5799 68.7619 67.0999 68.0219 65.0599 67.4619C64.9799 67.4219 64.8599 67.4019 64.6999 67.4019C64.4199 67.4019 64.2799 67.6219 64.2799 68.0619V77.7819Z" fill="white"/>
<path d="M671.397 67.084C671.397 69.22 670.665 71.008 669.201 72.448C667.761 73.864 665.817 74.692 663.369 74.932C663.105 74.956 662.937 75.004 662.865 75.076C662.793 75.148 662.757 75.292 662.757 75.508V76.804C662.757 77.092 662.685 77.296 662.541 77.416C662.421 77.56 662.205 77.632 661.893 77.632H659.913C659.409 77.632 659.157 77.392 659.157 76.912V75.472C659.157 75.256 659.121 75.112 659.049 75.04C658.977 74.968 658.845 74.932 658.653 74.932C656.925 74.836 655.413 74.524 654.117 73.996C652.845 73.444 651.645 72.652 650.517 71.62C650.157 71.332 649.977 71.08 649.977 70.864C649.977 70.72 650.037 70.588 650.157 70.468L652.317 68.128C652.533 67.912 652.725 67.804 652.893 67.804C653.037 67.804 653.193 67.888 653.361 68.056C654.873 69.688 656.649 70.636 658.689 70.9L658.905 70.936C659.097 70.936 659.193 70.804 659.193 70.54L659.229 64.384C659.229 64.192 659.193 64.048 659.121 63.952C659.049 63.832 658.905 63.736 658.689 63.664C655.857 63.04 653.817 62.056 652.569 60.712C651.345 59.368 650.733 57.724 650.733 55.78C650.733 53.86 651.417 52.228 652.785 50.884C654.153 49.516 656.073 48.616 658.545 48.184C659.001 48.064 659.229 47.86 659.229 47.572V46.204C659.229 46.06 659.265 45.94 659.337 45.844C659.433 45.748 659.541 45.7 659.661 45.7H662.109C662.541 45.7 662.757 45.928 662.757 46.384V47.824C662.757 47.968 662.913 48.076 663.225 48.148C665.649 48.652 667.725 49.552 669.453 50.848C669.645 50.968 669.741 51.124 669.741 51.316C669.741 51.436 669.681 51.58 669.561 51.748L667.653 54.196C667.509 54.364 667.365 54.448 667.221 54.448C667.029 54.448 666.837 54.352 666.645 54.16C666.237 53.752 665.721 53.38 665.097 53.044C664.497 52.684 663.861 52.42 663.189 52.252L663.045 52.216C662.829 52.216 662.721 52.324 662.721 52.54V58.624C662.721 58.768 662.745 58.876 662.793 58.948C662.865 58.996 662.985 59.044 663.153 59.092L665.169 59.632C667.065 60.208 668.577 61.156 669.705 62.476C670.833 63.772 671.397 65.308 671.397 67.084ZM659.229 52.504C659.229 52.144 659.073 52 658.761 52.072C657.681 52.264 656.853 52.648 656.277 53.224C655.701 53.776 655.413 54.436 655.413 55.204C655.413 55.948 655.653 56.572 656.133 57.076C656.613 57.556 657.405 57.964 658.509 58.3C658.557 58.324 658.629 58.336 658.725 58.336C659.061 58.336 659.229 58.108 659.229 57.652V52.504ZM662.721 70.684C662.721 70.9 662.877 70.984 663.189 70.936C664.269 70.816 665.121 70.48 665.745 69.928C666.369 69.376 666.681 68.704 666.681 67.912C666.681 67.072 666.405 66.376 665.853 65.824C665.301 65.272 664.413 64.828 663.189 64.492C663.141 64.468 663.069 64.456 662.973 64.456C662.805 64.456 662.721 64.588 662.721 64.852V70.684ZM689.119 70.144C689.551 70.144 689.767 70.324 689.767 70.684V74.176C689.767 74.344 689.707 74.488 689.587 74.608C689.467 74.728 689.287 74.788 689.047 74.788H674.827C674.371 74.788 674.143 74.584 674.143 74.176V70.684C674.143 70.324 674.347 70.144 674.755 70.144H678.499C678.763 70.144 678.895 70.06 678.895 69.892V54.772C678.895 54.58 678.859 54.46 678.787 54.412C678.715 54.34 678.583 54.328 678.391 54.376L674.899 55.42L674.647 55.456C674.287 55.456 674.107 55.216 674.107 54.736V52.36C674.107 52.12 674.143 51.952 674.215 51.856C674.287 51.736 674.431 51.616 674.647 51.496L680.659 48.508C680.995 48.34 681.259 48.232 681.451 48.184C681.667 48.112 681.907 48.076 682.171 48.076H684.655C684.823 48.076 684.955 48.136 685.051 48.256C685.147 48.376 685.195 48.532 685.195 48.724V69.784C685.195 70.024 685.303 70.144 685.519 70.144H689.119ZM703.763 47.68C705.899 47.68 707.807 48.256 709.487 49.408C711.167 50.56 712.487 52.18 713.447 54.268C714.407 56.356 714.887 58.768 714.887 61.504C714.887 64.24 714.407 66.64 713.447 68.704C712.511 70.744 711.203 72.328 709.523 73.456C707.843 74.56 705.923 75.112 703.763 75.112C701.603 75.112 699.671 74.56 697.967 73.456C696.287 72.328 694.967 70.744 694.007 68.704C693.071 66.64 692.603 64.252 692.603 61.54C692.603 58.804 693.083 56.392 694.043 54.304C695.003 52.192 696.323 50.56 698.003 49.408C699.707 48.256 701.627 47.68 703.763 47.68ZM703.763 70.648C705.371 70.648 706.559 69.94 707.327 68.524C708.095 67.108 708.479 64.78 708.479 61.54C708.479 58.228 708.083 55.828 707.291 54.34C706.523 52.828 705.335 52.072 703.727 52.072C702.143 52.072 700.955 52.828 700.163 54.34C699.371 55.852 698.975 58.252 698.975 61.54C698.975 64.756 699.371 67.084 700.163 68.524C700.955 69.94 702.155 70.648 703.763 70.648ZM729.252 47.68C731.388 47.68 733.296 48.256 734.976 49.408C736.656 50.56 737.976 52.18 738.936 54.268C739.896 56.356 740.376 58.768 740.376 61.504C740.376 64.24 739.896 66.64 738.936 68.704C738 70.744 736.692 72.328 735.012 73.456C733.332 74.56 731.412 75.112 729.252 75.112C727.092 75.112 725.16 74.56 723.456 73.456C721.776 72.328 720.456 70.744 719.496 68.704C718.56 66.64 718.092 64.252 718.092 61.54C718.092 58.804 718.572 56.392 719.532 54.304C720.492 52.192 721.812 50.56 723.492 49.408C725.196 48.256 727.116 47.68 729.252 47.68ZM729.252 70.648C730.86 70.648 732.048 69.94 732.816 68.524C733.584 67.108 733.968 64.78 733.968 61.54C733.968 58.228 733.572 55.828 732.78 54.34C732.012 52.828 730.824 52.072 729.216 52.072C727.632 52.072 726.444 52.828 725.652 54.34C724.86 55.852 724.464 58.252 724.464 61.54C724.464 64.756 724.86 67.084 725.652 68.524C726.444 69.94 727.644 70.648 729.252 70.648ZM761.294 66.508C761.294 67.036 760.982 67.3 760.358 67.3H751.898C751.61 67.3 751.406 67.252 751.286 67.156C751.19 67.036 751.142 66.844 751.142 66.58V63.952C751.142 63.52 751.322 63.304 751.682 63.304H760.754C760.922 63.304 761.054 63.352 761.15 63.448C761.246 63.544 761.294 63.676 761.294 63.844V66.508ZM792.792 67.084C792.792 69.22 792.06 71.008 790.596 72.448C789.156 73.864 787.212 74.692 784.764 74.932C784.5 74.956 784.332 75.004 784.26 75.076C784.188 75.148 784.152 75.292 784.152 75.508V76.804C784.152 77.092 784.08 77.296 783.936 77.416C783.816 77.56 783.6 77.632 783.288 77.632H781.308C780.804 77.632 780.552 77.392 780.552 76.912V75.472C780.552 75.256 780.516 75.112 780.444 75.04C780.372 74.968 780.24 74.932 780.048 74.932C778.32 74.836 776.808 74.524 775.512 73.996C774.24 73.444 773.04 72.652 771.912 71.62C771.552 71.332 771.372 71.08 771.372 70.864C771.372 70.72 771.432 70.588 771.552 70.468L773.712 68.128C773.928 67.912 774.12 67.804 774.288 67.804C774.432 67.804 774.588 67.888 774.756 68.056C776.268 69.688 778.044 70.636 780.084 70.9L780.3 70.936C780.492 70.936 780.588 70.804 780.588 70.54L780.624 64.384C780.624 64.192 780.588 64.048 780.516 63.952C780.444 63.832 780.3 63.736 780.084 63.664C777.252 63.04 775.212 62.056 773.964 60.712C772.74 59.368 772.128 57.724 772.128 55.78C772.128 53.86 772.812 52.228 774.18 50.884C775.548 49.516 777.468 48.616 779.94 48.184C780.396 48.064 780.624 47.86 780.624 47.572V46.204C780.624 46.06 780.66 45.94 780.732 45.844C780.828 45.748 780.936 45.7 781.056 45.7H783.504C783.936 45.7 784.152 45.928 784.152 46.384V47.824C784.152 47.968 784.308 48.076 784.62 48.148C787.044 48.652 789.12 49.552 790.848 50.848C791.04 50.968 791.136 51.124 791.136 51.316C791.136 51.436 791.076 51.58 790.956 51.748L789.048 54.196C788.904 54.364 788.76 54.448 788.616 54.448C788.424 54.448 788.232 54.352 788.04 54.16C787.632 53.752 787.116 53.38 786.492 53.044C785.892 52.684 785.256 52.42 784.584 52.252L784.44 52.216C784.224 52.216 784.116 52.324 784.116 52.54V58.624C784.116 58.768 784.14 58.876 784.188 58.948C784.26 58.996 784.38 59.044 784.548 59.092L786.564 59.632C788.46 60.208 789.972 61.156 791.1 62.476C792.228 63.772 792.792 65.308 792.792 67.084ZM780.624 52.504C780.624 52.144 780.468 52 780.156 52.072C779.076 52.264 778.248 52.648 777.672 53.224C777.096 53.776 776.808 54.436 776.808 55.204C776.808 55.948 777.048 56.572 777.528 57.076C778.008 57.556 778.8 57.964 779.904 58.3C779.952 58.324 780.024 58.336 780.12 58.336C780.456 58.336 780.624 58.108 780.624 57.652V52.504ZM784.116 70.684C784.116 70.9 784.272 70.984 784.584 70.936C785.664 70.816 786.516 70.48 787.14 69.928C787.764 69.376 788.076 68.704 788.076 67.912C788.076 67.072 787.8 66.376 787.248 65.824C786.696 65.272 785.808 64.828 784.584 64.492C784.536 64.468 784.464 64.456 784.368 64.456C784.2 64.456 784.116 64.588 784.116 64.852V70.684ZM807.453 47.752C808.917 47.752 810.249 48.004 811.449 48.508C812.673 49.012 813.669 49.648 814.437 50.416C815.205 51.16 815.721 51.904 815.985 52.648C816.009 52.72 816.021 52.816 816.021 52.936C816.021 53.176 815.901 53.344 815.661 53.44L811.737 54.7C811.689 54.724 811.629 54.736 811.557 54.736C811.341 54.736 811.173 54.592 811.053 54.304C810.525 53.584 809.997 53.044 809.469 52.684C808.965 52.324 808.293 52.144 807.453 52.144C805.701 52.144 804.333 52.78 803.349 54.052C802.389 55.324 801.909 56.992 801.909 59.056C801.909 59.392 801.921 59.62 801.945 59.74C801.993 59.86 802.089 59.92 802.233 59.92C802.257 59.92 802.413 59.872 802.701 59.776C803.781 59.32 804.693 58.984 805.437 58.768C806.205 58.552 807.105 58.444 808.137 58.444C809.961 58.444 811.569 58.78 812.961 59.452C814.377 60.124 815.469 61.06 816.237 62.26C817.005 63.46 817.389 64.828 817.389 66.364C817.389 68.044 816.921 69.556 815.985 70.9C815.073 72.22 813.825 73.252 812.241 73.996C810.657 74.74 808.893 75.112 806.949 75.112C804.645 75.112 802.641 74.584 800.937 73.528C799.257 72.448 797.961 70.924 797.049 68.956C796.137 66.988 795.681 64.672 795.681 62.008C795.681 59.08 796.161 56.548 797.121 54.412C798.105 52.252 799.485 50.608 801.261 49.48C803.037 48.328 805.101 47.752 807.453 47.752ZM806.841 62.584C806.121 62.584 805.329 62.704 804.465 62.944C803.625 63.184 802.965 63.472 802.485 63.808C802.269 63.952 802.125 64.108 802.053 64.276C802.005 64.42 801.981 64.672 801.981 65.032C801.981 66.664 802.413 68.068 803.277 69.244C804.141 70.396 805.305 70.972 806.769 70.972C808.017 70.972 809.061 70.552 809.901 69.712C810.741 68.872 811.161 67.828 811.161 66.58C811.161 65.38 810.753 64.42 809.937 63.7C809.121 62.956 808.089 62.584 806.841 62.584ZM831.486 47.68C833.622 47.68 835.53 48.256 837.21 49.408C838.89 50.56 840.21 52.18 841.17 54.268C842.13 56.356 842.61 58.768 842.61 61.504C842.61 64.24 842.13 66.64 841.17 68.704C840.234 70.744 838.926 72.328 837.246 73.456C835.566 74.56 833.646 75.112 831.486 75.112C829.326 75.112 827.394 74.56 825.69 73.456C824.01 72.328 822.69 70.744 821.73 68.704C820.794 66.64 820.326 64.252 820.326 61.54C820.326 58.804 820.806 56.392 821.766 54.304C822.726 52.192 824.046 50.56 825.726 49.408C827.43 48.256 829.35 47.68 831.486 47.68ZM831.486 70.648C833.094 70.648 834.282 69.94 835.05 68.524C835.818 67.108 836.202 64.78 836.202 61.54C836.202 58.228 835.806 55.828 835.014 54.34C834.246 52.828 833.058 52.072 831.45 52.072C829.866 52.072 828.678 52.828 827.886 54.34C827.094 55.852 826.698 58.252 826.698 61.54C826.698 64.756 827.094 67.084 827.886 68.524C828.678 69.94 829.878 70.648 831.486 70.648ZM856.974 47.68C859.11 47.68 861.018 48.256 862.698 49.408C864.378 50.56 865.698 52.18 866.658 54.268C867.618 56.356 868.098 58.768 868.098 61.504C868.098 64.24 867.618 66.64 866.658 68.704C865.722 70.744 864.414 72.328 862.734 73.456C861.054 74.56 859.134 75.112 856.974 75.112C854.814 75.112 852.882 74.56 851.178 73.456C849.498 72.328 848.178 70.744 847.218 68.704C846.282 66.64 845.814 64.252 845.814 61.54C845.814 58.804 846.294 56.392 847.254 54.304C848.214 52.192 849.534 50.56 851.214 49.408C852.918 48.256 854.838 47.68 856.974 47.68ZM856.974 70.648C858.582 70.648 859.77 69.94 860.538 68.524C861.306 67.108 861.69 64.78 861.69 61.54C861.69 58.228 861.294 55.828 860.502 54.34C859.734 52.828 858.546 52.072 856.938 52.072C855.354 52.072 854.166 52.828 853.374 54.34C852.582 55.852 852.186 58.252 852.186 61.54C852.186 64.756 852.582 67.084 853.374 68.524C854.166 69.94 855.366 70.648 856.974 70.648Z" fill="white"/>
<path d="M166.601 70.788C166.361 70.788 166.241 70.652 166.241 70.38C166.241 70.252 166.257 70.156 166.289 70.092L172.265 53.46C172.329 53.284 172.401 53.164 172.481 53.1C172.577 53.02 172.713 52.98 172.889 52.98H176.489C176.665 52.98 176.817 53.028 176.945 53.124C177.073 53.22 177.161 53.348 177.209 53.508L183.137 70.14C183.169 70.236 183.185 70.308 183.185 70.356C183.185 70.484 183.153 70.588 183.089 70.668C183.041 70.748 182.961 70.788 182.849 70.788H179.321C179.081 70.788 178.929 70.676 178.865 70.452L177.617 66.948C177.585 66.852 177.545 66.788 177.497 66.756C177.465 66.708 177.401 66.684 177.305 66.684H171.449C171.289 66.684 171.185 66.764 171.137 66.924L169.865 70.476C169.769 70.684 169.601 70.788 169.361 70.788H166.601ZM176.321 63.492C176.481 63.492 176.561 63.428 176.561 63.3C176.561 63.204 176.553 63.132 176.537 63.084L174.521 57.468C174.473 57.372 174.417 57.324 174.353 57.324C174.305 57.324 174.257 57.38 174.209 57.492L172.169 63.084C172.137 63.18 172.121 63.252 172.121 63.3C172.121 63.428 172.209 63.492 172.385 63.492H176.321ZM195.564 58.068C195.708 58.068 195.812 58.124 195.876 58.236C195.94 58.348 195.948 58.476 195.9 58.62L191.148 70.284C191.004 70.62 190.748 70.788 190.38 70.788H188.676C188.308 70.788 188.052 70.62 187.908 70.284L183.18 58.644C183.148 58.548 183.132 58.484 183.132 58.452C183.132 58.34 183.172 58.252 183.252 58.188C183.332 58.108 183.428 58.068 183.54 58.068H186.588C186.86 58.068 187.036 58.204 187.116 58.476L189.876 65.556C189.956 65.7 190.02 65.772 190.068 65.772C190.132 65.772 190.196 65.692 190.26 65.532L192.972 58.452C193.084 58.196 193.26 58.068 193.5 58.068H195.564ZM200.244 65.508C200.244 66.404 200.54 67.132 201.132 67.692C201.74 68.236 202.492 68.508 203.388 68.508C203.964 68.508 204.492 68.388 204.972 68.148C205.468 67.892 205.964 67.476 206.46 66.9C206.524 66.836 206.588 66.804 206.652 66.804C206.7 66.804 206.78 66.828 206.892 66.876L208.62 67.596C208.732 67.644 208.788 67.724 208.788 67.836C208.788 67.916 208.756 67.996 208.692 68.076C207.924 69.164 207.1 69.932 206.22 70.38C205.34 70.812 204.244 71.028 202.932 71.028C201.7 71.028 200.588 70.756 199.596 70.212C198.604 69.668 197.828 68.916 197.268 67.956C196.708 66.98 196.428 65.868 196.428 64.62C196.428 63.276 196.716 62.092 197.292 61.068C197.868 60.028 198.644 59.228 199.62 58.668C200.612 58.108 201.692 57.828 202.86 57.828C204.076 57.828 205.156 58.1 206.1 58.644C207.044 59.172 207.78 59.94 208.308 60.948C208.836 61.956 209.1 63.156 209.1 64.548C209.1 64.756 209.076 64.9 209.028 64.98C208.996 65.06 208.884 65.108 208.692 65.124H200.532C200.34 65.124 200.244 65.252 200.244 65.508ZM205.068 63.108C205.244 63.108 205.356 63.092 205.404 63.06C205.452 63.012 205.476 62.916 205.476 62.772C205.476 62.356 205.38 61.94 205.188 61.524C204.996 61.108 204.716 60.764 204.348 60.492C203.98 60.22 203.532 60.084 203.004 60.084C202.204 60.084 201.548 60.364 201.036 60.924C200.524 61.484 200.276 62.204 200.292 63.084L205.068 63.108ZM211.57 70.788C211.234 70.788 211.066 70.628 211.066 70.308V58.524C211.066 58.22 211.194 58.068 211.45 58.068H214.258C214.514 58.068 214.642 58.204 214.642 58.476V59.892C214.642 59.956 214.658 60.004 214.69 60.036C214.722 60.068 214.754 60.084 214.786 60.084C214.834 60.084 214.898 60.044 214.978 59.964C215.458 59.324 216.026 58.812 216.682 58.428C217.338 58.028 217.962 57.828 218.554 57.828C219.13 57.828 219.418 57.964 219.418 58.236V61.02C219.418 61.132 219.386 61.22 219.322 61.284C219.258 61.348 219.17 61.364 219.058 61.332C218.546 61.204 217.986 61.14 217.378 61.14C216.978 61.14 216.57 61.244 216.154 61.452C215.754 61.644 215.418 61.908 215.146 62.244C214.89 62.564 214.762 62.892 214.762 63.228V70.236C214.762 70.604 214.554 70.788 214.138 70.788H211.57ZM228.129 69.564C227.073 70.54 225.817 71.028 224.361 71.028C223.161 71.028 222.209 70.708 221.505 70.068C220.801 69.412 220.449 68.564 220.449 67.524C220.449 66.18 221.065 65.1 222.297 64.284C223.529 63.468 225.225 63.036 227.385 62.988L228.249 62.916C228.345 62.916 228.425 62.892 228.489 62.844C228.569 62.78 228.609 62.692 228.609 62.58V62.076C228.609 61.452 228.433 60.972 228.081 60.636C227.729 60.3 227.225 60.132 226.569 60.132C225.449 60.132 224.617 60.612 224.073 61.572C224.009 61.732 223.905 61.812 223.761 61.812C223.681 61.812 223.609 61.804 223.545 61.788L221.145 61.236C221.001 61.204 220.929 61.116 220.929 60.972C220.929 60.876 220.961 60.756 221.025 60.612C221.409 59.684 222.089 58.988 223.065 58.524C224.057 58.06 225.281 57.828 226.737 57.828C228.641 57.828 230.017 58.18 230.865 58.884C231.713 59.572 232.137 60.556 232.137 61.836V70.26C232.137 70.452 232.105 70.588 232.041 70.668C231.977 70.748 231.857 70.788 231.681 70.788H229.209C229.049 70.788 228.929 70.732 228.849 70.62C228.785 70.508 228.737 70.34 228.705 70.116L228.681 69.588C228.665 69.444 228.601 69.372 228.489 69.372C228.425 69.372 228.305 69.436 228.129 69.564ZM228.609 65.124C228.609 64.98 228.585 64.876 228.537 64.812C228.489 64.748 228.393 64.716 228.249 64.716L227.577 64.764C226.649 64.812 225.825 65.036 225.105 65.436C224.401 65.82 224.049 66.356 224.049 67.044C224.049 67.524 224.217 67.908 224.553 68.196C224.889 68.468 225.353 68.604 225.945 68.604C226.681 68.604 227.305 68.388 227.817 67.956C228.345 67.54 228.609 67.116 228.609 66.684V65.124ZM247.508 57.516C247.828 57.516 247.988 57.692 247.988 58.044V59.676C247.988 60.124 247.804 60.308 247.436 60.228C247.196 60.18 246.964 60.156 246.74 60.156C246.612 60.156 246.468 60.172 246.308 60.204C245.892 60.268 245.732 60.452 245.828 60.756C245.972 61.188 246.044 61.548 246.044 61.836C246.044 62.572 245.82 63.236 245.372 63.828C244.94 64.42 244.284 64.892 243.404 65.244C242.54 65.596 241.492 65.772 240.26 65.772C239.364 65.772 238.7 65.844 238.268 65.988C237.852 66.132 237.644 66.324 237.644 66.564C237.644 66.772 237.756 66.924 237.98 67.02C238.22 67.1 238.612 67.156 239.156 67.188L242.588 67.38C244.172 67.476 245.348 67.828 246.116 68.436C246.9 69.044 247.292 69.852 247.292 70.86C247.292 72.108 246.7 73.108 245.516 73.86C244.332 74.612 242.652 74.988 240.476 74.988C235.82 74.988 233.492 73.956 233.492 71.892C233.492 71.38 233.692 70.948 234.092 70.596C234.492 70.228 235.06 69.908 235.796 69.636C235.892 69.604 235.94 69.564 235.94 69.516C235.94 69.468 235.892 69.42 235.796 69.372C234.868 68.924 234.404 68.332 234.404 67.596C234.404 67.164 234.612 66.764 235.028 66.396C235.46 66.012 236.028 65.684 236.732 65.412C236.924 65.316 236.94 65.22 236.78 65.124C235.228 64.404 234.452 63.316 234.452 61.86C234.452 60.644 234.972 59.676 236.012 58.956C237.068 58.236 238.572 57.876 240.524 57.876C242.172 57.876 243.452 58.236 244.364 58.956C244.476 59.036 244.58 59.076 244.676 59.076C244.804 59.076 244.916 59.02 245.012 58.908C245.316 58.54 245.716 58.22 246.212 57.948C246.708 57.66 247.14 57.516 247.508 57.516ZM240.236 63.948C241.052 63.948 241.66 63.764 242.06 63.396C242.476 63.012 242.684 62.516 242.684 61.908C242.684 61.236 242.476 60.708 242.06 60.324C241.66 59.924 241.052 59.724 240.236 59.724C239.468 59.724 238.86 59.924 238.412 60.324C237.98 60.724 237.764 61.252 237.764 61.908C237.764 62.516 237.98 63.012 238.412 63.396C238.86 63.764 239.468 63.948 240.236 63.948ZM238.46 70.068C237.964 70.036 237.516 70.156 237.116 70.428C236.732 70.684 236.54 71.012 236.54 71.412C236.54 72.004 236.868 72.452 237.524 72.756C238.18 73.06 239.244 73.212 240.716 73.212C241.788 73.212 242.612 73.06 243.188 72.756C243.764 72.468 244.052 72.052 244.052 71.508C244.052 71.14 243.892 70.844 243.572 70.62C243.252 70.396 242.78 70.268 242.156 70.236L238.46 70.068ZM252.556 65.508C252.556 66.404 252.852 67.132 253.444 67.692C254.052 68.236 254.804 68.508 255.7 68.508C256.276 68.508 256.804 68.388 257.284 68.148C257.78 67.892 258.276 67.476 258.772 66.9C258.836 66.836 258.9 66.804 258.964 66.804C259.012 66.804 259.092 66.828 259.204 66.876L260.932 67.596C261.044 67.644 261.1 67.724 261.1 67.836C261.1 67.916 261.068 67.996 261.004 68.076C260.236 69.164 259.412 69.932 258.532 70.38C257.652 70.812 256.556 71.028 255.244 71.028C254.012 71.028 252.9 70.756 251.908 70.212C250.916 69.668 250.14 68.916 249.58 67.956C249.02 66.98 248.74 65.868 248.74 64.62C248.74 63.276 249.028 62.092 249.604 61.068C250.18 60.028 250.956 59.228 251.932 58.668C252.924 58.108 254.004 57.828 255.172 57.828C256.388 57.828 257.468 58.1 258.412 58.644C259.356 59.172 260.092 59.94 260.62 60.948C261.148 61.956 261.412 63.156 261.412 64.548C261.412 64.756 261.388 64.9 261.34 64.98C261.308 65.06 261.196 65.108 261.004 65.124H252.844C252.652 65.124 252.556 65.252 252.556 65.508ZM257.38 63.108C257.556 63.108 257.668 63.092 257.716 63.06C257.764 63.012 257.788 62.916 257.788 62.772C257.788 62.356 257.692 61.94 257.5 61.524C257.308 61.108 257.028 60.764 256.66 60.492C256.292 60.22 255.844 60.084 255.316 60.084C254.516 60.084 253.86 60.364 253.348 60.924C252.836 61.484 252.588 62.204 252.604 63.084L257.38 63.108ZM283.132 70.14C283.164 70.236 283.18 70.308 283.18 70.356C283.18 70.484 283.14 70.588 283.06 70.668C282.98 70.748 282.884 70.788 282.772 70.788H279.244C278.972 70.788 278.796 70.644 278.716 70.356L276.124 63.636C276.076 63.508 276.004 63.42 275.908 63.372C275.812 63.324 275.66 63.3 275.452 63.3H273.172C273.076 63.3 273.004 63.332 272.956 63.396C272.908 63.444 272.884 63.5 272.884 63.564V70.212C272.884 70.42 272.828 70.572 272.716 70.668C272.62 70.748 272.46 70.788 272.236 70.788H269.188C268.996 70.788 268.86 70.748 268.78 70.668C268.716 70.588 268.684 70.468 268.684 70.308V53.436C268.684 53.132 268.812 52.98 269.068 52.98H276.556C278.716 52.98 280.388 53.404 281.572 54.252C282.756 55.1 283.348 56.308 283.348 57.876C283.348 59.044 283.036 60.044 282.412 60.876C281.788 61.692 281.004 62.268 280.06 62.604C279.932 62.652 279.9 62.772 279.964 62.964L283.132 70.14ZM276.172 60.468C277.1 60.468 277.804 60.276 278.284 59.892C278.764 59.492 279.004 58.916 279.004 58.164C279.004 57.396 278.756 56.812 278.26 56.412C277.78 55.996 277.124 55.788 276.292 55.788H273.34C273.164 55.788 273.044 55.82 272.98 55.884C272.916 55.932 272.884 56.028 272.884 56.172V60.06C272.884 60.204 272.908 60.308 272.956 60.372C273.004 60.436 273.092 60.468 273.22 60.468H276.172ZM292.652 69.564C291.596 70.54 290.34 71.028 288.884 71.028C287.684 71.028 286.732 70.708 286.028 70.068C285.324 69.412 284.972 68.564 284.972 67.524C284.972 66.18 285.588 65.1 286.82 64.284C288.052 63.468 289.748 63.036 291.908 62.988L292.772 62.916C292.868 62.916 292.948 62.892 293.012 62.844C293.092 62.78 293.132 62.692 293.132 62.58V62.076C293.132 61.452 292.956 60.972 292.604 60.636C292.252 60.3 291.748 60.132 291.092 60.132C289.972 60.132 289.14 60.612 288.596 61.572C288.532 61.732 288.428 61.812 288.284 61.812C288.204 61.812 288.132 61.804 288.068 61.788L285.668 61.236C285.524 61.204 285.452 61.116 285.452 60.972C285.452 60.876 285.484 60.756 285.548 60.612C285.932 59.684 286.612 58.988 287.588 58.524C288.58 58.06 289.804 57.828 291.26 57.828C293.164 57.828 294.54 58.18 295.388 58.884C296.236 59.572 296.66 60.556 296.66 61.836V70.26C296.66 70.452 296.628 70.588 296.564 70.668C296.5 70.748 296.38 70.788 296.204 70.788H293.732C293.572 70.788 293.452 70.732 293.372 70.62C293.308 70.508 293.26 70.34 293.228 70.116L293.204 69.588C293.188 69.444 293.124 69.372 293.012 69.372C292.948 69.372 292.828 69.436 292.652 69.564ZM293.132 65.124C293.132 64.98 293.108 64.876 293.06 64.812C293.012 64.748 292.916 64.716 292.772 64.716L292.1 64.764C291.172 64.812 290.348 65.036 289.628 65.436C288.924 65.82 288.572 66.356 288.572 67.044C288.572 67.524 288.74 67.908 289.076 68.196C289.412 68.468 289.876 68.604 290.468 68.604C291.204 68.604 291.828 68.388 292.34 67.956C292.868 67.54 293.132 67.116 293.132 66.684V65.124ZM299.672 70.788C299.496 70.788 299.368 70.756 299.288 70.692C299.208 70.612 299.168 70.484 299.168 70.308V58.524C299.168 58.22 299.296 58.068 299.552 58.068H302.456C302.696 58.068 302.816 58.204 302.816 58.476V59.652C302.816 59.78 302.856 59.844 302.936 59.844C302.984 59.844 303.04 59.812 303.104 59.748C303.76 59.124 304.416 58.652 305.072 58.332C305.728 57.996 306.424 57.828 307.16 57.828C308.328 57.828 309.248 58.172 309.92 58.86C310.608 59.548 310.952 60.468 310.952 61.62V70.212C310.952 70.596 310.76 70.788 310.376 70.788H307.712C307.536 70.788 307.416 70.756 307.352 70.692C307.288 70.612 307.256 70.484 307.256 70.308V62.196C307.256 61.652 307.104 61.236 306.8 60.948C306.512 60.644 306.08 60.492 305.504 60.492C305.024 60.492 304.576 60.612 304.16 60.852C303.76 61.092 303.328 61.468 302.864 61.98V70.236C302.864 70.428 302.816 70.572 302.72 70.668C302.624 70.748 302.464 70.788 302.24 70.788H299.672ZM326.329 57.516C326.649 57.516 326.809 57.692 326.809 58.044V59.676C326.809 60.124 326.625 60.308 326.257 60.228C326.017 60.18 325.785 60.156 325.561 60.156C325.433 60.156 325.289 60.172 325.129 60.204C324.713 60.268 324.553 60.452 324.649 60.756C324.793 61.188 324.865 61.548 324.865 61.836C324.865 62.572 324.641 63.236 324.193 63.828C323.761 64.42 323.105 64.892 322.225 65.244C321.361 65.596 320.313 65.772 319.081 65.772C318.185 65.772 317.521 65.844 317.089 65.988C316.673 66.132 316.465 66.324 316.465 66.564C316.465 66.772 316.577 66.924 316.801 67.02C317.041 67.1 317.433 67.156 317.977 67.188L321.409 67.38C322.993 67.476 324.169 67.828 324.937 68.436C325.721 69.044 326.113 69.852 326.113 70.86C326.113 72.108 325.521 73.108 324.337 73.86C323.153 74.612 321.473 74.988 319.297 74.988C314.641 74.988 312.313 73.956 312.313 71.892C312.313 71.38 312.513 70.948 312.913 70.596C313.313 70.228 313.881 69.908 314.617 69.636C314.713 69.604 314.761 69.564 314.761 69.516C314.761 69.468 314.713 69.42 314.617 69.372C313.689 68.924 313.225 68.332 313.225 67.596C313.225 67.164 313.433 66.764 313.849 66.396C314.281 66.012 314.849 65.684 315.553 65.412C315.745 65.316 315.761 65.22 315.601 65.124C314.049 64.404 313.273 63.316 313.273 61.86C313.273 60.644 313.793 59.676 314.833 58.956C315.889 58.236 317.393 57.876 319.345 57.876C320.993 57.876 322.273 58.236 323.185 58.956C323.297 59.036 323.401 59.076 323.497 59.076C323.625 59.076 323.737 59.02 323.833 58.908C324.137 58.54 324.537 58.22 325.033 57.948C325.529 57.66 325.961 57.516 326.329 57.516ZM319.057 63.948C319.873 63.948 320.481 63.764 320.881 63.396C321.297 63.012 321.505 62.516 321.505 61.908C321.505 61.236 321.297 60.708 320.881 60.324C320.481 59.924 319.873 59.724 319.057 59.724C318.289 59.724 317.681 59.924 317.233 60.324C316.801 60.724 316.585 61.252 316.585 61.908C316.585 62.516 316.801 63.012 317.233 63.396C317.681 63.764 318.289 63.948 319.057 63.948ZM317.281 70.068C316.785 70.036 316.337 70.156 315.937 70.428C315.553 70.684 315.361 71.012 315.361 71.412C315.361 72.004 315.689 72.452 316.345 72.756C317.001 73.06 318.065 73.212 319.537 73.212C320.609 73.212 321.433 73.06 322.009 72.756C322.585 72.468 322.873 72.052 322.873 71.508C322.873 71.14 322.713 70.844 322.393 70.62C322.073 70.396 321.601 70.268 320.977 70.236L317.281 70.068ZM331.377 65.508C331.377 66.404 331.673 67.132 332.265 67.692C332.873 68.236 333.625 68.508 334.521 68.508C335.097 68.508 335.625 68.388 336.105 68.148C336.601 67.892 337.097 67.476 337.593 66.9C337.657 66.836 337.721 66.804 337.785 66.804C337.833 66.804 337.913 66.828 338.025 66.876L339.753 67.596C339.865 67.644 339.921 67.724 339.921 67.836C339.921 67.916 339.889 67.996 339.825 68.076C339.057 69.164 338.233 69.932 337.353 70.38C336.473 70.812 335.377 71.028 334.065 71.028C332.833 71.028 331.721 70.756 330.729 70.212C329.737 69.668 328.961 68.916 328.401 67.956C327.841 66.98 327.561 65.868 327.561 64.62C327.561 63.276 327.849 62.092 328.425 61.068C329.001 60.028 329.777 59.228 330.753 58.668C331.745 58.108 332.825 57.828 333.993 57.828C335.209 57.828 336.289 58.1 337.233 58.644C338.177 59.172 338.913 59.94 339.441 60.948C339.969 61.956 340.233 63.156 340.233 64.548C340.233 64.756 340.209 64.9 340.161 64.98C340.129 65.06 340.017 65.108 339.825 65.124H331.665C331.473 65.124 331.377 65.252 331.377 65.508ZM336.201 63.108C336.377 63.108 336.489 63.092 336.537 63.06C336.585 63.012 336.609 62.916 336.609 62.772C336.609 62.356 336.513 61.94 336.321 61.524C336.129 61.108 335.849 60.764 335.481 60.492C335.113 60.22 334.665 60.084 334.137 60.084C333.337 60.084 332.681 60.364 332.169 60.924C331.657 61.484 331.409 62.204 331.425 63.084L336.201 63.108ZM353 71.028C351.736 71.028 350.616 70.756 349.64 70.212C348.68 69.652 347.928 68.876 347.384 67.884C346.84 66.892 346.568 65.764 346.568 64.5C346.568 63.188 346.84 62.028 347.384 61.02C347.944 60.012 348.712 59.228 349.688 58.668C350.68 58.108 351.792 57.828 353.024 57.828C354.288 57.828 355.408 58.116 356.384 58.692C357.36 59.252 358.112 60.036 358.64 61.044C359.184 62.052 359.456 63.196 359.456 64.476C359.456 65.74 359.184 66.868 358.64 67.86C358.096 68.852 357.336 69.628 356.36 70.188C355.384 70.748 354.264 71.028 353 71.028ZM353.024 68.58C353.904 68.58 354.568 68.236 355.016 67.548C355.48 66.844 355.712 65.804 355.712 64.428C355.712 63.036 355.48 61.988 355.016 61.284C354.568 60.564 353.904 60.204 353.024 60.204C352.144 60.204 351.472 60.564 351.008 61.284C350.544 61.988 350.312 63.036 350.312 64.428C350.312 65.788 350.544 66.82 351.008 67.524C351.472 68.228 352.144 68.58 353.024 68.58ZM368.505 58.068C368.649 58.068 368.761 58.108 368.841 58.188C368.921 58.268 368.961 58.364 368.961 58.476V60.252C368.961 60.492 368.825 60.612 368.553 60.612H366.561C366.401 60.612 366.321 60.7 366.321 60.876V70.332C366.321 70.636 366.193 70.788 365.937 70.788H362.985C362.745 70.788 362.625 70.652 362.625 70.38V60.828C362.625 60.684 362.561 60.612 362.433 60.612H360.705C360.417 60.612 360.273 60.492 360.273 60.252V58.476C360.273 58.364 360.313 58.268 360.393 58.188C360.473 58.108 360.585 58.068 360.729 58.068H362.337C362.449 58.068 362.521 58.044 362.553 57.996C362.601 57.932 362.625 57.836 362.625 57.708V56.244C362.625 55.22 362.929 54.42 363.537 53.844C364.145 53.268 365.001 52.98 366.105 52.98H368.529C368.881 52.98 369.057 53.148 369.057 53.484L369.081 55.044C369.081 55.316 368.961 55.452 368.721 55.452H367.425C367.073 55.452 366.785 55.588 366.561 55.86C366.337 56.116 366.225 56.452 366.225 56.868V57.804C366.225 57.98 366.321 58.068 366.513 58.068H368.505ZM376.075 53.436C376.075 53.132 376.203 52.98 376.459 52.98H388.555C388.795 52.98 388.915 53.116 388.915 53.388L388.891 55.548C388.891 55.884 388.723 56.052 388.387 56.052H380.731C380.427 56.052 380.275 56.18 380.275 56.436V59.916C380.275 60.188 380.395 60.324 380.635 60.324H385.723C385.995 60.324 386.131 60.452 386.131 60.708V63.012C386.131 63.236 386.003 63.348 385.747 63.348H380.611C380.387 63.348 380.275 63.444 380.275 63.636V67.404C380.275 67.516 380.291 67.596 380.323 67.644C380.371 67.692 380.443 67.716 380.539 67.716H388.747C389.035 67.716 389.179 67.836 389.179 68.076V70.356C389.179 70.644 389.019 70.788 388.699 70.788H376.603C376.411 70.788 376.275 70.748 376.195 70.668C376.115 70.588 376.075 70.46 376.075 70.284V53.436ZM403.351 69.972C403.543 70.228 403.639 70.42 403.639 70.548C403.639 70.708 403.487 70.788 403.183 70.788H400.111C399.727 70.788 399.455 70.66 399.295 70.404L396.823 66.924C396.695 66.716 396.599 66.612 396.535 66.612C396.471 66.612 396.375 66.708 396.247 66.9L393.727 70.404C393.567 70.66 393.303 70.788 392.935 70.788H390.967C390.583 70.788 390.391 70.676 390.391 70.452C390.391 70.276 390.487 70.068 390.679 69.828L394.615 64.764C394.711 64.62 394.759 64.508 394.759 64.428C394.759 64.316 394.703 64.18 394.591 64.02L390.703 58.74C390.639 58.66 390.607 58.564 390.607 58.452C390.607 58.356 390.647 58.268 390.727 58.188C390.807 58.108 390.919 58.068 391.063 58.068H393.991C394.199 58.068 394.351 58.1 394.447 58.164C394.559 58.212 394.663 58.308 394.759 58.452L396.991 61.596C397.071 61.724 397.143 61.788 397.207 61.788C397.255 61.788 397.319 61.724 397.399 61.596L399.511 58.452C399.607 58.308 399.703 58.212 399.799 58.164C399.911 58.1 400.079 58.068 400.303 58.068H402.463C402.735 58.068 402.871 58.148 402.871 58.308C402.871 58.388 402.823 58.492 402.727 58.62L399.151 63.468C399.055 63.58 399.007 63.692 399.007 63.804C399.007 63.884 399.063 64.012 399.175 64.188L403.351 69.972ZM408.579 58.068C408.771 58.068 408.907 58.108 408.987 58.188C409.067 58.252 409.107 58.372 409.107 58.548V59.268C409.107 59.38 409.139 59.436 409.203 59.436C409.251 59.436 409.331 59.396 409.443 59.316C409.939 58.852 410.443 58.492 410.955 58.236C411.483 57.964 412.147 57.828 412.947 57.828C414.403 57.828 415.587 58.38 416.499 59.484C417.411 60.588 417.867 62.204 417.867 64.332C417.867 66.54 417.395 68.212 416.451 69.348C415.523 70.468 414.291 71.028 412.755 71.028C411.491 71.028 410.419 70.62 409.539 69.804C409.379 69.676 409.267 69.612 409.203 69.612C409.123 69.612 409.083 69.724 409.083 69.948V74.34C409.083 74.612 408.963 74.748 408.723 74.748H405.771C405.659 74.748 405.563 74.708 405.483 74.628C405.419 74.564 405.387 74.46 405.387 74.316V58.596C405.387 58.404 405.427 58.268 405.507 58.188C405.603 58.108 405.747 58.068 405.939 58.068H408.579ZM409.083 67.5C409.435 67.884 409.795 68.18 410.163 68.388C410.531 68.596 410.939 68.7 411.387 68.7C413.211 68.7 414.123 67.22 414.123 64.26C414.123 62.788 413.891 61.74 413.427 61.116C412.963 60.476 412.307 60.156 411.459 60.156C410.803 60.156 410.243 60.356 409.779 60.756C409.315 61.14 409.083 61.58 409.083 62.076V67.5ZM423.252 65.508C423.252 66.404 423.548 67.132 424.14 67.692C424.748 68.236 425.5 68.508 426.396 68.508C426.972 68.508 427.5 68.388 427.98 68.148C428.476 67.892 428.972 67.476 429.468 66.9C429.532 66.836 429.596 66.804 429.66 66.804C429.708 66.804 429.788 66.828 429.9 66.876L431.628 67.596C431.74 67.644 431.796 67.724 431.796 67.836C431.796 67.916 431.764 67.996 431.7 68.076C430.932 69.164 430.108 69.932 429.228 70.38C428.348 70.812 427.252 71.028 425.94 71.028C424.708 71.028 423.596 70.756 422.604 70.212C421.612 69.668 420.836 68.916 420.276 67.956C419.716 66.98 419.436 65.868 419.436 64.62C419.436 63.276 419.724 62.092 420.3 61.068C420.876 60.028 421.652 59.228 422.628 58.668C423.62 58.108 424.7 57.828 425.868 57.828C427.084 57.828 428.164 58.1 429.108 58.644C430.052 59.172 430.788 59.94 431.316 60.948C431.844 61.956 432.108 63.156 432.108 64.548C432.108 64.756 432.084 64.9 432.036 64.98C432.004 65.06 431.892 65.108 431.7 65.124H423.54C423.348 65.124 423.252 65.252 423.252 65.508ZM428.076 63.108C428.252 63.108 428.364 63.092 428.412 63.06C428.46 63.012 428.484 62.916 428.484 62.772C428.484 62.356 428.388 61.94 428.196 61.524C428.004 61.108 427.724 60.764 427.356 60.492C426.988 60.22 426.54 60.084 426.012 60.084C425.212 60.084 424.556 60.364 424.044 60.924C423.532 61.484 423.284 62.204 423.3 63.084L428.076 63.108ZM434.578 70.788C434.402 70.788 434.274 70.756 434.194 70.692C434.114 70.612 434.074 70.484 434.074 70.308V58.524C434.074 58.22 434.202 58.068 434.458 58.068H437.362C437.602 58.068 437.722 58.204 437.722 58.476V59.652C437.722 59.78 437.762 59.844 437.842 59.844C437.89 59.844 437.946 59.812 438.01 59.748C438.666 59.124 439.322 58.652 439.978 58.332C440.634 57.996 441.33 57.828 442.066 57.828C443.234 57.828 444.154 58.172 444.826 58.86C445.514 59.548 445.858 60.468 445.858 61.62V70.212C445.858 70.596 445.666 70.788 445.282 70.788H442.618C442.442 70.788 442.322 70.756 442.258 70.692C442.194 70.612 442.162 70.484 442.162 70.308V62.196C442.162 61.652 442.01 61.236 441.706 60.948C441.418 60.644 440.986 60.492 440.41 60.492C439.93 60.492 439.482 60.612 439.066 60.852C438.666 61.092 438.234 61.468 437.77 61.98V70.236C437.77 70.428 437.722 70.572 437.626 70.668C437.53 70.748 437.37 70.788 437.146 70.788H434.578ZM456.219 61.38C455.563 60.516 454.627 60.084 453.411 60.084C452.803 60.084 452.299 60.204 451.899 60.444C451.499 60.668 451.299 60.98 451.299 61.38C451.299 61.604 451.387 61.812 451.563 62.004C451.755 62.18 452.115 62.332 452.643 62.46L455.403 63.132C456.667 63.436 457.595 63.924 458.187 64.596C458.779 65.252 459.075 66.028 459.075 66.924C459.075 68.188 458.547 69.188 457.491 69.924C456.435 70.66 455.051 71.028 453.339 71.028C451.963 71.028 450.771 70.788 449.763 70.308C448.755 69.812 448.043 69.172 447.627 68.388C447.547 68.276 447.507 68.172 447.507 68.076C447.507 67.964 447.563 67.884 447.675 67.836L449.307 66.996C449.435 66.932 449.547 66.9 449.643 66.9C449.739 66.9 449.827 66.94 449.907 67.02C450.259 67.516 450.683 67.916 451.179 68.22C451.691 68.508 452.363 68.652 453.195 68.652C453.947 68.652 454.555 68.54 455.019 68.316C455.499 68.092 455.739 67.764 455.739 67.332C455.739 67.044 455.619 66.804 455.379 66.612C455.139 66.42 454.731 66.252 454.155 66.108L451.683 65.58C449.251 65.052 448.035 63.844 448.035 61.956C448.035 61.156 448.251 60.444 448.683 59.82C449.131 59.196 449.763 58.708 450.579 58.356C451.395 58.004 452.355 57.828 453.459 57.828C454.627 57.828 455.659 58.044 456.555 58.476C457.467 58.908 458.123 59.452 458.523 60.108C458.619 60.236 458.667 60.348 458.667 60.444C458.667 60.54 458.611 60.62 458.499 60.684L456.771 61.524C456.723 61.556 456.659 61.572 456.579 61.572C456.435 61.572 456.315 61.508 456.219 61.38ZM464.337 65.508C464.337 66.404 464.633 67.132 465.225 67.692C465.833 68.236 466.585 68.508 467.481 68.508C468.057 68.508 468.585 68.388 469.065 68.148C469.561 67.892 470.057 67.476 470.553 66.9C470.617 66.836 470.681 66.804 470.745 66.804C470.793 66.804 470.873 66.828 470.985 66.876L472.713 67.596C472.825 67.644 472.881 67.724 472.881 67.836C472.881 67.916 472.849 67.996 472.785 68.076C472.017 69.164 471.193 69.932 470.313 70.38C469.433 70.812 468.337 71.028 467.025 71.028C465.793 71.028 464.681 70.756 463.689 70.212C462.697 69.668 461.921 68.916 461.361 67.956C460.801 66.98 460.521 65.868 460.521 64.62C460.521 63.276 460.809 62.092 461.385 61.068C461.961 60.028 462.737 59.228 463.713 58.668C464.705 58.108 465.785 57.828 466.953 57.828C468.169 57.828 469.249 58.1 470.193 58.644C471.137 59.172 471.873 59.94 472.401 60.948C472.929 61.956 473.193 63.156 473.193 64.548C473.193 64.756 473.169 64.9 473.121 64.98C473.089 65.06 472.977 65.108 472.785 65.124H464.625C464.433 65.124 464.337 65.252 464.337 65.508ZM469.161 63.108C469.337 63.108 469.449 63.092 469.497 63.06C469.545 63.012 469.569 62.916 469.569 62.772C469.569 62.356 469.473 61.94 469.281 61.524C469.089 61.108 468.809 60.764 468.441 60.492C468.073 60.22 467.625 60.084 467.097 60.084C466.297 60.084 465.641 60.364 465.129 60.924C464.617 61.484 464.369 62.204 464.385 63.084L469.161 63.108ZM483.008 61.38C482.352 60.516 481.416 60.084 480.2 60.084C479.592 60.084 479.088 60.204 478.688 60.444C478.288 60.668 478.088 60.98 478.088 61.38C478.088 61.604 478.176 61.812 478.352 62.004C478.544 62.18 478.904 62.332 479.432 62.46L482.192 63.132C483.456 63.436 484.384 63.924 484.976 64.596C485.568 65.252 485.864 66.028 485.864 66.924C485.864 68.188 485.336 69.188 484.28 69.924C483.224 70.66 481.84 71.028 480.128 71.028C478.752 71.028 477.56 70.788 476.552 70.308C475.544 69.812 474.832 69.172 474.416 68.388C474.336 68.276 474.296 68.172 474.296 68.076C474.296 67.964 474.352 67.884 474.464 67.836L476.096 66.996C476.224 66.932 476.336 66.9 476.432 66.9C476.528 66.9 476.616 66.94 476.696 67.02C477.048 67.516 477.472 67.916 477.968 68.22C478.48 68.508 479.152 68.652 479.984 68.652C480.736 68.652 481.344 68.54 481.808 68.316C482.288 68.092 482.528 67.764 482.528 67.332C482.528 67.044 482.408 66.804 482.168 66.612C481.928 66.42 481.52 66.252 480.944 66.108L478.472 65.58C476.04 65.052 474.824 63.844 474.824 61.956C474.824 61.156 475.04 60.444 475.472 59.82C475.92 59.196 476.552 58.708 477.368 58.356C478.184 58.004 479.144 57.828 480.248 57.828C481.416 57.828 482.448 58.044 483.344 58.476C484.256 58.908 484.912 59.452 485.312 60.108C485.408 60.236 485.456 60.348 485.456 60.444C485.456 60.54 485.4 60.62 485.288 60.684L483.56 61.524C483.512 61.556 483.448 61.572 483.368 61.572C483.224 61.572 483.104 61.508 483.008 61.38ZM491.559 61.692C491.559 61.9 491.503 62.052 491.391 62.148C491.295 62.228 491.127 62.268 490.887 62.268H488.055C487.703 62.268 487.527 62.1 487.527 61.764V58.788C487.527 58.644 487.559 58.54 487.623 58.476C487.703 58.396 487.799 58.356 487.911 58.356H491.199C491.439 58.356 491.559 58.492 491.559 58.764V61.692ZM491.559 70.14C491.559 70.348 491.503 70.5 491.391 70.596C491.295 70.676 491.127 70.716 490.887 70.716H488.055C487.703 70.716 487.527 70.548 487.527 70.212V67.236C487.527 66.948 487.655 66.804 487.911 66.804H491.199C491.439 66.804 491.559 66.932 491.559 67.188V70.14Z" fill="#3A082C"/>
</svg>
