<svg width="983" height="124" viewBox="0 0 983 124" fill="none" xmlns="http://www.w3.org/2000/svg">
<path d="M979 62.2849C979 44.5925 964.657 30.25 946.965 30.25H539.76V94.3197H946.965C964.657 94.3197 979 79.9772 979 62.2849Z" fill="#7B73B1"/>
<path d="M947 30.2849C964.673 30.2849 979 44.6118 979 62.2849C979 79.958 964.673 94.2849 947 94.2849L108.531 94.2849V30.2849H947Z" stroke="#3A082C" stroke-width="8"/>
<circle cx="65.7536" cy="65.1359" r="52.5261" fill="#EE8363"/>
<circle cx="61.1981" cy="62.1217" r="57.1981" stroke="#3A082C" stroke-width="8"/>
<path d="M78.7399 72.2789C78.7399 75.8389 77.5199 78.8189 75.0799 81.2189C72.6799 83.5789 69.4399 84.9589 65.3599 85.3589C64.9199 85.3989 64.6399 85.4789 64.5199 85.5989C64.3999 85.7189 64.3399 85.9589 64.3399 86.3189V88.4789C64.3399 88.9589 64.2199 89.2989 63.9799 89.4989C63.7799 89.7389 63.4199 89.8589 62.8999 89.8589H59.5999C58.7599 89.8589 58.3399 89.4589 58.3399 88.6589V86.2589C58.3399 85.8989 58.2799 85.6589 58.1599 85.5389C58.0399 85.4189 57.8199 85.3589 57.4999 85.3589C54.6199 85.1989 52.0999 84.6789 49.9399 83.7989C47.8199 82.8789 45.8199 81.5589 43.9399 79.8389C43.3399 79.3589 43.0399 78.9389 43.0399 78.5789C43.0399 78.3389 43.1399 78.1189 43.3399 77.9189L46.9399 74.0189C47.2999 73.6589 47.6199 73.4789 47.8999 73.4789C48.1399 73.4789 48.3999 73.6189 48.6799 73.8989C51.1999 76.6189 54.1599 78.1989 57.5599 78.6389L57.9199 78.6989C58.2399 78.6989 58.3999 78.4789 58.3999 78.0389L58.4599 67.7789C58.4599 67.4589 58.3999 67.2189 58.2799 67.0589C58.1599 66.8589 57.9199 66.6989 57.5599 66.5789C52.8399 65.5389 49.4399 63.8989 47.3599 61.6589C45.3199 59.4189 44.2999 56.6789 44.2999 53.4389C44.2999 50.2389 45.4399 47.5189 47.7199 45.2789C49.9999 42.9989 53.1999 41.4989 57.3199 40.7789C58.0799 40.5789 58.4599 40.2389 58.4599 39.7589V37.4789C58.4599 37.2389 58.5199 37.0389 58.6399 36.8789C58.7999 36.7189 58.9799 36.6389 59.1799 36.6389H63.2599C63.9799 36.6389 64.3399 37.0189 64.3399 37.7789V40.1789C64.3399 40.4189 64.5999 40.5989 65.1199 40.7189C69.1599 41.5589 72.6199 43.0589 75.4999 45.2189C75.8199 45.4189 75.9799 45.6789 75.9799 45.9989C75.9799 46.1989 75.8799 46.4389 75.6799 46.7189L72.4999 50.7989C72.2599 51.0789 72.0199 51.2189 71.7799 51.2189C71.4599 51.2189 71.1399 51.0589 70.8199 50.7389C70.1399 50.0589 69.2799 49.4389 68.2399 48.8789C67.2399 48.2789 66.1799 47.8389 65.0599 47.5589L64.8199 47.4989C64.4599 47.4989 64.2799 47.6789 64.2799 48.0389V58.1789C64.2799 58.4189 64.3199 58.5989 64.3999 58.7189C64.5199 58.7989 64.7199 58.8789 64.9999 58.9589L68.3599 59.8589C71.5199 60.8189 74.0399 62.3989 75.9199 64.5989C77.7999 66.7589 78.7399 69.3189 78.7399 72.2789ZM58.4599 47.9789C58.4599 47.3789 58.1999 47.1389 57.6799 47.2589C55.8799 47.5789 54.4999 48.2189 53.5399 49.1789C52.5799 50.0989 52.0999 51.1989 52.0999 52.4789C52.0999 53.7189 52.4999 54.7589 53.2999 55.5989C54.0999 56.3989 55.4199 57.0789 57.2599 57.6389C57.3399 57.6789 57.4599 57.6989 57.6199 57.6989C58.1799 57.6989 58.4599 57.3189 58.4599 56.5589V47.9789ZM64.2799 78.2789C64.2799 78.6389 64.5399 78.7789 65.0599 78.6989C66.8599 78.4989 68.2799 77.9389 69.3199 77.0189C70.3599 76.0989 70.8799 74.9789 70.8799 73.6589C70.8799 72.2589 70.4199 71.0989 69.4999 70.1789C68.5799 69.2589 67.0999 68.5189 65.0599 67.9589C64.9799 67.9189 64.8599 67.8989 64.6999 67.8989C64.4199 67.8989 64.2799 68.1189 64.2799 68.5589V78.2789Z" fill="white"/>
<path d="M655.963 67.5809C655.963 69.7169 655.231 71.5049 653.767 72.9449C652.327 74.3609 650.383 75.1889 647.935 75.4289C647.671 75.4529 647.503 75.5009 647.431 75.5729C647.359 75.6449 647.323 75.7889 647.323 76.0049V77.3009C647.323 77.5889 647.251 77.7929 647.107 77.9129C646.987 78.0569 646.771 78.1289 646.459 78.1289H644.479C643.975 78.1289 643.723 77.8889 643.723 77.4089V75.9689C643.723 75.7529 643.687 75.6089 643.615 75.5369C643.543 75.4649 643.411 75.4289 643.219 75.4289C641.491 75.3329 639.979 75.0209 638.683 74.4929C637.411 73.9409 636.211 73.1489 635.083 72.1169C634.723 71.8289 634.543 71.5769 634.543 71.3609C634.543 71.2169 634.603 71.0849 634.723 70.9649L636.883 68.6249C637.099 68.4089 637.291 68.3009 637.459 68.3009C637.603 68.3009 637.759 68.3849 637.927 68.5529C639.439 70.1849 641.215 71.1329 643.255 71.3969L643.471 71.4329C643.663 71.4329 643.759 71.3009 643.759 71.0369L643.795 64.8809C643.795 64.6889 643.759 64.5449 643.687 64.4489C643.615 64.3289 643.471 64.2329 643.255 64.1609C640.423 63.5369 638.383 62.5529 637.135 61.2089C635.911 59.8649 635.299 58.2209 635.299 56.2769C635.299 54.3569 635.983 52.7249 637.351 51.3809C638.719 50.0129 640.639 49.1129 643.111 48.6809C643.567 48.5609 643.795 48.3569 643.795 48.0689V46.7009C643.795 46.5569 643.831 46.4369 643.903 46.3409C643.999 46.2449 644.107 46.1969 644.227 46.1969H646.675C647.107 46.1969 647.323 46.4249 647.323 46.8809V48.3209C647.323 48.4649 647.479 48.5729 647.791 48.6449C650.215 49.1489 652.291 50.0489 654.019 51.3449C654.211 51.4649 654.307 51.6209 654.307 51.8129C654.307 51.9329 654.247 52.0769 654.127 52.2449L652.219 54.6929C652.075 54.8609 651.931 54.9449 651.787 54.9449C651.595 54.9449 651.403 54.8489 651.211 54.6569C650.803 54.2489 650.287 53.8769 649.663 53.5409C649.063 53.1809 648.427 52.9169 647.755 52.7489L647.611 52.7129C647.395 52.7129 647.287 52.8209 647.287 53.0369V59.1209C647.287 59.2649 647.311 59.3729 647.359 59.4449C647.431 59.4929 647.551 59.5409 647.719 59.5889L649.735 60.1289C651.631 60.7049 653.143 61.6529 654.271 62.9729C655.399 64.2689 655.963 65.8049 655.963 67.5809ZM643.795 53.0009C643.795 52.6409 643.639 52.4969 643.327 52.5689C642.247 52.7609 641.419 53.1449 640.843 53.7209C640.267 54.2729 639.979 54.9329 639.979 55.7009C639.979 56.4449 640.219 57.0689 640.699 57.5729C641.179 58.0529 641.971 58.4609 643.075 58.7969C643.123 58.8209 643.195 58.8329 643.291 58.8329C643.627 58.8329 643.795 58.6049 643.795 58.1489V53.0009ZM647.287 71.1809C647.287 71.3969 647.443 71.4809 647.755 71.4329C648.835 71.3129 649.687 70.9769 650.311 70.4249C650.935 69.8729 651.247 69.2009 651.247 68.4089C651.247 67.5689 650.971 66.8729 650.419 66.3209C649.867 65.7689 648.979 65.3249 647.755 64.9889C647.707 64.9649 647.635 64.9529 647.539 64.9529C647.371 64.9529 647.287 65.0849 647.287 65.3489V71.1809ZM659.573 52.7489C659.477 52.6529 659.429 52.5329 659.429 52.3889C659.429 52.2689 659.477 52.1249 659.573 51.9569C660.533 50.8049 661.853 49.8929 663.533 49.2209C665.213 48.5489 667.001 48.2129 668.897 48.2129C670.961 48.2129 672.749 48.5129 674.261 49.1129C675.797 49.6889 676.961 50.5049 677.753 51.5609C678.569 52.6169 678.977 53.8289 678.977 55.1969C678.977 56.3969 678.605 57.5129 677.861 58.5449C677.117 59.5529 676.073 60.2609 674.729 60.6689C674.441 60.7649 674.297 60.8849 674.297 61.0289C674.297 61.1489 674.429 61.2449 674.693 61.3169C676.229 61.8209 677.465 62.6249 678.401 63.7289C679.337 64.8329 679.805 66.1049 679.805 67.5449C679.805 70.1609 678.845 72.1649 676.925 73.5569C675.029 74.9489 672.209 75.6449 668.465 75.6449C666.401 75.6449 664.469 75.2489 662.669 74.4569C660.893 73.6409 659.501 72.5489 658.493 71.1809C658.373 71.0129 658.313 70.8569 658.313 70.7129C658.313 70.5209 658.445 70.3289 658.709 70.1369L661.517 68.1569C661.733 68.0129 661.889 67.9409 661.985 67.9409C662.129 67.9409 662.237 68.0009 662.309 68.1209C663.437 69.2729 664.469 70.0769 665.405 70.5329C666.365 70.9889 667.505 71.2169 668.825 71.2169C670.313 71.2169 671.477 70.8929 672.317 70.2449C673.181 69.5969 673.613 68.7449 673.613 67.6889C673.613 66.5129 673.133 65.5769 672.173 64.8809C671.237 64.1849 670.049 63.8249 668.609 63.8009L665.513 63.7289C665.105 63.7289 664.901 63.5609 664.901 63.2249V59.8409C664.901 59.5769 665.105 59.4089 665.513 59.3369L667.997 59.2289C669.413 59.2049 670.565 58.8569 671.453 58.1849C672.365 57.4889 672.821 56.6249 672.821 55.5929C672.821 54.7289 672.437 54.0089 671.669 53.4329C670.925 52.8329 669.977 52.5329 668.825 52.5329C667.721 52.5329 666.713 52.7489 665.801 53.1809C664.889 53.5889 663.953 54.2609 662.993 55.1969C662.825 55.3649 662.693 55.4489 662.597 55.4489C662.549 55.4489 662.417 55.3649 662.201 55.1969L659.573 52.7489ZM694.025 48.1769C696.161 48.1769 698.069 48.7529 699.749 49.9049C701.429 51.0569 702.749 52.6769 703.709 54.7649C704.669 56.8529 705.149 59.2649 705.149 62.0009C705.149 64.7369 704.669 67.1369 703.709 69.2009C702.773 71.2409 701.465 72.8249 699.785 73.9529C698.105 75.0569 696.185 75.6089 694.025 75.6089C691.865 75.6089 689.933 75.0569 688.229 73.9529C686.549 72.8249 685.229 71.2409 684.269 69.2009C683.333 67.1369 682.865 64.7489 682.865 62.0369C682.865 59.3009 683.345 56.8889 684.305 54.8009C685.265 52.6889 686.585 51.0569 688.265 49.9049C689.969 48.7529 691.889 48.1769 694.025 48.1769ZM694.025 71.1449C695.633 71.1449 696.821 70.4369 697.589 69.0209C698.357 67.6049 698.741 65.2769 698.741 62.0369C698.741 58.7249 698.345 56.3249 697.553 54.8369C696.785 53.3249 695.597 52.5689 693.989 52.5689C692.405 52.5689 691.217 53.3249 690.425 54.8369C689.633 56.3489 689.237 58.7489 689.237 62.0369C689.237 65.2529 689.633 67.5809 690.425 69.0209C691.217 70.4369 692.417 71.1449 694.025 71.1449ZM719.513 48.1769C721.649 48.1769 723.557 48.7529 725.237 49.9049C726.917 51.0569 728.237 52.6769 729.197 54.7649C730.157 56.8529 730.637 59.2649 730.637 62.0009C730.637 64.7369 730.157 67.1369 729.197 69.2009C728.261 71.2409 726.953 72.8249 725.273 73.9529C723.593 75.0569 721.673 75.6089 719.513 75.6089C717.353 75.6089 715.421 75.0569 713.717 73.9529C712.037 72.8249 710.717 71.2409 709.757 69.2009C708.821 67.1369 708.353 64.7489 708.353 62.0369C708.353 59.3009 708.833 56.8889 709.793 54.8009C710.753 52.6889 712.073 51.0569 713.753 49.9049C715.457 48.7529 717.377 48.1769 719.513 48.1769ZM719.513 71.1449C721.121 71.1449 722.309 70.4369 723.077 69.0209C723.845 67.6049 724.229 65.2769 724.229 62.0369C724.229 58.7249 723.833 56.3249 723.041 54.8369C722.273 53.3249 721.085 52.5689 719.477 52.5689C717.893 52.5689 716.705 53.3249 715.913 54.8369C715.121 56.3489 714.725 58.7489 714.725 62.0369C714.725 65.2529 715.121 67.5809 715.913 69.0209C716.705 70.4369 717.905 71.1449 719.513 71.1449ZM751.556 67.0049C751.556 67.5329 751.244 67.7969 750.62 67.7969H742.16C741.872 67.7969 741.668 67.7489 741.548 67.6529C741.452 67.5329 741.404 67.3409 741.404 67.0769V64.4489C741.404 64.0169 741.584 63.8009 741.944 63.8009H751.016C751.184 63.8009 751.316 63.8489 751.412 63.9449C751.508 64.0409 751.556 64.1729 751.556 64.3409V67.0049ZM783.053 67.5809C783.053 69.7169 782.321 71.5049 780.857 72.9449C779.417 74.3609 777.473 75.1889 775.025 75.4289C774.761 75.4529 774.593 75.5009 774.521 75.5729C774.449 75.6449 774.413 75.7889 774.413 76.0049V77.3009C774.413 77.5889 774.341 77.7929 774.197 77.9129C774.077 78.0569 773.861 78.1289 773.549 78.1289H771.569C771.065 78.1289 770.813 77.8889 770.813 77.4089V75.9689C770.813 75.7529 770.777 75.6089 770.705 75.5369C770.633 75.4649 770.501 75.4289 770.309 75.4289C768.581 75.3329 767.069 75.0209 765.773 74.4929C764.501 73.9409 763.301 73.1489 762.173 72.1169C761.813 71.8289 761.633 71.5769 761.633 71.3609C761.633 71.2169 761.693 71.0849 761.813 70.9649L763.973 68.6249C764.189 68.4089 764.381 68.3009 764.549 68.3009C764.693 68.3009 764.849 68.3849 765.017 68.5529C766.529 70.1849 768.305 71.1329 770.345 71.3969L770.561 71.4329C770.753 71.4329 770.849 71.3009 770.849 71.0369L770.885 64.8809C770.885 64.6889 770.849 64.5449 770.777 64.4489C770.705 64.3289 770.561 64.2329 770.345 64.1609C767.513 63.5369 765.473 62.5529 764.225 61.2089C763.001 59.8649 762.389 58.2209 762.389 56.2769C762.389 54.3569 763.073 52.7249 764.441 51.3809C765.809 50.0129 767.729 49.1129 770.201 48.6809C770.657 48.5609 770.885 48.3569 770.885 48.0689V46.7009C770.885 46.5569 770.921 46.4369 770.993 46.3409C771.089 46.2449 771.197 46.1969 771.317 46.1969H773.765C774.197 46.1969 774.413 46.4249 774.413 46.8809V48.3209C774.413 48.4649 774.569 48.5729 774.881 48.6449C777.305 49.1489 779.381 50.0489 781.109 51.3449C781.301 51.4649 781.397 51.6209 781.397 51.8129C781.397 51.9329 781.337 52.0769 781.217 52.2449L779.309 54.6929C779.165 54.8609 779.021 54.9449 778.877 54.9449C778.685 54.9449 778.493 54.8489 778.301 54.6569C777.893 54.2489 777.377 53.8769 776.753 53.5409C776.153 53.1809 775.517 52.9169 774.845 52.7489L774.701 52.7129C774.485 52.7129 774.377 52.8209 774.377 53.0369V59.1209C774.377 59.2649 774.401 59.3729 774.449 59.4449C774.521 59.4929 774.641 59.5409 774.809 59.5889L776.825 60.1289C778.721 60.7049 780.233 61.6529 781.361 62.9729C782.489 64.2689 783.053 65.8049 783.053 67.5809ZM770.885 53.0009C770.885 52.6409 770.729 52.4969 770.417 52.5689C769.337 52.7609 768.509 53.1449 767.933 53.7209C767.357 54.2729 767.069 54.9329 767.069 55.7009C767.069 56.4449 767.309 57.0689 767.789 57.5729C768.269 58.0529 769.061 58.4609 770.165 58.7969C770.213 58.8209 770.285 58.8329 770.381 58.8329C770.717 58.8329 770.885 58.6049 770.885 58.1489V53.0009ZM774.377 71.1809C774.377 71.3969 774.533 71.4809 774.845 71.4329C775.925 71.3129 776.777 70.9769 777.401 70.4249C778.025 69.8729 778.337 69.2009 778.337 68.4089C778.337 67.5689 778.061 66.8729 777.509 66.3209C776.957 65.7689 776.069 65.3249 774.845 64.9889C774.797 64.9649 774.725 64.9529 774.629 64.9529C774.461 64.9529 774.377 65.0849 774.377 65.3489V71.1809ZM804.555 48.5729C804.939 48.5729 805.179 48.6209 805.275 48.7169C805.371 48.8129 805.407 49.0409 805.383 49.4009L805.203 52.9649C805.179 53.2049 805.107 53.3729 804.987 53.4689C804.891 53.5649 804.699 53.6129 804.411 53.6129H793.071C792.663 53.6129 792.447 53.7929 792.423 54.1529L791.991 58.7249V58.7969C791.991 58.9649 792.039 59.0849 792.135 59.1569C792.255 59.2289 792.387 59.2409 792.531 59.1929C793.683 58.7849 794.595 58.4969 795.267 58.3289C795.963 58.1609 796.767 58.0769 797.679 58.0769C799.503 58.0769 801.135 58.4009 802.575 59.0489C804.015 59.6969 805.155 60.6689 805.995 61.9649C806.835 63.2369 807.255 64.7729 807.255 66.5729C807.255 68.4449 806.799 70.0649 805.887 71.4329C804.975 72.8009 803.703 73.8449 802.071 74.5649C800.439 75.2849 798.543 75.6449 796.383 75.6449C794.103 75.6449 792.027 75.2609 790.155 74.4929C788.283 73.7009 786.843 72.6449 785.835 71.3249C785.643 71.0849 785.547 70.8689 785.547 70.6769C785.547 70.4369 785.667 70.2449 785.907 70.1009L788.859 68.0129C788.979 67.9169 789.111 67.8689 789.255 67.8689C789.471 67.8689 789.651 67.9649 789.795 68.1569C790.803 69.2129 791.715 69.9929 792.531 70.4969C793.371 70.9769 794.427 71.2169 795.699 71.2169C797.379 71.2169 798.687 70.8089 799.623 69.9929C800.583 69.1529 801.063 68.0729 801.063 66.7529C801.063 65.4809 800.619 64.4609 799.731 63.6929C798.867 62.9249 797.691 62.5409 796.203 62.5409C795.435 62.5409 794.715 62.6609 794.043 62.9009C793.395 63.1169 792.579 63.4649 791.595 63.9449C791.403 64.0409 791.247 64.0889 791.127 64.0889C791.031 64.0889 790.875 64.0289 790.659 63.9089L787.383 62.1089C787.119 61.9649 786.987 61.7609 786.987 61.4969C786.987 61.2809 786.999 61.1009 787.023 60.9569L788.031 49.4369C788.055 49.1009 788.151 48.8729 788.319 48.7529C788.487 48.6329 788.823 48.5729 789.327 48.5729H804.555ZM821.431 48.1769C823.567 48.1769 825.475 48.7529 827.155 49.9049C828.835 51.0569 830.155 52.6769 831.115 54.7649C832.075 56.8529 832.555 59.2649 832.555 62.0009C832.555 64.7369 832.075 67.1369 831.115 69.2009C830.179 71.2409 828.871 72.8249 827.191 73.9529C825.511 75.0569 823.591 75.6089 821.431 75.6089C819.271 75.6089 817.339 75.0569 815.635 73.9529C813.955 72.8249 812.635 71.2409 811.675 69.2009C810.739 67.1369 810.271 64.7489 810.271 62.0369C810.271 59.3009 810.751 56.8889 811.711 54.8009C812.671 52.6889 813.991 51.0569 815.671 49.9049C817.375 48.7529 819.295 48.1769 821.431 48.1769ZM821.431 71.1449C823.039 71.1449 824.227 70.4369 824.995 69.0209C825.763 67.6049 826.147 65.2769 826.147 62.0369C826.147 58.7249 825.751 56.3249 824.959 54.8369C824.191 53.3249 823.003 52.5689 821.395 52.5689C819.811 52.5689 818.623 53.3249 817.831 54.8369C817.039 56.3489 816.643 58.7489 816.643 62.0369C816.643 65.2529 817.039 67.5809 817.831 69.0209C818.623 70.4369 819.823 71.1449 821.431 71.1449ZM846.92 48.1769C849.056 48.1769 850.964 48.7529 852.644 49.9049C854.324 51.0569 855.644 52.6769 856.604 54.7649C857.564 56.8529 858.044 59.2649 858.044 62.0009C858.044 64.7369 857.564 67.1369 856.604 69.2009C855.668 71.2409 854.36 72.8249 852.68 73.9529C851 75.0569 849.08 75.6089 846.92 75.6089C844.76 75.6089 842.828 75.0569 841.124 73.9529C839.444 72.8249 838.124 71.2409 837.164 69.2009C836.228 67.1369 835.76 64.7489 835.76 62.0369C835.76 59.3009 836.24 56.8889 837.2 54.8009C838.16 52.6889 839.48 51.0569 841.16 49.9049C842.864 48.7529 844.784 48.1769 846.92 48.1769ZM846.92 71.1449C848.528 71.1449 849.716 70.4369 850.484 69.0209C851.252 67.6049 851.636 65.2769 851.636 62.0369C851.636 58.7249 851.24 56.3249 850.448 54.8369C849.68 53.3249 848.492 52.5689 846.884 52.5689C845.3 52.5689 844.112 53.3249 843.32 54.8369C842.528 56.3489 842.132 58.7489 842.132 62.0369C842.132 65.2529 842.528 67.5809 843.32 69.0209C844.112 70.4369 845.312 71.1449 846.92 71.1449ZM872.408 48.1769C874.544 48.1769 876.452 48.7529 878.132 49.9049C879.812 51.0569 881.132 52.6769 882.092 54.7649C883.052 56.8529 883.532 59.2649 883.532 62.0009C883.532 64.7369 883.052 67.1369 882.092 69.2009C881.156 71.2409 879.848 72.8249 878.168 73.9529C876.488 75.0569 874.568 75.6089 872.408 75.6089C870.248 75.6089 868.316 75.0569 866.612 73.9529C864.932 72.8249 863.612 71.2409 862.652 69.2009C861.716 67.1369 861.248 64.7489 861.248 62.0369C861.248 59.3009 861.728 56.8889 862.688 54.8009C863.648 52.6889 864.968 51.0569 866.648 49.9049C868.352 48.7529 870.272 48.1769 872.408 48.1769ZM872.408 71.1449C874.016 71.1449 875.204 70.4369 875.972 69.0209C876.74 67.6049 877.124 65.2769 877.124 62.0369C877.124 58.7249 876.728 56.3249 875.936 54.8369C875.168 53.3249 873.98 52.5689 872.372 52.5689C870.788 52.5689 869.6 53.3249 868.808 54.8369C868.016 56.3489 867.62 58.7489 867.62 62.0369C867.62 65.2529 868.016 67.5809 868.808 69.0209C869.6 70.4369 870.8 71.1449 872.408 71.1449Z" fill="white"/>
<path d="M166.601 71.2849C166.361 71.2849 166.241 71.1489 166.241 70.8769C166.241 70.7489 166.257 70.6529 166.289 70.5889L172.265 53.9569C172.329 53.7809 172.401 53.6609 172.481 53.5969C172.577 53.5169 172.713 53.4769 172.889 53.4769H176.489C176.665 53.4769 176.817 53.5249 176.945 53.6209C177.073 53.7169 177.161 53.8449 177.209 54.0049L183.137 70.6369C183.169 70.7329 183.185 70.8049 183.185 70.8529C183.185 70.9809 183.153 71.0849 183.089 71.1649C183.041 71.2449 182.961 71.2849 182.849 71.2849H179.321C179.081 71.2849 178.929 71.1729 178.865 70.9489L177.617 67.4449C177.585 67.3489 177.545 67.2849 177.497 67.2529C177.465 67.2049 177.401 67.1809 177.305 67.1809H171.449C171.289 67.1809 171.185 67.2609 171.137 67.4209L169.865 70.9729C169.769 71.1809 169.601 71.2849 169.361 71.2849H166.601ZM176.321 63.9889C176.481 63.9889 176.561 63.9249 176.561 63.7969C176.561 63.7009 176.553 63.6289 176.537 63.5809L174.521 57.9649C174.473 57.8689 174.417 57.8209 174.353 57.8209C174.305 57.8209 174.257 57.8769 174.209 57.9889L172.169 63.5809C172.137 63.6769 172.121 63.7489 172.121 63.7969C172.121 63.9249 172.209 63.9889 172.385 63.9889H176.321ZM195.564 58.5649C195.708 58.5649 195.812 58.6209 195.876 58.7329C195.94 58.8449 195.948 58.9729 195.9 59.1169L191.148 70.7809C191.004 71.1169 190.748 71.2849 190.38 71.2849H188.676C188.308 71.2849 188.052 71.1169 187.908 70.7809L183.18 59.1409C183.148 59.0449 183.132 58.9809 183.132 58.9489C183.132 58.8369 183.172 58.7489 183.252 58.6849C183.332 58.6049 183.428 58.5649 183.54 58.5649H186.588C186.86 58.5649 187.036 58.7009 187.116 58.9729L189.876 66.0529C189.956 66.1969 190.02 66.2689 190.068 66.2689C190.132 66.2689 190.196 66.1889 190.26 66.0289L192.972 58.9489C193.084 58.6929 193.26 58.5649 193.5 58.5649H195.564ZM200.244 66.0049C200.244 66.9009 200.54 67.6289 201.132 68.1889C201.74 68.7329 202.492 69.0049 203.388 69.0049C203.964 69.0049 204.492 68.8849 204.972 68.6449C205.468 68.3889 205.964 67.9729 206.46 67.3969C206.524 67.3329 206.588 67.3009 206.652 67.3009C206.7 67.3009 206.78 67.3249 206.892 67.3729L208.62 68.0929C208.732 68.1409 208.788 68.2209 208.788 68.3329C208.788 68.4129 208.756 68.4929 208.692 68.5729C207.924 69.6609 207.1 70.4289 206.22 70.8769C205.34 71.3089 204.244 71.5249 202.932 71.5249C201.7 71.5249 200.588 71.2529 199.596 70.7089C198.604 70.1649 197.828 69.4129 197.268 68.4529C196.708 67.4769 196.428 66.3649 196.428 65.1169C196.428 63.7729 196.716 62.5889 197.292 61.5649C197.868 60.5249 198.644 59.7249 199.62 59.1649C200.612 58.6049 201.692 58.3249 202.86 58.3249C204.076 58.3249 205.156 58.5969 206.1 59.1409C207.044 59.6689 207.78 60.4369 208.308 61.4449C208.836 62.4529 209.1 63.6529 209.1 65.0449C209.1 65.2529 209.076 65.3969 209.028 65.4769C208.996 65.5569 208.884 65.6049 208.692 65.6209H200.532C200.34 65.6209 200.244 65.7489 200.244 66.0049ZM205.068 63.6049C205.244 63.6049 205.356 63.5889 205.404 63.5569C205.452 63.5089 205.476 63.4129 205.476 63.2689C205.476 62.8529 205.38 62.4369 205.188 62.0209C204.996 61.6049 204.716 61.2609 204.348 60.9889C203.98 60.7169 203.532 60.5809 203.004 60.5809C202.204 60.5809 201.548 60.8609 201.036 61.4209C200.524 61.9809 200.276 62.7009 200.292 63.5809L205.068 63.6049ZM211.57 71.2849C211.234 71.2849 211.066 71.1249 211.066 70.8049V59.0209C211.066 58.7169 211.194 58.5649 211.45 58.5649H214.258C214.514 58.5649 214.642 58.7009 214.642 58.9729V60.3889C214.642 60.4529 214.658 60.5009 214.69 60.5329C214.722 60.5649 214.754 60.5809 214.786 60.5809C214.834 60.5809 214.898 60.5409 214.978 60.4609C215.458 59.8209 216.026 59.3089 216.682 58.9249C217.338 58.5249 217.962 58.3249 218.554 58.3249C219.13 58.3249 219.418 58.4609 219.418 58.7329V61.5169C219.418 61.6289 219.386 61.7169 219.322 61.7809C219.258 61.8449 219.17 61.8609 219.058 61.8289C218.546 61.7009 217.986 61.6369 217.378 61.6369C216.978 61.6369 216.57 61.7409 216.154 61.9489C215.754 62.1409 215.418 62.4049 215.146 62.7409C214.89 63.0609 214.762 63.3889 214.762 63.7249V70.7329C214.762 71.1009 214.554 71.2849 214.138 71.2849H211.57ZM228.129 70.0609C227.073 71.0369 225.817 71.5249 224.361 71.5249C223.161 71.5249 222.209 71.2049 221.505 70.5649C220.801 69.9089 220.449 69.0609 220.449 68.0209C220.449 66.6769 221.065 65.5969 222.297 64.7809C223.529 63.9649 225.225 63.5329 227.385 63.4849L228.249 63.4129C228.345 63.4129 228.425 63.3889 228.489 63.3409C228.569 63.2769 228.609 63.1889 228.609 63.0769V62.5729C228.609 61.9489 228.433 61.4689 228.081 61.1329C227.729 60.7969 227.225 60.6289 226.569 60.6289C225.449 60.6289 224.617 61.1089 224.073 62.0689C224.009 62.2289 223.905 62.3089 223.761 62.3089C223.681 62.3089 223.609 62.3009 223.545 62.2849L221.145 61.7329C221.001 61.7009 220.929 61.6129 220.929 61.4689C220.929 61.3729 220.961 61.2529 221.025 61.1089C221.409 60.1809 222.089 59.4849 223.065 59.0209C224.057 58.5569 225.281 58.3249 226.737 58.3249C228.641 58.3249 230.017 58.6769 230.865 59.3809C231.713 60.0689 232.137 61.0529 232.137 62.3329V70.7569C232.137 70.9489 232.105 71.0849 232.041 71.1649C231.977 71.2449 231.857 71.2849 231.681 71.2849H229.209C229.049 71.2849 228.929 71.2289 228.849 71.1169C228.785 71.0049 228.737 70.8369 228.705 70.6129L228.681 70.0849C228.665 69.9409 228.601 69.8689 228.489 69.8689C228.425 69.8689 228.305 69.9329 228.129 70.0609ZM228.609 65.6209C228.609 65.4769 228.585 65.3729 228.537 65.3089C228.489 65.2449 228.393 65.2129 228.249 65.2129L227.577 65.2609C226.649 65.3089 225.825 65.5329 225.105 65.9329C224.401 66.3169 224.049 66.8529 224.049 67.5409C224.049 68.0209 224.217 68.4049 224.553 68.6929C224.889 68.9649 225.353 69.1009 225.945 69.1009C226.681 69.1009 227.305 68.8849 227.817 68.4529C228.345 68.0369 228.609 67.6129 228.609 67.1809V65.6209ZM247.508 58.0129C247.828 58.0129 247.988 58.1889 247.988 58.5409V60.1729C247.988 60.6209 247.804 60.8049 247.436 60.7249C247.196 60.6769 246.964 60.6529 246.74 60.6529C246.612 60.6529 246.468 60.6689 246.308 60.7009C245.892 60.7649 245.732 60.9489 245.828 61.2529C245.972 61.6849 246.044 62.0449 246.044 62.3329C246.044 63.0689 245.82 63.7329 245.372 64.3249C244.94 64.9169 244.284 65.3889 243.404 65.7409C242.54 66.0929 241.492 66.2689 240.26 66.2689C239.364 66.2689 238.7 66.3409 238.268 66.4849C237.852 66.6289 237.644 66.8209 237.644 67.0609C237.644 67.2689 237.756 67.4209 237.98 67.5169C238.22 67.5969 238.612 67.6529 239.156 67.6849L242.588 67.8769C244.172 67.9729 245.348 68.3249 246.116 68.9329C246.9 69.5409 247.292 70.3489 247.292 71.3569C247.292 72.6049 246.7 73.6049 245.516 74.3569C244.332 75.1089 242.652 75.4849 240.476 75.4849C235.82 75.4849 233.492 74.4529 233.492 72.3889C233.492 71.8769 233.692 71.4449 234.092 71.0929C234.492 70.7249 235.06 70.4049 235.796 70.1329C235.892 70.1009 235.94 70.0609 235.94 70.0129C235.94 69.9649 235.892 69.9169 235.796 69.8689C234.868 69.4209 234.404 68.8289 234.404 68.0929C234.404 67.6609 234.612 67.2609 235.028 66.8929C235.46 66.5089 236.028 66.1809 236.732 65.9089C236.924 65.8129 236.94 65.7169 236.78 65.6209C235.228 64.9009 234.452 63.8129 234.452 62.3569C234.452 61.1409 234.972 60.1729 236.012 59.4529C237.068 58.7329 238.572 58.3729 240.524 58.3729C242.172 58.3729 243.452 58.7329 244.364 59.4529C244.476 59.5329 244.58 59.5729 244.676 59.5729C244.804 59.5729 244.916 59.5169 245.012 59.4049C245.316 59.0369 245.716 58.7169 246.212 58.4449C246.708 58.1569 247.14 58.0129 247.508 58.0129ZM240.236 64.4449C241.052 64.4449 241.66 64.2609 242.06 63.8929C242.476 63.5089 242.684 63.0129 242.684 62.4049C242.684 61.7329 242.476 61.2049 242.06 60.8209C241.66 60.4209 241.052 60.2209 240.236 60.2209C239.468 60.2209 238.86 60.4209 238.412 60.8209C237.98 61.2209 237.764 61.7489 237.764 62.4049C237.764 63.0129 237.98 63.5089 238.412 63.8929C238.86 64.2609 239.468 64.4449 240.236 64.4449ZM238.46 70.5649C237.964 70.5329 237.516 70.6529 237.116 70.9249C236.732 71.1809 236.54 71.5089 236.54 71.9089C236.54 72.5009 236.868 72.9489 237.524 73.2529C238.18 73.5569 239.244 73.7089 240.716 73.7089C241.788 73.7089 242.612 73.5569 243.188 73.2529C243.764 72.9649 244.052 72.5489 244.052 72.0049C244.052 71.6369 243.892 71.3409 243.572 71.1169C243.252 70.8929 242.78 70.7649 242.156 70.7329L238.46 70.5649ZM252.556 66.0049C252.556 66.9009 252.852 67.6289 253.444 68.1889C254.052 68.7329 254.804 69.0049 255.7 69.0049C256.276 69.0049 256.804 68.8849 257.284 68.6449C257.78 68.3889 258.276 67.9729 258.772 67.3969C258.836 67.3329 258.9 67.3009 258.964 67.3009C259.012 67.3009 259.092 67.3249 259.204 67.3729L260.932 68.0929C261.044 68.1409 261.1 68.2209 261.1 68.3329C261.1 68.4129 261.068 68.4929 261.004 68.5729C260.236 69.6609 259.412 70.4289 258.532 70.8769C257.652 71.3089 256.556 71.5249 255.244 71.5249C254.012 71.5249 252.9 71.2529 251.908 70.7089C250.916 70.1649 250.14 69.4129 249.58 68.4529C249.02 67.4769 248.74 66.3649 248.74 65.1169C248.74 63.7729 249.028 62.5889 249.604 61.5649C250.18 60.5249 250.956 59.7249 251.932 59.1649C252.924 58.6049 254.004 58.3249 255.172 58.3249C256.388 58.3249 257.468 58.5969 258.412 59.1409C259.356 59.6689 260.092 60.4369 260.62 61.4449C261.148 62.4529 261.412 63.6529 261.412 65.0449C261.412 65.2529 261.388 65.3969 261.34 65.4769C261.308 65.5569 261.196 65.6049 261.004 65.6209H252.844C252.652 65.6209 252.556 65.7489 252.556 66.0049ZM257.38 63.6049C257.556 63.6049 257.668 63.5889 257.716 63.5569C257.764 63.5089 257.788 63.4129 257.788 63.2689C257.788 62.8529 257.692 62.4369 257.5 62.0209C257.308 61.6049 257.028 61.2609 256.66 60.9889C256.292 60.7169 255.844 60.5809 255.316 60.5809C254.516 60.5809 253.86 60.8609 253.348 61.4209C252.836 61.9809 252.588 62.7009 252.604 63.5809L257.38 63.6049ZM283.132 70.6369C283.164 70.7329 283.18 70.8049 283.18 70.8529C283.18 70.9809 283.14 71.0849 283.06 71.1649C282.98 71.2449 282.884 71.2849 282.772 71.2849H279.244C278.972 71.2849 278.796 71.1409 278.716 70.8529L276.124 64.1329C276.076 64.0049 276.004 63.9169 275.908 63.8689C275.812 63.8209 275.66 63.7969 275.452 63.7969H273.172C273.076 63.7969 273.004 63.8289 272.956 63.8929C272.908 63.9409 272.884 63.9969 272.884 64.0609V70.7089C272.884 70.9169 272.828 71.0689 272.716 71.1649C272.62 71.2449 272.46 71.2849 272.236 71.2849H269.188C268.996 71.2849 268.86 71.2449 268.78 71.1649C268.716 71.0849 268.684 70.9649 268.684 70.8049V53.9329C268.684 53.6289 268.812 53.4769 269.068 53.4769H276.556C278.716 53.4769 280.388 53.9009 281.572 54.7489C282.756 55.5969 283.348 56.8049 283.348 58.3729C283.348 59.5409 283.036 60.5409 282.412 61.3729C281.788 62.1889 281.004 62.7649 280.06 63.1009C279.932 63.1489 279.9 63.2689 279.964 63.4609L283.132 70.6369ZM276.172 60.9649C277.1 60.9649 277.804 60.7729 278.284 60.3889C278.764 59.9889 279.004 59.4129 279.004 58.6609C279.004 57.8929 278.756 57.3089 278.26 56.9089C277.78 56.4929 277.124 56.2849 276.292 56.2849H273.34C273.164 56.2849 273.044 56.3169 272.98 56.3809C272.916 56.4289 272.884 56.5249 272.884 56.6689V60.5569C272.884 60.7009 272.908 60.8049 272.956 60.8689C273.004 60.9329 273.092 60.9649 273.22 60.9649H276.172ZM292.652 70.0609C291.596 71.0369 290.34 71.5249 288.884 71.5249C287.684 71.5249 286.732 71.2049 286.028 70.5649C285.324 69.9089 284.972 69.0609 284.972 68.0209C284.972 66.6769 285.588 65.5969 286.82 64.7809C288.052 63.9649 289.748 63.5329 291.908 63.4849L292.772 63.4129C292.868 63.4129 292.948 63.3889 293.012 63.3409C293.092 63.2769 293.132 63.1889 293.132 63.0769V62.5729C293.132 61.9489 292.956 61.4689 292.604 61.1329C292.252 60.7969 291.748 60.6289 291.092 60.6289C289.972 60.6289 289.14 61.1089 288.596 62.0689C288.532 62.2289 288.428 62.3089 288.284 62.3089C288.204 62.3089 288.132 62.3009 288.068 62.2849L285.668 61.7329C285.524 61.7009 285.452 61.6129 285.452 61.4689C285.452 61.3729 285.484 61.2529 285.548 61.1089C285.932 60.1809 286.612 59.4849 287.588 59.0209C288.58 58.5569 289.804 58.3249 291.26 58.3249C293.164 58.3249 294.54 58.6769 295.388 59.3809C296.236 60.0689 296.66 61.0529 296.66 62.3329V70.7569C296.66 70.9489 296.628 71.0849 296.564 71.1649C296.5 71.2449 296.38 71.2849 296.204 71.2849H293.732C293.572 71.2849 293.452 71.2289 293.372 71.1169C293.308 71.0049 293.26 70.8369 293.228 70.6129L293.204 70.0849C293.188 69.9409 293.124 69.8689 293.012 69.8689C292.948 69.8689 292.828 69.9329 292.652 70.0609ZM293.132 65.6209C293.132 65.4769 293.108 65.3729 293.06 65.3089C293.012 65.2449 292.916 65.2129 292.772 65.2129L292.1 65.2609C291.172 65.3089 290.348 65.5329 289.628 65.9329C288.924 66.3169 288.572 66.8529 288.572 67.5409C288.572 68.0209 288.74 68.4049 289.076 68.6929C289.412 68.9649 289.876 69.1009 290.468 69.1009C291.204 69.1009 291.828 68.8849 292.34 68.4529C292.868 68.0369 293.132 67.6129 293.132 67.1809V65.6209ZM299.672 71.2849C299.496 71.2849 299.368 71.2529 299.288 71.1889C299.208 71.1089 299.168 70.9809 299.168 70.8049V59.0209C299.168 58.7169 299.296 58.5649 299.552 58.5649H302.456C302.696 58.5649 302.816 58.7009 302.816 58.9729V60.1489C302.816 60.2769 302.856 60.3409 302.936 60.3409C302.984 60.3409 303.04 60.3089 303.104 60.2449C303.76 59.6209 304.416 59.1489 305.072 58.8289C305.728 58.4929 306.424 58.3249 307.16 58.3249C308.328 58.3249 309.248 58.6689 309.92 59.3569C310.608 60.0449 310.952 60.9649 310.952 62.1169V70.7089C310.952 71.0929 310.76 71.2849 310.376 71.2849H307.712C307.536 71.2849 307.416 71.2529 307.352 71.1889C307.288 71.1089 307.256 70.9809 307.256 70.8049V62.6929C307.256 62.1489 307.104 61.7329 306.8 61.4449C306.512 61.1409 306.08 60.9889 305.504 60.9889C305.024 60.9889 304.576 61.1089 304.16 61.3489C303.76 61.5889 303.328 61.9649 302.864 62.4769V70.7329C302.864 70.9249 302.816 71.0689 302.72 71.1649C302.624 71.2449 302.464 71.2849 302.24 71.2849H299.672ZM326.329 58.0129C326.649 58.0129 326.809 58.1889 326.809 58.5409V60.1729C326.809 60.6209 326.625 60.8049 326.257 60.7249C326.017 60.6769 325.785 60.6529 325.561 60.6529C325.433 60.6529 325.289 60.6689 325.129 60.7009C324.713 60.7649 324.553 60.9489 324.649 61.2529C324.793 61.6849 324.865 62.0449 324.865 62.3329C324.865 63.0689 324.641 63.7329 324.193 64.3249C323.761 64.9169 323.105 65.3889 322.225 65.7409C321.361 66.0929 320.313 66.2689 319.081 66.2689C318.185 66.2689 317.521 66.3409 317.089 66.4849C316.673 66.6289 316.465 66.8209 316.465 67.0609C316.465 67.2689 316.577 67.4209 316.801 67.5169C317.041 67.5969 317.433 67.6529 317.977 67.6849L321.409 67.8769C322.993 67.9729 324.169 68.3249 324.937 68.9329C325.721 69.5409 326.113 70.3489 326.113 71.3569C326.113 72.6049 325.521 73.6049 324.337 74.3569C323.153 75.1089 321.473 75.4849 319.297 75.4849C314.641 75.4849 312.313 74.4529 312.313 72.3889C312.313 71.8769 312.513 71.4449 312.913 71.0929C313.313 70.7249 313.881 70.4049 314.617 70.1329C314.713 70.1009 314.761 70.0609 314.761 70.0129C314.761 69.9649 314.713 69.9169 314.617 69.8689C313.689 69.4209 313.225 68.8289 313.225 68.0929C313.225 67.6609 313.433 67.2609 313.849 66.8929C314.281 66.5089 314.849 66.1809 315.553 65.9089C315.745 65.8129 315.761 65.7169 315.601 65.6209C314.049 64.9009 313.273 63.8129 313.273 62.3569C313.273 61.1409 313.793 60.1729 314.833 59.4529C315.889 58.7329 317.393 58.3729 319.345 58.3729C320.993 58.3729 322.273 58.7329 323.185 59.4529C323.297 59.5329 323.401 59.5729 323.497 59.5729C323.625 59.5729 323.737 59.5169 323.833 59.4049C324.137 59.0369 324.537 58.7169 325.033 58.4449C325.529 58.1569 325.961 58.0129 326.329 58.0129ZM319.057 64.4449C319.873 64.4449 320.481 64.2609 320.881 63.8929C321.297 63.5089 321.505 63.0129 321.505 62.4049C321.505 61.7329 321.297 61.2049 320.881 60.8209C320.481 60.4209 319.873 60.2209 319.057 60.2209C318.289 60.2209 317.681 60.4209 317.233 60.8209C316.801 61.2209 316.585 61.7489 316.585 62.4049C316.585 63.0129 316.801 63.5089 317.233 63.8929C317.681 64.2609 318.289 64.4449 319.057 64.4449ZM317.281 70.5649C316.785 70.5329 316.337 70.6529 315.937 70.9249C315.553 71.1809 315.361 71.5089 315.361 71.9089C315.361 72.5009 315.689 72.9489 316.345 73.2529C317.001 73.5569 318.065 73.7089 319.537 73.7089C320.609 73.7089 321.433 73.5569 322.009 73.2529C322.585 72.9649 322.873 72.5489 322.873 72.0049C322.873 71.6369 322.713 71.3409 322.393 71.1169C322.073 70.8929 321.601 70.7649 320.977 70.7329L317.281 70.5649ZM331.377 66.0049C331.377 66.9009 331.673 67.6289 332.265 68.1889C332.873 68.7329 333.625 69.0049 334.521 69.0049C335.097 69.0049 335.625 68.8849 336.105 68.6449C336.601 68.3889 337.097 67.9729 337.593 67.3969C337.657 67.3329 337.721 67.3009 337.785 67.3009C337.833 67.3009 337.913 67.3249 338.025 67.3729L339.753 68.0929C339.865 68.1409 339.921 68.2209 339.921 68.3329C339.921 68.4129 339.889 68.4929 339.825 68.5729C339.057 69.6609 338.233 70.4289 337.353 70.8769C336.473 71.3089 335.377 71.5249 334.065 71.5249C332.833 71.5249 331.721 71.2529 330.729 70.7089C329.737 70.1649 328.961 69.4129 328.401 68.4529C327.841 67.4769 327.561 66.3649 327.561 65.1169C327.561 63.7729 327.849 62.5889 328.425 61.5649C329.001 60.5249 329.777 59.7249 330.753 59.1649C331.745 58.6049 332.825 58.3249 333.993 58.3249C335.209 58.3249 336.289 58.5969 337.233 59.1409C338.177 59.6689 338.913 60.4369 339.441 61.4449C339.969 62.4529 340.233 63.6529 340.233 65.0449C340.233 65.2529 340.209 65.3969 340.161 65.4769C340.129 65.5569 340.017 65.6049 339.825 65.6209H331.665C331.473 65.6209 331.377 65.7489 331.377 66.0049ZM336.201 63.6049C336.377 63.6049 336.489 63.5889 336.537 63.5569C336.585 63.5089 336.609 63.4129 336.609 63.2689C336.609 62.8529 336.513 62.4369 336.321 62.0209C336.129 61.6049 335.849 61.2609 335.481 60.9889C335.113 60.7169 334.665 60.5809 334.137 60.5809C333.337 60.5809 332.681 60.8609 332.169 61.4209C331.657 61.9809 331.409 62.7009 331.425 63.5809L336.201 63.6049ZM353 71.5249C351.736 71.5249 350.616 71.2529 349.64 70.7089C348.68 70.1489 347.928 69.3729 347.384 68.3809C346.84 67.3889 346.568 66.2609 346.568 64.9969C346.568 63.6849 346.84 62.5249 347.384 61.5169C347.944 60.5089 348.712 59.7249 349.688 59.1649C350.68 58.6049 351.792 58.3249 353.024 58.3249C354.288 58.3249 355.408 58.6129 356.384 59.1889C357.36 59.7489 358.112 60.5329 358.64 61.5409C359.184 62.5489 359.456 63.6929 359.456 64.9729C359.456 66.2369 359.184 67.3649 358.64 68.3569C358.096 69.3489 357.336 70.1249 356.36 70.6849C355.384 71.2449 354.264 71.5249 353 71.5249ZM353.024 69.0769C353.904 69.0769 354.568 68.7329 355.016 68.0449C355.48 67.3409 355.712 66.3009 355.712 64.9249C355.712 63.5329 355.48 62.4849 355.016 61.7809C354.568 61.0609 353.904 60.7009 353.024 60.7009C352.144 60.7009 351.472 61.0609 351.008 61.7809C350.544 62.4849 350.312 63.5329 350.312 64.9249C350.312 66.2849 350.544 67.3169 351.008 68.0209C351.472 68.7249 352.144 69.0769 353.024 69.0769ZM368.505 58.5649C368.649 58.5649 368.761 58.6049 368.841 58.6849C368.921 58.7649 368.961 58.8609 368.961 58.9729V60.7489C368.961 60.9889 368.825 61.1089 368.553 61.1089H366.561C366.401 61.1089 366.321 61.1969 366.321 61.3729V70.8289C366.321 71.1329 366.193 71.2849 365.937 71.2849H362.985C362.745 71.2849 362.625 71.1489 362.625 70.8769V61.3249C362.625 61.1809 362.561 61.1089 362.433 61.1089H360.705C360.417 61.1089 360.273 60.9889 360.273 60.7489V58.9729C360.273 58.8609 360.313 58.7649 360.393 58.6849C360.473 58.6049 360.585 58.5649 360.729 58.5649H362.337C362.449 58.5649 362.521 58.5409 362.553 58.4929C362.601 58.4289 362.625 58.3329 362.625 58.2049V56.7409C362.625 55.7169 362.929 54.9169 363.537 54.3409C364.145 53.7649 365.001 53.4769 366.105 53.4769H368.529C368.881 53.4769 369.057 53.6449 369.057 53.9809L369.081 55.5409C369.081 55.8129 368.961 55.9489 368.721 55.9489H367.425C367.073 55.9489 366.785 56.0849 366.561 56.3569C366.337 56.6129 366.225 56.9489 366.225 57.3649V58.3009C366.225 58.4769 366.321 58.5649 366.513 58.5649H368.505ZM376.075 53.9329C376.075 53.6289 376.203 53.4769 376.459 53.4769H388.555C388.795 53.4769 388.915 53.6129 388.915 53.8849L388.891 56.0449C388.891 56.3809 388.723 56.5489 388.387 56.5489H380.731C380.427 56.5489 380.275 56.6769 380.275 56.9329V60.4129C380.275 60.6849 380.395 60.8209 380.635 60.8209H385.723C385.995 60.8209 386.131 60.9489 386.131 61.2049V63.5089C386.131 63.7329 386.003 63.8449 385.747 63.8449H380.611C380.387 63.8449 380.275 63.9409 380.275 64.1329V67.9009C380.275 68.0129 380.291 68.0929 380.323 68.1409C380.371 68.1889 380.443 68.2129 380.539 68.2129H388.747C389.035 68.2129 389.179 68.3329 389.179 68.5729V70.8529C389.179 71.1409 389.019 71.2849 388.699 71.2849H376.603C376.411 71.2849 376.275 71.2449 376.195 71.1649C376.115 71.0849 376.075 70.9569 376.075 70.7809V53.9329ZM403.351 70.4689C403.543 70.7249 403.639 70.9169 403.639 71.0449C403.639 71.2049 403.487 71.2849 403.183 71.2849H400.111C399.727 71.2849 399.455 71.1569 399.295 70.9009L396.823 67.4209C396.695 67.2129 396.599 67.1089 396.535 67.1089C396.471 67.1089 396.375 67.2049 396.247 67.3969L393.727 70.9009C393.567 71.1569 393.303 71.2849 392.935 71.2849H390.967C390.583 71.2849 390.391 71.1729 390.391 70.9489C390.391 70.7729 390.487 70.5649 390.679 70.3249L394.615 65.2609C394.711 65.1169 394.759 65.0049 394.759 64.9249C394.759 64.8129 394.703 64.6769 394.591 64.5169L390.703 59.2369C390.639 59.1569 390.607 59.0609 390.607 58.9489C390.607 58.8529 390.647 58.7649 390.727 58.6849C390.807 58.6049 390.919 58.5649 391.063 58.5649H393.991C394.199 58.5649 394.351 58.5969 394.447 58.6609C394.559 58.7089 394.663 58.8049 394.759 58.9489L396.991 62.0929C397.071 62.2209 397.143 62.2849 397.207 62.2849C397.255 62.2849 397.319 62.2209 397.399 62.0929L399.511 58.9489C399.607 58.8049 399.703 58.7089 399.799 58.6609C399.911 58.5969 400.079 58.5649 400.303 58.5649H402.463C402.735 58.5649 402.871 58.6449 402.871 58.8049C402.871 58.8849 402.823 58.9889 402.727 59.1169L399.151 63.9649C399.055 64.0769 399.007 64.1889 399.007 64.3009C399.007 64.3809 399.063 64.5089 399.175 64.6849L403.351 70.4689ZM408.579 58.5649C408.771 58.5649 408.907 58.6049 408.987 58.6849C409.067 58.7489 409.107 58.8689 409.107 59.0449V59.7649C409.107 59.8769 409.139 59.9329 409.203 59.9329C409.251 59.9329 409.331 59.8929 409.443 59.8129C409.939 59.3489 410.443 58.9889 410.955 58.7329C411.483 58.4609 412.147 58.3249 412.947 58.3249C414.403 58.3249 415.587 58.8769 416.499 59.9809C417.411 61.0849 417.867 62.7009 417.867 64.8289C417.867 67.0369 417.395 68.7089 416.451 69.8449C415.523 70.9649 414.291 71.5249 412.755 71.5249C411.491 71.5249 410.419 71.1169 409.539 70.3009C409.379 70.1729 409.267 70.1089 409.203 70.1089C409.123 70.1089 409.083 70.2209 409.083 70.4449V74.8369C409.083 75.1089 408.963 75.2449 408.723 75.2449H405.771C405.659 75.2449 405.563 75.2049 405.483 75.1249C405.419 75.0609 405.387 74.9569 405.387 74.8129V59.0929C405.387 58.9009 405.427 58.7649 405.507 58.6849C405.603 58.6049 405.747 58.5649 405.939 58.5649H408.579ZM409.083 67.9969C409.435 68.3809 409.795 68.6769 410.163 68.8849C410.531 69.0929 410.939 69.1969 411.387 69.1969C413.211 69.1969 414.123 67.7169 414.123 64.7569C414.123 63.2849 413.891 62.2369 413.427 61.6129C412.963 60.9729 412.307 60.6529 411.459 60.6529C410.803 60.6529 410.243 60.8529 409.779 61.2529C409.315 61.6369 409.083 62.0769 409.083 62.5729V67.9969ZM423.252 66.0049C423.252 66.9009 423.548 67.6289 424.14 68.1889C424.748 68.7329 425.5 69.0049 426.396 69.0049C426.972 69.0049 427.5 68.8849 427.98 68.6449C428.476 68.3889 428.972 67.9729 429.468 67.3969C429.532 67.3329 429.596 67.3009 429.66 67.3009C429.708 67.3009 429.788 67.3249 429.9 67.3729L431.628 68.0929C431.74 68.1409 431.796 68.2209 431.796 68.3329C431.796 68.4129 431.764 68.4929 431.7 68.5729C430.932 69.6609 430.108 70.4289 429.228 70.8769C428.348 71.3089 427.252 71.5249 425.94 71.5249C424.708 71.5249 423.596 71.2529 422.604 70.7089C421.612 70.1649 420.836 69.4129 420.276 68.4529C419.716 67.4769 419.436 66.3649 419.436 65.1169C419.436 63.7729 419.724 62.5889 420.3 61.5649C420.876 60.5249 421.652 59.7249 422.628 59.1649C423.62 58.6049 424.7 58.3249 425.868 58.3249C427.084 58.3249 428.164 58.5969 429.108 59.1409C430.052 59.6689 430.788 60.4369 431.316 61.4449C431.844 62.4529 432.108 63.6529 432.108 65.0449C432.108 65.2529 432.084 65.3969 432.036 65.4769C432.004 65.5569 431.892 65.6049 431.7 65.6209H423.54C423.348 65.6209 423.252 65.7489 423.252 66.0049ZM428.076 63.6049C428.252 63.6049 428.364 63.5889 428.412 63.5569C428.46 63.5089 428.484 63.4129 428.484 63.2689C428.484 62.8529 428.388 62.4369 428.196 62.0209C428.004 61.6049 427.724 61.2609 427.356 60.9889C426.988 60.7169 426.54 60.5809 426.012 60.5809C425.212 60.5809 424.556 60.8609 424.044 61.4209C423.532 61.9809 423.284 62.7009 423.3 63.5809L428.076 63.6049ZM434.578 71.2849C434.402 71.2849 434.274 71.2529 434.194 71.1889C434.114 71.1089 434.074 70.9809 434.074 70.8049V59.0209C434.074 58.7169 434.202 58.5649 434.458 58.5649H437.362C437.602 58.5649 437.722 58.7009 437.722 58.9729V60.1489C437.722 60.2769 437.762 60.3409 437.842 60.3409C437.89 60.3409 437.946 60.3089 438.01 60.2449C438.666 59.6209 439.322 59.1489 439.978 58.8289C440.634 58.4929 441.33 58.3249 442.066 58.3249C443.234 58.3249 444.154 58.6689 444.826 59.3569C445.514 60.0449 445.858 60.9649 445.858 62.1169V70.7089C445.858 71.0929 445.666 71.2849 445.282 71.2849H442.618C442.442 71.2849 442.322 71.2529 442.258 71.1889C442.194 71.1089 442.162 70.9809 442.162 70.8049V62.6929C442.162 62.1489 442.01 61.7329 441.706 61.4449C441.418 61.1409 440.986 60.9889 440.41 60.9889C439.93 60.9889 439.482 61.1089 439.066 61.3489C438.666 61.5889 438.234 61.9649 437.77 62.4769V70.7329C437.77 70.9249 437.722 71.0689 437.626 71.1649C437.53 71.2449 437.37 71.2849 437.146 71.2849H434.578ZM456.219 61.8769C455.563 61.0129 454.627 60.5809 453.411 60.5809C452.803 60.5809 452.299 60.7009 451.899 60.9409C451.499 61.1649 451.299 61.4769 451.299 61.8769C451.299 62.1009 451.387 62.3089 451.563 62.5009C451.755 62.6769 452.115 62.8289 452.643 62.9569L455.403 63.6289C456.667 63.9329 457.595 64.4209 458.187 65.0929C458.779 65.7489 459.075 66.5249 459.075 67.4209C459.075 68.6849 458.547 69.6849 457.491 70.4209C456.435 71.1569 455.051 71.5249 453.339 71.5249C451.963 71.5249 450.771 71.2849 449.763 70.8049C448.755 70.3089 448.043 69.6689 447.627 68.8849C447.547 68.7729 447.507 68.6689 447.507 68.5729C447.507 68.4609 447.563 68.3809 447.675 68.3329L449.307 67.4929C449.435 67.4289 449.547 67.3969 449.643 67.3969C449.739 67.3969 449.827 67.4369 449.907 67.5169C450.259 68.0129 450.683 68.4129 451.179 68.7169C451.691 69.0049 452.363 69.1489 453.195 69.1489C453.947 69.1489 454.555 69.0369 455.019 68.8129C455.499 68.5889 455.739 68.2609 455.739 67.8289C455.739 67.5409 455.619 67.3009 455.379 67.1089C455.139 66.9169 454.731 66.7489 454.155 66.6049L451.683 66.0769C449.251 65.5489 448.035 64.3409 448.035 62.4529C448.035 61.6529 448.251 60.9409 448.683 60.3169C449.131 59.6929 449.763 59.2049 450.579 58.8529C451.395 58.5009 452.355 58.3249 453.459 58.3249C454.627 58.3249 455.659 58.5409 456.555 58.9729C457.467 59.4049 458.123 59.9489 458.523 60.6049C458.619 60.7329 458.667 60.8449 458.667 60.9409C458.667 61.0369 458.611 61.1169 458.499 61.1809L456.771 62.0209C456.723 62.0529 456.659 62.0689 456.579 62.0689C456.435 62.0689 456.315 62.0049 456.219 61.8769ZM464.337 66.0049C464.337 66.9009 464.633 67.6289 465.225 68.1889C465.833 68.7329 466.585 69.0049 467.481 69.0049C468.057 69.0049 468.585 68.8849 469.065 68.6449C469.561 68.3889 470.057 67.9729 470.553 67.3969C470.617 67.3329 470.681 67.3009 470.745 67.3009C470.793 67.3009 470.873 67.3249 470.985 67.3729L472.713 68.0929C472.825 68.1409 472.881 68.2209 472.881 68.3329C472.881 68.4129 472.849 68.4929 472.785 68.5729C472.017 69.6609 471.193 70.4289 470.313 70.8769C469.433 71.3089 468.337 71.5249 467.025 71.5249C465.793 71.5249 464.681 71.2529 463.689 70.7089C462.697 70.1649 461.921 69.4129 461.361 68.4529C460.801 67.4769 460.521 66.3649 460.521 65.1169C460.521 63.7729 460.809 62.5889 461.385 61.5649C461.961 60.5249 462.737 59.7249 463.713 59.1649C464.705 58.6049 465.785 58.3249 466.953 58.3249C468.169 58.3249 469.249 58.5969 470.193 59.1409C471.137 59.6689 471.873 60.4369 472.401 61.4449C472.929 62.4529 473.193 63.6529 473.193 65.0449C473.193 65.2529 473.169 65.3969 473.121 65.4769C473.089 65.5569 472.977 65.6049 472.785 65.6209H464.625C464.433 65.6209 464.337 65.7489 464.337 66.0049ZM469.161 63.6049C469.337 63.6049 469.449 63.5889 469.497 63.5569C469.545 63.5089 469.569 63.4129 469.569 63.2689C469.569 62.8529 469.473 62.4369 469.281 62.0209C469.089 61.6049 468.809 61.2609 468.441 60.9889C468.073 60.7169 467.625 60.5809 467.097 60.5809C466.297 60.5809 465.641 60.8609 465.129 61.4209C464.617 61.9809 464.369 62.7009 464.385 63.5809L469.161 63.6049ZM483.008 61.8769C482.352 61.0129 481.416 60.5809 480.2 60.5809C479.592 60.5809 479.088 60.7009 478.688 60.9409C478.288 61.1649 478.088 61.4769 478.088 61.8769C478.088 62.1009 478.176 62.3089 478.352 62.5009C478.544 62.6769 478.904 62.8289 479.432 62.9569L482.192 63.6289C483.456 63.9329 484.384 64.4209 484.976 65.0929C485.568 65.7489 485.864 66.5249 485.864 67.4209C485.864 68.6849 485.336 69.6849 484.28 70.4209C483.224 71.1569 481.84 71.5249 480.128 71.5249C478.752 71.5249 477.56 71.2849 476.552 70.8049C475.544 70.3089 474.832 69.6689 474.416 68.8849C474.336 68.7729 474.296 68.6689 474.296 68.5729C474.296 68.4609 474.352 68.3809 474.464 68.3329L476.096 67.4929C476.224 67.4289 476.336 67.3969 476.432 67.3969C476.528 67.3969 476.616 67.4369 476.696 67.5169C477.048 68.0129 477.472 68.4129 477.968 68.7169C478.48 69.0049 479.152 69.1489 479.984 69.1489C480.736 69.1489 481.344 69.0369 481.808 68.8129C482.288 68.5889 482.528 68.2609 482.528 67.8289C482.528 67.5409 482.408 67.3009 482.168 67.1089C481.928 66.9169 481.52 66.7489 480.944 66.6049L478.472 66.0769C476.04 65.5489 474.824 64.3409 474.824 62.4529C474.824 61.6529 475.04 60.9409 475.472 60.3169C475.92 59.6929 476.552 59.2049 477.368 58.8529C478.184 58.5009 479.144 58.3249 480.248 58.3249C481.416 58.3249 482.448 58.5409 483.344 58.9729C484.256 59.4049 484.912 59.9489 485.312 60.6049C485.408 60.7329 485.456 60.8449 485.456 60.9409C485.456 61.0369 485.4 61.1169 485.288 61.1809L483.56 62.0209C483.512 62.0529 483.448 62.0689 483.368 62.0689C483.224 62.0689 483.104 62.0049 483.008 61.8769ZM491.559 62.1889C491.559 62.3969 491.503 62.5489 491.391 62.6449C491.295 62.7249 491.127 62.7649 490.887 62.7649H488.055C487.703 62.7649 487.527 62.5969 487.527 62.2609V59.2849C487.527 59.1409 487.559 59.0369 487.623 58.9729C487.703 58.8929 487.799 58.8529 487.911 58.8529H491.199C491.439 58.8529 491.559 58.9889 491.559 59.2609V62.1889ZM491.559 70.6369C491.559 70.8449 491.503 70.9969 491.391 71.0929C491.295 71.1729 491.127 71.2129 490.887 71.2129H488.055C487.703 71.2129 487.527 71.0449 487.527 70.7089V67.7329C487.527 67.4449 487.655 67.3009 487.911 67.3009H491.199C491.439 67.3009 491.559 67.4289 491.559 67.6849V70.6369Z" fill="#3A082C"/>
</svg>
