<svg width="298" height="193" viewBox="0 0 298 193" fill="none" xmlns="http://www.w3.org/2000/svg">
<path d="M4 127.524H294V168.109C294 179.155 285.046 188.109 274 188.109H24C12.9543 188.109 4 179.155 4 168.109V127.524Z" fill="#7B73B1"/>
<rect x="4" y="42.0762" width="290" height="146.614" rx="20" stroke="#3A082C" stroke-width="8"/>
<circle cx="148.999" cy="40.5571" r="35.8745" fill="white" stroke="#3A082C" stroke-width="8"/>
<circle cx="153.571" cy="44.1235" r="32.6215" fill="#EE8363"/>
<circle cx="148.999" cy="40.5571" r="35.8745" stroke="#3A082C" stroke-width="8"/>
<path d="M159.524 46.9103C159.524 49.0463 158.792 50.8343 157.328 52.2743C155.888 53.6903 153.944 54.5183 151.496 54.7583C151.232 54.7823 151.064 54.8303 150.992 54.9023C150.92 54.9743 150.884 55.1183 150.884 55.3343V56.6303C150.884 56.9183 150.812 57.1223 150.668 57.2423C150.548 57.3863 150.332 57.4583 150.02 57.4583H148.04C147.536 57.4583 147.284 57.2183 147.284 56.7383V55.2983C147.284 55.0823 147.248 54.9383 147.176 54.8663C147.104 54.7943 146.972 54.7583 146.78 54.7583C145.052 54.6623 143.54 54.3503 142.244 53.8223C140.972 53.2703 139.772 52.4783 138.644 51.4463C138.284 51.1583 138.104 50.9063 138.104 50.6903C138.104 50.5463 138.164 50.4143 138.284 50.2943L140.444 47.9543C140.66 47.7383 140.852 47.6303 141.02 47.6303C141.164 47.6303 141.32 47.7143 141.488 47.8823C143 49.5143 144.776 50.4623 146.816 50.7263L147.032 50.7623C147.224 50.7623 147.32 50.6303 147.32 50.3663L147.356 44.2103C147.356 44.0183 147.32 43.8743 147.248 43.7783C147.176 43.6583 147.032 43.5623 146.816 43.4903C143.984 42.8663 141.944 41.8823 140.696 40.5383C139.472 39.1943 138.86 37.5503 138.86 35.6063C138.86 33.6863 139.544 32.0543 140.912 30.7103C142.28 29.3423 144.2 28.4423 146.672 28.0103C147.128 27.8903 147.356 27.6863 147.356 27.3983V26.0303C147.356 25.8863 147.392 25.7663 147.464 25.6703C147.56 25.5743 147.668 25.5263 147.788 25.5263H150.236C150.668 25.5263 150.884 25.7543 150.884 26.2103V27.6503C150.884 27.7943 151.04 27.9023 151.352 27.9743C153.776 28.4783 155.852 29.3783 157.58 30.6743C157.772 30.7943 157.868 30.9503 157.868 31.1423C157.868 31.2623 157.808 31.4063 157.688 31.5743L155.78 34.0223C155.636 34.1903 155.492 34.2743 155.348 34.2743C155.156 34.2743 154.964 34.1783 154.772 33.9863C154.364 33.5783 153.848 33.2063 153.224 32.8703C152.624 32.5103 151.988 32.2463 151.316 32.0783L151.172 32.0423C150.956 32.0423 150.848 32.1503 150.848 32.3663V38.4503C150.848 38.5943 150.872 38.7023 150.92 38.7743C150.992 38.8223 151.112 38.8703 151.28 38.9183L153.296 39.4583C155.192 40.0343 156.704 40.9823 157.832 42.3023C158.96 43.5983 159.524 45.1343 159.524 46.9103ZM147.356 32.3303C147.356 31.9703 147.2 31.8263 146.888 31.8983C145.808 32.0903 144.98 32.4743 144.404 33.0503C143.828 33.6023 143.54 34.2623 143.54 35.0303C143.54 35.7743 143.78 36.3983 144.26 36.9023C144.74 37.3823 145.532 37.7903 146.636 38.1263C146.684 38.1503 146.756 38.1623 146.852 38.1623C147.188 38.1623 147.356 37.9343 147.356 37.4783V32.3303ZM150.848 50.5103C150.848 50.7263 151.004 50.8103 151.316 50.7623C152.396 50.6423 153.248 50.3063 153.872 49.7543C154.496 49.2023 154.808 48.5303 154.808 47.7383C154.808 46.8983 154.532 46.2023 153.98 45.6503C153.428 45.0983 152.54 44.6543 151.316 44.3183C151.268 44.2943 151.196 44.2823 151.1 44.2823C150.932 44.2823 150.848 44.4143 150.848 44.6783V50.5103Z" fill="white"/>
<path d="M95.4273 160.753C95.4273 162.058 94.98 163.151 94.0853 164.031C93.2053 164.896 92.0173 165.402 90.5213 165.549C90.36 165.564 90.2573 165.593 90.2133 165.637C90.1693 165.681 90.1473 165.769 90.1473 165.901V166.693C90.1473 166.869 90.1033 166.994 90.0153 167.067C89.942 167.155 89.81 167.199 89.6193 167.199H88.4093C88.1013 167.199 87.9473 167.052 87.9473 166.759V165.879C87.9473 165.747 87.9253 165.659 87.8813 165.615C87.8373 165.571 87.7566 165.549 87.6393 165.549C86.5833 165.49 85.6593 165.3 84.8673 164.977C84.09 164.64 83.3566 164.156 82.6673 163.525C82.4473 163.349 82.3373 163.195 82.3373 163.063C82.3373 162.975 82.374 162.894 82.4473 162.821L83.7673 161.391C83.8993 161.259 84.0166 161.193 84.1193 161.193C84.2073 161.193 84.3026 161.244 84.4053 161.347C85.3293 162.344 86.4146 162.924 87.6613 163.085L87.7933 163.107C87.9106 163.107 87.9693 163.026 87.9693 162.865L87.9913 159.103C87.9913 158.986 87.9693 158.898 87.9253 158.839C87.8813 158.766 87.7933 158.707 87.6613 158.663C85.9306 158.282 84.684 157.68 83.9213 156.859C83.1733 156.038 82.7993 155.033 82.7993 153.845C82.7993 152.672 83.2173 151.674 84.0533 150.853C84.8893 150.017 86.0626 149.467 87.5733 149.203C87.852 149.13 87.9913 149.005 87.9913 148.829V147.993C87.9913 147.905 88.0133 147.832 88.0573 147.773C88.116 147.714 88.182 147.685 88.2553 147.685H89.7513C90.0153 147.685 90.1473 147.824 90.1473 148.103V148.983C90.1473 149.071 90.2426 149.137 90.4333 149.181C91.9146 149.489 93.1833 150.039 94.2393 150.831C94.3566 150.904 94.4153 151 94.4153 151.117C94.4153 151.19 94.3786 151.278 94.3053 151.381L93.1393 152.877C93.0513 152.98 92.9633 153.031 92.8753 153.031C92.758 153.031 92.6406 152.972 92.5233 152.855C92.274 152.606 91.9586 152.378 91.5773 152.173C91.2106 151.953 90.822 151.792 90.4113 151.689L90.3233 151.667C90.1913 151.667 90.1253 151.733 90.1253 151.865V155.583C90.1253 155.671 90.14 155.737 90.1693 155.781C90.2133 155.81 90.2866 155.84 90.3893 155.869L91.6213 156.199C92.78 156.551 93.704 157.13 94.3933 157.937C95.0826 158.729 95.4273 159.668 95.4273 160.753ZM87.9913 151.843C87.9913 151.623 87.896 151.535 87.7053 151.579C87.0453 151.696 86.5393 151.931 86.1873 152.283C85.8353 152.62 85.6593 153.024 85.6593 153.493C85.6593 153.948 85.806 154.329 86.0993 154.637C86.3926 154.93 86.8766 155.18 87.5513 155.385C87.5806 155.4 87.6246 155.407 87.6833 155.407C87.8886 155.407 87.9913 155.268 87.9913 154.989V151.843ZM90.1253 162.953C90.1253 163.085 90.2206 163.136 90.4113 163.107C91.0713 163.034 91.592 162.828 91.9733 162.491C92.3546 162.154 92.5453 161.743 92.5453 161.259C92.5453 160.746 92.3766 160.32 92.0393 159.983C91.702 159.646 91.1593 159.374 90.4113 159.169C90.382 159.154 90.338 159.147 90.2793 159.147C90.1766 159.147 90.1253 159.228 90.1253 159.389V162.953ZM106.257 162.623C106.521 162.623 106.653 162.733 106.653 162.953V165.087C106.653 165.19 106.617 165.278 106.543 165.351C106.47 165.424 106.36 165.461 106.213 165.461H97.5233C97.2446 165.461 97.1053 165.336 97.1053 165.087V162.953C97.1053 162.733 97.23 162.623 97.4793 162.623H99.7673C99.9286 162.623 100.009 162.572 100.009 162.469V153.229C100.009 153.112 99.9873 153.038 99.9433 153.009C99.8993 152.965 99.8186 152.958 99.7013 152.987L97.5673 153.625L97.4133 153.647C97.1933 153.647 97.0833 153.5 97.0833 153.207V151.755C97.0833 151.608 97.1053 151.506 97.1493 151.447C97.1933 151.374 97.2813 151.3 97.4133 151.227L101.087 149.401C101.293 149.298 101.454 149.232 101.571 149.203C101.703 149.159 101.85 149.137 102.011 149.137H103.529C103.632 149.137 103.713 149.174 103.771 149.247C103.83 149.32 103.859 149.416 103.859 149.533V162.403C103.859 162.55 103.925 162.623 104.057 162.623H106.257ZM115.207 148.895C116.512 148.895 117.678 149.247 118.705 149.951C119.731 150.655 120.538 151.645 121.125 152.921C121.711 154.197 122.005 155.671 122.005 157.343C122.005 159.015 121.711 160.482 121.125 161.743C120.553 162.99 119.753 163.958 118.727 164.647C117.7 165.322 116.527 165.659 115.207 165.659C113.887 165.659 112.706 165.322 111.665 164.647C110.638 163.958 109.831 162.99 109.245 161.743C108.673 160.482 108.387 159.022 108.387 157.365C108.387 155.693 108.68 154.219 109.267 152.943C109.853 151.652 110.66 150.655 111.687 149.951C112.728 149.247 113.901 148.895 115.207 148.895ZM115.207 162.931C116.189 162.931 116.915 162.498 117.385 161.633C117.854 160.768 118.089 159.345 118.089 157.365C118.089 155.341 117.847 153.874 117.363 152.965C116.893 152.041 116.167 151.579 115.185 151.579C114.217 151.579 113.491 152.041 113.007 152.965C112.523 153.889 112.281 155.356 112.281 157.365C112.281 159.33 112.523 160.753 113.007 161.633C113.491 162.498 114.224 162.931 115.207 162.931ZM130.783 148.895C132.088 148.895 133.254 149.247 134.281 149.951C135.307 150.655 136.114 151.645 136.701 152.921C137.287 154.197 137.581 155.671 137.581 157.343C137.581 159.015 137.287 160.482 136.701 161.743C136.129 162.99 135.329 163.958 134.303 164.647C133.276 165.322 132.103 165.659 130.783 165.659C129.463 165.659 128.282 165.322 127.241 164.647C126.214 163.958 125.407 162.99 124.821 161.743C124.249 160.482 123.963 159.022 123.963 157.365C123.963 155.693 124.256 154.219 124.843 152.943C125.429 151.652 126.236 150.655 127.263 149.951C128.304 149.247 129.477 148.895 130.783 148.895ZM130.783 162.931C131.765 162.931 132.491 162.498 132.961 161.633C133.43 160.768 133.665 159.345 133.665 157.365C133.665 155.341 133.423 153.874 132.939 152.965C132.469 152.041 131.743 151.579 130.761 151.579C129.793 151.579 129.067 152.041 128.583 152.965C128.099 153.889 127.857 155.356 127.857 157.365C127.857 159.33 128.099 160.753 128.583 161.633C129.067 162.498 129.8 162.931 130.783 162.931ZM150.364 160.401C150.364 160.724 150.174 160.885 149.792 160.885H144.622C144.446 160.885 144.322 160.856 144.248 160.797C144.19 160.724 144.16 160.606 144.16 160.445V158.839C144.16 158.575 144.27 158.443 144.49 158.443H150.034C150.137 158.443 150.218 158.472 150.276 158.531C150.335 158.59 150.364 158.67 150.364 158.773V160.401ZM169.613 160.753C169.613 162.058 169.165 163.151 168.271 164.031C167.391 164.896 166.203 165.402 164.707 165.549C164.545 165.564 164.443 165.593 164.399 165.637C164.355 165.681 164.333 165.769 164.333 165.901V166.693C164.333 166.869 164.289 166.994 164.201 167.067C164.127 167.155 163.995 167.199 163.805 167.199H162.595C162.287 167.199 162.133 167.052 162.133 166.759V165.879C162.133 165.747 162.111 165.659 162.067 165.615C162.023 165.571 161.942 165.549 161.825 165.549C160.769 165.49 159.845 165.3 159.053 164.977C158.275 164.64 157.542 164.156 156.853 163.525C156.633 163.349 156.523 163.195 156.523 163.063C156.523 162.975 156.559 162.894 156.633 162.821L157.953 161.391C158.085 161.259 158.202 161.193 158.305 161.193C158.393 161.193 158.488 161.244 158.591 161.347C159.515 162.344 160.6 162.924 161.847 163.085L161.979 163.107C162.096 163.107 162.155 163.026 162.155 162.865L162.177 159.103C162.177 158.986 162.155 158.898 162.111 158.839C162.067 158.766 161.979 158.707 161.847 158.663C160.116 158.282 158.869 157.68 158.107 156.859C157.359 156.038 156.985 155.033 156.985 153.845C156.985 152.672 157.403 151.674 158.239 150.853C159.075 150.017 160.248 149.467 161.759 149.203C162.037 149.13 162.177 149.005 162.177 148.829V147.993C162.177 147.905 162.199 147.832 162.243 147.773C162.301 147.714 162.367 147.685 162.441 147.685H163.937C164.201 147.685 164.333 147.824 164.333 148.103V148.983C164.333 149.071 164.428 149.137 164.619 149.181C166.1 149.489 167.369 150.039 168.425 150.831C168.542 150.904 168.601 151 168.601 151.117C168.601 151.19 168.564 151.278 168.491 151.381L167.325 152.877C167.237 152.98 167.149 153.031 167.061 153.031C166.943 153.031 166.826 152.972 166.709 152.855C166.459 152.606 166.144 152.378 165.763 152.173C165.396 151.953 165.007 151.792 164.597 151.689L164.509 151.667C164.377 151.667 164.311 151.733 164.311 151.865V155.583C164.311 155.671 164.325 155.737 164.355 155.781C164.399 155.81 164.472 155.84 164.575 155.869L165.807 156.199C166.965 156.551 167.889 157.13 168.579 157.937C169.268 158.729 169.613 159.668 169.613 160.753ZM162.177 151.843C162.177 151.623 162.081 151.535 161.891 151.579C161.231 151.696 160.725 151.931 160.373 152.283C160.021 152.62 159.845 153.024 159.845 153.493C159.845 153.948 159.991 154.329 160.285 154.637C160.578 154.93 161.062 155.18 161.737 155.385C161.766 155.4 161.81 155.407 161.869 155.407C162.074 155.407 162.177 155.268 162.177 154.989V151.843ZM164.311 162.953C164.311 163.085 164.406 163.136 164.597 163.107C165.257 163.034 165.777 162.828 166.159 162.491C166.54 162.154 166.731 161.743 166.731 161.259C166.731 160.746 166.562 160.32 166.225 159.983C165.887 159.646 165.345 159.374 164.597 159.169C164.567 159.154 164.523 159.147 164.465 159.147C164.362 159.147 164.311 159.228 164.311 159.389V162.953ZM171.819 151.689C171.76 151.63 171.731 151.557 171.731 151.469C171.731 151.396 171.76 151.308 171.819 151.205C172.406 150.501 173.212 149.944 174.239 149.533C175.266 149.122 176.358 148.917 177.517 148.917C178.778 148.917 179.871 149.1 180.795 149.467C181.734 149.819 182.445 150.318 182.929 150.963C183.428 151.608 183.677 152.349 183.677 153.185C183.677 153.918 183.45 154.6 182.995 155.231C182.54 155.847 181.902 156.28 181.081 156.529C180.905 156.588 180.817 156.661 180.817 156.749C180.817 156.822 180.898 156.881 181.059 156.925C181.998 157.233 182.753 157.724 183.325 158.399C183.897 159.074 184.183 159.851 184.183 160.731C184.183 162.33 183.596 163.554 182.423 164.405C181.264 165.256 179.541 165.681 177.253 165.681C175.992 165.681 174.811 165.439 173.711 164.955C172.626 164.456 171.775 163.789 171.159 162.953C171.086 162.85 171.049 162.755 171.049 162.667C171.049 162.55 171.13 162.432 171.291 162.315L173.007 161.105C173.139 161.017 173.234 160.973 173.293 160.973C173.381 160.973 173.447 161.01 173.491 161.083C174.18 161.787 174.811 162.278 175.383 162.557C175.97 162.836 176.666 162.975 177.473 162.975C178.382 162.975 179.094 162.777 179.607 162.381C180.135 161.985 180.399 161.464 180.399 160.819C180.399 160.1 180.106 159.528 179.519 159.103C178.947 158.678 178.221 158.458 177.341 158.443L175.449 158.399C175.2 158.399 175.075 158.296 175.075 158.091V156.023C175.075 155.862 175.2 155.759 175.449 155.715L176.967 155.649C177.832 155.634 178.536 155.422 179.079 155.011C179.636 154.586 179.915 154.058 179.915 153.427C179.915 152.899 179.68 152.459 179.211 152.107C178.756 151.74 178.177 151.557 177.473 151.557C176.798 151.557 176.182 151.689 175.625 151.953C175.068 152.202 174.496 152.613 173.909 153.185C173.806 153.288 173.726 153.339 173.667 153.339C173.638 153.339 173.557 153.288 173.425 153.185L171.819 151.689ZM192.873 148.895C194.178 148.895 195.344 149.247 196.371 149.951C197.397 150.655 198.204 151.645 198.791 152.921C199.377 154.197 199.671 155.671 199.671 157.343C199.671 159.015 199.377 160.482 198.791 161.743C198.219 162.99 197.419 163.958 196.393 164.647C195.366 165.322 194.193 165.659 192.873 165.659C191.553 165.659 190.372 165.322 189.331 164.647C188.304 163.958 187.497 162.99 186.911 161.743C186.339 160.482 186.053 159.022 186.053 157.365C186.053 155.693 186.346 154.219 186.933 152.943C187.519 151.652 188.326 150.655 189.353 149.951C190.394 149.247 191.567 148.895 192.873 148.895ZM192.873 162.931C193.855 162.931 194.581 162.498 195.051 161.633C195.52 160.768 195.755 159.345 195.755 157.365C195.755 155.341 195.513 153.874 195.029 152.965C194.559 152.041 193.833 151.579 192.851 151.579C191.883 151.579 191.157 152.041 190.673 152.965C190.189 153.889 189.947 155.356 189.947 157.365C189.947 159.33 190.189 160.753 190.673 161.633C191.157 162.498 191.89 162.931 192.873 162.931ZM208.449 148.895C209.754 148.895 210.92 149.247 211.947 149.951C212.974 150.655 213.78 151.645 214.367 152.921C214.954 154.197 215.247 155.671 215.247 157.343C215.247 159.015 214.954 160.482 214.367 161.743C213.795 162.99 212.996 163.958 211.969 164.647C210.942 165.322 209.769 165.659 208.449 165.659C207.129 165.659 205.948 165.322 204.907 164.647C203.88 163.958 203.074 162.99 202.487 161.743C201.915 160.482 201.629 159.022 201.629 157.365C201.629 155.693 201.922 154.219 202.509 152.943C203.096 151.652 203.902 150.655 204.929 149.951C205.97 149.247 207.144 148.895 208.449 148.895ZM208.449 162.931C209.432 162.931 210.158 162.498 210.627 161.633C211.096 160.768 211.331 159.345 211.331 157.365C211.331 155.341 211.089 153.874 210.605 152.965C210.136 152.041 209.41 151.579 208.427 151.579C207.459 151.579 206.733 152.041 206.249 152.965C205.765 153.889 205.523 155.356 205.523 157.365C205.523 159.33 205.765 160.753 206.249 161.633C206.733 162.498 207.466 162.931 208.449 162.931Z" fill="white"/>
<path d="M13.652 104.432C13.452 104.432 13.352 104.318 13.352 104.092C13.352 103.985 13.3653 103.905 13.392 103.852L18.372 89.9916C18.4253 89.845 18.4853 89.745 18.552 89.6916C18.632 89.625 18.7453 89.5916 18.892 89.5916H21.892C22.0386 89.5916 22.1653 89.6316 22.272 89.7116C22.3786 89.7916 22.452 89.8983 22.492 90.0316L27.432 103.892C27.4586 103.972 27.472 104.032 27.472 104.072C27.472 104.178 27.4453 104.265 27.392 104.332C27.352 104.398 27.2853 104.432 27.192 104.432H24.252C24.052 104.432 23.9253 104.338 23.872 104.152L22.832 101.232C22.8053 101.152 22.772 101.098 22.732 101.072C22.7053 101.032 22.652 101.012 22.572 101.012H17.692C17.5586 101.012 17.472 101.078 17.432 101.212L16.372 104.172C16.292 104.345 16.152 104.432 15.952 104.432H13.652ZM21.752 98.3516C21.8853 98.3516 21.952 98.2983 21.952 98.1916C21.952 98.1116 21.9453 98.0516 21.932 98.0116L20.252 93.3316C20.212 93.2516 20.1653 93.2116 20.112 93.2116C20.072 93.2116 20.032 93.2583 19.992 93.3516L18.292 98.0116C18.2653 98.0916 18.252 98.1516 18.252 98.1916C18.252 98.2983 18.3253 98.3516 18.472 98.3516H21.752ZM37.7879 93.8316C37.9079 93.8316 37.9946 93.8783 38.0479 93.9716C38.1012 94.065 38.1079 94.1716 38.0679 94.2916L34.1079 104.012C33.9879 104.292 33.7746 104.432 33.4679 104.432H32.0479C31.7412 104.432 31.5279 104.292 31.4079 104.012L27.4679 94.3116C27.4412 94.2316 27.4279 94.1783 27.4279 94.1516C27.4279 94.0583 27.4612 93.985 27.5279 93.9316C27.5946 93.865 27.6746 93.8316 27.7679 93.8316H30.3079C30.5346 93.8316 30.6812 93.945 30.7479 94.1716L33.0479 100.072C33.1146 100.192 33.1679 100.252 33.2079 100.252C33.2612 100.252 33.3146 100.185 33.3679 100.052L35.6279 94.1516C35.7212 93.9383 35.8679 93.8316 36.0679 93.8316H37.7879ZM41.6873 100.032C41.6873 100.778 41.9339 101.385 42.4273 101.852C42.9339 102.305 43.5606 102.532 44.3073 102.532C44.7873 102.532 45.2273 102.432 45.6273 102.232C46.0406 102.018 46.4539 101.672 46.8673 101.192C46.9206 101.138 46.9739 101.112 47.0273 101.112C47.0673 101.112 47.1339 101.132 47.2273 101.172L48.6673 101.772C48.7606 101.812 48.8073 101.878 48.8073 101.972C48.8073 102.038 48.7806 102.105 48.7273 102.172C48.0873 103.078 47.4006 103.718 46.6673 104.092C45.9339 104.452 45.0206 104.632 43.9273 104.632C42.9006 104.632 41.9739 104.405 41.1473 103.952C40.3206 103.498 39.6739 102.872 39.2073 102.072C38.7406 101.258 38.5073 100.332 38.5073 99.2916C38.5073 98.1716 38.7473 97.185 39.2273 96.3316C39.7073 95.465 40.3539 94.7983 41.1673 94.3316C41.9939 93.865 42.8939 93.6316 43.8673 93.6316C44.8806 93.6316 45.7806 93.8583 46.5673 94.3116C47.3539 94.7516 47.9673 95.3916 48.4073 96.2316C48.8473 97.0716 49.0673 98.0716 49.0673 99.2316C49.0673 99.405 49.0473 99.525 49.0073 99.5916C48.9806 99.6583 48.8873 99.6983 48.7273 99.7116H41.9273C41.7673 99.7116 41.6873 99.8183 41.6873 100.032ZM45.7073 98.0316C45.8539 98.0316 45.9473 98.0183 45.9873 97.9916C46.0273 97.9516 46.0473 97.8716 46.0473 97.7516C46.0473 97.405 45.9673 97.0583 45.8073 96.7116C45.6473 96.365 45.4139 96.0783 45.1073 95.8516C44.8006 95.625 44.4273 95.5116 43.9873 95.5116C43.3206 95.5116 42.7739 95.745 42.3473 96.2116C41.9206 96.6783 41.7139 97.2783 41.7273 98.0116L45.7073 98.0316ZM51.126 104.432C50.846 104.432 50.706 104.298 50.706 104.032V94.2116C50.706 93.9583 50.8127 93.8316 51.026 93.8316H53.366C53.5794 93.8316 53.686 93.945 53.686 94.1716V95.3516C53.686 95.405 53.6994 95.445 53.726 95.4716C53.7527 95.4983 53.7794 95.5116 53.806 95.5116C53.846 95.5116 53.8994 95.4783 53.966 95.4116C54.366 94.8783 54.8394 94.4516 55.386 94.1316C55.9327 93.7983 56.4527 93.6316 56.946 93.6316C57.426 93.6316 57.666 93.745 57.666 93.9716V96.2916C57.666 96.385 57.6394 96.4583 57.586 96.5116C57.5327 96.565 57.4594 96.5783 57.366 96.5516C56.9394 96.445 56.4727 96.3916 55.966 96.3916C55.6327 96.3916 55.2927 96.4783 54.946 96.6516C54.6127 96.8116 54.3327 97.0316 54.106 97.3116C53.8927 97.5783 53.786 97.8516 53.786 98.1316V103.972C53.786 104.278 53.6127 104.432 53.266 104.432H51.126ZM64.9249 103.412C64.0449 104.225 62.9983 104.632 61.7849 104.632C60.7849 104.632 59.9916 104.365 59.4049 103.832C58.8183 103.285 58.5249 102.578 58.5249 101.712C58.5249 100.592 59.0383 99.6916 60.0649 99.0116C61.0916 98.3316 62.5049 97.9716 64.3049 97.9316L65.0249 97.8716C65.1049 97.8716 65.1716 97.8516 65.2249 97.8116C65.2916 97.7583 65.3249 97.685 65.3249 97.5916V97.1716C65.3249 96.6516 65.1783 96.2516 64.8849 95.9716C64.5916 95.6916 64.1716 95.5516 63.6249 95.5516C62.6916 95.5516 61.9983 95.9516 61.5449 96.7516C61.4916 96.885 61.4049 96.9516 61.2849 96.9516C61.2183 96.9516 61.1583 96.945 61.1049 96.9316L59.1049 96.4716C58.9849 96.445 58.9249 96.3716 58.9249 96.2516C58.9249 96.1716 58.9516 96.0716 59.0049 95.9516C59.3249 95.1783 59.8916 94.5983 60.7049 94.2116C61.5316 93.825 62.5516 93.6316 63.7649 93.6316C65.3516 93.6316 66.4983 93.925 67.2049 94.5116C67.9116 95.085 68.2649 95.905 68.2649 96.9716V103.992C68.2649 104.152 68.2383 104.265 68.1849 104.332C68.1316 104.398 68.0316 104.432 67.8849 104.432H65.8249C65.6916 104.432 65.5916 104.385 65.5249 104.292C65.4716 104.198 65.4316 104.058 65.4049 103.872L65.3849 103.432C65.3716 103.312 65.3183 103.252 65.2249 103.252C65.1716 103.252 65.0716 103.305 64.9249 103.412ZM65.3249 99.7116C65.3249 99.5916 65.3049 99.505 65.2649 99.4516C65.2249 99.3983 65.1449 99.3716 65.0249 99.3716L64.4649 99.4116C63.6916 99.4516 63.0049 99.6383 62.4049 99.9716C61.8183 100.292 61.5249 100.738 61.5249 101.312C61.5249 101.712 61.6649 102.032 61.9449 102.272C62.2249 102.498 62.6116 102.612 63.1049 102.612C63.7183 102.612 64.2383 102.432 64.6649 102.072C65.1049 101.725 65.3249 101.372 65.3249 101.012V99.7116ZM81.0745 93.3716C81.3411 93.3716 81.4745 93.5183 81.4745 93.8116V95.1716C81.4745 95.545 81.3211 95.6983 81.0145 95.6316C80.8145 95.5916 80.6211 95.5716 80.4345 95.5716C80.3278 95.5716 80.2078 95.585 80.0745 95.6116C79.7278 95.665 79.5945 95.8183 79.6745 96.0716C79.7945 96.4316 79.8545 96.7316 79.8545 96.9716C79.8545 97.585 79.6678 98.1383 79.2945 98.6316C78.9345 99.125 78.3878 99.5183 77.6545 99.8116C76.9345 100.105 76.0611 100.252 75.0345 100.252C74.2878 100.252 73.7345 100.312 73.3745 100.432C73.0278 100.552 72.8545 100.712 72.8545 100.912C72.8545 101.085 72.9478 101.212 73.1345 101.292C73.3345 101.358 73.6611 101.405 74.1145 101.432L76.9745 101.592C78.2945 101.672 79.2745 101.965 79.9145 102.472C80.5678 102.978 80.8945 103.652 80.8945 104.492C80.8945 105.532 80.4011 106.365 79.4145 106.992C78.4278 107.618 77.0278 107.932 75.2145 107.932C71.3345 107.932 69.3945 107.072 69.3945 105.352C69.3945 104.925 69.5611 104.565 69.8945 104.272C70.2278 103.965 70.7011 103.698 71.3145 103.472C71.3945 103.445 71.4345 103.412 71.4345 103.372C71.4345 103.332 71.3945 103.292 71.3145 103.252C70.5411 102.878 70.1545 102.385 70.1545 101.772C70.1545 101.412 70.3278 101.078 70.6745 100.772C71.0345 100.452 71.5078 100.178 72.0945 99.9516C72.2545 99.8716 72.2678 99.7916 72.1345 99.7116C70.8411 99.1116 70.1945 98.205 70.1945 96.9916C70.1945 95.9783 70.6278 95.1716 71.4945 94.5716C72.3745 93.9716 73.6278 93.6716 75.2545 93.6716C76.6278 93.6716 77.6945 93.9716 78.4545 94.5716C78.5478 94.6383 78.6345 94.6716 78.7145 94.6716C78.8211 94.6716 78.9145 94.625 78.9945 94.5316C79.2478 94.225 79.5811 93.9583 79.9945 93.7316C80.4078 93.4916 80.7678 93.3716 81.0745 93.3716ZM75.0145 98.7316C75.6945 98.7316 76.2011 98.5783 76.5345 98.2716C76.8811 97.9516 77.0545 97.5383 77.0545 97.0316C77.0545 96.4716 76.8811 96.0316 76.5345 95.7116C76.2011 95.3783 75.6945 95.2116 75.0145 95.2116C74.3745 95.2116 73.8678 95.3783 73.4945 95.7116C73.1345 96.045 72.9545 96.485 72.9545 97.0316C72.9545 97.5383 73.1345 97.9516 73.4945 98.2716C73.8678 98.5783 74.3745 98.7316 75.0145 98.7316ZM73.5345 103.832C73.1211 103.805 72.7478 103.905 72.4145 104.132C72.0945 104.345 71.9345 104.618 71.9345 104.952C71.9345 105.445 72.2078 105.818 72.7545 106.072C73.3011 106.325 74.1878 106.452 75.4145 106.452C76.3078 106.452 76.9945 106.325 77.4745 106.072C77.9545 105.832 78.1945 105.485 78.1945 105.032C78.1945 104.725 78.0611 104.478 77.7945 104.292C77.5278 104.105 77.1345 103.998 76.6145 103.972L73.5345 103.832ZM85.281 100.032C85.281 100.778 85.5277 101.385 86.021 101.852C86.5277 102.305 87.1544 102.532 87.901 102.532C88.381 102.532 88.821 102.432 89.221 102.232C89.6344 102.018 90.0477 101.672 90.461 101.192C90.5144 101.138 90.5677 101.112 90.621 101.112C90.661 101.112 90.7277 101.132 90.821 101.172L92.261 101.772C92.3544 101.812 92.401 101.878 92.401 101.972C92.401 102.038 92.3744 102.105 92.321 102.172C91.681 103.078 90.9944 103.718 90.261 104.092C89.5277 104.452 88.6144 104.632 87.521 104.632C86.4944 104.632 85.5677 104.405 84.741 103.952C83.9144 103.498 83.2677 102.872 82.801 102.072C82.3344 101.258 82.101 100.332 82.101 99.2916C82.101 98.1716 82.341 97.185 82.821 96.3316C83.301 95.465 83.9477 94.7983 84.761 94.3316C85.5877 93.865 86.4877 93.6316 87.461 93.6316C88.4744 93.6316 89.3744 93.8583 90.161 94.3116C90.9477 94.7516 91.561 95.3916 92.001 96.2316C92.441 97.0716 92.661 98.0716 92.661 99.2316C92.661 99.405 92.641 99.525 92.601 99.5916C92.5744 99.6583 92.481 99.6983 92.321 99.7116H85.521C85.361 99.7116 85.281 99.8183 85.281 100.032ZM89.301 98.0316C89.4477 98.0316 89.541 98.0183 89.581 97.9916C89.621 97.9516 89.641 97.8716 89.641 97.7516C89.641 97.405 89.561 97.0583 89.401 96.7116C89.241 96.365 89.0077 96.0783 88.701 95.8516C88.3944 95.625 88.021 95.5116 87.581 95.5116C86.9144 95.5116 86.3677 95.745 85.941 96.2116C85.5144 96.6783 85.3077 97.2783 85.321 98.0116L89.301 98.0316ZM110.761 103.892C110.788 103.972 110.801 104.032 110.801 104.072C110.801 104.178 110.768 104.265 110.701 104.332C110.634 104.398 110.554 104.432 110.461 104.432H107.521C107.294 104.432 107.148 104.312 107.081 104.072L104.921 98.4716C104.881 98.365 104.821 98.2916 104.741 98.2516C104.661 98.2116 104.534 98.1916 104.361 98.1916H102.461C102.381 98.1916 102.321 98.2183 102.281 98.2716C102.241 98.3116 102.221 98.3583 102.221 98.4116V103.952C102.221 104.125 102.174 104.252 102.081 104.332C102.001 104.398 101.868 104.432 101.681 104.432H99.1409C98.9809 104.432 98.8675 104.398 98.8009 104.332C98.7475 104.265 98.7209 104.165 98.7209 104.032V89.9716C98.7209 89.7183 98.8275 89.5916 99.0409 89.5916H105.281C107.081 89.5916 108.474 89.945 109.461 90.6516C110.448 91.3583 110.941 92.365 110.941 93.6716C110.941 94.645 110.681 95.4783 110.161 96.1716C109.641 96.8516 108.988 97.3316 108.201 97.6116C108.094 97.6516 108.068 97.7516 108.121 97.9116L110.761 103.892ZM104.961 95.8316C105.734 95.8316 106.321 95.6716 106.721 95.3516C107.121 95.0183 107.321 94.5383 107.321 93.9116C107.321 93.2716 107.114 92.785 106.701 92.4516C106.301 92.105 105.754 91.9316 105.061 91.9316H102.601C102.454 91.9316 102.354 91.9583 102.301 92.0116C102.248 92.0516 102.221 92.1316 102.221 92.2516V95.4916C102.221 95.6116 102.241 95.6983 102.281 95.7516C102.321 95.805 102.394 95.8316 102.501 95.8316H104.961ZM118.694 103.412C117.814 104.225 116.768 104.632 115.554 104.632C114.554 104.632 113.761 104.365 113.174 103.832C112.588 103.285 112.294 102.578 112.294 101.712C112.294 100.592 112.808 99.6916 113.834 99.0116C114.861 98.3316 116.274 97.9716 118.074 97.9316L118.794 97.8716C118.874 97.8716 118.941 97.8516 118.994 97.8116C119.061 97.7583 119.094 97.685 119.094 97.5916V97.1716C119.094 96.6516 118.948 96.2516 118.654 95.9716C118.361 95.6916 117.941 95.5516 117.394 95.5516C116.461 95.5516 115.768 95.9516 115.314 96.7516C115.261 96.885 115.174 96.9516 115.054 96.9516C114.988 96.9516 114.928 96.945 114.874 96.9316L112.874 96.4716C112.754 96.445 112.694 96.3716 112.694 96.2516C112.694 96.1716 112.721 96.0716 112.774 95.9516C113.094 95.1783 113.661 94.5983 114.474 94.2116C115.301 93.825 116.321 93.6316 117.534 93.6316C119.121 93.6316 120.268 93.925 120.974 94.5116C121.681 95.085 122.034 95.905 122.034 96.9716V103.992C122.034 104.152 122.008 104.265 121.954 104.332C121.901 104.398 121.801 104.432 121.654 104.432H119.594C119.461 104.432 119.361 104.385 119.294 104.292C119.241 104.198 119.201 104.058 119.174 103.872L119.154 103.432C119.141 103.312 119.088 103.252 118.994 103.252C118.941 103.252 118.841 103.305 118.694 103.412ZM119.094 99.7116C119.094 99.5916 119.074 99.505 119.034 99.4516C118.994 99.3983 118.914 99.3716 118.794 99.3716L118.234 99.4116C117.461 99.4516 116.774 99.6383 116.174 99.9716C115.588 100.292 115.294 100.738 115.294 101.312C115.294 101.712 115.434 102.032 115.714 102.272C115.994 102.498 116.381 102.612 116.874 102.612C117.488 102.612 118.008 102.432 118.434 102.072C118.874 101.725 119.094 101.372 119.094 101.012V99.7116ZM124.544 104.432C124.397 104.432 124.291 104.405 124.224 104.352C124.157 104.285 124.124 104.178 124.124 104.032V94.2116C124.124 93.9583 124.231 93.8316 124.444 93.8316H126.864C127.064 93.8316 127.164 93.945 127.164 94.1716V95.1516C127.164 95.2583 127.197 95.3116 127.264 95.3116C127.304 95.3116 127.351 95.285 127.404 95.2316C127.951 94.7116 128.497 94.3183 129.044 94.0516C129.591 93.7716 130.171 93.6316 130.784 93.6316C131.757 93.6316 132.524 93.9183 133.084 94.4916C133.657 95.065 133.944 95.8316 133.944 96.7916V103.952C133.944 104.272 133.784 104.432 133.464 104.432H131.244C131.097 104.432 130.997 104.405 130.944 104.352C130.891 104.285 130.864 104.178 130.864 104.032V97.2716C130.864 96.8183 130.737 96.4716 130.484 96.2316C130.244 95.9783 129.884 95.8516 129.404 95.8516C129.004 95.8516 128.631 95.9516 128.284 96.1516C127.951 96.3516 127.591 96.665 127.204 97.0916V103.972C127.204 104.132 127.164 104.252 127.084 104.332C127.004 104.398 126.871 104.432 126.684 104.432H124.544ZM146.758 93.3716C147.025 93.3716 147.158 93.5183 147.158 93.8116V95.1716C147.158 95.545 147.005 95.6983 146.698 95.6316C146.498 95.5916 146.305 95.5716 146.118 95.5716C146.011 95.5716 145.891 95.585 145.758 95.6116C145.411 95.665 145.278 95.8183 145.358 96.0716C145.478 96.4316 145.538 96.7316 145.538 96.9716C145.538 97.585 145.351 98.1383 144.978 98.6316C144.618 99.125 144.071 99.5183 143.338 99.8116C142.618 100.105 141.745 100.252 140.718 100.252C139.971 100.252 139.418 100.312 139.058 100.432C138.711 100.552 138.538 100.712 138.538 100.912C138.538 101.085 138.631 101.212 138.818 101.292C139.018 101.358 139.345 101.405 139.798 101.432L142.658 101.592C143.978 101.672 144.958 101.965 145.598 102.472C146.251 102.978 146.578 103.652 146.578 104.492C146.578 105.532 146.085 106.365 145.098 106.992C144.111 107.618 142.711 107.932 140.898 107.932C137.018 107.932 135.078 107.072 135.078 105.352C135.078 104.925 135.245 104.565 135.578 104.272C135.911 103.965 136.385 103.698 136.998 103.472C137.078 103.445 137.118 103.412 137.118 103.372C137.118 103.332 137.078 103.292 136.998 103.252C136.225 102.878 135.838 102.385 135.838 101.772C135.838 101.412 136.011 101.078 136.358 100.772C136.718 100.452 137.191 100.178 137.778 99.9516C137.938 99.8716 137.951 99.7916 137.818 99.7116C136.525 99.1116 135.878 98.205 135.878 96.9916C135.878 95.9783 136.311 95.1716 137.178 94.5716C138.058 93.9716 139.311 93.6716 140.938 93.6716C142.311 93.6716 143.378 93.9716 144.138 94.5716C144.231 94.6383 144.318 94.6716 144.398 94.6716C144.505 94.6716 144.598 94.625 144.678 94.5316C144.931 94.225 145.265 93.9583 145.678 93.7316C146.091 93.4916 146.451 93.3716 146.758 93.3716ZM140.698 98.7316C141.378 98.7316 141.885 98.5783 142.218 98.2716C142.565 97.9516 142.738 97.5383 142.738 97.0316C142.738 96.4716 142.565 96.0316 142.218 95.7116C141.885 95.3783 141.378 95.2116 140.698 95.2116C140.058 95.2116 139.551 95.3783 139.178 95.7116C138.818 96.045 138.638 96.485 138.638 97.0316C138.638 97.5383 138.818 97.9516 139.178 98.2716C139.551 98.5783 140.058 98.7316 140.698 98.7316ZM139.218 103.832C138.805 103.805 138.431 103.905 138.098 104.132C137.778 104.345 137.618 104.618 137.618 104.952C137.618 105.445 137.891 105.818 138.438 106.072C138.985 106.325 139.871 106.452 141.098 106.452C141.991 106.452 142.678 106.325 143.158 106.072C143.638 105.832 143.878 105.485 143.878 105.032C143.878 104.725 143.745 104.478 143.478 104.292C143.211 104.105 142.818 103.998 142.298 103.972L139.218 103.832ZM150.965 100.032C150.965 100.778 151.211 101.385 151.705 101.852C152.211 102.305 152.838 102.532 153.585 102.532C154.065 102.532 154.505 102.432 154.905 102.232C155.318 102.018 155.731 101.672 156.145 101.192C156.198 101.138 156.251 101.112 156.305 101.112C156.345 101.112 156.411 101.132 156.505 101.172L157.945 101.772C158.038 101.812 158.085 101.878 158.085 101.972C158.085 102.038 158.058 102.105 158.005 102.172C157.365 103.078 156.678 103.718 155.945 104.092C155.211 104.452 154.298 104.632 153.205 104.632C152.178 104.632 151.251 104.405 150.425 103.952C149.598 103.498 148.951 102.872 148.485 102.072C148.018 101.258 147.785 100.332 147.785 99.2916C147.785 98.1716 148.025 97.185 148.505 96.3316C148.985 95.465 149.631 94.7983 150.445 94.3316C151.271 93.865 152.171 93.6316 153.145 93.6316C154.158 93.6316 155.058 93.8583 155.845 94.3116C156.631 94.7516 157.245 95.3916 157.685 96.2316C158.125 97.0716 158.345 98.0716 158.345 99.2316C158.345 99.405 158.325 99.525 158.285 99.5916C158.258 99.6583 158.165 99.6983 158.005 99.7116H151.205C151.045 99.7116 150.965 99.8183 150.965 100.032ZM154.985 98.0316C155.131 98.0316 155.225 98.0183 155.265 97.9916C155.305 97.9516 155.325 97.8716 155.325 97.7516C155.325 97.405 155.245 97.0583 155.085 96.7116C154.925 96.365 154.691 96.0783 154.385 95.8516C154.078 95.625 153.705 95.5116 153.265 95.5116C152.598 95.5116 152.051 95.745 151.625 96.2116C151.198 96.6783 150.991 97.2783 151.005 98.0116L154.985 98.0316ZM168.984 104.632C167.931 104.632 166.998 104.405 166.184 103.952C165.384 103.485 164.758 102.838 164.304 102.012C163.851 101.185 163.624 100.245 163.624 99.1916C163.624 98.0983 163.851 97.1316 164.304 96.2916C164.771 95.4516 165.411 94.7983 166.224 94.3316C167.051 93.865 167.978 93.6316 169.004 93.6316C170.058 93.6316 170.991 93.8716 171.804 94.3516C172.618 94.8183 173.244 95.4716 173.684 96.3116C174.138 97.1516 174.364 98.105 174.364 99.1716C174.364 100.225 174.138 101.165 173.684 101.992C173.231 102.818 172.598 103.465 171.784 103.932C170.971 104.398 170.038 104.632 168.984 104.632ZM169.004 102.592C169.738 102.592 170.291 102.305 170.664 101.732C171.051 101.145 171.244 100.278 171.244 99.1316C171.244 97.9716 171.051 97.0983 170.664 96.5116C170.291 95.9116 169.738 95.6116 169.004 95.6116C168.271 95.6116 167.711 95.9116 167.324 96.5116C166.938 97.0983 166.744 97.9716 166.744 99.1316C166.744 100.265 166.938 101.125 167.324 101.712C167.711 102.298 168.271 102.592 169.004 102.592ZM181.905 93.8316C182.025 93.8316 182.118 93.865 182.185 93.9316C182.252 93.9983 182.285 94.0783 182.285 94.1716V95.6516C182.285 95.8516 182.172 95.9516 181.945 95.9516H180.285C180.152 95.9516 180.085 96.025 180.085 96.1716V104.052C180.085 104.305 179.978 104.432 179.765 104.432H177.305C177.105 104.432 177.005 104.318 177.005 104.092V96.1316C177.005 96.0116 176.952 95.9516 176.845 95.9516H175.405C175.165 95.9516 175.045 95.8516 175.045 95.6516V94.1716C175.045 94.0783 175.078 93.9983 175.145 93.9316C175.212 93.865 175.305 93.8316 175.425 93.8316H176.765C176.858 93.8316 176.918 93.8116 176.945 93.7716C176.985 93.7183 177.005 93.6383 177.005 93.5316V92.3116C177.005 91.4583 177.258 90.7916 177.765 90.3116C178.272 89.8316 178.985 89.5916 179.905 89.5916H181.925C182.218 89.5916 182.365 89.7316 182.365 90.0116L182.385 91.3116C182.385 91.5383 182.285 91.6516 182.085 91.6516H181.005C180.712 91.6516 180.472 91.765 180.285 91.9916C180.098 92.205 180.005 92.485 180.005 92.8316V93.6116C180.005 93.7583 180.085 93.8316 180.245 93.8316H181.905ZM188.213 89.9716C188.213 89.7183 188.32 89.5916 188.533 89.5916H198.613C198.813 89.5916 198.913 89.705 198.913 89.9316L198.893 91.7316C198.893 92.0116 198.753 92.1516 198.473 92.1516H192.093C191.84 92.1516 191.713 92.2583 191.713 92.4716V95.3716C191.713 95.5983 191.813 95.7116 192.013 95.7116H196.253C196.48 95.7116 196.593 95.8183 196.593 96.0316V97.9516C196.593 98.1383 196.486 98.2316 196.273 98.2316H191.993C191.806 98.2316 191.713 98.3116 191.713 98.4716V101.612C191.713 101.705 191.726 101.772 191.753 101.812C191.793 101.852 191.853 101.872 191.933 101.872H198.773C199.013 101.872 199.133 101.972 199.133 102.172V104.072C199.133 104.312 199 104.432 198.733 104.432H188.653C188.493 104.432 188.38 104.398 188.313 104.332C188.246 104.265 188.213 104.158 188.213 104.012V89.9716ZM210.943 103.752C211.103 103.965 211.183 104.125 211.183 104.232C211.183 104.365 211.057 104.432 210.803 104.432H208.243C207.923 104.432 207.697 104.325 207.563 104.112L205.503 101.212C205.397 101.038 205.317 100.952 205.263 100.952C205.21 100.952 205.13 101.032 205.023 101.192L202.923 104.112C202.79 104.325 202.57 104.432 202.263 104.432H200.623C200.303 104.432 200.143 104.338 200.143 104.152C200.143 104.005 200.223 103.832 200.383 103.632L203.663 99.4116C203.743 99.2916 203.783 99.1983 203.783 99.1316C203.783 99.0383 203.737 98.925 203.643 98.7916L200.403 94.3916C200.35 94.325 200.323 94.245 200.323 94.1516C200.323 94.0716 200.357 93.9983 200.423 93.9316C200.49 93.865 200.583 93.8316 200.703 93.8316H203.143C203.317 93.8316 203.443 93.8583 203.523 93.9116C203.617 93.9516 203.703 94.0316 203.783 94.1516L205.643 96.7716C205.71 96.8783 205.77 96.9316 205.823 96.9316C205.863 96.9316 205.917 96.8783 205.983 96.7716L207.743 94.1516C207.823 94.0316 207.903 93.9516 207.983 93.9116C208.077 93.8583 208.217 93.8316 208.403 93.8316H210.203C210.43 93.8316 210.543 93.8983 210.543 94.0316C210.543 94.0983 210.503 94.185 210.423 94.2916L207.443 98.3316C207.363 98.425 207.323 98.5183 207.323 98.6116C207.323 98.6783 207.37 98.785 207.463 98.9316L210.943 103.752ZM215.3 93.8316C215.46 93.8316 215.573 93.865 215.64 93.9316C215.706 93.985 215.74 94.085 215.74 94.2316V94.8316C215.74 94.925 215.766 94.9716 215.82 94.9716C215.86 94.9716 215.926 94.9383 216.02 94.8716C216.433 94.485 216.853 94.185 217.28 93.9716C217.72 93.745 218.273 93.6316 218.94 93.6316C220.153 93.6316 221.14 94.0916 221.9 95.0116C222.66 95.9316 223.04 97.2783 223.04 99.0516C223.04 100.892 222.646 102.285 221.86 103.232C221.086 104.165 220.06 104.632 218.78 104.632C217.726 104.632 216.833 104.292 216.1 103.612C215.966 103.505 215.873 103.452 215.82 103.452C215.753 103.452 215.72 103.545 215.72 103.732V107.392C215.72 107.618 215.62 107.732 215.42 107.732H212.96C212.866 107.732 212.786 107.698 212.72 107.632C212.666 107.578 212.64 107.492 212.64 107.372V94.2716C212.64 94.1116 212.673 93.9983 212.74 93.9316C212.82 93.865 212.94 93.8316 213.1 93.8316H215.3ZM215.72 101.692C216.013 102.012 216.313 102.258 216.62 102.432C216.926 102.605 217.266 102.692 217.64 102.692C219.16 102.692 219.92 101.458 219.92 98.9916C219.92 97.765 219.726 96.8916 219.34 96.3716C218.953 95.8383 218.406 95.5716 217.7 95.5716C217.153 95.5716 216.686 95.7383 216.3 96.0716C215.913 96.3916 215.72 96.7583 215.72 97.1716V101.692ZM227.527 100.032C227.527 100.778 227.774 101.385 228.267 101.852C228.774 102.305 229.4 102.532 230.147 102.532C230.627 102.532 231.067 102.432 231.467 102.232C231.88 102.018 232.294 101.672 232.707 101.192C232.76 101.138 232.814 101.112 232.867 101.112C232.907 101.112 232.974 101.132 233.067 101.172L234.507 101.772C234.6 101.812 234.647 101.878 234.647 101.972C234.647 102.038 234.62 102.105 234.567 102.172C233.927 103.078 233.24 103.718 232.507 104.092C231.774 104.452 230.86 104.632 229.767 104.632C228.74 104.632 227.814 104.405 226.987 103.952C226.16 103.498 225.514 102.872 225.047 102.072C224.58 101.258 224.347 100.332 224.347 99.2916C224.347 98.1716 224.587 97.185 225.067 96.3316C225.547 95.465 226.194 94.7983 227.007 94.3316C227.834 93.865 228.734 93.6316 229.707 93.6316C230.72 93.6316 231.62 93.8583 232.407 94.3116C233.194 94.7516 233.807 95.3916 234.247 96.2316C234.687 97.0716 234.907 98.0716 234.907 99.2316C234.907 99.405 234.887 99.525 234.847 99.5916C234.82 99.6583 234.727 99.6983 234.567 99.7116H227.767C227.607 99.7116 227.527 99.8183 227.527 100.032ZM231.547 98.0316C231.694 98.0316 231.787 98.0183 231.827 97.9916C231.867 97.9516 231.887 97.8716 231.887 97.7516C231.887 97.405 231.807 97.0583 231.647 96.7116C231.487 96.365 231.254 96.0783 230.947 95.8516C230.64 95.625 230.267 95.5116 229.827 95.5116C229.16 95.5116 228.614 95.745 228.187 96.2116C227.76 96.6783 227.554 97.2783 227.567 98.0116L231.547 98.0316ZM236.966 104.432C236.819 104.432 236.713 104.405 236.646 104.352C236.579 104.285 236.546 104.178 236.546 104.032V94.2116C236.546 93.9583 236.653 93.8316 236.866 93.8316H239.286C239.486 93.8316 239.586 93.945 239.586 94.1716V95.1516C239.586 95.2583 239.619 95.3116 239.686 95.3116C239.726 95.3116 239.773 95.285 239.826 95.2316C240.373 94.7116 240.919 94.3183 241.466 94.0516C242.013 93.7716 242.593 93.6316 243.206 93.6316C244.179 93.6316 244.946 93.9183 245.506 94.4916C246.079 95.065 246.366 95.8316 246.366 96.7916V103.952C246.366 104.272 246.206 104.432 245.886 104.432H243.666C243.519 104.432 243.419 104.405 243.366 104.352C243.313 104.285 243.286 104.178 243.286 104.032V97.2716C243.286 96.8183 243.159 96.4716 242.906 96.2316C242.666 95.9783 242.306 95.8516 241.826 95.8516C241.426 95.8516 241.053 95.9516 240.706 96.1516C240.373 96.3516 240.013 96.665 239.626 97.0916V103.972C239.626 104.132 239.586 104.252 239.506 104.332C239.426 104.398 239.293 104.432 239.106 104.432H236.966ZM255 96.5916C254.453 95.8716 253.673 95.5116 252.66 95.5116C252.153 95.5116 251.733 95.6116 251.4 95.8116C251.067 95.9983 250.9 96.2583 250.9 96.5916C250.9 96.7783 250.973 96.9516 251.12 97.1116C251.28 97.2583 251.58 97.385 252.02 97.4916L254.32 98.0516C255.373 98.305 256.147 98.7116 256.64 99.2716C257.133 99.8183 257.38 100.465 257.38 101.212C257.38 102.265 256.94 103.098 256.06 103.712C255.18 104.325 254.027 104.632 252.6 104.632C251.453 104.632 250.46 104.432 249.62 104.032C248.78 103.618 248.187 103.085 247.84 102.432C247.773 102.338 247.74 102.252 247.74 102.172C247.74 102.078 247.787 102.012 247.88 101.972L249.24 101.272C249.347 101.218 249.44 101.192 249.52 101.192C249.6 101.192 249.673 101.225 249.74 101.292C250.033 101.705 250.387 102.038 250.8 102.292C251.227 102.532 251.787 102.652 252.48 102.652C253.107 102.652 253.613 102.558 254 102.372C254.4 102.185 254.6 101.912 254.6 101.552C254.6 101.312 254.5 101.112 254.3 100.952C254.1 100.792 253.76 100.652 253.28 100.532L251.22 100.092C249.193 99.6516 248.18 98.645 248.18 97.0716C248.18 96.405 248.36 95.8116 248.72 95.2916C249.093 94.7716 249.62 94.365 250.3 94.0716C250.98 93.7783 251.78 93.6316 252.7 93.6316C253.673 93.6316 254.533 93.8116 255.28 94.1716C256.04 94.5316 256.587 94.985 256.92 95.5316C257 95.6383 257.04 95.7316 257.04 95.8116C257.04 95.8916 256.993 95.9583 256.9 96.0116L255.46 96.7116C255.42 96.7383 255.367 96.7516 255.3 96.7516C255.18 96.7516 255.08 96.6983 255 96.5916ZM261.765 100.032C261.765 100.778 262.012 101.385 262.505 101.852C263.012 102.305 263.639 102.532 264.385 102.532C264.865 102.532 265.305 102.432 265.705 102.232C266.119 102.018 266.532 101.672 266.945 101.192C266.999 101.138 267.052 101.112 267.105 101.112C267.145 101.112 267.212 101.132 267.305 101.172L268.745 101.772C268.839 101.812 268.885 101.878 268.885 101.972C268.885 102.038 268.859 102.105 268.805 102.172C268.165 103.078 267.479 103.718 266.745 104.092C266.012 104.452 265.099 104.632 264.005 104.632C262.979 104.632 262.052 104.405 261.225 103.952C260.399 103.498 259.752 102.872 259.285 102.072C258.819 101.258 258.585 100.332 258.585 99.2916C258.585 98.1716 258.825 97.185 259.305 96.3316C259.785 95.465 260.432 94.7983 261.245 94.3316C262.072 93.865 262.972 93.6316 263.945 93.6316C264.959 93.6316 265.859 93.8583 266.645 94.3116C267.432 94.7516 268.045 95.3916 268.485 96.2316C268.925 97.0716 269.145 98.0716 269.145 99.2316C269.145 99.405 269.125 99.525 269.085 99.5916C269.059 99.6583 268.965 99.6983 268.805 99.7116H262.005C261.845 99.7116 261.765 99.8183 261.765 100.032ZM265.785 98.0316C265.932 98.0316 266.025 98.0183 266.065 97.9916C266.105 97.9516 266.125 97.8716 266.125 97.7516C266.125 97.405 266.045 97.0583 265.885 96.7116C265.725 96.365 265.492 96.0783 265.185 95.8516C264.879 95.625 264.505 95.5116 264.065 95.5116C263.399 95.5116 262.852 95.745 262.425 96.2116C261.999 96.6783 261.792 97.2783 261.805 98.0116L265.785 98.0316ZM277.324 96.5916C276.777 95.8716 275.997 95.5116 274.984 95.5116C274.477 95.5116 274.057 95.6116 273.724 95.8116C273.391 95.9983 273.224 96.2583 273.224 96.5916C273.224 96.7783 273.297 96.9516 273.444 97.1116C273.604 97.2583 273.904 97.385 274.344 97.4916L276.644 98.0516C277.697 98.305 278.471 98.7116 278.964 99.2716C279.457 99.8183 279.704 100.465 279.704 101.212C279.704 102.265 279.264 103.098 278.384 103.712C277.504 104.325 276.351 104.632 274.924 104.632C273.777 104.632 272.784 104.432 271.944 104.032C271.104 103.618 270.511 103.085 270.164 102.432C270.097 102.338 270.064 102.252 270.064 102.172C270.064 102.078 270.111 102.012 270.204 101.972L271.564 101.272C271.671 101.218 271.764 101.192 271.844 101.192C271.924 101.192 271.997 101.225 272.064 101.292C272.357 101.705 272.711 102.038 273.124 102.292C273.551 102.532 274.111 102.652 274.804 102.652C275.431 102.652 275.937 102.558 276.324 102.372C276.724 102.185 276.924 101.912 276.924 101.552C276.924 101.312 276.824 101.112 276.624 100.952C276.424 100.792 276.084 100.652 275.604 100.532L273.544 100.092C271.517 99.6516 270.504 98.645 270.504 97.0716C270.504 96.405 270.684 95.8116 271.044 95.2916C271.417 94.7716 271.944 94.365 272.624 94.0716C273.304 93.7783 274.104 93.6316 275.024 93.6316C275.997 93.6316 276.857 93.8116 277.604 94.1716C278.364 94.5316 278.911 94.985 279.244 95.5316C279.324 95.6383 279.364 95.7316 279.364 95.8116C279.364 95.8916 279.317 95.9583 279.224 96.0116L277.784 96.7116C277.744 96.7383 277.691 96.7516 277.624 96.7516C277.504 96.7516 277.404 96.6983 277.324 96.5916ZM284.45 96.8516C284.45 97.025 284.403 97.1516 284.31 97.2316C284.23 97.2983 284.09 97.3316 283.89 97.3316H281.53C281.236 97.3316 281.09 97.1916 281.09 96.9116V94.4316C281.09 94.3116 281.116 94.225 281.17 94.1716C281.236 94.105 281.316 94.0716 281.41 94.0716H284.15C284.35 94.0716 284.45 94.185 284.45 94.4116V96.8516ZM284.45 103.892C284.45 104.065 284.403 104.192 284.31 104.272C284.23 104.338 284.09 104.372 283.89 104.372H281.53C281.236 104.372 281.09 104.232 281.09 103.952V101.472C281.09 101.232 281.196 101.112 281.41 101.112H284.15C284.35 101.112 284.45 101.218 284.45 101.432V103.892Z" fill="#3A082C"/>
</svg>
