<svg width="298" height="193" viewBox="0 0 298 193" fill="none" xmlns="http://www.w3.org/2000/svg">
<path d="M4 127.54H294V168.125C294 179.171 285.046 188.125 274 188.125H24C12.9543 188.125 4 179.171 4 168.125V127.54Z" fill="#7B73B1"/>
<rect x="4" y="42.0918" width="290" height="146.614" rx="20" stroke="#3A082C" stroke-width="8"/>
<circle cx="148.999" cy="40.5727" r="35.8745" fill="white" stroke="#3A082C" stroke-width="8"/>
<circle cx="153.571" cy="44.1391" r="32.6215" fill="#EE8363"/>
<circle cx="148.999" cy="40.5727" r="35.8745" stroke="#3A082C" stroke-width="8"/>
<path d="M159.524 46.9259C159.524 49.0619 158.792 50.8499 157.328 52.2899C155.888 53.7059 153.944 54.5339 151.496 54.7739C151.232 54.7979 151.064 54.8459 150.992 54.9179C150.92 54.9899 150.884 55.1339 150.884 55.3499V56.6459C150.884 56.9339 150.812 57.1379 150.668 57.2579C150.548 57.4019 150.332 57.4739 150.02 57.4739H148.04C147.536 57.4739 147.284 57.2339 147.284 56.7539V55.3139C147.284 55.0979 147.248 54.9539 147.176 54.8819C147.104 54.8099 146.972 54.7739 146.78 54.7739C145.052 54.6779 143.54 54.3659 142.244 53.8379C140.972 53.2859 139.772 52.4939 138.644 51.4619C138.284 51.1739 138.104 50.9219 138.104 50.7059C138.104 50.5619 138.164 50.4299 138.284 50.3099L140.444 47.9699C140.66 47.7539 140.852 47.6459 141.02 47.6459C141.164 47.6459 141.32 47.7299 141.488 47.8979C143 49.5299 144.776 50.4779 146.816 50.7419L147.032 50.7779C147.224 50.7779 147.32 50.6459 147.32 50.3819L147.356 44.2259C147.356 44.0339 147.32 43.8899 147.248 43.7939C147.176 43.6739 147.032 43.5779 146.816 43.5059C143.984 42.8819 141.944 41.8979 140.696 40.5539C139.472 39.2099 138.86 37.5659 138.86 35.6219C138.86 33.7019 139.544 32.0699 140.912 30.7259C142.28 29.3579 144.2 28.4579 146.672 28.0259C147.128 27.9059 147.356 27.7019 147.356 27.4139V26.0459C147.356 25.9019 147.392 25.7819 147.464 25.6859C147.56 25.5899 147.668 25.5419 147.788 25.5419H150.236C150.668 25.5419 150.884 25.7699 150.884 26.2259V27.6659C150.884 27.8099 151.04 27.9179 151.352 27.9899C153.776 28.4939 155.852 29.3939 157.58 30.6899C157.772 30.8099 157.868 30.9659 157.868 31.1579C157.868 31.2779 157.808 31.4219 157.688 31.5899L155.78 34.0379C155.636 34.2059 155.492 34.2899 155.348 34.2899C155.156 34.2899 154.964 34.1939 154.772 34.0019C154.364 33.5939 153.848 33.2219 153.224 32.8859C152.624 32.5259 151.988 32.2619 151.316 32.0939L151.172 32.0579C150.956 32.0579 150.848 32.1659 150.848 32.3819V38.4659C150.848 38.6099 150.872 38.7179 150.92 38.7899C150.992 38.8379 151.112 38.8859 151.28 38.9339L153.296 39.4739C155.192 40.0499 156.704 40.9979 157.832 42.3179C158.96 43.6139 159.524 45.1499 159.524 46.9259ZM147.356 32.3459C147.356 31.9859 147.2 31.8419 146.888 31.9139C145.808 32.1059 144.98 32.4899 144.404 33.0659C143.828 33.6179 143.54 34.2779 143.54 35.0459C143.54 35.7899 143.78 36.4139 144.26 36.9179C144.74 37.3979 145.532 37.8059 146.636 38.1419C146.684 38.1659 146.756 38.1779 146.852 38.1779C147.188 38.1779 147.356 37.9499 147.356 37.4939V32.3459ZM150.848 50.5259C150.848 50.7419 151.004 50.8259 151.316 50.7779C152.396 50.6579 153.248 50.3219 153.872 49.7699C154.496 49.2179 154.808 48.5459 154.808 47.7539C154.808 46.9139 154.532 46.2179 153.98 45.6659C153.428 45.1139 152.54 44.6699 151.316 44.3339C151.268 44.3099 151.196 44.2979 151.1 44.2979C150.932 44.2979 150.848 44.4299 150.848 44.6939V50.5259Z" fill="white"/>
<path d="M86.4146 160.769C86.4146 162.074 85.9673 163.167 85.0726 164.047C84.1926 164.912 83.0046 165.418 81.5086 165.565C81.3473 165.579 81.2446 165.609 81.2006 165.653C81.1566 165.697 81.1346 165.785 81.1346 165.917V166.709C81.1346 166.885 81.0906 167.009 81.0026 167.083C80.9293 167.171 80.7973 167.215 80.6066 167.215H79.3966C79.0886 167.215 78.9346 167.068 78.9346 166.775V165.895C78.9346 165.763 78.9126 165.675 78.8686 165.631C78.8246 165.587 78.7439 165.565 78.6266 165.565C77.5706 165.506 76.6466 165.315 75.8546 164.993C75.0773 164.655 74.3439 164.171 73.6546 163.541C73.4346 163.365 73.3246 163.211 73.3246 163.079C73.3246 162.991 73.3613 162.91 73.4346 162.837L74.7546 161.407C74.8866 161.275 75.0039 161.209 75.1066 161.209C75.1946 161.209 75.2899 161.26 75.3926 161.363C76.3166 162.36 77.4019 162.939 78.6486 163.101L78.7806 163.123C78.8979 163.123 78.9566 163.042 78.9566 162.881L78.9786 159.119C78.9786 159.001 78.9566 158.913 78.9126 158.855C78.8686 158.781 78.7806 158.723 78.6486 158.679C76.9179 158.297 75.6713 157.696 74.9086 156.875C74.1606 156.053 73.7866 155.049 73.7866 153.861C73.7866 152.687 74.2046 151.69 75.0406 150.869C75.8766 150.033 77.0499 149.483 78.5606 149.219C78.8393 149.145 78.9786 149.021 78.9786 148.845V148.009C78.9786 147.921 79.0006 147.847 79.0446 147.789C79.1033 147.73 79.1693 147.701 79.2426 147.701H80.7386C81.0026 147.701 81.1346 147.84 81.1346 148.119V148.999C81.1346 149.087 81.2299 149.153 81.4206 149.197C82.9019 149.505 84.1706 150.055 85.2266 150.847C85.3439 150.92 85.4026 151.015 85.4026 151.133C85.4026 151.206 85.3659 151.294 85.2926 151.397L84.1266 152.893C84.0386 152.995 83.9506 153.047 83.8626 153.047C83.7453 153.047 83.6279 152.988 83.5106 152.871C83.2613 152.621 82.9459 152.394 82.5646 152.189C82.1979 151.969 81.8093 151.807 81.3986 151.705L81.3106 151.683C81.1786 151.683 81.1126 151.749 81.1126 151.881V155.599C81.1126 155.687 81.1273 155.753 81.1566 155.797C81.2006 155.826 81.2739 155.855 81.3766 155.885L82.6086 156.215C83.7673 156.567 84.6913 157.146 85.3806 157.953C86.0699 158.745 86.4146 159.683 86.4146 160.769ZM78.9786 151.859C78.9786 151.639 78.8833 151.551 78.6926 151.595C78.0326 151.712 77.5266 151.947 77.1746 152.299C76.8226 152.636 76.6466 153.039 76.6466 153.509C76.6466 153.963 76.7933 154.345 77.0866 154.653C77.3799 154.946 77.8639 155.195 78.5386 155.401C78.5679 155.415 78.6119 155.423 78.6706 155.423C78.8759 155.423 78.9786 155.283 78.9786 155.005V151.859ZM81.1126 162.969C81.1126 163.101 81.2079 163.152 81.3986 163.123C82.0586 163.049 82.5793 162.844 82.9606 162.507C83.3419 162.169 83.5326 161.759 83.5326 161.275C83.5326 160.761 83.3639 160.336 83.0266 159.999C82.6893 159.661 82.1466 159.39 81.3986 159.185C81.3693 159.17 81.3253 159.163 81.2666 159.163C81.1639 159.163 81.1126 159.243 81.1126 159.405V162.969ZM93.1086 158.415C94.0766 157.579 94.7953 156.911 95.2646 156.413C95.7339 155.914 96.0566 155.481 96.2326 155.115C96.4233 154.733 96.5186 154.323 96.5186 153.883C96.5186 153.223 96.2839 152.702 95.8146 152.321C95.3599 151.925 94.7806 151.727 94.0766 151.727C93.4606 151.727 92.8886 151.91 92.3606 152.277C91.8473 152.629 91.3486 153.215 90.8646 154.037C90.8206 154.154 90.7253 154.213 90.5786 154.213C90.4759 154.213 90.3733 154.183 90.2706 154.125L88.3126 153.113C88.1366 152.995 88.0486 152.863 88.0486 152.717C88.0486 152.614 88.0853 152.504 88.1586 152.387C89.6106 150.084 91.6566 148.933 94.2966 148.933C95.4699 148.933 96.5039 149.131 97.3986 149.527C98.3079 149.923 99.0119 150.495 99.5106 151.243C100.009 151.991 100.259 152.871 100.259 153.883C100.259 154.777 100.017 155.599 99.5326 156.347C99.0633 157.095 98.2493 157.931 97.0906 158.855L93.0206 162.045C92.9326 162.103 92.8886 162.155 92.8886 162.199C92.8886 162.272 92.9766 162.309 93.1526 162.309H99.9946C100.273 162.309 100.413 162.426 100.413 162.661V165.081C100.413 165.345 100.266 165.477 99.9726 165.477H88.5106C88.3199 165.477 88.1879 165.447 88.1146 165.389C88.0413 165.315 88.0046 165.191 88.0046 165.015V163.321C88.0046 163.189 88.0633 163.049 88.1806 162.903C88.2979 162.741 88.5766 162.477 89.0166 162.111L93.1086 158.415ZM109.159 148.911C110.464 148.911 111.63 149.263 112.657 149.967C113.683 150.671 114.49 151.661 115.077 152.937C115.663 154.213 115.957 155.687 115.957 157.359C115.957 159.031 115.663 160.497 115.077 161.759C114.505 163.005 113.705 163.973 112.679 164.663C111.652 165.337 110.479 165.675 109.159 165.675C107.839 165.675 106.658 165.337 105.617 164.663C104.59 163.973 103.783 163.005 103.197 161.759C102.625 160.497 102.339 159.038 102.339 157.381C102.339 155.709 102.632 154.235 103.219 152.959C103.805 151.668 104.612 150.671 105.639 149.967C106.68 149.263 107.853 148.911 109.159 148.911ZM109.159 162.947C110.141 162.947 110.867 162.514 111.337 161.649C111.806 160.783 112.041 159.361 112.041 157.381C112.041 155.357 111.799 153.89 111.315 152.981C110.845 152.057 110.119 151.595 109.137 151.595C108.169 151.595 107.443 152.057 106.959 152.981C106.475 153.905 106.233 155.371 106.233 157.381C106.233 159.346 106.475 160.769 106.959 161.649C107.443 162.514 108.176 162.947 109.159 162.947ZM124.735 148.911C126.04 148.911 127.206 149.263 128.233 149.967C129.26 150.671 130.066 151.661 130.653 152.937C131.24 154.213 131.533 155.687 131.533 157.359C131.533 159.031 131.24 160.497 130.653 161.759C130.081 163.005 129.282 163.973 128.255 164.663C127.228 165.337 126.055 165.675 124.735 165.675C123.415 165.675 122.234 165.337 121.193 164.663C120.166 163.973 119.36 163.005 118.773 161.759C118.201 160.497 117.915 159.038 117.915 157.381C117.915 155.709 118.208 154.235 118.795 152.959C119.382 151.668 120.188 150.671 121.215 149.967C122.256 149.263 123.43 148.911 124.735 148.911ZM124.735 162.947C125.718 162.947 126.444 162.514 126.913 161.649C127.382 160.783 127.617 159.361 127.617 157.381C127.617 155.357 127.375 153.89 126.891 152.981C126.422 152.057 125.696 151.595 124.713 151.595C123.745 151.595 123.019 152.057 122.535 152.981C122.051 153.905 121.809 155.371 121.809 157.381C121.809 159.346 122.051 160.769 122.535 161.649C123.019 162.514 123.752 162.947 124.735 162.947ZM144.316 160.417C144.316 160.739 144.126 160.901 143.744 160.901H138.574C138.398 160.901 138.274 160.871 138.2 160.813C138.142 160.739 138.112 160.622 138.112 160.461V158.855C138.112 158.591 138.222 158.459 138.442 158.459H143.986C144.089 158.459 144.17 158.488 144.228 158.547C144.287 158.605 144.316 158.686 144.316 158.789V160.417ZM163.565 160.769C163.565 162.074 163.118 163.167 162.223 164.047C161.343 164.912 160.155 165.418 158.659 165.565C158.498 165.579 158.395 165.609 158.351 165.653C158.307 165.697 158.285 165.785 158.285 165.917V166.709C158.285 166.885 158.241 167.009 158.153 167.083C158.08 167.171 157.948 167.215 157.757 167.215H156.547C156.239 167.215 156.085 167.068 156.085 166.775V165.895C156.085 165.763 156.063 165.675 156.019 165.631C155.975 165.587 155.894 165.565 155.777 165.565C154.721 165.506 153.797 165.315 153.005 164.993C152.228 164.655 151.494 164.171 150.805 163.541C150.585 163.365 150.475 163.211 150.475 163.079C150.475 162.991 150.512 162.91 150.585 162.837L151.905 161.407C152.037 161.275 152.154 161.209 152.257 161.209C152.345 161.209 152.44 161.26 152.543 161.363C153.467 162.36 154.552 162.939 155.799 163.101L155.931 163.123C156.048 163.123 156.107 163.042 156.107 162.881L156.129 159.119C156.129 159.001 156.107 158.913 156.063 158.855C156.019 158.781 155.931 158.723 155.799 158.679C154.068 158.297 152.822 157.696 152.059 156.875C151.311 156.053 150.937 155.049 150.937 153.861C150.937 152.687 151.355 151.69 152.191 150.869C153.027 150.033 154.2 149.483 155.711 149.219C155.99 149.145 156.129 149.021 156.129 148.845V148.009C156.129 147.921 156.151 147.847 156.195 147.789C156.254 147.73 156.32 147.701 156.393 147.701H157.889C158.153 147.701 158.285 147.84 158.285 148.119V148.999C158.285 149.087 158.38 149.153 158.571 149.197C160.052 149.505 161.321 150.055 162.377 150.847C162.494 150.92 162.553 151.015 162.553 151.133C162.553 151.206 162.516 151.294 162.443 151.397L161.277 152.893C161.189 152.995 161.101 153.047 161.013 153.047C160.896 153.047 160.778 152.988 160.661 152.871C160.412 152.621 160.096 152.394 159.715 152.189C159.348 151.969 158.96 151.807 158.549 151.705L158.461 151.683C158.329 151.683 158.263 151.749 158.263 151.881V155.599C158.263 155.687 158.278 155.753 158.307 155.797C158.351 155.826 158.424 155.855 158.527 155.885L159.759 156.215C160.918 156.567 161.842 157.146 162.531 157.953C163.22 158.745 163.565 159.683 163.565 160.769ZM156.129 151.859C156.129 151.639 156.034 151.551 155.843 151.595C155.183 151.712 154.677 151.947 154.325 152.299C153.973 152.636 153.797 153.039 153.797 153.509C153.797 153.963 153.944 154.345 154.237 154.653C154.53 154.946 155.014 155.195 155.689 155.401C155.718 155.415 155.762 155.423 155.821 155.423C156.026 155.423 156.129 155.283 156.129 155.005V151.859ZM158.263 162.969C158.263 163.101 158.358 163.152 158.549 163.123C159.209 163.049 159.73 162.844 160.111 162.507C160.492 162.169 160.683 161.759 160.683 161.275C160.683 160.761 160.514 160.336 160.177 159.999C159.84 159.661 159.297 159.39 158.549 159.185C158.52 159.17 158.476 159.163 158.417 159.163C158.314 159.163 158.263 159.243 158.263 159.405V162.969ZM170.259 158.415C171.227 157.579 171.946 156.911 172.415 156.413C172.884 155.914 173.207 155.481 173.383 155.115C173.574 154.733 173.669 154.323 173.669 153.883C173.669 153.223 173.434 152.702 172.965 152.321C172.51 151.925 171.931 151.727 171.227 151.727C170.611 151.727 170.039 151.91 169.511 152.277C168.998 152.629 168.499 153.215 168.015 154.037C167.971 154.154 167.876 154.213 167.729 154.213C167.626 154.213 167.524 154.183 167.421 154.125L165.463 153.113C165.287 152.995 165.199 152.863 165.199 152.717C165.199 152.614 165.236 152.504 165.309 152.387C166.761 150.084 168.807 148.933 171.447 148.933C172.62 148.933 173.654 149.131 174.549 149.527C175.458 149.923 176.162 150.495 176.661 151.243C177.16 151.991 177.409 152.871 177.409 153.883C177.409 154.777 177.167 155.599 176.683 156.347C176.214 157.095 175.4 157.931 174.241 158.855L170.171 162.045C170.083 162.103 170.039 162.155 170.039 162.199C170.039 162.272 170.127 162.309 170.303 162.309H177.145C177.424 162.309 177.563 162.426 177.563 162.661V165.081C177.563 165.345 177.416 165.477 177.123 165.477H165.661C165.47 165.477 165.338 165.447 165.265 165.389C165.192 165.315 165.155 165.191 165.155 165.015V163.321C165.155 163.189 165.214 163.049 165.331 162.903C165.448 162.741 165.727 162.477 166.167 162.111L170.259 158.415ZM186.309 148.911C187.615 148.911 188.781 149.263 189.807 149.967C190.834 150.671 191.641 151.661 192.227 152.937C192.814 154.213 193.107 155.687 193.107 157.359C193.107 159.031 192.814 160.497 192.227 161.759C191.655 163.005 190.856 163.973 189.829 164.663C188.803 165.337 187.629 165.675 186.309 165.675C184.989 165.675 183.809 165.337 182.767 164.663C181.741 163.973 180.934 163.005 180.347 161.759C179.775 160.497 179.489 159.038 179.489 157.381C179.489 155.709 179.783 154.235 180.369 152.959C180.956 151.668 181.763 150.671 182.789 149.967C183.831 149.263 185.004 148.911 186.309 148.911ZM186.309 162.947C187.292 162.947 188.018 162.514 188.487 161.649C188.957 160.783 189.191 159.361 189.191 157.381C189.191 155.357 188.949 153.89 188.465 152.981C187.996 152.057 187.27 151.595 186.287 151.595C185.319 151.595 184.593 152.057 184.109 152.981C183.625 153.905 183.383 155.371 183.383 157.381C183.383 159.346 183.625 160.769 184.109 161.649C184.593 162.514 185.327 162.947 186.309 162.947ZM201.885 148.911C203.191 148.911 204.357 149.263 205.383 149.967C206.41 150.671 207.217 151.661 207.803 152.937C208.39 154.213 208.683 155.687 208.683 157.359C208.683 159.031 208.39 160.497 207.803 161.759C207.231 163.005 206.432 163.973 205.405 164.663C204.379 165.337 203.205 165.675 201.885 165.675C200.565 165.675 199.385 165.337 198.343 164.663C197.317 163.973 196.51 163.005 195.923 161.759C195.351 160.497 195.065 159.038 195.065 157.381C195.065 155.709 195.359 154.235 195.945 152.959C196.532 151.668 197.339 150.671 198.365 149.967C199.407 149.263 200.58 148.911 201.885 148.911ZM201.885 162.947C202.868 162.947 203.594 162.514 204.063 161.649C204.533 160.783 204.767 159.361 204.767 157.381C204.767 155.357 204.525 153.89 204.041 152.981C203.572 152.057 202.846 151.595 201.863 151.595C200.895 151.595 200.169 152.057 199.685 152.981C199.201 153.905 198.959 155.371 198.959 157.381C198.959 159.346 199.201 160.769 199.685 161.649C200.169 162.514 200.903 162.947 201.885 162.947ZM217.462 148.911C218.767 148.911 219.933 149.263 220.96 149.967C221.986 150.671 222.793 151.661 223.38 152.937C223.966 154.213 224.26 155.687 224.26 157.359C224.26 159.031 223.966 160.497 223.38 161.759C222.808 163.005 222.008 163.973 220.982 164.663C219.955 165.337 218.782 165.675 217.462 165.675C216.142 165.675 214.961 165.337 213.92 164.663C212.893 163.973 212.086 163.005 211.5 161.759C210.928 160.497 210.642 159.038 210.642 157.381C210.642 155.709 210.935 154.235 211.522 152.959C212.108 151.668 212.915 150.671 213.942 149.967C214.983 149.263 216.156 148.911 217.462 148.911ZM217.462 162.947C218.444 162.947 219.17 162.514 219.64 161.649C220.109 160.783 220.344 159.361 220.344 157.381C220.344 155.357 220.102 153.89 219.618 152.981C219.148 152.057 218.422 151.595 217.44 151.595C216.472 151.595 215.746 152.057 215.262 152.981C214.778 153.905 214.536 155.371 214.536 157.381C214.536 159.346 214.778 160.769 215.262 161.649C215.746 162.514 216.479 162.947 217.462 162.947Z" fill="white"/>
<path d="M13.652 104.447C13.452 104.447 13.352 104.334 13.352 104.107C13.352 104.001 13.3653 103.921 13.392 103.867L18.372 90.0073C18.4253 89.8606 18.4853 89.7606 18.552 89.7073C18.632 89.6406 18.7453 89.6073 18.892 89.6073H21.892C22.0386 89.6073 22.1653 89.6473 22.272 89.7273C22.3786 89.8073 22.452 89.9139 22.492 90.0473L27.432 103.907C27.4586 103.987 27.472 104.047 27.472 104.087C27.472 104.194 27.4453 104.281 27.392 104.347C27.352 104.414 27.2853 104.447 27.192 104.447H24.252C24.052 104.447 23.9253 104.354 23.872 104.167L22.832 101.247C22.8053 101.167 22.772 101.114 22.732 101.087C22.7053 101.047 22.652 101.027 22.572 101.027H17.692C17.5586 101.027 17.472 101.094 17.432 101.227L16.372 104.187C16.292 104.361 16.152 104.447 15.952 104.447H13.652ZM21.752 98.3673C21.8853 98.3673 21.952 98.3139 21.952 98.2073C21.952 98.1273 21.9453 98.0673 21.932 98.0273L20.252 93.3473C20.212 93.2673 20.1653 93.2273 20.112 93.2273C20.072 93.2273 20.032 93.2739 19.992 93.3673L18.292 98.0273C18.2653 98.1073 18.252 98.1673 18.252 98.2073C18.252 98.3139 18.3253 98.3673 18.472 98.3673H21.752ZM37.7879 93.8473C37.9079 93.8473 37.9946 93.8939 38.0479 93.9873C38.1012 94.0806 38.1079 94.1873 38.0679 94.3073L34.1079 104.027C33.9879 104.307 33.7746 104.447 33.4679 104.447H32.0479C31.7412 104.447 31.5279 104.307 31.4079 104.027L27.4679 94.3273C27.4412 94.2473 27.4279 94.1939 27.4279 94.1673C27.4279 94.0739 27.4612 94.0006 27.5279 93.9473C27.5946 93.8806 27.6746 93.8473 27.7679 93.8473H30.3079C30.5346 93.8473 30.6812 93.9606 30.7479 94.1873L33.0479 100.087C33.1146 100.207 33.1679 100.267 33.2079 100.267C33.2612 100.267 33.3146 100.201 33.3679 100.067L35.6279 94.1673C35.7212 93.9539 35.8679 93.8473 36.0679 93.8473H37.7879ZM41.6873 100.047C41.6873 100.794 41.9339 101.401 42.4273 101.867C42.9339 102.321 43.5606 102.547 44.3073 102.547C44.7873 102.547 45.2273 102.447 45.6273 102.247C46.0406 102.034 46.4539 101.687 46.8673 101.207C46.9206 101.154 46.9739 101.127 47.0273 101.127C47.0673 101.127 47.1339 101.147 47.2273 101.187L48.6673 101.787C48.7606 101.827 48.8073 101.894 48.8073 101.987C48.8073 102.054 48.7806 102.121 48.7273 102.187C48.0873 103.094 47.4006 103.734 46.6673 104.107C45.9339 104.467 45.0206 104.647 43.9273 104.647C42.9006 104.647 41.9739 104.421 41.1473 103.967C40.3206 103.514 39.6739 102.887 39.2073 102.087C38.7406 101.274 38.5073 100.347 38.5073 99.3073C38.5073 98.1873 38.7473 97.2006 39.2273 96.3473C39.7073 95.4806 40.3539 94.8139 41.1673 94.3473C41.9939 93.8806 42.8939 93.6473 43.8673 93.6473C44.8806 93.6473 45.7806 93.8739 46.5673 94.3273C47.3539 94.7673 47.9673 95.4073 48.4073 96.2473C48.8473 97.0873 49.0673 98.0873 49.0673 99.2473C49.0673 99.4206 49.0473 99.5406 49.0073 99.6073C48.9806 99.6739 48.8873 99.7139 48.7273 99.7273H41.9273C41.7673 99.7273 41.6873 99.8339 41.6873 100.047ZM45.7073 98.0473C45.8539 98.0473 45.9473 98.0339 45.9873 98.0073C46.0273 97.9673 46.0473 97.8873 46.0473 97.7673C46.0473 97.4206 45.9673 97.0739 45.8073 96.7273C45.6473 96.3806 45.4139 96.0939 45.1073 95.8673C44.8006 95.6406 44.4273 95.5273 43.9873 95.5273C43.3206 95.5273 42.7739 95.7606 42.3473 96.2273C41.9206 96.6939 41.7139 97.2939 41.7273 98.0273L45.7073 98.0473ZM51.126 104.447C50.846 104.447 50.706 104.314 50.706 104.047V94.2273C50.706 93.9739 50.8127 93.8473 51.026 93.8473H53.366C53.5794 93.8473 53.686 93.9606 53.686 94.1873V95.3673C53.686 95.4206 53.6994 95.4606 53.726 95.4873C53.7527 95.5139 53.7794 95.5273 53.806 95.5273C53.846 95.5273 53.8994 95.4939 53.966 95.4273C54.366 94.8939 54.8394 94.4673 55.386 94.1473C55.9327 93.8139 56.4527 93.6473 56.946 93.6473C57.426 93.6473 57.666 93.7606 57.666 93.9873V96.3073C57.666 96.4006 57.6394 96.4739 57.586 96.5273C57.5327 96.5806 57.4594 96.5939 57.366 96.5673C56.9394 96.4606 56.4727 96.4073 55.966 96.4073C55.6327 96.4073 55.2927 96.4939 54.946 96.6673C54.6127 96.8273 54.3327 97.0473 54.106 97.3273C53.8927 97.5939 53.786 97.8673 53.786 98.1473V103.987C53.786 104.294 53.6127 104.447 53.266 104.447H51.126ZM64.9249 103.427C64.0449 104.241 62.9983 104.647 61.7849 104.647C60.7849 104.647 59.9916 104.381 59.4049 103.847C58.8183 103.301 58.5249 102.594 58.5249 101.727C58.5249 100.607 59.0383 99.7073 60.0649 99.0273C61.0916 98.3473 62.5049 97.9873 64.3049 97.9473L65.0249 97.8873C65.1049 97.8873 65.1716 97.8673 65.2249 97.8273C65.2916 97.7739 65.3249 97.7006 65.3249 97.6073V97.1873C65.3249 96.6673 65.1783 96.2673 64.8849 95.9873C64.5916 95.7073 64.1716 95.5673 63.6249 95.5673C62.6916 95.5673 61.9983 95.9673 61.5449 96.7673C61.4916 96.9006 61.4049 96.9673 61.2849 96.9673C61.2183 96.9673 61.1583 96.9606 61.1049 96.9473L59.1049 96.4873C58.9849 96.4606 58.9249 96.3873 58.9249 96.2673C58.9249 96.1873 58.9516 96.0873 59.0049 95.9673C59.3249 95.1939 59.8916 94.6139 60.7049 94.2273C61.5316 93.8406 62.5516 93.6473 63.7649 93.6473C65.3516 93.6473 66.4983 93.9406 67.2049 94.5273C67.9116 95.1006 68.2649 95.9206 68.2649 96.9873V104.007C68.2649 104.167 68.2383 104.281 68.1849 104.347C68.1316 104.414 68.0316 104.447 67.8849 104.447H65.8249C65.6916 104.447 65.5916 104.401 65.5249 104.307C65.4716 104.214 65.4316 104.074 65.4049 103.887L65.3849 103.447C65.3716 103.327 65.3183 103.267 65.2249 103.267C65.1716 103.267 65.0716 103.321 64.9249 103.427ZM65.3249 99.7273C65.3249 99.6073 65.3049 99.5206 65.2649 99.4673C65.2249 99.4139 65.1449 99.3873 65.0249 99.3873L64.4649 99.4273C63.6916 99.4673 63.0049 99.6539 62.4049 99.9873C61.8183 100.307 61.5249 100.754 61.5249 101.327C61.5249 101.727 61.6649 102.047 61.9449 102.287C62.2249 102.514 62.6116 102.627 63.1049 102.627C63.7183 102.627 64.2383 102.447 64.6649 102.087C65.1049 101.741 65.3249 101.387 65.3249 101.027V99.7273ZM81.0745 93.3873C81.3411 93.3873 81.4745 93.5339 81.4745 93.8273V95.1873C81.4745 95.5606 81.3211 95.7139 81.0145 95.6473C80.8145 95.6073 80.6211 95.5873 80.4345 95.5873C80.3278 95.5873 80.2078 95.6006 80.0745 95.6273C79.7278 95.6806 79.5945 95.8339 79.6745 96.0873C79.7945 96.4473 79.8545 96.7473 79.8545 96.9873C79.8545 97.6006 79.6678 98.1539 79.2945 98.6473C78.9345 99.1406 78.3878 99.5339 77.6545 99.8273C76.9345 100.121 76.0611 100.267 75.0345 100.267C74.2878 100.267 73.7345 100.327 73.3745 100.447C73.0278 100.567 72.8545 100.727 72.8545 100.927C72.8545 101.101 72.9478 101.227 73.1345 101.307C73.3345 101.374 73.6611 101.421 74.1145 101.447L76.9745 101.607C78.2945 101.687 79.2745 101.981 79.9145 102.487C80.5678 102.994 80.8945 103.667 80.8945 104.507C80.8945 105.547 80.4011 106.381 79.4145 107.007C78.4278 107.634 77.0278 107.947 75.2145 107.947C71.3345 107.947 69.3945 107.087 69.3945 105.367C69.3945 104.941 69.5611 104.581 69.8945 104.287C70.2278 103.981 70.7011 103.714 71.3145 103.487C71.3945 103.461 71.4345 103.427 71.4345 103.387C71.4345 103.347 71.3945 103.307 71.3145 103.267C70.5411 102.894 70.1545 102.401 70.1545 101.787C70.1545 101.427 70.3278 101.094 70.6745 100.787C71.0345 100.467 71.5078 100.194 72.0945 99.9673C72.2545 99.8873 72.2678 99.8073 72.1345 99.7273C70.8411 99.1273 70.1945 98.2206 70.1945 97.0073C70.1945 95.9939 70.6278 95.1873 71.4945 94.5873C72.3745 93.9873 73.6278 93.6873 75.2545 93.6873C76.6278 93.6873 77.6945 93.9873 78.4545 94.5873C78.5478 94.6539 78.6345 94.6873 78.7145 94.6873C78.8211 94.6873 78.9145 94.6406 78.9945 94.5473C79.2478 94.2406 79.5811 93.9739 79.9945 93.7473C80.4078 93.5073 80.7678 93.3873 81.0745 93.3873ZM75.0145 98.7473C75.6945 98.7473 76.2011 98.5939 76.5345 98.2873C76.8811 97.9673 77.0545 97.5539 77.0545 97.0473C77.0545 96.4873 76.8811 96.0473 76.5345 95.7273C76.2011 95.3939 75.6945 95.2273 75.0145 95.2273C74.3745 95.2273 73.8678 95.3939 73.4945 95.7273C73.1345 96.0606 72.9545 96.5006 72.9545 97.0473C72.9545 97.5539 73.1345 97.9673 73.4945 98.2873C73.8678 98.5939 74.3745 98.7473 75.0145 98.7473ZM73.5345 103.847C73.1211 103.821 72.7478 103.921 72.4145 104.147C72.0945 104.361 71.9345 104.634 71.9345 104.967C71.9345 105.461 72.2078 105.834 72.7545 106.087C73.3011 106.341 74.1878 106.467 75.4145 106.467C76.3078 106.467 76.9945 106.341 77.4745 106.087C77.9545 105.847 78.1945 105.501 78.1945 105.047C78.1945 104.741 78.0611 104.494 77.7945 104.307C77.5278 104.121 77.1345 104.014 76.6145 103.987L73.5345 103.847ZM85.281 100.047C85.281 100.794 85.5277 101.401 86.021 101.867C86.5277 102.321 87.1544 102.547 87.901 102.547C88.381 102.547 88.821 102.447 89.221 102.247C89.6344 102.034 90.0477 101.687 90.461 101.207C90.5144 101.154 90.5677 101.127 90.621 101.127C90.661 101.127 90.7277 101.147 90.821 101.187L92.261 101.787C92.3544 101.827 92.401 101.894 92.401 101.987C92.401 102.054 92.3744 102.121 92.321 102.187C91.681 103.094 90.9944 103.734 90.261 104.107C89.5277 104.467 88.6144 104.647 87.521 104.647C86.4944 104.647 85.5677 104.421 84.741 103.967C83.9144 103.514 83.2677 102.887 82.801 102.087C82.3344 101.274 82.101 100.347 82.101 99.3073C82.101 98.1873 82.341 97.2006 82.821 96.3473C83.301 95.4806 83.9477 94.8139 84.761 94.3473C85.5877 93.8806 86.4877 93.6473 87.461 93.6473C88.4744 93.6473 89.3744 93.8739 90.161 94.3273C90.9477 94.7673 91.561 95.4073 92.001 96.2473C92.441 97.0873 92.661 98.0873 92.661 99.2473C92.661 99.4206 92.641 99.5406 92.601 99.6073C92.5744 99.6739 92.481 99.7139 92.321 99.7273H85.521C85.361 99.7273 85.281 99.8339 85.281 100.047ZM89.301 98.0473C89.4477 98.0473 89.541 98.0339 89.581 98.0073C89.621 97.9673 89.641 97.8873 89.641 97.7673C89.641 97.4206 89.561 97.0739 89.401 96.7273C89.241 96.3806 89.0077 96.0939 88.701 95.8673C88.3944 95.6406 88.021 95.5273 87.581 95.5273C86.9144 95.5273 86.3677 95.7606 85.941 96.2273C85.5144 96.6939 85.3077 97.2939 85.321 98.0273L89.301 98.0473ZM110.761 103.907C110.788 103.987 110.801 104.047 110.801 104.087C110.801 104.194 110.768 104.281 110.701 104.347C110.634 104.414 110.554 104.447 110.461 104.447H107.521C107.294 104.447 107.148 104.327 107.081 104.087L104.921 98.4873C104.881 98.3806 104.821 98.3073 104.741 98.2673C104.661 98.2273 104.534 98.2073 104.361 98.2073H102.461C102.381 98.2073 102.321 98.2339 102.281 98.2873C102.241 98.3273 102.221 98.3739 102.221 98.4273V103.967C102.221 104.141 102.174 104.267 102.081 104.347C102.001 104.414 101.868 104.447 101.681 104.447H99.1409C98.9809 104.447 98.8675 104.414 98.8009 104.347C98.7475 104.281 98.7209 104.181 98.7209 104.047V89.9873C98.7209 89.7339 98.8275 89.6073 99.0409 89.6073H105.281C107.081 89.6073 108.474 89.9606 109.461 90.6673C110.448 91.3739 110.941 92.3806 110.941 93.6873C110.941 94.6606 110.681 95.4939 110.161 96.1873C109.641 96.8673 108.988 97.3473 108.201 97.6273C108.094 97.6673 108.068 97.7673 108.121 97.9273L110.761 103.907ZM104.961 95.8473C105.734 95.8473 106.321 95.6873 106.721 95.3673C107.121 95.0339 107.321 94.5539 107.321 93.9273C107.321 93.2873 107.114 92.8006 106.701 92.4673C106.301 92.1206 105.754 91.9473 105.061 91.9473H102.601C102.454 91.9473 102.354 91.9739 102.301 92.0273C102.248 92.0673 102.221 92.1473 102.221 92.2673V95.5073C102.221 95.6273 102.241 95.7139 102.281 95.7673C102.321 95.8206 102.394 95.8473 102.501 95.8473H104.961ZM118.694 103.427C117.814 104.241 116.768 104.647 115.554 104.647C114.554 104.647 113.761 104.381 113.174 103.847C112.588 103.301 112.294 102.594 112.294 101.727C112.294 100.607 112.808 99.7073 113.834 99.0273C114.861 98.3473 116.274 97.9873 118.074 97.9473L118.794 97.8873C118.874 97.8873 118.941 97.8673 118.994 97.8273C119.061 97.7739 119.094 97.7006 119.094 97.6073V97.1873C119.094 96.6673 118.948 96.2673 118.654 95.9873C118.361 95.7073 117.941 95.5673 117.394 95.5673C116.461 95.5673 115.768 95.9673 115.314 96.7673C115.261 96.9006 115.174 96.9673 115.054 96.9673C114.988 96.9673 114.928 96.9606 114.874 96.9473L112.874 96.4873C112.754 96.4606 112.694 96.3873 112.694 96.2673C112.694 96.1873 112.721 96.0873 112.774 95.9673C113.094 95.1939 113.661 94.6139 114.474 94.2273C115.301 93.8406 116.321 93.6473 117.534 93.6473C119.121 93.6473 120.268 93.9406 120.974 94.5273C121.681 95.1006 122.034 95.9206 122.034 96.9873V104.007C122.034 104.167 122.008 104.281 121.954 104.347C121.901 104.414 121.801 104.447 121.654 104.447H119.594C119.461 104.447 119.361 104.401 119.294 104.307C119.241 104.214 119.201 104.074 119.174 103.887L119.154 103.447C119.141 103.327 119.088 103.267 118.994 103.267C118.941 103.267 118.841 103.321 118.694 103.427ZM119.094 99.7273C119.094 99.6073 119.074 99.5206 119.034 99.4673C118.994 99.4139 118.914 99.3873 118.794 99.3873L118.234 99.4273C117.461 99.4673 116.774 99.6539 116.174 99.9873C115.588 100.307 115.294 100.754 115.294 101.327C115.294 101.727 115.434 102.047 115.714 102.287C115.994 102.514 116.381 102.627 116.874 102.627C117.488 102.627 118.008 102.447 118.434 102.087C118.874 101.741 119.094 101.387 119.094 101.027V99.7273ZM124.544 104.447C124.397 104.447 124.291 104.421 124.224 104.367C124.157 104.301 124.124 104.194 124.124 104.047V94.2273C124.124 93.9739 124.231 93.8473 124.444 93.8473H126.864C127.064 93.8473 127.164 93.9606 127.164 94.1873V95.1673C127.164 95.2739 127.197 95.3273 127.264 95.3273C127.304 95.3273 127.351 95.3006 127.404 95.2473C127.951 94.7273 128.497 94.3339 129.044 94.0673C129.591 93.7873 130.171 93.6473 130.784 93.6473C131.757 93.6473 132.524 93.9339 133.084 94.5073C133.657 95.0806 133.944 95.8473 133.944 96.8073V103.967C133.944 104.287 133.784 104.447 133.464 104.447H131.244C131.097 104.447 130.997 104.421 130.944 104.367C130.891 104.301 130.864 104.194 130.864 104.047V97.2873C130.864 96.8339 130.737 96.4873 130.484 96.2473C130.244 95.9939 129.884 95.8673 129.404 95.8673C129.004 95.8673 128.631 95.9673 128.284 96.1673C127.951 96.3673 127.591 96.6806 127.204 97.1073V103.987C127.204 104.147 127.164 104.267 127.084 104.347C127.004 104.414 126.871 104.447 126.684 104.447H124.544ZM146.758 93.3873C147.025 93.3873 147.158 93.5339 147.158 93.8273V95.1873C147.158 95.5606 147.005 95.7139 146.698 95.6473C146.498 95.6073 146.305 95.5873 146.118 95.5873C146.011 95.5873 145.891 95.6006 145.758 95.6273C145.411 95.6806 145.278 95.8339 145.358 96.0873C145.478 96.4473 145.538 96.7473 145.538 96.9873C145.538 97.6006 145.351 98.1539 144.978 98.6473C144.618 99.1406 144.071 99.5339 143.338 99.8273C142.618 100.121 141.745 100.267 140.718 100.267C139.971 100.267 139.418 100.327 139.058 100.447C138.711 100.567 138.538 100.727 138.538 100.927C138.538 101.101 138.631 101.227 138.818 101.307C139.018 101.374 139.345 101.421 139.798 101.447L142.658 101.607C143.978 101.687 144.958 101.981 145.598 102.487C146.251 102.994 146.578 103.667 146.578 104.507C146.578 105.547 146.085 106.381 145.098 107.007C144.111 107.634 142.711 107.947 140.898 107.947C137.018 107.947 135.078 107.087 135.078 105.367C135.078 104.941 135.245 104.581 135.578 104.287C135.911 103.981 136.385 103.714 136.998 103.487C137.078 103.461 137.118 103.427 137.118 103.387C137.118 103.347 137.078 103.307 136.998 103.267C136.225 102.894 135.838 102.401 135.838 101.787C135.838 101.427 136.011 101.094 136.358 100.787C136.718 100.467 137.191 100.194 137.778 99.9673C137.938 99.8873 137.951 99.8073 137.818 99.7273C136.525 99.1273 135.878 98.2206 135.878 97.0073C135.878 95.9939 136.311 95.1873 137.178 94.5873C138.058 93.9873 139.311 93.6873 140.938 93.6873C142.311 93.6873 143.378 93.9873 144.138 94.5873C144.231 94.6539 144.318 94.6873 144.398 94.6873C144.505 94.6873 144.598 94.6406 144.678 94.5473C144.931 94.2406 145.265 93.9739 145.678 93.7473C146.091 93.5073 146.451 93.3873 146.758 93.3873ZM140.698 98.7473C141.378 98.7473 141.885 98.5939 142.218 98.2873C142.565 97.9673 142.738 97.5539 142.738 97.0473C142.738 96.4873 142.565 96.0473 142.218 95.7273C141.885 95.3939 141.378 95.2273 140.698 95.2273C140.058 95.2273 139.551 95.3939 139.178 95.7273C138.818 96.0606 138.638 96.5006 138.638 97.0473C138.638 97.5539 138.818 97.9673 139.178 98.2873C139.551 98.5939 140.058 98.7473 140.698 98.7473ZM139.218 103.847C138.805 103.821 138.431 103.921 138.098 104.147C137.778 104.361 137.618 104.634 137.618 104.967C137.618 105.461 137.891 105.834 138.438 106.087C138.985 106.341 139.871 106.467 141.098 106.467C141.991 106.467 142.678 106.341 143.158 106.087C143.638 105.847 143.878 105.501 143.878 105.047C143.878 104.741 143.745 104.494 143.478 104.307C143.211 104.121 142.818 104.014 142.298 103.987L139.218 103.847ZM150.965 100.047C150.965 100.794 151.211 101.401 151.705 101.867C152.211 102.321 152.838 102.547 153.585 102.547C154.065 102.547 154.505 102.447 154.905 102.247C155.318 102.034 155.731 101.687 156.145 101.207C156.198 101.154 156.251 101.127 156.305 101.127C156.345 101.127 156.411 101.147 156.505 101.187L157.945 101.787C158.038 101.827 158.085 101.894 158.085 101.987C158.085 102.054 158.058 102.121 158.005 102.187C157.365 103.094 156.678 103.734 155.945 104.107C155.211 104.467 154.298 104.647 153.205 104.647C152.178 104.647 151.251 104.421 150.425 103.967C149.598 103.514 148.951 102.887 148.485 102.087C148.018 101.274 147.785 100.347 147.785 99.3073C147.785 98.1873 148.025 97.2006 148.505 96.3473C148.985 95.4806 149.631 94.8139 150.445 94.3473C151.271 93.8806 152.171 93.6473 153.145 93.6473C154.158 93.6473 155.058 93.8739 155.845 94.3273C156.631 94.7673 157.245 95.4073 157.685 96.2473C158.125 97.0873 158.345 98.0873 158.345 99.2473C158.345 99.4206 158.325 99.5406 158.285 99.6073C158.258 99.6739 158.165 99.7139 158.005 99.7273H151.205C151.045 99.7273 150.965 99.8339 150.965 100.047ZM154.985 98.0473C155.131 98.0473 155.225 98.0339 155.265 98.0073C155.305 97.9673 155.325 97.8873 155.325 97.7673C155.325 97.4206 155.245 97.0739 155.085 96.7273C154.925 96.3806 154.691 96.0939 154.385 95.8673C154.078 95.6406 153.705 95.5273 153.265 95.5273C152.598 95.5273 152.051 95.7606 151.625 96.2273C151.198 96.6939 150.991 97.2939 151.005 98.0273L154.985 98.0473ZM168.984 104.647C167.931 104.647 166.998 104.421 166.184 103.967C165.384 103.501 164.758 102.854 164.304 102.027C163.851 101.201 163.624 100.261 163.624 99.2073C163.624 98.1139 163.851 97.1473 164.304 96.3073C164.771 95.4673 165.411 94.8139 166.224 94.3473C167.051 93.8806 167.978 93.6473 169.004 93.6473C170.058 93.6473 170.991 93.8873 171.804 94.3673C172.618 94.8339 173.244 95.4873 173.684 96.3273C174.138 97.1673 174.364 98.1206 174.364 99.1873C174.364 100.241 174.138 101.181 173.684 102.007C173.231 102.834 172.598 103.481 171.784 103.947C170.971 104.414 170.038 104.647 168.984 104.647ZM169.004 102.607C169.738 102.607 170.291 102.321 170.664 101.747C171.051 101.161 171.244 100.294 171.244 99.1473C171.244 97.9873 171.051 97.1139 170.664 96.5273C170.291 95.9273 169.738 95.6273 169.004 95.6273C168.271 95.6273 167.711 95.9273 167.324 96.5273C166.938 97.1139 166.744 97.9873 166.744 99.1473C166.744 100.281 166.938 101.141 167.324 101.727C167.711 102.314 168.271 102.607 169.004 102.607ZM181.905 93.8473C182.025 93.8473 182.118 93.8806 182.185 93.9473C182.252 94.0139 182.285 94.0939 182.285 94.1873V95.6673C182.285 95.8673 182.172 95.9673 181.945 95.9673H180.285C180.152 95.9673 180.085 96.0406 180.085 96.1873V104.067C180.085 104.321 179.978 104.447 179.765 104.447H177.305C177.105 104.447 177.005 104.334 177.005 104.107V96.1473C177.005 96.0273 176.952 95.9673 176.845 95.9673H175.405C175.165 95.9673 175.045 95.8673 175.045 95.6673V94.1873C175.045 94.0939 175.078 94.0139 175.145 93.9473C175.212 93.8806 175.305 93.8473 175.425 93.8473H176.765C176.858 93.8473 176.918 93.8273 176.945 93.7873C176.985 93.7339 177.005 93.6539 177.005 93.5473V92.3273C177.005 91.4739 177.258 90.8073 177.765 90.3273C178.272 89.8473 178.985 89.6073 179.905 89.6073H181.925C182.218 89.6073 182.365 89.7473 182.365 90.0273L182.385 91.3273C182.385 91.5539 182.285 91.6673 182.085 91.6673H181.005C180.712 91.6673 180.472 91.7806 180.285 92.0073C180.098 92.2206 180.005 92.5006 180.005 92.8473V93.6273C180.005 93.7739 180.085 93.8473 180.245 93.8473H181.905ZM188.213 89.9873C188.213 89.7339 188.32 89.6073 188.533 89.6073H198.613C198.813 89.6073 198.913 89.7206 198.913 89.9473L198.893 91.7473C198.893 92.0273 198.753 92.1673 198.473 92.1673H192.093C191.84 92.1673 191.713 92.2739 191.713 92.4873V95.3873C191.713 95.6139 191.813 95.7273 192.013 95.7273H196.253C196.48 95.7273 196.593 95.8339 196.593 96.0473V97.9673C196.593 98.1539 196.486 98.2473 196.273 98.2473H191.993C191.806 98.2473 191.713 98.3273 191.713 98.4873V101.627C191.713 101.721 191.726 101.787 191.753 101.827C191.793 101.867 191.853 101.887 191.933 101.887H198.773C199.013 101.887 199.133 101.987 199.133 102.187V104.087C199.133 104.327 199 104.447 198.733 104.447H188.653C188.493 104.447 188.38 104.414 188.313 104.347C188.246 104.281 188.213 104.174 188.213 104.027V89.9873ZM210.943 103.767C211.103 103.981 211.183 104.141 211.183 104.247C211.183 104.381 211.057 104.447 210.803 104.447H208.243C207.923 104.447 207.697 104.341 207.563 104.127L205.503 101.227C205.397 101.054 205.317 100.967 205.263 100.967C205.21 100.967 205.13 101.047 205.023 101.207L202.923 104.127C202.79 104.341 202.57 104.447 202.263 104.447H200.623C200.303 104.447 200.143 104.354 200.143 104.167C200.143 104.021 200.223 103.847 200.383 103.647L203.663 99.4273C203.743 99.3073 203.783 99.2139 203.783 99.1473C203.783 99.0539 203.737 98.9406 203.643 98.8073L200.403 94.4073C200.35 94.3406 200.323 94.2606 200.323 94.1673C200.323 94.0873 200.357 94.0139 200.423 93.9473C200.49 93.8806 200.583 93.8473 200.703 93.8473H203.143C203.317 93.8473 203.443 93.8739 203.523 93.9273C203.617 93.9673 203.703 94.0473 203.783 94.1673L205.643 96.7873C205.71 96.8939 205.77 96.9473 205.823 96.9473C205.863 96.9473 205.917 96.8939 205.983 96.7873L207.743 94.1673C207.823 94.0473 207.903 93.9673 207.983 93.9273C208.077 93.8739 208.217 93.8473 208.403 93.8473H210.203C210.43 93.8473 210.543 93.9139 210.543 94.0473C210.543 94.1139 210.503 94.2006 210.423 94.3073L207.443 98.3473C207.363 98.4406 207.323 98.5339 207.323 98.6273C207.323 98.6939 207.37 98.8006 207.463 98.9473L210.943 103.767ZM215.3 93.8473C215.46 93.8473 215.573 93.8806 215.64 93.9473C215.706 94.0006 215.74 94.1006 215.74 94.2473V94.8473C215.74 94.9406 215.766 94.9873 215.82 94.9873C215.86 94.9873 215.926 94.9539 216.02 94.8873C216.433 94.5006 216.853 94.2006 217.28 93.9873C217.72 93.7606 218.273 93.6473 218.94 93.6473C220.153 93.6473 221.14 94.1073 221.9 95.0273C222.66 95.9473 223.04 97.2939 223.04 99.0673C223.04 100.907 222.646 102.301 221.86 103.247C221.086 104.181 220.06 104.647 218.78 104.647C217.726 104.647 216.833 104.307 216.1 103.627C215.966 103.521 215.873 103.467 215.82 103.467C215.753 103.467 215.72 103.561 215.72 103.747V107.407C215.72 107.634 215.62 107.747 215.42 107.747H212.96C212.866 107.747 212.786 107.714 212.72 107.647C212.666 107.594 212.64 107.507 212.64 107.387V94.2873C212.64 94.1273 212.673 94.0139 212.74 93.9473C212.82 93.8806 212.94 93.8473 213.1 93.8473H215.3ZM215.72 101.707C216.013 102.027 216.313 102.274 216.62 102.447C216.926 102.621 217.266 102.707 217.64 102.707C219.16 102.707 219.92 101.474 219.92 99.0073C219.92 97.7806 219.726 96.9073 219.34 96.3873C218.953 95.8539 218.406 95.5873 217.7 95.5873C217.153 95.5873 216.686 95.7539 216.3 96.0873C215.913 96.4073 215.72 96.7739 215.72 97.1873V101.707ZM227.527 100.047C227.527 100.794 227.774 101.401 228.267 101.867C228.774 102.321 229.4 102.547 230.147 102.547C230.627 102.547 231.067 102.447 231.467 102.247C231.88 102.034 232.294 101.687 232.707 101.207C232.76 101.154 232.814 101.127 232.867 101.127C232.907 101.127 232.974 101.147 233.067 101.187L234.507 101.787C234.6 101.827 234.647 101.894 234.647 101.987C234.647 102.054 234.62 102.121 234.567 102.187C233.927 103.094 233.24 103.734 232.507 104.107C231.774 104.467 230.86 104.647 229.767 104.647C228.74 104.647 227.814 104.421 226.987 103.967C226.16 103.514 225.514 102.887 225.047 102.087C224.58 101.274 224.347 100.347 224.347 99.3073C224.347 98.1873 224.587 97.2006 225.067 96.3473C225.547 95.4806 226.194 94.8139 227.007 94.3473C227.834 93.8806 228.734 93.6473 229.707 93.6473C230.72 93.6473 231.62 93.8739 232.407 94.3273C233.194 94.7673 233.807 95.4073 234.247 96.2473C234.687 97.0873 234.907 98.0873 234.907 99.2473C234.907 99.4206 234.887 99.5406 234.847 99.6073C234.82 99.6739 234.727 99.7139 234.567 99.7273H227.767C227.607 99.7273 227.527 99.8339 227.527 100.047ZM231.547 98.0473C231.694 98.0473 231.787 98.0339 231.827 98.0073C231.867 97.9673 231.887 97.8873 231.887 97.7673C231.887 97.4206 231.807 97.0739 231.647 96.7273C231.487 96.3806 231.254 96.0939 230.947 95.8673C230.64 95.6406 230.267 95.5273 229.827 95.5273C229.16 95.5273 228.614 95.7606 228.187 96.2273C227.76 96.6939 227.554 97.2939 227.567 98.0273L231.547 98.0473ZM236.966 104.447C236.819 104.447 236.713 104.421 236.646 104.367C236.579 104.301 236.546 104.194 236.546 104.047V94.2273C236.546 93.9739 236.653 93.8473 236.866 93.8473H239.286C239.486 93.8473 239.586 93.9606 239.586 94.1873V95.1673C239.586 95.2739 239.619 95.3273 239.686 95.3273C239.726 95.3273 239.773 95.3006 239.826 95.2473C240.373 94.7273 240.919 94.3339 241.466 94.0673C242.013 93.7873 242.593 93.6473 243.206 93.6473C244.179 93.6473 244.946 93.9339 245.506 94.5073C246.079 95.0806 246.366 95.8473 246.366 96.8073V103.967C246.366 104.287 246.206 104.447 245.886 104.447H243.666C243.519 104.447 243.419 104.421 243.366 104.367C243.313 104.301 243.286 104.194 243.286 104.047V97.2873C243.286 96.8339 243.159 96.4873 242.906 96.2473C242.666 95.9939 242.306 95.8673 241.826 95.8673C241.426 95.8673 241.053 95.9673 240.706 96.1673C240.373 96.3673 240.013 96.6806 239.626 97.1073V103.987C239.626 104.147 239.586 104.267 239.506 104.347C239.426 104.414 239.293 104.447 239.106 104.447H236.966ZM255 96.6073C254.453 95.8873 253.673 95.5273 252.66 95.5273C252.153 95.5273 251.733 95.6273 251.4 95.8273C251.067 96.0139 250.9 96.2739 250.9 96.6073C250.9 96.7939 250.973 96.9673 251.12 97.1273C251.28 97.2739 251.58 97.4006 252.02 97.5073L254.32 98.0673C255.373 98.3206 256.147 98.7273 256.64 99.2873C257.133 99.8339 257.38 100.481 257.38 101.227C257.38 102.281 256.94 103.114 256.06 103.727C255.18 104.341 254.027 104.647 252.6 104.647C251.453 104.647 250.46 104.447 249.62 104.047C248.78 103.634 248.187 103.101 247.84 102.447C247.773 102.354 247.74 102.267 247.74 102.187C247.74 102.094 247.787 102.027 247.88 101.987L249.24 101.287C249.347 101.234 249.44 101.207 249.52 101.207C249.6 101.207 249.673 101.241 249.74 101.307C250.033 101.721 250.387 102.054 250.8 102.307C251.227 102.547 251.787 102.667 252.48 102.667C253.107 102.667 253.613 102.574 254 102.387C254.4 102.201 254.6 101.927 254.6 101.567C254.6 101.327 254.5 101.127 254.3 100.967C254.1 100.807 253.76 100.667 253.28 100.547L251.22 100.107C249.193 99.6673 248.18 98.6606 248.18 97.0873C248.18 96.4206 248.36 95.8273 248.72 95.3073C249.093 94.7873 249.62 94.3806 250.3 94.0873C250.98 93.7939 251.78 93.6473 252.7 93.6473C253.673 93.6473 254.533 93.8273 255.28 94.1873C256.04 94.5473 256.587 95.0006 256.92 95.5473C257 95.6539 257.04 95.7473 257.04 95.8273C257.04 95.9073 256.993 95.9739 256.9 96.0273L255.46 96.7273C255.42 96.7539 255.367 96.7673 255.3 96.7673C255.18 96.7673 255.08 96.7139 255 96.6073ZM261.765 100.047C261.765 100.794 262.012 101.401 262.505 101.867C263.012 102.321 263.639 102.547 264.385 102.547C264.865 102.547 265.305 102.447 265.705 102.247C266.119 102.034 266.532 101.687 266.945 101.207C266.999 101.154 267.052 101.127 267.105 101.127C267.145 101.127 267.212 101.147 267.305 101.187L268.745 101.787C268.839 101.827 268.885 101.894 268.885 101.987C268.885 102.054 268.859 102.121 268.805 102.187C268.165 103.094 267.479 103.734 266.745 104.107C266.012 104.467 265.099 104.647 264.005 104.647C262.979 104.647 262.052 104.421 261.225 103.967C260.399 103.514 259.752 102.887 259.285 102.087C258.819 101.274 258.585 100.347 258.585 99.3073C258.585 98.1873 258.825 97.2006 259.305 96.3473C259.785 95.4806 260.432 94.8139 261.245 94.3473C262.072 93.8806 262.972 93.6473 263.945 93.6473C264.959 93.6473 265.859 93.8739 266.645 94.3273C267.432 94.7673 268.045 95.4073 268.485 96.2473C268.925 97.0873 269.145 98.0873 269.145 99.2473C269.145 99.4206 269.125 99.5406 269.085 99.6073C269.059 99.6739 268.965 99.7139 268.805 99.7273H262.005C261.845 99.7273 261.765 99.8339 261.765 100.047ZM265.785 98.0473C265.932 98.0473 266.025 98.0339 266.065 98.0073C266.105 97.9673 266.125 97.8873 266.125 97.7673C266.125 97.4206 266.045 97.0739 265.885 96.7273C265.725 96.3806 265.492 96.0939 265.185 95.8673C264.879 95.6406 264.505 95.5273 264.065 95.5273C263.399 95.5273 262.852 95.7606 262.425 96.2273C261.999 96.6939 261.792 97.2939 261.805 98.0273L265.785 98.0473ZM277.324 96.6073C276.777 95.8873 275.997 95.5273 274.984 95.5273C274.477 95.5273 274.057 95.6273 273.724 95.8273C273.391 96.0139 273.224 96.2739 273.224 96.6073C273.224 96.7939 273.297 96.9673 273.444 97.1273C273.604 97.2739 273.904 97.4006 274.344 97.5073L276.644 98.0673C277.697 98.3206 278.471 98.7273 278.964 99.2873C279.457 99.8339 279.704 100.481 279.704 101.227C279.704 102.281 279.264 103.114 278.384 103.727C277.504 104.341 276.351 104.647 274.924 104.647C273.777 104.647 272.784 104.447 271.944 104.047C271.104 103.634 270.511 103.101 270.164 102.447C270.097 102.354 270.064 102.267 270.064 102.187C270.064 102.094 270.111 102.027 270.204 101.987L271.564 101.287C271.671 101.234 271.764 101.207 271.844 101.207C271.924 101.207 271.997 101.241 272.064 101.307C272.357 101.721 272.711 102.054 273.124 102.307C273.551 102.547 274.111 102.667 274.804 102.667C275.431 102.667 275.937 102.574 276.324 102.387C276.724 102.201 276.924 101.927 276.924 101.567C276.924 101.327 276.824 101.127 276.624 100.967C276.424 100.807 276.084 100.667 275.604 100.547L273.544 100.107C271.517 99.6673 270.504 98.6606 270.504 97.0873C270.504 96.4206 270.684 95.8273 271.044 95.3073C271.417 94.7873 271.944 94.3806 272.624 94.0873C273.304 93.7939 274.104 93.6473 275.024 93.6473C275.997 93.6473 276.857 93.8273 277.604 94.1873C278.364 94.5473 278.911 95.0006 279.244 95.5473C279.324 95.6539 279.364 95.7473 279.364 95.8273C279.364 95.9073 279.317 95.9739 279.224 96.0273L277.784 96.7273C277.744 96.7539 277.691 96.7673 277.624 96.7673C277.504 96.7673 277.404 96.7139 277.324 96.6073ZM284.45 96.8673C284.45 97.0406 284.403 97.1673 284.31 97.2473C284.23 97.3139 284.09 97.3473 283.89 97.3473H281.53C281.236 97.3473 281.09 97.2073 281.09 96.9273V94.4473C281.09 94.3273 281.116 94.2406 281.17 94.1873C281.236 94.1206 281.316 94.0873 281.41 94.0873H284.15C284.35 94.0873 284.45 94.2006 284.45 94.4273V96.8673ZM284.45 103.907C284.45 104.081 284.403 104.207 284.31 104.287C284.23 104.354 284.09 104.387 283.89 104.387H281.53C281.236 104.387 281.09 104.247 281.09 103.967V101.487C281.09 101.247 281.196 101.127 281.41 101.127H284.15C284.35 101.127 284.45 101.234 284.45 101.447V103.907Z" fill="#3A082C"/>
</svg>
