<svg width="365" height="272" viewBox="0 0 365 272" fill="none" xmlns="http://www.w3.org/2000/svg">
<path d="M342.807 143.092C342.097 141.671 340.677 140.25 339.257 140.25H335.706C333.575 118.226 315.822 101.175 293.097 101.175C288.125 101.175 283.154 101.886 278.893 103.307C273.212 91.2289 260.429 83.4138 246.936 83.4138C229.893 83.4138 214.979 95.4916 212.139 112.543C199.356 115.384 190.124 126.752 190.124 140.25H189.414C187.994 140.25 186.573 140.961 186.573 143.092L165.269 235.452C165.269 236.162 165.269 237.583 165.979 238.294C166.689 239.004 167.399 239.714 168.819 239.714H360.561C361.982 239.714 362.692 239.004 363.402 238.294C364.112 237.583 364.112 236.162 364.112 235.452L342.807 143.092Z" fill="#EE8363"/>
<path d="M329.18 132.238H173.817L152.565 227.548H350.432L329.18 132.238Z" stroke="#231F20" stroke-width="8" stroke-miterlimit="10" stroke-linecap="round" stroke-linejoin="round"/>
<path d="M178.215 132.238V128.572C178.215 114.642 189.941 102.912 203.865 102.912C217.789 102.912 229.514 114.642 229.514 128.572V132.238" stroke="#231F20" stroke-width="8" stroke-miterlimit="10" stroke-linecap="round" stroke-linejoin="round"/>
<path d="M200.201 102.912C201.666 86.0492 216.323 73.5856 233.179 73.5856C251.5 73.5856 266.156 88.9818 266.156 107.311" stroke="#231F20" stroke-width="8" stroke-miterlimit="10" stroke-linecap="round" stroke-linejoin="round"/>
<path d="M272.018 132.238C274.95 129.305 277.148 125.64 277.148 121.241C277.148 113.176 270.553 106.578 262.491 106.578C254.43 106.578 247.834 113.176 247.834 121.241C247.834 125.64 250.033 129.305 252.964 132.238" stroke="#231F20" stroke-width="8" stroke-miterlimit="10" stroke-linecap="round" stroke-linejoin="round"/>
<path d="M321.12 132.238C321.12 110.243 302.799 91.9144 280.814 91.9144C274.951 91.9144 269.088 93.3807 263.958 95.5802" stroke="#231F20" stroke-width="8" stroke-miterlimit="10" stroke-linecap="round" stroke-linejoin="round"/>
<path d="M179.936 226.659C179.842 218.763 175.834 212.238 169.742 208.475C176.15 204.943 180.506 198.403 180.412 190.507C180.981 179.058 171.702 169.973 160.308 169.422C149.923 169.059 141.148 176.876 139.759 187.121L57.3144 186.441C56.5572 182.097 54.79 177.566 51.7285 174.368C47.7518 170.474 42.3862 168.422 37.1466 168.495C31.4967 167.966 26.3833 170.163 22.5006 174.165C18.618 178.168 16.1557 182.961 16.1236 188.732C16.0916 194.504 18.2691 199.638 21.7408 203.437C23.0664 204.735 24.392 206.033 26.3173 206.917C19.9096 210.449 15.5533 216.989 15.6474 224.885C15.8676 234.906 22.6215 243.52 32.7217 245.405C33.7317 245.593 35.2468 245.876 36.3515 245.557C42.0961 245.579 47.2096 243.382 50.9975 239.887C54.1857 236.805 56.5533 232.52 56.9008 227.857L139.25 229.046C140.007 233.389 141.775 237.921 144.836 241.118C148.813 245.012 153.579 247.477 159.323 247.499C165.068 247.52 170.181 245.323 173.969 241.828C177.947 237.318 179.904 232.431 179.936 226.659Z" fill="#C9D4EA"/>
<path d="M134.172 183.453L46.5827 182.337C46.8676 172.411 39.0089 164.116 29.0347 164.355C19.1553 164.087 10.885 171.998 11.1052 182.018C10.8204 191.945 18.6791 200.24 28.6532 200C18.7738 199.732 10.5035 207.643 10.7237 217.664C10.4388 227.59 18.2975 235.885 28.2717 235.645C38.1511 235.914 46.4213 228.003 46.2012 217.982L133.285 219.003C133 228.93 140.859 237.225 150.833 236.985C160.713 237.253 168.983 229.343 168.763 219.322C169.047 209.396 161.189 201.101 151.215 201.34C161.094 201.608 169.364 193.698 169.144 183.677C169.429 173.751 161.57 165.456 151.596 165.695C142.222 165.521 134.457 173.526 134.172 183.453Z" stroke="#231F20" stroke-width="8" stroke-miterlimit="10" stroke-linecap="round" stroke-linejoin="round"/>
<path d="M119.298 154.232C111.281 154.232 104.777 147.708 104.777 139.665C104.777 131.622 111.281 125.097 119.298 125.097C127.315 125.097 133.819 131.622 133.819 139.665C133.819 147.708 127.315 154.232 119.298 154.232ZM119.298 133.427C115.903 133.427 113.121 136.218 113.121 139.624C113.121 143.03 115.903 145.82 119.298 145.82C122.734 145.82 125.475 143.03 125.475 139.624C125.515 136.218 122.734 133.427 119.298 133.427Z" fill="#231F20"/>
<path d="M40.309 119.27C38.0183 119.27 36.1367 117.382 36.1367 115.084C36.1367 112.786 38.0183 110.899 40.309 110.899H66.1606C68.4513 110.899 70.3329 112.786 70.3329 115.084C70.3329 117.382 68.4513 119.27 66.1606 119.27H40.309Z" fill="#231F20"/>
<path d="M278.888 68.3358C277.796 68.3358 276.665 67.8675 275.886 66.97C274.443 65.3311 274.599 62.8337 276.236 61.3899C277.328 60.3753 282.436 54.9902 275.808 46.9906C266.294 35.5181 271.947 25.3333 276.236 21.5481C277.874 20.1043 280.409 20.2604 281.851 21.9383C283.294 23.5773 283.138 26.1137 281.461 27.5575C280.409 28.5331 275.262 33.9182 281.89 41.9568C291.404 53.4293 285.75 63.6141 281.461 67.3993C280.759 68.0236 279.824 68.3358 278.888 68.3358Z" fill="#231F20"/>
<path d="M235.7 55.1494C234.572 55.1494 233.403 54.7867 232.597 54.0916C231.107 52.8223 231.268 50.8881 232.96 49.7699C234.088 48.9841 239.366 44.8135 232.517 38.618C222.686 29.7327 228.528 21.8448 232.96 18.9132C234.652 17.795 237.271 17.9159 238.762 19.2155C240.253 20.4848 240.092 22.4492 238.359 23.5674C237.271 24.323 231.953 28.4936 238.802 34.7193C248.633 43.6046 242.791 51.4925 238.359 54.4241C237.634 54.9076 236.667 55.1494 235.7 55.1494Z" fill="#231F20"/>
<path d="M255.488 31.0862C254.36 31.0862 253.192 30.7901 252.386 30.2225C250.895 29.1861 251.056 27.6068 252.749 26.6937C253.877 26.0521 259.155 22.6467 252.305 17.5879C242.474 10.3329 248.317 3.89223 252.749 1.49856C254.441 0.585517 257.06 0.684225 258.551 1.74533C260.041 2.78177 259.88 4.38577 258.148 5.29881C257.06 5.91574 251.741 9.32116 258.591 14.4046C268.422 21.6596 262.58 28.1003 258.148 30.494C257.422 30.8888 256.455 31.0862 255.488 31.0862Z" fill="#231F20"/>
<path d="M159.992 78.9467C157.701 78.9467 155.819 77.0591 155.819 74.7611C155.819 72.4631 157.701 70.5754 159.992 70.5754H185.843C188.134 70.5754 190.016 72.4631 190.016 74.7611C190.016 77.0591 188.134 78.9467 185.843 78.9467H159.992Z" fill="#231F20"/>
<path d="M53.2758 132.238C50.9851 132.238 49.1035 130.35 49.1035 128.052V102.118C49.1035 99.8197 50.9851 97.932 53.2758 97.932C55.5664 97.932 57.448 99.8197 57.448 102.118V128.052C57.448 130.35 55.5664 132.238 53.2758 132.238Z" fill="#231F20"/>
<path d="M172.958 91.9144C170.668 91.9144 168.786 90.0267 168.786 87.7287V61.7942C168.786 59.4962 170.668 57.6085 172.958 57.6085C175.249 57.6085 177.131 59.4962 177.131 61.7942V87.7287C177.131 90.0267 175.249 91.9144 172.958 91.9144Z" fill="#231F20"/>
<path d="M275.259 191.45C274.079 190.505 273.085 189.341 272.293 187.941C271.535 186.625 271.029 185.241 270.793 183.841V183.858C269.765 178.122 264.776 173.752 258.76 173.752C252.743 173.752 247.737 178.105 246.726 183.841L246.709 183.824C246.473 185.225 245.968 186.625 245.209 187.924C244.4 189.324 243.423 190.488 242.226 191.433H242.243C239.53 193.677 237.794 197.068 237.794 200.864C237.794 207.63 243.271 213.113 250.03 213.113C251.597 213.113 253.097 212.809 254.462 212.269L254.445 212.286C255.777 211.78 257.226 211.561 258.743 211.561C260.361 211.561 261.861 211.814 263.276 212.37L263.259 212.353C264.574 212.843 265.99 213.113 267.473 213.113C274.231 213.113 279.708 207.63 279.708 200.864C279.708 197.085 277.973 193.694 275.259 191.45Z" fill="white"/>
<path d="M240.457 175.355C240.457 179.218 237.322 182.356 233.463 182.356C229.603 182.356 226.469 179.218 226.469 175.355C226.469 171.491 229.603 168.353 233.463 168.353C237.322 168.353 240.457 171.491 240.457 175.355Z" fill="white"/>
<path d="M254.849 160.271C254.849 164.135 251.714 167.273 247.855 167.273C243.978 167.273 240.86 164.135 240.86 160.271C240.86 156.408 243.995 153.253 247.855 153.253C251.714 153.253 254.849 156.391 254.849 160.271Z" fill="white"/>
<path d="M277.046 175.355C277.046 179.218 280.181 182.356 284.04 182.356C287.9 182.356 291.034 179.218 291.034 175.355C291.034 171.491 287.9 168.353 284.04 168.353C280.164 168.353 277.046 171.491 277.046 175.355Z" fill="white"/>
<path d="M262.652 160.271C262.652 164.135 265.787 167.273 269.646 167.273C273.505 167.273 276.64 164.135 276.64 160.271C276.64 156.408 273.505 153.253 269.646 153.253C265.787 153.253 262.652 156.391 262.652 160.271Z" fill="white"/>
<path d="M250.075 209.345L250.073 209.346C249.985 209.381 249.874 209.419 249.757 209.441C248.252 209.969 246.697 210.224 245.143 210.224C237.302 210.224 230.938 203.836 230.938 196.005C230.938 191.835 232.754 187.905 235.939 185.192C235.988 185.144 236.047 185.085 236.126 185.026C237.091 184.272 237.929 183.286 238.623 182.08L238.623 182.079C239.266 180.973 239.693 179.804 239.873 178.64L239.875 178.629L239.875 178.629C239.884 178.584 239.893 178.544 239.901 178.507L239.902 178.506C239.91 178.468 239.918 178.433 239.926 178.394C241.229 171.731 247.045 166.905 253.856 166.905C260.656 166.905 266.482 171.7 267.781 178.365C267.82 178.458 267.839 178.56 267.841 178.655C268.039 179.816 268.466 180.979 269.105 182.079C269.8 183.271 270.64 184.274 271.605 185.027L271.617 185.037L271.628 185.048C271.645 185.065 271.667 185.084 271.698 185.11L271.701 185.113C271.726 185.135 271.758 185.162 271.788 185.192C274.974 187.904 276.807 191.834 276.807 196.005C276.807 197.088 275.921 197.976 274.838 197.976C273.756 197.976 272.869 197.088 272.869 196.005C272.869 192.942 271.504 190.06 269.134 188.099L269.125 188.092L269.117 188.083C269.114 188.081 269.111 188.078 269.093 188.065L269.091 188.063C269.076 188.052 269.053 188.034 269.027 188.01C267.723 186.96 266.611 185.622 265.707 184.068L265.706 184.067C264.869 182.612 264.302 181.103 264.01 179.541C263.993 179.474 263.979 179.42 263.967 179.381L263.961 179.364L263.958 179.346C263.086 174.438 258.841 170.881 253.856 170.881C248.87 170.881 244.626 174.438 243.754 179.346L243.752 179.355L243.75 179.363L243.749 179.369C243.735 179.426 243.718 179.493 243.7 179.55C243.407 181.109 242.842 182.614 242.023 184.049L242.022 184.05C241.117 185.622 240.006 186.943 238.703 187.992L238.662 188.033L238.612 188.083L238.603 188.092L238.594 188.099C236.224 190.06 234.859 192.942 234.859 196.005C234.859 201.671 239.467 206.283 245.126 206.283C246.309 206.283 247.51 206.069 248.662 205.64L248.675 205.635L248.689 205.632C248.718 205.625 248.743 205.617 248.773 205.609L248.775 205.609C248.8 205.601 248.828 205.593 248.86 205.585C250.388 205.02 252.014 204.748 253.854 204.73L253.856 204.73C255.56 204.73 257.15 204.985 258.575 205.482C258.675 205.504 258.771 205.542 258.845 205.572L258.853 205.575L250.075 209.345ZM250.075 209.345C251.184 208.888 252.432 208.672 253.873 208.672C255.209 208.672 256.422 208.87 257.465 209.259C257.549 209.3 257.631 209.321 257.691 209.336M250.075 209.345L257.691 209.336M257.691 209.336C259.283 209.934 260.926 210.224 262.603 210.224C267.509 210.224 272.021 207.734 274.612 203.561C275.19 202.636 274.922 201.418 273.994 200.838C273.069 200.259 271.852 200.528 271.273 201.457C269.38 204.488 266.123 206.283 262.569 206.283C261.302 206.283 260.053 206.052 258.853 205.575L257.691 209.336Z" fill="#231F20" stroke="#231F20" stroke-width="0.5"/>
<path d="M219.612 170.496C219.612 175.442 223.634 179.468 228.576 179.468C229.676 179.468 230.545 178.578 230.545 177.497C230.545 176.415 229.658 175.526 228.576 175.526C225.815 175.526 223.55 173.26 223.55 170.496C223.55 167.731 225.799 165.465 228.576 165.465C231.337 165.465 233.601 167.715 233.601 170.496C233.601 171.846 233.071 173.115 232.124 174.063C231.35 174.821 231.353 176.076 232.123 176.847C232.895 177.62 234.132 177.62 234.904 176.847C236.602 175.147 237.539 172.89 237.539 170.496C237.539 165.549 233.517 161.523 228.576 161.523C223.634 161.523 219.612 165.549 219.612 170.496Z" fill="#231F20" stroke="#231F20" stroke-width="0.5"/>
<path d="M234.004 155.396C234.004 160.342 238.026 164.368 242.968 164.368C244.05 164.368 244.937 163.48 244.937 162.397C244.937 161.315 244.05 160.426 242.968 160.426C240.19 160.426 237.943 158.177 237.943 155.396C237.943 152.631 240.191 150.365 242.968 150.365C245.745 150.365 247.993 152.615 247.993 155.396C247.993 156.746 247.463 158.016 246.515 158.965C245.744 159.737 245.744 160.975 246.515 161.747C247.287 162.52 248.524 162.52 249.296 161.747C250.994 160.047 251.931 157.791 251.931 155.396C251.931 150.45 247.909 146.423 242.968 146.423C238.026 146.423 234.004 150.45 234.004 155.396Z" fill="#231F20" stroke="#231F20" stroke-width="0.5"/>
<path d="M255.814 155.396C255.814 160.342 259.836 164.368 264.778 164.368C265.86 164.368 266.747 163.48 266.747 162.397C266.747 161.315 265.86 160.426 264.778 160.426C262 160.426 259.753 158.177 259.753 155.396C259.753 152.631 262.001 150.365 264.778 150.365C267.555 150.365 269.803 152.615 269.803 155.396C269.803 156.746 269.273 158.016 268.325 158.965C267.554 159.737 267.554 160.975 268.325 161.747C269.097 162.52 270.334 162.52 271.106 161.747C272.804 160.047 273.741 157.791 273.741 155.396C273.741 150.45 269.719 146.423 264.778 146.423C259.836 146.423 255.814 150.45 255.814 155.396Z" fill="#231F20" stroke="#231F20" stroke-width="0.5"/>
<path d="M270.208 170.496C270.208 175.442 274.229 179.468 279.171 179.468C280.253 179.468 281.14 178.58 281.14 177.497C281.14 176.415 280.253 175.526 279.171 175.526C276.393 175.526 274.146 173.277 274.146 170.496C274.146 167.731 276.394 165.465 279.171 165.465C281.948 165.465 284.196 167.715 284.196 170.496C284.196 171.846 283.667 173.115 282.72 174.063C281.945 174.821 281.949 176.076 282.719 176.847C283.49 177.62 284.727 177.62 285.499 176.847C287.197 175.147 288.134 172.89 288.134 170.496C288.134 165.549 284.112 161.523 279.171 161.523C274.229 161.523 270.208 165.549 270.208 170.496Z" fill="#231F20" stroke="#231F20" stroke-width="0.5"/>
</svg>
