<svg width="297" height="238" viewBox="0 0 297 238" fill="none" xmlns="http://www.w3.org/2000/svg">
<path d="M205.665 29.8967H187.747C185.956 29.8967 184.761 31.0882 184.761 32.8753V50.7471C184.761 52.5343 185.956 53.7257 187.747 53.7257H205.665C212.234 53.7257 217.61 48.3642 217.61 41.8112C217.61 35.2582 212.234 29.8967 205.665 29.8967Z" fill="#EE8363"/>
<path d="M286.89 29.8967H268.973C262.404 29.8967 257.028 35.2582 257.028 41.8112C257.028 48.3642 262.404 53.7257 268.973 53.7257H286.89C288.682 53.7257 289.877 52.5343 289.877 50.7471V32.8753C289.877 31.0882 288.682 29.8967 286.89 29.8967Z" fill="#EE8363"/>
<path d="M175.205 44.7902H193.122C198.498 44.7902 202.678 40.6201 202.678 35.8543C202.678 31.0885 198.498 26.9185 193.72 26.9185H175.802V44.7902H175.205Z" stroke="#231F20" stroke-width="8" stroke-miterlimit="10" stroke-linecap="round" stroke-linejoin="round"/>
<path d="M274.945 44.7902H257.028C252.25 44.7902 248.069 40.6201 248.069 35.8543C248.069 31.0885 252.25 26.9185 257.028 26.9185H274.945V44.7902Z" stroke="#231F20" stroke-width="8" stroke-miterlimit="10" stroke-linecap="round" stroke-linejoin="round"/>
<path d="M274.945 35.8542C285.098 35.8542 292.862 44.1944 292.862 53.726V76.3635C292.862 113.894 262.402 144.276 224.776 144.276C187.15 144.276 156.69 113.894 156.69 76.3635V53.726C156.69 43.5987 165.052 35.8542 174.608 35.8542" stroke="#231F20" stroke-width="8" stroke-miterlimit="10" stroke-linecap="round" stroke-linejoin="round"/>
<path d="M100.172 181.3C98.0413 179.594 96.2455 177.492 94.8149 174.963C93.4452 172.586 92.5321 170.087 92.1059 167.558V167.589C90.2492 157.229 81.2397 149.337 70.3734 149.337C59.5071 149.337 50.4671 157.199 48.6408 167.558L48.6104 167.528C48.1842 170.057 47.2711 172.586 45.9014 174.932C44.4404 177.461 42.675 179.564 40.5139 181.27H40.5444C35.6439 185.322 32.5088 191.447 32.5088 198.303C32.5088 210.521 42.4011 220.424 54.6066 220.424C57.4373 220.424 60.1463 219.875 62.6118 218.9L62.5813 218.931C64.9859 218.017 67.6035 217.62 70.3429 217.62C73.265 217.62 75.9739 218.078 78.5307 219.083L78.5003 219.053C80.8744 219.936 83.4312 220.424 86.1097 220.424C98.3152 220.424 108.208 210.521 108.208 198.303C108.208 191.477 105.072 185.353 100.172 181.3Z" fill="#C9D4EA"/>
<path d="M37.319 152.231C37.319 159.209 31.6576 164.876 24.6873 164.876C17.7171 164.876 12.0557 159.209 12.0557 152.231C12.0557 145.254 17.7171 139.586 24.6873 139.586C31.6576 139.586 37.319 145.254 37.319 152.231Z" fill="#C9D4EA"/>
<path d="M63.3107 124.991C63.3107 131.969 57.6493 137.636 50.679 137.636C43.6783 137.636 38.0474 131.969 38.0474 124.991C38.0474 118.013 43.7088 112.315 50.679 112.315C57.6493 112.315 63.3107 117.983 63.3107 124.991Z" fill="#C9D4EA"/>
<path d="M103.399 152.232C103.399 159.21 109.061 164.877 116.031 164.877C123.001 164.877 128.663 159.21 128.663 152.232C128.663 145.254 123.001 139.587 116.031 139.587C109.03 139.587 103.399 145.254 103.399 152.232Z" fill="#C9D4EA"/>
<path d="M77.4028 124.991C77.4028 131.969 83.0643 137.636 90.0345 137.636C97.0048 137.636 102.666 131.969 102.666 124.991C102.666 118.013 97.0048 112.315 90.0345 112.315C83.0643 112.315 77.4028 117.983 77.4028 124.991Z" fill="#C9D4EA"/>
<path d="M77.3151 214.756C74.3322 214.756 71.4102 214.238 68.5795 213.172C68.4577 213.141 68.336 213.111 68.2142 213.05C66.2662 212.318 64.0138 211.953 61.5483 211.953C58.9003 211.953 56.587 212.349 54.5172 213.202C54.365 213.263 54.1824 213.324 53.9998 213.354C51.3212 214.299 48.5514 214.756 45.7816 214.756C31.8715 214.756 20.5791 203.421 20.5791 189.527C20.5791 182.123 23.8055 175.145 29.4669 170.331C29.5582 170.239 29.6496 170.148 29.7713 170.057C31.5671 168.655 33.1195 166.827 34.3979 164.602C35.5849 162.561 36.3763 160.398 36.7111 158.234C36.7416 158.082 36.772 157.96 36.8024 157.808C39.1157 145.985 49.4341 137.423 61.5179 137.423C73.6017 137.423 83.9505 145.955 86.2334 157.808C86.2942 157.93 86.3247 158.082 86.3247 158.234C86.6899 160.398 87.4813 162.561 88.6684 164.602C89.9468 166.796 91.4991 168.655 93.2949 170.057C93.3862 170.148 93.508 170.239 93.5993 170.331C99.2607 175.145 102.518 182.123 102.518 189.527C102.518 191.233 101.117 192.635 99.4129 192.635C97.7084 192.635 96.3083 191.233 96.3083 189.527C96.3083 183.859 93.7819 178.527 89.3989 174.901C89.338 174.84 89.2771 174.81 89.2163 174.749C86.903 172.89 84.9245 170.514 83.3113 167.741C81.8199 165.151 80.8154 162.47 80.298 159.697C80.2676 159.575 80.2371 159.453 80.2067 159.362C78.5935 150.282 70.7405 143.7 61.5179 143.7C52.2953 143.7 44.4423 150.282 42.8291 159.362C42.7987 159.484 42.7682 159.605 42.7378 159.697C42.2203 162.47 41.2159 165.151 39.7549 167.71C38.1417 170.514 36.1632 172.86 33.85 174.718C33.7891 174.779 33.7282 174.84 33.6673 174.901C29.2843 178.527 26.758 183.859 26.758 189.527C26.758 200.009 35.2805 208.54 45.7511 208.54C47.9427 208.54 50.1646 208.144 52.2953 207.352C52.417 207.321 52.5083 207.291 52.6301 207.26C55.339 206.255 58.2306 205.767 61.5179 205.737C64.5617 205.737 67.3924 206.194 69.9187 207.078C70.0709 207.108 70.2231 207.169 70.3753 207.23C72.5973 208.114 74.9105 208.54 77.2542 208.54C83.8288 208.54 89.8555 205.219 93.3558 199.612C94.2689 198.15 96.1865 197.723 97.6475 198.637C99.1085 199.551 99.5347 201.471 98.6215 202.934C94.0254 210.338 86.0203 214.756 77.3151 214.756Z" fill="#231F20"/>
<path d="M15.8604 159.209C7.18559 159.209 0.124023 152.14 0.124023 143.456C0.124023 134.772 7.18559 127.703 15.8604 127.703C24.5351 127.703 31.5967 134.772 31.5967 143.456C31.5967 147.661 29.9531 151.622 26.9701 154.608C25.7526 155.827 23.8046 155.827 22.5871 154.608C21.3696 153.389 21.3696 151.409 22.5871 150.22C24.3829 148.423 25.3874 146.016 25.3874 143.456C25.3874 138.185 21.0957 133.919 15.8604 133.919C10.5946 133.919 6.33334 138.215 6.33334 143.456C6.33334 148.697 10.6251 152.993 15.8604 152.993C17.5649 152.993 18.965 154.395 18.965 156.101C18.965 157.807 17.5953 159.209 15.8604 159.209Z" fill="#231F20"/>
<path d="M41.853 131.939C33.1783 131.939 26.1167 124.869 26.1167 116.186C26.1167 107.502 33.1783 100.433 41.853 100.433C50.5278 100.433 57.5894 107.502 57.5894 116.186C57.5894 120.39 55.9457 124.351 52.9628 127.338C51.7453 128.556 49.7973 128.556 48.5798 127.338C47.3623 126.119 47.3623 124.169 48.5798 122.95C50.3756 121.152 51.38 118.745 51.38 116.186C51.38 110.914 47.1188 106.648 41.853 106.648C36.5873 106.648 32.326 110.945 32.326 116.186C32.326 121.457 36.5873 125.723 41.853 125.723C43.5575 125.723 44.9577 127.124 44.9577 128.831C44.9577 130.537 43.5575 131.939 41.853 131.939Z" fill="#231F20"/>
<path d="M81.2417 131.939C72.5669 131.939 65.5054 124.869 65.5054 116.186C65.5054 107.502 72.5669 100.433 81.2417 100.433C89.9164 100.433 96.978 107.502 96.978 116.186C96.978 120.39 95.3343 124.351 92.3514 127.338C91.1339 128.556 89.1859 128.556 87.9684 127.338C86.7509 126.119 86.7509 124.169 87.9684 122.95C89.7642 121.152 90.7687 118.745 90.7687 116.186C90.7687 110.914 86.5074 106.648 81.2417 106.648C75.9759 106.648 71.7147 110.945 71.7147 116.186C71.7147 121.457 75.9759 125.723 81.2417 125.723C82.9462 125.723 84.3463 127.124 84.3463 128.831C84.3463 130.537 82.9462 131.939 81.2417 131.939Z" fill="#231F20"/>
<path d="M107.237 159.209C98.5621 159.209 91.5005 152.14 91.5005 143.456C91.5005 134.772 98.5621 127.703 107.237 127.703C115.912 127.703 122.973 134.772 122.973 143.456C122.973 147.661 121.33 151.622 118.347 154.608C117.129 155.827 115.181 155.827 113.964 154.608C112.746 153.389 112.746 151.409 113.964 150.22C115.759 148.423 116.764 146.016 116.764 143.456C116.764 138.185 112.503 133.919 107.237 133.919C101.971 133.919 97.7098 138.215 97.7098 143.456C97.7098 148.727 101.971 152.993 107.237 152.993C108.941 152.993 110.342 154.395 110.342 156.101C110.342 157.807 108.941 159.209 107.237 159.209Z" fill="#231F20"/>
<path d="M222.388 157.402V167.017C222.388 187.703 203.874 204.034 181.776 204.034C159.081 204.034 141.163 187.159 141.163 167.017V146.875L141.761 116.39V81.9148C141.761 66.128 129.219 54.1519 111.899 54.1519L95.5567 54.1519C78.2367 54.1519 64.5001 66.6724 64.5001 82.4592V89.996" stroke="#231F20" stroke-width="8" stroke-miterlimit="10" stroke-linecap="round" stroke-linejoin="round"/>
<path d="M269.278 165.345H255.329C253.039 165.345 251.157 163.457 251.157 161.159C251.157 158.861 253.039 156.973 255.329 156.973H269.278C271.569 156.973 273.45 158.861 273.45 161.159C273.45 163.457 271.609 165.345 269.278 165.345Z" fill="#231F20"/>
<path d="M82.3388 38.268H54.851C52.5603 38.268 50.6787 36.3804 50.6787 34.0824C50.6787 31.7844 52.5603 29.8967 54.851 29.8967H82.3388C84.6294 29.8967 86.511 31.7844 86.511 34.0824C86.511 36.3804 84.6294 38.268 82.3388 38.268Z" fill="#231F20"/>
<path d="M18.3752 94.2507H5.73573C3.44508 94.2507 1.56348 92.363 1.56348 90.065C1.56348 87.767 3.44508 85.8794 5.73573 85.8794H18.3752C20.6659 85.8794 22.5475 87.767 22.5475 90.065C22.5475 92.363 20.6659 94.2507 18.3752 94.2507Z" fill="#231F20"/>
<path d="M276.825 213.136C268.808 213.136 262.304 206.611 262.304 198.568C262.304 190.525 268.808 184.001 276.825 184.001C284.843 184.001 291.346 190.525 291.346 198.568C291.346 206.611 284.843 213.136 276.825 213.136ZM276.825 192.331C273.43 192.331 270.649 195.121 270.649 198.527C270.649 201.933 273.43 204.724 276.825 204.724C280.261 204.724 283.002 201.933 283.002 198.527C283.043 195.121 280.261 192.331 276.825 192.331Z" fill="#231F20"/>
<path d="M132.835 29.8966C124.817 29.8966 118.313 23.3719 118.313 15.3289C118.313 7.2859 124.817 0.76123 132.835 0.76123C140.852 0.76123 147.356 7.2859 147.356 15.3289C147.397 23.3308 140.852 29.8966 132.835 29.8966ZM132.835 9.09147C129.439 9.09147 126.658 11.8819 126.658 15.2879C126.658 18.6938 129.439 21.4842 132.835 21.4842C136.23 21.4842 139.011 18.6938 139.011 15.2879C139.052 11.8819 136.271 9.09147 132.835 9.09147Z" fill="#231F20"/>
<path d="M119.868 224.609C117.577 224.609 115.695 222.722 115.695 220.424C115.695 218.126 117.577 216.238 119.868 216.238H145.719C148.01 216.238 149.891 218.126 149.891 220.424C149.891 222.722 148.01 224.609 145.719 224.609H119.868Z" fill="#231F20"/>
<path d="M132.834 237.577C130.544 237.577 128.662 235.689 128.662 233.391V207.457C128.662 205.159 130.544 203.271 132.834 203.271C135.125 203.271 137.007 205.159 137.007 207.457V233.391C137.007 235.689 135.125 237.577 132.834 237.577Z" fill="#231F20"/>
</svg>
