<svg width="216" height="260" viewBox="0 0 216 260" fill="none" xmlns="http://www.w3.org/2000/svg">
<path d="M7.24573 121.025L1.13949 120.29C0.889441 122.356 0.699065 124.44 0.568359 126.538L6.70585 126.918C6.83088 124.937 7.00989 122.972 7.24573 121.025Z" fill="#3A082C"/>
<path d="M9.99035 159.756L4.05176 161.351C4.59731 163.378 5.20254 165.385 5.86175 167.363L11.6952 165.422C11.0729 163.557 10.5047 161.666 9.99035 159.756Z" fill="#3A082C"/>
<path d="M6.7229 139.936C6.59787 137.978 6.52684 136.005 6.51263 134.018L0.36377 134.06C0.377977 136.164 0.451854 138.256 0.588243 140.331L6.7229 139.936Z" fill="#3A082C"/>
<path d="M7.42739 147.002L1.33252 147.822C1.61382 149.906 1.95479 151.969 2.35259 154.013L8.3878 152.838C8.01273 150.913 7.69165 148.966 7.42739 147.002Z" fill="#3A082C"/>
<path d="M14.176 172.073L8.49316 174.42C9.29445 176.356 10.1497 178.264 11.0561 180.14L16.5912 177.466C15.7388 175.695 14.9318 173.898 14.176 172.073Z" fill="#3A082C"/>
<path d="M22.189 198.296C23.4534 199.965 24.7661 201.595 26.1243 203.184L30.8013 199.196C29.5199 197.697 28.2838 196.159 27.0904 194.586L22.189 198.296Z" fill="#3A082C"/>
<path d="M19.907 183.74L14.5708 186.794C15.6136 188.611 16.7047 190.393 17.8498 192.142L22.9985 188.781C21.9216 187.132 20.8901 185.451 19.907 183.74Z" fill="#3A082C"/>
<path d="M11.6214 101.418C12.2436 99.5364 12.9199 97.6799 13.6473 95.8462L7.93319 93.5781C7.16032 95.5197 6.44428 97.4926 5.78223 99.4881L11.6214 101.418Z" fill="#3A082C"/>
<path d="M202.364 94.9832C203.108 96.8056 203.799 98.6536 204.438 100.524L210.26 98.5429C209.581 96.5558 208.848 94.5971 208.061 92.664L202.364 94.9832Z" fill="#3A082C"/>
<path d="M196.689 83.2908C197.661 85.0025 198.582 86.7426 199.457 88.5139L204.975 85.8001C204.049 83.9209 203.071 82.073 202.04 80.2591L196.689 83.2908Z" fill="#3A082C"/>
<path d="M209.59 125.976L215.724 125.539C215.574 123.441 215.363 121.36 215.096 119.296L208.999 120.088C209.251 122.033 209.447 123.994 209.59 125.976Z" fill="#3A082C"/>
<path d="M206.493 107.32C206.996 109.219 207.442 111.141 207.834 113.082L213.861 111.865C213.443 109.804 212.968 107.766 212.437 105.75L206.493 107.32Z" fill="#3A082C"/>
<path d="M9.62981 108.234L3.66849 106.721C3.15419 108.742 2.69956 110.783 2.30176 112.847L8.3398 114.008C8.71771 112.063 9.14677 110.139 9.62981 108.234Z" fill="#3A082C"/>
<path d="M22.8962 77.9881C23.1889 77.5396 23.4929 77.0968 23.7941 76.654C24.1266 76.16 24.4619 75.6633 24.8028 75.175C25.0387 74.8372 25.2802 74.5051 25.5189 74.173C27.1783 71.8623 28.9286 69.6198 30.7698 67.4596C31.9689 66.0544 33.2078 64.6862 34.4779 63.3492C36.2737 61.4615 38.1434 59.6476 40.0755 57.9046C41.3883 56.7209 42.7266 55.5656 44.099 54.45C46.213 52.7326 48.4009 51.1032 50.6485 49.559C51.0264 49.2978 51.4072 49.0395 51.7908 48.784C52.2482 48.4774 52.7114 48.1794 53.1745 47.8813C53.5638 47.6315 53.9531 47.3817 54.3424 47.1376C56.6723 45.6814 59.062 44.3188 61.5113 43.0528C61.9262 42.837 62.3438 42.6298 62.7644 42.4197C63.2503 42.1785 63.7361 41.9372 64.2249 41.7016C64.6539 41.4943 65.0858 41.2928 65.5177 41.0941C68.0153 39.9388 70.5641 38.8771 73.1669 37.9233C73.5845 37.77 74.0051 37.6253 74.4256 37.4776C74.9683 37.2875 75.5082 37.0944 76.0566 36.9156C76.4913 36.7708 76.9289 36.6346 77.3665 36.4955C80.0261 35.6524 82.7311 34.9058 85.4816 34.2785C85.8027 34.2047 86.1295 34.1422 86.4534 34.0713C87.1325 33.9236 87.8116 33.776 88.4964 33.6426C88.897 33.5631 89.3005 33.495 89.704 33.4212C92.5227 32.9046 95.3783 32.493 98.2737 32.2148C98.4471 32.1977 98.6232 32.1864 98.7966 32.1722C99.6575 32.0927 100.518 32.0217 101.388 31.965C101.757 31.9394 102.13 31.9252 102.499 31.9054C104.38 31.8032 106.272 31.7379 108.179 31.7379C109.25 31.7379 110.319 31.7549 111.381 31.789C111.7 31.7975 112.012 31.8174 112.33 31.8315C113.063 31.8599 113.794 31.8912 114.521 31.9366C114.925 31.9621 115.322 31.9962 115.723 32.0246C118.635 32.2375 121.514 32.5639 124.352 33.0181C124.702 33.0749 125.049 33.1402 125.395 33.1998C126.066 33.3133 126.736 33.4269 127.401 33.5546C127.81 33.6341 128.217 33.7221 128.626 33.8044C131.436 34.3778 134.209 35.0563 136.931 35.8568C137.002 35.8766 137.071 35.8993 137.139 35.9221C138.045 36.1917 138.949 36.4699 139.844 36.7623C140.202 36.8787 140.557 37.0064 140.912 37.1285C144.197 38.2441 147.405 39.5215 150.528 40.955C150.928 41.1395 151.335 41.3183 151.735 41.5085C152.295 41.7725 152.846 42.0507 153.4 42.3261C153.756 42.5021 154.114 42.6724 154.463 42.8512C156.921 44.1087 159.316 45.4713 161.652 46.919C162.053 47.166 162.453 47.413 162.848 47.6656C163.308 47.9608 163.766 48.2617 164.223 48.5654C164.607 48.8209 164.993 49.0736 165.374 49.3319C167.554 50.8165 169.67 52.3891 171.725 54.0355C173.057 55.1029 174.364 56.2071 175.64 57.3397C177.575 59.0571 179.448 60.8426 181.246 62.6991C182.454 63.9481 183.628 65.2284 184.77 66.537C186.449 68.4559 188.063 70.4345 189.595 72.4783C190.714 73.9714 191.791 75.5015 192.831 77.0571C192.919 77.1905 193.013 77.3211 193.101 77.4545L198.235 74.0708C198.187 73.997 198.136 73.926 198.085 73.8522L198.088 73.8494C197.715 73.2873 197.326 72.7338 196.942 72.1774C196.744 71.8879 196.55 71.5955 196.346 71.3088C195.769 70.4941 195.181 69.6879 194.584 68.8874C193.038 66.8209 191.416 64.8168 189.728 62.8694L189.737 62.8638C189.646 62.7587 189.546 62.6594 189.452 62.5544C188.214 61.135 186.943 59.7469 185.634 58.3957C185.585 58.3446 185.54 58.2907 185.489 58.2396L185.483 58.2453C183.733 56.4456 181.914 54.7083 180.042 53.0335L180.05 53.025C179.854 52.849 179.65 52.6787 179.451 52.5055C179.067 52.1677 178.678 51.8299 178.288 51.4978C177.862 51.1344 177.436 50.7739 177.004 50.4163C176.615 50.0926 176.223 49.769 175.825 49.4511C175.632 49.295 175.441 49.1332 175.245 48.9771L175.237 48.9856C173.271 47.4243 171.253 45.9255 169.179 44.5005L169.185 44.492C169.065 44.4096 168.94 44.3302 168.821 44.2478C168.429 43.981 168.031 43.7199 167.636 43.4587C167.133 43.1266 166.633 42.7945 166.124 42.4708C165.727 42.2182 165.326 41.9712 164.928 41.7243C164.587 41.5114 164.249 41.2928 163.905 41.0856L163.899 41.0969C161.751 39.7997 159.561 38.5649 157.316 37.4152V37.4124C157.285 37.3953 157.253 37.3811 157.219 37.3641C156.969 37.2364 156.716 37.1171 156.466 36.9922C155.756 36.6374 155.046 36.2826 154.327 35.9419C153.977 35.7773 153.622 35.6212 153.27 35.4594C152.724 35.2096 152.184 34.9512 151.633 34.7099L151.63 34.7156C149.334 33.7051 146.999 32.7683 144.62 31.9167L144.623 31.911C143.97 31.6754 143.308 31.4568 142.646 31.2326C142.35 31.1332 142.06 31.0282 141.765 30.9317C140.733 30.5939 139.696 30.2703 138.65 29.9637C136.249 29.2569 133.812 28.6437 131.345 28.1016L131.348 28.093C130.831 27.9795 130.311 27.8801 129.791 27.7751C129.379 27.6899 128.967 27.6019 128.552 27.5225C127.825 27.3834 127.092 27.2585 126.358 27.1336C126.009 27.074 125.662 27.0087 125.313 26.9519C125.267 26.9434 125.219 26.9349 125.174 26.9263V26.9292C122.707 26.5375 120.212 26.2394 117.692 26.018V26.0066C117.169 25.9612 116.644 25.93 116.118 25.8931C115.709 25.8619 115.3 25.8278 114.888 25.8022C114.098 25.754 113.302 25.7199 112.506 25.6887C112.188 25.6773 111.873 25.6575 111.555 25.6461C111.509 25.6461 111.467 25.6404 111.421 25.6404V25.6433C110.336 25.612 109.247 25.5922 108.153 25.5922C106.724 25.5922 105.303 25.6291 103.886 25.6859V25.6773C103.292 25.7 102.704 25.7398 102.113 25.771C101.729 25.7909 101.345 25.8079 100.962 25.8335C99.9985 25.8959 99.0409 25.9754 98.0862 26.0634C97.947 26.0776 97.8049 26.0861 97.6657 26.0975C97.6515 26.0975 97.6344 26.1003 97.6202 26.1003C95.1027 26.3444 92.6136 26.6822 90.1501 27.0967L90.1473 27.0882C89.6045 27.179 89.0675 27.2869 88.5276 27.3862C88.1185 27.46 87.7093 27.531 87.303 27.6105C86.5386 27.7609 85.78 27.9227 85.0242 28.0902C84.7173 28.1583 84.4104 28.2179 84.1064 28.2861C84.0666 28.2946 84.0268 28.3031 83.9899 28.3116V28.3145C81.5292 28.8765 79.1026 29.5322 76.7073 30.2618L76.7044 30.2504C76.2725 30.381 75.8492 30.5258 75.4201 30.662C74.9882 30.7983 74.5563 30.9345 74.1244 31.0765C73.4993 31.2837 72.8827 31.5023 72.2633 31.7208C71.8626 31.8628 71.462 31.999 71.0642 32.1438C70.9591 32.1807 70.8539 32.2176 70.7488 32.2545L70.7516 32.263C68.3904 33.1373 66.069 34.094 63.7873 35.1244L63.7816 35.113C63.469 35.255 63.1622 35.4054 62.8525 35.5502C62.4291 35.7461 62.0086 35.9419 61.5909 36.1435C61.0368 36.4103 60.4855 36.68 59.9371 36.9553C59.5223 37.1626 59.1074 37.3698 58.6954 37.5827C58.5136 37.6763 58.3261 37.7672 58.1442 37.8609L58.1499 37.8722C55.9222 39.0389 53.74 40.2822 51.6061 41.5994L51.6004 41.588C51.4157 41.7016 51.2338 41.8236 51.0491 41.94C50.6428 42.1927 50.2422 42.451 49.8415 42.7093C49.3414 43.0301 48.8442 43.3537 48.3498 43.683C47.9491 43.9498 47.5513 44.2223 47.1535 44.4948C46.8893 44.6765 46.6194 44.8525 46.3579 45.0342L46.3665 45.0455C44.3064 46.4875 42.2975 47.9949 40.3455 49.5703L40.3426 49.5647C40.3 49.5987 40.2602 49.6356 40.2176 49.6697C38.7401 50.8676 37.3023 52.1081 35.893 53.3827C35.7907 53.4763 35.6798 53.5586 35.5776 53.6523L35.5832 53.658C33.7249 55.3498 31.9235 57.0985 30.1874 58.9152L30.1845 58.9124C30.1447 58.9521 30.1106 58.9975 30.0709 59.0373C26.9339 62.3273 24.0072 65.8188 21.305 69.4835L21.2965 69.4778C21.055 69.8043 20.8248 70.1393 20.5862 70.4714C20.2935 70.8773 19.998 71.2832 19.711 71.6948C19.3729 72.1774 19.0433 72.6685 18.7137 73.1567C18.5091 73.4633 18.2931 73.7614 18.0914 74.068L18.0971 74.0708C17.972 74.261 17.8413 74.4455 17.7163 74.6385L22.8962 77.9881Z" fill="#3A082C"/>
<path d="M19.228 84.0771L13.8521 81.0936C12.8348 82.9217 11.8716 84.7839 10.9595 86.6744L16.5003 89.3371C17.3612 87.5544 18.2705 85.8001 19.228 84.0771Z" fill="#3A082C"/>
<path d="M35.6005 204.436L31.2104 208.74C32.6766 210.233 34.1854 211.683 35.7368 213.091L39.8711 208.544C38.4078 207.212 36.9842 205.844 35.6005 204.436Z" fill="#3A082C"/>
<path d="M193.72 188.227L198.892 191.554C200.025 189.797 201.108 188.003 202.139 186.175L196.783 183.155C195.812 184.878 194.791 186.57 193.72 188.227Z" fill="#3A082C"/>
<path d="M189.666 194.064C188.481 195.645 187.253 197.192 185.98 198.702L190.683 202.659C192.033 201.058 193.334 199.42 194.59 197.743L189.666 194.064Z" fill="#3A082C"/>
<path d="M166.837 216.279L170.389 221.295C172.1 220.086 173.773 218.828 175.407 217.525L171.571 212.725C170.028 213.954 168.451 215.141 166.837 216.279Z" fill="#3A082C"/>
<path d="M176.967 208.104L181.13 212.626C182.673 211.209 184.173 209.75 185.628 208.249L181.212 203.974C179.837 205.39 178.422 206.767 176.967 208.104Z" fill="#3A082C"/>
<path d="M206.552 159.069C206.052 160.985 205.495 162.878 204.887 164.746L210.735 166.645C211.38 164.661 211.971 162.654 212.502 160.621L206.552 159.069Z" fill="#3A082C"/>
<path d="M216 133.061L209.851 133.075V133.308C209.851 135.295 209.794 137.268 209.681 139.227L215.821 139.579C215.94 137.503 216 135.414 216 133.308V133.061Z" fill="#3A082C"/>
<path d="M208.106 152.142L214.15 153.275C214.534 151.228 214.861 149.162 215.128 147.075L209.027 146.298C208.777 148.262 208.467 150.212 208.106 152.142Z" fill="#3A082C"/>
<path d="M160.899 220.174C159.217 221.196 157.5 222.169 155.756 223.095L158.637 228.522C160.487 227.54 162.308 226.507 164.093 225.425L160.899 220.174Z" fill="#3A082C"/>
<path d="M200.062 176.85L205.618 179.487C206.515 177.6 207.362 175.681 208.149 173.733L202.449 171.425C201.705 173.259 200.909 175.07 200.062 176.85Z" fill="#3A082C"/>
<path d="M92.5994 233.694L91.6646 239.766C93.7246 240.081 95.8017 240.34 97.8987 240.538L98.4783 234.421C96.5007 234.236 94.5401 233.992 92.5994 233.694Z" fill="#3A082C"/>
<path d="M78.1733 236.794C80.1765 237.373 82.2053 237.895 84.2568 238.361L85.6151 232.369C83.6829 231.931 81.7706 231.438 79.881 230.892L78.1733 236.794Z" fill="#3A082C"/>
<path d="M41.4937 217.954C43.1388 219.248 44.821 220.497 46.54 221.695L50.0606 216.657C48.4381 215.527 46.8526 214.349 45.3012 213.128L41.4937 217.954Z" fill="#3A082C"/>
<path d="M52.8735 225.789C54.6693 226.862 56.4992 227.886 58.3604 228.857L61.2046 223.41C59.4486 222.496 57.7239 221.531 56.0304 220.517L52.8735 225.789Z" fill="#3A082C"/>
<path d="M65.1685 232.11C67.0864 232.945 69.0356 233.725 71.0104 234.449L73.1301 228.681C71.269 227.997 69.4334 227.262 67.6235 226.476L65.1685 232.11Z" fill="#3A082C"/>
<path d="M111.5 234.827C110.398 234.861 109.29 234.881 108.179 234.881C107.307 234.881 106.437 234.869 105.57 234.847L105.417 240.99C106.335 241.012 107.255 241.024 108.179 241.024C109.355 241.024 110.529 241.004 111.697 240.967L111.5 234.827Z" fill="#3A082C"/>
<path d="M137.162 230.694C135.275 231.253 133.368 231.758 131.439 232.21L132.84 238.191C134.888 237.711 136.912 237.174 138.912 236.581L137.162 230.694Z" fill="#3A082C"/>
<path d="M149.371 226.197C147.575 226.995 145.751 227.739 143.898 228.434L146.058 234.185C148.021 233.45 149.956 232.658 151.863 231.812L149.371 226.197Z" fill="#3A082C"/>
<path d="M118.593 234.353L119.215 240.464C121.309 240.252 123.386 239.979 125.443 239.65L124.466 233.583C122.525 233.896 120.568 234.151 118.593 234.353Z" fill="#3A082C"/>
<path d="M108 235.177C163.781 235.177 209 189.958 209 134.177C209 78.3961 163.781 33.1769 108 33.1769C52.2192 33.1769 7 78.3961 7 134.177C7 189.958 52.2192 235.177 108 235.177Z" fill="#7B73B1"/>
<path d="M200.821 215.479C202.557 211.147 202.532 206.386 200.747 202.074C199.045 197.961 195.883 194.657 191.845 192.769C187.81 190.884 183.244 190.578 178.99 191.909L127.532 208.019L127.634 207.482C128.288 203.996 127.688 200.519 125.901 197.43C123.883 193.95 120.624 191.498 116.72 190.524L75.5422 180.245C72.4877 179.484 69.3337 179.706 66.4184 180.887L39.0895 191.955V183.813C39.0895 181.284 37.0294 179.226 34.4977 179.226H4.71383C2.18211 179.226 0.12207 181.284 0.12207 183.813V243.769C0.12207 246.298 2.18211 248.356 4.71383 248.356H34.4977C37.0294 248.356 39.0895 246.298 39.0895 243.769V241.62L39.4958 241.719L108.034 258.626C111.154 259.395 114.601 259.095 117.541 257.797L191.504 225.121C195.775 223.234 199.085 219.808 200.821 215.479Z" fill="white"/>
<path d="M36.1372 211.328L69.0183 196.917C71.1976 195.963 73.6185 195.704 75.9485 196.181L124.847 206.159C124.847 206.159 121.809 218.011 108.713 216.041C101.345 214.934 93.7615 213.792 93.7615 213.792L94.6366 217.048C96.1909 222.839 100.624 227.421 106.363 229.169C109.861 230.234 113.606 230.152 117.053 228.934L196.724 200.752C196.724 200.752 205.549 212.103 190.31 222.428C175.069 232.755 112.62 256.111 112.62 256.111L38.4104 238.418L36.1372 211.328Z" fill="#EE8363"/>
<path d="M200.861 202.026C199.446 198.608 197.07 195.832 194.172 193.927C191.274 192.02 187.85 190.967 184.307 190.967C182.528 190.967 180.721 191.234 178.948 191.79L127.685 207.837C127.899 206.821 128.004 205.799 128.004 204.791C128.004 201.467 126.881 198.296 124.915 195.744C122.952 193.189 120.119 191.242 116.746 190.402L75.5679 180.123C74.3802 179.825 73.1697 179.68 71.9593 179.68C70.0527 179.68 68.1546 180.046 66.3673 180.77L39.2118 191.77V183.813C39.2146 182.522 38.6804 181.327 37.8308 180.484C36.9869 179.635 35.7878 179.104 34.4978 179.104H4.71395C3.4211 179.101 2.22485 179.635 1.38095 180.484C0.531359 181.327 1.12796e-05 182.525 1.12796e-05 183.813V243.769C-0.00283015 245.06 0.531359 246.255 1.38095 247.098C2.22485 247.947 3.42394 248.478 4.71395 248.478H34.4978C35.7907 248.481 36.9869 247.947 37.8308 247.098C38.6804 246.255 39.2118 245.057 39.2118 243.769V241.779L108.003 258.748C109.176 259.038 110.375 259.183 111.569 259.183C113.629 259.183 115.68 258.754 117.587 257.914L191.549 225.238C194.88 223.767 197.562 221.383 199.392 218.522C201.225 215.657 202.222 212.308 202.222 208.864C202.225 206.579 201.784 204.254 200.861 202.026ZM6.14887 185.244H33.0629V242.332H6.14887V185.244ZM194.215 215.209C193.007 217.091 191.268 218.641 189.066 219.614L115.104 252.29C113.984 252.784 112.779 253.037 111.569 253.037C110.867 253.037 110.165 252.952 109.475 252.781L39.2118 235.449V198.398L68.6803 186.465C69.7288 186.039 70.8426 185.826 71.9621 185.826C72.6725 185.826 73.3828 185.911 74.079 186.087L115.257 196.366C117.252 196.865 118.883 197.992 120.042 199.494C121.198 200.996 121.855 202.861 121.855 204.797C121.855 205.58 121.747 206.378 121.52 207.181C120.98 209.08 119.852 210.65 118.371 211.76C116.888 212.87 115.067 213.503 113.154 213.503C112.725 213.503 112.288 213.472 111.847 213.404L94.2219 210.752L93.307 216.827L110.935 219.478C111.68 219.589 112.421 219.646 113.157 219.646C116.433 219.646 119.545 218.561 122.062 216.674C122.477 216.361 122.872 216.021 123.253 215.666L180.789 197.655C181.962 197.288 183.142 197.115 184.307 197.115C186.625 197.115 188.881 197.808 190.788 199.063C192.695 200.32 194.243 202.123 195.178 204.379C195.789 205.853 196.073 207.369 196.073 208.864C196.076 211.116 195.42 213.324 194.215 215.209Z" fill="#3A082C"/>
<path d="M68.9382 136.172C68.9382 139.257 67.8808 141.84 65.7662 143.92C63.6862 145.965 60.8782 147.161 57.3422 147.508C56.9608 147.542 56.7182 147.612 56.6142 147.716C56.5102 147.82 56.4582 148.028 56.4582 148.34V150.212C56.4582 150.628 56.3542 150.922 56.1462 151.096C55.9728 151.304 55.6608 151.408 55.2102 151.408H52.3502C51.6222 151.408 51.2582 151.061 51.2582 150.368V148.288C51.2582 147.976 51.2062 147.768 51.1022 147.664C50.9982 147.56 50.8075 147.508 50.5302 147.508C48.0342 147.369 45.8502 146.918 43.9782 146.156C42.1408 145.358 40.4075 144.214 38.7782 142.724C38.2582 142.308 37.9982 141.944 37.9982 141.632C37.9982 141.424 38.0848 141.233 38.2582 141.06L41.3782 137.68C41.6902 137.368 41.9675 137.212 42.2102 137.212C42.4182 137.212 42.6435 137.333 42.8862 137.576C45.0702 139.933 47.6355 141.302 50.5822 141.684L50.8942 141.736C51.1715 141.736 51.3102 141.545 51.3102 141.164L51.3622 132.272C51.3622 131.994 51.3102 131.786 51.2062 131.648C51.1022 131.474 50.8942 131.336 50.5822 131.232C46.4915 130.33 43.5448 128.909 41.7422 126.968C39.9742 125.026 39.0902 122.652 39.0902 119.844C39.0902 117.07 40.0782 114.713 42.0542 112.772C44.0302 110.796 46.8035 109.496 50.3742 108.872C51.0328 108.698 51.3622 108.404 51.3622 107.988V106.012C51.3622 105.804 51.4142 105.63 51.5182 105.492C51.6568 105.353 51.8128 105.284 51.9862 105.284H55.5222C56.1462 105.284 56.4582 105.613 56.4582 106.272V108.352C56.4582 108.56 56.6835 108.716 57.1342 108.82C60.6355 109.548 63.6342 110.848 66.1302 112.72C66.4075 112.893 66.5462 113.118 66.5462 113.396C66.5462 113.569 66.4595 113.777 66.2862 114.02L63.5302 117.556C63.3222 117.798 63.1142 117.92 62.9062 117.92C62.6288 117.92 62.3515 117.781 62.0742 117.504C61.4848 116.914 60.7395 116.377 59.8382 115.892C58.9715 115.372 58.0528 114.99 57.0822 114.748L56.8742 114.696C56.5622 114.696 56.4062 114.852 56.4062 115.164V123.952C56.4062 124.16 56.4408 124.316 56.5102 124.42C56.6142 124.489 56.7875 124.558 57.0302 124.628L59.9422 125.408C62.6808 126.24 64.8648 127.609 66.4942 129.516C68.1235 131.388 68.9382 133.606 68.9382 136.172ZM51.3622 115.112C51.3622 114.592 51.1368 114.384 50.6862 114.488C49.1262 114.765 47.9302 115.32 47.0982 116.152C46.2662 116.949 45.8502 117.902 45.8502 119.012C45.8502 120.086 46.1968 120.988 46.8902 121.716C47.5835 122.409 48.7275 122.998 50.3222 123.484C50.3915 123.518 50.4955 123.536 50.6342 123.536C51.1195 123.536 51.3622 123.206 51.3622 122.548V115.112ZM56.4062 141.372C56.4062 141.684 56.6315 141.805 57.0822 141.736C58.6422 141.562 59.8728 141.077 60.7742 140.28C61.6755 139.482 62.1262 138.512 62.1262 137.368C62.1262 136.154 61.7275 135.149 60.9302 134.352C60.1328 133.554 58.8502 132.913 57.0822 132.428C57.0128 132.393 56.9088 132.376 56.7702 132.376C56.5275 132.376 56.4062 132.566 56.4062 132.948V141.372ZM99.9964 108.716C100.551 108.716 100.898 108.785 101.036 108.924C101.175 109.062 101.227 109.392 101.192 109.912L100.932 115.06C100.898 115.406 100.794 115.649 100.62 115.788C100.482 115.926 100.204 115.996 99.7884 115.996H83.4084C82.8191 115.996 82.5071 116.256 82.4724 116.776L81.8484 123.38V123.484C81.8484 123.726 81.9177 123.9 82.0564 124.004C82.2297 124.108 82.4204 124.125 82.6284 124.056C84.2924 123.466 85.6097 123.05 86.5804 122.808C87.5857 122.565 88.7471 122.444 90.0644 122.444C92.6991 122.444 95.0564 122.912 97.1364 123.848C99.2164 124.784 100.863 126.188 102.076 128.06C103.29 129.897 103.896 132.116 103.896 134.716C103.896 137.42 103.238 139.76 101.92 141.736C100.603 143.712 98.7657 145.22 96.4084 146.26C94.0511 147.3 91.3124 147.82 88.1924 147.82C84.8991 147.82 81.9004 147.265 79.1964 146.156C76.4924 145.012 74.4124 143.486 72.9564 141.58C72.6791 141.233 72.5404 140.921 72.5404 140.644C72.5404 140.297 72.7137 140.02 73.0604 139.812L77.3244 136.796C77.4977 136.657 77.6884 136.588 77.8964 136.588C78.2084 136.588 78.4684 136.726 78.6764 137.004C80.1324 138.529 81.4497 139.656 82.6284 140.384C83.8417 141.077 85.3671 141.424 87.2044 141.424C89.6311 141.424 91.5204 140.834 92.8724 139.656C94.2591 138.442 94.9524 136.882 94.9524 134.976C94.9524 133.138 94.3111 131.665 93.0284 130.556C91.7804 129.446 90.0817 128.892 87.9324 128.892C86.8231 128.892 85.7831 129.065 84.8124 129.412C83.8764 129.724 82.6977 130.226 81.2764 130.92C80.9991 131.058 80.7737 131.128 80.6004 131.128C80.4617 131.128 80.2364 131.041 79.9244 130.868L75.1924 128.268C74.8111 128.06 74.6204 127.765 74.6204 127.384C74.6204 127.072 74.6377 126.812 74.6724 126.604L76.1284 109.964C76.1631 109.478 76.3017 109.149 76.5444 108.976C76.7871 108.802 77.2724 108.716 78.0004 108.716H99.9964ZM124.373 108.144C127.458 108.144 130.214 108.976 132.641 110.64C135.068 112.304 136.974 114.644 138.361 117.66C139.748 120.676 140.441 124.16 140.441 128.112C140.441 132.064 139.748 135.53 138.361 138.512C137.009 141.458 135.12 143.746 132.693 145.376C130.266 146.97 127.493 147.768 124.373 147.768C121.253 147.768 118.462 146.97 116.001 145.376C113.574 143.746 111.668 141.458 110.281 138.512C108.929 135.53 108.253 132.081 108.253 128.164C108.253 124.212 108.946 120.728 110.333 117.712C111.72 114.661 113.626 112.304 116.053 110.64C118.514 108.976 121.288 108.144 124.373 108.144ZM124.373 141.32C126.696 141.32 128.412 140.297 129.521 138.252C130.63 136.206 131.185 132.844 131.185 128.164C131.185 123.38 130.613 119.913 129.469 117.764C128.36 115.58 126.644 114.488 124.321 114.488C122.033 114.488 120.317 115.58 119.173 117.764C118.029 119.948 117.457 123.414 117.457 128.164C117.457 132.809 118.029 136.172 119.173 138.252C120.317 140.297 122.05 141.32 124.373 141.32ZM161.189 108.144C164.275 108.144 167.031 108.976 169.457 110.64C171.884 112.304 173.791 114.644 175.177 117.66C176.564 120.676 177.257 124.16 177.257 128.112C177.257 132.064 176.564 135.53 175.177 138.512C173.825 141.458 171.936 143.746 169.509 145.376C167.083 146.97 164.309 147.768 161.189 147.768C158.069 147.768 155.279 146.97 152.817 145.376C150.391 143.746 148.484 141.458 147.097 138.512C145.745 135.53 145.069 132.081 145.069 128.164C145.069 124.212 145.763 120.728 147.149 117.712C148.536 114.661 150.443 112.304 152.869 110.64C155.331 108.976 158.104 108.144 161.189 108.144ZM161.189 141.32C163.512 141.32 165.228 140.297 166.337 138.252C167.447 136.206 168.001 132.844 168.001 128.164C168.001 123.38 167.429 119.913 166.285 117.764C165.176 115.58 163.46 114.488 161.137 114.488C158.849 114.488 157.133 115.58 155.989 117.764C154.845 119.948 154.273 123.414 154.273 128.164C154.273 132.809 154.845 136.172 155.989 138.252C157.133 140.297 158.867 141.32 161.189 141.32Z" fill="white"/>
<rect x="87.5742" y="29.227" width="42.191" height="42.191" fill="white"/>
<path d="M145.357 39.2836L107.068 2.47386C106.83 2.23638 106.592 2.23638 106.355 2.47386L68.0652 39.2836C67.9463 39.4023 67.9463 39.5211 67.9463 39.6398V50.9202C67.9463 51.1577 68.0652 51.2764 68.303 51.3952C68.5408 51.5139 68.7787 51.3952 68.8976 51.2764L76.5079 44.0332V79.1806C76.5079 79.4181 76.7457 79.6555 76.9835 79.6555H136.439C136.677 79.6555 136.915 79.4181 136.915 79.1806V43.9145L144.525 51.1577C144.644 51.2764 144.763 51.2764 144.882 51.2764C145.001 51.2764 145.001 51.2764 145.12 51.2764C145.357 51.1577 145.476 51.039 145.476 50.8015V39.5211C145.476 39.5211 145.476 39.4023 145.357 39.2836ZM112.3 32.9903C114.322 32.9903 115.868 34.8902 115.868 37.3837C115.868 39.8773 114.322 41.7771 112.3 41.7771C110.279 41.7771 108.733 39.8773 108.733 37.3837C108.733 34.8902 110.279 32.9903 112.3 32.9903ZM101.123 32.9903C103.144 32.9903 104.69 34.8902 104.69 37.3837C104.69 39.8773 103.144 41.7771 101.123 41.7771C99.101 41.7771 97.5552 39.8773 97.5552 37.3837C97.5552 34.8902 99.101 32.9903 101.123 32.9903ZM89.5881 46.883C89.5881 44.3895 91.134 42.4896 93.1555 42.4896C95.177 42.4896 96.7228 44.3895 96.7228 46.883C96.7228 49.3766 95.177 51.2764 93.1555 51.2764C91.134 51.2764 89.5881 49.2578 89.5881 46.883ZM118.84 57.9259C118.602 59.9445 117.532 61.8444 115.868 62.9131C114.916 63.5068 113.965 63.863 113.014 63.863C111.111 63.863 109.327 63.1505 107.9 61.8444C107.187 61.2507 106.117 61.2507 105.403 61.8444C103.976 63.1505 102.193 63.863 100.29 63.863C99.3388 63.863 98.3876 63.5068 97.4363 62.9131C95.7715 61.7256 94.7013 59.9445 94.4635 57.9259C94.2257 55.7886 95.058 53.5325 96.6039 51.8701L101.123 46.2893C101.123 46.2893 101.2 46.2118 101.241 46.1706C102.668 44.7457 104.571 43.9145 106.592 43.9145C108.614 43.9145 110.516 44.7457 111.943 46.1706C111.943 46.1706 111.943 46.1706 112.062 46.2893L116.581 51.8701C118.246 53.5325 119.078 55.7886 118.84 57.9259ZM120.267 51.2764C118.246 51.2764 116.7 49.3766 116.7 46.883C116.7 44.3895 118.246 42.4896 120.267 42.4896C122.289 42.4896 123.835 44.3895 123.835 46.883C123.835 49.3766 122.289 51.2764 120.267 51.2764Z" fill="#C9D4EA"/>
<path d="M107.068 3.28636L145.357 40.0961C145.476 40.2148 145.476 40.3336 145.476 40.3336V51.614C145.476 51.8515 145.357 51.9702 145.12 52.0889H144.882C144.763 52.0889 144.644 52.0889 144.525 51.9702L136.915 44.727V79.9931C136.915 80.2306 136.677 80.4681 136.439 80.4681H76.9835C76.7457 80.4681 76.5079 80.2306 76.5079 79.9931V44.8457L68.8976 52.0889C68.7787 52.2077 68.5408 52.3264 68.303 52.2077C68.0652 52.0889 67.9463 51.9702 67.9463 51.7327V40.4523C67.9463 40.3336 67.9463 40.2148 68.0652 40.0961L106.355 3.28636C106.592 3.04888 106.83 3.04888 107.068 3.28636Z" stroke="#3A072C" stroke-width="5" stroke-miterlimit="10" stroke-linecap="round" stroke-linejoin="round"/>
</svg>
