<svg width="240" height="161" viewBox="0 0 240 161" fill="none" xmlns="http://www.w3.org/2000/svg">
<path d="M145.543 81.6875C143.412 79.9812 141.617 77.8788 140.186 75.3498C138.816 72.9732 137.903 70.4746 137.477 67.9456V67.9761C135.62 57.6163 126.611 49.7246 115.744 49.7246C104.878 49.7246 95.8382 57.5858 94.0119 67.9456L93.9815 67.9151C93.5553 70.4441 92.6422 72.9732 91.2725 75.3193C89.8115 77.8483 88.0461 79.9508 85.885 81.6571H85.9155C81.015 85.7096 77.8799 91.834 77.8799 98.6897C77.8799 110.908 87.7722 120.811 99.9777 120.811C102.808 120.811 105.517 120.262 107.983 119.287L107.952 119.318C110.357 118.404 112.975 118.008 115.714 118.008C118.636 118.008 121.345 118.465 123.902 119.47L123.871 119.44C126.245 120.323 128.802 120.811 131.481 120.811C143.686 120.811 153.579 110.908 153.579 98.6897C153.579 91.8645 150.444 85.74 145.543 81.6875Z" fill="#C9D4EA"/>
<path d="M82.6901 52.6186C82.6901 59.5962 77.0287 65.2637 70.0584 65.2637C63.0882 65.2637 57.4268 59.5962 57.4268 52.6186C57.4268 45.641 63.0882 39.9736 70.0584 39.9736C77.0287 39.9736 82.6901 45.641 82.6901 52.6186Z" fill="#C9D4EA"/>
<path d="M108.682 25.3781C108.682 32.3557 103.02 38.0231 96.0501 38.0231C89.0494 38.0231 83.4185 32.3557 83.4185 25.3781C83.4185 18.4005 89.0799 12.7026 96.0501 12.7026C103.02 12.7026 108.682 18.37 108.682 25.3781Z" fill="#C9D4EA"/>
<path d="M148.771 52.6191C148.771 59.5967 154.432 65.2641 161.402 65.2641C168.372 65.2641 174.034 59.5967 174.034 52.6191C174.034 45.6415 168.372 39.9741 161.402 39.9741C154.401 39.9741 148.771 45.6415 148.771 52.6191Z" fill="#C9D4EA"/>
<path d="M122.774 25.3781C122.774 32.3557 128.435 38.0231 135.406 38.0231C142.376 38.0231 148.037 32.3557 148.037 25.3781C148.037 18.4005 142.376 12.7026 135.406 12.7026C128.435 12.7026 122.774 18.37 122.774 25.3781Z" fill="#C9D4EA"/>
<path d="M122.686 115.143C119.703 115.143 116.781 114.625 113.951 113.559C113.829 113.528 113.707 113.498 113.585 113.437C111.637 112.706 109.385 112.34 106.919 112.34C104.271 112.34 101.958 112.736 99.8883 113.589C99.7361 113.65 99.5535 113.711 99.3709 113.742C96.6923 114.686 93.9225 115.143 91.1527 115.143C77.2426 115.143 65.9502 103.808 65.9502 89.9141C65.9502 82.5099 69.1766 75.5323 74.838 70.718C74.9293 70.6266 75.0207 70.5352 75.1424 70.4438C76.9382 69.0422 78.4906 67.214 79.7689 64.9897C80.956 62.9482 81.7474 60.7848 82.0822 58.6215C82.1126 58.4691 82.1431 58.3473 82.1735 58.1949C84.4868 46.3726 94.8052 37.8105 106.889 37.8105C118.973 37.8105 129.322 46.3421 131.604 58.1949C131.665 58.3168 131.696 58.4691 131.696 58.6215C132.061 60.7848 132.852 62.9482 134.039 64.9897C135.318 67.1835 136.87 69.0422 138.666 70.4438C138.757 70.5352 138.879 70.6266 138.97 70.718C144.632 75.5323 147.889 82.5099 147.889 89.9141C147.889 91.6204 146.489 93.022 144.784 93.022C143.079 93.022 141.679 91.6204 141.679 89.9141C141.679 84.2467 139.153 78.9144 134.77 75.2885C134.709 75.2276 134.648 75.1971 134.587 75.1362C132.274 73.2775 130.296 70.9009 128.682 68.1281C127.191 65.5382 126.187 62.8568 125.669 60.084C125.639 59.9622 125.608 59.8403 125.578 59.7489C123.965 50.6688 116.112 44.0873 106.889 44.0873C97.6663 44.0873 89.8134 50.6688 88.2002 59.7489C88.1698 59.8708 88.1393 59.9926 88.1089 60.084C87.5914 62.8568 86.587 65.5382 85.126 68.0976C83.5128 70.9009 81.5343 73.247 79.2211 75.1057C79.1602 75.1666 79.0993 75.2276 79.0384 75.2885C74.6554 78.9144 72.1291 84.2467 72.1291 89.9141C72.1291 100.396 80.6516 108.927 91.1222 108.927C93.3137 108.927 95.5357 108.531 97.6663 107.739C97.7881 107.708 97.8794 107.678 98.0012 107.648C100.71 106.642 103.602 106.155 106.889 106.124C109.933 106.124 112.763 106.581 115.29 107.465C115.442 107.495 115.594 107.556 115.746 107.617C117.968 108.501 120.282 108.927 122.625 108.927C129.2 108.927 135.227 105.606 138.727 99.9996C139.64 98.5371 141.558 98.1105 143.019 99.0246C144.48 99.9387 144.906 101.858 143.993 103.321C139.397 110.725 131.391 115.143 122.686 115.143Z" fill="#231F20"/>
<path d="M61.2315 59.5962C52.5567 59.5962 45.4951 52.5272 45.4951 43.8433C45.4951 35.1593 52.5567 28.0903 61.2315 28.0903C69.9062 28.0903 76.9678 35.1593 76.9678 43.8433C76.9678 48.0481 75.3241 52.0092 72.3412 54.9953C71.1237 56.214 69.1757 56.214 67.9582 54.9953C66.7407 53.7765 66.7407 51.7959 67.9582 50.6076C69.754 48.8099 70.7585 46.4027 70.7585 43.8433C70.7585 38.572 66.4668 34.3062 61.2315 34.3062C55.9657 34.3062 51.7044 38.6024 51.7044 43.8433C51.7044 49.0841 55.9962 53.3804 61.2315 53.3804C62.936 53.3804 64.3361 54.782 64.3361 56.4883C64.3361 58.1946 62.9664 59.5962 61.2315 59.5962Z" fill="#231F20"/>
<path d="M87.2241 32.3257C78.5494 32.3257 71.4878 25.2567 71.4878 16.5728C71.4878 7.88884 78.5494 0.819824 87.2241 0.819824C95.8989 0.819824 102.96 7.88884 102.96 16.5728C102.96 20.7776 101.317 24.7387 98.3339 27.7248C97.1164 28.9435 95.1684 28.9435 93.9509 27.7248C92.7333 26.506 92.7333 24.5559 93.9509 23.3371C95.7467 21.5394 96.7511 19.1322 96.7511 16.5728C96.7511 11.3015 92.4899 7.03569 87.2241 7.03569C81.9584 7.03569 77.6971 11.3319 77.6971 16.5728C77.6971 21.8441 81.9584 26.1099 87.2241 26.1099C88.9286 26.1099 90.3288 27.5115 90.3288 29.2178C90.3288 30.9241 88.9286 32.3257 87.2241 32.3257Z" fill="#231F20"/>
<path d="M126.613 32.3257C117.938 32.3257 110.876 25.2567 110.876 16.5728C110.876 7.88884 117.938 0.819824 126.613 0.819824C135.288 0.819824 142.349 7.88884 142.349 16.5728C142.349 20.7776 140.705 24.7387 137.723 27.7248C136.505 28.9435 134.557 28.9435 133.34 27.7248C132.122 26.506 132.122 24.5559 133.34 23.3371C135.135 21.5394 136.14 19.1322 136.14 16.5728C136.14 11.3015 131.878 7.03569 126.613 7.03569C121.347 7.03569 117.086 11.3319 117.086 16.5728C117.086 21.8441 121.347 26.1099 126.613 26.1099C128.317 26.1099 129.717 27.5115 129.717 29.2178C129.717 30.9241 128.317 32.3257 126.613 32.3257Z" fill="#231F20"/>
<path d="M152.608 59.5962C143.933 59.5962 136.872 52.5272 136.872 43.8433C136.872 35.1593 143.933 28.0903 152.608 28.0903C161.283 28.0903 168.344 35.1593 168.344 43.8433C168.344 48.0481 166.701 52.0092 163.718 54.9953C162.5 56.214 160.552 56.214 159.335 54.9953C158.117 53.7765 158.117 51.7959 159.335 50.6076C161.131 48.8099 162.135 46.4027 162.135 43.8433C162.135 38.572 157.874 34.3062 152.608 34.3062C147.342 34.3062 143.081 38.6024 143.081 43.8433C143.081 49.1146 147.342 53.3804 152.608 53.3804C154.312 53.3804 155.713 54.782 155.713 56.4883C155.713 58.1946 154.312 59.5962 152.608 59.5962Z" fill="#231F20"/>
<path d="M174.238 93.1357C143.739 93.1357 119.009 100.171 119.009 108.828V132.795C119.009 141.452 143.739 148.487 174.238 148.487C204.737 148.487 229.467 141.476 229.467 132.795V108.828C229.467 100.171 204.737 93.1357 174.238 93.1357ZM138.609 120.799C148.231 118.486 160.667 117.103 174.238 117.103C187.833 117.103 200.269 118.51 209.868 120.799C200.245 123.113 187.809 124.52 174.238 124.52C160.644 124.52 148.208 123.113 138.609 120.799Z" fill="#EE8363"/>
<path d="M222.635 99.5031C221.311 99.5031 220.223 100.6 220.223 101.936C220.223 106.467 206.842 112.429 184.121 114.48C183.128 110.425 179.487 107.397 175.16 107.397H159.769C155.442 107.397 151.801 110.425 150.808 114.503C128.017 112.429 114.588 106.443 114.588 101.936C114.588 96.4028 134.684 88.676 167.406 88.676C186.107 88.676 203.744 91.4424 213.438 95.9258C214.644 96.4744 216.086 95.9497 216.63 94.7334C217.197 93.5172 216.653 92.0625 215.448 91.514C204.997 86.6728 187.029 83.811 167.406 83.811C138.751 83.811 109.765 90.0354 109.765 101.936C109.765 111.475 128.371 117.341 150.501 119.321V126.881C150.288 126.857 150.052 126.857 149.839 126.833C148.515 126.69 147.333 127.691 147.215 129.027C147.096 130.362 148.066 131.555 149.39 131.674C149.768 131.722 150.146 131.746 150.525 131.769V138.423C127.922 136.372 114.611 130.41 114.611 125.903V115.267C114.611 113.931 113.524 112.834 112.2 112.834C110.876 112.834 109.788 113.931 109.788 115.267V125.903C109.788 135.442 128.419 141.333 150.572 143.288C150.974 148.058 154.946 151.85 159.769 151.85H175.16C180.007 151.85 183.979 148.082 184.357 143.288C206.463 141.309 225.046 135.442 225.046 125.903V101.936C225.046 100.576 223.959 99.5031 222.635 99.5031ZM159.745 112.238H175.137C176.91 112.238 178.447 113.311 179.132 114.837C175.42 115.052 171.496 115.195 167.382 115.195C163.292 115.195 159.391 115.076 155.726 114.861C156.435 113.311 157.972 112.238 159.745 112.238ZM175.16 146.961H159.769C157.712 146.961 156.01 145.554 155.513 143.646C159.438 143.884 163.434 144.004 167.429 144.004C171.448 144.004 175.468 143.884 179.44 143.646C178.896 145.554 177.194 146.961 175.16 146.961ZM220.223 125.903C220.223 130.553 206.014 136.754 182.04 138.614C182.017 138.614 182.017 138.614 181.993 138.614C181.875 138.614 181.757 138.638 181.638 138.638C177.217 138.972 172.465 139.162 167.406 139.162C163.15 139.162 159.131 139.019 155.324 138.781V132.127C158.398 132.318 161.519 132.437 164.687 132.485C164.734 132.556 164.781 132.604 164.828 132.676C165.514 133.367 166.436 133.749 167.382 133.749C168.328 133.749 169.273 133.367 169.935 132.676C170.621 131.984 170.999 131.054 170.999 130.1C170.999 129.122 170.621 128.192 169.935 127.501C168.588 126.165 166.176 126.165 164.828 127.501C164.781 127.548 164.758 127.596 164.734 127.62C161.542 127.572 158.398 127.453 155.324 127.262V119.702C159.296 119.941 163.363 120.084 167.406 120.084C172.3 120.084 177.217 119.893 181.993 119.535C198.259 118.295 212.941 115.004 220.223 109.71V125.903Z" fill="#231F20"/>
<path d="M140.051 131.722C139.105 131.722 138.16 131.34 137.498 130.649C136.812 129.957 136.434 129.027 136.434 128.073C136.434 127.119 136.812 126.165 137.498 125.498C138.845 124.138 141.257 124.138 142.604 125.498C143.266 126.189 143.668 127.119 143.668 128.073C143.668 129.027 143.29 129.981 142.604 130.649C141.942 131.34 140.997 131.722 140.051 131.722Z" fill="#231F20"/>
<path d="M181.095 133.296C180.126 133.296 179.203 132.914 178.518 132.222C177.856 131.555 177.478 130.601 177.478 129.647C177.478 128.693 177.856 127.739 178.518 127.071C179.865 125.712 182.301 125.712 183.648 127.071C184.334 127.763 184.712 128.693 184.712 129.647C184.712 130.601 184.334 131.555 183.648 132.222C182.963 132.914 182.041 133.296 181.095 133.296Z" fill="#231F20"/>
<path d="M194.76 131.722C193.814 131.722 192.868 131.34 192.206 130.649C191.521 129.957 191.143 129.027 191.143 128.073C191.143 127.119 191.521 126.165 192.206 125.498C193.554 124.138 195.966 124.138 197.313 125.498C197.999 126.189 198.377 127.119 198.377 128.073C198.377 129.027 197.999 129.981 197.313 130.649C196.628 131.34 195.706 131.722 194.76 131.722Z" fill="#231F20"/>
<path d="M207.509 41.8384C199.492 41.8384 192.988 35.3138 192.988 27.2708C192.988 19.2278 199.492 12.7031 207.509 12.7031C215.527 12.7031 222.03 19.2278 222.03 27.2708C222.071 35.2727 215.527 41.8384 207.509 41.8384ZM207.509 21.0334C204.114 21.0334 201.333 23.8238 201.333 27.2298C201.333 30.6357 204.114 33.4261 207.509 33.4261C210.904 33.4261 213.686 30.6357 213.686 27.2298C213.727 23.8238 210.945 21.0334 207.509 21.0334Z" fill="#231F20"/>
<path d="M36.3906 89.4533H4.6078C2.31715 89.4533 0.435547 87.5657 0.435547 85.2677C0.435547 82.9697 2.31715 81.082 4.6078 81.082H36.3906C38.6812 81.082 40.5628 82.9697 40.5628 85.2677C40.5628 87.5657 38.7221 89.4533 36.3906 89.4533Z" fill="#231F20"/>
<path d="M16.3138 101.159L16.3138 69.3764C16.3138 67.0857 18.2014 65.2041 20.4994 65.2041C22.7974 65.2041 24.6851 67.0857 24.6851 69.3764L24.6851 101.159C24.6851 103.45 22.7974 105.331 20.4994 105.331C18.2014 105.331 16.3138 103.491 16.3138 101.159Z" fill="#231F20"/>
<path d="M235.775 160.22H208.287C205.996 160.22 204.115 158.333 204.115 156.035C204.115 153.737 205.996 151.849 208.287 151.849H235.775C238.065 151.849 239.947 153.737 239.947 156.035C239.947 158.333 238.065 160.22 235.775 160.22Z" fill="#231F20"/>
</svg>
