<svg width="285" height="203" viewBox="0 0 285 203" fill="none" xmlns="http://www.w3.org/2000/svg">
<g clip-path="url(#clip0)">
<path d="M262.821 166.206L255.638 139.558C255.463 138.857 254.937 138.331 254.412 137.98C254.061 137.805 253.711 137.63 253.361 137.63C253.361 137.104 253.361 136.402 253.01 135.876C252.66 135.35 252.134 134.824 251.433 134.649L225.504 127.812L148.241 50.3211L141.232 24.374C141.057 23.6728 140.532 23.1468 140.006 22.7962C139.48 22.4455 138.955 22.4455 138.254 22.4455C138.254 22.0949 138.079 21.7443 137.904 21.3936C137.553 20.8677 137.028 20.3417 136.327 20.1664L109.872 13.1537C109.171 12.9784 108.47 13.1537 107.944 13.329C107.419 13.6796 106.893 14.2056 106.718 14.9069L102.163 32.088L84.9932 36.6463C83.5916 36.9969 82.7156 38.3995 83.066 39.802L90.2492 66.4504C90.4244 67.1517 90.95 67.6776 91.4756 68.0282C91.826 68.2036 92.3516 68.3789 92.702 68.3789C92.8772 68.3789 93.2276 68.3789 93.4028 68.2036L98.6589 66.801L97.4324 71.5346C97.082 72.9372 97.958 74.3397 99.3597 74.6903L123.187 81.5277L193.968 152.356L200.45 176.55C200.625 177.251 201.151 177.777 201.677 178.128C202.027 178.303 202.553 178.479 203.078 178.479C203.253 178.479 203.604 178.479 203.779 178.303L208.86 176.901L207.283 182.511C207.108 183.212 207.108 183.914 207.458 184.439C207.809 184.965 208.334 185.491 209.035 185.667L235.665 192.855C235.841 192.855 236.191 193.03 236.366 193.03C236.892 193.03 237.242 192.855 237.768 192.679C238.293 192.329 238.819 191.803 238.994 191.102L243.549 173.92L260.719 169.362C261.42 169.187 261.945 168.661 262.296 168.135C262.821 167.434 262.997 166.732 262.821 166.206Z" fill="#C9D4EA"/>
<path d="M97.6716 167.295C101.951 165.753 106.401 165.753 110.68 165.753C114.616 165.753 118.382 165.753 121.292 164.554C124.201 163.355 126.94 160.444 128.651 157.018C129.85 154.792 131.39 150.338 129.336 145.714C127.796 142.117 124.715 139.034 120.949 137.322C117.526 135.78 113.932 135.609 111.193 136.808C108.112 138.178 104.176 142.117 100.752 145.543C97.1581 149.14 94.0773 152.222 91.1676 153.421C87.0598 155.134 78.8441 158.217 75.0786 159.587C75.7632 162.156 76.619 164.726 77.646 167.123C78.8441 169.864 80.3845 172.433 82.0961 175.002C84.3212 173.632 91.1676 169.692 97.6716 167.295Z" fill="#EE8363"/>
<path d="M161.685 129.957C156.721 118.653 147.65 110.089 136.353 105.636C124.886 101.183 112.391 101.525 101.266 106.492C89.9693 111.459 81.4114 120.537 76.9612 131.841C75.2496 136.123 74.2227 140.747 73.8804 145.2C76.7901 144.172 82.7806 142.117 85.8615 140.404C87.5731 139.548 90.3117 136.808 93.0502 134.239C97.3292 130.299 102.122 125.675 106.058 123.962C109.653 122.421 116.499 121.564 123.345 123.62C129.165 125.161 137.038 129.272 141.317 139.206C149.362 157.361 138.065 172.09 127.453 176.715C120.949 179.626 115.814 179.455 111.193 179.455C108.626 179.455 106.058 179.455 103.662 179.969C98.6984 181.168 94.0772 184.251 92.1944 185.621C100.068 191.444 109.653 194.527 119.409 194.527C125.57 194.527 131.903 193.328 137.894 190.588C149.19 185.621 157.748 176.543 162.199 165.239C166.82 153.764 166.477 141.261 161.685 129.957Z" fill="#EE8363"/>
<path d="M102.806 175.002C105.716 174.317 108.626 174.317 111.364 174.317C115.643 174.317 120.093 174.317 125.57 171.919C134.128 168.151 143.371 155.991 136.867 141.261C133.273 133.04 126.94 129.786 122.147 128.587C116.67 127.045 111.022 127.559 108.283 128.758C105.031 130.128 100.581 134.41 96.6445 138.178C93.3925 141.261 90.654 143.83 88.4289 145.029C83.8076 147.598 74.565 150.681 73.8804 150.852C73.8804 152.051 74.0515 153.421 74.2227 154.62C78.1593 153.25 85.6904 150.51 89.2847 148.968C91.3386 148.112 94.2483 145.029 97.158 142.117C101.095 138.178 105.202 134.067 109.139 132.355C113.076 130.642 118.211 130.813 123.003 133.04C127.967 135.266 131.903 139.206 134.128 144.001C136.182 148.797 136.011 154.278 133.273 159.587C131.048 164.04 127.282 167.808 123.345 169.521C119.58 171.234 115.13 171.234 110.68 171.234C106.743 171.234 102.806 171.234 99.3831 172.433C93.7348 174.488 87.7443 177.914 85.1769 179.455C86.2038 180.654 87.2308 181.682 88.2577 182.709C88.7712 181.853 95.2753 176.543 102.806 175.002Z" fill="#EE8363"/>
<path d="M189.383 144.266L113.771 68.6035" stroke="#231F20" stroke-width="7" stroke-miterlimit="10" stroke-linecap="round" stroke-linejoin="round"/>
<path d="M136.437 40.6611L217.126 121.586" stroke="#231F20" stroke-width="7" stroke-miterlimit="10" stroke-linecap="round" stroke-linejoin="round"/>
<path d="M136.256 40.4794L81.1333 55.3579L73.8804 27.7782L129.003 13.0811L136.256 40.4794Z" stroke="#231F20" stroke-width="7" stroke-miterlimit="10" stroke-linecap="round" stroke-linejoin="round"/>
<path d="M125.014 14.1699L125.92 10.7225L98.359 3.2832L93.1006 22.6979" stroke="#231F20" stroke-width="7" stroke-miterlimit="10" stroke-linecap="round" stroke-linejoin="round"/>
<path d="M217.488 121.767L202.62 176.927L230.181 184.184L244.868 129.025L217.488 121.767Z" stroke="#231F20" stroke-width="7" stroke-miterlimit="10" stroke-linecap="round" stroke-linejoin="round"/>
<path d="M243.962 133.017L247.226 132.11L254.66 159.69L235.44 164.952" stroke="#231F20" stroke-width="7" stroke-miterlimit="10" stroke-linecap="round" stroke-linejoin="round"/>
<path d="M120.843 44.8345L114.316 68.9668L88.5679 62.0718L91.1064 52.9995" stroke="#231F20" stroke-width="7" stroke-miterlimit="10" stroke-linecap="round" stroke-linejoin="round"/>
<path d="M212.956 137.009L188.659 143.359L195.549 169.125L204.796 166.766" stroke="#231F20" stroke-width="7" stroke-miterlimit="10" stroke-linecap="round" stroke-linejoin="round"/>
<path d="M111.414 186.362C136.75 186.362 157.289 165.809 157.289 140.456C157.289 115.103 136.75 94.5503 111.414 94.5503C86.0779 94.5503 65.5391 115.103 65.5391 140.456C65.5391 165.809 86.0779 186.362 111.414 186.362Z" stroke="#231F20" stroke-width="7" stroke-miterlimit="10" stroke-linecap="round" stroke-linejoin="round"/>
<path d="M76.2373 168.58C76.2373 168.58 80.9517 165.858 89.1113 162.955C97.2708 160.052 107.244 162.955 114.134 159.871C121.206 156.786 128.277 146.081 124.107 136.283C119.936 126.666 108.332 122.311 101.26 125.396C94.1883 128.481 85.6661 140.638 80.0451 143.178C74.6054 145.537 66.4458 148.258 66.4458 148.258" stroke="#231F20" stroke-width="7" stroke-miterlimit="10" stroke-linecap="round" stroke-linejoin="round"/>
<path d="M82.7649 175.838C82.7649 175.838 86.754 172.935 94.1883 171.121C101.623 169.488 108.694 172.391 118.848 167.855C129.002 163.319 139.882 149.166 132.266 131.747C124.651 114.328 105.068 114.147 98.3588 117.05C91.6498 119.953 81.8583 131.747 77.1439 134.287C72.4295 137.009 66.4458 138.823 66.4458 138.823" stroke="#231F20" stroke-width="7" stroke-miterlimit="10" stroke-linecap="round" stroke-linejoin="round"/>
<path d="M212.956 49.0943C204.939 49.0943 198.435 42.5696 198.435 34.5266C198.435 26.4837 204.939 19.959 212.956 19.959C220.973 19.959 227.477 26.4837 227.477 34.5266C227.518 42.5286 220.973 49.0943 212.956 49.0943ZM212.956 28.2892C209.561 28.2892 206.78 31.0797 206.78 34.4856C206.78 37.8916 209.561 40.682 212.956 40.682C216.351 40.682 219.133 37.8916 219.133 34.4856C219.174 31.0797 216.392 28.2892 212.956 28.2892Z" fill="#231F20"/>
</g>
<path d="M41.1684 90.3644H9.38563C7.09498 90.3644 5.21338 88.4768 5.21338 86.1788C5.21338 83.8808 7.09498 81.9932 9.38563 81.9932H41.1684C43.4591 81.9932 45.3407 83.8808 45.3407 86.1788C45.3407 88.4768 43.5 90.3644 41.1684 90.3644Z" fill="#231F20"/>
<path d="M52.315 107.241H38.3666C36.0759 107.241 34.1943 105.354 34.1943 103.056C34.1943 100.758 36.0759 98.8701 38.3666 98.8701H52.315C54.6057 98.8701 56.4873 100.758 56.4873 103.056C56.4873 105.354 54.6466 107.241 52.315 107.241Z" fill="#231F20"/>
<path d="M279.924 202.899H252.436C250.145 202.899 248.264 201.011 248.264 198.713C248.264 196.415 250.145 194.527 252.436 194.527H279.924C282.214 194.527 284.096 196.415 284.096 198.713C284.096 201.011 282.214 202.899 279.924 202.899Z" fill="#231F20"/>
<path d="M58.6472 10.8981H46.0077C43.7171 10.8981 41.8354 9.01049 41.8354 6.71249C41.8354 4.4145 43.7171 2.52686 46.0077 2.52686H58.6472C60.9378 2.52686 62.8194 4.4145 62.8194 6.71249C62.8194 9.01049 60.9378 10.8981 58.6472 10.8981Z" fill="#231F20"/>
<path d="M14.5733 177.666C6.55606 177.666 0.0522461 171.141 0.0522461 163.098C0.0522461 155.055 6.55606 148.531 14.5733 148.531C22.5906 148.531 29.0944 155.055 29.0944 163.098C29.0944 171.141 22.5906 177.666 14.5733 177.666ZM14.5733 156.861C11.1783 156.861 8.39676 159.651 8.39676 163.057C8.39676 166.463 11.1783 169.254 14.5733 169.254C18.0093 169.254 20.7499 166.463 20.7499 163.057C20.7908 159.651 18.0093 156.861 14.5733 156.861Z" fill="#231F20"/>
<path d="M249.041 98.7355C246.75 98.7355 244.869 96.8479 244.869 94.5499C244.869 92.2519 246.75 90.3643 249.041 90.3643H274.893C277.183 90.3643 279.065 92.2519 279.065 94.5499C279.065 96.8479 277.183 98.7355 274.893 98.7355H249.041Z" fill="#231F20"/>
<path d="M262.008 111.703C259.717 111.703 257.835 109.816 257.835 107.518V81.5831C257.835 79.2851 259.717 77.3975 262.008 77.3975C264.298 77.3975 266.18 79.2851 266.18 81.5831V107.518C266.18 109.816 264.298 111.703 262.008 111.703Z" fill="#231F20"/>
<defs>
<clipPath id="clip0">
<rect width="200" height="193.966" fill="white" transform="translate(62.8193 0.561523)"/>
</clipPath>
</defs>
</svg>
