<svg width="253" height="243" viewBox="0 0 253 243" fill="none" xmlns="http://www.w3.org/2000/svg">
<path d="M86.7303 140.547C86.7303 131.511 92.6869 124.237 99.7465 124.237C106.806 124.237 112.763 131.511 112.763 140.547C112.763 140.767 112.763 140.767 112.763 140.988L123.573 130.629C117.395 129.307 112.763 122.695 112.763 114.54C112.763 105.504 118.719 98.2307 125.779 98.2307C132.838 98.2307 138.795 105.504 138.795 114.54C138.795 114.981 138.795 115.642 138.795 116.083L146.075 109.25C147.84 103.3 152.252 98.8919 157.547 98.4511L161.959 94.2635L181.594 74.6483C182.917 73.3259 182.917 71.3423 181.594 70.0199L165.489 53.931L170.122 49.3027L186.227 65.3916C186.889 66.0528 187.771 66.2732 188.653 66.2732C189.536 66.2732 190.418 66.0528 191.08 65.3916L200.346 56.135C201.008 55.4738 201.228 54.5922 201.228 53.7106C201.228 52.829 200.787 51.9474 200.346 51.2863L163.062 14.7005C161.739 13.3781 159.753 13.3781 158.429 14.7005L149.164 23.9571C147.84 25.2795 147.84 27.2631 149.164 28.5854L165.268 44.6744L160.636 49.3027L144.531 33.2138C143.869 32.5526 142.987 32.3322 142.104 32.3322C141.222 32.3322 140.339 32.773 139.677 33.2138L75.4791 97.5695L66.2133 106.826L56.9476 116.083C56.2858 116.744 56.0652 117.626 56.0652 118.507C56.0652 119.389 56.5064 120.27 56.9476 120.931L63.7866 127.764L56.9476 134.596C55.6239 135.918 55.6239 137.902 56.9476 139.224L63.7866 146.057L19.4434 190.356C18.1198 191.679 18.1198 193.662 19.4434 194.985C20.1053 195.646 20.9877 195.866 21.8702 195.866C22.7526 195.866 23.6351 195.646 24.2969 194.985L68.8607 150.465L75.6997 157.297C76.3615 157.958 77.244 158.178 78.1264 158.178C79.0089 158.178 79.8913 157.958 80.5532 157.297L87.6128 150.244L93.3487 155.754C94.0106 156.415 94.893 156.636 95.5548 156.636C95.9961 156.636 96.4373 156.636 96.8785 156.415C90.922 154.432 86.7303 148.261 86.7303 140.547Z" fill="#C9D4EA"/>
<path d="M66.6786 131.84L43.4175 108.829L129.164 23.1664L167.249 61.2134L146.952 81.4899" stroke="#231F20" stroke-width="8" stroke-miterlimit="10" stroke-linecap="round" stroke-linejoin="round"/>
<path d="M43.283 127.768L62.311 146.777L71.825 137.272L52.797 118.263L43.283 127.768Z" stroke="#231F20" stroke-width="8" stroke-miterlimit="10" stroke-linecap="round" stroke-linejoin="round"/>
<path d="M4.4209 185.835L52.9956 137.307" stroke="#231F20" stroke-width="8" stroke-miterlimit="10" stroke-linecap="round" stroke-linejoin="round"/>
<path d="M152.881 75.3386L114.797 37.2916" stroke="#231F20" stroke-width="8" stroke-miterlimit="10" stroke-linecap="round" stroke-linejoin="round"/>
<path d="M157.67 32.5073L148.092 42.076" stroke="#231F20" stroke-width="8" stroke-miterlimit="10" stroke-linecap="round" stroke-linejoin="round"/>
<path d="M138.729 13.5736L176.785 51.5923L186.299 42.0876L148.243 4.06894L138.729 13.5736Z" stroke="#231F20" stroke-width="8" stroke-miterlimit="10" stroke-linecap="round" stroke-linejoin="round"/>
<path d="M52.9951 99.2604L67.1342 113.386" stroke="#231F20" stroke-width="8" stroke-miterlimit="10" stroke-linecap="round" stroke-linejoin="round"/>
<path d="M62.3457 89.6917L76.7129 104.045" stroke="#231F20" stroke-width="8" stroke-miterlimit="10" stroke-linecap="round" stroke-linejoin="round"/>
<path d="M8.59316 64.5353C6.30251 64.5353 4.4209 62.6477 4.4209 60.3497C4.4209 58.0517 6.30251 56.1641 8.59316 56.1641H34.4448C36.7355 56.1641 38.6171 58.0517 38.6171 60.3497C38.6171 62.6477 36.7355 64.5353 34.4448 64.5353H8.59316Z" fill="#231F20"/>
<path d="M21.56 77.503C19.2693 77.503 17.3877 75.6154 17.3877 73.3174V47.3828C17.3877 45.0848 19.2693 43.1971 21.56 43.1971C23.8506 43.1971 25.7322 45.0848 25.7322 47.3828V73.3174C25.7322 75.6154 23.8506 77.503 21.56 77.503Z" fill="#231F20"/>
<path d="M183.871 177.736C181.74 176.03 179.944 173.927 178.514 171.398C177.144 169.022 176.231 166.523 175.805 163.994V164.024C173.948 153.665 164.938 145.773 154.072 145.773C143.206 145.773 134.166 153.634 132.34 163.994L132.309 163.964C131.883 166.493 130.97 169.022 129.6 171.368C128.139 173.897 126.374 175.999 124.213 177.705H124.243C119.343 181.758 116.208 187.882 116.208 194.738C116.208 206.957 126.1 216.859 138.305 216.859C141.136 216.859 143.845 216.311 146.31 215.336L146.28 215.366C148.685 214.452 151.302 214.056 154.042 214.056C156.964 214.056 159.673 214.513 162.229 215.519L162.199 215.488C164.573 216.372 167.13 216.859 169.808 216.859C182.014 216.859 191.906 206.957 191.906 194.738C191.906 187.913 188.771 181.788 183.871 177.736Z" fill="#EE8363"/>
<path d="M121.018 148.667C121.018 155.645 115.356 161.312 108.386 161.312C101.416 161.312 95.7544 155.645 95.7544 148.667C95.7544 141.689 101.416 136.022 108.386 136.022C115.356 136.022 121.018 141.689 121.018 148.667Z" fill="#EE8363"/>
<path d="M147.009 121.427C147.009 128.404 141.348 134.072 134.378 134.072C127.377 134.072 121.746 128.404 121.746 121.427C121.746 114.449 127.408 108.751 134.378 108.751C141.348 108.751 147.009 114.418 147.009 121.427Z" fill="#EE8363"/>
<path d="M187.098 148.668C187.098 155.645 192.76 161.313 199.73 161.313C206.7 161.313 212.361 155.645 212.361 148.668C212.361 141.69 206.7 136.023 199.73 136.023C192.729 136.023 187.098 141.69 187.098 148.668Z" fill="#EE8363"/>
<path d="M161.102 121.427C161.102 128.404 166.763 134.072 173.733 134.072C180.704 134.072 186.365 128.404 186.365 121.427C186.365 114.449 180.704 108.751 173.733 108.751C166.763 108.751 161.102 114.418 161.102 121.427Z" fill="#EE8363"/>
<path d="M161.014 211.192C158.031 211.192 155.109 210.674 152.278 209.607C152.156 209.577 152.035 209.546 151.913 209.485C149.965 208.754 147.713 208.388 145.247 208.388C142.599 208.388 140.286 208.784 138.216 209.638C138.064 209.699 137.881 209.759 137.698 209.79C135.02 210.735 132.25 211.192 129.48 211.192C115.57 211.192 104.278 199.857 104.278 185.962C104.278 178.558 107.504 171.581 113.166 166.766C113.257 166.675 113.348 166.584 113.47 166.492C115.266 165.091 116.818 163.262 118.097 161.038C119.284 158.997 120.075 156.833 120.41 154.67C120.44 154.518 120.471 154.396 120.501 154.243C122.814 142.421 133.133 133.859 145.217 133.859C157.3 133.859 167.649 142.391 169.932 154.243C169.993 154.365 170.023 154.518 170.023 154.67C170.389 156.833 171.18 158.997 172.367 161.038C173.646 163.232 175.198 165.091 176.994 166.492C177.085 166.584 177.207 166.675 177.298 166.766C182.959 171.581 186.216 178.558 186.216 185.962C186.216 187.669 184.816 189.07 183.112 189.07C181.407 189.07 180.007 187.669 180.007 185.962C180.007 180.295 177.481 174.963 173.098 171.337C173.037 171.276 172.976 171.246 172.915 171.185C170.602 169.326 168.623 166.949 167.01 164.176C165.519 161.587 164.514 158.905 163.997 156.132C163.966 156.011 163.936 155.889 163.905 155.797C162.292 146.717 154.439 140.136 145.217 140.136C135.994 140.136 128.141 146.717 126.528 155.797C126.497 155.919 126.467 156.041 126.437 156.132C125.919 158.905 124.915 161.587 123.454 164.146C121.84 166.949 119.862 169.295 117.549 171.154C117.488 171.215 117.427 171.276 117.366 171.337C112.983 174.963 110.457 180.295 110.457 185.962C110.457 196.444 118.979 204.976 129.45 204.976C131.641 204.976 133.863 204.58 135.994 203.787C136.116 203.757 136.207 203.726 136.329 203.696C139.038 202.69 141.929 202.203 145.217 202.172C148.26 202.172 151.091 202.63 153.617 203.513C153.77 203.544 153.922 203.605 154.074 203.665C156.296 204.549 158.609 204.976 160.953 204.976C167.528 204.976 173.554 201.654 177.055 196.048C177.968 194.585 179.885 194.159 181.346 195.073C182.807 195.987 183.233 197.907 182.32 199.369C177.724 206.773 169.719 211.192 161.014 211.192Z" fill="#231F20"/>
<path d="M99.5591 155.645C90.8843 155.645 83.8228 148.576 83.8228 139.892C83.8228 131.208 90.8843 124.139 99.5591 124.139C108.234 124.139 115.295 131.208 115.295 139.892C115.295 144.097 113.652 148.058 110.669 151.044C109.451 152.262 107.503 152.262 106.286 151.044C105.068 149.825 105.068 147.844 106.286 146.656C108.082 144.858 109.086 142.451 109.086 139.892C109.086 134.62 104.794 130.355 99.5591 130.355C94.2934 130.355 90.0321 134.651 90.0321 139.892C90.0321 145.132 94.3238 149.429 99.5591 149.429C101.264 149.429 102.664 150.83 102.664 152.537C102.664 154.243 101.294 155.645 99.5591 155.645Z" fill="#231F20"/>
<path d="M125.552 128.374C116.877 128.374 109.815 121.305 109.815 112.621C109.815 103.937 116.877 96.8682 125.552 96.8682C134.227 96.8682 141.288 103.937 141.288 112.621C141.288 116.826 139.644 120.787 136.662 123.773C135.444 124.992 133.496 124.992 132.278 123.773C131.061 122.554 131.061 120.604 132.278 119.385C134.074 117.588 135.079 115.181 135.079 112.621C135.079 107.35 130.817 103.084 125.552 103.084C120.286 103.084 116.025 107.38 116.025 112.621C116.025 117.892 120.286 122.158 125.552 122.158C127.256 122.158 128.656 123.56 128.656 125.266C128.656 126.972 127.256 128.374 125.552 128.374Z" fill="#231F20"/>
<path d="M164.94 128.374C156.266 128.374 149.204 121.305 149.204 112.621C149.204 103.937 156.266 96.8682 164.94 96.8682C173.615 96.8682 180.677 103.937 180.677 112.621C180.677 116.826 179.033 120.787 176.05 123.773C174.833 124.992 172.885 124.992 171.667 123.773C170.45 122.554 170.45 120.604 171.667 119.385C173.463 117.588 174.467 115.181 174.467 112.621C174.467 107.35 170.206 103.084 164.94 103.084C159.675 103.084 155.413 107.38 155.413 112.621C155.413 117.892 159.675 122.158 164.94 122.158C166.645 122.158 168.045 123.56 168.045 125.266C168.045 126.972 166.645 128.374 164.94 128.374Z" fill="#231F20"/>
<path d="M190.936 155.645C182.261 155.645 175.199 148.576 175.199 139.892C175.199 131.208 182.261 124.139 190.936 124.139C199.61 124.139 206.672 131.208 206.672 139.892C206.672 144.097 205.028 148.058 202.045 151.044C200.828 152.262 198.88 152.262 197.662 151.044C196.445 149.825 196.445 147.844 197.662 146.656C199.458 144.858 200.463 142.451 200.463 139.892C200.463 134.62 196.201 130.355 190.936 130.355C185.67 130.355 181.409 134.651 181.409 139.892C181.409 145.163 185.67 149.429 190.936 149.429C192.64 149.429 194.04 150.83 194.04 152.537C194.04 154.243 192.64 155.645 190.936 155.645Z" fill="#231F20"/>
<path d="M222.901 68.7206C220.61 68.7206 218.729 66.833 218.729 64.535C218.729 62.237 220.61 60.3494 222.901 60.3494H248.752C251.043 60.3494 252.925 62.237 252.925 64.535C252.925 66.833 251.043 68.7206 248.752 68.7206H222.901Z" fill="#231F20"/>
<path d="M191.945 190.02C189.655 190.02 187.773 188.132 187.773 185.834C187.773 183.536 189.655 181.649 191.945 181.649H217.797C220.088 181.649 221.969 183.536 221.969 185.834C221.969 188.132 220.088 190.02 217.797 190.02H191.945Z" fill="#231F20"/>
<path d="M61.7265 229.987C59.4358 229.987 57.5542 228.099 57.5542 225.801C57.5542 223.503 59.4358 221.615 61.7265 221.615H87.5781C89.8688 221.615 91.7504 223.503 91.7504 225.801C91.7504 228.099 89.8688 229.987 87.5781 229.987H61.7265Z" fill="#231F20"/>
<path d="M235.868 81.6883C233.577 81.6883 231.695 79.8007 231.695 77.5027V51.5681C231.695 49.2701 233.577 47.3824 235.868 47.3824C238.158 47.3824 240.04 49.2701 240.04 51.5681V77.5027C240.04 79.8007 238.158 81.6883 235.868 81.6883Z" fill="#231F20"/>
<path d="M204.912 202.987C202.621 202.987 200.74 201.1 200.74 198.802V172.867C200.74 170.569 202.621 168.682 204.912 168.682C207.203 168.682 209.084 170.569 209.084 172.867V198.802C209.084 201.1 207.203 202.987 204.912 202.987Z" fill="#231F20"/>
<path d="M74.6933 242.954C72.4026 242.954 70.521 241.067 70.521 238.769V212.834C70.521 210.536 72.4026 208.648 74.6933 208.648C76.9839 208.648 78.8655 210.536 78.8655 212.834V238.769C78.8655 241.067 76.9839 242.954 74.6933 242.954Z" fill="#231F20"/>
</svg>
