<svg width="18" height="10" viewBox="0 0 18 10" fill="none" xmlns="http://www.w3.org/2000/svg">
<path fill-rule="evenodd" clip-rule="evenodd" d="M12.2929 0.292893C12.6834 -0.097631 13.3166 -0.097631 13.7071 0.292893L17.7065 4.29231L17.7071 4.29289C17.803 4.38877 17.8753 4.49927 17.9241 4.61722C17.973 4.73512 18 4.86441 18 5C18 5.13505 17.9732 5.26385 17.9247 5.38138C17.9006 5.43977 17.8708 5.49634 17.8352 5.55023C17.7986 5.60568 17.7559 5.65829 17.7071 5.70711L17.7065 5.70769L13.7071 9.70711C13.3166 10.0976 12.6834 10.0976 12.2929 9.70711C11.9024 9.31658 11.9024 8.68342 12.2929 8.29289L14.5858 6H1C0.447715 6 0 5.55228 0 5C0 4.44772 0.447715 4 1 4H14.5858L12.2929 1.70711C11.9024 1.31658 11.9024 0.683417 12.2929 0.292893Z" fill="white"/>
</svg>
