<svg width="22" height="24" viewBox="0 0 22 24" fill="none" xmlns="http://www.w3.org/2000/svg">
<path d="M15.6637 7.9627C14.1789 8.33412 12.4819 6.84847 11.9516 4.67306C11.4213 2.49764 12.1637 0.42835 13.7016 0.0569378C15.1865 -0.314474 16.8835 1.17117 17.4138 3.34659C17.9441 5.522 17.2016 7.59129 15.6637 7.9627Z" fill="#7269AC"/>
<path d="M19.3755 12.8974C18.1558 12.7913 17.3073 11.1995 17.4664 9.39553C17.6786 7.59153 18.7922 6.26506 20.065 6.37118C21.2847 6.4773 22.1332 8.06906 21.9741 9.87306C21.7619 11.6771 20.5953 13.0035 19.3755 12.8974Z" fill="#7269AC"/>
<path d="M9.1937 9.02277C9.77704 8.43912 10.5195 8.17383 11.2619 8.17383H11.3149C12.0574 8.17383 12.8528 8.49218 13.3832 9.02277L20.1711 15.8143C20.5954 16.2388 20.7545 16.8224 20.5954 17.353L19.4817 21.9161C19.3226 22.6589 18.6332 23.1895 17.8908 23.1895H14.6559C13.8074 23.1895 13.171 22.4997 13.171 21.7038V18.7856C13.171 17.7244 12.3225 16.8755 11.2619 16.8755C10.2013 16.8755 9.35279 17.7244 9.35279 18.7856V21.7038C9.35279 22.5528 8.66339 23.1895 7.86792 23.1895H4.68606C3.94362 23.1895 3.25422 22.6589 3.09513 21.9161L1.98147 17.353C1.87541 16.8224 2.03451 16.2388 2.40572 15.8143L9.1937 9.02277Z" fill="#7269AC"/>
<path d="M6.96721 7.9627C5.42931 7.59129 4.68688 5.522 5.21719 3.34659C5.7475 1.17117 7.44449 -0.314474 8.92936 0.0569378C10.4142 0.42835 11.2097 2.49764 10.6794 4.67306C10.096 6.84847 8.45208 8.33412 6.96721 7.9627Z" fill="#7269AC"/>
<path d="M2.565 6.37118C3.78472 6.26506 4.9514 7.59153 5.16352 9.39553C5.37565 11.1995 4.52715 12.7382 3.25441 12.8974C2.03469 13.0035 0.868008 11.6771 0.655884 9.87306C0.496791 8.06906 1.34529 6.53036 2.565 6.37118Z" fill="#7269AC"/>
</svg>
