<svg width="25" height="22" viewBox="0 0 25 22" fill="none" xmlns="http://www.w3.org/2000/svg">
<path d="M17.2433 7.45683C15.598 7.80464 13.7177 6.41338 13.1301 4.37617C12.5425 2.33897 13.3652 0.401136 15.0692 0.0533205C16.7144 -0.294495 18.5948 1.09677 19.1823 3.13397C19.7699 5.17118 18.9473 7.10901 17.2433 7.45683Z" fill="#7269AC"/>
<path d="M21.3563 12.0781C20.0048 11.9787 19.0647 10.4881 19.241 8.79872C19.476 7.10933 20.7099 5.86713 22.1202 5.9665C23.4716 6.06588 24.4118 7.55652 24.2355 9.24591C24.0005 10.9353 22.7078 12.1775 21.3563 12.0781Z" fill="#7269AC"/>
<path d="M10.0749 8.45126C10.7212 7.90469 11.5439 7.65625 12.3665 7.65625H12.4253C13.2479 7.65625 14.1293 7.95438 14.7169 8.45126L22.2381 14.8113C22.7082 15.2088 22.8845 15.7554 22.7082 16.2523L21.4742 20.5254C21.2979 21.2211 20.5341 21.7179 19.7114 21.7179H16.1271C15.187 21.7179 14.4818 21.072 14.4818 20.3267V17.5938C14.4818 16.6001 13.5417 15.8051 12.3665 15.8051C11.1913 15.8051 10.2512 16.6001 10.2512 17.5938V20.3267C10.2512 21.1217 9.48729 21.7179 8.6059 21.7179H5.08033C4.25769 21.7179 3.49382 21.2211 3.31754 20.5254L2.08359 16.2523C1.96607 15.7554 2.14235 15.2088 2.55367 14.8113L10.0749 8.45126Z" fill="#7269AC"/>
<path d="M7.60727 7.45683C5.90324 7.10901 5.08061 5.17118 5.6682 3.13397C6.2558 1.09677 8.1361 -0.294495 9.78137 0.0533205C11.4266 0.401136 12.308 2.33897 11.7204 4.37617C11.0741 6.41338 9.25253 7.80464 7.60727 7.45683Z" fill="#7269AC"/>
<path d="M2.7313 5.9665C4.08277 5.86713 5.37548 7.10933 5.61052 8.79872C5.84556 10.4881 4.90541 11.9291 3.49518 12.0781C2.14371 12.1775 0.851 10.9353 0.615962 9.24591C0.439684 7.55652 1.37984 6.11557 2.7313 5.9665Z" fill="#7269AC"/>
</svg>
