<svg width="303" height="273" viewBox="0 0 303 273" fill="none" xmlns="http://www.w3.org/2000/svg">
<path d="M237.275 122.772C236.183 122.772 235.052 122.304 234.272 121.406C232.83 119.768 232.986 117.27 234.623 115.826C235.715 114.812 240.823 109.427 234.194 101.427C224.68 89.9545 230.334 79.7697 234.623 75.9845C236.261 74.5407 238.795 74.6968 240.238 76.3747C241.681 78.0137 241.525 80.5501 239.848 81.9939C238.795 82.9695 233.648 88.3546 240.277 96.3932C249.791 107.866 244.137 118.051 239.848 121.836C239.146 122.46 238.21 122.772 237.275 122.772Z" fill="#3A082C"/>
<path d="M35.9108 47.8024C34.8191 47.8024 33.6883 47.3341 32.9085 46.4366C31.4658 44.7976 31.6218 42.3002 33.2594 40.8564C34.3512 39.8418 39.459 34.4567 32.8305 26.4572C23.3167 14.9846 28.9704 4.79978 33.2594 1.01462C34.8971 -0.429205 37.4315 -0.273115 38.8742 1.36582C40.3168 3.00476 40.1609 5.54121 38.4842 6.98503C37.4705 7.96059 32.3626 13.3457 38.9911 21.3452C48.505 32.8178 42.8512 43.0026 38.5622 46.7878C37.7824 47.4512 36.8466 47.8024 35.9108 47.8024Z" fill="#3A082C"/>
<path d="M122.315 244.436H110.696C108.512 244.436 106.719 242.641 106.719 240.455C106.719 238.27 108.512 236.475 110.696 236.475H122.315C124.499 236.475 126.292 238.27 126.292 240.455C126.292 242.641 124.499 244.436 122.315 244.436Z" fill="#3A082C"/>
<path d="M13.8418 186.136C6.19959 186.136 0 179.932 0 172.283C0 164.635 6.19959 158.431 13.8418 158.431C21.4841 158.431 27.6837 164.635 27.6837 172.283C27.6837 179.932 21.4841 186.136 13.8418 186.136ZM13.8418 166.352C10.6056 166.352 7.95419 169.006 7.95419 172.244C7.95419 175.483 10.6056 178.137 13.8418 178.137C17.0781 178.137 19.7295 175.483 19.7295 172.244C19.7685 169.006 17.1171 166.352 13.8418 166.352Z" fill="#3A082C"/>
<path d="M260.977 28.2916C258.794 28.2916 257 26.4966 257 24.3113C257 22.1261 258.794 20.3311 260.977 20.3311H285.619C287.803 20.3311 289.597 22.1261 289.597 24.3113C289.597 26.4966 287.803 28.2916 285.619 28.2916H260.977Z" fill="#3A082C"/>
<path d="M273.298 40.6226C271.115 40.6226 269.321 38.8276 269.321 36.6424V11.9803C269.321 9.79502 271.115 8 273.298 8C275.482 8 277.275 9.79502 277.275 11.9803V36.6424C277.275 38.8276 275.521 40.6226 273.298 40.6226Z" fill="#3A082C"/>
<path d="M203.924 63.2942V24.3109L192.421 32.8178L180.919 24.3109L169.416 32.8178L157.914 24.3109L146.412 32.8178L134.909 24.3109L123.407 32.8178L111.905 24.3109L100.402 32.8178L88.8998 24.3109V63.2942C88.8998 63.2942 83.2461 98.024 83.2461 130.256C83.2461 162.489 88.8998 197.219 88.8998 197.219H203.924C203.924 197.219 209.577 162.489 209.577 130.256C209.577 98.024 203.924 63.2942 203.924 63.2942Z" fill="#A3B7E9"/>
<path d="M128.827 134.51C124.771 131.778 119.274 132.208 115.687 135.798C111.631 139.856 111.631 146.451 115.687 150.509C117.753 152.577 120.443 153.592 123.134 153.553C123.134 156.245 124.109 158.938 126.175 161.006C130.23 165.064 136.82 165.064 140.875 161.006C144.462 157.416 144.891 151.914 142.162 147.856L163.958 126.042C168.013 128.774 173.51 128.344 177.098 124.754C181.153 120.696 181.153 114.101 177.098 110.043C175.031 107.975 172.341 106.96 169.65 106.999C169.65 104.307 168.636 101.614 166.609 99.5459C162.554 95.4876 155.964 95.4876 151.909 99.5459C148.322 103.136 147.893 108.638 150.623 112.696L128.827 134.51Z" fill="white"/>
<path d="M122.276 156.753C118.416 156.753 114.829 155.27 112.1 152.538C110.228 150.665 108.941 148.363 108.317 145.826C105.783 145.202 103.483 143.914 101.611 142.041C95.9962 136.422 95.9962 127.291 101.611 121.672C105.627 117.652 111.593 116.443 116.778 118.355L126.799 108.326C128.359 106.765 130.854 106.765 132.414 108.326C133.974 109.887 133.974 112.384 132.414 113.945L120.366 126.042C119.04 127.369 116.934 127.603 115.336 126.549C112.801 124.871 109.37 125.184 107.226 127.369C104.73 129.866 104.73 133.964 107.226 136.461C108.434 137.671 110.033 138.334 111.749 138.334C111.788 138.334 111.827 138.334 111.827 138.334C112.879 138.334 113.893 138.763 114.634 139.505C115.375 140.246 115.804 141.3 115.804 142.353C115.804 144.109 116.467 145.748 117.675 146.958C120.093 149.377 124.343 149.377 126.76 146.958C128.944 144.773 129.256 141.378 127.579 138.841C126.526 137.281 126.721 135.134 128.086 133.808L149.882 111.994C151.208 110.667 153.313 110.433 154.912 111.487C157.446 113.204 160.877 112.853 163.022 110.706C164.231 109.497 164.894 107.858 164.894 106.141C164.894 104.424 164.231 102.824 163.022 101.575C161.813 100.365 160.254 99.624 158.421 99.7021H158.382C157.329 99.7021 156.315 99.2728 155.575 98.5314C154.834 97.79 154.405 96.7364 154.405 95.6828C154.405 93.9268 153.742 92.2878 152.533 91.0781C150.116 88.6587 145.866 88.6587 143.448 91.0781C141.265 93.2634 140.953 96.6583 142.63 99.1948C143.838 101.029 143.37 103.487 141.538 104.736C139.705 105.946 137.249 105.477 136.001 103.643C132.18 97.9461 132.96 90.2977 137.795 85.4589C140.524 82.7274 144.111 81.2445 147.971 81.2445C151.832 81.2445 155.419 82.7274 158.148 85.4589C160.02 87.332 161.306 89.6343 161.93 92.1708C164.465 92.7951 166.765 94.0828 168.637 95.9559C171.366 98.6875 172.848 102.278 172.848 106.141C172.848 110.004 171.366 113.594 168.637 116.326C164.621 120.345 158.655 121.555 153.469 119.642L135.728 137.359C137.639 142.549 136.43 148.519 132.414 152.538C129.724 155.27 126.097 156.753 122.276 156.753Z" fill="#3A082C"/>
<path d="M192.655 189.922H77.6313C75.6817 189.922 74.0051 188.517 73.6932 186.566C73.6542 186.214 68.0005 151.172 68.0005 118.979C68.0005 99.8971 69.95 79.9567 71.5877 66.5721C71.8606 64.3868 73.8882 62.8259 76.0327 63.0991C78.2162 63.3722 79.7758 65.3624 79.5029 67.5476C77.9042 80.6982 75.9547 100.326 75.9547 118.979C75.9547 144.812 79.6588 172.557 81.0625 181.961H189.224C190.589 172.557 194.332 144.773 194.332 118.979C194.332 93.1463 190.628 65.4014 189.224 55.997H77.6703C75.4868 55.997 73.6932 54.202 73.6932 52.0168V13.0335C73.6932 11.5506 74.551 10.1458 75.8767 9.48246C77.2024 8.81908 78.84 8.93615 80.0098 9.83366L89.1337 16.5845L98.2576 9.83366C99.6613 8.78006 101.572 8.78006 102.976 9.83366L112.099 16.5845L121.223 9.83366C122.627 8.78006 124.538 8.78006 125.941 9.83366L135.065 16.5845L144.189 9.83366C145.593 8.78006 147.503 8.78006 148.907 9.83366L158.031 16.5845L167.155 9.83366C168.559 8.78006 170.469 8.78006 171.873 9.83366L180.997 16.5845L190.121 9.83366C191.329 8.93615 192.928 8.81908 194.254 9.48246C195.579 10.1458 196.437 11.5506 196.437 13.0335V36.9932C196.437 39.1784 194.644 40.9735 192.46 40.9735C190.277 40.9735 188.483 39.1784 188.483 36.9932V20.916L183.336 24.7402C181.933 25.7938 180.022 25.7938 178.618 24.7402L169.494 17.9893L160.37 24.7402C158.967 25.7938 157.056 25.7938 155.653 24.7402L146.529 17.9893L137.405 24.7402C136.001 25.7938 134.09 25.7938 132.687 24.7402L123.563 17.9893L114.439 24.7402C113.035 25.7938 111.125 25.7938 109.721 24.7402L100.597 17.9893L91.4732 24.7402C90.0695 25.7938 88.1589 25.7938 86.7552 24.7402L81.6084 20.916V48.0365H192.655C194.605 48.0365 196.281 49.4413 196.593 51.3924C196.632 51.7436 202.286 86.7856 202.286 118.979C202.286 151.172 196.632 186.214 196.593 186.566C196.281 188.517 194.605 189.922 192.655 189.922Z" fill="#3A082C"/>
<g clip-path="url(#clip0)">
<path d="M207.485 160.065C167.993 160.065 135.97 169.167 135.97 180.367V211.377C135.97 222.578 167.993 231.68 207.485 231.68C246.978 231.68 279 222.609 279 211.377V180.367C279 169.167 246.978 160.065 207.485 160.065ZM161.349 195.857C173.809 192.864 189.913 191.074 207.485 191.074C225.088 191.074 241.191 192.895 253.621 195.857C241.161 198.85 225.058 200.67 207.485 200.67C189.882 200.67 173.779 198.85 161.349 195.857Z" fill="#EE8363"/>
<path d="M270.152 168.303C268.438 168.303 267.03 169.722 267.03 171.45C267.03 177.313 249.702 185.027 220.282 187.68C218.996 182.435 214.281 178.516 208.679 178.516H188.749C183.147 178.516 178.432 182.435 177.146 187.711C147.634 185.027 130.245 177.282 130.245 171.45C130.245 164.292 156.267 154.295 198.638 154.295C222.853 154.295 245.692 157.874 258.244 163.675C259.805 164.384 261.672 163.705 262.376 162.132C263.111 160.558 262.407 158.676 260.846 157.966C247.314 151.703 224.047 148 198.638 148C161.533 148 124 156.053 124 171.45C124 183.792 148.093 191.383 176.748 193.944V203.725C176.473 203.694 176.167 203.694 175.891 203.663C174.177 203.478 172.646 204.774 172.493 206.502C172.34 208.23 173.595 209.773 175.31 209.927C175.799 209.989 176.289 210.02 176.779 210.05V218.659C147.512 216.006 130.276 208.292 130.276 202.46V188.698C130.276 186.971 128.868 185.551 127.153 185.551C125.439 185.551 124.031 186.971 124.031 188.698V202.46C124.031 214.802 148.155 222.424 176.84 224.954C177.361 231.125 182.504 236.031 188.749 236.031H208.679C214.955 236.031 220.098 231.156 220.588 224.954C249.212 222.393 273.275 214.802 273.275 202.46V171.45C273.275 169.691 271.867 168.303 270.152 168.303ZM188.719 184.78H208.648C210.945 184.78 212.934 186.168 213.822 188.143C209.016 188.421 203.934 188.606 198.607 188.606C193.311 188.606 188.259 188.452 183.514 188.174C184.433 186.168 186.422 184.78 188.719 184.78ZM208.679 229.705H188.749C186.086 229.705 183.881 227.885 183.239 225.417C188.321 225.725 193.494 225.879 198.668 225.879C203.873 225.879 209.077 225.725 214.22 225.417C213.516 227.885 211.312 229.705 208.679 229.705ZM267.03 202.46C267.03 208.477 248.631 216.499 217.588 218.906C217.557 218.906 217.557 218.906 217.527 218.906C217.374 218.906 217.22 218.937 217.067 218.937C211.342 219.369 205.189 219.616 198.638 219.616C193.127 219.616 187.923 219.431 182.994 219.122V210.513C186.974 210.76 191.015 210.914 195.117 210.976C195.178 211.069 195.239 211.13 195.301 211.223C196.188 212.118 197.382 212.611 198.607 212.611C199.832 212.611 201.056 212.118 201.913 211.223C202.801 210.328 203.291 209.125 203.291 207.891C203.291 206.626 202.801 205.422 201.913 204.527C200.168 202.799 197.046 202.799 195.301 204.527C195.239 204.589 195.209 204.651 195.178 204.682C191.045 204.62 186.974 204.466 182.994 204.219V194.438C188.137 194.746 193.403 194.931 198.638 194.931C204.975 194.931 211.342 194.684 217.527 194.222C238.589 192.617 257.601 188.359 267.03 181.509V202.46Z" fill="#3A082C"/>
<path d="M163.217 209.989C161.992 209.989 160.768 209.495 159.911 208.6C159.023 207.705 158.533 206.502 158.533 205.268C158.533 204.034 159.023 202.799 159.911 201.935C161.656 200.177 164.778 200.177 166.523 201.935C167.38 202.83 167.901 204.034 167.901 205.268C167.901 206.502 167.411 207.736 166.523 208.6C165.666 209.495 164.442 209.989 163.217 209.989Z" fill="#231F20"/>
<path d="M216.363 212.025C215.108 212.025 213.914 211.532 213.026 210.637C212.169 209.773 211.679 208.539 211.679 207.304C211.679 206.07 212.169 204.836 213.026 203.972C214.771 202.213 217.925 202.213 219.67 203.972C220.557 204.867 221.047 206.07 221.047 207.304C221.047 208.539 220.557 209.773 219.67 210.637C218.782 211.532 217.588 212.025 216.363 212.025Z" fill="#231F20"/>
<path d="M234.058 209.989C232.834 209.989 231.609 209.495 230.752 208.6C229.864 207.705 229.374 206.502 229.374 205.268C229.374 204.034 229.864 202.799 230.752 201.935C232.497 200.177 235.62 200.177 237.365 201.935C238.252 202.83 238.742 204.034 238.742 205.268C238.742 206.502 238.252 207.736 237.365 208.6C236.477 209.495 235.283 209.989 234.058 209.989Z" fill="#231F20"/>
</g>
<defs>
<clipPath id="clip0">
<rect width="155" height="88" fill="white" transform="translate(124 148)"/>
</clipPath>
</defs>
</svg>
