<svg width="322" height="252" viewBox="0 0 322 252" fill="none" xmlns="http://www.w3.org/2000/svg">
<path d="M254.494 66.2766C262.072 66.2766 268.181 72.3908 268.181 79.9742V194.958C268.181 202.542 262.072 208.656 254.494 208.656H64.6659C57.088 208.656 50.9783 202.542 50.9783 194.958V79.9742C50.9783 72.3908 57.088 66.2766 64.6659 66.2766H254.494Z" fill="#A3B7E9"/>
<path d="M147.313 125.191H127.231V149.695H147.313V169.791H171.799V149.695H191.881V125.191H171.799V105.094H147.313V125.191Z" fill="#8BA1D8"/>
<path d="M241.185 199.793H51.3572C41.127 199.793 32.8386 191.451 32.8386 181.261V66.2766C32.8386 56.039 41.127 47.7445 51.3572 47.7445H174.025V20.5863H118.517V34.2839C118.517 36.9381 116.338 39.1184 113.686 39.1184C111.034 39.1184 108.855 36.9381 108.855 34.2839V15.7518C108.855 13.0976 110.986 10.9174 113.686 10.9174H178.904C181.556 10.9174 183.735 13.0976 183.735 15.7518V52.5316C183.735 55.1858 181.556 57.3661 178.904 57.3661H51.3572C46.4789 57.3661 42.5005 61.3474 42.5005 66.2292V181.213C42.5005 186.095 46.4789 190.077 51.3572 190.077H241.185C246.063 190.077 250.042 186.095 250.042 181.213V66.2766C250.042 61.3948 246.063 57.4135 241.185 57.4135H197.138C194.486 57.4135 192.307 55.2332 192.307 52.579C192.307 49.9248 194.486 47.7445 197.138 47.7445H241.185C251.415 47.7445 259.704 56.039 259.704 66.2766V181.261C259.704 191.451 251.415 199.793 241.185 199.793Z" fill="#3A082C"/>
<path d="M158.538 160.928H134.052C131.399 160.928 129.221 158.747 129.221 156.093V140.831H113.97C111.318 140.831 109.139 138.651 109.139 135.997V111.493C109.139 108.839 111.318 106.658 113.97 106.658H134.052C136.704 106.658 138.883 108.839 138.883 111.493C138.883 114.147 136.704 116.327 134.052 116.327H118.801V131.162H134.052C136.704 131.162 138.883 133.343 138.883 135.997V151.259H153.707V135.997C153.707 133.343 155.886 131.162 158.538 131.162H173.789V116.327H158.538C155.886 116.327 153.707 114.147 153.707 111.493V96.2312H134.052C131.399 96.2312 129.221 94.0509 129.221 91.3967C129.221 88.7425 131.399 86.5623 134.052 86.5623H158.538C161.19 86.5623 163.369 88.7425 163.369 91.3967V106.658H178.619C181.272 106.658 183.45 108.839 183.45 111.493V135.997C183.45 138.651 181.272 140.831 178.619 140.831H163.369V156.093C163.369 158.747 161.19 160.928 158.538 160.928Z" fill="white"/>
<path d="M147.706 230.333H115.923C113.633 230.333 111.751 228.445 111.751 226.147C111.751 223.849 113.633 221.962 115.923 221.962H147.706C149.997 221.962 151.879 223.849 151.879 226.147C151.879 228.445 150.038 230.333 147.706 230.333Z" fill="#3A082C"/>
<path d="M177.444 230.333H163.495C161.205 230.333 159.323 228.445 159.323 226.147C159.323 223.849 161.205 221.962 163.495 221.962H177.444C179.734 221.962 181.616 223.849 181.616 226.147C181.616 228.445 179.775 230.333 177.444 230.333Z" fill="#3A082C"/>
<path d="M317.828 39.7636H290.34C288.049 39.7636 286.168 37.876 286.168 35.578C286.168 33.28 288.049 31.3923 290.34 31.3923H317.828C320.118 31.3923 322 33.28 322 35.578C322 37.876 320.118 39.7636 317.828 39.7636Z" fill="#3A082C"/>
<path d="M60.9067 23.4315H48.2672C45.9766 23.4315 44.095 21.5438 44.095 19.2458C44.095 16.9478 45.9766 15.0602 48.2672 15.0602H60.9067C63.1973 15.0602 65.079 16.9478 65.079 19.2458C65.079 21.5438 63.1973 23.4315 60.9067 23.4315Z" fill="#3A082C"/>
<path d="M14.5211 226.968C6.50381 226.968 0 220.444 0 212.401C0 204.358 6.50381 197.833 14.5211 197.833C22.5384 197.833 29.0422 204.358 29.0422 212.401C29.0422 220.444 22.5384 226.968 14.5211 226.968ZM14.5211 206.163C11.126 206.163 8.34451 208.954 8.34451 212.36C8.34451 215.766 11.126 218.556 14.5211 218.556C17.9571 218.556 20.6977 215.766 20.6977 212.36C20.7386 208.954 17.9571 206.163 14.5211 206.163Z" fill="#3A082C"/>
<path d="M230.783 29.1353C222.766 29.1353 216.262 22.6107 216.262 14.5677C216.262 6.52467 222.766 0 230.783 0C238.8 0 245.304 6.52467 245.304 14.5677C245.345 22.5696 238.8 29.1353 230.783 29.1353ZM230.783 8.33024C227.388 8.33024 224.606 11.1207 224.606 14.5266C224.606 17.9326 227.388 20.723 230.783 20.723C234.178 20.723 236.96 17.9326 236.96 14.5266C237.001 11.1207 234.219 8.33024 230.783 8.33024Z" fill="#3A082C"/>
<path d="M268.129 239.033C265.838 239.033 263.957 237.145 263.957 234.847C263.957 232.549 265.838 230.661 268.129 230.661H293.981C296.271 230.661 298.153 232.549 298.153 234.847C298.153 237.145 296.271 239.033 293.981 239.033H268.129Z" fill="#3A082C"/>
<path d="M281.096 252C278.805 252 276.924 250.112 276.924 247.814V221.88C276.924 219.582 278.805 217.694 281.096 217.694C283.387 217.694 285.268 219.582 285.268 221.88V247.814C285.268 250.112 283.387 252 281.096 252Z" fill="#3A082C"/>
</svg>
