<svg width="59" height="145" viewBox="0 0 59 145" fill="none" xmlns="http://www.w3.org/2000/svg">
<path fill-rule="evenodd" clip-rule="evenodd" d="M59 29.5V95V145L29.5 130L0 145V95V29.5V28.5H0.0166306C0.543899 12.6706 13.5423 0 29.5 0C45.4577 0 58.4561 12.6706 58.9834 28.5H59V29.5Z" fill="#4E1953"/>
<path d="M26.8425 103.68V108H13.8825V103.68H18.1425V96.03C17.9625 96.27 17.6825 96.51 17.3025 96.75C16.9225 96.99 16.4925 97.22 16.0125 97.44C15.5525 97.66 15.0825 97.84 14.6025 97.98C14.1225 98.1 13.6825 98.16 13.2825 98.16V93.72C13.6225 93.72 14.0425 93.62 14.5425 93.42C15.0425 93.2 15.5425 92.93 16.0425 92.61C16.5625 92.29 17.0125 91.97 17.3925 91.65C17.7925 91.33 18.0425 91.07 18.1425 90.87H23.0325V103.68H26.8425ZM44.5898 99.21C44.5898 100.97 44.2498 102.54 43.5698 103.92C42.8898 105.28 41.9598 106.35 40.7798 107.13C39.5998 107.91 38.2598 108.3 36.7598 108.3C35.2798 108.3 33.9398 107.91 32.7398 107.13C31.5598 106.35 30.6298 105.28 29.9498 103.92C29.2698 102.54 28.9298 100.97 28.9298 99.21C28.9298 97.45 29.2698 95.89 29.9498 94.53C30.6298 93.15 31.5598 92.07 32.7398 91.29C33.9398 90.49 35.2798 90.09 36.7598 90.09C38.2598 90.09 39.5998 90.49 40.7798 91.29C41.9598 92.07 42.8898 93.15 43.5698 94.53C44.2498 95.89 44.5898 97.45 44.5898 99.21ZM39.7598 99.21C39.7598 98.27 39.6298 97.45 39.3698 96.75C39.1098 96.05 38.7498 95.5 38.2898 95.1C37.8498 94.7 37.3398 94.5 36.7598 94.5C36.1598 94.5 35.6298 94.7 35.1698 95.1C34.7098 95.5 34.3498 96.05 34.0898 96.75C33.8498 97.45 33.7298 98.27 33.7298 99.21C33.7298 100.15 33.8498 100.97 34.0898 101.67C34.3498 102.37 34.7098 102.92 35.1698 103.32C35.6298 103.7 36.1598 103.89 36.7598 103.89C37.3398 103.89 37.8498 103.7 38.2898 103.32C38.7498 102.92 39.1098 102.37 39.3698 101.67C39.6298 100.97 39.7598 100.15 39.7598 99.21Z" fill="#F2F5FC"/>
<path d="M12.9814 72.972C12.9534 72.9253 12.8554 72.8553 12.6874 72.762C12.5194 72.6593 12.3094 72.552 12.0574 72.44C11.8054 72.328 11.5301 72.23 11.2314 72.146C10.9328 72.062 10.6341 72.02 10.3354 72.02C9.94343 72.02 9.6401 72.09 9.42543 72.23C9.21076 72.3607 9.10343 72.566 9.10343 72.846C9.10343 73.07 9.18276 73.2473 9.34143 73.378C9.50943 73.5087 9.74743 73.6253 10.0554 73.728C10.3634 73.8213 10.7414 73.9333 11.1894 74.064C11.8241 74.232 12.3748 74.4373 12.8414 74.68C13.3081 74.9133 13.6628 75.2167 13.9054 75.59C14.1574 75.9633 14.2834 76.458 14.2834 77.074C14.2834 77.634 14.1808 78.11 13.9754 78.502C13.7701 78.8847 13.4901 79.1973 13.1354 79.44C12.7901 79.6733 12.3934 79.846 11.9454 79.958C11.4974 80.0607 11.0354 80.112 10.5594 80.112C10.0741 80.112 9.57476 80.0653 9.06143 79.972C8.55743 79.8693 8.0721 79.7293 7.60543 79.552C7.13876 79.3653 6.70943 79.1413 6.31743 78.88L7.32543 76.878C7.36276 76.9247 7.4841 77.0133 7.68943 77.144C7.89476 77.2653 8.14676 77.396 8.44543 77.536C8.75343 77.6667 9.0941 77.7833 9.46743 77.886C9.84076 77.9887 10.2188 78.04 10.6014 78.04C11.0121 78.04 11.3154 77.9747 11.5114 77.844C11.7168 77.7133 11.8194 77.5313 11.8194 77.298C11.8194 77.046 11.7121 76.85 11.4974 76.71C11.2921 76.57 11.0074 76.444 10.6434 76.332C10.2888 76.22 9.8781 76.094 9.41143 75.954C8.80476 75.7673 8.30076 75.5573 7.89943 75.324C7.50743 75.0907 7.21343 74.806 7.01743 74.47C6.83076 74.134 6.73743 73.714 6.73743 73.21C6.73743 72.51 6.90076 71.922 7.22743 71.446C7.56343 70.9607 8.01143 70.5967 8.57143 70.354C9.13143 70.102 9.74276 69.976 10.4054 69.976C10.8721 69.976 11.3201 70.032 11.7494 70.144C12.1881 70.256 12.5941 70.396 12.9674 70.564C13.3501 70.732 13.6908 70.9 13.9894 71.068L12.9814 72.972ZM23.2047 72.076H20.1807V80H17.8847V72.076H14.8467V70.06H23.2047V72.076ZM28.4886 80.084C27.742 80.084 27.0653 79.944 26.4586 79.664C25.8613 79.3747 25.3433 78.992 24.9046 78.516C24.4753 78.0307 24.144 77.4893 23.9106 76.892C23.6773 76.2853 23.5606 75.66 23.5606 75.016C23.5606 74.3533 23.682 73.7233 23.9246 73.126C24.1766 72.5287 24.522 71.9967 24.9606 71.53C25.4086 71.054 25.936 70.6807 26.5426 70.41C27.1493 70.1393 27.812 70.004 28.5306 70.004C29.268 70.004 29.9353 70.1487 30.5326 70.438C31.1393 70.718 31.6573 71.1007 32.0866 71.586C32.5253 72.0713 32.8613 72.6173 33.0946 73.224C33.328 73.8213 33.4446 74.4327 33.4446 75.058C33.4446 75.7207 33.3233 76.3507 33.0806 76.948C32.838 77.5453 32.4926 78.082 32.0446 78.558C31.5966 79.0247 31.0693 79.398 30.4626 79.678C29.8653 79.9487 29.2073 80.084 28.4886 80.084ZM25.8986 75.044C25.8986 75.4267 25.9546 75.8 26.0666 76.164C26.1786 76.5187 26.342 76.836 26.5566 77.116C26.7806 77.396 27.056 77.62 27.3826 77.788C27.7093 77.956 28.0826 78.04 28.5026 78.04C28.9413 78.04 29.324 77.956 29.6506 77.788C29.9773 77.6107 30.248 77.3773 30.4626 77.088C30.6773 76.7987 30.836 76.4767 30.9386 76.122C31.0506 75.758 31.1066 75.3893 31.1066 75.016C31.1066 74.6333 31.0506 74.2647 30.9386 73.91C30.8266 73.5553 30.6586 73.238 30.4346 72.958C30.2106 72.6687 29.9353 72.4447 29.6086 72.286C29.282 72.1273 28.9133 72.048 28.5026 72.048C28.064 72.048 27.6813 72.132 27.3546 72.3C27.0373 72.468 26.7666 72.6967 26.5426 72.986C26.328 73.266 26.1646 73.588 26.0526 73.952C25.95 74.3067 25.8986 74.6707 25.8986 75.044ZM34.7713 80V70.06H39.2513C39.718 70.06 40.1473 70.158 40.5393 70.354C40.9407 70.5407 41.286 70.7973 41.5753 71.124C41.8647 71.4413 42.0887 71.8007 42.2473 72.202C42.4153 72.6033 42.4993 73.0093 42.4993 73.42C42.4993 73.8307 42.434 74.2227 42.3033 74.596C42.1727 74.96 41.986 75.2913 41.7433 75.59C41.5007 75.8793 41.2113 76.1173 40.8753 76.304L43.0593 80H40.5253L38.6213 76.794H37.0673V80H34.7713ZM37.0673 74.792H39.1673C39.354 74.792 39.5173 74.736 39.6573 74.624C39.8067 74.5027 39.928 74.3393 40.0213 74.134C40.1147 73.9287 40.1613 73.6907 40.1613 73.42C40.1613 73.1493 40.1053 72.916 39.9933 72.72C39.8907 72.5147 39.76 72.356 39.6013 72.244C39.4427 72.132 39.2747 72.076 39.0973 72.076H37.0673V74.792ZM45.1434 70.06L47.2854 74.456L49.4554 70.06H51.9614L48.4194 76.612V80H46.1374V76.584L42.6514 70.06H45.1434Z" fill="#F2F5FC"/>
<path d="M27.5388 30.8927C26.1261 30.8927 23.2459 30.7556 20.9074 29.7406C18.8775 28.8628 17.8076 26.4489 17.8008 22.7663C17.8008 21.2301 18.9323 19.9203 20.441 19.6871L26.1535 18.487C26.1878 18.4802 26.2221 18.4733 26.2564 18.4664C26.4279 18.4459 26.5307 18.2813 26.5719 18.1441C27.4291 14.9141 31.2009 10.0794 38.0724 9.99023C38.2781 9.99023 38.4701 10.0039 38.6621 10.0382C39.7799 10.2303 45.5542 11.4921 48.9831 17.2115C49.374 17.863 49.1614 18.7065 48.5099 19.0905C47.8584 19.4814 47.0149 19.2688 46.6309 18.6173C43.826 13.9266 39.1147 12.8979 38.2027 12.7333C38.1752 12.7265 38.1478 12.7265 38.1135 12.7265C32.8124 12.7951 29.8499 16.512 29.2327 18.8436C28.9035 20.078 27.9091 20.9901 26.6885 21.1753L20.9759 22.3754C20.9416 22.3822 20.9074 22.3891 20.8731 22.3959C20.6879 22.4234 20.5507 22.5742 20.5507 22.7594C20.5507 25.1596 21.0994 26.8261 22.0046 27.2238C24.5557 28.3279 28.204 28.1359 28.2383 28.1359C29.0064 28.1016 29.6442 28.6708 29.6853 29.4252C29.7264 30.1795 29.1504 30.831 28.396 30.8722C28.3549 30.8722 28.0394 30.8927 27.5388 30.8927Z" fill="#F2F5FC"/>
<path d="M18.192 40.404C15.3803 40.404 12.2669 39.3548 10.0724 37.5649C8.0699 35.9396 6.97266 33.8274 6.97266 31.6192C6.97266 30.8648 7.58986 30.2476 8.34421 30.2476C9.09857 30.2476 9.71576 30.8648 9.71576 31.6192C9.71576 33.3679 10.8542 34.664 11.8074 35.439C13.9127 37.1534 17.2045 38.0312 19.639 37.5237C26.339 36.1247 26.9288 29.6716 26.9493 29.3973C27.0111 28.6429 27.6831 28.0737 28.4169 28.1354C29.1713 28.1903 29.7336 28.8418 29.6787 29.5961C29.4593 32.6273 27.1962 38.7444 20.1944 40.2051C19.5635 40.3423 18.8846 40.404 18.192 40.404Z" fill="#F2F5FC"/>
<path d="M49.0025 17.2144C49.7843 18.4626 50.374 19.7861 50.8472 21.1371C51.3204 22.4949 51.6496 23.8939 51.8416 25.334C52.0199 26.7673 52.0816 28.2417 51.869 29.7504C51.7593 30.5048 51.5673 31.266 51.2518 32.0272C50.9364 32.7816 50.4769 33.5359 49.8186 34.16C49.1671 34.7841 48.303 35.2367 47.4389 35.4218C47.2195 35.4767 47.0069 35.511 46.7943 35.5315C46.5817 35.559 46.3691 35.5727 46.1428 35.559L45.4776 35.5247C45.2581 35.511 45.0387 35.4287 44.8261 35.3807C43.9483 35.1749 43.1871 34.6812 42.5699 34.1394C42.2887 33.8445 41.9733 33.5634 41.7538 33.2342L41.3972 32.761L41.1023 32.2604C40.3548 30.9163 39.9434 29.4967 39.7651 28.0634C39.6005 26.6302 39.6416 25.1626 40.0737 23.7499C40.1628 23.4482 40.4851 23.2767 40.7869 23.3727C41.0406 23.4482 41.2052 23.695 41.1915 23.9488V23.9831C41.1229 25.2243 41.3081 26.4999 41.6304 27.7068C41.9527 28.9138 42.4465 30.0796 43.0979 31.0466C43.7426 32.0135 44.5792 32.7542 45.457 32.9187C45.5667 32.9325 45.6696 32.9873 45.7862 32.9805C45.9028 32.9805 46.0194 32.9805 46.1291 32.9805C46.2388 32.9942 46.3622 32.9805 46.4857 32.953C46.6091 32.9393 46.7257 32.9187 46.8354 32.8845C47.2812 32.7679 47.6446 32.5484 47.9601 32.233C48.591 31.6089 48.9476 30.5185 49.0848 29.3596C49.2425 28.2006 49.1945 26.9525 49.0231 25.7181C48.6596 23.2493 47.8709 20.7736 46.664 18.6271L46.6434 18.6134C46.2731 17.9551 46.5063 17.1184 47.1646 16.7481C47.8092 16.3846 48.6184 16.5972 49.0025 17.2144Z" fill="#F2F5FC"/>
<path d="M19.5971 25.0359C19.4463 25.0359 19.2885 25.0222 19.1308 25.0017C18.3833 24.8988 17.8553 24.2062 17.9581 23.4587C18.061 22.7112 18.7536 22.19 19.5011 22.286C20.2829 22.3957 20.7767 20.5852 20.7767 20.5647C20.9481 19.8309 21.675 19.3646 22.4157 19.5292C23.1495 19.6937 23.6158 20.4207 23.4581 21.1613C23.0329 23.0952 21.6613 25.0359 19.5971 25.0359Z" fill="#F2F5FC"/>
<path d="M28.8973 51.5348C16.7453 51.5348 6.86328 41.6528 6.86328 29.5008C6.86328 27.1829 7.21989 24.913 7.91938 22.7528C10.8476 13.6114 19.2827 7.4668 28.8973 7.4668C32.6965 7.4668 36.4409 8.45432 39.7326 10.3196C39.8697 10.3951 39.9932 10.4911 40.096 10.6077C40.6035 11.17 40.5624 12.0341 40.0069 12.5484C39.5543 12.953 38.9096 13.0079 38.409 12.7199C38.4022 12.7199 38.3953 12.713 38.3885 12.7061C35.5082 11.074 32.2302 10.2099 28.8973 10.2099C20.476 10.2099 13.097 15.5864 10.5253 23.5963C9.91499 25.4822 9.60639 27.4709 9.60639 29.5008C9.60639 40.1372 18.2609 48.7917 28.8973 48.7917C38.4708 48.7917 46.4806 41.9408 47.9413 32.4977C48.0579 31.7502 48.7574 31.2427 49.5049 31.3524C50.2524 31.469 50.7667 32.1685 50.6502 32.916C48.9769 43.7033 39.8286 51.5348 28.8973 51.5348Z" fill="#F2F5FC"/>
<path d="M27.972 28.1785C28.356 28.1923 28.8292 28.158 29.2681 28.1168C29.7139 28.0757 30.1596 28.0071 30.6054 27.9248C31.49 27.7465 32.3678 27.4859 33.1908 27.0059C32.6901 27.8151 31.9701 28.5283 31.202 29.1592C30.8111 29.4747 30.4065 29.7695 29.9882 30.0439C29.5561 30.325 29.1584 30.5788 28.6509 30.8394L28.5618 30.8874C27.8554 31.244 26.9982 30.9559 26.6416 30.2564C26.285 29.5501 26.573 28.6929 27.2725 28.3363C27.4988 28.2197 27.7388 28.1717 27.972 28.1785Z" fill="#F2F5FC"/>
</svg>
