<svg width="54" height="54" viewBox="0 0 54 54" fill="none" xmlns="http://www.w3.org/2000/svg">
<circle cx="27" cy="27" r="27" fill="#6F69A8"/>
<path d="M25.3125 16.8047C25.3125 17.8906 24.9961 18.7969 24.3633 19.5234C23.7305 20.2422 22.8398 20.7266 21.6914 20.9766V21.0703C23.0664 21.2422 24.0977 21.6719 24.7852 22.3594C25.4727 23.0391 25.8164 23.9453 25.8164 25.0781C25.8164 26.7266 25.2344 28 24.0703 28.8984C22.9062 29.7891 21.25 30.2344 19.1016 30.2344C17.2031 30.2344 15.6016 29.9258 14.2969 29.3086V26.8594C15.0234 27.2188 15.793 27.4961 16.6055 27.6914C17.418 27.8867 18.1992 27.9844 18.9492 27.9844C20.2773 27.9844 21.2695 27.7383 21.9258 27.2461C22.582 26.7539 22.9102 25.9922 22.9102 24.9609C22.9102 24.0469 22.5469 23.375 21.8203 22.9453C21.0938 22.5156 19.9531 22.3008 18.3984 22.3008H16.9102V20.0625H18.4219C21.1562 20.0625 22.5234 19.1172 22.5234 17.2266C22.5234 16.4922 22.2852 15.9258 21.8086 15.5273C21.332 15.1289 20.6289 14.9297 19.6992 14.9297C19.0508 14.9297 18.4258 15.0234 17.8242 15.2109C17.2227 15.3906 16.5117 15.7461 15.6914 16.2773L14.3438 14.3555C15.9141 13.1992 17.7383 12.6211 19.8164 12.6211C21.543 12.6211 22.8906 12.9922 23.8594 13.7344C24.8281 14.4766 25.3125 15.5 25.3125 16.8047ZM39.668 21.4336C39.668 24.4102 39.1875 26.6211 38.2266 28.0664C37.2734 29.5117 35.8125 30.2344 33.8438 30.2344C31.9375 30.2344 30.4922 29.4883 29.5078 27.9961C28.5234 26.5039 28.0312 24.3164 28.0312 21.4336C28.0312 18.4102 28.5078 16.1836 29.4609 14.7539C30.4219 13.3164 31.8828 12.5977 33.8438 12.5977C35.7578 12.5977 37.207 13.3477 38.1914 14.8477C39.1758 16.3477 39.668 18.543 39.668 21.4336ZM30.8203 21.4336C30.8203 23.7695 31.0586 25.4375 31.5352 26.4375C32.0195 27.4375 32.7891 27.9375 33.8438 27.9375C34.8984 27.9375 35.668 27.4297 36.1523 26.4141C36.6445 25.3984 36.8906 23.7383 36.8906 21.4336C36.8906 19.1367 36.6445 17.4766 36.1523 16.4531C35.668 15.4219 34.8984 14.9062 33.8438 14.9062C32.7891 14.9062 32.0195 15.4102 31.5352 16.418C31.0586 17.4258 30.8203 19.0977 30.8203 21.4336Z" fill="white"/>
<path d="M18.0234 43.1367C17.0801 43.1367 16.3441 42.7949 15.8154 42.1113C15.2868 41.4277 15.0225 40.4684 15.0225 39.2334C15.0225 37.9938 15.2891 37.0299 15.8223 36.3418C16.36 35.6491 17.1029 35.3027 18.0508 35.3027C19.0443 35.3027 19.8008 35.6696 20.3203 36.4033H20.4023C20.3249 35.861 20.2861 35.4326 20.2861 35.1182V32.3633H21.8994V43H20.6416L20.3613 42.0088H20.2861C19.7712 42.7607 19.0169 43.1367 18.0234 43.1367ZM18.4541 41.8379C19.1149 41.8379 19.5957 41.6533 19.8965 41.2842C20.1973 40.9105 20.3522 40.3066 20.3613 39.4727V39.2471C20.3613 38.2946 20.2064 37.6178 19.8965 37.2168C19.5866 36.8158 19.1012 36.6152 18.4404 36.6152C17.8753 36.6152 17.4401 36.8454 17.1348 37.3057C16.8294 37.7614 16.6768 38.4131 16.6768 39.2607C16.6768 40.0993 16.8249 40.7396 17.1211 41.1816C17.4173 41.6191 17.8617 41.8379 18.4541 41.8379ZM28.9268 43L28.6055 41.9473H28.5508C28.1862 42.4076 27.8193 42.722 27.4502 42.8906C27.0811 43.0547 26.6071 43.1367 26.0283 43.1367C25.2855 43.1367 24.7044 42.9362 24.2852 42.5352C23.8704 42.1341 23.6631 41.5667 23.6631 40.833C23.6631 40.0537 23.9525 39.4658 24.5312 39.0693C25.11 38.6729 25.9919 38.4564 27.1768 38.4199L28.4824 38.3789V37.9756C28.4824 37.4925 28.3685 37.1325 28.1406 36.8955C27.9173 36.654 27.5687 36.5332 27.0947 36.5332C26.7074 36.5332 26.3359 36.5902 25.9805 36.7041C25.625 36.818 25.2832 36.9525 24.9551 37.1074L24.4355 35.959C24.8457 35.7448 25.2946 35.583 25.7822 35.4736C26.2699 35.3597 26.7301 35.3027 27.1631 35.3027C28.1247 35.3027 28.8493 35.5124 29.3369 35.9316C29.8291 36.3509 30.0752 37.0094 30.0752 37.9072V43H28.9268ZM26.5342 41.9062C27.1175 41.9062 27.5846 41.7445 27.9355 41.4209C28.291 41.0928 28.4688 40.6348 28.4688 40.0469V39.3906L27.498 39.4316C26.7415 39.459 26.1901 39.5866 25.8438 39.8145C25.502 40.0378 25.3311 40.3818 25.3311 40.8467C25.3311 41.1839 25.4313 41.446 25.6318 41.6328C25.8324 41.8151 26.1331 41.9062 26.5342 41.9062ZM31.1689 35.4395H32.9189L34.457 39.7256C34.6895 40.3363 34.8444 40.9105 34.9219 41.4482H34.9766C35.0176 41.1976 35.0928 40.8945 35.2021 40.5391C35.3115 40.179 35.8903 38.4792 36.9385 35.4395H38.6748L35.4414 44.0049C34.8535 45.5771 33.8737 46.3633 32.502 46.3633C32.1465 46.3633 31.8001 46.3245 31.4629 46.2471V44.9756C31.7044 45.0303 31.9801 45.0576 32.29 45.0576C33.0648 45.0576 33.6094 44.6087 33.9238 43.7109L34.2041 43L31.1689 35.4395Z" fill="white"/>
</svg>
