<svg width="54" height="54" viewBox="0 0 54 54" fill="none" xmlns="http://www.w3.org/2000/svg">
<circle cx="27" cy="27" r="27" fill="#6F69A8"/>
<path d="M11.734 35.042C11.734 35.042 14.216 38.408 19.18 38.408C24.416 38.408 27.816 34.702 27.816 30.486C27.816 26.1 24.416 22.598 19.248 22.598C17.446 22.598 16.154 23.312 16.154 23.312H16.086C16.086 23.312 16.188 22.802 16.256 22.054L16.732 17.668C16.8 17.158 17.004 16.92 17.48 16.92H22.512C22.988 16.92 23.26 17.158 23.26 17.668V19.198H26.354V16.172C26.354 14.642 25.708 13.996 24.178 13.996H15.814C14.284 13.996 13.774 14.642 13.638 16.172L12.686 26.1L14.08 26.746C14.08 26.746 15.984 25.522 18.636 25.522C21.764 25.522 24.348 27.426 24.348 30.418C24.348 33.104 22.206 35.212 19.18 35.212C15.508 35.212 13.57 32.56 13.57 32.56L11.734 35.042Z" fill="white"/>
<path d="M32.2 29.56C33.88 29.56 35.24 28.24 35.24 26.6C35.24 24.98 33.88 23.64 32.2 23.64C30.52 23.64 29.18 24.98 29.18 26.6C29.18 28.24 30.52 29.56 32.2 29.56ZM29.48 38H31.36L42.16 23.88H40.28L29.48 38ZM32.2 28.08C31.36 28.08 30.72 27.44 30.72 26.6C30.72 25.78 31.36 25.1 32.2 25.1C33.04 25.1 33.68 25.78 33.68 26.6C33.68 27.44 33.04 28.08 32.2 28.08ZM36.42 35.28C36.42 36.92 37.76 38.24 39.46 38.24C41.12 38.24 42.5 36.92 42.5 35.28C42.5 33.66 41.12 32.32 39.46 32.32C37.76 32.32 36.42 33.66 36.42 35.28ZM37.98 35.28C37.98 34.46 38.62 33.78 39.46 33.78C40.28 33.78 40.94 34.46 40.94 35.28C40.94 36.12 40.28 36.76 39.46 36.76C38.62 36.76 37.98 36.12 37.98 35.28Z" fill="white"/>
</svg>
