<svg width="179" height="242" viewBox="0 0 179 242" fill="none" xmlns="http://www.w3.org/2000/svg">
<path d="M174.891 21H4.02765V238.002H174.891V21Z" fill="white"/>
<path d="M175 164H4V231H175V164Z" fill="#7B73B1"/>
<path d="M0 17V238H179V234.048V17H0ZM8.05531 24.9017H170.947V230.098H8.05531V24.9017Z" fill="#3A082C"/>
<path d="M132.086 4.02966H46.914V37.3443H132.086V4.02966Z" fill="#EE8363"/>
<path d="M132.086 4.02966H46.914V17.018H132.086V4.02966Z" fill="white"/>
<path d="M42.8864 0V41.374H136.114V37.3443V0H42.8864ZM50.9417 8.05697H128.061V33.3146H50.9417V8.05697Z" fill="#3A082C"/>
<path d="M30.3134 97.6691H19.2725V108.713H30.3134V97.6691Z" fill="#EE8363"/>
<path d="M19.3049 102.476L24.083 107.256L32.8208 99.4686L30.5624 96.9315L24.2187 102.585L21.7071 100.073L19.3049 102.476Z" fill="#3A082C"/>
<path d="M30.3134 66.5699H19.2725V77.6143H30.3134V66.5699Z" fill="#EE8363"/>
<path d="M19.3049 71.3767L24.083 76.1593L32.8208 68.3694L30.5624 65.8323L24.2187 71.4882L21.7071 68.9733L19.3049 71.3767Z" fill="#3A082C"/>
<path d="M30.3134 127.956H19.2725V139H30.3134V127.956Z" fill="#EE8363"/>
<path d="M19.3049 132.762L24.083 137.545L32.8208 129.755L30.5624 127.218L24.2187 132.874L21.7071 130.361L19.3049 132.765V132.762Z" fill="#3A082C"/>
<path d="M43.9278 75.7603L45.8887 69.3233H47.8734L44.8607 77.8824H43.0008L40 69.3233H41.9787L43.9278 75.7603Z" fill="#7B73B1"/>
<path d="M51.2783 78C50.3354 78 49.5669 77.7139 48.9727 77.1417C48.3824 76.5696 48.0873 75.8073 48.0873 74.855V74.6904C48.0873 74.0516 48.2121 73.4814 48.4617 72.9798C48.7112 72.4742 49.0638 72.0862 49.5194 71.8158C49.9789 71.5415 50.5018 71.4043 51.0881 71.4043C51.9675 71.4043 52.6588 71.6786 53.1619 72.2273C53.669 72.776 53.9225 73.5539 53.9225 74.5611V75.2547H49.8284C49.8838 75.6702 50.0502 76.0033 50.3275 76.2541C50.6088 76.5049 50.9633 76.6303 51.3912 76.6303C52.0527 76.6303 52.5697 76.3932 52.9421 75.919L53.7859 76.8537C53.5284 77.2142 53.1798 77.4964 52.74 77.7002C52.3003 77.9001 51.8131 78 51.2783 78ZM51.0822 72.7799C50.7415 72.7799 50.4642 72.8935 50.2503 73.1208C50.0403 73.3481 49.9056 73.6734 49.8462 74.0967H52.2349V73.9615C52.227 73.5852 52.124 73.2952 51.926 73.0914C51.7279 72.8837 51.4466 72.7799 51.0822 72.7799Z" fill="#7B73B1"/>
<path d="M56.959 69.9582V71.5219H58.0583V72.7681H56.959V75.9425C56.959 76.1777 57.0045 76.3462 57.0956 76.4481C57.1868 76.55 57.3611 76.6009 57.6186 76.6009C57.8087 76.6009 57.9771 76.5872 58.1236 76.5598V77.8472C57.7869 77.9491 57.4403 78 57.0838 78C55.8795 78 55.2655 77.3984 55.2417 76.1953V72.7681H54.3028V71.5219H55.2417V69.9582H56.959Z" fill="#7B73B1"/>
<path d="M65.3553 75.7603L67.3162 69.3233H69.3009L66.2882 77.8824H64.4283L61.4275 69.3233H63.4062L65.3553 75.7603Z" fill="#7B73B1"/>
<path d="M71.8204 77.8824H70.0971V71.5219H71.8204V77.8824ZM69.9961 69.8759C69.9961 69.6212 70.0813 69.4115 70.2516 69.2469C70.4259 69.0823 70.6616 69 70.9587 69C71.2519 69 71.4856 69.0823 71.6599 69.2469C71.8342 69.4115 71.9214 69.6212 71.9214 69.8759C71.9214 70.1346 71.8322 70.3462 71.654 70.5108C71.4797 70.6754 71.2479 70.7577 70.9587 70.7577C70.6696 70.7577 70.4358 70.6754 70.2576 70.5108C70.0833 70.3462 69.9961 70.1346 69.9961 69.8759Z" fill="#7B73B1"/>
<path d="M76.7227 76.1248C76.7227 75.917 76.6177 75.7544 76.4077 75.6368C76.2017 75.5153 75.869 75.4076 75.4094 75.3135C73.8803 74.9961 73.1158 74.3534 73.1158 73.3854C73.1158 72.821 73.3515 72.3508 73.8229 71.9745C74.2983 71.5944 74.9182 71.4043 75.6828 71.4043C76.4988 71.4043 77.1505 71.5944 77.6378 71.9745C78.129 72.3547 78.3746 72.8485 78.3746 73.4559H76.6573C76.6573 73.2129 76.5781 73.0131 76.4196 72.8563C76.2612 72.6956 76.0136 72.6153 75.6768 72.6153C75.3876 72.6153 75.1638 72.6799 75.0054 72.8093C74.8469 72.9386 74.7677 73.1032 74.7677 73.3031C74.7677 73.4912 74.8568 73.644 75.0351 73.7616C75.2173 73.8752 75.5223 73.9752 75.9502 74.0614C76.378 74.1437 76.7385 74.2378 77.0317 74.3436C77.9388 74.6728 78.3924 75.243 78.3924 76.0542C78.3924 76.6342 78.1409 77.1045 77.6378 77.4651C77.1347 77.8217 76.485 78 75.6887 78C75.15 78 74.6706 77.9059 74.2507 77.7178C73.8348 77.5258 73.5079 77.2652 73.2703 76.936C73.0326 76.6029 72.9137 76.2443 72.9137 75.8602H74.5419C74.5577 76.162 74.6706 76.3932 74.8806 76.5539C75.0905 76.7146 75.3718 76.7949 75.7244 76.7949C76.0532 76.7949 76.3008 76.7342 76.4671 76.6127C76.6375 76.4873 76.7227 76.3246 76.7227 76.1248Z" fill="#7B73B1"/>
<path d="M81.316 77.8824H79.5927V71.5219H81.316V77.8824ZM79.4917 69.8759C79.4917 69.6212 79.5769 69.4115 79.7472 69.2469C79.9215 69.0823 80.1572 69 80.4543 69C80.7475 69 80.9812 69.0823 81.1555 69.2469C81.3298 69.4115 81.417 69.6212 81.417 69.8759C81.417 70.1346 81.3278 70.3462 81.1496 70.5108C80.9753 70.6754 80.7435 70.7577 80.4543 70.7577C80.1652 70.7577 79.9314 70.6754 79.7532 70.5108C79.5789 70.3462 79.4917 70.1346 79.4917 69.8759Z" fill="#7B73B1"/>
<path d="M84.7921 69.9582V71.5219H85.8914V72.7681H84.7921V75.9425C84.7921 76.1777 84.8377 76.3462 84.9288 76.4481C85.0199 76.55 85.1942 76.6009 85.4517 76.6009C85.6419 76.6009 85.8102 76.5872 85.9568 76.5598V77.8472C85.6201 77.9491 85.2735 78 84.9169 78C83.7126 78 83.0986 77.3984 83.0748 76.1953V72.7681H82.136V71.5219H83.0748V69.9582H84.7921Z" fill="#7B73B1"/>
<path d="M90.3302 76.1248C90.3302 75.917 90.2253 75.7544 90.0153 75.6368C89.8093 75.5153 89.4766 75.4076 89.017 75.3135C87.4879 74.9961 86.7233 74.3534 86.7233 73.3854C86.7233 72.821 86.9591 72.3508 87.4305 71.9745C87.9058 71.5944 88.5258 71.4043 89.2904 71.4043C90.1064 71.4043 90.7581 71.5944 91.2453 71.9745C91.7366 72.3547 91.9822 72.8485 91.9822 73.4559H90.2649C90.2649 73.2129 90.1857 73.0131 90.0272 72.8563C89.8687 72.6956 89.6211 72.6153 89.2844 72.6153C88.9952 72.6153 88.7714 72.6799 88.613 72.8093C88.4545 72.9386 88.3753 73.1032 88.3753 73.3031C88.3753 73.4912 88.4644 73.644 88.6427 73.7616C88.8249 73.8752 89.1299 73.9752 89.5578 74.0614C89.9856 74.1437 90.3461 74.2378 90.6392 74.3436C91.5464 74.6728 92 75.243 92 76.0542C92 76.6342 91.7484 77.1045 91.2453 77.4651C90.7422 77.8217 90.0926 78 89.2963 78C88.7575 78 88.2782 77.9059 87.8583 77.7178C87.4423 77.5258 87.1155 77.2652 86.8778 76.936C86.6402 76.6029 86.5213 76.2443 86.5213 75.8602H88.1495C88.1653 76.162 88.2782 76.3932 88.4882 76.5539C88.6981 76.7146 88.9794 76.7949 89.332 76.7949C89.6608 76.7949 89.9084 76.7342 90.0747 76.6127C90.2451 76.4873 90.3302 76.3246 90.3302 76.1248Z" fill="#7B73B1"/>
<path d="M45.2624 104.859H41.8022V107.101H45.8631V108.487H40V100.115H45.8511V101.512H41.8022V103.508H45.2624V104.859Z" fill="#7B73B1"/>
<path d="M48.4342 102.266L48.4882 102.961C48.9488 102.421 49.5716 102.151 50.3565 102.151C51.1935 102.151 51.7682 102.467 52.0806 103.099C52.5371 102.467 53.1879 102.151 54.0329 102.151C54.7378 102.151 55.2624 102.348 55.6068 102.743C55.9513 103.134 56.1235 103.724 56.1235 104.514V108.487H54.3814V104.52C54.3814 104.167 54.3093 103.91 54.1651 103.749C54.0209 103.584 53.7666 103.502 53.4022 103.502C52.8815 103.502 52.5211 103.74 52.3209 104.215L52.3269 108.487H50.5908V104.525C50.5908 104.165 50.5167 103.904 50.3685 103.743C50.2203 103.582 49.968 103.502 49.6116 103.502C49.119 103.502 48.7626 103.697 48.5423 104.088V108.487H46.8062V102.266H48.4342Z" fill="#7B73B1"/>
<path d="M60.4547 108.602C59.5015 108.602 58.7246 108.322 58.1239 107.763C57.5272 107.203 57.2288 106.457 57.2288 105.526V105.365C57.2288 104.74 57.3549 104.182 57.6073 103.692C57.8596 103.197 58.216 102.818 58.6765 102.553C59.1411 102.285 59.6697 102.151 60.2625 102.151C61.1515 102.151 61.8504 102.419 62.359 102.956C62.8716 103.492 63.1279 104.253 63.1279 105.238V105.917H58.9889C59.045 106.323 59.2132 106.649 59.4935 106.894C59.7779 107.14 60.1363 107.262 60.5688 107.262C61.2376 107.262 61.7603 107.03 62.1367 106.567L62.9897 107.481C62.7294 107.834 62.377 108.11 61.9325 108.309C61.4879 108.504 60.9953 108.602 60.4547 108.602ZM60.2564 103.496C59.912 103.496 59.6317 103.607 59.4154 103.83C59.2032 104.052 59.067 104.37 59.0069 104.784H61.4219V104.652C61.4138 104.284 61.3097 104 61.1095 103.801C60.9092 103.598 60.6249 103.496 60.2564 103.496Z" fill="#7B73B1"/>
<path d="M67.7715 103.824C67.5352 103.793 67.327 103.778 67.1468 103.778C66.49 103.778 66.0595 103.991 65.8552 104.416V108.487H64.1191V102.266H65.7591L65.8071 103.007C66.1556 102.436 66.6382 102.151 67.2549 102.151C67.4471 102.151 67.6273 102.175 67.7955 102.225L67.7715 103.824Z" fill="#7B73B1"/>
<path d="M68.2401 105.33C68.2401 104.376 68.4764 103.607 68.9489 103.025C69.4255 102.442 70.0663 102.151 70.8713 102.151C71.5841 102.151 72.1388 102.384 72.5353 102.852L72.6074 102.266H74.1813V108.28C74.1813 108.825 74.0511 109.298 73.7908 109.7C73.5345 110.103 73.172 110.41 72.7035 110.62C72.2349 110.831 71.6862 110.937 71.0575 110.937C70.5809 110.937 70.1163 110.845 69.6638 110.661C69.2113 110.481 68.8688 110.247 68.6366 109.959L69.4055 108.947C69.838 109.411 70.3626 109.643 70.9794 109.643C71.4399 109.643 71.7984 109.524 72.0547 109.286C72.311 109.053 72.4392 108.719 72.4392 108.286V107.952C72.0387 108.386 71.512 108.602 70.8592 108.602C70.0783 108.602 69.4455 108.311 68.961 107.728C68.4804 107.142 68.2401 106.365 68.2401 105.399V105.33ZM69.9762 105.451C69.9762 106.015 70.0943 106.457 70.3306 106.779C70.5669 107.098 70.8913 107.257 71.3038 107.257C71.8324 107.257 72.2109 107.067 72.4392 106.687V104.071C72.2069 103.692 71.8324 103.502 71.3158 103.502C70.8993 103.502 70.5709 103.665 70.3306 103.991C70.0943 104.316 69.9762 104.803 69.9762 105.451Z" fill="#7B73B1"/>
<path d="M78.5125 108.602C77.5593 108.602 76.7824 108.322 76.1817 107.763C75.5849 107.203 75.2866 106.457 75.2866 105.526V105.365C75.2866 104.74 75.4127 104.182 75.665 103.692C75.9174 103.197 76.2738 102.818 76.7343 102.553C77.1989 102.285 77.7275 102.151 78.3203 102.151C79.2093 102.151 79.9082 102.419 80.4168 102.956C80.9294 103.492 81.1857 104.253 81.1857 105.238V105.917H77.0467C77.1028 106.323 77.271 106.649 77.5513 106.894C77.8357 107.14 78.1941 107.262 78.6266 107.262C79.2954 107.262 79.8181 107.03 80.1945 106.567L81.0475 107.481C80.7872 107.834 80.4348 108.11 79.9903 108.309C79.5457 108.504 79.0531 108.602 78.5125 108.602ZM78.3142 103.496C77.9698 103.496 77.6895 103.607 77.4732 103.83C77.261 104.052 77.1248 104.37 77.0647 104.784H79.4796V104.652C79.4716 104.284 79.3675 104 79.1673 103.801C78.967 103.598 78.6827 103.496 78.3142 103.496Z" fill="#7B73B1"/>
<path d="M83.7748 102.266L83.8289 102.984C84.2935 102.428 84.9162 102.151 85.6972 102.151C86.386 102.151 86.8986 102.344 87.235 102.731C87.5714 103.118 87.7436 103.697 87.7516 104.468V108.487H86.0155V104.508C86.0155 104.155 85.9354 103.901 85.7752 103.743C85.6151 103.582 85.3487 103.502 84.9763 103.502C84.4877 103.502 84.1213 103.701 83.877 104.1V108.487H82.1409V102.266H83.7748Z" fill="#7B73B1"/>
<path d="M91.7765 107.262C92.0969 107.262 92.3572 107.178 92.5574 107.009C92.7577 106.841 92.8618 106.616 92.8698 106.337H94.4978C94.4938 106.758 94.3736 107.145 94.1373 107.498C93.9011 107.847 93.5767 108.119 93.1642 108.315C92.7557 108.506 92.3031 108.602 91.8065 108.602C90.8774 108.602 90.1445 108.32 89.6079 107.757C89.0712 107.19 88.8029 106.408 88.8029 105.411V105.302C88.8029 104.343 89.0692 103.578 89.6019 103.007C90.1345 102.436 90.8654 102.151 91.7945 102.151C92.6075 102.151 93.2583 102.373 93.7469 102.818C94.2395 103.258 94.4898 103.847 94.4978 104.583H92.8698C92.8618 104.261 92.7577 104 92.5574 103.801C92.3572 103.598 92.0929 103.496 91.7645 103.496C91.36 103.496 91.0536 103.638 90.8454 103.922C90.6411 104.201 90.539 104.658 90.539 105.29V105.463C90.539 106.103 90.6411 106.563 90.8454 106.843C91.0496 107.122 91.36 107.262 91.7765 107.262Z" fill="#7B73B1"/>
<path d="M97.9159 106.135L99.1174 102.266H100.98L98.3664 109.453L98.2223 109.781C97.8338 110.594 97.193 111 96.2999 111C96.0476 111 95.7913 110.964 95.531 110.891V109.631L95.7953 109.637C96.1237 109.637 96.368 109.589 96.5282 109.493C96.6924 109.398 96.8206 109.239 96.9127 109.016L97.1169 108.504L94.8402 102.266H96.7084L97.9159 106.135Z" fill="#7B73B1"/>
<path d="M108.074 106.411L110.057 100.115H112.063L109.017 108.487H107.137L104.103 100.115H106.104L108.074 106.411Z" fill="#7B73B1"/>
<path d="M115.505 108.602C114.552 108.602 113.775 108.322 113.174 107.763C112.578 107.203 112.279 106.457 112.279 105.526V105.365C112.279 104.74 112.405 104.182 112.658 103.692C112.91 103.197 113.266 102.818 113.727 102.553C114.192 102.285 114.72 102.151 115.313 102.151C116.202 102.151 116.901 102.419 117.409 102.956C117.922 103.492 118.178 104.253 118.178 105.238V105.917H114.039C114.095 106.323 114.264 106.649 114.544 106.894C114.828 107.14 115.187 107.262 115.619 107.262C116.288 107.262 116.811 107.03 117.187 106.567L118.04 107.481C117.78 107.834 117.427 108.11 116.983 108.309C116.538 108.504 116.046 108.602 115.505 108.602ZM115.307 103.496C114.962 103.496 114.682 103.607 114.466 103.83C114.254 104.052 114.117 104.37 114.057 104.784H116.472V104.652C116.464 104.284 116.36 104 116.16 103.801C115.96 103.598 115.675 103.496 115.307 103.496Z" fill="#7B73B1"/>
<path d="M121.248 100.736V102.266H122.359V103.485H121.248V106.59C121.248 106.82 121.294 106.984 121.386 107.084C121.478 107.184 121.655 107.234 121.915 107.234C122.107 107.234 122.277 107.22 122.425 107.193V108.453C122.085 108.552 121.735 108.602 121.374 108.602C120.157 108.602 119.536 108.014 119.512 106.837V103.485H118.563V102.266H119.512V100.736H121.248Z" fill="#7B73B1"/>
<path d="M131.04 106.291C131.04 105.965 130.92 105.716 130.679 105.543C130.439 105.367 130.007 105.183 129.382 104.991C128.757 104.796 128.263 104.604 127.898 104.416C126.905 103.902 126.408 103.21 126.408 102.34C126.408 101.888 126.54 101.485 126.805 101.133C127.073 100.776 127.456 100.498 127.952 100.299C128.453 100.1 129.013 100 129.634 100C130.259 100 130.816 100.109 131.304 100.328C131.793 100.542 132.171 100.847 132.44 101.242C132.712 101.637 132.848 102.085 132.848 102.588H131.046C131.046 102.204 130.92 101.907 130.667 101.696C130.415 101.482 130.061 101.374 129.604 101.374C129.164 101.374 128.821 101.464 128.577 101.645C128.333 101.821 128.21 102.055 128.21 102.346C128.21 102.618 128.353 102.846 128.637 103.03C128.925 103.214 129.348 103.387 129.905 103.548C130.93 103.843 131.677 104.209 132.145 104.646C132.614 105.083 132.848 105.627 132.848 106.279C132.848 107.004 132.562 107.573 131.989 107.987C131.416 108.397 130.645 108.602 129.676 108.602C129.003 108.602 128.391 108.485 127.838 108.251C127.285 108.014 126.863 107.69 126.57 107.28C126.282 106.869 126.138 106.394 126.138 105.854H127.946C127.946 106.777 128.523 107.239 129.676 107.239C130.105 107.239 130.439 107.157 130.679 106.992C130.92 106.823 131.04 106.59 131.04 106.291Z" fill="#7B73B1"/>
<path d="M136.038 100.736V102.266H137.149V103.485H136.038V106.59C136.038 106.82 136.084 106.984 136.176 107.084C136.268 107.184 136.444 107.234 136.705 107.234C136.897 107.234 137.067 107.22 137.215 107.193V108.453C136.875 108.552 136.524 108.602 136.164 108.602C134.947 108.602 134.326 108.014 134.302 106.837V103.485H133.353V102.266H134.302V100.736H136.038Z" fill="#7B73B1"/>
<path d="M141.883 108.487C141.803 108.338 141.745 108.152 141.709 107.929C141.288 108.378 140.742 108.602 140.069 108.602C139.432 108.602 138.903 108.426 138.483 108.073C138.066 107.721 137.858 107.276 137.858 106.739C137.858 106.08 138.112 105.574 138.621 105.221C139.134 104.868 139.873 104.69 140.838 104.686H141.637V104.33C141.637 104.042 141.559 103.812 141.402 103.64C141.25 103.467 141.008 103.381 140.676 103.381C140.383 103.381 140.153 103.448 139.985 103.582C139.82 103.717 139.738 103.901 139.738 104.134H138.002C138.002 103.774 138.118 103.44 138.351 103.134C138.583 102.827 138.911 102.588 139.336 102.415C139.76 102.239 140.237 102.151 140.766 102.151C141.567 102.151 142.201 102.344 142.67 102.731C143.142 103.115 143.379 103.655 143.379 104.353V107.05C143.383 107.64 143.469 108.087 143.637 108.389V108.487H141.883ZM140.447 107.331C140.704 107.331 140.94 107.278 141.156 107.17C141.372 107.059 141.533 106.912 141.637 106.728V105.658H140.988C140.119 105.658 139.656 105.946 139.6 106.521L139.594 106.618C139.594 106.825 139.67 106.996 139.822 107.13C139.975 107.264 140.183 107.331 140.447 107.331Z" fill="#7B73B1"/>
<path d="M147.043 106.135L148.245 102.266H150.107L147.494 109.453L147.35 109.781C146.961 110.594 146.32 111 145.427 111C145.175 111 144.919 110.964 144.658 110.891V109.631L144.923 109.637C145.251 109.637 145.495 109.589 145.656 109.493C145.82 109.398 145.948 109.239 146.04 109.016L146.244 108.504L143.967 102.266H145.836L147.043 106.135Z" fill="#7B73B1"/>
<path d="M154.312 106.768C154.312 106.565 154.206 106.406 153.994 106.291C153.785 106.172 153.449 106.066 152.984 105.974C151.438 105.664 150.666 105.035 150.666 104.088C150.666 103.536 150.904 103.076 151.38 102.708C151.861 102.336 152.488 102.151 153.261 102.151C154.086 102.151 154.744 102.336 155.237 102.708C155.734 103.08 155.982 103.563 155.982 104.157H154.246C154.246 103.92 154.166 103.724 154.006 103.571C153.845 103.414 153.595 103.335 153.255 103.335C152.962 103.335 152.736 103.398 152.576 103.525C152.416 103.651 152.336 103.812 152.336 104.008C152.336 104.192 152.426 104.341 152.606 104.456C152.79 104.568 153.099 104.665 153.531 104.75C153.964 104.83 154.328 104.922 154.624 105.026C155.541 105.348 156 105.905 156 106.699C156 107.266 155.746 107.726 155.237 108.079C154.728 108.428 154.072 108.602 153.267 108.602C152.722 108.602 152.237 108.51 151.813 108.326C151.392 108.138 151.062 107.883 150.822 107.561C150.581 107.236 150.461 106.885 150.461 106.509H152.107C152.123 106.804 152.237 107.03 152.45 107.188C152.662 107.345 152.946 107.423 153.303 107.423C153.635 107.423 153.885 107.364 154.054 107.245C154.226 107.122 154.312 106.963 154.312 106.768Z" fill="#7B73B1"/>
<path d="M46.4394 134.634C46.4394 135.448 46.2874 136.162 45.9834 136.775C45.6794 137.388 45.2435 137.861 44.6755 138.195C44.1116 138.528 43.4636 138.694 42.7317 138.694C42.0077 138.694 41.3618 138.53 40.7938 138.2C40.2259 137.871 39.7859 137.401 39.474 136.792C39.162 136.179 39.004 135.474 39 134.679V134.271C39 133.457 39.154 132.741 39.462 132.124C39.7739 131.503 40.2119 131.028 40.7758 130.699C41.3438 130.365 41.9917 130.199 42.7197 130.199C43.4476 130.199 44.0936 130.365 44.6575 130.699C45.2255 131.028 45.6634 131.503 45.9714 132.124C46.2834 132.741 46.4394 133.455 46.4394 134.265V134.634ZM44.6155 134.259C44.6155 133.392 44.4515 132.733 44.1236 132.283C43.7956 131.832 43.3276 131.607 42.7197 131.607C42.1157 131.607 41.6498 131.83 41.3218 132.277C40.9938 132.72 40.8278 133.371 40.8238 134.231V134.634C40.8238 135.478 40.9878 136.133 41.3158 136.599C41.6438 137.065 42.1157 137.297 42.7317 137.297C43.3356 137.297 43.7996 137.074 44.1236 136.627C44.4475 136.177 44.6115 135.522 44.6155 134.662V134.259Z" fill="#7B73B1"/>
<path d="M49.2291 132.436L49.2831 133.146C49.7471 132.597 50.369 132.323 51.149 132.323C51.8369 132.323 52.3488 132.514 52.6848 132.896C53.0208 133.279 53.1928 133.85 53.2008 134.611V138.581H51.4669V134.651C51.4669 134.303 51.3869 134.051 51.2269 133.896C51.067 133.737 50.801 133.657 50.429 133.657C49.9411 133.657 49.5751 133.854 49.3311 134.248V138.581H47.5973V132.436H49.2291Z" fill="#7B73B1"/>
<path d="M54.2687 135.463C54.2687 134.52 54.5047 133.761 54.9766 133.186C55.4526 132.61 56.0925 132.323 56.8965 132.323C57.6084 132.323 58.1623 132.554 58.5583 133.015L58.6303 132.436H60.2022V138.376C60.2022 138.914 60.0722 139.382 59.8122 139.779C59.5562 140.177 59.1943 140.479 58.7263 140.688C58.2583 140.896 57.7104 141 57.0824 141C56.6065 141 56.1425 140.909 55.6906 140.727C55.2386 140.549 54.8966 140.319 54.6646 140.035L55.4326 139.035C55.8645 139.493 56.3885 139.722 57.0044 139.722C57.4644 139.722 57.8224 139.605 58.0784 139.37C58.3343 139.139 58.4623 138.81 58.4623 138.382V138.053C58.0624 138.48 57.5364 138.694 56.8845 138.694C56.1045 138.694 55.4726 138.407 54.9886 137.831C54.5087 137.252 54.2687 136.485 54.2687 135.531V135.463ZM56.0025 135.582C56.0025 136.139 56.1205 136.576 56.3565 136.894C56.5925 137.208 56.9165 137.366 57.3284 137.366C57.8564 137.366 58.2343 137.178 58.4623 136.803V134.219C58.2303 133.845 57.8564 133.657 57.3404 133.657C56.9245 133.657 56.5965 133.818 56.3565 134.14C56.1205 134.462 56.0025 134.943 56.0025 135.582Z" fill="#7B73B1"/>
<path d="M61.2701 135.452C61.2701 134.842 61.3941 134.299 61.642 133.822C61.89 133.345 62.246 132.976 62.71 132.715C63.1779 132.453 63.7199 132.323 64.3358 132.323C65.2117 132.323 65.9257 132.576 66.4776 133.084C67.0336 133.591 67.3436 134.28 67.4075 135.151L67.4195 135.571C67.4195 136.514 67.1416 137.271 66.5856 137.843C66.0297 138.41 65.2837 138.694 64.3478 138.694C63.4119 138.694 62.664 138.41 62.104 137.843C61.5481 137.275 61.2701 136.502 61.2701 135.526V135.452ZM63.0039 135.571C63.0039 136.154 63.1199 136.601 63.3519 136.911C63.5839 137.218 63.9159 137.371 64.3478 137.371C64.7678 137.371 65.0957 137.22 65.3317 136.917C65.5677 136.61 65.6857 136.122 65.6857 135.452C65.6857 134.88 65.5677 134.437 65.3317 134.123C65.0957 133.809 64.7638 133.652 64.3358 133.652C63.9119 133.652 63.5839 133.809 63.3519 134.123C63.1199 134.433 63.0039 134.916 63.0039 135.571Z" fill="#7B73B1"/>
<path d="M70.3173 138.581H68.5774V132.436H70.3173V138.581ZM68.4755 130.846C68.4755 130.6 68.5614 130.398 68.7334 130.239C68.9094 130.08 69.1474 130 69.4474 130C69.7433 130 69.9793 130.08 70.1553 130.239C70.3313 130.398 70.4193 130.6 70.4193 130.846C70.4193 131.096 70.3293 131.3 70.1493 131.459C69.9733 131.618 69.7393 131.698 69.4474 131.698C69.1554 131.698 68.9194 131.618 68.7394 131.459C68.5634 131.3 68.4755 131.096 68.4755 130.846Z" fill="#7B73B1"/>
<path d="M73.347 132.436L73.401 133.146C73.865 132.597 74.4869 132.323 75.2669 132.323C75.9548 132.323 76.4668 132.514 76.8027 132.896C77.1387 133.279 77.3107 133.85 77.3187 134.611V138.581H75.5848V134.651C75.5848 134.303 75.5049 134.051 75.3449 133.896C75.1849 133.737 74.9189 133.657 74.5469 133.657C74.059 133.657 73.693 133.854 73.449 134.248V138.581H71.7152V132.436H73.347Z" fill="#7B73B1"/>
<path d="M78.3866 135.463C78.3866 134.52 78.6226 133.761 79.0945 133.186C79.5705 132.61 80.2104 132.323 81.0144 132.323C81.7263 132.323 82.2803 132.554 82.6762 133.015L82.7482 132.436H84.3201V138.376C84.3201 138.914 84.1901 139.382 83.9301 139.779C83.6741 140.177 83.3122 140.479 82.8442 140.688C82.3763 140.896 81.8283 141 81.2004 141C80.7244 141 80.2604 140.909 79.8085 140.727C79.3565 140.549 79.0145 140.319 78.7826 140.035L79.5505 139.035C79.9825 139.493 80.5064 139.722 81.1224 139.722C81.5823 139.722 81.9403 139.605 82.1963 139.37C82.4523 139.139 82.5802 138.81 82.5802 138.382V138.053C82.1803 138.48 81.6543 138.694 81.0024 138.694C80.2224 138.694 79.5905 138.407 79.1065 137.831C78.6266 137.252 78.3866 136.485 78.3866 135.531V135.463ZM80.1205 135.582C80.1205 136.139 80.2384 136.576 80.4744 136.894C80.7104 137.208 81.0344 137.366 81.4463 137.366C81.9743 137.366 82.3523 137.178 82.5802 136.803V134.219C82.3483 133.845 81.9743 133.657 81.4583 133.657C81.0424 133.657 80.7144 133.818 80.4744 134.14C80.2384 134.462 80.1205 134.943 80.1205 135.582Z" fill="#7B73B1"/>
<path d="M90.6315 135.668V138.581H88.8317V130.312H92.2394C92.8954 130.312 93.4713 130.426 93.9673 130.653C94.4672 130.88 94.8512 131.204 95.1192 131.624C95.3871 132.041 95.5211 132.516 95.5211 133.05C95.5211 133.86 95.2271 134.5 94.6392 134.969C94.0553 135.435 93.2453 135.668 92.2094 135.668H90.6315ZM90.6315 134.288H92.2394C92.7154 134.288 93.0773 134.182 93.3253 133.97C93.5773 133.758 93.7033 133.455 93.7033 133.061C93.7033 132.656 93.5773 132.328 93.3253 132.078C93.0733 131.829 92.7254 131.7 92.2814 131.692H90.6315V134.288Z" fill="#7B73B1"/>
<path d="M100.297 133.975C100.061 133.945 99.8527 133.93 99.6728 133.93C99.0168 133.93 98.5869 134.14 98.3829 134.56V138.581H96.649V132.436H98.2869L98.3349 133.169C98.6828 132.605 99.1648 132.323 99.7808 132.323C99.9727 132.323 100.153 132.347 100.321 132.396L100.297 133.975Z" fill="#7B73B1"/>
<path d="M104.004 138.694C103.052 138.694 102.277 138.418 101.677 137.865C101.081 137.313 100.783 136.576 100.783 135.656V135.497C100.783 134.88 100.909 134.329 101.161 133.845C101.413 133.356 101.769 132.981 102.229 132.72C102.693 132.455 103.22 132.323 103.812 132.323C104.7 132.323 105.398 132.588 105.906 133.118C106.418 133.648 106.674 134.399 106.674 135.372V136.042H102.541C102.597 136.444 102.764 136.765 103.044 137.008C103.328 137.25 103.686 137.371 104.118 137.371C104.786 137.371 105.308 137.142 105.684 136.684L106.536 137.587C106.276 137.935 105.924 138.208 105.48 138.405C105.036 138.598 104.544 138.694 104.004 138.694ZM103.806 133.652C103.462 133.652 103.182 133.761 102.966 133.981C102.755 134.2 102.619 134.515 102.559 134.924H104.97V134.793C104.962 134.43 104.858 134.149 104.658 133.953C104.458 133.752 104.174 133.652 103.806 133.652Z" fill="#7B73B1"/>
<path d="M111.18 136.883C111.18 136.682 111.074 136.525 110.862 136.411C110.654 136.294 110.318 136.19 109.854 136.099C108.31 135.792 107.538 135.172 107.538 134.236C107.538 133.691 107.776 133.237 108.252 132.874C108.732 132.506 109.358 132.323 110.13 132.323C110.954 132.323 111.612 132.506 112.104 132.874C112.6 133.241 112.848 133.718 112.848 134.305H111.114C111.114 134.07 111.034 133.877 110.874 133.725C110.714 133.57 110.464 133.493 110.124 133.493C109.832 133.493 109.606 133.555 109.446 133.68C109.286 133.805 109.206 133.964 109.206 134.157C109.206 134.339 109.296 134.486 109.476 134.6C109.66 134.71 109.968 134.806 110.4 134.89C110.832 134.969 111.196 135.06 111.492 135.162C112.408 135.48 112.866 136.031 112.866 136.815C112.866 137.375 112.612 137.829 112.104 138.178C111.596 138.522 110.94 138.694 110.136 138.694C109.592 138.694 109.108 138.604 108.684 138.422C108.264 138.236 107.934 137.985 107.694 137.666C107.454 137.345 107.334 136.998 107.334 136.627H108.978C108.994 136.919 109.108 137.142 109.32 137.297C109.532 137.453 109.816 137.53 110.172 137.53C110.504 137.53 110.754 137.472 110.922 137.354C111.094 137.233 111.18 137.076 111.18 136.883Z" fill="#7B73B1"/>
<path d="M116.687 137.371C117.007 137.371 117.267 137.288 117.467 137.121C117.667 136.955 117.771 136.733 117.779 136.457H119.405C119.401 136.873 119.281 137.256 119.045 137.604C118.809 137.949 118.485 138.217 118.073 138.41C117.665 138.6 117.213 138.694 116.717 138.694C115.789 138.694 115.057 138.416 114.521 137.86C113.986 137.299 113.718 136.527 113.718 135.543V135.435C113.718 134.488 113.984 133.733 114.515 133.169C115.047 132.605 115.777 132.323 116.705 132.323C117.517 132.323 118.167 132.542 118.655 132.981C119.147 133.417 119.397 133.998 119.405 134.725H117.779C117.771 134.407 117.667 134.149 117.467 133.953C117.267 133.752 117.003 133.652 116.675 133.652C116.271 133.652 115.965 133.792 115.757 134.072C115.553 134.348 115.451 134.799 115.451 135.423V135.594C115.451 136.226 115.553 136.68 115.757 136.957C115.961 137.233 116.271 137.371 116.687 137.371Z" fill="#7B73B1"/>
<path d="M124.043 133.975C123.807 133.945 123.599 133.93 123.419 133.93C122.763 133.93 122.333 134.14 122.129 134.56V138.581H120.395V132.436H122.033L122.081 133.169C122.429 132.605 122.911 132.323 123.527 132.323C123.719 132.323 123.899 132.347 124.067 132.396L124.043 133.975Z" fill="#7B73B1"/>
<path d="M126.712 138.581H124.973V132.436H126.712V138.581ZM124.871 130.846C124.871 130.6 124.957 130.398 125.129 130.239C125.305 130.08 125.543 130 125.843 130C126.138 130 126.374 130.08 126.55 130.239C126.726 130.398 126.814 130.6 126.814 130.846C126.814 131.096 126.724 131.3 126.544 131.459C126.368 131.618 126.134 131.698 125.843 131.698C125.551 131.698 125.315 131.618 125.135 131.459C124.959 131.3 124.871 131.096 124.871 130.846Z" fill="#7B73B1"/>
<path d="M133.99 135.565C133.99 136.512 133.762 137.271 133.306 137.843C132.854 138.41 132.242 138.694 131.47 138.694C130.814 138.694 130.284 138.479 129.88 138.047V140.943H128.146V132.436H129.754L129.814 133.038C130.234 132.561 130.782 132.323 131.458 132.323C132.258 132.323 132.88 132.603 133.324 133.163C133.768 133.723 133.99 134.496 133.99 135.48V135.565ZM132.256 135.446C132.256 134.874 132.148 134.433 131.932 134.123C131.72 133.812 131.41 133.657 131.002 133.657C130.458 133.657 130.084 133.854 129.88 134.248V136.764C130.092 137.169 130.47 137.371 131.014 137.371C131.842 137.371 132.256 136.729 132.256 135.446Z" fill="#7B73B1"/>
<path d="M137.146 130.926V132.436H138.255V133.64H137.146V136.707C137.146 136.934 137.192 137.097 137.284 137.195C137.376 137.294 137.551 137.343 137.811 137.343C138.003 137.343 138.173 137.33 138.321 137.303V138.547C137.981 138.645 137.631 138.694 137.272 138.694C136.056 138.694 135.436 138.113 135.412 136.951V133.64H134.464V132.436H135.412V130.926H137.146Z" fill="#7B73B1"/>
<path d="M141.051 138.581H139.311V132.436H141.051V138.581ZM139.209 130.846C139.209 130.6 139.295 130.398 139.467 130.239C139.643 130.08 139.881 130 140.181 130C140.477 130 140.713 130.08 140.889 130.239C141.065 130.398 141.153 130.6 141.153 130.846C141.153 131.096 141.063 131.3 140.883 131.459C140.707 131.618 140.473 131.698 140.181 131.698C139.889 131.698 139.653 131.618 139.473 131.459C139.297 131.3 139.209 131.096 139.209 130.846Z" fill="#7B73B1"/>
<path d="M142.215 135.452C142.215 134.842 142.339 134.299 142.587 133.822C142.835 133.345 143.191 132.976 143.655 132.715C144.123 132.453 144.665 132.323 145.281 132.323C146.157 132.323 146.871 132.576 147.423 133.084C147.979 133.591 148.289 134.28 148.353 135.151L148.365 135.571C148.365 136.514 148.087 137.271 147.531 137.843C146.975 138.41 146.229 138.694 145.293 138.694C144.357 138.694 143.609 138.41 143.049 137.843C142.493 137.275 142.215 136.502 142.215 135.526V135.452ZM143.949 135.571C143.949 136.154 144.065 136.601 144.297 136.911C144.529 137.218 144.861 137.371 145.293 137.371C145.713 137.371 146.041 137.22 146.277 136.917C146.513 136.61 146.631 136.122 146.631 135.452C146.631 134.88 146.513 134.437 146.277 134.123C146.041 133.809 145.709 133.652 145.281 133.652C144.857 133.652 144.529 133.809 144.297 134.123C144.065 134.433 143.949 134.916 143.949 135.571Z" fill="#7B73B1"/>
<path d="M151.028 132.436L151.082 133.146C151.546 132.597 152.168 132.323 152.948 132.323C153.636 132.323 154.148 132.514 154.484 132.896C154.82 133.279 154.992 133.85 155 134.611V138.581H153.266V134.651C153.266 134.303 153.186 134.051 153.026 133.896C152.866 133.737 152.6 133.657 152.228 133.657C151.74 133.657 151.374 133.854 151.13 134.248V138.581H149.396V132.436H151.028Z" fill="#7B73B1"/>
<path d="M35.6013 203.513C35.6013 202.527 35.3245 201.746 34.7709 201.169C34.2293 200.58 33.3025 200.039 31.9906 199.546C30.6787 199.053 29.5474 198.566 28.5966 198.085C27.6458 197.592 26.8273 197.033 26.1413 196.408C25.4673 195.771 24.9377 195.026 24.5526 194.173C24.1795 193.319 23.9929 192.303 23.9929 191.125C23.9929 189.094 24.6429 187.429 25.9427 186.131C27.2426 184.832 28.9697 184.075 31.1241 183.859V180H34.0126V183.913C36.1429 184.213 37.8099 185.103 39.0134 186.581C40.217 188.048 40.8188 189.953 40.8188 192.297H35.6013C35.6013 190.855 35.3004 189.779 34.6987 189.07C34.1089 188.348 33.3146 187.988 32.3156 187.988C31.3287 187.988 30.5644 188.27 30.0228 188.835C29.4812 189.388 29.2104 190.158 29.2104 191.143C29.2104 192.057 29.4752 192.79 30.0048 193.343C30.5343 193.896 31.5152 194.461 32.9475 195.038C34.3917 195.615 35.5773 196.162 36.504 196.679C37.4307 197.184 38.2131 197.761 38.851 198.41C39.4888 199.047 39.9763 199.78 40.3133 200.61C40.6503 201.427 40.8188 202.383 40.8188 203.477C40.8188 205.52 40.1809 207.179 38.9051 208.453C37.6293 209.727 35.8721 210.479 33.6335 210.707V214.295H30.763V210.725C28.2957 210.461 26.382 209.589 25.022 208.111C23.674 206.62 23 204.643 23 202.178H28.2175C28.2175 203.609 28.5545 204.709 29.2285 205.478C29.9145 206.235 30.8954 206.614 32.1712 206.614C33.2303 206.614 34.0668 206.338 34.6806 205.785C35.2944 205.22 35.6013 204.462 35.6013 203.513Z" fill="white"/>
<path d="M57.0308 210.419H51.8134V190.332L45.5849 192.261V188.024L56.4712 184.129H57.0308V210.419Z" fill="white"/>
<path d="M83.2806 199.564C83.2806 203.194 82.5283 205.971 81.0239 207.894C79.5194 209.818 77.3169 210.779 74.4163 210.779C71.5518 210.779 69.3613 209.836 67.8448 207.948C66.3284 206.061 65.5521 203.356 65.5159 199.834V195.002C65.5159 191.336 66.2742 188.553 67.7907 186.654C69.3192 184.754 71.5157 183.805 74.3802 183.805C77.2447 183.805 79.4352 184.748 80.9517 186.635C82.4682 188.511 83.2445 191.209 83.2806 194.731V199.564ZM78.0631 194.263C78.0631 192.087 77.7622 190.506 77.1604 189.52C76.5707 188.523 75.644 188.024 74.3802 188.024C73.1526 188.024 72.2439 188.499 71.6541 189.448C71.0764 190.386 70.7695 191.859 70.7334 193.866V200.249C70.7334 202.389 71.0223 203.981 71.6 205.027C72.1897 206.061 73.1285 206.578 74.4163 206.578C75.6921 206.578 76.6128 206.079 77.1785 205.081C77.7442 204.084 78.0391 202.557 78.0631 200.501V194.263Z" fill="white"/>
<path d="M88.3897 217L85.6636 215.576L86.3136 214.404C87.1199 212.937 87.5352 211.476 87.5592 210.022V205.983H91.9643L91.9463 209.589C91.9342 210.923 91.5972 212.27 90.9353 213.628C90.2733 214.987 89.4248 216.11 88.3897 217Z" fill="white"/>
<path d="M113.538 199.564C113.538 203.194 112.786 205.971 111.282 207.894C109.777 209.818 107.575 210.779 104.674 210.779C101.809 210.779 99.619 209.836 98.1025 207.948C96.586 206.061 95.8097 203.356 95.7736 199.834V195.002C95.7736 191.336 96.5318 188.553 98.0483 186.654C99.5769 184.754 101.773 183.805 104.638 183.805C107.502 183.805 109.693 184.748 111.209 186.635C112.726 188.511 113.502 191.209 113.538 194.731V199.564ZM108.321 194.263C108.321 192.087 108.02 190.506 107.418 189.52C106.828 188.523 105.902 188.024 104.638 188.024C103.41 188.024 102.502 188.499 101.912 189.448C101.334 190.386 101.027 191.859 100.991 193.866V200.249C100.991 202.389 101.28 203.981 101.858 205.027C102.447 206.061 103.386 206.578 104.674 206.578C105.95 206.578 106.87 206.079 107.436 205.081C108.002 204.084 108.297 202.557 108.321 200.501V194.263Z" fill="white"/>
<path d="M134.769 199.564C134.769 203.194 134.017 205.971 132.512 207.894C131.008 209.818 128.805 210.779 125.905 210.779C123.04 210.779 120.85 209.836 119.333 207.948C117.817 206.061 117.041 203.356 117.004 199.834V195.002C117.004 191.336 117.763 188.553 119.279 186.654C120.808 184.754 123.004 183.805 125.869 183.805C128.733 183.805 130.924 184.748 132.44 186.635C133.957 188.511 134.733 191.209 134.769 194.731V199.564ZM129.552 194.263C129.552 192.087 129.251 190.506 128.649 189.52C128.059 188.523 127.132 188.024 125.869 188.024C124.641 188.024 123.732 188.499 123.143 189.448C122.565 190.386 122.258 191.859 122.222 193.866V200.249C122.222 202.389 122.511 203.981 123.089 205.027C123.678 206.061 124.617 206.578 125.905 206.578C127.181 206.578 128.101 206.079 128.667 205.081C129.233 204.084 129.528 202.557 129.552 200.501V194.263Z" fill="white"/>
<path d="M156 199.564C156 203.194 155.248 205.971 153.743 207.894C152.239 209.818 150.036 210.779 147.136 210.779C144.271 210.779 142.081 209.836 140.564 207.948C139.048 206.061 138.271 203.356 138.235 199.834V195.002C138.235 191.336 138.994 188.553 140.51 186.654C142.039 184.754 144.235 183.805 147.1 183.805C149.964 183.805 152.155 184.748 153.671 186.635C155.188 188.511 155.964 191.209 156 194.731V199.564ZM150.783 194.263C150.783 192.087 150.482 190.506 149.88 189.52C149.29 188.523 148.363 188.024 147.1 188.024C145.872 188.024 144.963 188.499 144.374 189.448C143.796 190.386 143.489 191.859 143.453 193.866V200.249C143.453 202.389 143.742 203.981 144.319 205.027C144.909 206.061 145.848 206.578 147.136 206.578C148.412 206.578 149.332 206.079 149.898 205.081C150.464 204.084 150.758 202.557 150.783 200.501V194.263Z" fill="white"/>
</svg>
