<svg width="37" height="23" viewBox="0 0 37 23" fill="none" xmlns="http://www.w3.org/2000/svg">
<path fill-rule="evenodd" clip-rule="evenodd" d="M25.2687 0.6736C26.0715 -0.224529 27.373 -0.224528 28.1757 0.6736L36.3967 9.87229L36.3979 9.87362C36.595 10.0941 36.7437 10.3483 36.844 10.6196C36.9445 10.8907 37 11.1881 37 11.5C37 11.8106 36.945 12.1068 36.8452 12.3772C36.7958 12.5114 36.7345 12.6416 36.6613 12.7655C36.5861 12.893 36.4983 13.014 36.3979 13.1263L36.3967 13.1277L28.1757 22.3263C27.373 23.2246 26.0715 23.2246 25.2687 22.3263C24.466 21.4281 24.466 19.9719 25.2687 19.0736L29.9819 13.8L2.05555 13.8C0.920267 13.8 -2.92038e-06 12.7702 -2.80933e-06 11.5C-2.69828e-06 10.2297 0.920267 9.19997 2.05555 9.19997L29.9819 9.19997L25.2687 3.92631C24.466 3.02809 24.466 1.57182 25.2687 0.6736Z" fill="white"/>
</svg>
