<svg width="216" height="258" viewBox="0 0 216 258" fill="none" xmlns="http://www.w3.org/2000/svg">
<g clip-path="url(#clip0)">
<path d="M7.2456 119.848L1.13937 119.113C0.889319 121.18 0.698943 123.263 0.568237 125.361L6.70573 125.741C6.83076 123.76 7.00977 121.796 7.2456 119.848Z" fill="#3A082C"/>
<path d="M9.99047 158.579L4.05188 160.174C4.59743 162.201 5.20266 164.208 5.86187 166.186L11.6953 164.245C11.0731 162.38 10.5048 160.489 9.99047 158.579Z" fill="#3A082C"/>
<path d="M6.72277 138.759C6.59775 136.801 6.52671 134.828 6.51251 132.841L0.363647 132.883C0.377855 134.987 0.451732 137.079 0.588121 139.154L6.72277 138.759Z" fill="#3A082C"/>
<path d="M7.42751 145.825L1.33264 146.645C1.61394 148.729 1.95492 150.792 2.35272 152.836L8.38792 151.661C8.01285 149.736 7.69177 147.789 7.42751 145.825Z" fill="#3A082C"/>
<path d="M14.1759 170.896L8.49304 173.243C9.29433 175.179 10.1496 177.087 11.056 178.963L16.5911 176.289C15.7387 174.518 14.9317 172.721 14.1759 170.896Z" fill="#3A082C"/>
<path d="M22.1887 197.119C23.4532 198.788 24.7659 200.418 26.1241 202.007L30.8011 198.019C29.5196 196.52 28.2836 194.982 27.0902 193.409L22.1887 197.119Z" fill="#3A082C"/>
<path d="M19.907 182.563L14.5708 185.617C15.6136 187.434 16.7047 189.216 17.8498 190.965L22.9985 187.604C21.9216 185.955 20.8901 184.274 19.907 182.563Z" fill="#3A082C"/>
<path d="M11.6215 100.242C12.2438 98.3595 12.92 96.503 13.6474 94.6693L7.93331 92.4012C7.16044 94.3428 6.4444 96.3157 5.78235 98.3113L11.6215 100.242Z" fill="#3A082C"/>
<path d="M202.364 93.8063C203.108 95.6287 203.799 97.4767 204.438 99.3474L210.26 97.366C209.581 95.3789 208.848 93.4202 208.061 91.4871L202.364 93.8063Z" fill="#3A082C"/>
<path d="M196.69 82.1138C197.661 83.8256 198.582 85.5657 199.457 87.337L204.975 84.6232C204.049 82.744 203.071 80.8961 202.04 79.0822L196.69 82.1138Z" fill="#3A082C"/>
<path d="M209.59 124.799L215.724 124.362C215.574 122.264 215.363 120.183 215.096 118.119L208.999 118.911C209.252 120.856 209.448 122.817 209.59 124.799Z" fill="#3A082C"/>
<path d="M206.493 106.143C206.995 108.042 207.442 109.964 207.834 111.906L213.86 110.688C213.443 108.627 212.968 106.589 212.437 104.573L206.493 106.143Z" fill="#3A082C"/>
<path d="M9.62957 107.057L3.66824 105.544C3.15394 107.565 2.69931 109.606 2.30151 111.67L8.33956 112.831C8.71747 110.887 9.14652 108.962 9.62957 107.057Z" fill="#3A082C"/>
<path d="M22.8962 76.8112C23.1889 76.3627 23.4929 75.9199 23.7941 75.4771C24.1266 74.9832 24.4619 74.4864 24.8028 73.9981C25.0387 73.6603 25.2802 73.3282 25.5189 72.9961C27.1783 70.6854 28.9286 68.4429 30.7698 66.2827C31.9689 64.8775 33.2078 63.5093 34.4779 62.1723C36.2737 60.2846 38.1434 58.4707 40.0755 56.7277C41.3883 55.544 42.7266 54.3887 44.099 53.2731C46.213 51.5557 48.4009 49.9263 50.6485 48.3821C51.0264 48.1209 51.4072 47.8626 51.7908 47.6071C52.2482 47.3006 52.7114 47.0025 53.1745 46.7044C53.5638 46.4546 53.9531 46.2048 54.3424 45.9607C56.6723 44.5045 59.062 43.1419 61.5113 41.8759C61.9262 41.6601 62.3438 41.4529 62.7644 41.2429C63.2503 41.0016 63.7361 40.7603 64.2249 40.5247C64.6539 40.3174 65.0858 40.1159 65.5177 39.9172C68.0153 38.7619 70.5641 37.7002 73.1669 36.7464C73.5845 36.5931 74.0051 36.4484 74.4256 36.3007C74.9683 36.1106 75.5082 35.9175 76.0566 35.7387C76.4913 35.5939 76.9289 35.4577 77.3665 35.3186C80.0261 34.4755 82.7311 33.7289 85.4816 33.1016C85.8027 33.0278 86.1295 32.9653 86.4534 32.8944C87.1325 32.7467 87.8116 32.5991 88.4964 32.4657C88.897 32.3862 89.3005 32.3181 89.704 32.2443C92.5227 31.7277 95.3783 31.3161 98.2737 31.0379C98.4471 31.0208 98.6232 31.0095 98.7966 30.9953C99.6575 30.9158 100.518 30.8448 101.388 30.7881C101.757 30.7625 102.13 30.7483 102.499 30.7285C104.38 30.6263 106.272 30.561 108.179 30.561C109.25 30.561 110.319 30.578 111.381 30.6121C111.7 30.6206 112.012 30.6405 112.33 30.6547C113.063 30.683 113.794 30.7143 114.521 30.7597C114.925 30.7852 115.322 30.8193 115.723 30.8477C118.635 31.0606 121.514 31.387 124.352 31.8412C124.702 31.898 125.049 31.9633 125.395 32.0229C126.066 32.1364 126.736 32.25 127.401 32.3777C127.81 32.4572 128.217 32.5452 128.626 32.6275C131.436 33.2009 134.209 33.8794 136.931 34.6799C137.002 34.6997 137.071 34.7225 137.139 34.7452C138.045 35.0148 138.949 35.293 139.844 35.5854C140.202 35.7018 140.557 35.8295 140.912 35.9516C144.197 37.0672 147.405 38.3446 150.528 39.7781C150.928 39.9626 151.335 40.1415 151.735 40.3316C152.295 40.5956 152.846 40.8738 153.4 41.1492C153.756 41.3252 154.114 41.4955 154.463 41.6743C156.921 42.9319 159.316 44.2944 161.652 45.7421C162.053 45.9891 162.453 46.2361 162.848 46.4887C163.308 46.7839 163.766 47.0848 164.223 47.3885C164.607 47.644 164.993 47.8967 165.374 48.155C167.554 49.6396 169.67 51.2122 171.725 52.8586C173.057 53.926 174.364 55.0302 175.64 56.1628C177.575 57.8802 179.448 59.6658 181.246 61.5222C182.454 62.7712 183.628 64.0515 184.77 65.3601C186.449 67.279 188.063 69.2576 189.595 71.3014C190.714 72.7945 191.791 74.3246 192.831 75.8802C192.919 76.0136 193.013 76.1442 193.101 76.2776L198.235 72.8939C198.187 72.8201 198.136 72.7491 198.085 72.6753L198.088 72.6725C197.715 72.1104 197.326 71.5569 196.942 71.0005C196.744 70.711 196.55 70.4186 196.346 70.1319C195.769 69.3172 195.181 68.511 194.584 67.7105C193.038 65.644 191.416 63.6399 189.728 61.6926L189.737 61.6869C189.646 61.5818 189.546 61.4825 189.452 61.3775C188.214 59.9581 186.943 58.57 185.634 57.2188C185.585 57.1677 185.54 57.1138 185.489 57.0627L185.483 57.0684C183.733 55.2687 181.914 53.5314 180.042 51.8566L180.05 51.8481C179.854 51.6721 179.65 51.5018 179.451 51.3286C179.067 50.9908 178.678 50.653 178.288 50.3209C177.862 49.9575 177.436 49.597 177.004 49.2394C176.615 48.9158 176.223 48.5921 175.825 48.2742C175.632 48.1181 175.441 47.9563 175.245 47.8002L175.237 47.8087C173.271 46.2474 171.253 44.7486 169.179 43.3236L169.185 43.3151C169.065 43.2328 168.94 43.1533 168.821 43.0709C168.429 42.8041 168.031 42.543 167.636 42.2818C167.133 41.9497 166.633 41.6176 166.124 41.2939C165.727 41.0413 165.326 40.7943 164.928 40.5474C164.587 40.3345 164.249 40.1159 163.905 39.9087L163.899 39.92C161.751 38.6228 159.561 37.388 157.316 36.2383V36.2355C157.285 36.2184 157.253 36.2042 157.219 36.1872C156.969 36.0595 156.716 35.9402 156.466 35.8153C155.756 35.4605 155.046 35.1057 154.327 34.765C153.977 34.6004 153.622 34.4443 153.27 34.2825C152.724 34.0327 152.184 33.7743 151.633 33.5331L151.63 33.5387C149.334 32.5282 146.999 31.5914 144.62 30.7398L144.623 30.7341C143.97 30.4985 143.308 30.28 142.646 30.0557C142.35 29.9563 142.06 29.8513 141.765 29.7548C140.733 29.417 139.696 29.0934 138.65 28.7868C136.249 28.08 133.812 27.4668 131.345 26.9247L131.348 26.9161C130.831 26.8026 130.311 26.7032 129.791 26.5982C129.379 26.5131 128.967 26.4251 128.552 26.3456C127.825 26.2065 127.092 26.0816 126.358 25.9567C126.009 25.8971 125.662 25.8318 125.313 25.775C125.267 25.7665 125.219 25.758 125.174 25.7495V25.7523C122.707 25.3606 120.212 25.0625 117.692 24.8411V24.8297C117.169 24.7843 116.644 24.7531 116.118 24.7162C115.709 24.685 115.3 24.6509 114.888 24.6253C114.098 24.5771 113.302 24.543 112.506 24.5118C112.188 24.5004 111.873 24.4806 111.555 24.4692C111.509 24.4692 111.467 24.4635 111.421 24.4635V24.4664C110.336 24.4352 109.247 24.4153 108.153 24.4153C106.724 24.4153 105.303 24.4522 103.886 24.509V24.5004C103.292 24.5232 102.704 24.5629 102.113 24.5941C101.729 24.614 101.345 24.631 100.962 24.6566C99.9985 24.719 99.0409 24.7985 98.0862 24.8865C97.947 24.9007 97.8049 24.9092 97.6657 24.9206C97.6515 24.9206 97.6344 24.9234 97.6202 24.9234C95.1027 25.1675 92.6136 25.5053 90.1501 25.9198L90.1473 25.9113C89.6045 26.0021 89.0675 26.11 88.5276 26.2093C88.1185 26.2831 87.7093 26.3541 87.303 26.4336C86.5386 26.584 85.78 26.7458 85.0242 26.9133C84.7173 26.9814 84.4104 27.041 84.1064 27.1092C84.0666 27.1177 84.0268 27.1262 83.9899 27.1347V27.1376C81.5292 27.6996 79.1026 28.3553 76.7073 29.0849L76.7044 29.0735C76.2725 29.2041 75.8492 29.3489 75.4201 29.4851C74.9882 29.6214 74.5563 29.7576 74.1244 29.8996C73.4993 30.1068 72.8827 30.3254 72.2633 30.5439C71.8626 30.6859 71.462 30.8221 71.0642 30.9669C70.9591 31.0038 70.8539 31.0407 70.7488 31.0776L70.7516 31.0861C68.3904 31.9604 66.069 32.9171 63.7873 33.9475L63.7816 33.9361C63.469 34.0781 63.1622 34.2285 62.8525 34.3733C62.4291 34.5692 62.0086 34.765 61.5909 34.9666C61.0368 35.2334 60.4855 35.5031 59.9371 35.7784C59.5223 35.9857 59.1074 36.1929 58.6954 36.4058C58.5136 36.4995 58.3261 36.5903 58.1442 36.684L58.1499 36.6953C55.9222 37.862 53.74 39.1053 51.6061 40.4225L51.6004 40.4111C51.4157 40.5247 51.2338 40.6467 51.0491 40.7631C50.6428 41.0158 50.2422 41.2741 49.8415 41.5324C49.3414 41.8532 48.8442 42.1768 48.3498 42.5061C47.9491 42.7729 47.5513 43.0454 47.1535 43.3179C46.8893 43.4996 46.6194 43.6756 46.3579 43.8573L46.3665 43.8686C44.3064 45.3106 42.2975 46.818 40.3455 48.3934L40.3426 48.3878C40.3 48.4218 40.2602 48.4587 40.2176 48.4928C38.7401 49.6907 37.3023 50.9312 35.893 52.2058C35.7907 52.2994 35.6798 52.3818 35.5776 52.4754L35.5832 52.4811C33.7249 54.1729 31.9235 55.9216 30.1874 57.7383L30.1845 57.7355C30.1447 57.7752 30.1106 57.8206 30.0709 57.8604C26.9339 61.1504 24.0072 64.6419 21.305 68.3066L21.2965 68.301C21.055 68.6274 20.8248 68.9624 20.5862 69.2945C20.2935 69.7004 19.998 70.1063 19.711 70.5179C19.3729 71.0005 19.0433 71.4916 18.7137 71.9799C18.5091 72.2864 18.2931 72.5845 18.0914 72.8911L18.0971 72.8939C17.972 73.0841 17.8413 73.2686 17.7163 73.4616L22.8962 76.8112Z" fill="#3A082C"/>
<path d="M19.228 82.9002L13.8521 79.9167C12.8348 81.7448 11.8716 83.607 10.9595 85.4976L16.5003 88.1602C17.3612 86.3775 18.2705 84.6232 19.228 82.9002Z" fill="#3A082C"/>
<path d="M35.6003 203.259L31.2103 207.563C32.6765 209.056 34.1853 210.506 35.7367 211.914L39.871 207.367C38.4077 206.035 36.9841 204.667 35.6003 203.259Z" fill="#3A082C"/>
<path d="M193.72 187.051L198.892 190.378C200.025 188.62 201.108 186.826 202.14 184.998L196.783 181.978C195.812 183.701 194.792 185.393 193.72 187.051Z" fill="#3A082C"/>
<path d="M189.666 192.887C188.481 194.468 187.253 196.015 185.98 197.525L190.683 201.482C192.032 199.881 193.334 198.243 194.59 196.566L189.666 192.887Z" fill="#3A082C"/>
<path d="M166.838 215.102L170.389 220.118C172.1 218.909 173.773 217.651 175.407 216.348L171.571 211.548C170.028 212.777 168.451 213.964 166.838 215.102Z" fill="#3A082C"/>
<path d="M176.967 206.927L181.13 211.449C182.673 210.032 184.173 208.573 185.628 207.072L181.212 202.797C179.837 204.213 178.422 205.59 176.967 206.927Z" fill="#3A082C"/>
<path d="M206.552 157.892C206.052 159.808 205.495 161.701 204.887 163.569L210.735 165.468C211.38 163.484 211.971 161.477 212.502 159.445L206.552 157.892Z" fill="#3A082C"/>
<path d="M216 131.884L209.851 131.898V132.131C209.851 134.118 209.794 136.091 209.681 138.05L215.821 138.402C215.94 136.327 216 134.237 216 132.131V131.884Z" fill="#3A082C"/>
<path d="M208.107 150.966L214.15 152.098C214.534 150.052 214.861 147.985 215.128 145.899L209.027 145.121C208.777 147.085 208.467 149.035 208.107 150.966Z" fill="#3A082C"/>
<path d="M160.899 218.997C159.217 220.019 157.501 220.992 155.756 221.918L158.637 227.345C160.487 226.363 162.308 225.33 164.093 224.248L160.899 218.997Z" fill="#3A082C"/>
<path d="M200.062 175.673L205.617 178.31C206.515 176.423 207.362 174.504 208.149 172.556L202.449 170.249C201.705 172.082 200.909 173.893 200.062 175.673Z" fill="#3A082C"/>
<path d="M92.5995 232.517L91.6647 238.589C93.7247 238.904 95.8018 239.163 97.8988 239.361L98.4784 233.244C96.5008 233.06 94.5402 232.815 92.5995 232.517Z" fill="#3A082C"/>
<path d="M78.1735 235.617C80.1767 236.196 82.2055 236.719 84.257 237.184L85.6152 231.192C83.683 230.755 81.7707 230.261 79.8812 229.716L78.1735 235.617Z" fill="#3A082C"/>
<path d="M41.4934 216.777C43.1386 218.071 44.8207 219.32 46.5398 220.518L50.0603 215.48C48.4379 214.35 46.8523 213.172 45.3009 211.951L41.4934 216.777Z" fill="#3A082C"/>
<path d="M52.8734 224.612C54.6692 225.685 56.4991 226.709 58.3602 227.68L61.2045 222.233C59.4485 221.319 57.7237 220.354 56.0303 219.34L52.8734 224.612Z" fill="#3A082C"/>
<path d="M65.1682 230.933C67.0862 231.768 69.0354 232.549 71.0102 233.272L73.1299 227.504C71.2688 226.82 69.4332 226.085 67.6232 225.299L65.1682 230.933Z" fill="#3A082C"/>
<path d="M111.501 233.65C110.398 233.684 109.29 233.704 108.179 233.704C107.307 233.704 106.437 233.693 105.571 233.67L105.417 239.813C106.335 239.835 107.256 239.847 108.179 239.847C109.355 239.847 110.529 239.827 111.697 239.79L111.501 233.65Z" fill="#3A082C"/>
<path d="M137.162 229.517C135.275 230.076 133.368 230.581 131.439 231.033L132.84 237.014C134.888 236.534 136.912 235.998 138.912 235.404L137.162 229.517Z" fill="#3A082C"/>
<path d="M149.371 225.02C147.575 225.818 145.751 226.562 143.899 227.257L146.058 233.008C148.022 232.273 149.957 231.481 151.863 230.635L149.371 225.02Z" fill="#3A082C"/>
<path d="M118.593 233.176L119.215 239.288C121.309 239.075 123.386 238.802 125.444 238.473L124.466 232.407C122.525 232.719 120.568 232.974 118.593 233.176Z" fill="#3A082C"/>
<path d="M108 234C163.781 234 209 188.781 209 133C209 77.2192 163.781 32 108 32C52.2192 32 7 77.2192 7 133C7 188.781 52.2192 234 108 234Z" fill="#7B73B1"/>
<path d="M200.821 214.302C202.557 209.97 202.532 205.209 200.747 200.898C199.045 196.784 195.883 193.48 191.845 191.592C187.81 189.708 183.244 189.401 178.99 190.732L127.532 206.842L127.634 206.305C128.288 202.819 127.688 199.342 125.901 196.254C123.884 192.773 120.625 190.321 116.72 189.347L75.5423 179.068C72.4878 178.308 69.3338 178.529 66.4185 179.71L39.0896 190.778V182.636C39.0896 180.107 37.0296 178.049 34.4978 178.049H4.71395C2.18223 178.049 0.122192 180.107 0.122192 182.636V242.592C0.122192 245.121 2.18223 247.179 4.71395 247.179H34.4978C37.0296 247.179 39.0896 245.121 39.0896 242.592V240.443L39.4959 240.542L108.034 257.449C111.154 258.219 114.601 257.918 117.542 256.62L191.504 223.945C195.775 222.057 199.085 218.631 200.821 214.302Z" fill="white"/>
<path d="M36.1373 210.152L69.0184 195.74C71.1978 194.786 73.6187 194.528 75.9486 195.004L124.847 204.982C124.847 204.982 121.809 216.834 108.713 214.864C101.345 213.757 93.7616 212.616 93.7616 212.616L94.6367 215.871C96.191 221.662 100.624 226.244 106.363 227.993C109.861 229.057 113.606 228.975 117.053 227.757L196.724 199.575C196.724 199.575 205.549 210.927 190.311 221.251C175.069 231.578 112.62 254.934 112.62 254.934L38.4105 237.241L36.1373 210.152Z" fill="#EE8363"/>
<path d="M200.861 200.849C199.446 197.432 197.07 194.655 194.172 192.751C191.274 190.843 187.85 189.79 184.307 189.79C182.528 189.79 180.721 190.057 178.948 190.613L127.685 206.66C127.899 205.644 128.004 204.622 128.004 203.614C128.004 200.29 126.881 197.119 124.915 194.567C122.952 192.013 120.119 190.065 116.746 189.225L75.5679 178.946C74.3802 178.648 73.1697 178.503 71.9593 178.503C70.0527 178.503 68.1546 178.87 66.3673 179.593L39.2118 190.593V182.636C39.2146 181.345 38.6804 180.15 37.8308 179.307C36.9869 178.458 35.7878 177.927 34.4978 177.927H4.71395C3.4211 177.924 2.22485 178.458 1.38095 179.307C0.531359 180.15 1.12796e-05 181.348 1.12796e-05 182.636V242.592C-0.00283015 243.883 0.531359 245.078 1.38095 245.922C2.22485 246.77 3.42394 247.301 4.71395 247.301H34.4978C35.7907 247.304 36.9869 246.77 37.8308 245.922C38.6804 245.078 39.2118 243.881 39.2118 242.592V240.602L108.003 257.571C109.176 257.861 110.375 258.006 111.569 258.006C113.629 258.006 115.68 257.577 117.587 256.737L191.549 224.061C194.88 222.591 197.562 220.206 199.392 217.345C201.225 214.481 202.222 211.131 202.222 207.688C202.225 205.403 201.784 203.078 200.861 200.849ZM6.14887 184.067H33.0629V241.155H6.14887V184.067ZM194.215 214.032C193.007 215.914 191.268 217.464 189.066 218.438L115.104 251.113C113.984 251.607 112.779 251.86 111.569 251.86C110.867 251.86 110.165 251.775 109.475 251.605L39.2118 234.272V197.222L68.6803 185.288C69.7288 184.862 70.8426 184.649 71.9621 184.649C72.6725 184.649 73.3828 184.734 74.079 184.91L115.257 195.189C117.252 195.689 118.883 196.816 120.042 198.317C121.198 199.819 121.855 201.684 121.855 203.62C121.855 204.403 121.747 205.201 121.52 206.004C120.98 207.903 119.852 209.473 118.371 210.583C116.888 211.693 115.067 212.326 113.154 212.326C112.725 212.326 112.288 212.295 111.847 212.227L94.2219 209.575L93.307 215.65L110.935 218.301C111.68 218.412 112.421 218.469 113.157 218.469C116.433 218.469 119.545 217.385 122.062 215.497C122.477 215.185 122.872 214.844 123.253 214.489L180.789 196.478C181.962 196.112 183.142 195.938 184.307 195.938C186.625 195.938 188.881 196.631 190.788 197.886C192.695 199.143 194.243 200.946 195.178 203.203C195.789 204.676 196.073 206.192 196.073 207.688C196.076 209.939 195.42 212.147 194.215 214.032Z" fill="#3A082C"/>
<path d="M85.1322 16.8304L108.165 3.54547L131.195 16.8304V43.4002L108.165 56.6852L85.1322 43.4002V16.8304Z" fill="#EE8363"/>
<path d="M108.165 0L82.0577 15.0562V16.8304V45.1716L108.165 60.2307L134.272 45.1716V15.0562L108.165 0ZM128.12 41.6261L108.162 53.1369L88.2038 41.6261V18.6046L108.162 7.09381L128.12 18.6046V41.6261Z" fill="#3A082C"/>
<path d="M51.6175 136.267C51.6175 134.828 51.2169 133.684 50.4184 132.832C49.62 131.981 48.2618 131.197 46.3467 130.476C44.4315 129.755 42.7807 129.043 41.3941 128.33C40.0074 127.62 38.8169 126.803 37.8224 125.883C36.8307 124.963 36.0578 123.879 35.5038 122.633C34.9497 121.387 34.6741 119.905 34.6741 118.185C34.6741 115.218 35.6231 112.788 37.5212 110.892C39.4193 108.996 41.9396 107.892 45.0822 107.577V101.942H49.2989V107.653C52.4074 108.093 54.8397 109.388 56.5986 111.537C58.3546 113.685 59.2326 116.473 59.2326 119.894H51.6175C51.6175 117.787 51.1828 116.212 50.3133 115.167C49.4438 114.123 48.2788 113.6 46.8212 113.6C45.3806 113.6 44.2639 114.009 43.474 114.824C42.6841 115.641 42.2891 116.768 42.2891 118.207C42.2891 119.542 42.6755 120.612 43.4484 121.418C44.2213 122.224 45.6562 123.05 47.756 123.893C49.8558 124.736 51.5806 125.531 52.9331 126.275C54.2856 127.021 55.4279 127.865 56.3599 128.801C57.2919 129.741 58.0022 130.811 58.4938 132.012C58.9854 133.215 59.2326 134.615 59.2326 136.21C59.2326 139.194 58.3006 141.615 56.4394 143.474C54.5783 145.334 52.0125 146.432 48.7448 146.764V152.004H44.5566V146.793C40.9565 146.407 38.1662 145.129 36.1914 142.963C34.2138 140.797 33.2278 137.913 33.2278 134.317H40.8428C40.8428 136.406 41.3401 138.007 42.3317 139.12C43.3234 140.235 44.7526 140.792 46.6138 140.792C48.1595 140.792 49.3813 140.383 50.2764 139.568C51.1714 138.754 51.6175 137.652 51.6175 136.267Z" fill="white"/>
<path d="M82.8676 146.35H75.2526V117.027L66.1628 119.842V113.657L82.0521 107.971H82.8676V146.35Z" fill="white"/>
<path d="M103.079 123.817H107.136C109.068 123.817 110.501 123.334 111.433 122.369C112.365 121.404 112.828 120.123 112.828 118.525C112.828 116.981 112.367 115.78 111.444 114.917C110.52 114.057 109.253 113.629 107.636 113.629C106.179 113.629 104.957 114.029 103.974 114.827C102.991 115.624 102.499 116.666 102.499 117.946H94.8841C94.8841 115.945 95.4239 114.151 96.5037 112.564C97.5834 110.977 99.0951 109.734 101.036 108.84C102.976 107.946 105.116 107.497 107.452 107.497C111.509 107.497 114.689 108.468 116.99 110.407C119.292 112.346 120.443 115.017 120.443 118.423C120.443 120.177 119.906 121.793 118.834 123.266C117.763 124.739 116.357 125.872 114.618 126.661C116.777 127.433 118.391 128.591 119.454 130.135C120.517 131.68 121.048 133.505 121.048 135.611C121.048 139.015 119.806 141.746 117.32 143.798C114.834 145.85 111.546 146.878 107.452 146.878C103.621 146.878 100.49 145.87 98.0579 143.852C95.6257 141.834 94.4095 139.165 94.4095 135.85H102.025C102.025 137.289 102.564 138.464 103.644 139.378C104.724 140.292 106.054 140.746 107.636 140.746C109.446 140.746 110.864 140.269 111.893 139.313C112.921 138.356 113.433 137.087 113.433 135.509C113.433 131.682 111.325 129.772 107.108 129.772H103.076V123.817H103.079Z" fill="white"/>
<path d="M152.116 130.502C152.116 135.801 151.019 139.855 148.823 142.662C146.626 145.47 143.413 146.875 139.179 146.875C134.999 146.875 131.8 145.498 129.589 142.742C127.376 139.986 126.242 136.037 126.191 130.896V123.842C126.191 118.488 127.302 114.426 129.524 111.653C131.746 108.88 134.948 107.494 139.128 107.494C143.308 107.494 146.507 108.868 148.718 111.613C150.928 114.358 152.065 118.304 152.116 123.445V130.502ZM144.501 122.746C144.501 119.567 144.066 117.254 143.197 115.803C142.327 114.353 140.969 113.629 139.125 113.629C137.332 113.629 136.011 114.318 135.158 115.698C134.306 117.078 133.854 119.232 133.8 122.167V131.495C133.8 134.623 134.226 136.945 135.079 138.464C135.931 139.983 137.295 140.744 139.176 140.744C141.037 140.744 142.381 140.014 143.208 138.555C144.035 137.099 144.464 134.868 144.498 131.861V122.746H144.501Z" fill="white"/>
<path d="M183.076 130.502C183.076 135.801 181.98 139.855 179.783 142.662C177.587 145.47 174.373 146.875 170.139 146.875C165.96 146.875 162.76 145.498 160.549 142.742C158.336 139.986 157.202 136.037 157.151 130.896V123.842C157.151 118.488 158.262 114.426 160.484 111.653C162.706 108.88 165.908 107.494 170.088 107.494C174.268 107.494 177.467 108.868 179.678 111.613C181.889 114.358 183.025 118.304 183.076 123.445V130.502ZM175.461 122.746C175.461 119.567 175.027 117.254 174.157 115.803C173.288 114.353 171.929 113.629 170.085 113.629C168.292 113.629 166.971 114.318 166.119 115.698C165.266 117.078 164.814 119.232 164.76 122.167V131.495C164.76 134.623 165.187 136.945 166.039 138.464C166.892 139.983 168.255 140.744 170.136 140.744C171.998 140.744 173.342 140.014 174.168 138.555C174.995 137.099 175.424 134.868 175.458 131.861V122.746H175.461Z" fill="white"/>
<path d="M114.876 25.4315H114.132V22.4509C114.132 19.1638 111.455 16.4897 108.165 16.4897C104.874 16.4897 102.198 19.1638 102.198 22.4509V25.4315H101.453C100.22 25.4315 99.2142 26.4336 99.2142 27.6684V38.1005C99.2142 39.3324 100.22 40.3373 101.453 40.3373H114.879C116.112 40.3373 117.118 39.3353 117.118 38.1005V27.6684C117.115 26.4336 116.109 25.4315 114.876 25.4315ZM104.187 22.4509C104.187 20.2595 105.971 18.4768 108.165 18.4768C110.358 18.4768 112.143 20.2595 112.143 22.4509V25.4315H104.187V22.4509ZM109.159 33.1044V35.3668C109.159 35.9147 108.716 36.3604 108.165 36.3604C107.614 36.3604 107.17 35.9147 107.17 35.3668V33.1044C106.579 32.7609 106.176 32.1251 106.176 31.3927C106.176 30.297 107.068 29.4056 108.165 29.4056C109.262 29.4056 110.154 30.297 110.154 31.3927C110.154 32.1251 109.75 32.7581 109.159 33.1044Z" fill="white"/>
</g>
<defs>
<clipPath id="clip0">
<rect width="216" height="258" fill="white"/>
</clipPath>
</defs>
</svg>
