<svg width="209" height="268" viewBox="0 0 209 268" fill="none" xmlns="http://www.w3.org/2000/svg">
<g clip-path="url(#clip0)">
<path d="M104.498 236.548C162.211 236.548 208.997 189.735 208.997 131.989C208.997 74.2435 162.211 27.4312 104.498 27.4312C46.7856 27.4312 0 74.2435 0 131.989C0 189.735 46.7856 236.548 104.498 236.548Z" fill="#7B73B1"/>
<path d="M166.072 198.63L156.716 174.99H55.2626L45.9058 198.63V264.809H166.072V198.63Z" fill="#EE8363"/>
<path d="M126.368 189.997H84.4258C82.6628 189.997 81.2365 188.567 81.2365 186.806C81.2365 185.045 82.6658 183.615 84.4258 183.615H126.368C128.131 183.615 129.557 185.045 129.557 186.806C129.56 188.57 128.131 189.997 126.368 189.997Z" fill="white"/>
<path d="M165.482 268H45.312C43.549 268 42.1226 266.57 42.1226 264.809V210.694C42.1226 208.933 43.552 207.502 45.312 207.502C47.0719 207.502 48.5013 208.933 48.5013 210.694V261.618H162.292V201.821H45.312C44.256 201.821 43.2674 201.298 42.6736 200.425C42.0798 199.552 41.9574 198.437 42.3461 197.457L51.7029 173.818C52.1835 172.599 53.3588 171.799 54.6688 171.799H156.122C157.429 171.799 158.607 172.599 159.088 173.818L163.67 185.394C164.319 187.032 163.517 188.888 161.879 189.535C160.245 190.184 158.387 189.384 157.741 187.743L153.958 178.182H56.8389L50.0072 195.436H165.482C167.245 195.436 168.671 196.866 168.671 198.627V264.809C168.674 266.57 167.245 268 165.482 268Z" fill="#3A082C"/>
<path d="M115.135 238.841C114.434 238.287 113.846 237.595 113.381 236.771C112.934 236.002 112.637 235.182 112.496 234.355V234.367C111.887 230.986 108.946 228.42 105.395 228.42C101.848 228.42 98.8911 230.986 98.2973 234.367L98.2912 234.355C98.1504 235.182 97.8566 236.002 97.4158 236.771C96.9383 237.595 96.3537 238.284 95.6528 238.841H95.6589C94.0581 240.161 93.0328 242.155 93.0328 244.394C93.0328 248.378 96.265 251.612 100.25 251.612C101.132 251.612 101.958 251.453 102.739 251.162L102.726 251.177C103.553 250.847 104.44 250.7 105.395 250.7C106.341 250.7 107.229 250.844 108.064 251.177L108.052 251.162C108.833 251.453 109.662 251.612 110.537 251.612C114.523 251.612 117.755 248.378 117.755 244.394C117.752 242.152 116.732 240.158 115.135 238.841Z" fill="white"/>
<path d="M110.537 254.803C109.426 254.803 108.325 254.623 107.259 254.264C107.131 254.231 107.002 254.188 106.877 254.139C106.047 253.808 104.759 253.805 103.914 254.139C103.791 254.188 103.669 254.228 103.544 254.261C102.472 254.623 101.367 254.803 100.256 254.803C94.5142 254.803 89.8404 250.133 89.8404 244.391C89.8404 241.285 91.2178 238.364 93.6235 236.376C94.0551 236.033 94.3765 235.65 94.6581 235.166C94.9029 234.738 95.0713 234.284 95.1448 233.834C95.1601 233.73 95.1845 233.629 95.2121 233.528C96.2007 228.701 100.44 225.225 105.392 225.225C110.351 225.225 114.593 228.701 115.582 233.531C115.609 233.629 115.631 233.73 115.646 233.834C115.719 234.275 115.888 234.728 116.148 235.188C116.374 235.58 116.632 235.911 116.928 236.174C117.149 236.321 117.348 236.492 117.525 236.685C119.705 238.664 120.944 241.445 120.944 244.388C120.947 250.133 116.276 254.803 110.537 254.803ZM108.921 248.087C109.004 248.112 109.087 248.136 109.166 248.167C109.616 248.335 110.075 248.418 110.534 248.418C112.757 248.418 114.565 246.611 114.565 244.388C114.565 243.193 114.03 242.063 113.099 241.291C113.081 241.276 113.066 241.261 113.047 241.249C112.086 240.471 111.269 239.5 110.614 238.361C110.02 237.319 109.613 236.241 109.402 235.148C109.384 235.074 109.368 234.998 109.353 234.921C109.013 233.001 107.348 231.608 105.395 231.608C103.446 231.608 101.784 233.001 101.441 234.921C101.429 234.998 101.41 235.071 101.392 235.145C101.178 236.257 100.77 237.335 100.186 238.358C99.4972 239.543 98.6432 240.541 97.6393 241.334C96.7608 242.063 96.2252 243.193 96.2252 244.388C96.2252 246.611 98.0341 248.418 100.259 248.418C100.725 248.418 101.175 248.335 101.637 248.164C101.71 248.136 101.787 248.112 101.86 248.09C104.033 247.316 106.757 247.315 108.921 248.087Z" fill="#3A082C"/>
<path d="M92.0319 225.823C92.0319 228.619 89.7639 230.891 86.9694 230.891C84.1657 230.891 81.8976 228.622 81.8976 225.823C81.8976 223.02 84.1657 220.754 86.9694 220.754C89.7669 220.757 92.0319 223.02 92.0319 225.823Z" fill="#3A082C"/>
<path d="M103.155 216.044C103.155 218.84 100.884 221.109 98.0923 221.109C95.2917 221.109 93.0267 218.84 93.0267 216.044C93.0267 213.248 95.2917 210.975 98.0923 210.975C100.884 210.975 103.155 213.248 103.155 216.044Z" fill="#3A082C"/>
<path d="M118.762 225.823C118.762 228.619 121.024 230.891 123.827 230.891C126.619 230.891 128.896 228.622 128.896 225.823C128.896 223.023 126.619 220.754 123.827 220.754C121.024 220.757 118.762 223.026 118.762 225.823Z" fill="#3A082C"/>
<path d="M107.645 216.044C107.645 218.84 109.919 221.109 112.701 221.109C115.505 221.109 117.773 218.84 117.773 216.044C117.773 213.248 115.505 210.975 112.701 210.975C109.919 210.975 107.645 213.248 107.645 216.044Z" fill="#3A082C"/>
<path d="M163.734 61.3763L112.46 7.16316C111.404 6.03614 110.075 5.12963 108.526 4.56918C106.978 4.00874 105.38 3.86174 103.853 4.04855L37.0876 12.3542L25.4015 44.7497L43.353 51.2484L60.723 88.2532C61.7331 90.3847 64.2766 91.2973 66.413 90.2928C66.7773 90.1213 67.1782 89.8304 67.1966 89.8089C74.9037 83.6073 77.6767 72.7352 73.2937 63.3822L63.2145 41.9138L110.828 35.9939L116.708 42.2507L111.59 56.4425C108.545 64.886 111.82 74.0675 118.982 78.8144C119 78.8297 119.371 79.0533 119.701 79.1727C121.63 79.8679 123.757 78.8695 124.461 76.9462L128.976 64.4296L129.22 64.6838C134.617 70.3648 142.939 71.5654 149.59 68.2027C154.037 69.4798 158.904 68.9622 163.024 66.5887C163.042 66.5795 163.064 66.5704 163.079 66.5581C163.263 66.4448 163.44 66.307 163.599 66.1538C164.961 64.8676 165.114 62.8432 163.734 61.3763Z" fill="white"/>
<path d="M17.7506 3.24108L2.29449 46.0875L19.1509 52.1752L34.6071 9.32872L17.7506 3.24108Z" fill="#EE8363"/>
<path d="M163.195 60.2218L131.758 27.1249C131.755 27.1218 131.752 27.1187 131.749 27.1157L111.933 6.02089C109.077 2.97979 104.948 1.46996 100.737 1.97221L38.8353 9.67451C39.0985 8.24124 38.3058 6.78347 36.8887 6.26896L20.0237 0.180626C18.4474 -0.389007 16.7058 0.428692 16.1365 2.00896C15.5672 3.58617 16.3844 5.32876 17.9607 5.89839L31.9669 10.9546L18.5759 48.0849L7.42855 44.0577L17.9546 14.8716C18.5239 13.2944 17.7067 11.5518 16.1304 10.9822C14.5541 10.4126 12.8125 11.2303 12.2432 12.8106L0.682567 44.8539C0.11326 46.4311 0.930491 48.1737 2.5068 48.7434L19.3687 54.8317C20.945 55.4013 22.6866 54.5836 23.2559 53.0034L36.5765 16.0813L101.474 8.00542C103.752 7.73285 105.965 8.54443 107.507 10.1829L127.347 31.3022C127.35 31.3052 127.353 31.3083 127.356 31.3114L127.503 31.4645L130.393 34.5423C132.015 36.4258 132.502 39.0504 131.657 41.3994L118.869 76.8514C118.743 77.2005 118.352 77.3812 118.015 77.2617C117.969 77.2434 117.926 77.2219 117.892 77.2036C111.74 73.1059 109.2 65.3883 111.713 58.421L116.83 44.2292C117.219 43.1542 116.971 41.9506 116.188 41.1176L110.311 34.8609C109.647 34.1534 108.689 33.8043 107.725 33.9268L60.1078 39.8467C59.1437 39.9661 58.2928 40.5419 57.8245 41.3933C57.3531 42.2446 57.3225 43.2706 57.7357 44.1526L67.8149 65.621C71.5001 73.4856 69.4034 82.7651 62.6299 88.339C62.5871 88.3696 62.4891 88.44 62.3973 88.486C61.7759 88.78 61.0322 88.5105 60.7445 87.9041L43.3745 50.8994C43.0317 50.1705 42.4164 49.607 41.6604 49.3344L34.5104 46.7374C34.5074 46.7374 34.5074 46.7374 34.5043 46.7343C32.928 46.1647 31.1895 46.9793 30.6171 48.5565C30.0447 50.1338 30.8589 51.8763 32.4352 52.449L38.4068 54.6173L55.2473 90.498C56.1074 92.3111 57.6225 93.6096 59.3763 94.2435C61.1393 94.8806 63.1441 94.8469 64.9683 93.9924C65.5744 93.7076 66.2171 93.2605 66.3702 93.1257C75.3659 85.8828 78.2216 73.5132 73.3121 63.0424L65.0112 45.3562L106.941 40.1437L110.485 43.9168L105.998 56.3538C102.527 65.9793 106.05 76.6462 114.572 82.2904L114.575 82.2874C115.181 82.6947 115.903 82.9581 115.94 82.9703C119.435 84.2321 123.313 82.416 124.583 78.9186L127.513 70.7937C128.645 71.4735 129.875 72.0585 131.176 72.5271C136.511 74.4534 142.896 74.5545 147.619 72.4627C152.326 73.4244 157.331 72.7353 161.702 70.221C161.766 70.1873 161.845 70.1413 161.922 70.0923C162.314 69.8535 162.675 69.5748 162.966 69.2899C165.601 66.7787 165.705 62.8831 163.195 60.2218ZM129.637 64.9013L131.21 60.5433L136.9 66.5337C137.35 67.0084 137.834 67.4371 138.317 67.8628C135.048 67.5811 131.779 66.4755 129.637 64.9013ZM158.769 64.9013C158.766 64.9044 158.76 64.9075 158.754 64.9075C153.024 68.1905 145.853 67.137 141.301 62.3441L133.515 54.1487L137.377 43.4421C137.521 43.0409 137.619 42.6366 137.723 42.2293L158.785 64.4021C158.935 64.5583 159.008 64.6716 158.769 64.9013Z" fill="#3A082C"/>
<path d="M87.661 96.9019C88.6527 96.562 89.3506 96.0168 89.7485 95.2634C90.1464 94.51 90.3698 93.3892 90.4127 91.9008C90.4586 90.4093 90.5626 89.1047 90.7249 87.9776C90.8871 86.8537 91.1717 85.84 91.5727 84.9365C91.9737 84.0361 92.5399 83.246 93.2684 82.5692C93.9969 81.8924 94.9549 81.3534 96.1425 80.946C98.1871 80.2447 100.088 80.3274 101.842 81.188C103.595 82.0486 104.951 83.5247 105.913 85.6195L109.8 84.2903L110.794 87.1967L106.855 88.5442C107.284 90.7921 106.965 92.7736 105.897 94.4947C104.829 96.2128 103.115 97.4777 100.755 98.2831L98.9615 93.0339C100.415 92.5378 101.398 91.864 101.912 91.0188C102.426 90.1735 102.512 89.2455 102.169 88.241C101.829 87.2488 101.285 86.575 100.535 86.2228C99.7848 85.8706 98.9155 85.8645 97.9208 86.2044C96.9995 86.5199 96.3537 87.0374 95.9802 87.7633C95.6068 88.486 95.3742 89.6712 95.2885 91.3189C95.2028 92.9635 95.062 94.3416 94.8661 95.4503C94.6702 96.5589 94.358 97.545 93.9295 98.4087C93.501 99.2723 92.9317 100.016 92.2185 100.638C91.5054 101.26 90.5963 101.762 89.4975 102.139C87.4406 102.843 85.5491 102.773 83.8289 101.928C82.1057 101.082 80.7467 99.5724 79.7458 97.398L76.1341 98.6353L75.1454 95.7473L78.7419 94.5162C78.1603 91.9406 78.3838 89.7172 79.4122 87.8429C80.4406 85.9686 82.1975 84.6058 84.6767 83.7575L86.4704 89.0067C85.0287 89.4997 84.0432 90.2194 83.5075 91.1688C82.9719 92.1151 82.926 93.233 83.3637 94.5162C83.7279 95.5819 84.2972 96.3261 85.0716 96.7518C85.8398 97.1806 86.7061 97.2296 87.661 96.9019Z" fill="white"/>
<path d="M113.369 118.015L86.3633 115.832L84.4686 110.291L110.176 112.937L105.68 99.7838L109.91 98.3352L116.295 117.011L113.369 118.015Z" fill="white"/>
<path d="M108.028 143.486C104.373 144.739 101.315 144.938 98.8635 144.086C96.4087 143.235 94.6825 141.349 93.6846 138.43C92.6991 135.548 92.895 133.018 94.2754 130.841C95.6527 128.663 98.1105 126.952 101.646 125.702L106.512 124.036C110.204 122.771 113.268 122.578 115.704 123.457C118.14 124.333 119.851 126.213 120.837 129.098C121.823 131.98 121.63 134.51 120.255 136.684C118.884 138.859 116.429 140.571 112.894 141.82L108.028 143.486ZM111.584 136.406C113.776 135.655 115.272 134.81 116.065 133.867C116.861 132.927 117.038 131.818 116.604 130.547C116.181 129.313 115.395 128.562 114.241 128.302C113.09 128.039 111.495 128.238 109.46 128.893L103.026 131.095C100.868 131.833 99.3685 132.675 98.5207 133.622C97.6729 134.568 97.4708 135.689 97.9147 136.984C98.3523 138.268 99.1726 139.021 100.372 139.248C101.572 139.471 103.213 139.241 105.294 138.559L111.584 136.406Z" fill="white"/>
<path d="M115.328 164.832C111.673 166.085 108.615 166.284 106.164 165.432C103.709 164.581 101.983 162.698 100.985 159.776C99.9991 156.894 100.195 154.364 101.575 152.187C102.953 150.009 105.411 148.297 108.946 147.048L113.812 145.382C117.504 144.117 120.568 143.924 123.004 144.803C125.44 145.679 127.151 147.559 128.137 150.444C129.123 153.326 128.93 155.856 127.555 158.03C126.184 160.205 123.729 161.917 120.194 163.166L115.328 164.832ZM118.881 157.752C121.073 157.001 122.569 156.156 123.362 155.213C124.158 154.273 124.335 153.164 123.901 151.893C123.478 150.659 122.692 149.908 121.538 149.648C120.387 149.385 118.792 149.584 116.757 150.239L110.323 152.441C108.165 153.179 106.666 154.021 105.818 154.968C104.97 155.914 104.768 157.035 105.212 158.33C105.649 159.614 106.47 160.37 107.669 160.594C108.869 160.817 110.51 160.587 112.591 159.905L118.881 157.752Z" fill="white"/>
</g>
<defs>
<clipPath id="clip0">
<rect width="209" height="268" fill="white"/>
</clipPath>
</defs>
</svg>
