<?xml version="1.0" encoding="utf-8"?>
<!-- Generator: Adobe Illustrator 23.0.6, SVG Export Plug-In . SVG Version: 6.00 Build 0)  -->
<svg version="1.1" xmlns="http://www.w3.org/2000/svg" xmlns:xlink="http://www.w3.org/1999/xlink" x="0px" y="0px"
	 viewBox="0 0 181 181" style="enable-background:new 0 0 181 181;" xml:space="preserve">
<style type="text/css">
	.st0{display:none;}
	.st1{display:inline;}
	.st2{fill-rule:evenodd;clip-rule:evenodd;fill:#C9D4EA;}
	.st3{clip-path:url(#SVGID_2_);}
	.st4{fill:#EF8363;}
	.st5{fill-rule:evenodd;clip-rule:evenodd;fill:#FFFFFF;}
	.st6{fill:#B78A60;}
	.st7{fill-rule:evenodd;clip-rule:evenodd;fill:#B0754D;}
	.st8{fill-rule:evenodd;clip-rule:evenodd;fill:none;}
	.st9{fill:#231F20;}
	.st10{clip-path:url(#SVGID_4_);}
	.st11{fill-rule:evenodd;clip-rule:evenodd;fill:#EF8363;}
	.st12{fill-rule:evenodd;clip-rule:evenodd;fill:#B78A60;}
	.st13{fill:#252122;}
	.st14{fill:#6F69A8;}
	.st15{fill:#EDAD82;}
	.st16{fill:#F5BF99;}
	.st17{fill-rule:evenodd;clip-rule:evenodd;fill:#E3A378;}
	.st18{fill-rule:evenodd;clip-rule:evenodd;fill:#3B092C;}
	.st19{fill-rule:evenodd;clip-rule:evenodd;fill:#EDAD82;}
	.st20{fill-rule:evenodd;clip-rule:evenodd;fill:#252122;}
	.st21{fill-rule:evenodd;clip-rule:evenodd;fill:#F5BF99;}
	.st22{clip-path:url(#SVGID_6_);fill-rule:evenodd;clip-rule:evenodd;fill:#C9D4EA;}
	.st23{clip-path:url(#SVGID_6_);}
	.st24{fill:#EF7C59;}
	.st25{fill:#3B092C;}
</style>
<g id="Layer_1" class="st0">
	<g class="st1">
		<path class="st2" d="M90.5,0.5c49.7,0,90,40.3,90,90c0,49.71-40.3,90-90,90c-49.71,0-90-40.29-90-90C0.5,40.8,40.79,0.5,90.5,0.5
			L90.5,0.5z"/>
		<g>
			<defs>
				<path id="SVGID_1_" d="M90.5,0.5c49.7,0,90,40.3,90,90c0,49.71-40.3,90-90,90c-49.71,0-90-40.29-90-90
					C0.5,40.8,40.79,0.5,90.5,0.5L90.5,0.5z"/>
			</defs>
			<clipPath id="SVGID_2_">
				<use xlink:href="#SVGID_1_"  style="overflow:visible;"/>
			</clipPath>
			<g class="st3">
				<path class="st4" d="M152.88,164.15c-2.51-11.41-5.31-20.46-7.72-29.17c-4.43-16.04-17.72-15.1-28.24-18.93l3.86,3.95
					l-29.72,32.17c-0.12,0.03-0.19,0.05-0.19,0.05l-30.2-34.03l2.61-2.58c-4.24,1.15-9.13,1.72-13.67,3.37
					c-0.78,0.25-1.58,0.55-2.37,0.91c-4.45,2.04-9.14,6.52-10.99,12.89c-2.53,8.68-5.45,17.68-8.13,29.05l29.08,14.83l32.86,6.97
					l30.87-4.98L152.88,164.15z"/>
				<polygon class="st5" points="109.42,108.3 122.37,121.25 90.5,154.11 57.64,118.26 70.58,110.29 89.5,146.14 				"/>
				<path class="st6" d="M89.9,149.92l20.52-38.64c-4.05-2.95-7.94-17.48-7.97-25.2c-7.88,6.35-21.76,4.46-26.11,0.69
					c-0.33,7.59-3.54,21.85-6.75,24.51L89.9,149.92z"/>
				<path class="st7" d="M86.36,66.87L86.36,66.87c-8.77,0-15.95,7.18-15.95,15.95v9.45c3.79,6.74,9.53,11.04,15.95,11.04
					c6.43,0,12.17-4.3,15.95-11.04v-9.45C102.31,74.05,95.13,66.87,86.36,66.87L86.36,66.87z"/>
				<path class="st6" d="M104.97,92.42c3.45-3.7,5.81-7.9,6.33-13.32c1.96-5.93,5.85-27.55,0-37.2
					c-11.17-18.42-33.37-10.92-44.18-6.88c-0.81,4.03-6.06,6.88-4.48,10.54c0.61,1.42-1.65,2.53-2.4,3.62
					c-1.04,1.52-2.04,5.72-2.6,9.11c0.17,1.15,0.23,2.56,0.3,4.29c0.04,1.09,0.13,2.36,0.24,3.67c0,0,0.14,1.21,0.16,1.82
					c0.31,3.13,0.7,6.25,0.99,7.99c2.8,12.97,11.41,23.88,26.88,23.88C93.79,99.94,100.46,97.27,104.97,92.42z"/>
				<path class="st8" d="M90.5,1.37c49.7,0,90,40.3,90,90c0,49.71-40.3,90-90,90c-49.71,0-90-40.29-90-90
					C0.5,41.67,40.79,1.37,90.5,1.37L90.5,1.37z"/>
				<path class="st9" d="M135.85,108.62c-1.98-1.09-4.13-1.87-6.13-2.94c-1.12-0.59-2.28-1.31-2.41-3c0.37,0.1,0.62,0.12,0.83,0.24
					c1.36,0.78,2.65,1.73,4.08,2.34c2.4,1.02,4.62,2.22,6.52,4.05c2.9,2.79,4.48,6.27,5.54,10.5c-0.09-6.97-3.05-12.72-8.6-16.04
					c-1.95-1.16-4.19-1.95-5.5-4.21c7.53-5.18,8.61-11.95,4.99-19.9c2.74,2.34,3.8,5.5,4.27,8.95c0.46-2.62-0.16-5.03-1.27-7.35
					c-1.52-3.18-4.1-5.25-7.12-6.93c-3.3-1.83-3.73-4.29-1.4-6.86c1.84-2.02,2.72-4.52,3.13-7.15c0.31-1.95,0.26-3.78-1.49-5.34
					c-1.55-1.38-2.72-3.18-4.25-5.02c0.72-0.28,1.37-0.73,1.57-0.58c1.18,0.89,2.32,1.87,3.36,2.93c0.46,0.47,0.58,1.26,1.02,1.77
					c0.35,0.42,0.92,0.64,1.4,0.95c-0.41-3.15-1.73-5.59-3.67-7.65c-2.06-2.19-4.27-4.25-6.3-6.47c-0.49-0.54-0.8-1.48-0.77-2.21
					c0.16-3.74-0.55-7.27-2.52-10.46c-4.35-7.03-11.17-10.3-18.92-11.97c-2.45-0.53-5-0.58-7.76-0.88c0.54-0.27,0.88-0.56,1.24-0.59
					c1.94-0.15,3.91-0.47,5.83-0.27c4.37,0.44,8.26,2.44,12.22,4.16c0.6,0.26,1.21,0.5,1.81,0.75c-3.68-3.5-7.97-5.62-12.91-6.62
					c-5.11-1.03-9.68,0.43-14.27,2.5c-0.31-0.88-0.59-1.67-0.87-2.46c-0.07,0.03-0.14,0.05-0.21,0.08c-0.07,0.75-0.13,1.5-0.21,2.39
					c-1.66-1.76-3.15-3.34-4.65-4.91c-0.12,0.1-0.23,0.2-0.35,0.3c0.66,1.01,1.31,2.02,1.97,3.03c-0.07,0.11-0.14,0.23-0.21,0.34
					c-4.34-1.67-8.72-2.25-13.28-1.15c-4.85,1.16-9.62,3.99-11.81,6.52c0.73-0.32,1.24-0.57,1.77-0.77c3.8-1.4,7.53-3.06,11.42-4.11
					c2.91-0.79,6-0.59,8.82,0.92c-0.35,0.17-0.71,0.26-1.05,0.23c-6.67-0.45-12.94,1.01-18.68,4.37
					c-7.15,4.19-11.69,10.04-11.19,18.87c0.04,0.71-0.45,1.59-0.96,2.15c-1.63,1.8-3.4,3.47-5.1,5.21
					c-3.11,3.2-5.16,6.88-5.32,11.48c-0.13,3.59,0.75,6.84,2.87,9.73c-0.49-1.8-1.35-3.53-1.61-5.34c-0.26-1.85-0.12-3.81,0.19-5.66
					c0.45-2.65,1.32-4.07,2.4-4.82c0,0.11,0.03,0.23,0,0.31c-2.73,5.72-2.14,11.01,1.94,15.93c1.46,1.76,1.48,3.4,0.18,4.87
					c-0.56,0.64-1.32,1.16-2.07,1.57c-5.91,3.23-8.94,8.35-8.3,14.54c0.58-3.71,1.48-6.96,4.28-9.2c-3.62,8-2.45,14.75,5.42,20.13
					c-1.71,1.17-3.03,2.29-4.53,3.08c-6.66,3.53-9.66,9.21-10,16.52c0.49-1.29,0.8-2.67,1.36-3.94c2.07-4.73,5.38-8.19,10.32-10.05
					c1.81-0.68,3.47-1.78,5.31-2.74c-0.15,1.66-1.32,2.37-2.44,2.97c-1.9,1.02-3.92,1.81-5.85,2.79
					c-6.17,3.14-10.18,12.28-5.78,19.58c0.64,1.06,1.59,1.94,2.59,2.97c0.04,0.28,0.08,0.56,0.13,0.84
					c0.37,1.83,3.17,1.05,2.79-0.77c-0.13-0.66-0.19-1.3-0.2-1.94c0.43-1.87,2.14-3.4,3.65-4.42c2.09-1.41,4.4-2.04,6.79-2.74
					c2.34-0.69,4.65-1.52,6.88-2.52c0.99-0.44,1.96-0.95,2.87-1.55c0.07,0.1,0.14,0.2,0.22,0.29c1.16,1.22,3.15,0.28,4.46-0.16
					c1.05-0.35,2.09-0.76,3.11-1.2c0.92-0.34,1.83-0.68,2.63-1.21c1-0.52,1.95-1.16,2.47-2.2c0.07-0.13,0.1-0.26,0.13-0.39
					c1.02-1.07,1.93-2.28,2.7-3.53c0.98-1.59,1.25-3.27,1.32-5.11c0.01-0.12-0.01-0.24-0.04-0.36c0.18-1.51,0.35-2.85,0.49-4.2
					c0.19-1.85-0.47-3.21-1.9-4.53c-4.74-4.38-7.98-9.66-10.38-15.42c-0.83-2.96-1.4-5.99-1.67-9.06c-0.01-0.07-0.03-0.12-0.05-0.17
					c-0.08-2.24-0.2-9.73-0.27-9.74c0.27-2.26,0.48-4.53,0.84-6.77c0.39-2.42,1.74-3.89,4.02-5.14c6.63-3.64,13.04-7.69,19.55-11.57
					c0.16-0.09,0.34-0.13,0.61-0.05c-4.65,7.96-12,12.42-20.68,15.64c2.69,0.11,8.36-1.51,11.26-3c5.96-3.06,10.97-7.23,14.88-12.68
					c0.77-1.07,1.51-1.2,2.77-1.01c9.45,1.44,17.48,12.59,17.99,20.01c0.1,1.43,0.68,13.29,0.14,17.59
					c-0.1,0.78-0.21,1.55-0.31,2.33c-2.38,7.12-5.95,13.57-11.43,18.76c-1.75,1.66-2.32,3.27-2.22,5.51
					c0.21,4.73,1.28,9.06,4.97,12.39c3.44,3.11,32.55,9.98,34.77,18.48c0.23-0.13,0.47-0.22,0.65-0.37
					C146.52,124.62,143.39,112.79,135.85,108.62z M58.98,66.64c0-0.04,0-0.09-0.01-0.13c0.02,0.05,0.05,0.11,0.07,0.17
					C59.02,66.66,59,66.65,58.98,66.64z"/>
				<path class="st6" d="M63.02,65.28c0.62,7.47,2.11,12.91,1.97,12.33c0.32,1.35-2.71-1.69-4.53-5.67
					c-1.77-3.87-2.08-14.64-0.7-14.47C62.35,57.78,62.57,59.82,63.02,65.28z"/>
			</g>
		</g>
	</g>
</g>
<g id="Layer_2">
	<g>
		<path class="st2" d="M90.5,0.5c49.7,0,90,40.3,90,90c0,49.71-40.3,90-90,90s-90-40.29-90-90C0.5,40.8,40.79,0.5,90.5,0.5L90.5,0.5
			z"/>
		<g>
			<defs>
				<path id="SVGID_3_" d="M90.5,0.5c49.7,0,90,40.3,90,90c0,49.71-40.3,90-90,90s-90-40.29-90-90C0.5,40.8,40.79,0.5,90.5,0.5
					L90.5,0.5z"/>
			</defs>
			<clipPath id="SVGID_4_">
				<use xlink:href="#SVGID_3_"  style="overflow:visible;"/>
			</clipPath>
			<g class="st10">
				<g>
					<path class="st11" d="M81,94.76l-32.27-13l-31.9,13c-3.94,1.6-6.93,3.56-7.73,7.73l-5.57,20.58
						c10.26,12.48,30.38,51.78,47.8,51.78s30.57-42.04,40.83-54.52l-3.42-17.84C87.92,98.32,84.94,96.35,81,94.76L81,94.76z"/>
					<path class="st12" d="M48.91,65.88L48.91,65.88c-5.65,0-10.28,4.63-10.28,10.28v11.56c0,5.65,5.99,10.28,10.28,10.28
						c4.29,0,10.28-4.63,10.28-10.28V76.16C59.19,70.5,54.56,65.88,48.91,65.88L48.91,65.88z"/>
					<path class="st7" d="M48.91,65.88L48.91,65.88c-5.65,0-10.28,4.63-10.28,10.28v6.09c2.44,4.34,6.14,7.12,10.28,7.12
						c4.14,0,7.84-2.77,10.28-7.12v-6.09C59.19,70.5,54.56,65.88,48.91,65.88L48.91,65.88z"/>
					<path class="st12" d="M36.42,54.4c-1.2,3.19-1.62,7.09-1.62,11.31c0,10.76,6.32,19.48,14.12,19.48
						c7.8,0,14.12-8.72,14.12-19.48c0-5.62-0.75-10.68-3.09-14.23C54.94,56.25,40.97,60.2,36.42,54.4L36.42,54.4z"/>
					<polygon class="st5" points="22.55,110.56 75.27,110.56 75.27,122.63 22.55,122.63 22.55,110.56 					"/>
					<path class="st12" d="M33.75,48.62c-3.63,6.01-1.38,31.26,14.68,31.26c13.64,0,20.5-21.87,15.38-30.79
						C58.69,40.17,38.62,40.58,33.75,48.62L33.75,48.62z"/>
					<path class="st13" d="M31.73,69.97c-0.3-1.24-0.57-2.35-0.85-3.46c-0.62-2.51-1.31-5.02-1.29-7.62
						c0.01-1.63,0.23-3.26,0.35-4.9c-0.2,0.27-0.46,0.62-0.82,1.1c0.11-1.19,0.59-2.1,1.31-2.73c1.16-1.02,1.72-2.14,2.02-3.7
						c0.54-2.86,2.56-4.81,5.08-6.26c-0.63,0.86-1.26,1.72-1.9,2.57c5.02-3.06,10.37-5.08,16.28-5.55
						c-0.59,0.22-1.17,0.42-1.75,0.65c-0.57,0.23-1.13,0.48-1.69,0.72c0.02,0.08,0.04,0.15,0.06,0.23c0.36-0.06,0.72-0.08,1.07-0.18
						c3.58-1.09,7.14-1.17,10.68,0.14c0.55,0.2,1.06,0.51,1.56,0.85c-2.15-0.38-4.23-1.12-6.48-0.75c5,0.74,9.25,2.83,12.46,6.81
						c0.99,1.22,1.7,2.59,2.13,4.1c-0.06,0.05-0.12,0.11-0.18,0.16c-0.47-0.5-0.94-1.01-1.41-1.51c1.34,4.17,1.62,8.35,0.71,12.6
						c-0.07,0-0.14,0.01-0.21,0.01c-0.12-1.87-0.24-3.74-0.35-5.61c-0.04,0-0.08,0-0.11,0c-0.25,1.36-0.51,2.72-0.76,4.08
						c-0.09-0.01-0.17-0.02-0.26-0.03c-0.14-0.56-0.27-1.12-0.41-1.68c-0.6,3.44-0.66,6.94-1.88,10.23c-0.1,0-0.17,0.02-0.21,0
						c-1.14-0.71-1.12-0.7-1.58,0.56c-0.3,0.84-0.65,1.66-0.98,2.48c-0.12-0.01-0.23-0.02-0.35-0.02c-0.13-0.72-0.37-1.45-0.37-2.17
						c-0.02-2.78,0.05-5.56,0.06-8.34c0.01-1.92,0.01-3.88-1.82-5.11c-1.22-0.83-2.52-1.54-3.81-2.27c-1.18-0.67-2.42-0.68-3.74-0.4
						c-2.69,0.57-5.43,0.61-8.11,0.02c-1.71-0.38-3.19-0.12-4.63,0.78c-1.06,0.67-2.18,1.26-3.19,2c-1.11,0.8-1.63,1.98-1.63,3.36
						c-0.01,3.39,0.01,6.77-0.02,10.16c-0.01,0.66-0.22,1.31-0.33,1.97c-0.12,0.02-0.24,0.03-0.36,0.05
						c-0.35-0.9-0.73-1.79-1.03-2.71C32.8,69.99,32.61,69.53,31.73,69.97z"/>
				</g>
				<g>
					<path class="st14" d="M170.82,133.03c-1.48-6.73-5.13-18.87-6.55-24.01c-2.61-9.46-10.45-8.91-16.66-11.17l2.28,2.33
						l-17.53,18.98c-0.07,0.02-0.11,0.03-0.11,0.03l-17.82-20.07l1.54-1.52c-2.5,0.68-5.39,1.01-8.07,1.99
						c-0.46,0.15-0.93,0.32-1.4,0.54c-2.63,1.2-5.39,3.85-6.49,7.6c-1.49,5.12-3.22,10.43-4.79,17.14l17.15,8.75l19.6,37.27
						l26.89-18.92L170.82,133.03z"/>
					<polygon class="st5" points="143.19,93.28 150.83,100.92 132.03,120.31 112.64,99.16 120.28,94.46 131.44,115.61 					"/>
					<path class="st15" d="M131.68,117.84l12.1-22.79c-2.39-1.74-4.68-10.31-4.7-14.87c-4.65,3.75-12.84,2.63-15.4,0.41
						c-0.19,4.48-2.09,12.89-3.98,14.46L131.68,117.84z"/>
					<path class="st9" d="M152.83,97.68c-1.03-4.71-5.54-13.06-9.25-21.2c-0.5,2.47-1.69,5.26-3.25,7.06
						c-0.25,0.29-1.15,1.4-1.42,1.67c0.14,4.99,2.14,8.2,4.87,9.83C147.05,97,151.26,96.9,152.83,97.68z"/>
					<path class="st16" d="M115.82,67.91c0.36,4.4,1.25,7.61,1.16,7.27c0.19,0.8-1.6-0.99-2.67-3.34c-1.05-2.28-1.23-8.63-0.41-8.54
						C115.42,63.48,115.55,64.68,115.82,67.91z"/>
					<path class="st17" d="M131.35,68.85L131.35,68.85c-5.18,0-9.41,4.23-9.41,9.41v5.58c2.23,3.98,5.62,6.51,9.41,6.51
						c3.79,0,7.18-2.54,9.41-6.51v-5.58C140.76,73.08,136.53,68.85,131.35,68.85L131.35,68.85z"/>
					<path class="st16" d="M140.52,84.2c1.77-2.04,2.99-4.36,3.26-7.36c-4.75-9.73-12.1-19.71-22.73-24.36
						c-0.6,3.21-2.29,5.86-3.54,7.83c-0.53,0.84-1.05,3.16-1.34,5.04c0.09,0.63,0.12,1.41,0.16,2.37c0.02,0.61,0.07,1.3,0.12,2.03
						c0,0,0.07,0.67,0.08,1.01c0.16,1.73,0.36,3.45,0.51,4.41c1.44,7.17,5.87,13.2,13.83,13.2C134.77,88.35,138.2,86.88,140.52,84.2
						z"/>
					<path class="st9" d="M124.39,86.82c-2.85-2.31-5.95-6.19-6.96-10.58c-0.92-0.65-2.79-2.93-3.16-4.53
						c-0.4-1.71-0.99-7.33-0.12-8.39c0.49-0.6,1.33,0.85,2.01,1.09c0.11-0.99,0.68-3.24,1.6-4.69c1.37-2.14,2.61-4.91,3.02-8.2
						l0.1-0.78l0.73,0.3c14.04,3.45,27.97,34.06,30.69,41.87c-0.82-10.59-1.84-22.84-2.15-32.17c-1.25-9.8-8.69-16.42-18.5-16.42
						c-10.73,0-18.52,7.67-18.52,18.23c0,10.03-0.27,16.95-0.49,23.98c-0.14,4.37-1.46,9.84-1.45,12.34
						C115.78,97.91,123.03,97.64,124.39,86.82z"/>
				</g>
				<path class="st5" d="M74.09,118.15c-4.33,17.14,4.64,41.64,4.46,59.18c-0.01,1.27-0.04,2.49-0.07,3.67
					c2.72,0.33,5.49,0.5,8.29,0.5c2.65,0,5.27-0.16,7.85-0.45c-0.04-1.2-0.06-2.44-0.08-3.72c-0.18-17.49,10.34-43.49,4.82-59.34
					l-1.19-0.48L87,112.95l-11.66,4.7L74.09,118.15L74.09,118.15z"/>
				<path class="st18" d="M94.62,181.04c-0.04-1.2-0.06-2.44-0.08-3.72c-0.18-17.49,10.34-43.49,4.82-59.34l26.52,10.81
					c4.8,1.96,8.45,4.33,9.42,9.42l5.64,27.67C130.02,178.86,112.36,179.01,94.62,181.04L94.62,181.04z M47.66,128.8l26.43-10.65
					c-4.33,17.14,4.64,41.64,4.46,59.18c-0.01,1.27-0.04,2.49-0.07,3.67c-17.56-2.13-35.25-1.25-46.08-14.11l5.84-28.67
					C39.21,133.13,42.85,130.73,47.66,128.8L47.66,128.8z"/>
				<path class="st19" d="M86.77,93.59L86.77,93.59c6.89,0,12.53,5.64,12.53,12.53v14.1c0,6.89-10.98,12.53-12.53,12.53
					c-1.54,0-12.53-5.64-12.53-12.53v-14.1C74.24,99.22,79.88,93.59,86.77,93.59L86.77,93.59z"/>
				<path class="st17" d="M86.77,93.59L86.77,93.59c6.89,0,12.53,5.64,12.53,12.53v7.43c-2.97,5.3-6.14,13.06-12.53,13.06
					c-6.39,0-9.56-7.77-12.53-13.06v-7.43C74.24,99.22,79.88,93.59,86.77,93.59L86.77,93.59z"/>
				<path class="st20" d="M104.39,68.81c5.08,8.62,1.96,38.33-17.62,38.33c-16.63,0-26.3-29.29-16.06-34.8
					C69.1,60.87,99.31,60.19,104.39,68.81L104.39,68.81z"/>
				<path class="st21" d="M102,79.59c1.46,3.89,1.98,8.65,1.98,13.79c0,13.11-7.7,23.74-17.21,23.74c-9.5,0-17.21-10.63-17.21-23.74
					c0-6.85,0.91-13.02,3.76-17.35C79.42,81.84,96.45,86.66,102,79.59L102,79.59z"/>
				<path class="st11" d="M87.18,142.05l2.91-4.66l-3.31-4.25l-3.31,4.25l2.91,4.66l-5.49,39.19c1.94,0.17,3.91,0.26,5.9,0.26
					c1.99,0,3.95-0.09,5.9-0.26L87.18,142.05L87.18,142.05z"/>
			</g>
		</g>
	</g>
</g>
<g id="Layer_3" class="st0">
	<g class="st1">
		<defs>
			<path id="SVGID_5_" d="M90.5,0.5c49.7,0,90,40.3,90,90c0,49.71-40.3,90-90,90c-49.71,0-90-40.29-90-90
				C0.5,40.8,40.79,0.5,90.5,0.5L90.5,0.5z"/>
		</defs>
		<clipPath id="SVGID_6_">
			<use xlink:href="#SVGID_5_"  style="overflow:visible;"/>
		</clipPath>
		<path class="st22" d="M90.5,0.5c49.7,0,90,40.3,90,90c0,49.71-40.3,90-90,90c-49.71,0-90-40.29-90-90C0.5,40.8,40.79,0.5,90.5,0.5
			L90.5,0.5z"/>
		<g class="st23">
			<path class="st24" d="M152.88,162.16c-2.51-11.41-5.31-20.46-7.72-29.17c-4.43-16.04-17.72-15.1-28.24-18.93l3.86,3.95
				l-29.72,32.17c-0.12,0.03-0.19,0.05-0.19,0.05l-30.2-34.03l2.61-2.58c-4.24,1.15-9.13,1.72-13.67,3.37
				c-0.78,0.25-1.58,0.55-2.37,0.91c-4.45,2.04-9.14,6.52-10.99,12.89c-2.53,8.68-5.45,17.68-8.13,29.05l29.08,14.83l32.86,6.97
				l30.87-4.98L152.88,162.16z"/>
			<polygon class="st5" points="109.42,106.31 122.37,119.26 90.5,152.12 57.64,116.27 70.58,108.3 89.5,144.15 			"/>
			<path class="st6" d="M89.9,147.93l20.52-38.64c-4.05-2.95-7.94-17.48-7.97-25.2c-7.88,6.35-21.76,4.46-26.11,0.69
				c-0.33,7.59-3.54,21.85-6.75,24.51L89.9,147.93z"/>
			<path class="st7" d="M86.36,64.88L86.36,64.88c-8.77,0-15.95,7.18-15.95,15.95v9.45c3.79,6.74,9.53,11.04,15.95,11.04
				c6.43,0,12.17-4.3,15.95-11.04v-9.45C102.31,72.06,95.13,64.88,86.36,64.88L86.36,64.88z"/>
			<path class="st6" d="M104.97,90.43c3.45-3.7,5.81-7.9,6.33-13.32c1.96-5.93,5.85-27.55,0-37.2
				c-11.17-18.42-33.37-10.92-44.18-6.88c-0.81,4.03-6.06,6.88-4.48,10.54c0.61,1.42-1.65,2.53-2.4,3.62
				c-1.04,1.52-2.04,5.72-2.6,9.11c0.17,1.15,0.23,2.56,0.3,4.29c0.04,1.09,0.13,2.36,0.24,3.67c0,0,0.14,1.21,0.16,1.82
				c0.31,3.13,0.7,6.25,0.99,7.99c2.8,12.97,11.41,23.88,26.88,23.88C93.79,97.95,100.46,95.28,104.97,90.43z"/>
			<path class="st8" d="M90.5-0.62c49.7,0,90,40.3,90,90c0,49.71-40.3,90-90,90c-49.71,0-90-40.29-90-90
				C0.5,39.67,40.79-0.62,90.5-0.62L90.5-0.62z"/>
			<path class="st25" d="M135.85,106.63c-1.98-1.09-4.13-1.87-6.13-2.94c-1.12-0.59-2.28-1.31-2.41-3c0.37,0.1,0.62,0.12,0.83,0.24
				c1.36,0.78,2.65,1.73,4.08,2.34c2.4,1.02,4.62,2.22,6.52,4.05c2.9,2.79,4.48,6.27,5.54,10.5c-0.09-6.97-3.05-12.72-8.6-16.04
				c-1.95-1.16-4.19-1.95-5.5-4.21c7.53-5.18,8.61-11.95,4.99-19.9c2.74,2.34,3.8,5.5,4.27,8.95c0.46-2.62-0.16-5.03-1.27-7.35
				c-1.52-3.18-4.1-5.25-7.12-6.93c-3.3-1.83-3.73-4.29-1.4-6.86c1.84-2.02,2.72-4.52,3.13-7.15c0.31-1.95,0.26-3.78-1.49-5.34
				c-1.55-1.38-2.72-3.18-4.25-5.02c0.72-0.28,1.37-0.73,1.57-0.58c1.18,0.89,2.32,1.87,3.36,2.93c0.46,0.47,0.58,1.26,1.02,1.77
				c0.35,0.42,0.92,0.64,1.4,0.95c-0.41-3.15-1.73-5.59-3.67-7.65c-2.06-2.19-4.27-4.25-6.3-6.47c-0.49-0.54-0.8-1.48-0.77-2.21
				c0.16-3.74-0.55-7.27-2.52-10.46c-4.35-7.03-11.17-10.3-18.92-11.97c-2.45-0.53-5-0.58-7.76-0.88c0.54-0.27,0.88-0.56,1.24-0.59
				c1.94-0.15,3.91-0.47,5.83-0.27c4.37,0.44,8.26,2.44,12.22,4.16c0.6,0.26,1.21,0.5,1.81,0.75c-3.68-3.5-7.97-5.62-12.91-6.62
				c-5.11-1.03-9.68,0.43-14.27,2.5c-0.31-0.88-0.59-1.67-0.87-2.46c-0.07,0.03-0.14,0.05-0.21,0.08c-0.07,0.75-0.13,1.5-0.21,2.39
				c-1.66-1.76-3.15-3.34-4.65-4.91c-0.12,0.1-0.23,0.2-0.35,0.3c0.66,1.01,1.31,2.02,1.97,3.03c-0.07,0.11-0.14,0.23-0.21,0.34
				c-4.34-1.67-8.72-2.25-13.28-1.15c-4.85,1.16-9.62,3.99-11.81,6.52c0.73-0.32,1.24-0.57,1.77-0.77c3.8-1.4,7.53-3.06,11.42-4.11
				c2.91-0.79,6-0.59,8.82,0.92c-0.35,0.17-0.71,0.26-1.05,0.23c-6.67-0.45-12.94,1.01-18.68,4.37
				c-7.15,4.19-11.69,10.04-11.19,18.87c0.04,0.71-0.45,1.59-0.96,2.15c-1.63,1.8-3.4,3.47-5.1,5.21c-3.11,3.2-5.16,6.88-5.32,11.48
				c-0.13,3.59,0.75,6.84,2.87,9.73c-0.49-1.8-1.35-3.53-1.61-5.34c-0.26-1.85-0.12-3.81,0.19-5.66c0.45-2.65,1.32-4.07,2.4-4.82
				c0,0.11,0.03,0.23,0,0.31c-2.73,5.72-2.14,11.01,1.94,15.93c1.46,1.76,1.48,3.4,0.18,4.87c-0.56,0.64-1.32,1.16-2.07,1.57
				c-5.91,3.23-8.94,8.35-8.3,14.54c0.58-3.71,1.48-6.96,4.28-9.2c-3.62,8-2.45,14.75,5.42,20.13c-1.71,1.17-3.03,2.29-4.53,3.08
				c-6.66,3.53-9.66,9.21-10,16.52c0.49-1.29,0.8-2.67,1.36-3.94c2.07-4.73,5.38-8.19,10.32-10.05c1.81-0.68,3.47-1.78,5.31-2.74
				c-0.15,1.66-1.32,2.37-2.44,2.97c-1.9,1.02-3.92,1.81-5.85,2.79c-6.17,3.14-10.18,12.28-5.78,19.58
				c0.64,1.06,3.77,4.66,3.83,4.94c0.37,1.83,2.06-0.07,1.69-1.89c-0.13-0.66,0.32-1.47,0.31-2.11c0.43-1.87,1.63-3.23,3.14-4.25
				c2.09-1.41,4.4-2.04,6.79-2.74c2.34-0.69,4.65-1.52,6.88-2.52c0.99-0.44,1.96-0.95,2.87-1.55c0.07,0.1,0.14,0.2,0.22,0.29
				c1.16,1.22,3.15,0.28,4.46-0.16c1.05-0.35,2.09-0.76,3.11-1.2c0.92-0.34,1.83-0.68,2.63-1.21c1-0.52,1.95-1.16,2.47-2.2
				c0.07-0.13,0.1-0.26,0.13-0.39c1.02-1.07,1.93-2.28,2.7-3.53c0.98-1.59,1.25-3.27,1.32-5.11c0.01-0.12-0.01-0.24-0.04-0.36
				c0.18-1.51,0.35-2.85,0.49-4.2c0.19-1.85-0.47-3.21-1.9-4.53c-4.74-4.38-7.98-9.66-10.38-15.42c-0.83-2.96-1.4-5.99-1.67-9.06
				c-0.01-0.07-0.03-0.12-0.05-0.17c-0.08-2.24-0.2-9.73-0.27-9.74c0.27-2.26,0.48-4.53,0.84-6.77c0.39-2.42,1.74-3.89,4.02-5.14
				c6.63-3.64,13.04-7.69,19.55-11.57c0.16-0.09,0.34-0.13,0.61-0.05c-4.65,7.96-12,12.42-20.68,15.64c2.69,0.11,8.36-1.51,11.26-3
				c5.96-3.06,10.97-7.23,14.88-12.68c0.77-1.07,1.51-1.2,2.77-1.01c9.45,1.44,17.48,12.59,17.99,20.01
				c0.1,1.43,0.68,13.29,0.14,17.59c-0.1,0.78-0.21,1.55-0.31,2.33c-2.38,7.12-5.95,13.57-11.43,18.76
				c-1.75,1.66-2.32,3.27-2.22,5.51c0.21,4.73,1.28,9.06,4.97,12.39c3.44,3.11,32.55,9.98,34.77,18.48
				c0.23-0.13,0.47-0.22,0.65-0.37C146.52,122.63,143.39,110.8,135.85,106.63z M58.98,64.65c0-0.04,0-0.09-0.01-0.13
				c0.02,0.05,0.05,0.11,0.07,0.17C59.02,64.67,59,64.66,58.98,64.65z"/>
			<path class="st6" d="M63.02,63.29c0.62,7.47,2.11,12.91,1.97,12.33c0.32,1.35-2.71-1.69-4.53-5.67
				c-1.77-3.87-2.08-14.64-0.7-14.47C62.35,55.79,62.57,57.83,63.02,63.29z"/>
		</g>
	</g>
</g>
</svg>
