<svg width="24" height="13" viewBox="0 0 24 13" fill="none" xmlns="http://www.w3.org/2000/svg">
<path fill-rule="evenodd" clip-rule="evenodd" d="M15.9808 0.380762C16.4885 -0.126921 17.3116 -0.126921 17.8193 0.380762L23.0185 5.58002L23.0193 5.58077C23.144 5.70541 23.2379 5.84906 23.3014 6.0024C23.365 6.15567 23.4001 6.32375 23.4001 6.50001C23.4001 6.67558 23.3652 6.84302 23.3022 6.99581C23.2708 7.07172 23.2321 7.14526 23.1858 7.21532C23.1382 7.2874 23.0827 7.35579 23.0193 7.41926L23.0185 7.42001L17.8193 12.6193C17.3116 13.1269 16.4885 13.1269 15.9808 12.6193C15.4732 12.1116 15.4732 11.2885 15.9808 10.7808L18.9616 7.80002H1.3C0.582031 7.80002 0 7.21798 0 6.50001C0 5.78205 0.582031 5.20001 1.3 5.20001H18.9616L15.9808 2.21925C15.4732 1.71156 15.4732 0.888444 15.9808 0.380762Z" fill="white"/>
</svg>
