<svg width="72" height="29" viewBox="0 0 72 29" fill="none" xmlns="http://www.w3.org/2000/svg">
<path d="M47.6829 12.5C47.2511 10.1136 45.342 8.70455 43.0011 8.70455C40.0238 8.70455 37.8647 11 37.8647 14.6818C37.8647 18.3636 40.0238 20.6591 43.0011 20.6591C45.342 20.6591 47.2511 19.25 47.6829 16.8636H46.2738C45.9329 18.4773 44.5465 19.3409 43.0011 19.3409C40.8874 19.3409 39.2283 17.7045 39.2283 14.6818C39.2283 11.6591 40.8874 10.0227 43.0011 10.0227C44.5465 10.0227 45.9329 10.8864 46.2738 12.5H47.6829ZM52.3462 20.7045C53.869 20.7045 54.6644 19.8864 54.9371 19.3182H55.0053V20.5H56.3462V14.75C56.3462 11.9773 54.2326 11.6591 53.119 11.6591C51.8008 11.6591 50.3008 12.1136 49.619 13.7045L50.8917 14.1591C51.1871 13.5227 51.886 12.8409 53.1644 12.8409C54.3974 12.8409 55.0053 13.4943 55.0053 14.6136V14.6591C55.0053 15.3068 54.3462 15.25 52.7553 15.4545C51.136 15.6648 49.369 16.0227 49.369 18.0227C49.369 19.7273 50.6871 20.7045 52.3462 20.7045ZM52.5508 19.5C51.4826 19.5 50.7099 19.0227 50.7099 18.0909C50.7099 17.0682 51.6417 16.75 52.6871 16.6136C53.2553 16.5455 54.7781 16.3864 55.0053 16.1136V17.3409C55.0053 18.4318 54.1417 19.5 52.5508 19.5ZM62.5891 11.7727H60.7255V9.68182H59.3846V11.7727H58.0664V12.9091H59.3846V18.3636C59.3846 19.8864 60.6119 20.6136 61.7482 20.6136C62.2482 20.6136 62.5664 20.5227 62.7482 20.4545L62.4755 19.25C62.3619 19.2727 62.18 19.3182 61.8846 19.3182C61.2937 19.3182 60.7255 19.1364 60.7255 18V12.9091H62.5891V11.7727Z" fill="#0060A7"/>
<path d="M19.1 2.62227L14.5 0.822266L15.5 7.82227" stroke="#0060A7" stroke-miterlimit="10" stroke-linecap="round" stroke-linejoin="round"/>
<path d="M22.8984 2.72227L27.4984 0.822266L26.4984 7.82227" stroke="#0060A7" stroke-miterlimit="10" stroke-linecap="round" stroke-linejoin="round"/>
<path d="M14 18.8223C16.2 18.8223 18 20.6223 18 22.8223V24.8223H19.5C20.3 24.8223 21 25.5223 21 26.3223C21 27.1223 20.3 27.8223 19.5 27.8223H18" stroke="#0060A7" stroke-miterlimit="10" stroke-linecap="round" stroke-linejoin="round"/>
<path d="M24 14.3223V24.8223H25.5C26.3 24.8223 27 25.5223 27 26.3223C27 27.1223 26.3 27.8223 25.5 27.8223H24H10H8.5C4.4 27.8223 1 24.4223 1 20.3223V11.3223C1 7.22227 4.4 3.82227 8.5 3.82227C9.3 3.82227 10 4.52227 10 5.32227C10 6.12227 9.3 6.82227 8.5 6.82227C6 6.82227 4 8.82227 4 11.3223V20.3223C4 22.8223 6 24.8223 8.5 24.8223H10V19.8223C10 15.7223 13.2 12.2223 17.2 11.8223" stroke="#0060A7" stroke-miterlimit="10" stroke-linecap="round" stroke-linejoin="round"/>
<path d="M24.8 11.8223L25.3 13.2223C26.1 15.3223 25.9 17.7223 24.5 19.4223C24.4 19.6223 24.2 19.7223 24 19.9223" stroke="#0060A7" stroke-miterlimit="10" stroke-linecap="round" stroke-linejoin="round"/>
<path d="M21 13.3223C24.0376 13.3223 26.5 10.8598 26.5 7.82227C26.5 4.7847 24.0376 2.32227 21 2.32227C17.9624 2.32227 15.5 4.7847 15.5 7.82227C15.5 10.8598 17.9624 13.3223 21 13.3223Z" stroke="#0060A7" stroke-miterlimit="10"/>
<path d="M20 8.82227L21 9.32227L22 8.82227" stroke="#0060A7" stroke-miterlimit="10" stroke-linecap="round" stroke-linejoin="round"/>
<path d="M21 10.3223V9.32227" stroke="#0060A7" stroke-miterlimit="10" stroke-linecap="round" stroke-linejoin="round"/>
</svg>
