<svg width="32" height="32" viewBox="0 0 32 32" fill="none" xmlns="http://www.w3.org/2000/svg">
<circle cx="16" cy="16" r="16" fill="#FF7D5A"/>
<path d="M22.418 21.1839C22.2633 19.4053 21.1034 19.1919 19.6342 18.3413C19.4022 18.1867 19.1702 17.9547 19.0929 17.7227C18.3196 16.3308 17.1597 15.3256 16.2317 15.1709H16.1544H16.0771C15.9997 15.1709 15.9997 15.1709 15.9224 15.1709C15.8451 15.1709 15.8451 15.1709 15.7678 15.1709H15.6904C14.7625 15.3256 13.5253 16.3308 12.752 17.8C12.5973 18.032 12.4427 18.264 12.2107 18.4187C10.7415 19.3466 9.58154 20.1972 9.58154 21.4344C9.58154 21.5118 9.58154 21.5118 9.58154 21.5891C9.58154 22.9037 10.6641 23.9863 11.9787 23.9863C12.9066 23.9863 15.3038 23.213 15.9997 23.213C16.6957 23.213 19.0929 23.9863 20.0208 23.9863C21.3354 23.9863 22.418 22.9037 22.418 21.5891C22.418 21.462 22.418 21.2612 22.418 21.1839Z" fill="white"/>
<path d="M15.1424 10.8881C15.4517 12.5894 14.8331 14.0586 13.7505 14.2132C12.7453 14.3679 11.6627 13.0533 11.4307 11.3521C11.1214 9.6509 11.74 8.18168 12.8226 8.02702C13.8279 7.87237 14.9104 9.18694 15.1424 10.8881Z" fill="white"/>
<path d="M10.8979 15.4566C11.2072 17.1578 10.6659 18.7044 9.66069 18.859C8.65543 19.0137 7.57284 17.8538 7.1862 16.1526C6.79956 14.4514 7.41818 12.9048 8.42344 12.7502C9.4287 12.5182 10.5113 13.7554 10.8979 15.4566Z" fill="white"/>
<path d="M16.8169 10.8817C16.5076 12.5829 17.1262 14.0521 18.2088 14.2068C19.2141 14.3614 20.2967 13.1242 20.606 11.423C20.9153 9.72178 20.2967 8.25255 19.2141 8.0979C18.1315 7.86592 17.0489 9.18049 16.8169 10.8817Z" fill="white"/>
<path d="M21.1059 15.4561C20.7966 17.1574 21.3379 18.7039 22.3431 18.8586C23.3484 19.0132 24.431 17.8533 24.8176 16.1521C25.2043 14.4509 24.5856 12.9043 23.5804 12.7497C22.5751 12.5177 21.4925 13.7549 21.1059 15.4561Z" fill="white"/>
</svg>
