<svg width="151" height="30" viewBox="0 0 151 30" fill="none" xmlns="http://www.w3.org/2000/svg">
<path d="M28.9231 16.3847H23.6154V11.077C23.6154 10.2309 22.9231 9.53857 22.0769 9.53857H18.3846C17.5385 9.53857 16.8462 10.2309 16.8462 11.077V16.3847H11.5385C10.6923 16.3847 10 17.077 10 17.9232V21.6155C10 22.4617 10.6923 23.154 11.5385 23.154H16.8462V28.4617C16.8462 29.3078 17.5385 30.0001 18.3846 30.0001H22.0769C22.9231 30.0001 23.6154 29.3078 23.6154 28.4617V23.154H28.9231C29.7692 23.154 30.4615 22.4617 30.4615 21.6155V17.9232C30.4615 17.077 29.7692 16.3847 28.9231 16.3847Z" fill="white"/>
<path d="M15.845 24.0005H11.2296C9.92195 24.0005 8.84503 22.9236 8.84503 21.6159V17.6928C8.84503 16.3851 9.92195 15.3082 11.2296 15.3082H15.845V10.6928C15.845 9.3851 16.922 8.30818 18.2296 8.30818H22.1527C22.6912 8.30818 23.2296 8.53895 23.6143 8.84664C23.6143 7.61587 23.6143 6.76972 23.6143 6.76972C23.6143 6.76972 20.845 6.46203 18.7681 3.6928C18.7681 3.61587 16.6143 3.00049 13.2296 3.00049C9.84503 3.00049 7.53733 3.6928 7.46041 3.76972C6.22964 6.07741 2.61426 6.84664 2.61426 6.84664C2.61426 6.84664 2.61426 9.76972 2.61426 12.5389C2.69118 25.3082 13.1527 26.9236 13.1527 26.9236C13.1527 26.9236 14.3066 26.7697 15.845 26.0005V24.0005Z" fill="white"/>
<path d="M15.8462 28.8462V27.3846C14.3077 28.0769 13.1538 28.2308 13.1538 28.2308C13.1538 28.2308 1.53846 26.4615 1.53846 12.2308C1.53846 9.23077 1.53846 6 1.53846 6C1.53846 6 5.53846 5.07692 6.84615 2.53846C6.84615 2.46154 9.38462 1.76923 13.1538 1.76923C16.9231 1.76923 19.3077 2.53846 19.3077 2.53846C21.6154 5.61538 24.6923 5.92308 24.6923 5.92308C24.6923 5.92308 24.6923 8.84615 24.6923 12.1538C24.6923 13.2308 24.6154 14.2308 24.4615 15.1538V15.2308H26C26.1538 14.1538 26.2308 13 26.2308 11.7692C26.2308 7.92308 26.2308 4.69231 26.2308 4.69231C26.2308 4.69231 22.7692 4.23077 20.1538 0.846154C20.1538 0.846154 17.4615 0 13.2308 0C9 0 6.07692 0.846154 6.07692 0.923077C4.53846 3.76923 0 4.76923 0 4.76923C0 4.76923 0 8.46154 0 11.8462C0 28 13.1538 30 13.1538 30C13.1538 30 14.3077 29.8462 15.9231 29.1538C15.8462 29 15.8462 28.9231 15.8462 28.8462Z" fill="white"/>
<path d="M47.5382 15.1543C47.5382 17.2313 46.9228 18.8466 45.7689 19.9236C44.6151 21.0005 42.9228 21.6159 40.7689 21.6159H37.2305V9.00049H41.1535C43.1535 9.00049 44.692 9.53895 45.8459 10.6159C46.9997 11.6928 47.5382 13.2313 47.5382 15.1543ZM45.3843 15.2313C45.3843 12.2313 43.9997 10.6928 41.1535 10.6928H39.3843V19.8466H40.7689C43.8459 19.9236 45.3843 18.3851 45.3843 15.2313Z" fill="white"/>
<path d="M54.4618 21.7698C53.0003 21.7698 51.8465 21.3082 51.0003 20.4621C50.1542 19.6159 49.7695 18.3851 49.7695 16.8467C49.7695 15.3082 50.1541 14.0774 50.9234 13.1544C51.6926 12.2313 52.7695 11.8467 54.1542 11.8467C55.3849 11.8467 56.3849 12.2313 57.1542 13.0005C57.9234 13.7698 58.2311 14.8467 58.2311 16.1544V17.2313H51.8465C51.8465 18.1544 52.1542 18.8467 52.6157 19.3851C53.0772 19.8467 53.7695 20.1544 54.6157 20.1544C55.1541 20.1544 55.6926 20.0774 56.1541 20.0005C56.6157 19.9236 57.1541 19.6928 57.6926 19.4621V21.0774C57.2311 21.3082 56.6926 21.4621 56.1541 21.6159C55.6926 21.7698 55.0772 21.7698 54.4618 21.7698ZM54.0772 13.4621C53.4618 13.4621 52.9234 13.6928 52.5388 14.0774C52.1542 14.4621 51.9234 15.0774 51.8465 15.8467H56.1541C56.1541 15.0774 55.9234 14.4621 55.6157 14.0774C55.2311 13.6159 54.6926 13.4621 54.0772 13.4621Z" fill="white"/>
<path d="M65.4612 13.6156H63.1535V21.6156H61.0765V13.6156H59.5381V12.6925L61.0765 12.0771V11.4618C61.0765 10.3079 61.3073 9.46176 61.8458 8.9233C62.3842 8.38484 63.1535 8.07715 64.3073 8.07715C64.9996 8.07715 65.6919 8.23099 66.3842 8.46176L65.8458 10.0002C65.3073 9.84638 64.8458 9.76946 64.3842 9.76946C63.9227 9.76946 63.615 9.9233 63.3842 10.231C63.1535 10.5387 63.0765 10.9233 63.0765 11.5387V12.1541H65.3842V13.6156H65.4612Z" fill="white"/>
<path d="M71.54 21.7698C70.0784 21.7698 68.9246 21.3082 68.0784 20.4621C67.2323 19.6159 66.8477 18.3851 66.8477 16.8467C66.8477 15.3082 67.2323 14.0774 68.0015 13.1544C68.7707 12.2313 69.8477 11.8467 71.2323 11.8467C72.463 11.8467 73.463 12.2313 74.2323 13.0005C75.0015 13.7698 75.3092 14.8467 75.3092 16.1544V17.2313H68.9246C68.9246 18.1544 69.2323 18.8467 69.6938 19.3851C70.1553 19.8467 70.8477 20.1544 71.6938 20.1544C72.2323 20.1544 72.7707 20.0774 73.2323 20.0005C73.6938 19.9236 74.2323 19.6928 74.7707 19.4621V21.0774C74.3092 21.3082 73.7707 21.4621 73.2323 21.6159C72.7707 21.7698 72.1553 21.7698 71.54 21.7698ZM71.1553 13.4621C70.54 13.4621 70.0015 13.6928 69.6169 14.0774C69.2323 14.4621 69.0015 15.0774 68.9246 15.8467H73.2323C73.2323 15.0774 73.0015 14.4621 72.6938 14.0774C72.3092 13.6159 71.7707 13.4621 71.1553 13.4621Z" fill="white"/>
<path d="M86.1541 21.6159H84.0772V15.7698C84.0772 15.0005 83.9234 14.4621 83.6157 14.1544C83.308 13.7698 82.8465 13.6159 82.2311 13.6159C81.3849 13.6159 80.7695 13.8467 80.3849 14.3851C80.0003 14.9236 79.7695 15.7698 79.7695 16.9236V21.6928H77.7695V12.0774H79.3849L79.6926 13.3082H79.7695C80.0772 12.8467 80.4618 12.539 81.0003 12.2313C81.5388 12.0005 82.1541 11.8467 82.7695 11.8467C85.0772 11.8467 86.2311 13.0005 86.2311 15.3082V21.6159H86.1541Z" fill="white"/>
<path d="M92.4601 21.7692C91.3063 21.7692 90.3063 21.3077 89.6909 20.4615C89.0755 19.6153 88.6909 18.3846 88.6909 16.8461C88.6909 15.3077 88.9986 14.0769 89.6909 13.1538C90.3832 12.3077 91.3063 11.8461 92.5371 11.8461C93.7678 11.8461 94.7678 12.3077 95.3832 13.2307H95.4601C95.3832 12.5384 95.3063 12 95.3063 11.6153V8.15381H97.3832V21.6153H95.7678L95.3832 20.3846H95.3063C94.614 21.3077 93.6909 21.7692 92.4601 21.7692ZM92.9986 20.1538C93.8448 20.1538 94.4601 19.923 94.8448 19.4615C95.2294 19 95.3832 18.2307 95.4601 17.1538V16.8461C95.4601 15.6153 95.2294 14.7692 94.8448 14.3077C94.4601 13.7692 93.8448 13.5384 92.9986 13.5384C92.3063 13.5384 91.7678 13.8461 91.3832 14.3846C90.9986 15 90.7678 15.7692 90.7678 16.8461C90.7678 17.923 90.9217 18.6923 91.3063 19.2307C91.6909 19.8461 92.2294 20.1538 92.9986 20.1538Z" fill="white"/>
<path d="M104.615 21.7698C103.154 21.7698 102 21.3082 101.154 20.4621C100.307 19.6159 99.9229 18.3851 99.9229 16.8467C99.9229 15.3082 100.307 14.0774 101.077 13.1544C101.846 12.2313 102.923 11.8467 104.307 11.8467C105.538 11.8467 106.538 12.2313 107.307 13.0005C108.077 13.7698 108.384 14.8467 108.384 16.1544V17.2313H102C102 18.1544 102.307 18.8467 102.769 19.3851C103.231 19.8467 103.923 20.1544 104.769 20.1544C105.307 20.1544 105.846 20.0774 106.307 20.0005C106.769 19.9236 107.307 19.6928 107.846 19.4621V21.0774C107.384 21.3082 106.846 21.4621 106.307 21.6159C105.846 21.7698 105.307 21.7698 104.615 21.7698ZM104.231 13.4621C103.615 13.4621 103.077 13.6928 102.692 14.0774C102.307 14.4621 102.077 15.0774 102 15.8467H106.307C106.307 15.0774 106.077 14.4621 105.769 14.0774C105.384 13.6159 104.923 13.4621 104.231 13.4621Z" fill="white"/>
<path d="M115.767 11.9229C116.151 11.9229 116.536 11.9229 116.767 11.9998L116.536 13.9229C116.228 13.8459 115.921 13.8459 115.613 13.8459C114.767 13.8459 114.151 14.0767 113.613 14.6152C113.075 15.1536 112.844 15.8459 112.844 16.6921V21.6921H110.844V12.0767H112.459L112.69 13.769H112.767C113.075 13.2305 113.459 12.769 113.998 12.3844C114.613 12.0767 115.151 11.9229 115.767 11.9229Z" fill="white"/>
<path d="M126.691 12.6154C126.691 13.8462 126.306 14.7692 125.46 15.4615C124.614 16.0769 123.46 16.4615 121.922 16.4615H119.999V21.6923H119.152V9H122.229C125.152 9 126.691 10.2308 126.691 12.6154ZM119.999 15.6154H121.768C123.152 15.6154 124.229 15.3846 124.845 14.9231C125.46 14.4615 125.768 13.6923 125.768 12.6154C125.768 11.6154 125.46 10.9231 124.845 10.4615C124.229 10 123.306 9.76923 122.075 9.76923H119.999V15.6154Z" fill="white"/>
<path d="M130.306 21.6153H129.46V8.15381H130.306V21.6153Z" fill="white"/>
<path d="M134.385 12.2312V18.3081C134.385 19.2312 134.616 19.9235 135.001 20.3851C135.385 20.8466 136.001 21.0005 136.847 21.0005C138.001 21.0005 138.77 20.6928 139.308 20.1543C139.847 19.6158 140.078 18.6928 140.078 17.3851V12.2312H140.924V21.6158H140.231L140.078 20.3081H140.001C139.385 21.3081 138.308 21.7697 136.77 21.7697C134.616 21.7697 133.539 20.6158 133.539 18.3081V12.1543H134.385V12.2312Z" fill="white"/>
<path d="M150.154 19.1538C150.154 20 149.847 20.6154 149.231 21.0769C148.616 21.5385 147.693 21.7692 146.539 21.7692C145.308 21.7692 144.308 21.5385 143.539 21.1538V20.2308C144.462 20.6923 145.462 20.9231 146.539 20.9231C147.462 20.9231 148.154 20.7692 148.616 20.4615C149.078 20.1538 149.308 19.7692 149.308 19.2308C149.308 18.7692 149.154 18.3846 148.77 18.0769C148.385 17.7692 147.77 17.4615 146.847 17.1538C145.924 16.8462 145.231 16.5385 144.847 16.3077C144.462 16.0769 144.154 15.7692 144.001 15.4615C143.847 15.1538 143.693 14.7692 143.693 14.3077C143.693 13.6154 144.001 13.0769 144.616 12.6154C145.231 12.2308 146.001 12 147.078 12C148.078 12 149.078 12.1538 150.001 12.5385L149.693 13.3077C148.77 12.9231 147.924 12.7692 147.154 12.7692C146.385 12.7692 145.77 12.9231 145.308 13.1538C144.847 13.3846 144.616 13.7692 144.616 14.2308C144.616 14.6923 144.77 15.0769 145.154 15.3846C145.539 15.6923 146.154 16 147.231 16.3846C148.078 16.6923 148.693 17 149.078 17.2308C149.462 17.4615 149.77 17.7692 149.924 18.0769C150.078 18.3846 150.154 18.7692 150.154 19.1538Z" fill="white"/>
</svg>
