<svg width="74" height="31" viewBox="0 0 74 31" fill="none" xmlns="http://www.w3.org/2000/svg">
<path d="M43.4102 21.5C46.9556 21.5 48.9556 19.2955 48.9556 15.6591C48.9556 12.0455 46.9556 9.86364 43.5692 9.86364H39.8192V21.5H43.4102ZM41.2283 20.25V11.1136H43.4783C46.2056 11.1136 47.592 12.8409 47.592 15.6591C47.592 18.5 46.2056 20.25 43.3192 20.25H41.2283ZM54.6829 21.6818C57.0465 21.6818 58.6374 19.8864 58.6374 17.1818C58.6374 14.4545 57.0465 12.6591 54.6829 12.6591C52.3192 12.6591 50.7283 14.4545 50.7283 17.1818C50.7283 19.8864 52.3192 21.6818 54.6829 21.6818ZM54.6829 20.4773C52.8874 20.4773 52.0692 18.9318 52.0692 17.1818C52.0692 15.4318 52.8874 13.8636 54.6829 13.8636C56.4783 13.8636 57.2965 15.4318 57.2965 17.1818C57.2965 18.9318 56.4783 20.4773 54.6829 20.4773ZM64.207 24.9545C66.2979 24.9545 67.9798 24 67.9798 21.75V12.7727H66.6843V14.1591H66.5479C66.2525 13.7045 65.707 12.6591 64.0025 12.6591C61.7979 12.6591 60.2752 14.4091 60.2752 17.0909C60.2752 19.8182 61.8661 21.3636 63.9798 21.3636C65.6843 21.3636 66.2298 20.3636 66.5252 19.8864H66.6388V21.6591C66.6388 23.1136 65.6161 23.7727 64.207 23.7727C62.6218 23.7727 62.065 22.9375 61.707 22.4545L60.6388 23.2045C61.1843 24.1193 62.2582 24.9545 64.207 24.9545ZM64.1616 20.1591C62.4798 20.1591 61.6161 18.8864 61.6161 17.0682C61.6161 15.2955 62.457 13.8636 64.1616 13.8636C65.7979 13.8636 66.6616 15.1818 66.6616 17.0682C66.6616 19 65.7752 20.1591 64.1616 20.1591Z" fill="white"/>
<path d="M18.801 4.92243C20.501 4.62243 22.101 5.32243 23.101 6.62243C23.601 7.32243 24.501 7.82243 25.501 7.82243H28.101L27.501 10.0224C27.201 11.1224 26.401 11.9224 25.301 12.2224L22.001 13.3224M15.0852 8.25847C14.857 9.36185 15.0267 10.5964 15.4879 11.4862" stroke="white" stroke-miterlimit="10" stroke-linecap="round" stroke-linejoin="round"/>
<path d="M15.0742 8.13151C15.0742 8.13151 15.1002 1.92227 19.0002 0.822266L18.7904 4.91208" stroke="white" stroke-miterlimit="10" stroke-linecap="round" stroke-linejoin="round"/>
<path d="M11 21.8223H12C12.6 21.8223 13.1 22.1223 13.4 22.6223C13.9 23.3223 14 24.2223 13.8 25.0223L13 27.7223H14C15.1 27.7223 16 28.6223 16 29.7223" stroke="white" stroke-miterlimit="10" stroke-linecap="round" stroke-linejoin="round"/>
<path d="M21.9984 13.323L21.4984 14.023C20.4984 15.523 20.2984 17.323 20.6984 19.023C20.7984 19.223 20.7984 19.423 20.7984 19.623C20.8984 20.223 20.8984 20.823 20.7984 21.523L19.8984 27.923H21.8984C22.4984 27.923 22.8984 28.323 22.8984 28.923C22.8984 29.523 22.4984 29.923 21.8984 29.923H19.8984H6.89844M15.4984 11.623V13.123C15.4984 13.923 15.0984 14.723 14.4984 15.323L13.9984 15.723C9.79844 17.023 6.89844 20.923 6.89844 25.323V27.8658" stroke="white" stroke-miterlimit="10" stroke-linecap="round" stroke-linejoin="round"/>
<path d="M6.99546 29.9186C3.69546 29.9186 1 27.1223 1 23.8223V22.8223L1.5 24.1223C2.4 26.3223 4.43935 27.8669 6.83935 27.8669" stroke="white" stroke-miterlimit="10" stroke-linecap="round" stroke-linejoin="round"/>
</svg>
