<svg fill="none" height="17" viewBox="0 0 14 17" width="14" xmlns="http://www.w3.org/2000/svg"><g fill="#FD7D5A"><path clip-rule="evenodd" d="m11.7071 8.60995c.3905.36884.3905.96682 0 1.33565l-3.9994 3.7772c-.09588.0906-.20696.1594-.32491.2055-.1179.0462-.24719.0717-.38278.0717-.13505 0-.26385-.0253-.38138-.0711-.05839-.0227-.11496-.0509-.16885-.0845-.05545-.0346-.10806-.0749-.15688-.121l-4.00001-3.7778c-.39052-.36883-.39052-.96681 0-1.33565.39053-.36882 1.02369-.36882 1.41422 0l2.2929 2.16555v-9.831056c0-.521616.44772-.94444419 1-.94444422.55228-.00000002 1 .42282822 1 .94444422v9.831056l2.29289-2.16555c.3905-.36882 1.0237-.36882 1.4142 0z" fill-rule="evenodd"/><rect height="14" rx="1" transform="matrix(0 1 -1 0 29 1)" width="2" x="14" y="15"/></g></svg>