<svg width="37" height="36" viewBox="0 0 37 36" fill="none" xmlns="http://www.w3.org/2000/svg">
<path fill-rule="evenodd" clip-rule="evenodd" d="M20.7257 31.091V19.1491H24.8107L25.4236 14.4938H20.7257V11.522C20.7257 10.1746 21.1056 9.25636 23.0777 9.25636L25.5889 9.25535V5.09144C25.1547 5.03609 23.6639 4.90918 21.9289 4.90918C18.3058 4.90918 15.8254 7.0783 15.8254 11.061V14.4938H11.728V19.1491H15.8254V31.091H20.7257Z" fill="#EF8363"/>
<mask id="mask0" mask-type="alpha" maskUnits="userSpaceOnUse" x="11" y="4" width="15" height="28">
<path fill-rule="evenodd" clip-rule="evenodd" d="M20.7257 31.091V19.1491H24.8107L25.4236 14.4938H20.7257V11.522C20.7257 10.1746 21.1056 9.25636 23.0777 9.25636L25.5889 9.25535V5.09144C25.1547 5.03609 23.6639 4.90918 21.9289 4.90918C18.3058 4.90918 15.8254 7.0783 15.8254 11.061V14.4938H11.728V19.1491H15.8254V31.091H20.7257Z" fill="white"/>
</mask>
<g mask="url(#mask0)">
</g>
</svg>
