<svg width="35" height="35" viewBox="0 0 35 35" fill="none" xmlns="http://www.w3.org/2000/svg">
<circle cx="17.5" cy="17.5" r="17.5" fill="#FF7D5A"/>
<path fill-rule="evenodd" clip-rule="evenodd" d="M17.4266 16.0825V18.9172H21.4363C20.851 20.567 19.2749 21.7519 17.4266 21.7519C15.0823 21.7519 13.1746 19.8442 13.1746 17.4999C13.1746 15.1556 15.0823 13.2478 17.4266 13.2478C18.4429 13.2478 19.4208 13.6121 20.1805 14.274L22.0429 12.1366C20.7673 11.0254 19.1289 10.4131 17.4266 10.4131C13.519 10.4131 10.3398 13.5922 10.3398 17.4999C10.3398 21.4075 13.519 24.5866 17.4266 24.5866C21.3343 24.5866 24.5134 21.4075 24.5134 17.4999V16.0825H17.4266Z" fill="white"/>
</svg>
