<svg width="21" height="21" viewBox="0 0 21 21" fill="none" xmlns="http://www.w3.org/2000/svg">
<path fill-rule="evenodd" clip-rule="evenodd" d="M5.84821 0H15.225C18.4096 0 21.0003 2.59078 21.0002 5.77509V15.1519C21.0002 18.3362 18.4096 20.927 15.225 20.927H5.84821C2.66389 20.927 0.0732422 18.3363 0.0732422 15.1519V5.77509C0.0732422 2.59078 2.66389 0 5.84821 0ZM15.2224 19.0706C17.3831 19.0706 19.1409 17.3129 19.1409 15.1523H19.1408V5.77546C19.1408 3.61495 17.3829 1.85711 15.2223 1.85711H5.84551C3.685 1.85711 1.92728 3.61495 1.92728 5.77546V15.1523C1.92728 17.3129 3.685 19.0707 5.84551 19.0706H15.2224ZM5.054 10.4648C5.054 7.44256 7.51268 4.98383 10.5349 4.98383C13.5571 4.98383 16.0158 7.44256 16.0158 10.4648C16.0158 13.487 13.5571 15.9456 10.5349 15.9456C7.51268 15.9456 5.054 13.487 5.054 10.4648ZM6.94347 10.4633C6.94347 12.4448 8.55567 14.0568 10.5371 14.0568C12.5186 14.0568 14.1308 12.4448 14.1308 10.4633C14.1308 8.48167 12.5187 6.86957 10.5371 6.86957C8.55554 6.86957 6.94347 8.48167 6.94347 10.4633Z" fill="white"/>
<mask id="mask0" mask-type="alpha" maskUnits="userSpaceOnUse" x="0" y="0" width="22" height="21">
<path fill-rule="evenodd" clip-rule="evenodd" d="M5.84821 0H15.225C18.4096 0 21.0003 2.59078 21.0002 5.77509V15.1519C21.0002 18.3362 18.4096 20.927 15.225 20.927H5.84821C2.66389 20.927 0.0732422 18.3363 0.0732422 15.1519V5.77509C0.0732422 2.59078 2.66389 0 5.84821 0ZM15.2224 19.0706C17.3831 19.0706 19.1409 17.3129 19.1409 15.1523H19.1408V5.77546C19.1408 3.61495 17.3829 1.85711 15.2223 1.85711H5.84551C3.685 1.85711 1.92728 3.61495 1.92728 5.77546V15.1523C1.92728 17.3129 3.685 19.0707 5.84551 19.0706H15.2224ZM5.054 10.4648C5.054 7.44256 7.51268 4.98383 10.5349 4.98383C13.5571 4.98383 16.0158 7.44256 16.0158 10.4648C16.0158 13.487 13.5571 15.9456 10.5349 15.9456C7.51268 15.9456 5.054 13.487 5.054 10.4648ZM6.94347 10.4633C6.94347 12.4448 8.55567 14.0568 10.5371 14.0568C12.5186 14.0568 14.1308 12.4448 14.1308 10.4633C14.1308 8.48167 12.5187 6.86957 10.5371 6.86957C8.55554 6.86957 6.94347 8.48167 6.94347 10.4633Z" fill="white"/>
</mask>
<g mask="url(#mask0)">
</g>
</svg>
