<svg width="26" height="26" viewBox="0 0 26 26" fill="none" xmlns="http://www.w3.org/2000/svg">
<path d="M18.8247 0H7.17486C3.21865 0 0 3.2188 0 7.17502V18.8248C0 22.7812 3.21865 25.9998 7.17486 25.9998H18.8247C22.7812 25.9998 25.9998 22.781 25.9998 18.8248V7.17502C26 3.2188 22.7812 0 18.8247 0ZM23.6932 18.8248C23.6932 21.5092 21.5092 23.693 18.8248 23.693H7.17486C4.49063 23.6932 2.30683 21.5092 2.30683 18.8248V7.17502C2.30683 4.49079 4.49063 2.30683 7.17486 2.30683H18.8247C21.5091 2.30683 23.693 4.49079 23.693 7.17502V18.8248H23.6932Z" fill="#EF8363"/>
<path d="M13.0003 6.30078C9.30612 6.30078 6.30078 9.30612 6.30078 13.0003C6.30078 16.6943 9.30612 19.6995 13.0003 19.6995C16.6944 19.6995 19.6998 16.6943 19.6998 13.0003C19.6998 9.30612 16.6944 6.30078 13.0003 6.30078ZM13.0003 17.3925C10.5783 17.3925 8.60761 15.4221 8.60761 13.0001C8.60761 10.578 10.5781 8.60746 13.0003 8.60746C15.4225 8.60746 17.393 10.578 17.393 13.0001C17.393 15.4221 15.4223 17.3925 13.0003 17.3925Z" fill="#EF8363"/>
<path d="M19.9807 4.34473C19.5363 4.34473 19.0997 4.52466 18.7858 4.83993C18.4704 5.15366 18.2891 5.59042 18.2891 6.0364C18.2891 6.48101 18.4705 6.91761 18.7858 7.23288C19.0995 7.54661 19.5363 7.72808 19.9807 7.72808C20.4267 7.72808 20.8619 7.54661 21.1772 7.23288C21.4925 6.91761 21.6724 6.48085 21.6724 6.0364C21.6724 5.59042 21.4925 5.15366 21.1772 4.83993C20.8635 4.52466 20.4267 4.34473 19.9807 4.34473Z" fill="#EF8363"/>
</svg>
