<svg width="37" height="36" viewBox="0 0 37 36" fill="none" xmlns="http://www.w3.org/2000/svg">
<path fill-rule="evenodd" clip-rule="evenodd" d="M12.2193 3.27295H25.417C29.8993 3.27295 33.5458 6.91944 33.5456 11.4013V24.5991C33.5456 29.081 29.8993 32.7275 25.417 32.7275H12.2193C7.73738 32.7275 4.09106 29.0812 4.09106 24.5991V11.4013C4.09106 6.91944 7.73738 3.27295 12.2193 3.27295ZM25.4173 30.1142C28.4584 30.1142 30.9325 27.6403 30.9325 24.5992H30.9323V11.4014C30.9323 8.36052 28.4582 5.88638 25.4171 5.88638H12.2194C9.17846 5.88638 6.70449 8.36052 6.70449 11.4014V24.5992C6.70449 27.6403 9.17846 30.1144 12.2194 30.1142H25.4173ZM11.104 18.0004C11.104 13.7465 14.5646 10.2859 18.8183 10.2859C23.072 10.2859 26.5326 13.7465 26.5326 18.0004C26.5326 22.254 23.072 25.7145 18.8183 25.7145C14.5646 25.7145 11.104 22.254 11.104 18.0004ZM13.7603 18.0001C13.7603 20.789 16.0294 23.0579 18.8183 23.0579C21.6072 23.0579 23.8763 20.789 23.8763 18.0001C23.8763 15.211 21.6074 12.9419 18.8183 12.9419C16.0292 12.9419 13.7603 15.211 13.7603 18.0001Z" fill="#EF8363"/>
<mask id="mask0" mask-type="alpha" maskUnits="userSpaceOnUse" x="4" y="3" width="30" height="30">
<path fill-rule="evenodd" clip-rule="evenodd" d="M12.2193 3.27295H25.417C29.8993 3.27295 33.5458 6.91944 33.5456 11.4013V24.5991C33.5456 29.081 29.8993 32.7275 25.417 32.7275H12.2193C7.73738 32.7275 4.09106 29.0812 4.09106 24.5991V11.4013C4.09106 6.91944 7.73738 3.27295 12.2193 3.27295ZM25.4173 30.1142C28.4584 30.1142 30.9325 27.6403 30.9325 24.5992H30.9323V11.4014C30.9323 8.36052 28.4582 5.88638 25.4171 5.88638H12.2194C9.17846 5.88638 6.70449 8.36052 6.70449 11.4014V24.5992C6.70449 27.6403 9.17846 30.1144 12.2194 30.1142H25.4173ZM11.104 18.0004C11.104 13.7465 14.5646 10.2859 18.8183 10.2859C23.072 10.2859 26.5326 13.7465 26.5326 18.0004C26.5326 22.254 23.072 25.7145 18.8183 25.7145C14.5646 25.7145 11.104 22.254 11.104 18.0004ZM13.7603 18.0001C13.7603 20.789 16.0294 23.0579 18.8183 23.0579C21.6072 23.0579 23.8763 20.789 23.8763 18.0001C23.8763 15.211 21.6074 12.9419 18.8183 12.9419C16.0292 12.9419 13.7603 15.211 13.7603 18.0001Z" fill="white"/>
</mask>
<g mask="url(#mask0)">
</g>
</svg>
