<svg width="37" height="36" viewBox="0 0 37 36" fill="none" xmlns="http://www.w3.org/2000/svg">
<path fill-rule="evenodd" clip-rule="evenodd" d="M12.22 3.27271H25.4178C29.9 3.27271 33.5465 6.9192 33.5463 11.4011V24.5989C33.5463 29.0808 29.9 32.7272 25.4178 32.7272H12.22C7.73812 32.7272 4.0918 29.0809 4.0918 24.5989V11.4011C4.0918 6.9192 7.73812 3.27271 12.22 3.27271ZM25.418 30.114C28.4591 30.114 30.9332 27.64 30.9332 24.5989H30.9331V11.4012C30.9331 8.36028 28.4589 5.88613 25.4179 5.88613H12.2201C9.1792 5.88613 6.70522 8.36028 6.70522 11.4012V24.5989C6.70522 27.64 9.1792 30.1142 12.2201 30.114H25.418ZM11.1047 18.0001C11.1047 13.7463 14.5653 10.2856 18.819 10.2856C23.0727 10.2856 26.5333 13.7463 26.5333 18.0001C26.5333 22.2538 23.0727 25.7142 18.819 25.7142C14.5653 25.7142 11.1047 22.2538 11.1047 18.0001ZM13.761 17.9998C13.761 20.7888 16.0302 23.0576 18.819 23.0576C21.6079 23.0576 23.8771 20.7888 23.8771 17.9998C23.8771 15.2107 21.6081 12.9417 18.819 12.9417C16.03 12.9417 13.761 15.2107 13.761 17.9998Z" fill="#FF7D5A"/>
<mask id="mask0" mask-type="alpha" maskUnits="userSpaceOnUse" x="4" y="3" width="30" height="30">
<path fill-rule="evenodd" clip-rule="evenodd" d="M12.22 3.27271H25.4178C29.9 3.27271 33.5465 6.9192 33.5463 11.4011V24.5989C33.5463 29.0808 29.9 32.7272 25.4178 32.7272H12.22C7.73812 32.7272 4.0918 29.0809 4.0918 24.5989V11.4011C4.0918 6.9192 7.73812 3.27271 12.22 3.27271ZM25.418 30.114C28.4591 30.114 30.9332 27.64 30.9332 24.5989H30.9331V11.4012C30.9331 8.36028 28.4589 5.88613 25.4179 5.88613H12.2201C9.1792 5.88613 6.70522 8.36028 6.70522 11.4012V24.5989C6.70522 27.64 9.1792 30.1142 12.2201 30.114H25.418ZM11.1047 18.0001C11.1047 13.7463 14.5653 10.2856 18.819 10.2856C23.0727 10.2856 26.5333 13.7463 26.5333 18.0001C26.5333 22.2538 23.0727 25.7142 18.819 25.7142C14.5653 25.7142 11.1047 22.2538 11.1047 18.0001ZM13.761 17.9998C13.761 20.7888 16.0302 23.0576 18.819 23.0576C21.6079 23.0576 23.8771 20.7888 23.8771 17.9998C23.8771 15.2107 21.6081 12.9417 18.819 12.9417C16.03 12.9417 13.761 15.2107 13.761 17.9998Z" fill="white"/>
</mask>
<g mask="url(#mask0)">
</g>
</svg>
