<svg width="36" height="36" viewBox="0 0 36 36" fill="none" xmlns="http://www.w3.org/2000/svg">
<ellipse cx="17.8164" cy="18.1362" rx="17.5" ry="17.5" fill="#FF7D5A"/>
<path fill-rule="evenodd" clip-rule="evenodd" d="M14.0542 9.0249H22.2195C24.9926 9.0249 27.2486 11.2809 27.2485 14.0538V22.2191C27.2485 24.992 24.9926 27.248 22.2195 27.248H14.0542C11.2813 27.248 9.02539 24.9921 9.02539 22.2191V14.0538C9.02539 11.2809 11.2813 9.0249 14.0542 9.0249ZM22.2186 25.6313C24.1 25.6313 25.6307 24.1007 25.6307 22.2192H25.6306V14.0539C25.6306 12.1726 24.0999 10.6418 22.2184 10.6418H14.0532C12.1718 10.6418 10.6412 12.1726 10.6412 14.0539V22.2192C10.6412 24.1007 12.1718 25.6314 14.0532 25.6313H22.2186ZM13.3631 18.1366C13.3631 15.5048 15.5041 13.3638 18.1358 13.3638C20.7675 13.3638 22.9085 15.5048 22.9085 18.1366C22.9085 20.7683 20.7675 22.9092 18.1358 22.9092C15.5041 22.9092 13.3631 20.7683 13.3631 18.1366ZM15.0075 18.1364C15.0075 19.8619 16.4114 21.2656 18.1368 21.2656C19.8623 21.2656 21.2662 19.8619 21.2662 18.1364C21.2662 16.4108 19.8624 15.007 18.1368 15.007C16.4113 15.007 15.0075 16.4108 15.0075 18.1364Z" fill="white"/>
<mask id="mask0" mask-type="alpha" maskUnits="userSpaceOnUse" x="9" y="9" width="19" height="19">
<path fill-rule="evenodd" clip-rule="evenodd" d="M14.0542 9.0249H22.2195C24.9926 9.0249 27.2486 11.2809 27.2485 14.0538V22.2191C27.2485 24.992 24.9926 27.248 22.2195 27.248H14.0542C11.2813 27.248 9.02539 24.9921 9.02539 22.2191V14.0538C9.02539 11.2809 11.2813 9.0249 14.0542 9.0249ZM22.2186 25.6313C24.1 25.6313 25.6307 24.1007 25.6307 22.2192H25.6306V14.0539C25.6306 12.1726 24.0999 10.6418 22.2184 10.6418H14.0532C12.1718 10.6418 10.6412 12.1726 10.6412 14.0539V22.2192C10.6412 24.1007 12.1718 25.6314 14.0532 25.6313H22.2186ZM13.3631 18.1366C13.3631 15.5048 15.5041 13.3638 18.1358 13.3638C20.7675 13.3638 22.9085 15.5048 22.9085 18.1366C22.9085 20.7683 20.7675 22.9092 18.1358 22.9092C15.5041 22.9092 13.3631 20.7683 13.3631 18.1366ZM15.0075 18.1364C15.0075 19.8619 16.4114 21.2656 18.1368 21.2656C19.8623 21.2656 21.2662 19.8619 21.2662 18.1364C21.2662 16.4108 19.8624 15.007 18.1368 15.007C16.4113 15.007 15.0075 16.4108 15.0075 18.1364Z" fill="white"/>
</mask>
<g mask="url(#mask0)">
</g>
</svg>
