<svg width="27" height="37" viewBox="0 0 27 37" fill="none" xmlns="http://www.w3.org/2000/svg">
<path d="M13.5312 35.1401C19.8653 35.1401 25 30.0054 25 23.6714C25 17.3374 19.8653 12.2026 13.5312 12.2026C7.19723 12.2026 2.0625 17.3374 2.0625 23.6714C2.0625 30.0054 7.19723 35.1401 13.5312 35.1401Z" stroke="#6F69A8" stroke-width="3" stroke-miterlimit="10" stroke-linecap="round" stroke-linejoin="round"/>
<path d="M5.33887 14.8117V10.0811C5.33887 5.49362 8.94333 1.88916 13.5308 1.88916C15.8246 1.88916 17.7907 2.8722 19.2652 4.34675C20.7398 5.8213 21.7228 7.95121 21.7228 10.0811V14.8117" stroke="#6F69A8" stroke-width="3" stroke-miterlimit="10" stroke-linecap="round" stroke-linejoin="round"/>
<path d="M13.5342 23.6743V26.9511" stroke="#6F69A8" stroke-width="3" stroke-miterlimit="10" stroke-linecap="round" stroke-linejoin="round"/>
<path d="M13.5308 24.4918C14.8881 24.4918 15.9884 23.3915 15.9884 22.0342C15.9884 20.677 14.8881 19.5767 13.5308 19.5767C12.1735 19.5767 11.0732 20.677 11.0732 22.0342C11.0732 23.3915 12.1735 24.4918 13.5308 24.4918Z" fill="#6F69A8"/>
</svg>
