<svg width="23" height="28" viewBox="0 0 23 28" fill="none" xmlns="http://www.w3.org/2000/svg">
<path d="M3.90039 8.63486V4.99091C3.90039 3.33406 5.24354 1.99091 6.90039 1.99091H18.2695C19.9263 1.99091 21.2695 3.33406 21.2695 4.99091V23.3711C21.2695 25.0279 19.9263 26.3711 18.2695 26.3711H6.90039C5.24354 26.3711 3.90039 25.0279 3.90039 23.3711V18.9223" stroke="white" stroke-width="2" stroke-linejoin="round"/>
<path d="M14.6572 14.7017C15.0477 14.3112 15.0477 13.678 14.6572 13.2875L8.29319 6.92356C7.90267 6.53304 7.26951 6.53304 6.87898 6.92356C6.48846 7.31409 6.48846 7.94725 6.87898 8.33777L12.5358 13.9946L6.87898 19.6515C6.48846 20.042 6.48846 20.6752 6.87898 21.0657C7.26951 21.4562 7.90267 21.4562 8.29319 21.0657L14.6572 14.7017ZM0.683594 14.9946H13.95V12.9946H0.683594V14.9946Z" fill="white"/>
</svg>
