<svg width="49" height="30" viewBox="0 0 49 30" fill="none" xmlns="http://www.w3.org/2000/svg">
<path d="M24.0093 16.5097C24.0093 16.5097 17.5942 15.5191 17.5942 7.64174C17.5942 5.99079 17.5942 4.15117 17.5942 4.15117C17.5942 4.15117 19.8112 3.6323 20.5659 2.26437C20.5659 2.2172 21.981 1.83984 24.0565 1.83984C26.132 1.83984 27.4527 2.26437 27.4527 2.26437C28.7263 3.96249 30.4244 4.15117 30.4244 4.15117C30.4244 4.15117 30.4244 5.75494 30.4244 7.64174C30.4244 15.5191 24.0093 16.5097 24.0093 16.5097Z" fill="white"/>
<path d="M28.3019 0.566038C28.3019 0.518868 26.6509 0 24.0566 0C21.4622 0 19.6698 0.518868 19.6698 0.566038C18.7264 2.31132 15.9434 2.92453 15.9434 2.92453C15.9434 2.92453 15.9434 5.18868 15.9434 7.26416C15.9434 17.1698 24.0094 18.3962 24.0094 18.3962C24.0094 18.3962 32.0283 17.1227 32.0283 7.31133C32.0283 4.95283 32.0283 2.9717 32.0283 2.9717C32.0283 2.9717 29.9056 2.68868 28.3019 0.566038ZM31.0849 7.50001C31.0849 16.1793 24.0094 17.3113 24.0094 17.3113C24.0094 17.3113 16.8868 16.2264 16.8868 7.50001C16.8868 5.66038 16.8868 3.67925 16.8868 3.67925C16.8868 3.67925 19.3396 3.11321 20.1415 1.5566C20.1415 1.50944 21.6981 1.08491 24.0094 1.08491C26.3207 1.08491 27.783 1.5566 27.783 1.5566C29.1981 3.4434 31.0849 3.63208 31.0849 3.63208C31.0849 3.63208 31.0849 5.42453 31.0849 7.50001Z" fill="white"/>
<path d="M6.27359 25.8488C6.27359 27.1224 5.89623 28.1129 5.18868 28.7733C4.48114 29.4337 3.4434 29.811 2.12264 29.811H0V22.0752H2.40566C3.63208 22.0752 4.57548 22.4054 5.28302 23.0658C5.99057 23.7261 6.27359 24.6695 6.27359 25.8488ZM4.95283 25.896C4.95283 24.0563 4.10378 23.1129 2.35849 23.1129H1.27359V28.7261H2.16981C4.00944 28.7261 4.95283 27.7827 4.95283 25.896Z" fill="white"/>
<path d="M10.5185 29.9052C9.62225 29.9052 8.9147 29.6222 8.39583 29.1033C7.87696 28.5845 7.64111 27.8297 7.64111 26.8864C7.64111 25.943 7.87696 25.1882 8.34866 24.6222C8.82036 24.0562 9.48074 23.8203 10.3298 23.8203C11.0845 23.8203 11.6977 24.0562 12.1694 24.5279C12.6411 24.9996 12.8298 25.6599 12.8298 26.4618V27.1222H8.9147C8.9147 27.6882 9.10338 28.1128 9.3864 28.443C9.66942 28.726 10.0939 28.9147 10.6128 28.9147C10.943 28.9147 11.2732 28.8675 11.5562 28.8203C11.8392 28.7731 12.1694 28.6316 12.4996 28.4901V29.4807C12.2166 29.6222 11.8864 29.7165 11.5562 29.8109C11.226 29.9052 10.943 29.9052 10.5185 29.9052ZM10.2826 24.8109C9.90527 24.8109 9.57508 24.9524 9.33923 25.1882C9.10338 25.4241 8.96187 25.8014 8.9147 26.2731H11.5562C11.5562 25.8014 11.4147 25.4241 11.226 25.1882C10.9902 24.9052 10.7072 24.8109 10.2826 24.8109Z" fill="white"/>
<path d="M17.3113 24.9053H15.8962V29.811H14.6226V24.9053H13.6792V24.3393L14.6226 23.9619V23.5374C14.6226 22.8298 14.7641 22.311 15.0943 21.9808C15.4245 21.6506 15.8962 21.4619 16.6037 21.4619C17.0283 21.4619 17.4528 21.5563 17.8773 21.6978L17.5471 22.6412C17.2169 22.5468 16.9339 22.4997 16.6509 22.4997C16.3679 22.4997 16.1792 22.594 16.0377 22.7827C15.8962 22.9713 15.849 23.2072 15.849 23.5846V23.9619H17.2641V24.9053H17.3113Z" fill="white"/>
<path d="M20.9911 29.9052C20.0949 29.9052 19.3874 29.6222 18.8685 29.1033C18.3496 28.5845 18.1138 27.8297 18.1138 26.8864C18.1138 25.943 18.3496 25.1882 18.8213 24.6222C19.293 24.0562 19.9534 23.8203 20.8024 23.8203C21.5572 23.8203 22.1704 24.0562 22.6421 24.5279C23.1138 24.9996 23.3025 25.6599 23.3025 26.4618V27.1222H19.3874C19.3874 27.6882 19.576 28.1128 19.8591 28.443C20.1421 28.726 20.5666 28.9147 21.0855 28.9147C21.4157 28.9147 21.7458 28.8675 22.0289 28.8203C22.3119 28.7731 22.6421 28.6316 22.9723 28.4901V29.4807C22.6892 29.6222 22.3591 29.7165 22.0289 29.8109C21.6987 29.9052 21.4157 29.9052 20.9911 29.9052ZM20.7553 24.8109C20.3779 24.8109 20.0477 24.9524 19.8119 25.1882C19.576 25.4241 19.4345 25.8014 19.3874 26.2731H22.0289C22.0289 25.8014 21.8874 25.4241 21.6987 25.1882C21.4628 24.9052 21.1798 24.8109 20.7553 24.8109Z" fill="white"/>
<path d="M30.0004 29.8109H28.7268V26.226C28.7268 25.7543 28.6325 25.4241 28.4438 25.2354C28.2551 24.9996 27.9721 24.9052 27.5947 24.9052C27.0759 24.9052 26.6985 25.0467 26.4627 25.3769C26.2268 25.7071 26.0853 26.226 26.0853 26.9335V29.8581H24.8589V23.9618H25.8495L26.0381 24.7165H26.0853C26.274 24.4335 26.5098 24.2448 26.84 24.0562C27.1702 23.9147 27.5476 23.8203 27.9249 23.8203C29.34 23.8203 30.0476 24.5279 30.0476 25.943V29.8109H30.0004Z" fill="white"/>
<path d="M33.8221 29.9057C33.1145 29.9057 32.5013 29.6227 32.1239 29.1038C31.7466 28.5849 31.5107 27.8302 31.5107 26.8868C31.5107 25.9434 31.6994 25.1887 32.1239 24.6227C32.5485 24.1038 33.1145 23.8208 33.8692 23.8208C34.624 23.8208 35.2372 24.1038 35.6145 24.6699H35.6617C35.6145 24.2453 35.5673 23.9151 35.5673 23.6793V21.5566H36.8409V29.8114H35.8504L35.6145 29.0566H35.5673C35.19 29.6227 34.6239 29.9057 33.8221 29.9057ZM34.1523 28.9151C34.6711 28.9151 35.0485 28.7736 35.2843 28.4906C35.5202 28.2076 35.6145 27.7359 35.6617 27.0755V26.8868C35.6617 26.1321 35.5202 25.6132 35.2843 25.3302C35.0485 25.0472 34.6711 24.8585 34.1523 24.8585C33.7277 24.8585 33.3975 25.0472 33.1617 25.3774C32.9258 25.7548 32.7843 26.2265 32.7843 26.8868C32.7843 27.5472 32.8787 28.0189 33.1145 28.3491C33.3504 28.7265 33.7277 28.9151 34.1523 28.9151Z" fill="white"/>
<path d="M41.3207 29.9995C40.4245 29.9995 39.7169 29.7164 39.1981 29.1976C38.6792 28.6787 38.4434 27.924 38.4434 26.9806C38.4434 26.0372 38.6792 25.2825 39.1509 24.7164C39.6226 24.1504 40.283 23.9146 41.132 23.9146C41.8868 23.9146 42.5 24.1504 42.9717 24.6221C43.4434 25.0938 43.632 25.7542 43.632 26.5561V27.2164H39.7169C39.7169 27.7825 39.9056 28.207 40.1886 28.5372C40.4717 28.8202 40.8962 29.0089 41.4151 29.0089C41.7452 29.0089 42.0754 28.9617 42.3585 28.9146C42.6415 28.8674 42.9717 28.7259 43.3019 28.5844V29.5749C43.0188 29.7164 42.6886 29.8108 42.3585 29.9051C42.0283 29.9995 41.6981 29.9995 41.3207 29.9995ZM41.0849 24.9051C40.7075 24.9051 40.3773 25.0466 40.1415 25.2825C39.9056 25.5183 39.7641 25.8957 39.7169 26.3674H42.3585C42.3585 25.8957 42.2169 25.5183 42.0283 25.2825C41.7924 24.9995 41.4622 24.9051 41.0849 24.9051Z" fill="white"/>
<path d="M48.1141 23.8677C48.3499 23.8677 48.5858 23.8677 48.7273 23.9148L48.5858 25.0941C48.3971 25.0469 48.2084 25.0469 48.0197 25.0469C47.5009 25.0469 47.1235 25.1884 46.7933 25.5186C46.4631 25.8488 46.3216 26.2733 46.3216 26.7922V29.8582H45.0952V23.962H46.0858L46.2273 24.9998H46.2745C46.4631 24.6696 46.699 24.3865 47.0292 24.1507C47.4065 23.962 47.7839 23.8677 48.1141 23.8677Z" fill="white"/>
</svg>
