<?xml version="1.0" encoding="utf-8"?>
<!-- Generator: Adobe Illustrator 24.0.0, SVG Export Plug-In . SVG Version: 6.00 Build 0)  -->
<svg version="1.1" id="Layer_1" xmlns="http://www.w3.org/2000/svg" xmlns:xlink="http://www.w3.org/1999/xlink" x="0px" y="0px"
	 viewBox="0 0 236 45" style="enable-background:new 0 0 236 45;" xml:space="preserve">
<style type="text/css">
	.st0{fill:#FFFFFF;}
</style>
<path class="st0" d="M28.6,15.2c-2.8,0.7-6.1-2.1-7.1-6.3c-1-4.1,0.4-8.1,3.3-8.8c2.8-0.7,6.1,2.1,7.1,6.3
	C32.9,10.5,31.5,14.5,28.6,15.2z"/>
<path class="st0" d="M35.7,24.6c-2.3-0.2-3.9-3.2-3.6-6.7c0.4-3.4,2.5-6,5-5.8c2.3,0.2,3.9,3.2,3.6,6.7C40.2,22.2,38,24.8,35.7,24.6
	z"/>
<path class="st0" d="M16.3,17.2c1.1-1.1,2.5-1.6,3.9-1.6h0.1c1.4,0,2.9,0.6,3.9,1.6l12.9,12.9c0.8,0.8,1.1,1.9,0.8,2.9l-2.1,8.7
	c-0.3,1.4-1.6,2.4-3,2.4h-6.2c-1.6,0-2.8-1.3-2.8-2.8v-5.6c0-2-1.6-3.6-3.6-3.6s-3.6,1.6-3.6,3.6v5.6c0,1.6-1.3,2.8-2.8,2.8H7.7
	c-1.4,0-2.7-1-3-2.4l-2.1-8.7c-0.2-1,0.1-2.1,0.8-2.9L16.3,17.2z"/>
<path class="st0" d="M12,15.2c-2.9-0.7-4.3-4.7-3.3-8.8c1-4.1,4.2-7,7.1-6.3s4.3,4.7,3.3,8.8C18,13,14.9,15.9,12,15.2z"/>
<path class="st0" d="M3.6,12.1c2.3-0.2,4.5,2.3,5,5.8C9,21.3,7.4,24.3,5,24.6c-2.3,0.2-4.5-2.3-5-5.8C-0.3,15.4,1.3,12.4,3.6,12.1z"
	/>
<path class="st0" d="M51.7,40h3.7V17.4h-3.7V13h15.1c1.9,0,3.7,0.1,5.4,0.8c3.4,1.4,5.7,4.9,5.7,9.3c0,4.4-2.3,8.3-6,9.6
	c-1.4,0.5-3,0.6-4.9,0.6h-5.7v6.8h3.8v4.3H51.7V40z M66.1,28.6c1.3,0,2.3-0.2,3.2-0.6c1.7-0.8,2.5-2.6,2.5-5c0-2.1-0.8-3.8-2.3-4.7
	c-0.8-0.5-1.9-0.7-3.4-0.7h-5v11h5V28.6z"/>
<path class="st0" d="M91.3,21.3c6.5,0,10,4.8,10,10.7c0,0.3,0,0.8,0,1.2l-0.1,0.7H85.5c0.4,4.1,3.3,6.3,6.8,6.3
	c1.9,0,3.4-0.5,4.6-1.2c0.7-0.4,1.3-0.7,1.9-1.2l2.1,3.9c-0.7,0.6-1.5,1.1-2.4,1.5c-1.6,0.8-3.8,1.6-6.7,1.6
	c-7.5,0-12.1-5.5-12.1-11.8C79.7,26.2,84.5,21.3,91.3,21.3z M95.5,30.6c-0.1-3.1-1.9-5-4.3-5c-2.8,0-5,1.9-5.5,5H95.5z"/>
<path class="st0" d="M106.7,26.1h-3.4v-4.2h3.6v-6.2h5.5v6.2h5.2v4.2h-5.2v9.5c0,3.9,2.9,4.3,4.5,4.3c0.3,0,0.6,0,0.7,0h0.3v4.6
	l-0.5,0.1c-0.3,0-0.7,0-1.2,0c-3.2,0-9.4-0.9-9.4-8.5v-10H106.7z"/>
<path class="st0" d="M122.4,40h3.7V17.4h-3.7V13h15.1c1.9,0,3.7,0.1,5.4,0.8c3.4,1.4,5.7,4.9,5.7,9.3c0,4.4-2.3,8.3-6,9.6
	c-1.4,0.5-3,0.6-4.9,0.6H132v6.8h3.8v4.3h-13.3V40H122.4z M136.9,28.6c1.3,0,2.3-0.2,3.2-0.6c1.7-0.8,2.5-2.6,2.5-5
	c0-2.1-0.8-3.8-2.3-4.7c-0.8-0.5-1.9-0.7-3.4-0.7h-5v11h5V28.6z"/>
<path class="st0" d="M152.8,17.2h-3.5v-4.2h9.1v24c0,2.1,0.4,3.1,2.3,3.1c0.3,0,0.6,0,0.7,0h0.3v4.4l-0.6,0.1c-0.4,0-0.8,0-1.4,0
	c-3.5,0-6.9-1.2-6.9-7.4V17.2z"/>
<path class="st0" d="M177.1,30.4h1.4v-0.7c0-2.8-1.8-3.9-4.1-3.9c-1.7,0-3.2,0.5-4.4,1.1c-0.7,0.3-1.4,0.7-1.9,1.1l-2.1-3.9
	c0.7-0.5,1.5-1,2.4-1.4c1.5-0.7,3.8-1.4,6.5-1.4c6.1,0,9.3,3.1,9.3,8.9v9c0,0.7,0.3,1,1,1h2v4.2h-5.4c-2.1,0-2.8-1.1-2.8-2.4v-0.3
	c0-0.4,0-0.6,0.1-0.8c0-0.1,0-0.2,0-0.3h-0.1c-0.4,0.8-0.9,1.5-1.6,2.1c-1.2,1.1-2.8,2.1-5.6,2.1c-3.9,0-7.5-2.2-7.5-6.9
	C164.4,31.1,173.4,30.4,177.1,30.4z M173.3,40.8c3,0,5.3-3.2,5.3-6.1V34h-0.9c-2.2,0-7.6,0.4-7.6,3.7
	C170.1,39.3,171.3,40.8,173.3,40.8z"/>
<path class="st0" d="M201.8,21.3c3.7,0,9.3,1.4,9.3,5.4v3.1h-5v-1.5c0-1.5-2.3-2.2-4.2-2.2c-4.1,0-6.7,2.8-6.7,7
	c0,4.7,3.2,7.2,7.1,7.2c3.2,0,5.8-1.8,7.1-2.7l2,3.9c-1.5,1.4-5.1,3.5-9.3,3.5c-6.6,0-12.4-4.6-12.4-11.8
	C189.7,26.4,194.9,21.3,201.8,21.3z"/>
<path class="st0" d="M225.9,21.3c6.5,0,10,4.8,10,10.7c0,0.3,0,0.8,0,1.2l-0.1,0.7h-15.7c0.4,4.1,3.3,6.3,6.8,6.3
	c1.9,0,3.4-0.5,4.6-1.2c0.7-0.4,1.3-0.7,1.9-1.2l2.1,3.9c-0.7,0.6-1.5,1.1-2.4,1.5c-1.6,0.8-3.8,1.6-6.7,1.6
	c-7.5,0-12.1-5.5-12.1-11.8C214.5,26.2,219.1,21.3,225.9,21.3z M230.1,30.6c-0.1-3.1-1.9-5-4.3-5c-2.8,0-5,1.9-5.5,5H230.1z"/>
</svg>
