<svg width="113" height="30" viewBox="0 0 113 30" fill="none" xmlns="http://www.w3.org/2000/svg">
<path d="M13.1539 26.9236C13.1539 26.9236 2.69238 25.3082 2.69238 12.462C2.69238 9.76972 2.69238 6.76972 2.69238 6.76972C2.69238 6.76972 6.30777 5.92357 7.53854 3.6928C7.53854 3.61587 9.84623 3.00049 13.2308 3.00049C16.6155 3.00049 18.7693 3.6928 18.7693 3.6928C20.8462 6.46203 23.6155 6.76972 23.6155 6.76972C23.6155 6.76972 23.6155 9.3851 23.6155 12.462C23.6155 25.3082 13.1539 26.9236 13.1539 26.9236Z" fill="white"/>
<path d="M20.1538 0.923077C20.1538 0.846154 17.4615 0 13.2308 0C9 0 6.07692 0.846154 6.07692 0.923077C4.53846 3.76923 0 4.76923 0 4.76923C0 4.76923 0 8.46154 0 11.8462C0 28 13.1538 30 13.1538 30C13.1538 30 26.2308 27.9231 26.2308 11.9231C26.2308 8.07692 26.2308 4.84615 26.2308 4.84615C26.2308 4.84615 22.7692 4.38462 20.1538 0.923077ZM24.6923 12.2308C24.6923 26.3846 13.1538 28.2308 13.1538 28.2308C13.1538 28.2308 1.53846 26.4615 1.53846 12.2308C1.53846 9.23077 1.53846 6 1.53846 6C1.53846 6 5.53846 5.07692 6.84615 2.53846C6.84615 2.46154 9.38462 1.76923 13.1538 1.76923C16.9231 1.76923 19.3077 2.53846 19.3077 2.53846C21.6154 5.61538 24.6923 5.92308 24.6923 5.92308C24.6923 5.92308 24.6923 8.84615 24.6923 12.2308Z" fill="white"/>
<path d="M43.305 15.3072C43.305 17.3841 42.6896 18.9995 41.5358 20.0764C40.3819 21.1533 38.6896 21.7687 36.5358 21.7687H33.0742V9.15332H36.9973C38.9973 9.15332 40.5358 9.69178 41.6896 10.7687C42.8434 11.8456 43.305 13.3841 43.305 15.3072ZM41.1511 15.3841C41.1511 12.3841 39.7665 10.8456 36.9204 10.8456H35.1511V19.9995H36.6127C39.6127 19.9995 41.1511 18.461 41.1511 15.3841Z" fill="white"/>
<path d="M50.2275 21.9226C48.7659 21.9226 47.6121 21.461 46.7659 20.6149C45.9198 19.7687 45.5352 18.538 45.5352 16.9995C45.5352 15.4611 45.9198 14.2303 46.689 13.3072C47.4582 12.3841 48.5352 11.9995 49.9198 11.9995C51.1505 11.9995 52.1505 12.3841 52.9198 13.1534C53.689 13.9226 53.9967 14.9995 53.9967 16.3072V17.3841H47.6121C47.6121 18.3072 47.9198 18.9995 48.3813 19.538C48.8428 19.9995 49.5352 20.3072 50.3813 20.3072C50.9198 20.3072 51.4582 20.2303 51.9198 20.1534C52.3813 20.0764 52.9198 19.8457 53.4582 19.6149V21.2303C52.9967 21.4611 52.4582 21.6149 51.9198 21.7687C51.3813 21.9226 50.9198 21.9226 50.2275 21.9226ZM49.8429 13.6149C49.2275 13.6149 48.689 13.8457 48.3044 14.2303C47.9198 14.6149 47.689 15.2303 47.6121 15.9995H51.9198C51.9198 15.2303 51.689 14.6149 51.3813 14.2303C50.9967 13.7687 50.5352 13.6149 49.8429 13.6149Z" fill="white"/>
<path d="M61.3049 13.7687H58.9972V21.7687H56.9203V13.7687H55.3818V12.8456L56.9203 12.2302V11.5379C56.9203 10.3841 57.1511 9.53794 57.6895 8.99947C58.228 8.46101 58.9972 8.15332 60.1511 8.15332C60.8434 8.15332 61.5357 8.30717 62.228 8.53794L61.6895 10.0764C61.1511 9.92255 60.6895 9.84563 60.228 9.84563C59.7665 9.84563 59.4588 9.99947 59.228 10.3072C58.9972 10.6149 58.9203 10.9995 58.9203 11.6149V12.2302H61.228V13.7687H61.3049Z" fill="white"/>
<path d="M67.3056 21.9221C65.844 21.9221 64.6902 21.4606 63.844 20.6144C62.9979 19.7683 62.6133 18.5375 62.6133 16.999C62.6133 15.4606 62.9979 14.2298 63.7671 13.3067C64.5364 12.3836 65.6133 11.999 66.9979 11.999C68.2287 11.999 69.2287 12.3836 69.9979 13.1529C70.7671 13.9221 71.0748 14.999 71.0748 16.3067V17.3836H64.6902C64.6902 18.3067 64.9979 18.999 65.4594 19.5375C65.921 19.999 66.6133 20.3067 67.4594 20.3067C67.9979 20.3067 68.5364 20.2298 68.9979 20.1529C69.4594 20.0759 69.9979 19.8452 70.5364 19.6144V21.2298C70.0748 21.4606 69.5364 21.6144 68.9979 21.7683C68.4594 21.9221 67.9979 21.9221 67.3056 21.9221ZM66.921 13.6144C66.3056 13.6144 65.7671 13.8452 65.3825 14.2298C64.9979 14.6144 64.7671 15.2298 64.6902 15.999H68.9979C68.9979 15.2298 68.7671 14.6144 68.4594 14.2298C68.0748 13.7683 67.6133 13.6144 66.921 13.6144Z" fill="white"/>
<path d="M81.9979 21.7683H79.921V15.9221C79.921 15.1529 79.7671 14.6144 79.4594 14.3067C79.1517 13.9221 78.6902 13.7683 78.0748 13.7683C77.2287 13.7683 76.6133 13.999 76.2287 14.5375C75.8441 15.0759 75.6133 15.9221 75.6133 17.0759V21.8452H73.6133V12.2298H75.2287L75.5364 13.4606H75.6133C75.921 12.999 76.3056 12.6913 76.8441 12.3836C77.3825 12.1529 77.9979 11.999 78.6133 11.999C80.921 11.999 82.0748 13.1529 82.0748 15.4606V21.7683H81.9979Z" fill="white"/>
<path d="M88.2302 21.923C87.0763 21.923 86.0763 21.4615 85.4609 20.6153C84.8455 19.7692 84.4609 18.5384 84.4609 16.9999C84.4609 15.4615 84.7686 14.2307 85.4609 13.3076C86.1532 12.4615 87.0763 11.9999 88.3071 11.9999C89.5379 11.9999 90.5379 12.4615 91.1532 13.3845H91.2302C91.1532 12.6922 91.0763 12.1538 91.0763 11.7692V8.30762H93.1532V21.7692H91.5379L91.1532 20.5384H91.0763C90.4609 21.4615 89.5379 21.923 88.2302 21.923ZM88.7686 20.3076C89.6148 20.3076 90.2302 20.0768 90.6148 19.6153C90.9994 19.1538 91.1532 18.3845 91.2302 17.3076V16.9999C91.2302 15.7692 90.9994 14.923 90.6148 14.4615C90.2302 13.9999 89.6148 13.6922 88.7686 13.6922C88.0763 13.6922 87.5379 13.9999 87.1532 14.5384C86.7686 15.1538 86.5379 15.923 86.5379 16.9999C86.5379 18.0768 86.6917 18.8461 87.0763 19.3845C87.4609 19.9999 88.0763 20.3076 88.7686 20.3076Z" fill="white"/>
<path d="M100.459 21.9226C98.9974 21.9226 97.8435 21.461 96.9974 20.6149C96.1512 19.7687 95.7666 18.538 95.7666 16.9995C95.7666 15.4611 96.1512 14.2303 96.9204 13.3072C97.6897 12.3841 98.7666 11.9995 100.151 11.9995C101.382 11.9995 102.382 12.3841 103.151 13.1534C103.92 13.9226 104.228 14.9995 104.228 16.3072V17.3841H97.8435C97.8435 18.3072 98.1512 18.9995 98.6128 19.538C99.0743 19.9995 99.7666 20.3072 100.613 20.3072C101.151 20.3072 101.69 20.2303 102.151 20.1534C102.613 20.0764 103.151 19.8457 103.69 19.6149V21.2303C103.228 21.4611 102.69 21.6149 102.151 21.7687C101.613 21.9226 101.074 21.9226 100.459 21.9226ZM100.074 13.6149C99.4589 13.6149 98.9205 13.8457 98.5358 14.2303C98.1512 14.6149 97.9204 15.2303 97.8435 15.9995H102.151C102.151 15.2303 101.92 14.6149 101.613 14.2303C101.228 13.7687 100.69 13.6149 100.074 13.6149Z" fill="white"/>
<path d="M111.537 12.0762C111.921 12.0762 112.306 12.0762 112.537 12.1531L112.306 14.0762C111.998 13.9992 111.691 13.9992 111.383 13.9992C110.537 13.9992 109.921 14.23 109.383 14.7685C108.845 15.3069 108.614 15.9992 108.614 16.8454V21.8454H106.614V12.23H108.229L108.46 13.9223H108.537C108.845 13.3839 109.229 12.9223 109.768 12.5377C110.383 12.23 110.998 12.0762 111.537 12.0762Z" fill="white"/>
</svg>
