<svg width="70" height="30" viewBox="0 0 70 30" fill="none" xmlns="http://www.w3.org/2000/svg">
<path d="M43.0801 10.0949H39.81V6.82481C39.81 6.30349 39.3834 5.87695 38.8621 5.87695H36.5872C36.0659 5.87695 35.6394 6.30349 35.6394 6.82481V10.0949H32.3692C31.8479 10.0949 31.4214 10.5215 31.4214 11.0428V13.3177C31.4214 13.839 31.8479 14.2655 32.3692 14.2655H35.6394V17.5356C35.6394 18.057 36.0659 18.4835 36.5872 18.4835H38.8621C39.3834 18.4835 39.81 18.057 39.81 17.5356V14.2655H43.0801C43.6014 14.2655 44.0279 13.839 44.0279 13.3177V11.0428C44.0279 10.5215 43.6014 10.0949 43.0801 10.0949Z" fill="white"/>
<path d="M35.0227 14.7869H32.1791C31.3734 14.7869 30.7099 14.1234 30.7099 13.3178V10.9007C30.7099 10.095 31.3734 9.43152 32.1791 9.43152H35.0227V6.58794C35.0227 5.78226 35.6862 5.11875 36.4919 5.11875H38.9089C39.2407 5.11875 39.5724 5.26093 39.8094 5.45051C39.8094 4.69222 39.8094 4.17089 39.8094 4.17089C39.8094 4.17089 38.1033 3.98132 36.8236 2.27517C36.8236 2.22778 35.4966 1.84863 33.4113 1.84863C31.326 1.84863 29.9043 2.27517 29.8569 2.32256C29.0986 3.74436 26.8711 4.21829 26.8711 4.21829C26.8711 4.21829 26.8711 6.01922 26.8711 7.72537C26.9185 15.5926 33.3639 16.5879 33.3639 16.5879C33.3639 16.5879 34.0748 16.4931 35.0227 16.0192V14.7869Z" fill="white"/>
<path d="M35.0237 17.7724V16.8719C34.0759 17.2985 33.365 17.3933 33.365 17.3933C33.365 17.3933 26.2086 16.3032 26.2086 7.5355C26.2086 5.68717 26.2086 3.69666 26.2086 3.69666C26.2086 3.69666 28.673 3.12794 29.4787 1.56397C29.4787 1.51658 31.0427 1.09004 33.365 1.09004C35.6872 1.09004 37.1564 1.56397 37.1564 1.56397C38.5782 3.45969 40.4739 3.64927 40.4739 3.64927C40.4739 3.64927 40.4739 5.4502 40.4739 7.48811C40.4739 8.15161 40.4265 8.76772 40.3317 9.33644V9.38383H41.2796C41.3744 8.72033 41.4218 8.00943 41.4218 7.25114C41.4218 4.88149 41.4218 2.89098 41.4218 2.89098C41.4218 2.89098 39.2891 2.60662 37.6777 0.521324C37.6777 0.521324 36.019 0 33.4124 0C30.8057 0 29.0048 0.521324 29.0048 0.568717C28.0569 2.32226 25.2607 2.93837 25.2607 2.93837C25.2607 2.93837 25.2607 5.21324 25.2607 7.29853C25.2607 17.2511 33.365 18.4833 33.365 18.4833C33.365 18.4833 34.0759 18.3885 35.0711 17.962C35.0237 17.8672 35.0237 17.8198 35.0237 17.7724Z" fill="white"/>
<path d="M6.35067 25.9243C6.35067 27.2039 5.97153 28.1991 5.26063 28.8626C4.54973 29.5261 3.50709 29.9053 2.18008 29.9053H0V22.1328H2.41705C3.64927 22.1328 4.59713 22.4646 5.30802 23.1281C6.01892 23.7916 6.35067 24.7394 6.35067 25.9243ZM5.02366 25.9717C5.02366 24.1233 4.17059 23.1755 2.41705 23.1755H1.32701V28.8152H2.18008C4.0758 28.8626 5.02366 27.9148 5.02366 25.9717Z" fill="white"/>
<path d="M10.6166 29.9999C9.7161 29.9999 9.0052 29.7156 8.48388 29.1943C7.96255 28.6729 7.72559 27.9146 7.72559 26.9668C7.72559 26.0189 7.96255 25.2606 8.43648 24.6919C8.91041 24.1232 9.57392 23.8862 10.427 23.8862C11.1853 23.8862 11.8014 24.1232 12.2753 24.5971C12.7493 25.0711 12.9388 25.7346 12.9388 26.5402V27.2037H9.0052C9.0052 27.7725 9.19477 28.199 9.47913 28.5308C9.76349 28.8151 10.19 29.0047 10.7114 29.0047C11.0431 29.0047 11.3749 28.9573 11.6592 28.9099C11.9436 28.8625 12.2753 28.7203 12.6071 28.5781V29.5734C12.3227 29.7156 11.991 29.8104 11.6592 29.9052C11.3749 29.9999 10.9957 29.9999 10.6166 29.9999ZM10.3796 24.8815C10.0005 24.8815 9.6687 25.0237 9.43174 25.2606C9.19477 25.4976 9.05259 25.8767 9.0052 26.3507H11.6592C11.6592 25.8767 11.517 25.4976 11.3275 25.2606C11.0905 24.9763 10.7587 24.8815 10.3796 24.8815Z" fill="white"/>
<path d="M17.3934 24.9763H15.9716V29.9051H14.692V24.9763H13.7441V24.4075L14.692 24.0284V23.6493C14.692 22.9384 14.8342 22.417 15.1659 22.0853C15.4977 21.7535 15.9716 21.564 16.6825 21.564C17.109 21.564 17.5356 21.6588 17.9621 21.8009L17.6304 22.7488C17.2986 22.654 17.0143 22.6066 16.7299 22.6066C16.4455 22.6066 16.256 22.7014 16.1138 22.891C15.9716 23.0805 15.9242 23.3175 15.9242 23.6967V24.0758H17.346V24.9763H17.3934Z" fill="white"/>
<path d="M21.1385 29.9999C20.2381 29.9999 19.5272 29.7156 19.0058 29.1943C18.4845 28.6729 18.2476 27.9146 18.2476 26.9668C18.2476 26.0189 18.4845 25.2606 18.9585 24.6919C19.4324 24.1232 20.0959 23.8862 20.949 23.8862C21.7073 23.8862 22.3234 24.1232 22.7973 24.5971C23.2712 25.0711 23.4608 25.7346 23.4608 26.5402V27.2037H19.5272C19.5272 27.7725 19.7167 28.199 20.0011 28.5308C20.2855 28.8151 20.712 29.0047 21.2333 29.0047C21.5651 29.0047 21.8968 28.9573 22.1812 28.9099C22.4655 28.8625 22.7973 28.7203 23.129 28.5781V29.5734C22.8447 29.7156 22.5129 29.8104 22.1812 29.9052C21.8968 29.9999 21.5177 29.9999 21.1385 29.9999ZM20.9016 24.8815C20.5224 24.8815 20.1907 25.0237 19.9537 25.2606C19.7167 25.4976 19.5746 25.8767 19.5272 26.3507H22.1812C22.1812 25.8767 22.039 25.4976 21.8494 25.2606C21.6125 24.9763 21.2807 24.8815 20.9016 24.8815Z" fill="white"/>
<path d="M30.1424 29.9052H28.8628V26.3033C28.8628 25.8293 28.768 25.4976 28.5784 25.308C28.3889 25.0711 28.1045 24.9763 27.7254 24.9763C27.204 24.9763 26.8249 25.1185 26.5879 25.4502C26.351 25.782 26.2088 26.3033 26.2088 27.0142V29.9525H24.9766V24.0284H25.9718L26.1614 24.7867H26.2088C26.3984 24.5023 26.6353 24.3128 26.9671 24.1232C27.2988 23.981 27.678 23.8862 28.0571 23.8862C29.4789 23.8862 30.1898 24.5971 30.1898 26.0189V29.9052H30.1424Z" fill="white"/>
<path d="M34.0273 29.9999C33.3164 29.9999 32.7003 29.7155 32.3212 29.1942C31.942 28.6729 31.7051 27.9146 31.7051 26.9667C31.7051 26.0189 31.8946 25.2606 32.3212 24.6919C32.7477 24.1706 33.3164 23.8862 34.0747 23.8862C34.833 23.8862 35.4491 24.1706 35.8283 24.7393H35.8757C35.8283 24.3127 35.7809 23.981 35.7809 23.744V21.6113H37.0605V29.9051H36.0652L35.8283 29.1468H35.7809C35.3543 29.7155 34.7856 29.9999 34.0273 29.9999ZM34.3591 29.0046C34.8804 29.0046 35.2596 28.8625 35.4965 28.5781C35.7335 28.2938 35.8283 27.8198 35.8757 27.1563V26.9667C35.8757 26.2085 35.7335 25.6871 35.4965 25.4028C35.2596 25.071 34.8804 24.9288 34.3591 24.9288C33.9326 24.9288 33.6008 25.1184 33.3638 25.4502C33.1269 25.8293 32.9847 26.3032 32.9847 26.9667C32.9847 27.6302 33.0795 28.1042 33.3164 28.4359C33.5534 28.8151 33.8852 29.0046 34.3591 29.0046Z" fill="white"/>
<path d="M41.5165 29.9999C40.616 29.9999 39.9051 29.7156 39.3838 29.1943C38.8625 28.6729 38.6255 27.9146 38.6255 26.9668C38.6255 26.0189 38.8625 25.2606 39.3364 24.6919C39.8103 24.1232 40.4738 23.8862 41.3269 23.8862C42.0852 23.8862 42.7013 24.1232 43.1752 24.5971C43.6492 25.0711 43.8387 25.7346 43.8387 26.5402V27.2037H39.9051C39.9051 27.7725 40.0947 28.199 40.379 28.5308C40.6634 28.8151 41.0899 29.0047 41.6113 29.0047C41.943 29.0047 42.2748 28.9573 42.5591 28.9099C42.8435 28.8625 43.1752 28.7203 43.507 28.5781V29.5734C43.2226 29.7156 42.8909 29.8104 42.5591 29.9052C42.2748 29.9999 41.943 29.9999 41.5165 29.9999ZM41.2795 24.8815C40.9004 24.8815 40.5686 25.0237 40.3316 25.2606C40.0947 25.4976 39.9525 25.8767 39.9051 26.3507H42.5591C42.5591 25.8767 42.4169 25.4976 42.2274 25.2606C41.9904 24.9763 41.706 24.8815 41.2795 24.8815Z" fill="white"/>
<path d="M48.3872 23.9331C48.6241 23.9331 48.8611 23.9331 49.0033 23.9805L48.8611 25.1653C48.6715 25.1179 48.4819 25.1179 48.2924 25.1179C47.771 25.1179 47.3919 25.2601 47.0602 25.5919C46.7284 25.9236 46.5862 26.3502 46.5862 26.8715V29.952H45.354V24.0279H46.3493L46.4914 25.0705H46.5388C46.7284 24.7388 46.9654 24.4544 47.2971 24.2175C47.6763 24.0279 48.008 23.9331 48.3872 23.9331Z" fill="white"/>
<path d="M55.1172 24.3598C55.1172 25.1181 54.8802 25.6868 54.3589 26.1133C53.8376 26.4925 53.1267 26.7295 52.1788 26.7295H50.994V29.9522H50.4727V22.1323H52.3684C54.1693 22.1323 55.1172 22.8906 55.1172 24.3598ZM50.994 26.2081H52.084C52.9371 26.2081 53.6006 26.0659 53.9797 25.7816C54.3589 25.4972 54.5485 25.0233 54.5485 24.3598C54.5485 23.7437 54.3589 23.3172 53.9797 23.0328C53.6006 22.7484 53.0319 22.6063 52.2736 22.6063H50.994V26.2081Z" fill="white"/>
<path d="M57.345 29.9051H56.8237V21.6113H57.345V29.9051Z" fill="white"/>
<path d="M59.8582 24.1236V27.8676C59.8582 28.4363 60.0004 28.8629 60.2374 29.1472C60.4743 29.4316 60.8535 29.5264 61.3748 29.5264C62.0857 29.5264 62.5596 29.3368 62.8914 29.0051C63.2231 28.6733 63.3653 28.1046 63.3653 27.2989V24.1236H63.8866V29.9055H63.4601L63.3653 29.0998H63.3179C62.9388 29.7159 62.2753 30.0003 61.3274 30.0003C60.0004 30.0003 59.3369 29.2894 59.3369 27.8676V24.0762H59.8582V24.1236Z" fill="white"/>
<path d="M69.5734 28.3885C69.5734 28.9098 69.3838 29.289 69.0046 29.5733C68.6255 29.8577 68.0568 29.9999 67.3459 29.9999C66.5876 29.9999 65.9715 29.8577 65.4976 29.6207V29.052C66.0663 29.3364 66.6824 29.4786 67.3459 29.4786C67.9146 29.4786 68.3411 29.3838 68.6255 29.1942C68.9099 29.0046 69.052 28.7677 69.052 28.4359C69.052 28.1515 68.9572 27.9146 68.7203 27.725C68.4833 27.5354 68.1042 27.3459 67.5355 27.1563C66.9667 26.9667 66.5402 26.7771 66.3032 26.635C66.0663 26.4928 65.8767 26.3032 65.7819 26.1136C65.6871 25.9241 65.5923 25.6871 65.5923 25.4027C65.5923 24.9762 65.7819 24.6445 66.1611 24.3601C66.5402 24.1231 67.0141 23.981 67.6776 23.981C68.2937 23.981 68.9099 24.0757 69.4786 24.3127L69.289 24.7866C68.7203 24.5497 68.199 24.4549 67.725 24.4549C67.2511 24.4549 66.872 24.5497 66.5876 24.6919C66.3032 24.834 66.1611 25.071 66.1611 25.3554C66.1611 25.6397 66.2558 25.8767 66.4928 26.0663C66.7298 26.2558 67.1089 26.4454 67.7724 26.6824C68.2937 26.8719 68.6729 27.0615 68.9099 27.2037C69.1468 27.3459 69.3364 27.5354 69.4312 27.725C69.526 27.9146 69.5734 28.1515 69.5734 28.3885Z" fill="white"/>
</svg>
