<?xml version="1.0" encoding="utf-8"?>
<!-- Generator: Adobe Illustrator 23.1.1, SVG Export Plug-In . SVG Version: 6.00 Build 0)  -->
<svg version="1.1" id="Layer_1" xmlns="http://www.w3.org/2000/svg" xmlns:xlink="http://www.w3.org/1999/xlink" x="0px" y="0px"
	 viewBox="0 0 16 16" style="enable-background:new 0 0 16 16;" xml:space="preserve">
<style type="text/css">
	.st0{fill:#EF8363;}
</style>
<path class="st0" d="M1.4,1.5h13.2c0.2,0,0.4,0.2,0.4,0.4v2.2c0,0.2-0.2,0.4-0.4,0.4H1.4C1.2,4.5,1,4.3,1,4.1V1.9
	C1,1.7,1.2,1.5,1.4,1.5z M1.4,6.5h13.2c0.2,0,0.4,0.2,0.4,0.4v2.2c0,0.2-0.2,0.4-0.4,0.4H1.4C1.2,9.5,1,9.3,1,9.1V6.9
	C1,6.7,1.2,6.5,1.4,6.5z M1.4,11.5h13.2c0.2,0,0.4,0.2,0.4,0.4v2.2c0,0.2-0.2,0.4-0.4,0.4H1.4c-0.2,0-0.4-0.2-0.4-0.4v-2.2
	C1,11.7,1.2,11.5,1.4,11.5z"/>
</svg>
