<svg width="140" height="29" viewBox="0 0 140 29" fill="none" xmlns="http://www.w3.org/2000/svg">
<path fill-rule="evenodd" clip-rule="evenodd" d="M0 22.0027C0 25.3164 2.68629 28.0027 6 28.0027H60.8535C60.8714 28.0029 60.8892 28.0029 60.9071 28.0029H127.519C128.977 28.0029 130.384 27.4724 131.479 26.5105L137.96 20.8165C140.68 18.427 140.68 14.191 137.96 11.8014L131.479 6.10742C130.384 5.14549 128.977 4.61498 127.519 4.61498L72.6652 4.61498C72.6474 4.61482 72.6297 4.61475 72.612 4.61475H6C2.68629 4.61475 0 7.30104 0 10.6147V22.0027Z" fill="url(#paint0_linear)"/>
<path d="M25.7007 11.5458V21.0003H27.6305V14.8235H27.7086L30.1439 20.9541H31.458L33.8932 14.8465H33.9714V21.0003H35.9012V11.5458H33.4475L30.8561 17.898H30.7458L28.1543 11.5458H25.7007Z" fill="white"/>
<path d="M46.0584 16.273C46.0584 13.18 44.147 11.4165 41.652 11.4165C39.1432 11.4165 37.2456 13.18 37.2456 16.273C37.2456 19.3522 39.1432 21.1296 41.652 21.1296C44.147 21.1296 46.0584 19.3661 46.0584 16.273ZM44.0413 16.273C44.0413 18.2766 43.0948 19.3615 41.652 19.3615C40.2046 19.3615 39.2627 18.2766 39.2627 16.273C39.2627 14.2695 40.2046 13.1846 41.652 13.1846C43.0948 13.1846 44.0413 14.2695 44.0413 16.273Z" fill="white"/>
<path d="M52.5077 14.2649H54.4145C54.3869 12.5799 53.0085 11.4165 50.9133 11.4165C48.8502 11.4165 47.3385 12.5614 47.3477 14.2787C47.3431 15.6729 48.3218 16.4715 49.9116 16.8547L50.9362 17.1132C51.9609 17.3625 52.5306 17.658 52.5352 18.2951C52.5306 18.9875 51.8782 19.4584 50.8673 19.4584C49.8335 19.4584 49.0891 18.9783 49.0248 18.0319H47.0996C47.1501 20.077 48.6067 21.1342 50.8903 21.1342C53.1877 21.1342 54.5386 20.0309 54.5432 18.2997C54.5386 16.7255 53.3577 15.8899 51.7219 15.5206L50.8765 15.3174C50.0586 15.1282 49.374 14.8235 49.3878 14.1448C49.3878 13.5355 49.9254 13.0877 50.8995 13.0877C51.8506 13.0877 52.4341 13.5216 52.5077 14.2649Z" fill="white"/>
<path d="M55.3936 13.1938H58.2746V21.0003H60.2411V13.1938H63.1221V11.5458H55.3936V13.1938Z" fill="white"/>
<path d="M67.1307 21.0003H69.1203V17.935H70.7928C72.957 17.935 74.2159 16.6377 74.2159 14.7496C74.2159 12.8707 72.9799 11.5458 70.8434 11.5458H67.1307V21.0003ZM69.1203 16.3331V13.18H70.462C71.6107 13.18 72.1667 13.8078 72.1667 14.7496C72.1667 15.6867 71.6107 16.3331 70.4712 16.3331H69.1203Z" fill="white"/>
<path d="M84.0263 16.273C84.0263 13.18 82.1148 11.4165 79.6199 11.4165C77.1111 11.4165 75.2134 13.18 75.2134 16.273C75.2134 19.3522 77.1111 21.1296 79.6199 21.1296C82.1148 21.1296 84.0263 19.3661 84.0263 16.273ZM82.0092 16.273C82.0092 18.2766 81.0626 19.3615 79.6199 19.3615C78.1725 19.3615 77.2306 18.2766 77.2306 16.273C77.2306 14.2695 78.1725 13.1846 79.6199 13.1846C81.0626 13.1846 82.0092 14.2695 82.0092 16.273Z" fill="white"/>
<path d="M85.3707 21.0003H87.3602V17.935H89.0328C91.1969 17.935 92.4559 16.6377 92.4559 14.7496C92.4559 12.8707 91.2199 11.5458 89.0833 11.5458H85.3707V21.0003ZM87.3602 16.3331V13.18H88.7019C89.8506 13.18 90.4066 13.8078 90.4066 14.7496C90.4066 15.6867 89.8506 16.3331 88.7111 16.3331H87.3602Z" fill="white"/>
<path d="M99.4312 11.5458V17.5149C99.4312 18.5951 98.6777 19.3753 97.5198 19.3753C96.3665 19.3753 95.6084 18.5951 95.6084 17.5149V11.5458H93.6188V17.6857C93.6188 19.7539 95.1718 21.1342 97.5198 21.1342C99.8585 21.1342 101.421 19.7539 101.421 17.6857V11.5458H99.4312Z" fill="white"/>
<path d="M102.928 21.0003H108.952V19.3522H104.918V11.5458H102.928V21.0003Z" fill="white"/>
<path d="M112.002 21.0003L112.701 18.8444H116.096L116.795 21.0003H118.927L115.683 11.5458H113.119L109.87 21.0003H112.002ZM113.206 17.284L114.364 13.7063H114.438L115.595 17.284H113.206Z" fill="white"/>
<path d="M119.93 21.0003H121.919V17.6487H123.371L125.154 21.0003H127.351L125.352 17.3256C126.422 16.8639 127.015 15.9268 127.015 14.6342C127.015 12.7553 125.779 11.5458 123.643 11.5458H119.93V21.0003ZM121.919 16.0422V13.18H123.261C124.41 13.18 124.966 13.6924 124.966 14.6342C124.966 15.5713 124.41 16.0422 123.27 16.0422H121.919Z" fill="white"/>
<path fill-rule="evenodd" clip-rule="evenodd" d="M26.483 0.334801C27.3985 0.946417 27.6471 2.18786 27.0384 3.10764L14.1326 22.6076C13.8004 23.1095 13.2607 23.4341 12.6635 23.4912C12.0664 23.5483 11.4754 23.3318 11.055 22.9019L4.55233 16.2519C3.78185 15.4639 3.79301 14.1976 4.57724 13.4235C5.36147 12.6494 6.62181 12.6606 7.39228 13.4486L12.1757 18.3404L23.7232 0.892786C24.332 -0.0269965 25.5676 -0.276815 26.483 0.334801Z" fill="#FEBF10"/>
<defs>
<linearGradient id="paint0_linear" x1="2.51778" y1="30.9265" x2="137.178" y2="6.4797" gradientUnits="userSpaceOnUse">
<stop stop-color="#E83A4C"/>
<stop offset="1" stop-color="#C92637"/>
</linearGradient>
</defs>
</svg>
