<svg width="28" height="29" viewBox="0 0 28 29" fill="none" xmlns="http://www.w3.org/2000/svg">
<path d="M19.1 2.62227L14.5 0.822266L15.5 7.82227" stroke="#0060A7" stroke-miterlimit="10" stroke-linecap="round" stroke-linejoin="round"/>
<path d="M22.8984 2.72227L27.4984 0.822266L26.4984 7.82227" stroke="#0060A7" stroke-miterlimit="10" stroke-linecap="round" stroke-linejoin="round"/>
<path d="M14 18.8223C16.2 18.8223 18 20.6223 18 22.8223V24.8223H19.5C20.3 24.8223 21 25.5223 21 26.3223C21 27.1223 20.3 27.8223 19.5 27.8223H18" stroke="#0060A7" stroke-miterlimit="10" stroke-linecap="round" stroke-linejoin="round"/>
<path d="M24 14.3223V24.8223H25.5C26.3 24.8223 27 25.5223 27 26.3223C27 27.1223 26.3 27.8223 25.5 27.8223H24H10H8.5C4.4 27.8223 1 24.4223 1 20.3223V11.3223C1 7.22227 4.4 3.82227 8.5 3.82227C9.3 3.82227 10 4.52227 10 5.32227C10 6.12227 9.3 6.82227 8.5 6.82227C6 6.82227 4 8.82227 4 11.3223V20.3223C4 22.8223 6 24.8223 8.5 24.8223H10V19.8223C10 15.7223 13.2 12.2223 17.2 11.8223" stroke="#0060A7" stroke-miterlimit="10" stroke-linecap="round" stroke-linejoin="round"/>
<path d="M24.8 11.8223L25.3 13.2223C26.1 15.3223 25.9 17.7223 24.5 19.4223C24.4 19.6223 24.2 19.7223 24 19.9223" stroke="#0060A7" stroke-miterlimit="10" stroke-linecap="round" stroke-linejoin="round"/>
<path d="M21 13.3223C24.0376 13.3223 26.5 10.8598 26.5 7.82227C26.5 4.7847 24.0376 2.32227 21 2.32227C17.9624 2.32227 15.5 4.7847 15.5 7.82227C15.5 10.8598 17.9624 13.3223 21 13.3223Z" stroke="#0060A7" stroke-miterlimit="10"/>
<path d="M20 8.82227L21 9.32227L22 8.82227" stroke="#0060A7" stroke-miterlimit="10" stroke-linecap="round" stroke-linejoin="round"/>
<path d="M21 10.3223V9.32227" stroke="#0060A7" stroke-miterlimit="10" stroke-linecap="round" stroke-linejoin="round"/>
</svg>
