<svg width="29" height="31" viewBox="0 0 29 31" fill="none" xmlns="http://www.w3.org/2000/svg">
<path d="M18.801 5.10016C20.501 4.80016 22.101 5.50016 23.101 6.80016C23.601 7.50016 24.501 8.00016 25.501 8.00016H28.101L27.501 10.2002C27.201 11.3002 26.401 12.1002 25.301 12.4002L22.001 13.5002M15.0852 8.4362C14.857 9.53958 15.0267 10.7741 15.4879 11.664" stroke="#0060A7" stroke-miterlimit="10" stroke-linecap="round" stroke-linejoin="round"/>
<path d="M15.0739 8.30925C15.0739 8.30925 15.1 2.1 19 1L18.7902 5.08982" stroke="#0060A7" stroke-miterlimit="10" stroke-linecap="round" stroke-linejoin="round"/>
<path d="M11 22H12C12.6 22 13.1 22.3 13.4 22.8C13.9 23.5 14 24.4 13.8 25.2L13 27.9H14C15.1 27.9 16 28.8 16 29.9" stroke="#0060A7" stroke-miterlimit="10" stroke-linecap="round" stroke-linejoin="round"/>
<path d="M21.9984 13.5008L21.4984 14.2008C20.4984 15.7008 20.2984 17.5008 20.6984 19.2008C20.7984 19.4008 20.7984 19.6008 20.7984 19.8008C20.8984 20.4008 20.8984 21.0008 20.7984 21.7008L19.8984 28.1008H21.8984C22.4984 28.1008 22.8984 28.5008 22.8984 29.1008C22.8984 29.7008 22.4984 30.1008 21.8984 30.1008H19.8984H6.89844M15.4984 11.8008V13.3008C15.4984 14.1008 15.0984 14.9008 14.4984 15.5008L13.9984 15.9008C9.79844 17.2008 6.89844 21.1008 6.89844 25.5008V28.0435" stroke="#0060A7" stroke-miterlimit="10" stroke-linecap="round" stroke-linejoin="round"/>
<path d="M6.99546 30.0964C3.69546 30.0964 1 27.3 1 24V23L1.5 24.3C2.4 26.5 4.43935 28.0446 6.83935 28.0446" stroke="#0060A7" stroke-miterlimit="10" stroke-linecap="round" stroke-linejoin="round"/>
</svg>
