<svg width="26" height="36" viewBox="0 0 26 36" fill="none" xmlns="http://www.w3.org/2000/svg">
<path d="M12.848 0C19.9299 0 25.6953 5.6903 25.6953 12.6814C25.6953 21.356 14.1992 34.0862 13.7072 34.6288C13.2499 35.1366 12.446 35.1296 11.9887 34.6288C11.4967 34.0931 0.00059325 21.356 0.00059325 12.6814C0.00059325 5.6903 5.76597 0 12.848 0ZM12.848 19.0535C16.4097 19.0535 19.3132 16.1944 19.3132 12.6745C19.3132 9.15457 16.4097 6.30246 12.848 6.30246C9.28617 6.30246 6.38269 9.16153 6.38269 12.6814C6.38269 16.2014 9.28617 19.0535 12.848 19.0535Z" fill="#3C0040"/>
</svg>
