<svg width="22" height="26" viewBox="0 0 22 26" fill="none" xmlns="http://www.w3.org/2000/svg">
<path d="M11.609 0C4.51324 0 0.935547 5.08703 0.935547 9.32941C0.935547 11.8979 1.90797 14.1827 3.99335 15.0345C4.33568 15.1743 4.64234 15.0396 4.7419 14.6611C4.81058 14.3989 4.97376 13.7379 5.04643 13.4624C5.14652 13.0878 5.10739 12.9566 4.83161 12.6303C4.23027 11.9208 3.84588 11.0025 3.84588 9.70155C3.84588 5.92741 6.6697 2.54884 11.1993 2.54884C15.2093 2.54884 17.4129 4.99945 17.4129 8.27207C17.4129 12.5781 15.5072 16.2122 12.6783 16.2122C11.1157 16.2122 9.94659 14.9201 10.3214 13.3354C10.7702 11.4435 11.6393 9.40155 11.6393 8.03622C11.6393 6.81385 10.9837 5.79405 9.62555 5.79405C8.02837 5.79405 6.74557 7.44633 6.74557 9.65949C6.74557 11.0693 7.22179 12.0228 7.22179 12.0228C7.22179 12.0228 5.58708 18.9479 5.30118 20.1607C4.73019 22.5756 5.21546 25.5365 5.25646 25.8355C5.28015 26.0128 5.50775 26.0548 5.61103 25.9212C5.75877 25.7287 7.66075 23.3806 8.30734 21.0341C8.49022 20.3697 9.35723 16.9293 9.35723 16.9293C9.87631 17.9188 11.3928 18.7906 13.0057 18.7906C17.8063 18.7906 21.0638 14.414 21.0638 8.55531C21.064 4.12552 17.3115 0 11.609 0Z" fill="#EF8363"/>
</svg>
