<svg width="58" height="58" viewBox="0 0 58 58" fill="none" xmlns="http://www.w3.org/2000/svg">
<ellipse cx="28.7129" cy="29" rx="28.7129" ry="29" fill="#FF7D5A" fill-opacity="0.3"/>
<ellipse cx="28.7135" cy="29" rx="23.7624" ry="24" fill="#FF7D5A" fill-opacity="0.6"/>
<ellipse cx="28.7125" cy="29" rx="16.8317" ry="17" fill="#FF7D5A"/>
<path d="M19.109 35H27.4044V32.9886H22.5181V32.9091L24.2169 31.2443C26.609 29.0625 27.251 27.9716 27.251 26.6477C27.251 24.6307 25.6033 23.2045 23.109 23.2045C20.6658 23.2045 18.9897 24.6648 18.9953 26.9489H21.3306C21.3249 25.8352 22.0294 25.1534 23.0919 25.1534C24.1147 25.1534 24.876 25.7898 24.876 26.8125C24.876 27.7386 24.3078 28.375 23.251 29.392L19.109 33.2273V35ZM33.7496 35.2557C36.6757 35.2557 38.4428 33.0284 38.4485 29.1932C38.4542 25.3864 36.6644 23.2045 33.7496 23.2045C30.8292 23.2045 29.0564 25.3807 29.0507 29.1932C29.0394 33.017 30.8178 35.25 33.7496 35.2557ZM33.7496 33.2159C32.4144 33.2159 31.5507 31.875 31.5564 29.1932C31.5621 26.5511 32.4201 25.2216 33.7496 25.2216C35.0735 25.2216 35.9371 26.5511 35.9371 29.1932C35.9428 31.875 35.0792 33.2159 33.7496 33.2159Z" fill="white"/>
</svg>
