<svg width="35" height="35" viewBox="0 0 35 35" fill="none" xmlns="http://www.w3.org/2000/svg">
<circle cx="17.5" cy="17.5" r="17.5" fill="#FF7D5A"/>
<path fill-rule="evenodd" clip-rule="evenodd" d="M26.7576 11.9949C26.1241 12.2756 25.4445 12.4659 24.7303 12.5509C25.4595 12.1143 26.0177 11.4217 26.2822 10.5989C25.5982 11.0033 24.8432 11.2969 24.0388 11.4561C23.3946 10.7689 22.4783 10.3408 21.4619 10.3408C19.5121 10.3408 17.9312 11.9218 17.9312 13.8705C17.9312 14.1469 17.9624 14.4168 18.0226 14.675C15.0887 14.5276 12.4872 13.122 10.746 10.9861C10.4416 11.5066 10.2685 12.1132 10.2685 12.7606C10.2685 13.9856 10.8923 15.0664 11.8387 15.6988C11.2601 15.6794 10.7159 15.5203 10.2395 15.2557V15.2998C10.2395 17.0098 11.4569 18.4369 13.0712 18.7617C12.7754 18.8413 12.4635 18.8854 12.1409 18.8854C11.9129 18.8854 11.6924 18.8628 11.4763 18.8198C11.9258 20.2233 13.2293 21.2439 14.7737 21.2719C13.5659 22.2183 12.043 22.7808 10.389 22.7808C10.104 22.7808 9.82326 22.7636 9.54688 22.7324C11.1095 23.7358 12.9647 24.3209 14.9586 24.3209C21.4534 24.3209 25.0035 18.9414 25.0035 14.276L24.9917 13.8189C25.6854 13.3242 26.2854 12.7025 26.7576 11.9949Z" fill="white"/>
</svg>
