<svg width="32" height="26" viewBox="0 0 32 26" fill="none" xmlns="http://www.w3.org/2000/svg">
<path fill-rule="evenodd" clip-rule="evenodd" d="M32 3.07621C30.8222 3.59823 29.5585 3.95226 28.2307 4.11031C29.5865 3.29823 30.6243 2.01015 31.1161 0.480022C29.8444 1.23206 28.4406 1.77814 26.9449 2.07417C25.7471 0.796079 24.0434 0 22.1538 0C18.5285 0 15.589 2.94023 15.589 6.5645C15.589 7.07852 15.647 7.58056 15.759 8.06063C10.304 7.78657 5.46694 5.1724 2.22955 1.20005C1.66364 2.16815 1.3417 3.29619 1.3417 4.50032C1.3417 6.77852 2.50149 8.78867 4.26118 9.96472C3.18537 9.92873 2.17355 9.63271 1.28774 9.14066V9.22267C1.28774 12.4029 3.55133 15.0571 6.55274 15.6612C6.00283 15.8092 5.42296 15.8912 4.82307 15.8912C4.39917 15.8912 3.98924 15.8492 3.5873 15.7692C4.42312 18.3794 6.8467 20.2775 9.71819 20.3295C7.47259 22.0897 4.64111 23.1358 1.5657 23.1358C1.03582 23.1358 0.513883 23.1038 0 23.0458C2.90547 24.9119 6.35483 26 10.0621 26C22.1379 26 28.7387 15.9952 28.7387 7.31858L28.7167 6.46853C30.0064 5.54839 31.1221 4.39232 32 3.07621Z" fill="#EF8363"/>
</svg>
