<svg width="20" height="17" viewBox="0 0 20 17" fill="none" xmlns="http://www.w3.org/2000/svg">
<path fill-rule="evenodd" clip-rule="evenodd" d="M19.7643 2.14167C19.0369 2.464 18.2564 2.6826 17.4363 2.7802C18.2736 2.27876 18.9146 1.4834 19.2184 0.538588C18.433 1.00295 17.5659 1.34014 16.6421 1.52293C15.9023 0.733746 14.8501 0.242188 13.683 0.242188C11.4438 0.242188 9.62832 2.0577 9.62832 4.2956C9.62832 4.61299 9.66413 4.92299 9.73331 5.21942C6.36413 5.05019 3.37657 3.43601 1.37705 0.98319C1.02752 1.58097 0.828683 2.2775 0.828683 3.02102C0.828683 4.42775 1.54501 5.66896 2.63186 6.39514C1.96739 6.37292 1.34246 6.19013 0.795354 5.8863V5.93694C0.795354 7.90066 2.19343 9.53955 4.04721 9.91255C3.70756 10.0039 3.34941 10.0546 2.9789 10.0546C2.71708 10.0546 2.46389 10.0287 2.21564 9.97924C2.73188 11.591 4.22877 12.763 6.0023 12.7951C4.61534 13.882 2.86651 14.5279 0.967033 14.5279C0.639758 14.5279 0.317393 14.5082 0 14.4723C1.79452 15.6247 3.92497 16.2965 6.21473 16.2965C13.6731 16.2965 17.75 10.1188 17.75 4.76122L17.7364 4.23633C18.533 3.66817 19.2221 2.95433 19.7643 2.14167Z" fill="white"/>
</svg>
