<svg width="36" height="36" viewBox="0 0 36 36" fill="none" xmlns="http://www.w3.org/2000/svg">
<path fill-rule="evenodd" clip-rule="evenodd" d="M32.7273 9.21891C31.7034 9.67259 30.6048 9.98027 29.4505 10.1176C30.6291 9.41186 31.5313 8.29241 31.9589 6.96259C30.8533 7.61618 29.633 8.09077 28.3328 8.34805C27.2915 7.23727 25.8105 6.54541 24.1678 6.54541C21.0162 6.54541 18.4609 9.10073 18.4609 12.2505C18.4609 12.6973 18.5113 13.1336 18.6087 13.5508C13.8666 13.3126 9.66162 11.0407 6.8473 7.58836C6.35535 8.42973 6.07548 9.41009 6.07548 10.4566C6.07548 12.4365 7.08371 14.1835 8.61344 15.2056C7.67821 15.1744 6.79862 14.9171 6.02857 14.4895V14.5607C6.02857 17.3246 7.99635 19.6314 10.6055 20.1564C10.1275 20.285 9.62339 20.3563 9.10189 20.3563C8.73339 20.3563 8.37703 20.3198 8.02762 20.2502C8.75421 22.5187 10.8611 24.1684 13.3573 24.2136C11.4052 25.7433 8.94371 26.6525 6.27021 26.6525C5.80957 26.6525 5.35585 26.6246 4.90912 26.5742C7.43489 28.1961 10.4335 29.1417 13.6563 29.1417C24.1539 29.1417 29.8921 20.4467 29.8921 12.9059L29.873 12.1671C30.9942 11.3675 31.9641 10.3627 32.7273 9.21891Z" fill="#EF8363"/>
<mask id="mask0" mask-type="alpha" maskUnits="userSpaceOnUse" x="4" y="6" width="29" height="24">
<path fill-rule="evenodd" clip-rule="evenodd" d="M32.7273 9.21891C31.7034 9.67259 30.6048 9.98027 29.4505 10.1176C30.6291 9.41186 31.5313 8.29241 31.9589 6.96259C30.8533 7.61618 29.633 8.09077 28.3328 8.34805C27.2915 7.23727 25.8105 6.54541 24.1678 6.54541C21.0162 6.54541 18.4609 9.10073 18.4609 12.2505C18.4609 12.6973 18.5113 13.1336 18.6087 13.5508C13.8666 13.3126 9.66162 11.0407 6.8473 7.58836C6.35535 8.42973 6.07548 9.41009 6.07548 10.4566C6.07548 12.4365 7.08371 14.1835 8.61344 15.2056C7.67821 15.1744 6.79862 14.9171 6.02857 14.4895V14.5607C6.02857 17.3246 7.99635 19.6314 10.6055 20.1564C10.1275 20.285 9.62339 20.3563 9.10189 20.3563C8.73339 20.3563 8.37703 20.3198 8.02762 20.2502C8.75421 22.5187 10.8611 24.1684 13.3573 24.2136C11.4052 25.7433 8.94371 26.6525 6.27021 26.6525C5.80957 26.6525 5.35585 26.6246 4.90912 26.5742C7.43489 28.1961 10.4335 29.1417 13.6563 29.1417C24.1539 29.1417 29.8921 20.4467 29.8921 12.9059L29.873 12.1671C30.9942 11.3675 31.9641 10.3627 32.7273 9.21891Z" fill="white"/>
</mask>
<g mask="url(#mask0)">
</g>
</svg>
