<svg width="317" height="129" viewBox="0 0 317 129" fill="none" xmlns="http://www.w3.org/2000/svg">
<path d="M108.063 57.3089C107.575 57.4504 106.804 57.5762 105.765 57.702C104.727 57.8435 103.688 57.9064 102.665 57.9064C101.642 57.9064 100.745 57.8278 99.9744 57.6705C99.2033 57.5133 98.5424 57.2303 98.0073 56.8372C97.4723 56.4441 97.0789 55.8781 96.8114 55.1706C96.5439 54.4631 96.418 53.5354 96.418 52.3719V21.0834C96.418 20.1557 96.6697 19.4325 97.189 18.9136C97.6926 18.4105 98.4007 18.0017 99.282 17.6872C100.793 17.1527 102.508 16.7753 104.443 16.5237C106.379 16.2879 108.315 16.1621 110.266 16.1621C116.387 16.1621 121.061 17.4671 124.303 20.0771C127.544 22.6871 129.165 26.2405 129.165 30.7058C129.165 32.8755 128.819 34.8409 128.127 36.5861C127.434 38.3314 126.411 39.8408 125.074 41.0986C123.72 42.3564 122.021 43.3313 119.944 44.0231C117.882 44.7149 115.49 45.0608 112.799 45.0608H108.079V57.3089H108.063ZM111.525 35.9572C113.382 35.9572 114.814 35.5327 115.821 34.6679C116.812 33.8032 117.316 32.4825 117.316 30.7058C117.316 29.0234 116.796 27.7184 115.758 26.8222C114.719 25.9103 113.193 25.4543 111.194 25.4543C110.486 25.4543 109.904 25.4701 109.432 25.4858C108.96 25.5172 108.488 25.5644 108 25.6587V35.9572H111.525Z" fill="#4E1953"/>
<path d="M134.199 25.7205C134.64 25.5947 135.332 25.4532 136.292 25.3274C137.252 25.2017 138.228 25.123 139.251 25.123C140.226 25.123 141.108 25.1859 141.879 25.3274C142.65 25.469 143.311 25.7205 143.846 26.1293C144.381 26.5224 144.79 27.0727 145.073 27.7645C145.356 28.4563 145.498 29.3525 145.498 30.4531V44.7452C145.498 46.5691 145.939 47.8583 146.836 48.6288C147.717 49.3992 149.007 49.7923 150.691 49.7923C151.714 49.7923 152.548 49.6979 153.193 49.525C153.838 49.352 154.342 49.1633 154.688 48.9904V25.7205C155.129 25.5947 155.821 25.4532 156.781 25.3274C157.741 25.2017 158.717 25.123 159.739 25.123C160.715 25.123 161.596 25.1859 162.367 25.3274C163.138 25.469 163.799 25.7205 164.334 26.1293C164.869 26.5224 165.279 27.0727 165.562 27.7645C165.845 28.4563 165.987 29.3525 165.987 30.4531V50.657C165.987 52.8739 165.058 54.5406 163.186 55.6412C161.628 56.616 159.787 57.355 157.631 57.8738C155.475 58.3927 153.146 58.6442 150.612 58.6442C148.22 58.6442 146.017 58.3769 143.987 57.8424C141.973 57.3078 140.226 56.4902 138.763 55.3739C137.299 54.2733 136.166 52.8425 135.364 51.0815C134.561 49.3363 134.168 47.2137 134.168 44.7295V25.7205H134.199Z" fill="#4E1953"/>
<path d="M187.749 24.2598C190.409 24.2598 192.879 24.6057 195.161 25.2975C197.443 25.9893 199.41 27.0427 201.047 28.4578C202.683 29.8728 203.974 31.6652 204.902 33.8036C205.83 35.9576 206.303 38.5047 206.303 41.4763C206.303 44.3064 205.909 46.7907 205.107 48.929C204.304 51.0516 203.171 52.844 201.708 54.2747C200.244 55.7213 198.482 56.7904 196.42 57.4979C194.359 58.2055 192.061 58.5671 189.528 58.5671C187.624 58.5671 185.845 58.2841 184.209 57.7023V68.7398C183.768 68.8656 183.06 69.0228 182.084 69.18C181.109 69.3373 180.117 69.4159 179.095 69.4159C178.119 69.4159 177.238 69.353 176.467 69.2115C175.695 69.0857 175.035 68.8184 174.5 68.4096C173.964 68.0165 173.571 67.4662 173.304 66.7744C173.036 66.0826 172.91 65.1864 172.91 64.0858V32.1841C172.91 30.9892 173.162 30.0143 173.681 29.2596C174.185 28.5049 174.893 27.8131 175.774 27.1999C177.143 26.3195 178.858 25.5962 180.904 25.0774C182.95 24.5271 185.232 24.2598 187.749 24.2598ZM187.891 49.6522C192.455 49.6522 194.736 46.9322 194.736 41.4763C194.736 38.6462 194.17 36.5393 193.037 35.1557C191.904 33.7878 190.283 33.096 188.143 33.096C187.293 33.096 186.554 33.1904 185.877 33.3948C185.216 33.5992 184.634 33.8193 184.146 34.0866V48.7088C184.681 48.9761 185.247 49.1963 185.877 49.3692C186.522 49.5736 187.183 49.6522 187.891 49.6522Z" fill="#4E1953"/>
<path d="M226.683 24.2598C229.343 24.2598 231.813 24.6057 234.095 25.2975C236.377 25.9893 238.344 27.0427 239.98 28.4578C241.617 29.8728 242.907 31.6652 243.836 33.8036C244.764 35.9576 245.236 38.5047 245.236 41.4763C245.236 44.3064 244.843 46.7907 244.04 48.929C243.238 51.0516 242.105 52.844 240.641 54.2747C239.178 55.7213 237.415 56.7904 235.354 57.4979C233.292 58.2055 230.995 58.5671 228.461 58.5671C226.557 58.5671 224.779 58.2841 223.142 57.7023V68.7398C222.702 68.8656 221.994 69.0228 221.018 69.18C220.042 69.3373 219.051 69.4159 218.028 69.4159C217.052 69.4159 216.171 69.353 215.4 69.2115C214.629 69.0857 213.968 68.8184 213.433 68.4096C212.898 68.0165 212.505 67.4662 212.237 66.7744C211.97 66.0826 211.844 65.1864 211.844 64.0858V32.1841C211.844 30.9892 212.096 30.0143 212.615 29.2596C213.118 28.5049 213.827 27.8131 214.708 27.1999C216.077 26.3195 217.792 25.5962 219.838 25.0774C221.868 24.5271 224.15 24.2598 226.683 24.2598ZM226.809 49.6522C231.372 49.6522 233.654 46.9322 233.654 41.4763C233.654 38.6462 233.088 36.5393 231.955 35.1557C230.822 33.7878 229.201 33.096 227.061 33.096C226.211 33.096 225.471 33.1904 224.795 33.3948C224.134 33.5992 223.552 33.8193 223.064 34.0866V48.7088C223.599 48.9761 224.165 49.1963 224.795 49.3692C225.44 49.5736 226.101 49.6522 226.809 49.6522Z" fill="#4E1953"/>
<path d="M254.961 49.3219C254.473 48.2213 253.954 46.9792 253.403 45.5956C252.852 44.2277 252.27 42.6554 251.672 40.8788C251.074 39.1021 250.445 37.0738 249.815 34.794C249.17 32.5142 248.493 29.8885 247.785 26.9168C248.399 26.3036 249.233 25.7533 250.287 25.2817C251.326 24.81 252.475 24.5898 253.718 24.5898C255.276 24.5898 256.55 24.9043 257.573 25.5489C258.596 26.1936 259.351 27.4042 259.839 29.1652L265.095 47.4509H265.363C265.898 45.9415 266.417 44.3063 266.92 42.5297C267.424 40.753 267.928 38.9291 268.415 37.0424C268.903 35.1556 269.36 33.2689 269.784 31.3979C270.209 29.5111 270.571 27.6715 270.886 25.8477C272.475 24.9986 274.238 24.5898 276.142 24.5898C277.7 24.5898 278.974 24.92 279.997 25.5804C281.02 26.2407 281.524 27.4042 281.524 29.0394C281.524 30.2344 281.366 31.618 281.052 33.1903C280.737 34.7626 280.328 36.4292 279.824 38.2059C279.321 39.9825 278.723 41.8064 278.03 43.6932C277.338 45.5799 276.63 47.4195 275.874 49.2433C275.119 51.0672 274.348 52.781 273.545 54.4004C272.743 56.0199 271.972 57.4664 271.216 58.7557C269.973 60.9254 268.825 62.7021 267.754 64.07C266.684 65.4379 265.662 66.5228 264.702 67.2932C263.726 68.0636 262.75 68.5982 261.775 68.8969C260.799 69.1799 259.776 69.3372 258.722 69.3372C256.865 69.3372 255.354 68.7869 254.206 67.6706C253.057 66.5542 252.364 65.1234 252.144 63.3468C253.56 62.2304 254.977 61.004 256.409 59.6519C257.825 58.2997 259.115 56.9161 260.264 55.501C259.509 55.2809 258.706 54.7621 257.841 53.9445C256.912 53.1269 255.968 51.586 254.961 49.3219Z" fill="#4E1953"/>
<path d="M122.995 111.772C122.24 111.772 121.374 111.757 120.399 111.709C119.423 111.662 118.416 111.584 117.377 111.442C116.339 111.301 115.284 111.143 114.246 110.939C113.207 110.735 112.231 110.467 111.35 110.106C108.911 109.178 107.684 107.559 107.684 105.247V74.2103C107.684 73.2827 107.935 72.5594 108.455 72.0406C108.958 71.5374 109.666 71.1286 110.548 70.8142C112.452 70.201 114.466 69.7765 116.606 69.5878C118.73 69.3834 120.635 69.2891 122.334 69.2891C125.796 69.2891 128.928 69.7136 131.744 70.5469C134.561 71.3959 136.985 72.6852 138.999 74.4304C141.013 76.1757 142.587 78.3769 143.688 81.0498C144.79 83.7069 145.356 86.8515 145.356 90.4835C145.356 94.0369 144.821 97.1186 143.767 99.76C142.697 102.401 141.186 104.618 139.203 106.411C137.221 108.203 134.876 109.54 132.122 110.436C129.352 111.332 126.315 111.772 122.995 111.772ZM119.265 102.071C119.753 102.166 120.351 102.229 121.059 102.307C121.768 102.37 122.428 102.401 123.058 102.401C124.569 102.401 125.953 102.181 127.212 101.741C128.471 101.301 129.557 100.609 130.47 99.6814C131.382 98.7537 132.091 97.5431 132.594 96.0651C133.098 94.5872 133.365 92.7948 133.365 90.7194C133.365 86.7257 132.437 83.7227 130.564 81.7101C128.707 79.6976 126.221 78.6913 123.105 78.6913C122.491 78.6913 121.846 78.7071 121.201 78.7542C120.556 78.8014 119.911 78.8643 119.234 78.9586V102.071H119.265Z" fill="#4E1953"/>
<path d="M150.867 69.4318C150.867 67.7495 151.434 66.3344 152.567 65.1709C153.7 64.0232 155.195 63.4414 157.052 63.4414C158.908 63.4414 160.403 64.0232 161.536 65.1709C162.669 66.3187 163.236 67.7495 163.236 69.4318C163.236 71.1142 162.669 72.5292 161.536 73.6927C160.403 74.8405 158.908 75.4222 157.052 75.4222C155.195 75.4222 153.7 74.8405 152.567 73.6927C151.434 72.5292 150.867 71.1142 150.867 69.4318ZM162.717 110.642C162.229 110.736 161.505 110.846 160.561 111.003C159.601 111.16 158.641 111.239 157.665 111.239C156.69 111.239 155.808 111.176 155.037 111.035C154.266 110.893 153.605 110.642 153.07 110.233C152.535 109.84 152.126 109.289 151.843 108.598C151.56 107.906 151.418 107.01 151.418 105.909V78.8656C151.906 78.7712 152.63 78.6612 153.574 78.5039C154.534 78.3467 155.494 78.2681 156.469 78.2681C157.445 78.2681 158.326 78.331 159.097 78.4725C159.868 78.614 160.529 78.8656 161.064 79.2744C161.599 79.6674 162.008 80.2177 162.292 80.9095C162.575 81.6013 162.717 82.4975 162.717 83.5981V110.642Z" fill="#4E1953"/>
<path d="M183.203 77.4023C185.595 77.4023 187.783 77.6539 189.75 78.1413C191.717 78.6287 193.416 79.3677 194.801 80.374C196.201 81.3645 197.271 82.6381 198.027 84.1632C198.782 85.6883 199.16 87.4964 199.16 89.5719V104.461C199.16 105.609 198.845 106.553 198.2 107.292C197.555 108.015 196.784 108.659 195.902 109.194C193.023 110.924 188.963 111.788 183.723 111.788C181.378 111.788 179.253 111.568 177.365 111.128C175.477 110.688 173.856 110.027 172.503 109.131C171.149 108.251 170.111 107.119 169.371 105.735C168.647 104.367 168.27 102.763 168.27 100.955C168.27 97.905 169.182 95.5465 170.992 93.9114C172.817 92.2762 175.618 91.2542 179.442 90.8611L188.16 89.9335V89.4618C188.16 88.1725 187.594 87.2606 186.461 86.7103C185.328 86.16 183.707 85.877 181.567 85.877C179.883 85.877 178.246 86.0499 176.641 86.4116C175.052 86.7732 173.604 87.2134 172.314 87.748C171.732 87.3549 171.244 86.7417 170.85 85.9241C170.457 85.1066 170.252 84.2575 170.252 83.3613C170.252 82.2135 170.536 81.2859 171.086 80.6098C171.637 79.918 172.487 79.3363 173.651 78.8489C174.942 78.3614 176.452 77.9998 178.215 77.7797C179.993 77.5124 181.645 77.4023 183.203 77.4023ZM183.738 103.534C184.494 103.534 185.328 103.455 186.24 103.298C187.153 103.141 187.83 102.936 188.27 102.669V97.3547L183.486 97.7478C182.243 97.8421 181.22 98.1094 180.434 98.5496C179.647 98.9899 179.238 99.6502 179.238 100.546C179.238 101.443 179.584 102.15 180.261 102.7C180.921 103.251 182.086 103.534 183.738 103.534Z" fill="#4E1953"/>
<path d="M217.396 110.64C216.956 110.766 216.248 110.907 215.303 111.033C214.343 111.159 213.368 111.238 212.345 111.238C211.369 111.238 210.488 111.175 209.717 111.033C208.946 110.892 208.285 110.64 207.75 110.231C207.215 109.838 206.806 109.288 206.523 108.596C206.239 107.904 206.098 107.008 206.098 105.908V85.9709C206.098 84.9489 206.286 84.0685 206.664 83.3452C207.042 82.6062 207.577 81.9616 208.301 81.3798C209.009 80.7981 209.89 80.2792 210.929 79.8233C211.967 79.3516 213.085 78.9428 214.281 78.5969C215.476 78.2353 216.72 77.968 218.01 77.7636C219.3 77.5592 220.575 77.4648 221.865 77.4648C223.99 77.4648 225.674 77.8736 226.917 78.6912C228.16 79.5088 228.774 80.861 228.774 82.7163C228.774 83.3452 228.679 83.9427 228.506 84.5401C228.333 85.1376 228.113 85.6879 227.845 86.1753C226.917 86.1753 225.957 86.2225 224.981 86.3011C224.006 86.3954 223.046 86.5212 222.117 86.6942C221.189 86.8671 220.307 87.0558 219.489 87.2602C218.671 87.4646 217.963 87.6847 217.396 87.952V110.64V110.64Z" fill="#4E1953"/>
<path d="M233.164 69.4318C233.164 67.7495 233.731 66.3344 234.864 65.1709C235.997 64.0232 237.492 63.4414 239.348 63.4414C241.205 63.4414 242.7 64.0232 243.833 65.1709C244.966 66.3187 245.533 67.7495 245.533 69.4318C245.533 71.1142 244.966 72.5292 243.833 73.6927C242.7 74.8405 241.205 75.4222 239.348 75.4222C237.492 75.4222 235.997 74.8405 234.864 73.6927C233.731 72.5292 233.164 71.1142 233.164 69.4318ZM245.013 110.642C244.526 110.736 243.802 110.846 242.858 111.003C241.898 111.16 240.938 111.239 239.962 111.239C238.986 111.239 238.105 111.176 237.334 111.035C236.563 110.893 235.902 110.642 235.367 110.233C234.832 109.84 234.423 109.289 234.14 108.598C233.856 107.906 233.715 107.01 233.715 105.909V78.8656C234.203 78.7712 234.927 78.6612 235.871 78.5039C236.831 78.3467 237.791 78.2681 238.766 78.2681C239.742 78.2681 240.623 78.331 241.394 78.4725C242.165 78.614 242.826 78.8656 243.361 79.2744C243.896 79.6674 244.305 80.2177 244.589 80.9095C244.872 81.6013 245.013 82.4975 245.013 83.5981V110.642Z" fill="#4E1953"/>
<path d="M269.295 111.773C266.683 111.773 264.243 111.411 262.009 110.672C259.774 109.949 257.823 108.848 256.155 107.386C254.487 105.924 253.181 104.084 252.237 101.867C251.277 99.6502 250.805 97.0559 250.805 94.0843C250.805 91.1599 251.277 88.6442 252.237 86.5373C253.197 84.4305 254.44 82.701 255.998 81.3488C257.556 79.9966 259.318 79.0061 261.317 78.3614C263.315 77.7168 265.345 77.4023 267.438 77.4023C269.783 77.4023 271.923 77.764 273.858 78.4715C275.794 79.179 277.446 80.1538 278.847 81.396C280.247 82.6381 281.333 84.116 282.104 85.8455C282.875 87.575 283.269 89.4618 283.269 91.49C283.269 92.9994 282.844 94.1472 282.01 94.9491C281.16 95.7509 279.995 96.2541 278.485 96.4742L262.056 98.927C262.544 100.389 263.535 101.49 265.046 102.213C266.557 102.952 268.288 103.314 270.239 103.314C272.064 103.314 273.78 103.078 275.4 102.622C277.021 102.15 278.343 101.616 279.366 100.987C280.074 101.427 280.672 102.056 281.16 102.842C281.648 103.644 281.884 104.477 281.884 105.373C281.884 107.37 280.955 108.848 279.083 109.823C277.667 110.578 276.061 111.081 274.299 111.348C272.505 111.631 270.837 111.773 269.295 111.773ZM267.422 85.6411C266.352 85.6411 265.439 85.8141 264.668 86.1757C263.897 86.5373 263.252 86.9776 262.764 87.5436C262.276 88.0939 261.914 88.7228 261.663 89.3989C261.427 90.0907 261.269 90.7825 261.238 91.49L272.615 89.619C272.489 88.7385 271.986 87.8423 271.152 86.9619C270.318 86.0814 269.075 85.6411 267.422 85.6411Z" fill="#4E1953"/>
<path d="M316.003 101.065C316.003 104.43 314.744 107.072 312.211 108.974C309.677 110.876 305.964 111.836 301.038 111.836C299.181 111.836 297.45 111.694 295.845 111.442C294.24 111.175 292.887 110.766 291.754 110.216C290.621 109.666 289.739 108.958 289.094 108.125C288.449 107.292 288.134 106.285 288.134 105.138C288.134 104.068 288.355 103.172 288.795 102.449C289.236 101.71 289.771 101.113 290.385 100.625C291.675 101.333 293.138 101.962 294.807 102.528C296.475 103.078 298.394 103.361 300.566 103.361C301.935 103.361 302.989 103.157 303.729 102.763C304.469 102.37 304.831 101.836 304.831 101.16C304.831 100.547 304.563 100.059 304.028 99.6975C303.493 99.3359 302.612 99.0529 301.369 98.8327L299.37 98.4397C295.515 97.685 292.635 96.5057 290.747 94.8863C288.858 93.2668 287.914 90.9556 287.914 87.9368C287.914 86.3016 288.276 84.8079 288.984 83.4872C289.692 82.1507 290.684 81.0502 291.974 80.1697C293.264 79.2892 294.807 78.5974 296.6 78.11C298.394 77.6226 300.377 77.3867 302.549 77.3867C304.185 77.3867 305.728 77.5125 307.175 77.7483C308.623 77.9999 309.866 78.3615 310.936 78.8489C312.006 79.3364 312.84 79.9653 313.47 80.7514C314.099 81.5376 314.398 82.4495 314.398 83.5029C314.398 84.5249 314.209 85.3897 313.832 86.1286C313.454 86.8676 312.982 87.4651 312.4 87.9525C312.038 87.7324 311.518 87.4965 310.81 87.2607C310.102 87.0091 309.331 86.789 308.481 86.6003C307.632 86.3959 306.782 86.2387 305.916 86.0972C305.051 85.9714 304.264 85.8928 303.556 85.8928C302.092 85.8928 300.959 86.0657 300.157 86.3959C299.354 86.7261 298.961 87.245 298.961 87.9525C298.961 88.4399 299.181 88.833 299.622 89.1474C300.062 89.4619 300.912 89.7449 302.155 90.0122L304.217 90.4839C308.481 91.4587 311.503 92.7951 313.297 94.5089C315.106 96.1598 316.003 98.361 316.003 101.065Z" fill="#4E1953"/>
<path d="M22.7714 91.0023C19.5612 91.0023 16.351 90.7036 13.2038 90.0904L12.889 90.0275C11.1895 89.6973 10.0722 88.0307 10.4184 86.3326C10.7489 84.6346 12.4169 83.5182 14.1165 83.8641L14.3682 83.9113C18.0505 84.6188 21.7643 84.8547 25.4623 84.6346C29.239 84.4144 32.9528 83.6912 36.5092 82.512C48.5946 78.5341 58.3511 69.6192 63.3395 58.0157C63.371 57.9371 63.4025 57.8585 63.4339 57.7956C63.7644 57.0409 64.0791 56.2547 64.3624 55.4529C64.9446 53.8177 66.7543 52.9687 68.3908 53.5504C70.0274 54.1322 70.8772 55.9403 70.2949 57.5755C69.9645 58.4874 69.6183 59.3522 69.2563 60.1855C69.2406 60.2326 69.2249 60.2955 69.1934 60.3427C63.5126 73.6757 52.3241 83.9427 38.4919 88.4867C34.432 89.8388 30.1674 90.6564 25.8557 90.908C24.8171 90.9709 23.7943 91.0023 22.7714 91.0023Z" fill="#4E1953"/>
<path d="M21.8903 37.2621C22.7558 37.4665 23.8416 37.5923 24.833 37.6866C25.8558 37.781 26.8944 37.8281 27.933 37.8281C30.0102 37.8124 32.1031 37.608 34.1646 36.8848C32.6854 38.4885 30.7498 39.7935 28.7513 40.8627C27.7442 41.3972 26.7056 41.8846 25.6355 42.3406C24.5497 42.7808 23.5269 43.1896 22.2837 43.5513L22.0634 43.6142C20.3167 44.1016 18.507 43.0953 18.0192 41.3658C17.5156 39.6205 18.5385 37.8124 20.2694 37.325C20.8045 37.1363 21.371 37.1363 21.8903 37.2621Z" fill="#4E1953"/>
<path d="M29.946 127.999C28.9861 127.999 28.0419 127.559 27.4282 126.742L8.52893 101.585C7.9939 100.877 7.78933 99.9812 7.96243 99.1007L19.1824 40.6588C19.5128 38.9607 21.1652 37.8287 22.8647 38.1588C24.5642 38.489 25.6972 40.1399 25.3667 41.838L14.3986 98.9121L30.7485 120.673L53.991 106.49L63.2125 58.4728C63.5429 56.7747 65.1952 55.6584 66.8948 55.9729C68.5943 56.303 69.7273 57.9539 69.3968 59.652L59.9236 109.038C59.7505 109.902 59.2312 110.673 58.4759 111.129L31.5826 127.528C31.079 127.842 30.5125 127.999 29.946 127.999Z" fill="#4E1953"/>
<path d="M33.9302 107.212C33.1905 107.212 32.4667 106.961 31.8687 106.442L23.4183 99.0993L11.9938 102.684C10.3415 103.203 8.56329 102.275 8.04399 100.624C7.5247 98.9735 8.4374 97.1968 10.1054 96.678L23.2138 92.5586C24.2523 92.2284 25.4011 92.4642 26.2194 93.1875L36.0073 101.694C37.3135 102.826 37.4551 104.822 36.3221 106.127C35.6926 106.851 34.8114 107.212 33.9302 107.212Z" fill="#4E1953"/>
<path d="M56.8235 111.6C56.0839 111.6 55.36 111.348 54.7621 110.83L46.3117 103.487L34.8871 107.072C33.8328 107.402 32.6841 107.15 31.85 106.411C31.016 105.673 30.6384 104.556 30.8587 103.471L34.3993 84.9026C34.7298 83.2045 36.3821 82.0882 38.0816 82.4026C39.7811 82.7328 40.9141 84.3837 40.5837 86.0818L38.0187 99.4777L46.0914 96.9463C47.13 96.6161 48.2787 96.852 49.097 97.5752L58.885 106.081C60.1911 107.213 60.3327 109.21 59.1997 110.515C58.5702 111.238 57.689 111.6 56.8235 111.6Z" fill="#4E1953"/>
<path d="M43.3846 116.646L20.4883 112.26L30.4021 122.464L43.3846 116.646Z" fill="#4E1953"/>
<path d="M47.0363 103.095C46.8474 103.095 46.6429 103.079 46.4383 103.032C44.7388 102.702 43.6058 101.051 43.9362 99.3528L47.9962 78.2213C48.3267 76.5232 49.979 75.3912 51.6785 75.7213C53.378 76.0515 54.511 77.7024 54.1805 79.4005L50.1206 100.532C49.8373 102.041 48.5155 103.095 47.0363 103.095Z" fill="#4E1953"/>
<path d="M24.1574 98.7072C23.9685 98.7072 23.764 98.6915 23.5594 98.6443C21.8599 98.3141 20.7269 96.6632 21.0573 94.9651L22.5523 87.1666C22.8827 85.4685 24.535 84.3365 26.2346 84.6667C27.9341 84.9968 29.0671 86.6477 28.7366 88.3458L27.2417 96.1444C26.9584 97.6695 25.6366 98.7072 24.1574 98.7072Z" fill="#4E1953"/>
<path d="M21.4184 43.3626C21.2768 43.3626 21.1509 43.3469 21.0092 43.3311C20.6158 43.284 11.1583 41.9947 4.62778 37.5451C0.441933 34.715 -0.942858 28.8189 0.630769 20.5172C1.29169 17.0582 4.39174 14.6369 7.91666 14.7312L21.3082 14.4954C21.3869 14.4954 21.4656 14.4954 21.5443 14.4954C21.9534 14.5583 22.2524 14.1966 22.394 13.8979C25.7301 6.99556 36.3206 -2.26522 51.8366 0.502013C52.1041 0.549181 52.3716 0.627796 52.6234 0.70641C57.4387 1.57117 68.0292 7.01129 73.3166 21.4763C73.9146 23.1115 73.0806 24.9197 71.444 25.5171C69.8074 26.1146 67.9977 25.2813 67.3998 23.6461C62.9307 11.4294 54.4016 7.42008 51.4904 6.90123C51.2229 6.85406 50.9554 6.77544 50.6878 6.69683C38.744 4.55852 30.4667 11.6495 28.0591 16.6337C26.7844 19.2751 24.1408 20.8946 21.324 20.7845L7.9324 21.0204C7.85372 21.0204 7.77503 21.0204 7.69635 21.0204C7.27147 20.9889 6.8938 21.2719 6.81512 21.6965C5.79227 27.0894 6.29583 31.083 8.16844 32.3566C13.4401 35.9571 21.7488 37.0892 21.8275 37.1049C23.5428 37.3407 24.7545 38.913 24.5342 40.6425C24.3296 42.2148 22.9763 43.3626 21.4184 43.3626Z" fill="#4E1953"/>
<path d="M48.2353 21.6335C45.7962 20.5329 43.9393 19.7782 42.0195 19.6053C41.0596 19.5266 40.0839 19.4638 38.9981 19.5895C38.4474 19.5895 37.8966 19.7153 37.2986 19.7625C36.7006 19.8254 36.1027 19.9669 35.3945 19.9669C35.725 19.3851 36.1499 18.8663 36.622 18.3789C37.1413 17.9858 37.6448 17.4984 38.2743 17.2311C39.486 16.5707 40.9494 16.3506 42.3814 16.4921C43.8292 16.6336 45.1825 17.2783 46.2211 18.1902C47.2597 19.0864 48.0308 20.2656 48.2353 21.6335Z" fill="#4E1953"/>
<path d="M4.87976 26.79C4.06147 26.79 3.18024 26.6485 2.28327 26.3497C0.630965 25.7994 -0.250266 24.007 0.316239 22.3561C0.882745 20.7052 2.66094 19.8248 4.31325 20.3908C6.53207 21.1455 8.70367 16.5858 8.71941 16.5387C9.4118 14.9507 11.2687 14.2274 12.858 14.9035C14.4474 15.5953 15.187 17.4349 14.4946 19.0229C13.22 21.9788 9.77374 26.79 4.87976 26.79Z" fill="#4E1953"/>
<path d="M73.3168 21.4763C74.5442 24.6209 75.2838 27.8598 75.7716 31.1144C76.2595 34.3691 76.3853 37.6709 76.1965 40.9884C75.9919 44.3059 75.4884 47.6392 74.3396 50.9567C73.7731 52.6076 73.0021 54.2428 71.9635 55.8151C70.9249 57.3716 69.5715 58.881 67.8091 59.9974C66.0624 61.1294 63.9222 61.7583 61.8922 61.8212C61.373 61.8527 60.8851 61.8369 60.3973 61.7898C59.9095 61.7583 59.4216 61.7112 58.9181 61.5697L57.4389 61.1923C56.9511 61.0665 56.4947 60.7992 56.0226 60.5948C54.1343 59.7458 52.6393 58.315 51.4748 56.8213C50.9555 56.0352 50.389 55.2648 50.0271 54.4315L49.4291 53.2051L48.9885 51.963C47.887 48.614 47.5722 45.2336 47.7925 41.9318C48.0443 38.63 48.7682 35.3439 50.3418 32.3565C50.6723 31.7119 51.4748 31.4761 52.1043 31.8062C52.6551 32.0893 52.9068 32.7024 52.7652 33.2842L52.7495 33.3628C52.0571 36.13 51.9154 39.0702 52.12 41.9475C52.3246 44.8091 52.9226 47.6392 53.9926 50.092C55.0155 52.5447 56.5891 54.573 58.5089 55.3277C58.7607 55.4063 58.9653 55.5792 59.2328 55.6107C59.5003 55.6579 59.7521 55.705 60.0039 55.7679C60.2557 55.8465 60.5232 55.8622 60.8064 55.8622C61.0897 55.8937 61.3572 55.878 61.6247 55.8465C62.6791 55.7679 63.5918 55.4377 64.4258 54.8717C66.1096 53.7397 67.3999 51.4284 68.2025 48.897C69.068 46.3499 69.4771 43.5198 69.6345 40.6739C69.8863 34.9665 69.1781 29.039 67.3842 23.6932L67.3685 23.6618C66.8177 22.0109 67.6989 20.2342 69.3512 19.6839C70.9878 19.1022 72.7188 19.9197 73.3168 21.4763Z" fill="#4E1953"/>
<path d="M30.279 128C28.9886 128 27.7927 127.214 27.3206 125.925C26.7226 124.29 27.5724 122.481 29.1932 121.9L37.8167 118.755C38.5091 118.504 39.2801 118.504 39.9725 118.755L47.5102 121.507L55.0479 118.755C55.7403 118.504 56.5114 118.504 57.2038 118.755L64.7257 121.507L72.2634 118.755C72.9558 118.504 73.7268 118.504 74.4192 118.755L83.027 121.9C84.6635 122.497 85.4976 124.305 84.8996 125.94C84.3016 127.576 82.4919 128.409 80.8711 127.811L73.3492 125.06L65.8115 127.811C65.1191 128.063 64.348 128.063 63.6556 127.811L56.1337 125.06L48.596 127.811C47.9036 128.063 47.1325 128.063 46.4402 127.811L38.9025 125.06L31.3648 127.811C31.0029 127.937 30.6409 128 30.279 128Z" fill="#4E1953"/>
</svg>
