<svg width="122" height="62" viewBox="0 0 122 62" fill="none" xmlns="http://www.w3.org/2000/svg">
<path d="M93.2457 19.4794C87.175 7.8904 75.0334 -1.30428e-05 60.8959 -1.05709e-05C46.8416 -8.11355e-06 34.6169 7.89041 28.5461 19.4795C23.1406 29.7534 12.1633 36 0.437506 36L121.438 36C109.712 36 98.6512 29.7534 93.2457 19.4794Z" fill="white"/>
<ellipse cx="60.9375" cy="35" rx="27.5" ry="27" transform="rotate(180 60.9375 35)" fill="#5773A8"/>
<path fill-rule="evenodd" clip-rule="evenodd" d="M68.4275 39.7896C69.0487 40.3576 69.0487 41.2786 68.4275 41.8466L62.0648 47.6639L62.0639 47.6648C61.9113 47.8043 61.7355 47.9095 61.5479 47.9805C61.3603 48.0516 61.1546 48.0908 60.9389 48.0908C60.7241 48.0908 60.5192 48.0519 60.3322 47.9813C60.2393 47.9463 60.1493 47.9029 60.0636 47.8512C59.9753 47.7979 59.8916 47.7358 59.814 47.6648L59.813 47.6639L53.4503 41.8466C52.8291 41.2786 52.8291 40.3576 53.4503 39.7896C54.0716 39.2215 55.0789 39.2215 55.7002 39.7896L59.348 43.1247L59.348 23.3635C59.348 22.5602 60.0603 21.909 60.9389 21.909C61.8175 21.909 62.5298 22.5602 62.5298 23.3635L62.5298 43.1247L66.1776 39.7896C66.7989 39.2215 67.8062 39.2215 68.4275 39.7896Z" fill="white"/>
</svg>
