<svg width="57" height="43" viewBox="0 0 57 43" fill="none" xmlns="http://www.w3.org/2000/svg">
<g clip-path="url(#clip0)">
<path d="M55.0186 36.6789H49.6355C51.6997 36.6789 53.4401 34.8515 53.4401 32.589V8.39754C53.4401 6.17854 51.7402 4.30762 49.6355 4.30762L13.4516 4.39464C11.3874 4.39464 9.64701 6.22205 9.64701 8.48456V32.6325C9.64701 34.8515 11.3469 36.7224 13.4516 36.7224H8.06852C7.05666 36.7224 6.32812 37.5926 6.32812 38.5933V38.9414C6.32812 41.2474 8.02804 43.0313 10.1327 43.0313H53.1568C55.1805 43.0313 56.7185 41.2909 56.7185 39.2025V38.5933C56.759 37.5491 55.99 36.6789 55.0186 36.6789ZM31.4626 9.92038C32.5149 9.92038 33.4054 10.8341 33.4054 11.9653C33.4054 13.0966 32.5149 14.0103 31.4626 14.0103C30.4103 14.0103 29.5199 13.0966 29.5199 11.9653C29.5199 10.8341 30.3698 9.92038 31.4626 9.92038ZM25.432 9.92038C26.4843 9.92038 27.3747 10.8341 27.3747 11.9653C27.3747 13.0966 26.4843 14.0103 25.432 14.0103C24.3796 14.0103 23.4892 13.0966 23.4892 11.9653C23.4892 10.8341 24.3796 9.92038 25.432 9.92038ZM19.5632 16.4033C19.5632 15.2721 20.4536 14.3584 21.506 14.3584C22.5583 14.3584 23.4487 15.2721 23.4487 16.4033C23.4487 17.5346 22.5583 18.4483 21.506 18.4483C20.4536 18.4483 19.5632 17.5781 19.5632 16.4033ZM30.8555 27.5418C30.4508 27.5418 30.0865 27.4548 29.6818 27.3243C29.277 27.1503 28.9127 27.1067 28.4271 27.1067C27.9818 27.1067 27.5771 27.1503 27.2533 27.3243C26.8486 27.4548 26.4843 27.5418 26.0391 27.5418C24.1368 27.5418 22.6797 25.8885 22.6797 23.9305C22.6797 22.7993 23.1654 21.8421 23.8939 21.1894C24.2582 20.9284 24.5011 20.5803 24.7439 20.1452C24.9463 19.7536 25.1082 19.362 25.1486 18.9269C25.3915 17.23 26.8081 15.9247 28.4675 15.9247C30.127 15.9247 31.5031 17.23 31.7864 18.9269C31.8269 19.362 31.9888 19.7536 32.1912 20.1452C32.3935 20.5803 32.6768 20.8848 33.0411 21.1894C33.7696 21.8421 34.2553 22.8428 34.2553 23.9305C34.2149 25.932 32.6768 27.5418 30.8555 27.5418ZM35.3886 18.4918C34.3363 18.4918 33.4459 17.5781 33.4459 16.4468C33.4459 15.3156 34.3363 14.4019 35.3886 14.4019C36.4409 14.4019 37.3314 15.3156 37.3314 16.4468C37.3314 17.5346 36.4409 18.4918 35.3886 18.4918Z" fill="#CBD4E8"/>
<path d="M45.266 34.8078H9.16301C6.45123 34.8078 4.26562 32.4583 4.26562 29.5867V5.22118C4.26562 2.30602 6.49171 0 9.16301 0H12.4009L41.8662 0.0435098H45.1851C47.8968 0.0435098 50.0825 2.39304 50.0825 5.26469V29.4561C50.1634 32.4148 47.9373 34.8078 45.266 34.8078ZM9.16301 2.34953C7.66546 2.34953 6.45123 3.65482 6.45123 5.26469V29.5431C6.45123 31.153 7.66546 32.4583 9.16301 32.4583H45.1851C46.6826 32.4583 47.8968 31.153 47.8968 29.5431V5.3517C47.8968 3.74184 46.6826 2.43655 45.1851 2.43655H41.8662L12.4819 2.34953H9.16301Z" fill="#221F20"/>
<path d="M40.8531 31.24H13.2497C10.6593 31.24 8.55469 29.021 8.55469 26.2364V8.83248C8.55469 6.04786 10.6593 3.82886 13.2497 3.82886L40.8531 3.87237C43.4435 3.87237 45.5481 6.09137 45.5481 8.87599V11.5736C45.5481 12.1827 45.1029 12.7049 44.4958 12.7049C43.9292 12.7049 43.4435 12.2262 43.4435 11.5736V8.87599C43.4435 7.35315 42.2697 6.09137 40.8531 6.09137L13.2497 6.04786C11.8331 6.04786 10.6593 7.30964 10.6593 8.83248V26.2799C10.6593 27.8027 11.8331 29.0645 13.2497 29.0645H40.8531C42.2697 29.0645 43.4435 27.8027 43.4435 26.2799V16.0986C43.4435 15.4895 43.8887 14.9674 44.4958 14.9674C45.0624 14.9674 45.5481 15.446 45.5481 16.0986V26.2364C45.5077 29.021 43.4435 31.24 40.8531 31.24Z" fill="#221F20"/>
<path d="M48.8682 41.0296H5.80363C3.05138 41.0296 0.90625 38.6801 0.90625 35.7214V35.3733C0.90625 33.6764 2.16095 32.3276 3.73945 32.3276H20.0506C20.2934 32.3276 20.5767 32.4147 20.7791 32.6757L22.479 34.3726H32.3547L33.9737 32.6757C34.1761 32.4582 34.4594 32.3276 34.7022 32.3276H50.6895C52.268 32.3276 53.5227 33.6764 53.5227 35.3733V35.9825C53.5227 38.8106 51.4586 41.0296 48.8682 41.0296ZM3.73945 34.7207C3.41565 34.7207 3.09186 34.9817 3.09186 35.4168V35.7649C3.09186 37.4183 4.26561 38.6801 5.80363 38.6801H48.8277C50.2443 38.6801 51.2967 37.5488 51.2967 36.026V35.4168C51.2967 35.0688 51.0538 34.7207 50.6491 34.7207H35.2284L33.6094 36.4176C33.4071 36.6351 33.1237 36.7656 32.8809 36.7656H22.0743C21.8314 36.7656 21.5481 36.6786 21.3457 36.4176L19.6458 34.7207H3.73945Z" fill="#221F20"/>
<path d="M31.5451 35.1994H23.5312C23.2883 35.1994 23.0859 35.0254 23.0859 34.7208C23.0859 34.4597 23.2478 34.2422 23.5312 34.2422H31.5451C31.7879 34.2422 31.9903 34.4162 31.9903 34.7208C31.9903 35.0254 31.7474 35.1994 31.5451 35.1994Z" fill="#CAD4EA"/>
<path d="M31.9898 19.3619L31.9493 19.3184C31.7065 19.1008 31.4231 18.7963 31.2613 18.4482C31.0994 18.1001 30.9375 17.752 30.897 17.404C30.897 17.3605 30.897 17.3605 30.897 17.3605C30.4922 15.4025 28.9137 14.0537 27.0924 14.0537C25.2711 14.0537 23.6926 15.446 23.3283 17.3605C23.3283 17.404 23.3283 17.404 23.3283 17.404C23.2878 17.7956 23.1664 18.1001 22.964 18.4482C22.8021 18.8398 22.5188 19.1008 22.276 19.3184L22.2355 19.3619C21.3451 20.1451 20.8594 21.2763 20.8594 22.4946C20.8594 24.7571 22.5593 26.628 24.7044 26.628C25.1496 26.628 25.5544 26.541 25.9591 26.4105C25.9996 26.4105 25.9996 26.4105 26.0401 26.367C26.3639 26.2365 26.6877 26.1929 27.1329 26.1929C27.5376 26.1929 27.8209 26.2365 28.1447 26.367H28.1852C28.6304 26.541 29.0756 26.628 29.4804 26.628C30.7756 26.628 32.0303 25.9319 32.7183 24.7136C32.8397 24.4961 32.7993 24.148 32.5969 24.0175C32.3945 23.8869 32.0707 23.9304 31.9493 24.148C31.4231 25.0617 30.4922 25.5838 29.4804 25.5838C29.1161 25.5838 28.7923 25.5403 28.4281 25.3663C28.3876 25.3663 28.3876 25.3663 28.3471 25.3227C27.9424 25.1922 27.4971 25.1052 27.0924 25.1052C26.6067 25.1052 26.121 25.1922 25.7163 25.3227H25.6758C25.352 25.4533 25.0282 25.4968 24.664 25.4968C23.045 25.4968 21.7903 24.1045 21.7903 22.4076C21.7903 21.4939 22.195 20.6237 22.8426 20.0146C22.8426 20.0146 22.8426 20.0146 22.8831 19.971C23.2474 19.71 23.5307 19.2749 23.814 18.8398C24.0164 18.4047 24.2187 18.0131 24.2592 17.5345V17.491C24.5021 16.0117 25.7163 14.9239 27.0924 14.9239C28.4685 14.9239 29.7232 16.0117 29.9256 17.491V17.5345C30.0065 18.0131 30.128 18.4047 30.4113 18.8398C30.6541 19.3184 30.9779 19.6665 31.3422 19.971C31.3422 19.971 31.3422 19.971 31.3827 20.0146C32.0303 20.6237 32.435 21.4504 32.435 22.4076C32.435 22.6687 32.6374 22.9297 32.9207 22.9297C33.1635 22.9297 33.4064 22.7122 33.4064 22.4076C33.3254 21.2763 32.8397 20.1451 31.9898 19.3619Z" fill="#231F20"/>
<path d="M29.4825 26.8457C28.9968 26.8457 28.5111 26.7586 28.0659 26.5846C28.0659 26.5846 28.0254 26.5846 27.9849 26.5411C27.7421 26.4541 27.4183 26.4106 27.054 26.4106C26.6493 26.4106 26.3659 26.4541 26.0421 26.5846C26.0017 26.5846 25.9612 26.6281 25.9207 26.6281C25.516 26.7586 25.0708 26.8457 24.666 26.8457C22.4399 26.8457 20.5781 24.8877 20.5781 22.4947C20.5781 21.2329 21.1043 20.0146 22.0352 19.1879L22.0757 19.1444C22.3185 18.9704 22.5614 18.6658 22.7233 18.3177C22.8852 17.9697 22.9661 17.6651 23.0471 17.404V17.3605C23.4518 15.3156 25.1112 13.7927 27.0135 13.7927C28.9563 13.7927 30.6157 15.2285 30.98 17.317C30.98 17.3605 31.0205 17.404 31.0205 17.4475C31.061 17.7086 31.1824 18.0567 31.3443 18.3613C31.5062 18.7093 31.749 18.9704 31.9919 19.1879L32.0323 19.2314C32.9632 20.0581 33.4894 21.2764 33.4894 22.5382C33.4894 22.9733 33.1656 23.2779 32.8013 23.2779C32.3966 23.2779 32.1133 22.9298 32.1133 22.5382C32.1133 21.7115 31.749 20.8848 31.1419 20.3192L31.1014 20.2757C30.7776 20.0146 30.4538 19.5795 30.211 19.1444C30.0086 18.7093 29.8062 18.2742 29.7253 17.7521V17.7086C29.5229 16.3598 28.3492 15.3591 27.0945 15.3591C25.8398 15.3591 24.7065 16.3598 24.4637 17.7086C24.4637 17.7521 24.4637 17.7521 24.4637 17.7956C24.3827 18.2307 24.2613 18.6658 23.978 19.1444C23.7351 19.623 23.4113 20.0146 23.0066 20.3627C22.359 20.9283 21.9947 21.7115 21.9947 22.6252C21.9947 24.2351 23.1685 25.4969 24.666 25.4969C24.9898 25.4969 25.2731 25.4533 25.5969 25.3228L25.7184 25.4969L25.6374 25.2793C26.0826 25.1053 26.5683 25.0182 27.0945 25.0182C27.5802 25.0182 28.0659 25.1053 28.4706 25.2358C28.4706 25.2358 28.5111 25.2358 28.5515 25.2793C28.8753 25.4098 29.1587 25.4533 29.5229 25.4533C30.4538 25.4533 31.3038 24.9312 31.7895 24.1045C31.8704 23.9305 32.0323 23.8435 32.2347 23.7565C32.3966 23.713 32.599 23.7565 32.7609 23.8435C33.0847 24.061 33.2061 24.4961 32.9632 24.8877C32.1942 26.106 30.8991 26.8457 29.4825 26.8457ZM27.0945 25.932C27.4992 25.932 27.8635 25.9755 28.1873 26.106H28.2278C28.6325 26.2365 29.0777 26.3235 29.4825 26.3235C30.7372 26.3235 31.8704 25.6274 32.5585 24.4961C32.6394 24.3656 32.599 24.2351 32.4775 24.1045C32.4371 24.061 32.3561 24.061 32.3156 24.061C32.2347 24.061 32.1942 24.1045 32.1538 24.1916C31.5871 25.1923 30.5753 25.7144 29.5229 25.7144C29.1182 25.7144 28.7539 25.6274 28.3897 25.4969H28.3492C27.9849 25.3663 27.5802 25.3228 27.135 25.3228C26.6493 25.3228 26.2445 25.4098 25.8802 25.5404H25.8398C25.4755 25.6709 25.1517 25.7144 24.747 25.7144C23.0471 25.7144 21.6305 24.2351 21.6305 22.4077C21.6305 21.4069 22.0352 20.4932 22.7637 19.8406C23.128 19.4925 23.4113 19.1444 23.6542 18.7093C23.8565 18.3177 24.0184 17.9262 24.0994 17.4911H24.3018L24.0994 17.4475C24.3422 15.8377 25.6779 14.7064 27.1754 14.7064C28.7134 14.7064 29.9681 15.8812 30.2515 17.4475V17.4911C30.3324 17.9262 30.4538 18.3177 30.6967 18.7528C30.8991 19.1879 31.2228 19.536 31.5466 19.8406L31.5871 19.8841C32.2752 20.4932 32.7204 21.4069 32.7204 22.4077C32.7204 22.5382 32.8418 22.6687 32.9632 22.6687C33.0847 22.6687 33.2061 22.5382 33.2061 22.4077C33.2061 21.2764 32.7204 20.1887 31.9514 19.449L31.9109 19.4055C31.6681 19.1879 31.3847 18.8399 31.1824 18.4918C31.0205 18.1002 30.8586 17.7521 30.7776 17.3605V17.317V17.2735C30.4538 15.4461 28.9563 14.1408 27.2159 14.1408C25.516 14.1408 23.978 15.4461 23.6542 17.2735L23.4518 17.317L23.5732 17.404C23.5327 17.7956 23.4113 18.1437 23.1685 18.5353C22.9661 18.9269 22.6828 19.2314 22.4399 19.449L22.359 19.536C21.509 20.2757 21.1043 21.3634 21.1043 22.4947C21.1043 24.6267 22.7233 26.3671 24.747 26.3671C25.1517 26.3671 25.516 26.28 25.9207 26.1495L26.0421 26.3235L25.9612 26.106C26.285 26.019 26.6493 25.932 27.0945 25.932Z" fill="#221F20"/>
<path d="M20.1316 16.5772C19.3626 16.5772 18.6745 15.8811 18.6745 15.0544C18.6745 14.2277 19.3221 13.5315 20.1316 13.5315C20.9006 13.5315 21.5887 14.2277 21.5887 15.0544C21.5887 15.4895 21.4268 15.8376 21.1434 16.1856C20.9815 16.3597 20.9815 16.7078 21.1434 16.8818C21.3053 17.0558 21.6291 17.0558 21.791 16.8818C22.2362 16.4032 22.4791 15.7505 22.4791 15.0544C22.4791 13.6621 21.3863 12.4873 20.0911 12.4873C18.7959 12.4873 17.7031 13.6621 17.7031 15.0544C17.7031 16.4467 18.7959 17.6215 20.0911 17.6215C20.334 17.6215 20.5768 17.4039 20.5768 17.0993C20.6173 16.7948 20.3744 16.5772 20.1316 16.5772Z" fill="#231F20"/>
<path d="M20.1308 17.839C18.6738 17.839 17.5 16.5772 17.5 15.0544C17.5 13.5316 18.6738 12.2698 20.1308 12.2698C21.5879 12.2698 22.7617 13.488 22.7617 15.0109C22.7617 15.7506 22.5188 16.4467 21.9926 16.9688C21.7498 17.2299 21.3046 17.2299 21.0213 16.9688C20.8998 16.8383 20.8189 16.6208 20.8189 16.4467C20.8189 16.2727 20.8998 16.0551 21.0213 15.9246C21.2236 15.707 21.3855 15.359 21.3855 15.0109C21.3855 14.2712 20.8189 13.7056 20.1713 13.7056C19.5237 13.7056 18.9571 14.3147 18.9571 15.0109C18.9571 15.707 19.5237 16.3162 20.1713 16.3162C20.576 16.3162 20.8594 16.6643 20.8594 17.0559C20.8189 17.491 20.5356 17.839 20.1308 17.839ZM20.1308 12.6614C18.9571 12.6614 17.9452 13.7056 17.9452 15.0109C17.9452 16.3162 18.9166 17.3604 20.1308 17.3604C20.2522 17.3604 20.3737 17.2299 20.3737 17.0994C20.3737 16.9688 20.2522 16.8383 20.1308 16.8383C19.1999 16.8383 18.4714 16.0551 18.4714 15.0544C18.4714 14.0537 19.1999 13.2705 20.1308 13.2705C21.0617 13.2705 21.7903 14.0537 21.7903 15.0544C21.7903 15.533 21.6284 15.9681 21.3046 16.3162C21.2641 16.3597 21.2236 16.4467 21.2236 16.4902C21.2236 16.5772 21.2641 16.6208 21.3046 16.6643C21.3855 16.7513 21.5474 16.7513 21.6688 16.6643C22.0736 16.2292 22.3164 15.62 22.3164 15.0109C22.3164 13.7056 21.3046 12.6614 20.1308 12.6614Z" fill="#221F20"/>
<path d="M24.0964 13.0963C24.3393 13.0963 24.5821 12.8788 24.5821 12.5742C24.5821 12.3131 24.3797 12.0521 24.0964 12.0521C23.3274 12.0521 22.6394 11.3559 22.6394 10.5292C22.6394 9.70255 23.2869 9.00639 24.0964 9.00639C24.8654 9.00639 25.5535 9.70255 25.5535 10.5292C25.5535 10.9643 25.3916 11.3124 25.1083 11.6605C24.9464 11.8345 24.9464 12.1826 25.1083 12.3566C25.2702 12.5307 25.594 12.5307 25.7559 12.3566C26.2011 11.878 26.4439 11.2254 26.4439 10.5292C26.4439 9.13692 25.3511 7.96216 24.0559 7.96216C22.7608 7.96216 21.668 9.13692 21.668 10.5292C21.668 11.9216 22.7608 13.0963 24.0964 13.0963Z" fill="#231F20"/>
<path d="M24.0996 13.3141C22.6425 13.3141 21.4688 12.0523 21.4688 10.5295C21.4688 9.00666 22.6425 7.74487 24.0996 7.74487C25.5566 7.74487 26.7304 9.00666 26.7304 10.5295C26.7304 11.2692 26.4876 11.9653 25.9614 12.4874C25.7185 12.7485 25.2733 12.7485 24.99 12.4874C24.7472 12.2264 24.7472 11.7478 24.99 11.4432C25.1924 11.2257 25.3543 10.8776 25.3543 10.5295C25.3543 9.78983 24.7876 9.22421 24.14 9.22421C23.4925 9.22421 22.9258 9.83334 22.9258 10.5295C22.9258 11.2257 23.4925 11.8348 24.14 11.8348C24.5448 11.8348 24.8281 12.1829 24.8281 12.5745C24.7876 13.0096 24.4638 13.3141 24.0996 13.3141ZM24.0996 8.22348C22.9258 8.22348 21.914 9.26772 21.914 10.573C21.914 11.8783 22.8853 12.9225 24.0996 12.9225C24.221 12.9225 24.3424 12.792 24.3424 12.6615C24.3424 12.5309 24.221 12.4004 24.0996 12.4004C23.1687 12.4004 22.4401 11.6172 22.4401 10.6165C22.4401 9.61579 23.1687 8.83262 24.0996 8.83262C25.0305 8.83262 25.759 9.61579 25.759 10.6165C25.759 11.0951 25.5971 11.5302 25.2733 11.8783C25.1924 11.9653 25.1924 12.1394 25.2733 12.2699C25.3543 12.4004 25.5162 12.3569 25.6376 12.2699C26.0423 11.8348 26.2852 11.2257 26.2852 10.6165C26.2447 9.26772 25.2733 8.22348 24.0996 8.22348Z" fill="#221F20"/>
<path d="M30.0886 13.0963C30.3315 13.0963 30.5743 12.8788 30.5743 12.5742C30.5743 12.3131 30.3719 12.0521 30.0886 12.0521C29.3196 12.0521 28.6315 11.3559 28.6315 10.5292C28.6315 9.70255 29.2791 9.00639 30.0886 9.00639C30.8981 9.00639 31.5457 9.70255 31.5457 10.5292C31.5457 10.9643 31.3838 11.3124 31.1005 11.6605C30.9386 11.8345 30.9386 12.1826 31.1005 12.3566C31.2624 12.5307 31.5862 12.5307 31.7481 12.3566C32.1933 11.878 32.4361 11.2254 32.4361 10.5292C32.4361 9.13692 31.3433 7.96216 30.0481 7.96216C28.753 7.96216 27.6602 9.13692 27.6602 10.5292C27.6602 11.9216 28.7934 13.0963 30.0886 13.0963Z" fill="#231F20"/>
<path d="M30.0879 13.3141C28.6308 13.3141 27.457 12.0523 27.457 10.5295C27.457 9.00666 28.6308 7.74487 30.0879 7.74487C31.5449 7.74487 32.7187 9.00666 32.7187 10.5295C32.7187 11.2692 32.4758 11.9653 31.9497 12.4874C31.7068 12.7485 31.2616 12.7485 30.9783 12.4874C30.7354 12.2264 30.7354 11.7478 30.9783 11.4432C31.1807 11.2257 31.3426 10.8776 31.3426 10.5295C31.3426 9.78983 30.7759 9.22421 30.1283 9.22421C29.4807 9.22421 28.9141 9.83334 28.9141 10.5295C28.9141 11.2257 29.4807 11.8348 30.1283 11.8348C30.5331 11.8348 30.8164 12.1829 30.8164 12.5745C30.8164 13.0096 30.4926 13.3141 30.0879 13.3141ZM30.0879 8.22348C28.9141 8.22348 27.9022 9.26772 27.9022 10.573C27.9022 11.8783 28.8736 12.9225 30.0879 12.9225C30.2093 12.9225 30.3307 12.792 30.3307 12.6615C30.3307 12.5309 30.2093 12.4004 30.0879 12.4004C29.1569 12.4004 28.4284 11.6172 28.4284 10.6165C28.4284 9.61579 29.1569 8.83262 30.0879 8.83262C31.0188 8.83262 31.7473 9.61579 31.7473 10.6165C31.7473 11.0951 31.5854 11.5302 31.2616 11.8783C31.1807 11.9653 31.1807 12.1394 31.2616 12.2699C31.3426 12.3569 31.5045 12.3569 31.6259 12.2699C32.0306 11.8348 32.2735 11.2257 32.2735 10.6165C32.2735 9.26772 31.3021 8.22348 30.0879 8.22348Z" fill="#221F20"/>
<path d="M34.095 12.4438C32.7998 12.4438 31.707 13.6186 31.707 15.0109C31.707 16.4032 32.7998 17.578 34.095 17.578C34.3379 17.578 34.5807 17.3605 34.5807 17.0559C34.5807 16.7948 34.3783 16.5338 34.095 16.5338C33.326 16.5338 32.6379 15.8376 32.6379 15.0109C32.6379 14.1842 33.2855 13.4881 34.095 13.4881C34.9045 13.4881 35.5521 14.1842 35.5521 15.0109C35.5521 15.446 35.3902 15.7941 35.1069 16.1422C34.945 16.3162 34.945 16.6643 35.1069 16.8383C35.2688 17.0124 35.5926 17.0124 35.7545 16.8383C36.1997 16.3597 36.4425 15.7071 36.4425 15.0109C36.4425 13.5751 35.3902 12.4438 34.095 12.4438Z" fill="#231F20"/>
<path d="M34.0957 17.839C32.6386 17.839 31.4648 16.5772 31.4648 15.0544C31.4648 13.5316 32.6386 12.2698 34.0957 12.2698C35.5527 12.2698 36.7265 13.5316 36.7265 15.0544C36.7265 15.7941 36.4836 16.4902 35.9575 17.0123C35.7146 17.2734 35.2694 17.2734 34.9861 17.0123C34.8647 16.8818 34.7837 16.6643 34.7837 16.4902C34.7837 16.3162 34.8647 16.0986 34.9861 15.9681C35.1885 15.7506 35.3504 15.4025 35.3504 15.0544C35.3504 14.3147 34.7837 13.7491 34.1361 13.7491C33.4886 13.7491 32.9219 14.3582 32.9219 15.0544C32.9219 15.7506 33.4886 16.3597 34.1361 16.3597C34.5409 16.3597 34.8242 16.7078 34.8242 17.0994C34.7837 17.491 34.4195 17.839 34.0957 17.839ZM34.0957 12.6614C32.9219 12.6614 31.9101 13.7056 31.9101 15.0109C31.9101 16.3162 32.8814 17.3604 34.0957 17.3604C34.2171 17.3604 34.3385 17.2299 34.3385 17.0994C34.3385 16.9688 34.2171 16.8383 34.0957 16.8383C33.1648 16.8383 32.4362 16.0551 32.4362 15.0544C32.4362 14.0537 33.1648 13.2705 34.0957 13.2705C35.0266 13.2705 35.7551 14.0537 35.7551 15.0544C35.7551 15.533 35.5932 15.9681 35.2694 16.3162C35.2289 16.3597 35.1885 16.4467 35.1885 16.4902C35.1885 16.5772 35.2289 16.6208 35.2694 16.6643C35.3504 16.7513 35.5123 16.7513 35.6337 16.6643C36.0384 16.2292 36.2813 15.62 36.2813 15.0109C36.2408 13.7056 35.2694 12.6614 34.0957 12.6614Z" fill="#221F20"/>
</g>
<defs>
<clipPath id="clip0">
<rect width="55.814" height="42.9877" fill="white" transform="translate(0.90625)"/>
</clipPath>
</defs>
</svg>
