<svg width="60" height="51" viewBox="0 0 60 51" fill="none" xmlns="http://www.w3.org/2000/svg">
<path d="M59.9856 25.6229C59.9296 25.1738 59.6496 24.7809 59.2016 24.6125C49.2896 19.7289 34.3935 1.76613 34.2255 1.59773C33.9455 1.26093 33.5535 1.09253 33.1615 1.09253C32.7135 1.09253 32.3775 1.26093 32.0975 1.59773C21.6255 13.891 7.23351 24.6125 7.12151 24.7248C6.78551 24.9493 6.61751 25.3422 6.56151 25.7352C6.50551 26.1281 6.67351 26.521 6.95351 26.8017L10.4255 30.4504C10.8735 30.8995 11.6015 31.0117 12.1615 30.6749C13.0015 30.1697 13.7855 29.6645 14.5695 29.1593V49.3674C14.5695 50.1533 15.1855 50.7707 15.9695 50.7707H25.2095C25.9935 50.7707 26.6095 50.1533 26.6095 49.3674V31.4608H38.9296V49.4235C38.9296 50.2094 39.5456 50.8269 40.3296 50.8269H50.1856C50.9696 50.8269 51.5856 50.2094 51.5856 49.4235V29.6084C52.8176 30.5627 53.6576 31.124 53.8256 31.1801C54.0496 31.3485 54.3296 31.4047 54.6096 31.4047C55.0016 31.4047 55.3376 31.2363 55.6176 30.9556L59.5936 26.7456C59.9296 26.521 60.0416 26.072 59.9856 25.6229Z" fill="#C9D4EA"/>
<path d="M47.2748 30.1437C47.4988 30.3121 47.7788 30.3683 48.0588 30.3683C48.4508 30.3683 48.7868 30.1999 49.0668 29.9192L53.0428 25.7092C53.3228 25.3724 53.4908 24.9233 53.3788 24.4742C53.2668 24.0252 53.0428 23.6322 52.5948 23.4638C42.6828 18.5802 27.7868 0.617469 27.6188 0.449069C27.4508 0.168401 27.0588 0 26.6668 0C26.2748 0 25.8828 0.168401 25.6028 0.505202C15.0747 12.7985 0.738731 23.5761 0.57073 23.6884C0.23473 23.9129 0.0667298 24.3058 0.0107297 24.6988C-0.0452704 25.0917 0.12273 25.4846 0.40273 25.7653L3.87473 29.414C4.32273 29.8631 5.05074 29.9753 5.61074 29.6385C6.45074 29.1333 7.23474 28.6281 8.01874 28.1229V46.9277H3.53873C2.75473 46.9277 2.13873 47.5451 2.13873 48.331C2.13873 49.1169 2.75473 49.7343 3.53873 49.7343H18.6588C19.4428 49.7343 20.0588 49.1169 20.0588 48.331V30.3683H32.3788V48.331C32.3788 49.1169 32.9948 49.7343 33.7788 49.7343H49.7388C50.5228 49.7343 51.1388 49.1169 51.1388 48.331C51.1388 47.5451 50.5228 46.9277 49.7388 46.9277H45.0348V28.572C46.3228 29.4701 47.1628 30.0876 47.2748 30.1437ZM5.10674 26.6634L3.48273 24.9233C7.12274 22.1166 17.9308 13.4721 26.6108 3.53641C30.0268 7.57803 41.0028 19.9835 49.7948 25.1478L47.8908 27.1686C44.4748 24.6988 32.9388 16.0542 27.7868 8.64457C27.5068 8.25163 27.1148 8.08323 26.6668 8.0271C26.6668 8.0271 26.6668 8.0271 26.6108 8.0271C26.1628 8.0271 25.7708 8.25163 25.4908 8.58844C25.4348 8.64457 17.1467 19.3661 5.10674 26.6634ZM42.2908 46.9838H35.1788V29.0211C35.1788 28.2352 34.5628 27.6177 33.7788 27.6177H18.6588C17.8748 27.6177 17.2587 28.2352 17.2587 29.0211V46.9838H10.8187V26.2705C18.6028 20.7133 24.2588 14.4825 26.6108 11.6758C30.8668 17.1769 37.6428 22.8464 42.2908 26.4389V46.9838Z" fill="#231F20"/>
</svg>
