<svg width="62" height="61" viewBox="0 0 62 61" fill="none" xmlns="http://www.w3.org/2000/svg">
<g clip-path="url(#clip0)">
<path d="M45.6803 21.0564C41.6763 21.0564 38.093 22.8227 35.6469 25.5807C33.2009 22.8072 29.6176 21.0564 25.6136 21.0564C18.2287 21.0564 12.2461 27.0061 12.2461 34.3503C12.2305 48.4963 35.6469 61 35.6469 61C35.6469 61 59.0478 48.4963 59.0478 34.3658C59.0478 27.0216 53.0651 21.0564 45.6803 21.0564Z" fill="#C9D4EA"/>
<path d="M40.1186 11.2951C39.3707 11.2951 38.7008 10.7528 38.5606 9.99357C38.4048 9.1414 38.9812 8.32022 39.8381 8.16528C46.7088 6.92575 53.1121 4.27627 58.8766 0.294307C59.5933 -0.201502 60.5904 -0.0310674 61.089 0.697152C61.5875 1.40988 61.4161 2.4015 60.6839 2.8973C54.561 7.12717 47.7371 9.94709 40.4146 11.2641C40.3211 11.2796 40.212 11.2951 40.1186 11.2951Z" fill="#231F20"/>
<path d="M22.1566 11.2947C22.0631 11.2947 21.9696 11.2792 21.8761 11.2637C14.5536 9.94671 7.72969 7.1268 1.59126 2.88143C0.874591 2.38563 0.687633 1.39401 1.18619 0.681283C1.68474 -0.0469365 2.68184 -0.217371 3.39851 0.278438C9.16303 4.2604 15.5663 6.90988 22.437 8.1494C23.2939 8.30435 23.8703 9.12553 23.7145 9.9777C23.5743 10.7524 22.9044 11.2947 22.1566 11.2947Z" fill="#231F20"/>
<path d="M43.5173 33.5912H18.7766C17.9042 33.5912 17.1875 32.8785 17.1875 32.0108C17.1875 31.1431 17.9042 30.4304 18.7766 30.4304H43.5173C44.3898 30.4304 45.1065 31.1431 45.1065 32.0108C45.1065 32.8785 44.3898 33.5912 43.5173 33.5912Z" fill="#231F20"/>
<path d="M39.2802 41.0438H23.0149C22.1425 41.0438 21.4258 40.3311 21.4258 39.4635C21.4258 38.5958 22.1425 37.8831 23.0149 37.8831H39.2802C40.1527 37.8831 40.8693 38.5958 40.8693 39.4635C40.8693 40.3466 40.1527 41.0438 39.2802 41.0438Z" fill="#231F20"/>
<path d="M41.1795 14.9984C39.2788 14.9984 37.4404 15.3547 35.711 16.0365V10.5361C35.711 8.02606 33.6545 5.99634 31.1462 5.99634C28.6222 5.99634 26.5813 8.04155 26.5813 10.5361V15.2773C26.5813 16.1449 27.298 16.8577 28.1704 16.8577C29.0429 16.8577 29.7596 16.1449 29.7596 15.2773V10.5361C29.7596 9.77688 30.3828 9.15712 31.1462 9.15712C31.9096 9.15712 32.5328 9.77688 32.5328 10.5361V17.0591C32.5328 17.8183 31.9096 18.438 31.1462 18.438C30.2737 18.438 29.557 19.1508 29.557 20.0184C29.557 20.8861 30.2737 21.5988 31.1462 21.5988C32.1589 21.5988 33.0936 21.258 33.857 20.7002C33.9038 20.6692 33.9505 20.6537 33.9973 20.6227C36.0694 19.0113 38.5621 18.1746 41.1951 18.1746C47.6919 18.1746 52.9734 23.4271 52.9734 29.8881C52.9734 41.5396 35.0723 52.4629 31.1462 54.7096C27.2201 52.4629 9.3189 41.5396 9.3189 29.8881C9.3189 23.4271 14.6004 18.1746 21.1128 18.1746C21.4244 18.1746 21.736 18.1901 22.032 18.2056C22.9045 18.2676 23.6679 17.6169 23.7458 16.7492C23.8081 15.8815 23.1537 15.1223 22.2813 15.0449C21.8918 15.0139 21.5023 14.9984 21.1128 14.9984C12.8555 14.9984 6.14062 21.6763 6.14062 29.8726C6.14062 44.7779 29.4012 57.3745 30.3828 57.9013C30.6165 58.0253 30.8813 58.0873 31.1306 58.0873C31.3954 58.0873 31.6447 58.0253 31.8784 57.9013C32.8755 57.3745 56.1206 44.7779 56.1206 29.8726C56.1361 21.6763 49.4212 14.9984 41.1795 14.9984Z" fill="#231F20"/>
</g>
<defs>
<clipPath id="clip0">
<rect width="60.4651" height="61" fill="white" transform="translate(0.90625)"/>
</clipPath>
</defs>
</svg>
