<svg width="60" height="34" viewBox="0 0 60 34" fill="none" xmlns="http://www.w3.org/2000/svg">
<path d="M32.3096 4.62744C17.0193 4.62744 4.62109 8.12776 4.62109 12.4349V24.3597C4.62109 28.6669 17.0193 32.1672 32.3096 32.1672C47.6 32.1672 59.9982 28.6788 59.9982 24.3597V12.4349C59.9982 8.11589 47.6 4.62744 32.3096 4.62744ZM14.4472 18.3914C19.2714 17.2405 25.506 16.5523 32.3096 16.5523C39.1251 16.5523 45.3598 17.2523 50.1721 18.3914C45.3479 19.5424 39.1132 20.2424 32.3096 20.2424C25.506 20.2306 19.2714 19.5424 14.4472 18.3914Z" fill="#C9D4EA"/>
<path d="M56.5742 7.78376C55.9105 7.78376 55.3652 8.32957 55.3652 8.99404C55.3652 11.2485 48.6565 14.2149 37.2657 15.2353C36.7679 13.2182 34.9426 11.7112 32.7735 11.7112H25.0572C22.8881 11.7112 21.0627 13.2182 20.5649 15.2472C9.15049 14.2386 2.41801 11.2603 2.41801 9.00591C2.41801 6.25311 12.493 2.40869 28.8975 2.40869C38.2732 2.40869 47.1156 3.78509 51.9753 6.0158C52.5798 6.28871 53.3028 6.02767 53.5754 5.42253C53.8599 4.81739 53.5873 4.09359 52.9828 3.82069C47.7438 1.42386 38.7474 0 28.8975 0C14.5317 0 0 3.09689 0 9.01777C0 13.764 9.32829 16.6829 20.4227 17.6677V21.4291C20.316 21.4172 20.1975 21.4172 20.0908 21.4053C19.427 21.3341 18.8344 21.8325 18.7751 22.497C18.7158 23.1614 19.2018 23.7547 19.8656 23.814C20.0552 23.8378 20.2449 23.8496 20.4345 23.8615V27.172C9.10308 26.1515 2.42986 23.1852 2.42986 20.9426V15.6506C2.42986 14.9861 1.88462 14.4403 1.22085 14.4403C0.557088 14.4403 0.0118537 14.9861 0.0118537 15.6506V20.9426C0.0118537 25.6888 9.35199 28.6196 20.4582 29.5925C20.6597 31.9656 22.651 33.8522 25.069 33.8522H32.7853C35.2152 33.8522 37.2065 31.9775 37.3961 29.5925C48.4787 28.6077 57.7951 25.6888 57.7951 20.9426V8.99404C57.7832 8.32957 57.2498 7.78376 56.5742 7.78376ZM25.0572 14.1318H32.7735C33.6624 14.1318 34.4329 14.6657 34.7766 15.4251C32.9157 15.5319 30.9481 15.6031 28.8857 15.6031C26.8351 15.6031 24.8794 15.5438 23.0422 15.437C23.3978 14.6657 24.1564 14.1318 25.0572 14.1318ZM32.7735 31.4079H25.0572C24.026 31.4079 23.1726 30.7079 22.9236 29.7586C24.8912 29.8773 26.8944 29.9366 28.8975 29.9366C30.9125 29.9366 32.9276 29.8773 34.9188 29.7586C34.6581 30.696 33.7928 31.4079 32.7735 31.4079ZM55.3652 20.9188C55.3652 23.2326 48.2416 26.3176 36.2227 27.2432C36.2108 27.2432 36.2108 27.2432 36.199 27.2432C36.1397 27.2432 36.0804 27.255 36.0212 27.255C33.8047 27.4211 31.4222 27.5161 28.8857 27.5161C26.7522 27.5161 24.7371 27.4449 22.8288 27.3262V24.0157C24.3697 24.1107 25.9343 24.17 27.5226 24.1937C27.5463 24.2293 27.57 24.2531 27.5937 24.2887C27.9375 24.6328 28.3997 24.8226 28.8738 24.8226C29.348 24.8226 29.8221 24.6328 30.154 24.2887C30.4977 23.9446 30.6873 23.4818 30.6873 23.0072C30.6873 22.5207 30.4977 22.0579 30.154 21.7138C29.4783 21.0494 28.2693 21.0494 27.5937 21.7138C27.57 21.7376 27.5582 21.7613 27.5463 21.7732C25.9462 21.7494 24.3697 21.6901 22.8288 21.5952V17.8338C24.8201 17.9525 26.8588 18.0237 28.8857 18.0237C31.3393 18.0237 33.8047 17.9287 36.199 17.7508C44.3538 17.1338 51.7145 15.4963 55.3652 12.8622V20.9188Z" fill="#231F20"/>
<path d="M15.1846 23.8261C14.7105 23.8261 14.2364 23.6362 13.9045 23.2921C13.5607 22.948 13.3711 22.4853 13.3711 22.0106C13.3711 21.536 13.5607 21.0614 13.9045 20.7292C14.5801 20.0528 15.7891 20.0528 16.4647 20.7292C16.7966 21.0733 16.9981 21.536 16.9981 22.0106C16.9981 22.4853 16.8085 22.9599 16.4647 23.2921C16.121 23.6362 15.6587 23.8261 15.1846 23.8261Z" fill="#231F20"/>
<path d="M35.7471 24.6085C35.2611 24.6085 34.7989 24.4187 34.4551 24.0746C34.1232 23.7423 33.9336 23.2677 33.9336 22.7931C33.9336 22.3185 34.1232 21.8439 34.4551 21.5116C35.1307 20.8353 36.3516 20.8353 37.0272 21.5116C37.371 21.8557 37.5606 22.3185 37.5606 22.7931C37.5606 23.2677 37.371 23.7423 37.0272 24.0746C36.6953 24.4187 36.2212 24.6085 35.7471 24.6085Z" fill="#231F20"/>
<path d="M42.5987 23.8261C42.1245 23.8261 41.6504 23.6362 41.3185 23.2921C40.9748 22.948 40.7852 22.4853 40.7852 22.0106C40.7852 21.536 40.9748 21.0614 41.3185 20.7292C41.9942 20.0528 43.2032 20.0528 43.8788 20.7292C44.2225 21.0733 44.4122 21.536 44.4122 22.0106C44.4122 22.4853 44.2225 22.9599 43.8788 23.2921C43.5469 23.6362 43.0728 23.8261 42.5987 23.8261Z" fill="#231F20"/>
</svg>
