<svg width="60" height="51" viewBox="0 0 60 51" fill="none" xmlns="http://www.w3.org/2000/svg">
<path d="M56.5105 14.1184C58.4425 14.1184 60.0001 15.6777 60.0001 17.6117V46.9361C60.0001 48.8701 58.4425 50.4294 56.5105 50.4294H8.11462C6.18265 50.4294 4.625 48.8701 4.625 46.9361V17.6117C4.625 15.6777 6.18265 14.1184 8.11462 14.1184H56.5105Z" fill="#C9D4EA"/>
<path d="M29.1822 29.1432H24.0625V35.3925H29.1822V40.5176H35.4249V35.3925H40.5446V29.1432H35.4249V24.0181H29.1822V29.1432Z" fill="white"/>
<path d="M53.1171 48.1689H4.72125C2.11309 48.1689 0 46.0415 0 43.4427V14.1183C0 11.5074 2.11309 9.39204 4.72125 9.39204H35.995V2.46586H21.8433V5.95917C21.8433 6.63607 21.2879 7.1921 20.6117 7.1921C19.9355 7.1921 19.3801 6.63607 19.3801 5.95917V1.23293C19.3801 0.556028 19.9235 0 20.6117 0H37.2387C37.9149 0 38.4704 0.556028 38.4704 1.23293V10.6129C38.4704 11.2898 37.9149 11.8458 37.2387 11.8458H4.72125C3.47755 11.8458 2.46326 12.8612 2.46326 14.1062V43.4306C2.46326 44.6756 3.47755 45.691 4.72125 45.691H53.1171C54.3608 45.691 55.3751 44.6756 55.3751 43.4306V14.1183C55.3751 12.8733 54.3608 11.8579 53.1171 11.8579H41.8875C41.2114 11.8579 40.6559 11.3019 40.6559 10.625C40.6559 9.94806 41.2114 9.39204 41.8875 9.39204H53.1171C55.7253 9.39204 57.8384 11.5074 57.8384 14.1183V43.4427C57.8384 46.0415 55.7253 48.1689 53.1171 48.1689Z" fill="#231F20"/>
<path d="M32.0472 38.2574H25.8045C25.1283 38.2574 24.5728 37.7013 24.5728 37.0244V33.1323H20.6848C20.0086 33.1323 19.4531 32.5762 19.4531 31.8993V25.65C19.4531 24.9731 20.0086 24.4171 20.6848 24.4171H25.8045C26.4807 24.4171 27.0361 24.9731 27.0361 25.65C27.0361 26.327 26.4807 26.883 25.8045 26.883H21.9164V30.6664H25.8045C26.4807 30.6664 27.0361 31.2224 27.0361 31.8993V35.7915H30.8155V31.8993C30.8155 31.2224 31.371 30.6664 32.0472 30.6664H35.9352V26.883H32.0472C31.371 26.883 30.8155 26.327 30.8155 25.65V21.7579H25.8045C25.1283 21.7579 24.5728 21.2018 24.5728 20.5249C24.5728 19.848 25.1283 19.292 25.8045 19.292H32.0472C32.7233 19.292 33.2788 19.848 33.2788 20.5249V24.4171H37.1669C37.8431 24.4171 38.3985 24.9731 38.3985 25.65V31.8993C38.3985 32.5762 37.8431 33.1323 37.1669 33.1323H33.2788V37.0244C33.2788 37.7013 32.7233 38.2574 32.0472 38.2574Z" fill="#231F20"/>
</svg>
