<svg width="152" height="143" viewBox="0 0 152 143" fill="none" xmlns="http://www.w3.org/2000/svg">
<path d="M131.08 126.953H116.591C122.151 126.953 126.868 122.392 126.868 116.649V55.6712C126.868 50.0971 122.319 45.3675 116.591 45.3675H110.525V38.4421H53.5778C52.23 38.4421 51.0506 37.2597 51.0506 35.9084C51.0506 34.5571 52.23 33.3747 53.5778 33.3747H110.525V25.4358H53.5778C52.23 25.4358 51.0506 24.2534 51.0506 22.9021C51.0506 21.5508 52.23 20.3684 53.5778 20.3684H110.525V20.0306C110.525 15.301 106.65 11.416 101.933 11.416H41.447C36.7295 11.416 32.8543 15.301 32.8543 20.0306V45.5364H19.2071C13.6472 45.5364 8.92964 50.0971 8.92964 55.8401V116.818C8.92964 122.392 13.4787 127.121 19.2071 127.121H4.71754C2.0218 127.121 0 129.317 0 131.851V132.696C0 138.439 4.54906 142.999 10.2775 142.999H126.194C131.586 142.999 135.798 138.608 135.798 133.371V131.851C135.798 129.148 133.776 126.953 131.08 126.953Z" fill="#CBD4E8"/>
<path d="M120.946 35.7685H129.876C135.436 35.7685 140.153 40.3292 140.153 46.0722V107.05C140.153 112.624 135.604 117.354 129.876 117.354H32.8293C27.2693 117.354 22.5518 112.793 22.5518 107.05V45.9033C22.5518 40.3292 27.1008 35.5996 32.8293 35.5996H41.5904" stroke="#221F20" stroke-width="5" stroke-miterlimit="10" stroke-linecap="round" stroke-linejoin="round"/>
<path d="M119.768 43.708C125.328 43.708 130.045 48.2687 130.045 54.0117V61.106" stroke="#221F20" stroke-width="5" stroke-miterlimit="10" stroke-linecap="round" stroke-linejoin="round"/>
<path d="M130.045 73.0988V99.7871C130.045 105.361 125.496 110.091 119.767 110.091H41.9279C36.3679 110.091 31.6504 105.53 31.6504 99.7871V53.8428C31.6504 48.2686 36.1995 43.5391 41.9279 43.5391" stroke="#221F20" stroke-width="5" stroke-miterlimit="10" stroke-linecap="round" stroke-linejoin="round"/>
<path d="M139.648 133.062H23.7316C18.0032 133.062 13.4541 128.502 13.4541 122.759V121.914C13.4541 119.212 15.6444 117.185 18.1716 117.185H62.1459L67.5374 122.252H96.5166L101.74 117.185H144.534C147.23 117.185 149.252 119.38 149.252 121.914V123.434C149.252 128.84 145.04 133.062 139.648 133.062Z" stroke="#221F20" stroke-width="5" stroke-miterlimit="10" stroke-linecap="round" stroke-linejoin="round"/>
<path d="M119.936 87.4565V90.6659C119.936 95.3954 116.061 99.2804 111.343 99.2804H51.0258C46.3082 99.2804 42.4331 95.3954 42.4331 90.6659V11.6146C42.4331 6.885 46.3082 3 51.0258 3H111.511C116.229 3 120.104 6.885 120.104 11.6146V77.4906" stroke="#232021" stroke-width="5" stroke-miterlimit="10" stroke-linecap="round" stroke-linejoin="round"/>
<path d="M52.5425 17.3574H109.995" stroke="#232021" stroke-width="5" stroke-miterlimit="10" stroke-linecap="round" stroke-linejoin="round"/>
<path d="M52.5425 30.3633H109.995" stroke="#232021" stroke-width="5" stroke-miterlimit="10" stroke-linecap="round" stroke-linejoin="round"/>
<path d="M52.5425 43.3711H109.995" stroke="#232021" stroke-width="5" stroke-miterlimit="10" stroke-linecap="round" stroke-linejoin="round"/>
<path d="M76.1304 56.5449H109.996" stroke="#232021" stroke-width="5" stroke-miterlimit="10" stroke-linecap="round" stroke-linejoin="round"/>
<path d="M52.5425 56.5449H64.6733" stroke="#232021" stroke-width="5" stroke-miterlimit="10" stroke-linecap="round" stroke-linejoin="round"/>
<path d="M52.5425 69.5527H109.995" stroke="#232021" stroke-width="5" stroke-miterlimit="10" stroke-linecap="round" stroke-linejoin="round"/>
<path d="M52.5425 82.5576H101.908" stroke="#232021" stroke-width="5" stroke-miterlimit="10" stroke-linecap="round" stroke-linejoin="round"/>
<path d="M92.978 120.226H71.4121" stroke="#CAD4EA" stroke-width="2" stroke-miterlimit="10" stroke-linecap="round" stroke-linejoin="round"/>
</svg>
