<svg width="37" height="36" viewBox="0 0 37 36" fill="none" xmlns="http://www.w3.org/2000/svg">
<path fill-rule="evenodd" clip-rule="evenodd" d="M20.7243 31.091V19.1491H24.8093L25.4222 14.4938H20.7243V11.522C20.7243 10.1746 21.1042 9.25636 23.0763 9.25636L25.5875 9.25535V5.09144C25.1532 5.03609 23.6625 4.90918 21.9275 4.90918C18.3044 4.90918 15.824 7.0783 15.824 11.061V14.4938H11.7266V19.1491H15.824V31.091H20.7243Z" fill="#FEFEFE"/>
<mask id="mask0" mask-type="alpha" maskUnits="userSpaceOnUse" x="11" y="4" width="15" height="28">
<path fill-rule="evenodd" clip-rule="evenodd" d="M20.7243 31.091V19.1491H24.8093L25.4222 14.4938H20.7243V11.522C20.7243 10.1746 21.1042 9.25636 23.0763 9.25636L25.5875 9.25535V5.09144C25.1532 5.03609 23.6625 4.90918 21.9275 4.90918C18.3044 4.90918 15.824 7.0783 15.824 11.061V14.4938H11.7266V19.1491H15.824V31.091H20.7243Z" fill="white"/>
</mask>
<g mask="url(#mask0)">
</g>
</svg>
