<svg width="37" height="36" viewBox="0 0 37 36" fill="none" xmlns="http://www.w3.org/2000/svg">
<path fill-rule="evenodd" clip-rule="evenodd" d="M12.219 3.27246H25.4168C29.899 3.27246 33.5455 6.91895 33.5454 11.4008V24.5986C33.5454 29.0805 29.899 32.727 25.4168 32.727H12.219C7.73714 32.727 4.09082 29.0807 4.09082 24.5986V11.4008C4.09082 6.91895 7.73714 3.27246 12.219 3.27246ZM25.4171 30.1137C28.4581 30.1137 30.9323 27.6398 30.9323 24.5987H30.9321V11.4009C30.9321 8.36003 28.4579 5.88589 25.4169 5.88589H12.2191C9.17822 5.88589 6.70425 8.36003 6.70425 11.4009V24.5987C6.70425 27.6398 9.17822 30.1139 12.2191 30.1137H25.4171ZM11.1038 17.9999C11.1038 13.746 14.5643 10.2854 18.818 10.2854C23.0718 10.2854 26.5323 13.746 26.5323 17.9999C26.5323 22.2535 23.0718 25.714 18.818 25.714C14.5643 25.714 11.1038 22.2535 11.1038 17.9999ZM13.76 17.9996C13.76 20.7885 16.0292 23.0574 18.8181 23.0574C21.607 23.0574 23.8761 20.7885 23.8761 17.9996C23.8761 15.2105 21.6071 12.9414 18.8181 12.9414C16.029 12.9414 13.76 15.2105 13.76 17.9996Z" fill="#FEFEFE"/>
<mask id="mask0" mask-type="alpha" maskUnits="userSpaceOnUse" x="4" y="3" width="30" height="30">
<path fill-rule="evenodd" clip-rule="evenodd" d="M12.219 3.27246H25.4168C29.899 3.27246 33.5455 6.91895 33.5454 11.4008V24.5986C33.5454 29.0805 29.899 32.727 25.4168 32.727H12.219C7.73714 32.727 4.09082 29.0807 4.09082 24.5986V11.4008C4.09082 6.91895 7.73714 3.27246 12.219 3.27246ZM25.4171 30.1137C28.4581 30.1137 30.9323 27.6398 30.9323 24.5987H30.9321V11.4009C30.9321 8.36003 28.4579 5.88589 25.4169 5.88589H12.2191C9.17822 5.88589 6.70425 8.36003 6.70425 11.4009V24.5987C6.70425 27.6398 9.17822 30.1139 12.2191 30.1137H25.4171ZM11.1038 17.9999C11.1038 13.746 14.5643 10.2854 18.818 10.2854C23.0718 10.2854 26.5323 13.746 26.5323 17.9999C26.5323 22.2535 23.0718 25.714 18.818 25.714C14.5643 25.714 11.1038 22.2535 11.1038 17.9999ZM13.76 17.9996C13.76 20.7885 16.0292 23.0574 18.8181 23.0574C21.607 23.0574 23.8761 20.7885 23.8761 17.9996C23.8761 15.2105 21.6071 12.9414 18.8181 12.9414C16.029 12.9414 13.76 15.2105 13.76 17.9996Z" fill="white"/>
</mask>
<g mask="url(#mask0)">
</g>
</svg>
