<svg width="135" height="143" viewBox="0 0 135 143" fill="none" xmlns="http://www.w3.org/2000/svg">
<path d="M86.5336 52C86.1832 52 86.0081 52 85.6577 52V62.325C85.8329 62.325 86.0081 62.325 86.1832 62.325C89.8618 62.325 91.7887 60.575 91.7887 56.9C91.7887 55.325 91.4383 54.1 90.5625 53.4C89.6866 52.35 88.2853 52 86.5336 52Z" fill="#CAD4EA"/>
<path d="M71.8193 56.725H72.1697L71.9945 56.375L71.8193 56.725Z" fill="#CAD4EA"/>
<path d="M119.29 31H56.7545C50.4483 31 45.7188 35.025 45.7188 40.275V75.9751C45.7188 81.2251 50.6235 85.2501 56.7545 85.2501H59.382L59.5572 97.3252C59.5572 99.0752 60.6082 100.65 62.1847 101.35C62.7103 101.525 63.2358 101.7 63.9364 101.7C64.9875 101.7 66.0385 101.35 66.9143 100.475L82.6797 85.4251H119.29C125.596 85.4251 130.326 81.4001 130.326 76.1501V40.275C130.501 35.025 125.596 31 119.29 31Z" fill="#CAD4EA"/>
<path d="M79.0017 124.274H0.175171C0.175171 124.274 0.17517 124.274 0 124.274V131.274C0 137.749 3.85374 142.999 8.75851 142.999H70.5936C75.3232 142.999 79.3521 137.749 79.3521 131.274L79.0017 124.274C79.1769 124.274 79.1769 124.274 79.0017 124.274ZM39.5884 135.824C37.1361 135.824 35.034 133.724 35.034 131.274C35.034 128.824 37.1361 126.724 39.5884 126.724C42.0408 126.724 44.1429 128.824 44.1429 131.274C44.1429 133.899 42.216 135.824 39.5884 135.824Z" fill="#CAD4EA"/>
<path d="M0.175171 115.175H79.1769C79.1769 115.175 79.1769 115.175 79.3521 115.175V22.9496C79.3521 16.4746 75.4983 11.2246 70.5936 11.2246H8.75851C4.02891 11.2246 0 16.4746 0 22.9496V27.3246V40.9747L0.175171 115.175C6.65611e-07 115.175 0.175171 115.175 0.175171 115.175ZM34.6837 26.2746H44.4932C46.9456 26.2746 49.0476 28.3747 49.0476 30.8247C49.0476 33.2747 46.9456 35.3747 44.4932 35.3747H34.6837C32.2313 35.3747 30.1293 33.2747 30.1293 30.8247C30.1293 28.3747 32.2313 26.2746 34.6837 26.2746Z" fill="#CAD4EA"/>
<path d="M48.522 21.7256H57.9812" stroke="#221E20" stroke-width="5" stroke-miterlimit="10" stroke-linecap="round" stroke-linejoin="round"/>
<path d="M15.7656 106.075H90.7384" stroke="#221E20" stroke-width="5" stroke-miterlimit="10" stroke-linecap="round" stroke-linejoin="round"/>
<path d="M53.2518 121.476C55.6704 121.476 57.6311 119.517 57.6311 117.101C57.6311 114.684 55.6704 112.726 53.2518 112.726C50.8332 112.726 48.8726 114.684 48.8726 117.101C48.8726 119.517 50.8332 121.476 53.2518 121.476Z" fill="#221E20"/>
<path d="M90.9136 77.0247V117.1C90.9136 123.225 87.235 128.3 82.6806 128.3H23.9986C19.4442 128.3 15.7656 123.4 15.7656 117.1V31.3496" stroke="#221E20" stroke-width="5" stroke-miterlimit="10" stroke-linecap="round" stroke-linejoin="round"/>
<path d="M15.5903 18.4V14.2C15.5903 8.07501 19.2689 3 23.8233 3H82.5053C87.0597 3 90.7383 7.90001 90.7383 14.2V28.2001" stroke="#221E20" stroke-width="5" stroke-miterlimit="10" stroke-linecap="round" stroke-linejoin="round"/>
<path d="M122.969 29.7754H125.422C129.1 29.7754 132.253 32.0504 132.253 34.8504V70.5505C132.253 73.3505 129.275 75.6255 125.422 75.6255H87.0593L70.0678 91.9005L69.8926 75.6255H62.8858C59.2073 75.6255 56.0542 73.3505 56.0542 70.5505V34.8504C56.0542 32.0504 59.0321 29.7754 62.8858 29.7754H107.029" stroke="#221E20" stroke-width="5" stroke-miterlimit="10" stroke-linecap="round" stroke-linejoin="round"/>
<path d="M77.7752 42.8994L71.9946 60.0495H74.2718L76.0235 54.6244H82.1545L83.9062 60.0495H86.1834L80.4028 43.0744H77.7752V42.8994ZM76.5491 52.8744L78.3008 47.9744C78.6511 46.9244 78.8263 45.8744 79.1766 44.8244C79.3518 45.8744 79.7021 46.7494 80.0525 47.9744L81.8042 52.8744H76.5491Z" fill="#221E20" stroke="#221E20" stroke-width="1.5" stroke-miterlimit="10" stroke-linecap="round" stroke-linejoin="round"/>
<path d="M93.3653 42.8994C91.6136 42.8994 90.0371 43.0744 88.6357 43.2494V60.0495C89.6868 60.2245 91.0881 60.2245 92.6647 60.2245C95.9929 60.2245 98.6205 59.3495 100.197 57.7745C101.774 56.1995 102.649 53.9244 102.649 51.1244C102.649 48.3244 101.774 46.3994 100.197 44.9994C98.7956 43.5994 96.5184 42.8994 93.3653 42.8994ZM93.1902 58.2995C92.3143 58.2995 91.4385 58.2995 90.913 58.1245V44.6494C91.4385 44.4744 92.3143 44.4744 93.5405 44.4744C98.2701 44.4744 100.547 47.0994 100.372 51.1244C100.372 55.6745 97.9198 58.2995 93.1902 58.2995Z" fill="#221E20" stroke="#221E20" stroke-width="1.5" stroke-miterlimit="10" stroke-linecap="round" stroke-linejoin="round"/>
<path d="M110.707 50.4246C108.43 49.5496 107.379 48.6746 107.379 47.0996C107.379 45.8746 108.255 44.4746 110.532 44.4746C112.108 44.4746 113.159 44.9996 113.685 45.3496L114.211 43.5996C113.51 43.2496 112.108 42.7246 110.357 42.7246C107.029 42.7246 104.927 44.6496 104.927 47.2746C104.927 49.7246 106.678 51.1246 109.481 52.1746C111.758 53.0496 112.634 53.9246 112.634 55.4996C112.634 57.2496 111.233 58.4746 109.131 58.4746C107.554 58.4746 106.153 57.9496 105.102 57.4246L104.576 59.3496C105.452 59.8746 107.204 60.3997 108.955 60.3997C112.984 60.3997 114.911 58.1246 114.911 55.4996C115.086 52.8746 113.51 51.4746 110.707 50.4246Z" fill="#221E20" stroke="#221E20" stroke-width="1.5" stroke-miterlimit="10" stroke-linecap="round" stroke-linejoin="round"/>
</svg>
