<svg width="147" height="143" viewBox="0 0 147 143" fill="none" xmlns="http://www.w3.org/2000/svg">
<path d="M132.214 24.7393H99.4443C97.1732 24.7393 95.3887 26.5237 95.3887 28.7949V61.4022C95.3887 63.6733 97.1732 65.4578 99.4443 65.4578H132.052C134.323 65.4578 136.107 63.6733 136.107 61.4022V28.6327C136.107 26.5237 134.323 24.7393 132.214 24.7393Z" fill="#CAD4EA"/>
<path d="M111.773 69.8369H79.1655C76.8943 69.8369 75.1099 71.6214 75.1099 73.8925V106.5C75.1099 108.771 76.8943 110.555 79.1655 110.555H111.773C114.044 110.555 115.828 108.771 115.828 106.5V73.7303C115.828 71.6214 114.044 69.8369 111.773 69.8369Z" fill="#CAD4EA"/>
<g clip-path="url(#clip0)">
<path fill-rule="evenodd" clip-rule="evenodd" d="M118.875 55V44.5455H122.25L122.812 40.3636H118.875V37.8926C118.875 36.7521 119.25 35.9917 120.938 35.9917H123.188V32.1901C122.625 32.1901 121.312 32 119.812 32C116.625 32 114.562 33.9008 114.562 37.3223V40.3636H111V44.5455H114.562V55H118.875Z" fill="white"/>
</g>
<path d="M36.6629 86.2217H4.05563C1.78448 86.2217 0 88.0062 0 90.2773V122.885C0 125.156 1.78448 126.94 4.05563 126.94H36.6629C38.9341 126.94 40.7186 125.156 40.7186 122.885V90.2773C40.5563 88.0062 38.7719 86.2217 36.6629 86.2217Z" fill="#CAD4EA"/>
<path d="M43.4759 23.4404H10.8686C8.59747 23.4404 6.81299 25.2249 6.81299 27.4961V60.1034C6.81299 62.3745 8.59747 64.159 10.8686 64.159H43.4759C45.7471 64.159 47.5316 62.3745 47.5316 60.1034V27.3338C47.3693 25.2249 45.5848 23.4404 43.4759 23.4404Z" fill="#CAD4EA"/>
<path d="M101.227 124.344H22.2237C22.2237 124.344 22.2237 124.344 22.0615 124.344V131.319C22.0615 137.808 25.9549 143 30.8217 143H92.6296C97.4963 143 101.39 137.808 101.39 131.319L101.227 124.344ZM61.6445 136.024C59.0489 136.024 57.1022 133.915 57.1022 131.482C57.1022 128.886 59.2111 126.939 61.6445 126.939C64.2401 126.939 66.1868 129.048 66.1868 131.482C66.349 133.915 64.2401 136.024 61.6445 136.024Z" fill="#CAD4EA"/>
<path d="M22.2242 115.26H101.228C101.228 115.26 101.228 115.26 101.39 115.26V22.9537C101.39 16.4646 97.4968 11.2734 92.63 11.2734H30.8222C25.9554 11.2734 22.062 16.4646 22.062 22.9537V27.3337V41.1229L22.2242 115.26ZM56.7782 26.1982H66.674C69.2696 26.1982 71.2163 28.3071 71.2163 30.7405C71.2163 33.3361 69.1074 35.2828 66.674 35.2828H56.7782C54.1826 35.2828 52.2359 33.1739 52.2359 30.7405C52.2359 28.3071 54.3449 26.1982 56.7782 26.1982Z" fill="#CAD4EA"/>
<path d="M37.7988 14.1935C37.7988 8.02899 41.53 3 46.0723 3H104.798C109.34 3 113.071 8.02899 113.071 14.1935" stroke="#221E20" stroke-width="5" stroke-miterlimit="10" stroke-linecap="round" stroke-linejoin="round"/>
<path d="M70.7295 21.6553H80.1386" stroke="#221E20" stroke-width="5" stroke-miterlimit="10" stroke-linecap="round" stroke-linejoin="round"/>
<path d="M47.3691 106.175H112.908" stroke="#221E20" stroke-width="5" stroke-miterlimit="10" stroke-linecap="round" stroke-linejoin="round"/>
<path d="M75.4343 121.587C77.8533 121.587 79.8144 119.626 79.8144 117.207C79.8144 114.788 77.8533 112.827 75.4343 112.827C73.0152 112.827 71.0542 114.788 71.0542 117.207C71.0542 119.626 73.0152 121.587 75.4343 121.587Z" fill="#221E20"/>
<path d="M37.7979 77.9474V51.8291" stroke="#221E20" stroke-width="5" stroke-miterlimit="10" stroke-linecap="round" stroke-linejoin="round"/>
<path d="M113.07 98.3877V117.206C113.07 123.37 109.339 128.399 104.797 128.399H46.0713C41.529 128.399 37.7979 123.37 37.7979 117.206" stroke="#221E20" stroke-width="5" stroke-miterlimit="10" stroke-linecap="round" stroke-linejoin="round"/>
<g clip-path="url(#clip1)">
<path fill-rule="evenodd" clip-rule="evenodd" d="M35 38.9615C34.186 39.2885 33.3721 39.6154 32.5581 39.6154C33.3721 39.125 34.186 38.3077 34.5116 37.1635C33.6977 37.6538 32.7209 37.9808 31.7442 38.1442C30.7674 37.4904 29.7907 37 28.4884 37C26.0465 37 24.2558 38.9615 24.2558 41.25C24.2558 41.5769 24.2558 41.9038 24.4186 42.2308C20.6744 42.0673 17.5814 40.4327 15.4651 37.8173C15.1395 38.4712 14.814 39.125 14.814 39.9423C14.814 41.4135 15.6279 42.7212 16.7674 43.5385C16.1163 43.5385 15.4651 43.375 14.814 43.0481C14.814 45.1731 16.2791 46.8077 18.2326 47.2981C17.907 47.4615 17.5814 47.4615 17.093 47.4615C16.7674 47.4615 16.6047 47.4615 16.2791 47.4615C16.7674 49.0962 18.3953 50.4038 20.3488 50.4038C18.8837 51.5481 17.093 52.2019 14.9767 52.2019C14.6512 52.2019 14.3256 52.2019 14 52.2019C15.9535 53.3462 18.2326 54.1635 20.5116 54.1635C28.4884 54.1635 32.7209 47.625 32.7209 41.9038V41.4135C33.6977 40.5962 34.3488 39.9423 35 38.9615Z" fill="white"/>
</g>
<path d="M99.5294 78C93.1765 78 90 82.4574 90 86.2016C90 88.5194 90.8824 90.4806 92.8235 91.1938C93.1765 91.1938 93.3529 91.1938 93.5294 90.8372C93.5294 90.6589 93.5294 90.124 93.7059 89.9457C93.7059 89.5891 93.7059 89.4109 93.5294 89.2326C93 88.5194 92.6471 87.8062 92.6471 86.5581C92.6471 83.1705 95.1176 80.1395 99.1765 80.1395C102.706 80.1395 104.647 82.2791 104.647 85.1318C104.647 88.876 102.882 92.0853 100.412 92.0853C99 92.2636 98.1176 91.1938 98.2941 89.7674C98.6471 88.1628 99.5294 86.3798 99.5294 85.1318C99.5294 84.062 98.8235 83.1705 97.7647 83.1705C96.3529 83.1705 95.1176 84.5969 95.1176 86.5581C95.1176 87.8062 95.6471 88.6977 95.6471 88.6977C95.6471 88.6977 94.2353 94.7597 93.8824 95.8295C93.3529 97.969 93.7059 100.643 93.8824 100.822C93.8824 101 94.2353 101 94.2353 100.822C94.4118 100.643 96 98.6822 96.7059 96.5426C96.8824 96.0078 97.5882 92.9767 97.5882 92.9767C98.1176 93.8682 99.3529 94.5814 100.765 94.5814C105 94.5814 108 90.6589 108 85.4884C107.824 81.5659 104.647 78 99.5294 78Z" fill="white"/>
<g clip-path="url(#clip2)">
<path fill-rule="evenodd" clip-rule="evenodd" d="M14.3088 98H22.8309C25.7647 98 28.1397 100.375 28.1397 103.309V111.831C28.1397 114.765 25.7647 117.14 22.8309 117.14H14.3088C11.375 117 9 114.625 9 111.831V103.309C9 100.375 11.375 98 14.3088 98ZM22.8309 115.324C24.7868 115.324 26.3235 113.787 26.3235 111.831V103.309C26.3235 101.353 24.7868 99.8162 22.8309 99.8162H14.3088C12.3529 99.8162 10.8162 101.353 10.8162 103.309V111.831C10.8162 113.787 12.3529 115.324 14.3088 115.324H22.8309ZM13.4706 107.5C13.4706 104.706 15.7059 102.471 18.5 102.471C21.2941 102.471 23.5294 104.706 23.5294 107.5C23.5294 110.294 21.2941 112.529 18.5 112.529C15.7059 112.529 13.4706 110.294 13.4706 107.5ZM15.2868 107.5C15.2868 109.316 16.6838 110.713 18.5 110.713C20.3162 110.713 21.7132 109.316 21.7132 107.5C21.7132 105.684 20.3162 104.287 18.5 104.287C16.6838 104.287 15.2868 105.684 15.2868 107.5Z" fill="white"/>
</g>
<path d="M140.57 17.1152H110.718C109.061 17.1152 107.718 18.4584 107.718 20.1152V49.967C107.718 51.6239 109.061 52.967 110.718 52.967H140.57C142.226 52.967 143.57 51.6239 143.57 49.967V20.1152C143.57 18.4584 142.226 17.1152 140.57 17.1152Z" stroke="#221E20" stroke-width="5" stroke-miterlimit="10" stroke-linecap="round" stroke-linejoin="round"/>
<path d="M122.562 61.8877H92.71C91.0531 61.8877 89.71 63.2308 89.71 64.8877V94.7395C89.71 96.3964 91.0531 97.7395 92.71 97.7395H122.562C124.219 97.7395 125.562 96.3964 125.562 94.7395V64.8877C125.562 63.2308 124.219 61.8877 122.562 61.8877Z" stroke="#221E20" stroke-width="5" stroke-miterlimit="10" stroke-linecap="round" stroke-linejoin="round"/>
<path d="M52.6428 15.3281H22.791C21.1342 15.3281 19.791 16.6713 19.791 18.3281V48.1799C19.791 49.8368 21.1342 51.1799 22.791 51.1799H52.6428C54.2997 51.1799 55.6428 49.8368 55.6428 48.1799V18.3281C55.6428 16.6713 54.2997 15.3281 52.6428 15.3281Z" stroke="#221E20" stroke-width="5" stroke-miterlimit="10" stroke-linecap="round" stroke-linejoin="round"/>
<path d="M43.72 78.1104H13.8682C12.2113 78.1104 10.8682 79.4535 10.8682 81.1104V110.962C10.8682 112.619 12.2113 113.962 13.8682 113.962H43.72C45.3768 113.962 46.72 112.619 46.72 110.962V81.1104C46.72 79.4535 45.3768 78.1104 43.72 78.1104Z" stroke="#221E20" stroke-width="5" stroke-miterlimit="10" stroke-linecap="round" stroke-linejoin="round"/>
<g clip-path="url(#clip3)">
<path fill-rule="evenodd" clip-rule="evenodd" d="M48 26.9615C47.186 27.2885 46.3721 27.6154 45.5581 27.6154C46.3721 27.125 47.186 26.3077 47.5116 25.1635C46.6977 25.6538 45.7209 25.9808 44.7442 26.1442C43.7674 25.4904 42.7907 25 41.4884 25C39.0465 25 37.2558 26.9615 37.2558 29.25C37.2558 29.5769 37.2558 29.9038 37.4186 30.2308C33.6744 30.0673 30.5814 28.4327 28.4651 25.8173C28.1395 26.4712 27.814 27.125 27.814 27.9423C27.814 29.4135 28.6279 30.7212 29.7674 31.5385C29.1163 31.5385 28.4651 31.375 27.814 31.0481C27.814 33.1731 29.2791 34.8077 31.2326 35.2981C30.907 35.4615 30.5814 35.4615 30.093 35.4615C29.7674 35.4615 29.6047 35.4615 29.2791 35.4615C29.7674 37.0962 31.3953 38.4038 33.3488 38.4038C31.8837 39.5481 30.093 40.2019 27.9767 40.2019C27.6512 40.2019 27.3256 40.2019 27 40.2019C28.9535 41.3462 31.2326 42.1635 33.5116 42.1635C41.4884 42.1635 45.7209 35.625 45.7209 29.9038V29.4135C46.6977 28.5962 47.3488 27.9423 48 26.9615Z" fill="#221E20"/>
</g>
<path d="M108.529 69C102.176 69 99 73.4574 99 77.2016C99 79.5194 99.8824 81.4806 101.824 82.1938C102.176 82.1938 102.353 82.1938 102.529 81.8372C102.529 81.6589 102.529 81.124 102.706 80.9457C102.706 80.5891 102.706 80.4109 102.529 80.2326C102 79.5194 101.647 78.8062 101.647 77.5581C101.647 74.1705 104.118 71.1395 108.176 71.1395C111.706 71.1395 113.647 73.2791 113.647 76.1318C113.647 79.876 111.882 83.0853 109.412 83.0853C108 83.2636 107.118 82.1938 107.294 80.7674C107.647 79.1628 108.529 77.3798 108.529 76.1318C108.529 75.062 107.824 74.1705 106.765 74.1705C105.353 74.1705 104.118 75.5969 104.118 77.5581C104.118 78.8062 104.647 79.6977 104.647 79.6977C104.647 79.6977 103.235 85.7597 102.882 86.8295C102.353 88.969 102.706 91.6434 102.882 91.8217C102.882 92 103.235 92 103.235 91.8217C103.412 91.6434 105 89.6822 105.706 87.5426C105.882 87.0078 106.588 83.9767 106.588 83.9767C107.118 84.8682 108.353 85.5814 109.765 85.5814C114 85.5814 117 81.6589 117 76.4884C116.824 72.5659 113.647 69 108.529 69Z" fill="#221E20"/>
<g clip-path="url(#clip4)">
<path fill-rule="evenodd" clip-rule="evenodd" d="M127.875 46V35.5455H131.25L131.812 31.3636H127.875V28.8926C127.875 27.7521 128.25 26.9917 129.938 26.9917H132.188V23.1901C131.625 23.1901 130.312 23 128.812 23C125.625 23 123.562 24.9008 123.562 28.3223V31.3636H120V35.5455H123.562V46H127.875Z" fill="#221E20"/>
</g>
<g clip-path="url(#clip5)">
<path fill-rule="evenodd" clip-rule="evenodd" d="M24.3088 87H32.8309C35.7647 87 38.1397 89.375 38.1397 92.3088V100.831C38.1397 103.765 35.7647 106.14 32.8309 106.14H24.3088C21.375 106 19 103.625 19 100.831V92.3088C19 89.375 21.375 87 24.3088 87ZM32.8309 104.324C34.7868 104.324 36.3235 102.787 36.3235 100.831V92.3088C36.3235 90.3529 34.7868 88.8162 32.8309 88.8162H24.3088C22.3529 88.8162 20.8162 90.3529 20.8162 92.3088V100.831C20.8162 102.787 22.3529 104.324 24.3088 104.324H32.8309ZM23.4706 96.5C23.4706 93.7059 25.7059 91.4706 28.5 91.4706C31.2941 91.4706 33.5294 93.7059 33.5294 96.5C33.5294 99.2941 31.2941 101.529 28.5 101.529C25.7059 101.529 23.4706 99.2941 23.4706 96.5ZM25.2868 96.5C25.2868 98.3162 26.6838 99.7132 28.5 99.7132C30.3162 99.7132 31.7132 98.3162 31.7132 96.5C31.7132 94.6838 30.3162 93.2868 28.5 93.2868C26.6838 93.2868 25.2868 94.6838 25.2868 96.5Z" fill="#221E20"/>
</g>
<defs>
<clipPath id="clip0">
<rect width="12" height="23" fill="white" transform="translate(111 32)"/>
</clipPath>
<clipPath id="clip1">
<rect width="21" height="17" fill="white" transform="translate(14 37)"/>
</clipPath>
<clipPath id="clip2">
<rect width="19" height="19" fill="white" transform="translate(9 98)"/>
</clipPath>
<clipPath id="clip3">
<rect width="21" height="17" fill="white" transform="translate(27 25)"/>
</clipPath>
<clipPath id="clip4">
<rect width="12" height="23" fill="white" transform="translate(120 23)"/>
</clipPath>
<clipPath id="clip5">
<rect width="19" height="19" fill="white" transform="translate(19 87)"/>
</clipPath>
</defs>
</svg>
