<svg width="36" height="36" viewBox="0 0 36 36" fill="none" xmlns="http://www.w3.org/2000/svg">
<path fill-rule="evenodd" clip-rule="evenodd" d="M32.7273 9.2194C31.7035 9.67308 30.6049 9.98076 29.4506 10.1181C30.6292 9.41235 31.5314 8.2929 31.959 6.96308C30.8534 7.61667 29.6331 8.09126 28.3328 8.34853C27.2916 7.23776 25.8105 6.5459 24.1678 6.5459C21.0163 6.5459 18.461 9.10122 18.461 12.251C18.461 12.6978 18.5114 13.1341 18.6087 13.5513C13.8666 13.3131 9.66168 11.0412 6.84736 7.58885C6.35541 8.43022 6.07554 9.41058 6.07554 10.4571C6.07554 12.437 7.08377 14.184 8.6135 15.2061C7.67827 15.1749 6.79868 14.9176 6.02863 14.4899V14.5612C6.02863 17.3251 7.99641 19.6319 10.6056 20.1569C10.1275 20.2855 9.62345 20.3568 9.10195 20.3568C8.73345 20.3568 8.37709 20.3203 8.02768 20.2507C8.75427 22.5192 10.8611 24.1689 13.3574 24.2141C11.4052 25.7438 8.94377 26.6529 6.27027 26.6529C5.80963 26.6529 5.35591 26.6251 4.90918 26.5747C7.43495 28.1966 10.4335 29.1422 13.6564 29.1422C24.154 29.1422 29.8922 20.4472 29.8922 12.9064L29.873 12.1676C30.9942 11.3679 31.9642 10.3632 32.7273 9.2194Z" fill="#FEFEFE"/>
<mask id="mask0" mask-type="alpha" maskUnits="userSpaceOnUse" x="4" y="6" width="29" height="24">
<path fill-rule="evenodd" clip-rule="evenodd" d="M32.7273 9.2194C31.7035 9.67308 30.6049 9.98076 29.4506 10.1181C30.6292 9.41235 31.5314 8.2929 31.959 6.96308C30.8534 7.61667 29.6331 8.09126 28.3328 8.34853C27.2916 7.23776 25.8105 6.5459 24.1678 6.5459C21.0163 6.5459 18.461 9.10122 18.461 12.251C18.461 12.6978 18.5114 13.1341 18.6087 13.5513C13.8666 13.3131 9.66168 11.0412 6.84736 7.58885C6.35541 8.43022 6.07554 9.41058 6.07554 10.4571C6.07554 12.437 7.08377 14.184 8.6135 15.2061C7.67827 15.1749 6.79868 14.9176 6.02863 14.4899V14.5612C6.02863 17.3251 7.99641 19.6319 10.6056 20.1569C10.1275 20.2855 9.62345 20.3568 9.10195 20.3568C8.73345 20.3568 8.37709 20.3203 8.02768 20.2507C8.75427 22.5192 10.8611 24.1689 13.3574 24.2141C11.4052 25.7438 8.94377 26.6529 6.27027 26.6529C5.80963 26.6529 5.35591 26.6251 4.90918 26.5747C7.43495 28.1966 10.4335 29.1422 13.6564 29.1422C24.154 29.1422 29.8922 20.4472 29.8922 12.9064L29.873 12.1676C30.9942 11.3679 31.9642 10.3632 32.7273 9.2194Z" fill="white"/>
</mask>
<g mask="url(#mask0)">
</g>
</svg>
